G04 Layer_Color=13813960*
%FSLAX24Y24*%
%MOIN*%
G70*
G01*
G75*
%ADD31C,0.0100*%
%ADD61C,0.0079*%
%ADD62C,0.0050*%
%ADD65C,0.0039*%
%ADD110C,0.0059*%
G36*
X31845Y44276D02*
Y44270D01*
X31840Y44259D01*
Y44248D01*
Y44237D01*
Y44221D01*
Y44216D01*
Y44205D01*
Y44194D01*
Y44188D01*
Y44183D01*
Y44177D01*
Y44161D01*
Y44155D01*
Y44150D01*
Y44139D01*
X31845Y44134D01*
Y44139D01*
X31856Y44144D01*
X31862Y44150D01*
Y44161D01*
X31867Y44172D01*
X31884Y44194D01*
Y44199D01*
X31889Y44205D01*
Y44210D01*
X31895Y44221D01*
Y44226D01*
X31900Y44237D01*
Y44243D01*
X31911Y44259D01*
X31916Y44265D01*
Y44259D01*
X31922Y44254D01*
Y44248D01*
Y44237D01*
X31916Y44232D01*
X31911Y44221D01*
X31900Y44188D01*
X31895Y44183D01*
X31884Y44155D01*
Y44150D01*
X31878Y44144D01*
X31873Y44134D01*
X31867Y44128D01*
X31862D01*
X31856Y44123D01*
X31851Y44112D01*
X31845Y44106D01*
X31840Y44101D01*
X31834Y44106D01*
Y44112D01*
X31829Y44123D01*
X31823Y44144D01*
Y44183D01*
Y44188D01*
Y44194D01*
Y44221D01*
Y44248D01*
X31829Y44270D01*
Y44276D01*
X31834Y44281D01*
X31840D01*
X31845Y44276D01*
D02*
G37*
G36*
X33158Y44270D02*
X33185D01*
X33190Y44265D01*
X33201Y44254D01*
X33207Y44243D01*
Y44237D01*
X33218Y44216D01*
Y44205D01*
X33223Y44188D01*
Y44166D01*
Y44161D01*
X33218Y44150D01*
X33207Y44112D01*
X33196Y44101D01*
X33179Y44095D01*
X33158Y44090D01*
X33114D01*
X33097Y44095D01*
X33092Y44101D01*
X33087D01*
X33081Y44106D01*
Y44112D01*
X33087Y44117D01*
X33092D01*
X33108Y44112D01*
X33114D01*
X33125Y44106D01*
X33163D01*
X33169Y44112D01*
X33174D01*
X33185Y44117D01*
X33190Y44123D01*
X33196Y44134D01*
Y44144D01*
X33201Y44150D01*
X33207Y44172D01*
Y44177D01*
Y44183D01*
Y44194D01*
X33201Y44199D01*
X33196Y44205D01*
Y44216D01*
Y44221D01*
X33190Y44232D01*
X33179Y44243D01*
X33158Y44248D01*
X33152D01*
X33141Y44254D01*
X33130Y44259D01*
Y44265D01*
Y44270D01*
X33136Y44276D01*
X33152D01*
X33158Y44270D01*
D02*
G37*
G36*
X33551Y44276D02*
X33568Y44265D01*
X33573D01*
X33579Y44259D01*
X33584Y44248D01*
X33590Y44237D01*
X33601Y44226D01*
Y44221D01*
X33606Y44210D01*
Y44188D01*
X33601Y44155D01*
Y44150D01*
X33595Y44128D01*
X33584Y44112D01*
X33573Y44101D01*
X33568D01*
X33562Y44095D01*
X33540Y44084D01*
X33535D01*
X33524Y44079D01*
X33502D01*
X33480Y44084D01*
X33475Y44090D01*
X33458D01*
X33447Y44095D01*
X33442Y44101D01*
X33431D01*
X33426Y44112D01*
X33420Y44128D01*
X33415Y44134D01*
X33409Y44150D01*
X33404Y44172D01*
X33409Y44199D01*
X33415Y44205D01*
X33420Y44216D01*
Y44226D01*
X33426Y44232D01*
X33436Y44248D01*
Y44254D01*
X33447Y44265D01*
X33458Y44270D01*
X33469Y44276D01*
X33486Y44281D01*
X33535D01*
X33551Y44276D01*
D02*
G37*
G36*
X31627Y44237D02*
X31632D01*
X31637Y44232D01*
X31643Y44221D01*
Y44216D01*
X31632Y44205D01*
X31572Y44128D01*
X31566Y44117D01*
X31561Y44101D01*
X31566Y44095D01*
X31572Y44090D01*
X31599D01*
X31621Y44095D01*
X31643D01*
Y44090D01*
X31637Y44084D01*
X31627Y44079D01*
X31616D01*
X31583Y44073D01*
X31572D01*
X31550Y44084D01*
X31545Y44095D01*
Y44112D01*
X31555Y44134D01*
X31577Y44166D01*
X31599Y44194D01*
X31605Y44199D01*
X31610Y44210D01*
Y44216D01*
X31605Y44221D01*
X31599D01*
X31594Y44226D01*
X31588Y44232D01*
X31594Y44237D01*
X31599Y44243D01*
X31610D01*
X31627Y44237D01*
D02*
G37*
G36*
X33294Y44270D02*
Y44265D01*
X33289Y44259D01*
X33283Y44237D01*
Y44226D01*
X33278Y44216D01*
X33272Y44210D01*
Y44199D01*
Y44183D01*
Y44177D01*
Y44166D01*
Y44155D01*
X33267Y44144D01*
X33261Y44139D01*
Y44134D01*
X33267Y44123D01*
X33272Y44117D01*
X33278Y44123D01*
X33283Y44128D01*
Y44134D01*
X33289Y44144D01*
X33305Y44161D01*
X33327Y44194D01*
X33333Y44199D01*
X33338Y44205D01*
X33349Y44216D01*
X33354Y44221D01*
X33360Y44226D01*
X33371Y44243D01*
X33376Y44248D01*
X33382Y44259D01*
X33393D01*
Y44248D01*
X33387Y44237D01*
X33382Y44232D01*
Y44205D01*
Y44194D01*
X33376Y44177D01*
Y44166D01*
Y44155D01*
Y44139D01*
Y44134D01*
X33382Y44128D01*
X33398Y44106D01*
X33404Y44101D01*
Y44095D01*
X33398Y44084D01*
X33393D01*
X33387Y44079D01*
X33382Y44084D01*
X33371Y44090D01*
Y44095D01*
X33365Y44101D01*
X33360Y44117D01*
Y44139D01*
Y44144D01*
Y44155D01*
X33354Y44172D01*
X33344D01*
X33333Y44161D01*
X33311Y44139D01*
X33294Y44117D01*
X33272Y44095D01*
X33267Y44090D01*
X33261Y44084D01*
X33256Y44079D01*
X33251D01*
X33245Y44084D01*
X33240Y44101D01*
Y44106D01*
Y44112D01*
Y44128D01*
Y44139D01*
Y44161D01*
Y44166D01*
Y44172D01*
X33245Y44183D01*
X33251Y44188D01*
Y44199D01*
X33256Y44221D01*
Y44226D01*
X33261Y44248D01*
X33267Y44265D01*
X33272Y44276D01*
X33294D01*
Y44270D01*
D02*
G37*
G36*
X31233Y44134D02*
Y44123D01*
X31222D01*
X31216Y44128D01*
Y44134D01*
Y44139D01*
X31233Y44134D01*
D02*
G37*
G36*
X33158Y44194D02*
X33169D01*
X33179Y44188D01*
X33185Y44177D01*
X33179Y44172D01*
X33169Y44161D01*
X33152D01*
X33147Y44166D01*
X33141Y44172D01*
X33125Y44177D01*
X33119D01*
X33114Y44188D01*
Y44194D01*
X33119Y44199D01*
X33141D01*
X33158Y44194D01*
D02*
G37*
G36*
X31780Y44254D02*
X31785Y44248D01*
X31791Y44237D01*
X31796Y44226D01*
Y44221D01*
X31802Y44216D01*
X31807Y44199D01*
X31812Y44177D01*
Y44172D01*
Y44161D01*
X31807Y44123D01*
X31802Y44106D01*
X31796Y44101D01*
X31785Y44095D01*
X31774Y44090D01*
X31763Y44084D01*
X31758D01*
X31747Y44079D01*
X31709D01*
X31698Y44084D01*
X31681Y44090D01*
X31676Y44095D01*
X31670Y44101D01*
Y44106D01*
Y44112D01*
X31676Y44106D01*
X31681D01*
X31698Y44101D01*
X31709D01*
X31730Y44095D01*
X31747D01*
X31752Y44101D01*
X31763D01*
X31769Y44106D01*
X31780Y44117D01*
X31791Y44139D01*
X31802Y44155D01*
X31791Y44166D01*
X31785Y44172D01*
X31780Y44177D01*
X31730Y44188D01*
X31725D01*
X31720Y44194D01*
X31714Y44199D01*
Y44205D01*
X31720Y44210D01*
X31730D01*
X31736Y44205D01*
X31763Y44199D01*
X31780D01*
X31785Y44205D01*
X31780Y44210D01*
X31774Y44221D01*
X31769Y44226D01*
X31763Y44237D01*
X31758Y44243D01*
X31659D01*
Y44248D01*
X31665Y44254D01*
X31681Y44259D01*
X31714Y44265D01*
X31763D01*
X31780Y44254D01*
D02*
G37*
G36*
X32999Y44281D02*
X33005Y44276D01*
X32999Y44270D01*
X32994Y44254D01*
X32988Y44248D01*
X32983Y44243D01*
X32977Y44232D01*
X32972Y44226D01*
X32966Y44216D01*
X32961Y44210D01*
Y44199D01*
Y44194D01*
X32955Y44188D01*
X32950D01*
Y44177D01*
Y44172D01*
X32944Y44161D01*
X32939Y44155D01*
Y44150D01*
X32917Y44112D01*
X32906Y44095D01*
X32901D01*
X32895Y44090D01*
X32890Y44095D01*
X32884Y44101D01*
Y44106D01*
X32879Y44123D01*
X32873Y44139D01*
Y44144D01*
X32868Y44155D01*
X32862Y44144D01*
Y44134D01*
Y44123D01*
X32857Y44112D01*
X32846Y44101D01*
X32840Y44095D01*
X32824Y44084D01*
X32802D01*
X32797Y44090D01*
X32780D01*
X32769Y44095D01*
X32764Y44101D01*
X32758D01*
X32748Y44106D01*
X32742Y44112D01*
X32737Y44123D01*
Y44128D01*
X32731Y44134D01*
X32726Y44144D01*
Y44161D01*
X32731Y44188D01*
X32737Y44194D01*
X32742Y44216D01*
X32758Y44232D01*
X32780Y44254D01*
X32786Y44259D01*
X32797Y44265D01*
X32808D01*
X32830Y44254D01*
X32835Y44248D01*
X32846Y44243D01*
X32857Y44226D01*
X32862Y44210D01*
Y44205D01*
X32868Y44199D01*
X32873Y44205D01*
Y44210D01*
Y44216D01*
Y44237D01*
Y44243D01*
X32868Y44248D01*
Y44254D01*
Y44259D01*
Y44276D01*
Y44281D01*
X32879Y44287D01*
X32884D01*
Y44248D01*
Y44243D01*
Y44237D01*
X32890Y44210D01*
X32895Y44166D01*
Y44161D01*
X32901Y44144D01*
Y44134D01*
X32906D01*
Y44139D01*
X32922Y44177D01*
Y44183D01*
X32928D01*
X32933Y44188D01*
X32939Y44199D01*
Y44205D01*
X32944Y44210D01*
Y44216D01*
X32950Y44221D01*
X32961Y44248D01*
Y44254D01*
X32966Y44259D01*
X32977Y44281D01*
X32983Y44287D01*
X32988D01*
X32999Y44281D01*
D02*
G37*
G36*
X32343Y44270D02*
Y44254D01*
Y44248D01*
X32337Y44237D01*
X32332Y44226D01*
Y44210D01*
Y44177D01*
Y44166D01*
Y44150D01*
Y44128D01*
X32326Y44117D01*
X32321Y44101D01*
X32316Y44095D01*
X32305D01*
X32288Y44101D01*
X32283D01*
X32272Y44106D01*
X32255Y44112D01*
X32228D01*
X32217Y44117D01*
X32201D01*
X32190Y44123D01*
X32184D01*
X32173Y44128D01*
X32162Y44123D01*
X32157Y44112D01*
Y44101D01*
X32146Y44090D01*
X32064D01*
X32053Y44095D01*
X32048Y44101D01*
X32042D01*
X32037Y44095D01*
Y44090D01*
X32031Y44084D01*
X32026D01*
Y44095D01*
Y44101D01*
Y44112D01*
X32020Y44123D01*
X32015D01*
X32009Y44117D01*
X31998D01*
X31993Y44123D01*
X31982D01*
X31977Y44117D01*
X31971Y44112D01*
X31960Y44101D01*
X31955Y44095D01*
Y44090D01*
X31949Y44084D01*
Y44073D01*
X31944Y44068D01*
X31938D01*
X31933Y44073D01*
Y44084D01*
X31938Y44095D01*
Y44101D01*
X31944Y44112D01*
Y44128D01*
X31938Y44139D01*
X31933Y44144D01*
X31938Y44150D01*
X31960D01*
X31966Y44155D01*
X31971Y44166D01*
X31977Y44177D01*
Y44183D01*
X31987Y44199D01*
X31993Y44216D01*
X31998Y44226D01*
Y44232D01*
Y44243D01*
X32009Y44254D01*
X32020Y44259D01*
X32026D01*
X32031Y44254D01*
Y44243D01*
X32026Y44237D01*
Y44216D01*
Y44210D01*
Y44199D01*
Y44194D01*
X32031Y44177D01*
X32037Y44112D01*
X32064D01*
X32091Y44106D01*
X32130D01*
X32135Y44112D01*
X32141Y44117D01*
Y44123D01*
X32146Y44128D01*
X32151Y44155D01*
Y44161D01*
X32146Y44166D01*
Y44172D01*
X32141Y44177D01*
X32124D01*
X32119Y44183D01*
X32108Y44188D01*
X32102Y44194D01*
Y44199D01*
Y44205D01*
Y44210D01*
X32113D01*
X32124Y44205D01*
X32135Y44199D01*
X32151D01*
X32157Y44205D01*
Y44210D01*
X32151Y44216D01*
X32146Y44221D01*
X32141Y44226D01*
X32130Y44232D01*
X32113D01*
X32108Y44237D01*
X32097Y44243D01*
X32091Y44248D01*
X32064D01*
X32059Y44254D01*
Y44259D01*
X32064Y44265D01*
X32086D01*
X32097Y44259D01*
X32108Y44254D01*
X32113D01*
X32124Y44248D01*
X32141D01*
X32162Y44254D01*
X32184Y44226D01*
Y44221D01*
X32179Y44216D01*
X32173Y44210D01*
X32168Y44199D01*
Y44177D01*
Y44172D01*
Y44161D01*
Y44150D01*
X32173Y44139D01*
X32179D01*
X32195Y44134D01*
X32261Y44128D01*
X32305D01*
X32310Y44134D01*
Y44139D01*
Y44155D01*
Y44166D01*
X32316Y44188D01*
Y44216D01*
Y44226D01*
Y44243D01*
X32321Y44265D01*
X32326Y44276D01*
X32343D01*
Y44270D01*
D02*
G37*
G36*
X32698Y44265D02*
Y44243D01*
Y44221D01*
Y44199D01*
Y44194D01*
Y44188D01*
Y44161D01*
Y44134D01*
X32693Y44112D01*
X32687Y44106D01*
X32682Y44101D01*
X32671D01*
X32665Y44106D01*
X32655Y44112D01*
X32649D01*
X32627Y44117D01*
X32622D01*
X32616Y44123D01*
X32589Y44134D01*
X32583D01*
X32573Y44139D01*
X32567D01*
Y44144D01*
X32573Y44150D01*
X32611D01*
X32633Y44144D01*
X32638D01*
X32649Y44139D01*
X32655D01*
X32660Y44134D01*
X32665D01*
X32671Y44144D01*
X32676Y44155D01*
Y44172D01*
Y44177D01*
Y44188D01*
Y44199D01*
X32682Y44210D01*
Y44216D01*
Y44226D01*
Y44254D01*
Y44259D01*
X32676Y44265D01*
Y44276D01*
X32682Y44281D01*
X32698D01*
Y44265D01*
D02*
G37*
G36*
X35055Y43024D02*
Y43018D01*
X35060Y43007D01*
Y42985D01*
Y42980D01*
Y42969D01*
Y42952D01*
Y42942D01*
Y42936D01*
X35050Y42909D01*
X35044Y42903D01*
Y42887D01*
Y42881D01*
X35039Y42859D01*
X35033Y42843D01*
X35028Y42832D01*
X35017Y42810D01*
X35011D01*
X35006Y42805D01*
X35000Y42799D01*
X34989Y42794D01*
X34935D01*
X34918Y42799D01*
X34902Y42805D01*
X34896Y42810D01*
X34880Y42827D01*
X34864Y42838D01*
Y42881D01*
Y42887D01*
Y42903D01*
Y42920D01*
X34869Y42925D01*
Y42931D01*
X34875Y42942D01*
Y42947D01*
X34880Y42952D01*
X34885Y42958D01*
Y42963D01*
X34891Y42974D01*
X34896Y42985D01*
X34913Y43007D01*
Y43013D01*
X34940D01*
Y43007D01*
X34929Y42996D01*
X34913Y42969D01*
X34902Y42952D01*
X34896Y42947D01*
X34885Y42931D01*
X34880Y42903D01*
X34875Y42876D01*
Y42870D01*
X34880Y42859D01*
X34885Y42843D01*
X34902Y42832D01*
X34907Y42827D01*
X34913Y42821D01*
X34929D01*
X34940Y42816D01*
X34946D01*
X34968Y42810D01*
X34989Y42816D01*
X35000Y42827D01*
X35011Y42838D01*
X35017Y42849D01*
X35022Y42870D01*
X35028Y42909D01*
X35033Y42963D01*
Y43024D01*
X35044Y43029D01*
X35050D01*
X35055Y43024D01*
D02*
G37*
G36*
X33786Y43084D02*
X33797Y43078D01*
X33808Y43073D01*
X33825Y43056D01*
X33830D01*
X33836Y43045D01*
X33847Y43040D01*
X33852Y43029D01*
X33858Y43018D01*
Y43007D01*
Y42991D01*
Y42969D01*
Y42963D01*
Y42952D01*
Y42936D01*
Y42925D01*
X33847Y42909D01*
Y42898D01*
X33841Y42887D01*
X33830Y42870D01*
X33825Y42865D01*
X33814Y42859D01*
X33786Y42838D01*
X33770Y42832D01*
X33765Y42827D01*
X33759D01*
X33743Y42821D01*
X33732D01*
X33710Y42816D01*
X33683D01*
X33672Y42821D01*
X33666Y42827D01*
X33655D01*
X33650Y42832D01*
X33639D01*
X33628Y42843D01*
X33622D01*
X33611Y42849D01*
X33606Y42859D01*
X33590Y42876D01*
Y42909D01*
Y42914D01*
Y42925D01*
Y42942D01*
X33595Y42958D01*
X33601Y42974D01*
Y42980D01*
X33606Y42991D01*
X33611Y42996D01*
X33617Y43007D01*
Y43013D01*
X33622Y43024D01*
X33628Y43040D01*
Y43045D01*
X33639Y43051D01*
X33644Y43056D01*
X33650Y43067D01*
X33661D01*
Y43073D01*
X33672D01*
X33677Y43078D01*
X33693D01*
X33699Y43084D01*
X33715D01*
X33737Y43089D01*
X33770D01*
X33786Y43084D01*
D02*
G37*
G36*
X35153Y43034D02*
Y43024D01*
X35148Y43018D01*
X35142Y43007D01*
X35137Y42996D01*
Y42991D01*
Y42974D01*
X35132Y42963D01*
X35126Y42952D01*
X35121Y42942D01*
X35126Y42936D01*
X35132Y42931D01*
X35153Y42925D01*
X35164D01*
X35175Y42920D01*
X35192D01*
X35225Y42914D01*
X35235D01*
X35241Y42920D01*
Y42931D01*
Y42947D01*
Y42969D01*
Y43029D01*
X35263D01*
X35274Y43024D01*
X35268Y43007D01*
Y42996D01*
Y42985D01*
Y42969D01*
Y42963D01*
X35263Y42952D01*
Y42925D01*
X35257Y42914D01*
Y42903D01*
Y42887D01*
Y42881D01*
Y42870D01*
X35252Y42843D01*
X35241Y42821D01*
Y42816D01*
X35235Y42799D01*
X35230Y42794D01*
X35225D01*
X35219Y42799D01*
Y42805D01*
Y42810D01*
Y42821D01*
X35225Y42832D01*
Y42838D01*
X35230Y42843D01*
X35235Y42870D01*
Y42876D01*
X35230Y42881D01*
X35225Y42892D01*
X35208D01*
X35203Y42898D01*
X35197D01*
X35186Y42903D01*
X35137D01*
X35132Y42909D01*
X35126Y42914D01*
X35121Y42909D01*
X35115Y42898D01*
X35110Y42892D01*
Y42881D01*
Y42876D01*
X35104Y42865D01*
X35099Y42859D01*
Y42849D01*
Y42843D01*
X35093Y42838D01*
X35088Y42832D01*
Y42816D01*
X35082Y42810D01*
X35060D01*
X35082Y42854D01*
Y42859D01*
X35088Y42870D01*
Y42876D01*
X35093Y42887D01*
Y42892D01*
X35099Y42909D01*
Y42914D01*
X35093Y42920D01*
X35088Y42925D01*
X35077D01*
X35071Y42931D01*
X35066D01*
X35071Y42936D01*
X35099D01*
X35104Y42942D01*
X35110Y42958D01*
Y42963D01*
X35115Y42985D01*
Y42991D01*
Y42996D01*
X35121Y43013D01*
Y43018D01*
Y43024D01*
X35132Y43034D01*
X35137Y43040D01*
X35153D01*
Y43034D01*
D02*
G37*
G36*
X34623Y43067D02*
X34629Y43062D01*
X34634Y43056D01*
X34639Y43034D01*
X34634Y43024D01*
X34629Y43007D01*
X34623Y43002D01*
Y42974D01*
Y42969D01*
Y42963D01*
X34618Y42942D01*
X34612Y42909D01*
Y42898D01*
X34607Y42887D01*
X34601Y42881D01*
Y42876D01*
Y42859D01*
Y42854D01*
Y42849D01*
Y42838D01*
X34596Y42832D01*
X34590D01*
Y42827D01*
X34585Y42816D01*
X34579Y42810D01*
Y42783D01*
Y42777D01*
X34574Y42772D01*
Y42767D01*
X34568Y42772D01*
X34557Y42783D01*
X34541Y42788D01*
X34536D01*
X34530Y42794D01*
X34508Y42805D01*
X34486Y42827D01*
X34475Y42849D01*
Y42854D01*
Y42859D01*
X34481Y42887D01*
Y42892D01*
Y42898D01*
Y42909D01*
X34486Y42914D01*
Y42920D01*
X34492Y42931D01*
Y42936D01*
X34497Y42952D01*
Y42958D01*
Y42963D01*
X34503Y42974D01*
Y42980D01*
X34508Y42991D01*
Y42996D01*
X34514Y43013D01*
Y43024D01*
X34525Y43034D01*
X34536Y43051D01*
X34541Y43056D01*
X34552Y43062D01*
X34568Y43073D01*
X34607D01*
X34623Y43067D01*
D02*
G37*
G36*
X34689Y43051D02*
Y43045D01*
X34694Y43034D01*
X34689Y43029D01*
Y43018D01*
Y42996D01*
Y42991D01*
Y42980D01*
X34683Y42952D01*
X34678Y42947D01*
Y42925D01*
Y42914D01*
X34672Y42898D01*
X34667Y42892D01*
Y42865D01*
Y42854D01*
X34661Y42838D01*
Y42832D01*
X34656Y42827D01*
Y42821D01*
X34661Y42816D01*
X34667D01*
X34672Y42821D01*
X34689Y42832D01*
X34705Y42843D01*
X34711Y42849D01*
X34716Y42859D01*
X34738Y42887D01*
X34809Y42974D01*
Y42980D01*
Y42991D01*
Y42996D01*
X34814Y43002D01*
X34820Y43007D01*
X34825Y43018D01*
Y43024D01*
X34836Y43029D01*
X34847D01*
X34853Y43024D01*
X34847Y43013D01*
X34836Y42991D01*
X34825Y42958D01*
Y42854D01*
Y42849D01*
X34831Y42838D01*
Y42832D01*
X34836Y42816D01*
X34831Y42805D01*
X34820Y42794D01*
X34814D01*
X34809Y42799D01*
Y42810D01*
Y42816D01*
Y42821D01*
X34803Y42843D01*
Y42854D01*
Y42870D01*
Y42892D01*
Y42903D01*
Y42920D01*
X34798Y42931D01*
X34793Y42925D01*
Y42920D01*
X34787Y42914D01*
X34771Y42892D01*
X34743Y42854D01*
X34711Y42821D01*
X34705Y42816D01*
X34700Y42810D01*
X34689Y42805D01*
X34683D01*
X34678Y42799D01*
X34656Y42794D01*
X34650Y42799D01*
X34645Y42810D01*
X34639Y42821D01*
Y42827D01*
Y42832D01*
Y42849D01*
X34645Y42859D01*
Y42865D01*
X34650Y42870D01*
X34656Y42892D01*
Y42898D01*
X34661Y42914D01*
Y42920D01*
Y42925D01*
X34667Y42952D01*
Y42958D01*
Y42963D01*
Y42974D01*
X34672Y42980D01*
Y42991D01*
X34678Y43002D01*
Y43018D01*
Y43029D01*
Y43045D01*
X34683Y43056D01*
X34689Y43051D01*
D02*
G37*
G36*
X34191Y43078D02*
X34197D01*
X34207Y43067D01*
X34224Y43056D01*
X34235Y43040D01*
Y43034D01*
Y43029D01*
Y43002D01*
X34229Y42991D01*
X34224Y42969D01*
Y42963D01*
X34213Y42947D01*
X34207Y42936D01*
Y42920D01*
Y42898D01*
Y42892D01*
Y42881D01*
Y42870D01*
X34202Y42859D01*
X34197Y42854D01*
Y42849D01*
Y42832D01*
Y42827D01*
X34191Y42821D01*
X34180Y42816D01*
X34175Y42821D01*
X34169Y42832D01*
X34175Y42849D01*
Y42854D01*
Y42865D01*
X34180Y42887D01*
Y42892D01*
Y42903D01*
Y42920D01*
X34186Y42925D01*
Y42936D01*
X34191Y42947D01*
Y42963D01*
Y42969D01*
Y42980D01*
X34197Y42991D01*
X34202Y43002D01*
Y43007D01*
Y43013D01*
Y43034D01*
Y43040D01*
X34191Y43045D01*
X34186Y43056D01*
X34169Y43062D01*
X34136D01*
X34120Y43051D01*
X34109Y43034D01*
Y43013D01*
Y42985D01*
X34125Y42969D01*
X34136Y42963D01*
X34142Y42958D01*
X34153Y42952D01*
X34158D01*
Y42947D01*
X34164Y42936D01*
Y42931D01*
X34169Y42914D01*
X34158Y42903D01*
X34153Y42898D01*
X34142Y42876D01*
X34136D01*
X34131Y42870D01*
X34120Y42865D01*
X34115D01*
Y42859D01*
X34109Y42854D01*
X34098Y42849D01*
X34087Y42843D01*
X34082D01*
X34076Y42838D01*
X34065Y42832D01*
X34060Y42827D01*
X34054D01*
X34032Y42821D01*
X34027D01*
X34016Y42816D01*
X34005Y42810D01*
X34000Y42805D01*
X33994Y42810D01*
X34000Y42816D01*
X34005Y42821D01*
X34011D01*
X34016Y42827D01*
X34049Y42843D01*
X34076Y42859D01*
X34115Y42887D01*
X34120Y42892D01*
X34131Y42909D01*
X34142Y42925D01*
X34136Y42931D01*
X34131Y42942D01*
X34125Y42947D01*
X34109Y42958D01*
X34104D01*
X34098Y42963D01*
X34093Y42969D01*
Y42974D01*
Y42980D01*
X34087Y42991D01*
X34082Y42996D01*
Y43018D01*
Y43024D01*
Y43029D01*
X34087Y43040D01*
Y43045D01*
X34093Y43051D01*
Y43056D01*
X34098Y43062D01*
X34109Y43073D01*
X34131Y43084D01*
X34136D01*
X34153Y43089D01*
X34169D01*
X34191Y43078D01*
D02*
G37*
G36*
X34448Y43029D02*
Y43024D01*
Y43018D01*
X34421D01*
X34410Y43024D01*
X34399D01*
X34372Y43029D01*
X34333D01*
X34317Y43034D01*
X34311D01*
X34317Y43040D01*
X34432D01*
X34448Y43029D01*
D02*
G37*
G36*
X35378Y43122D02*
X35394D01*
X35410Y43116D01*
X35482D01*
X35503Y43111D01*
X35525D01*
X35542Y43106D01*
X35667D01*
X35673Y43100D01*
X35678Y43084D01*
Y43078D01*
X35673Y43073D01*
X35651D01*
X35640Y43062D01*
X35629D01*
X35618Y43073D01*
X35613D01*
X35607Y43078D01*
X35591Y43084D01*
X35542D01*
X35520Y43089D01*
X35503Y43095D01*
X35482Y43100D01*
X35476D01*
X35460Y43106D01*
X35443Y43100D01*
X35438Y43095D01*
X35432Y43084D01*
X35427Y43062D01*
X35421Y43051D01*
Y43029D01*
Y42996D01*
Y42985D01*
X35416Y42969D01*
Y42947D01*
X35410Y42931D01*
X35405Y42881D01*
Y42805D01*
Y42799D01*
X35399Y42794D01*
X35389Y42788D01*
X35383Y42783D01*
X35378Y42788D01*
X35372Y42794D01*
Y42799D01*
Y42805D01*
Y42816D01*
X35378Y42827D01*
Y42849D01*
Y42854D01*
Y42865D01*
Y42881D01*
X35383Y42892D01*
Y42898D01*
Y42909D01*
X35389Y42925D01*
Y42952D01*
Y42963D01*
Y42980D01*
X35394Y43002D01*
X35399Y43024D01*
Y43029D01*
Y43040D01*
X35405Y43078D01*
Y43106D01*
X35334D01*
X35317Y43111D01*
X35290D01*
X35268Y43116D01*
X35142D01*
Y43122D01*
X35148D01*
X35164Y43127D01*
X35361D01*
X35378Y43122D01*
D02*
G37*
G36*
X33305Y43116D02*
Y43111D01*
X33311Y43100D01*
Y43095D01*
X33305Y43078D01*
Y43040D01*
Y43018D01*
Y42985D01*
Y42980D01*
Y42974D01*
Y42942D01*
X33311Y42914D01*
Y42898D01*
X33316Y42892D01*
Y42887D01*
Y42870D01*
X33311Y42865D01*
X33305Y42859D01*
X33300Y42865D01*
X33294Y42876D01*
Y42887D01*
X33289Y43013D01*
Y43018D01*
Y43024D01*
X33283D01*
Y43013D01*
X33278Y43007D01*
Y43002D01*
X33240Y42942D01*
X33234Y42936D01*
X33218Y42931D01*
X33212Y42936D01*
X33207Y42947D01*
Y42952D01*
X33201Y42969D01*
Y42974D01*
X33196Y42980D01*
Y42991D01*
Y42996D01*
X33190Y43013D01*
X33179Y43040D01*
Y43045D01*
X33174Y43056D01*
X33163Y43062D01*
X33158Y43051D01*
Y43045D01*
Y43034D01*
X33152D01*
Y43024D01*
X33147Y43018D01*
X33136Y43002D01*
X33130Y42985D01*
Y42980D01*
X33125Y42963D01*
X33119Y42958D01*
Y42947D01*
Y42942D01*
X33108Y42925D01*
X33070Y42865D01*
Y42859D01*
X33065Y42854D01*
X33059D01*
X33054Y42859D01*
X33059Y42876D01*
Y42881D01*
X33065Y42887D01*
X33070Y42892D01*
Y42898D01*
X33076Y42909D01*
X33114Y42991D01*
Y42996D01*
Y43002D01*
X33119Y43013D01*
Y43018D01*
X33125Y43029D01*
Y43034D01*
X33130Y43045D01*
Y43051D01*
X33141Y43062D01*
Y43067D01*
X33147Y43078D01*
Y43084D01*
Y43095D01*
X33152Y43106D01*
X33163Y43111D01*
X33174D01*
X33179Y43106D01*
X33185Y43095D01*
Y43084D01*
X33190Y43067D01*
Y43062D01*
X33196Y43056D01*
X33207Y43007D01*
Y42996D01*
X33218Y42974D01*
X33223Y42963D01*
X33229Y42969D01*
X33234Y42974D01*
X33240Y42980D01*
X33251Y42991D01*
X33256Y43002D01*
X33272Y43051D01*
X33278Y43062D01*
X33283Y43084D01*
Y43089D01*
Y43106D01*
X33294Y43116D01*
X33300Y43122D01*
X33305Y43116D01*
D02*
G37*
G36*
X33436Y43095D02*
Y43084D01*
X33426Y43067D01*
X33420Y43062D01*
X33415Y43040D01*
Y43034D01*
Y43018D01*
X33409Y43013D01*
Y42996D01*
Y42974D01*
X33529Y42985D01*
X33535D01*
X33540Y42991D01*
Y42996D01*
X33546Y43007D01*
Y43013D01*
X33551Y43024D01*
Y43045D01*
Y43073D01*
X33579D01*
Y43051D01*
Y43045D01*
Y43040D01*
Y43029D01*
Y43024D01*
X33573Y43018D01*
X33568Y43002D01*
X33562Y42991D01*
X33557Y42974D01*
X33551Y42969D01*
Y42958D01*
Y42952D01*
X33546Y42942D01*
X33540Y42936D01*
Y42931D01*
Y42914D01*
Y42903D01*
Y42892D01*
X33535D01*
Y42887D01*
X33529Y42876D01*
Y42870D01*
Y42859D01*
X33524Y42843D01*
X33513Y42838D01*
X33502D01*
X33497Y42843D01*
X33502Y42854D01*
Y42859D01*
X33508Y42870D01*
X33513Y42898D01*
Y42903D01*
Y42914D01*
Y42925D01*
X33518Y42936D01*
Y42942D01*
Y42947D01*
X33508Y42952D01*
X33491D01*
X33464Y42958D01*
X33458D01*
X33436Y42963D01*
X33409D01*
X33404Y42958D01*
Y42947D01*
Y42931D01*
Y42925D01*
Y42920D01*
Y42909D01*
X33398Y42903D01*
X33393D01*
Y42898D01*
Y42887D01*
Y42881D01*
X33387Y42865D01*
X33382Y42854D01*
X33376D01*
X33371Y42849D01*
X33365Y42854D01*
Y42865D01*
X33371Y42881D01*
Y42887D01*
X33376Y42903D01*
X33382Y42936D01*
Y42942D01*
Y42952D01*
X33387Y42980D01*
Y42985D01*
Y42991D01*
X33393Y43024D01*
Y43029D01*
Y43040D01*
X33398Y43056D01*
X33404Y43067D01*
X33409Y43095D01*
X33415Y43100D01*
X33426Y43106D01*
X33431D01*
X33436Y43095D01*
D02*
G37*
G36*
X34475Y43002D02*
Y42985D01*
X34470Y42980D01*
Y42958D01*
Y42947D01*
X34464Y42931D01*
X34459Y42925D01*
Y42909D01*
X34454Y42898D01*
Y42881D01*
X34448Y42876D01*
Y42870D01*
Y42854D01*
X34443Y42843D01*
X34437Y42827D01*
X34432Y42816D01*
Y42810D01*
X34426Y42805D01*
X34415Y42799D01*
X34388Y42794D01*
X34377D01*
X34361Y42799D01*
X34328Y42805D01*
X34300Y42816D01*
Y42821D01*
Y42827D01*
X34328D01*
X34344Y42821D01*
X34350D01*
X34361Y42816D01*
X34382D01*
X34404Y42821D01*
X34415Y42838D01*
X34421Y42865D01*
Y42870D01*
X34426Y42876D01*
X34432Y42903D01*
Y42925D01*
X34404D01*
X34399Y42931D01*
X34388D01*
X34382Y42936D01*
X34372D01*
X34366Y42942D01*
X34361D01*
Y42947D01*
Y42952D01*
X34393D01*
X34404Y42947D01*
X34410D01*
X34421Y42942D01*
X34432Y42947D01*
X34443Y42952D01*
X34448Y42969D01*
Y42974D01*
X34454Y42980D01*
X34459Y42996D01*
Y43002D01*
X34464Y43007D01*
X34475D01*
Y43002D01*
D02*
G37*
G36*
X35378Y44883D02*
X35383D01*
X35394Y44877D01*
X35399D01*
X35410Y44872D01*
X35416D01*
X35427Y44866D01*
Y44872D01*
X35432Y44877D01*
Y44883D01*
Y44888D01*
X35476D01*
X35487Y44883D01*
X35503D01*
X35525Y44877D01*
X35558D01*
X35574Y44872D01*
X35585D01*
X35596Y44866D01*
X35624D01*
X35629Y44861D01*
X35635Y44855D01*
X35629Y44850D01*
X35613Y44844D01*
X35602D01*
X35591Y44850D01*
X35585Y44855D01*
X35542D01*
Y44828D01*
Y44823D01*
Y44812D01*
Y44795D01*
X35536Y44784D01*
X35531Y44779D01*
Y44768D01*
X35525Y44762D01*
X35520Y44746D01*
X35509Y44724D01*
X35503D01*
X35498Y44719D01*
X35487Y44713D01*
X35482D01*
X35492Y44746D01*
X35498Y44751D01*
X35509Y44762D01*
Y44768D01*
X35514Y44779D01*
Y44784D01*
Y44795D01*
X35520Y44817D01*
Y44823D01*
Y44839D01*
Y44850D01*
X35514Y44861D01*
X35509Y44866D01*
X35454D01*
X35449Y44861D01*
Y44855D01*
Y44850D01*
X35454Y44844D01*
Y44823D01*
Y44790D01*
X35460Y44784D01*
X35471Y44779D01*
X35476Y44773D01*
X35465Y44768D01*
X35460D01*
X35454Y44757D01*
Y44746D01*
Y44740D01*
Y44735D01*
Y44724D01*
X35449Y44719D01*
X35443Y44708D01*
X35438Y44697D01*
X35421Y44686D01*
X35383D01*
X35361Y44691D01*
X35356D01*
X35350Y44697D01*
X35339Y44702D01*
X35334Y44708D01*
X35312D01*
X35307Y44713D01*
X35301Y44719D01*
Y44730D01*
X35317D01*
X35323Y44724D01*
X35339D01*
X35356Y44713D01*
X35367Y44708D01*
X35399D01*
X35416Y44713D01*
X35421Y44730D01*
X35427Y44746D01*
X35432Y44762D01*
X35389Y44773D01*
X35383Y44779D01*
X35361D01*
X35356Y44784D01*
X35350Y44790D01*
X35356Y44801D01*
X35361Y44806D01*
X35367Y44801D01*
X35372Y44795D01*
X35378Y44790D01*
X35405D01*
X35421Y44784D01*
X35427Y44790D01*
X35432Y44801D01*
X35438Y44817D01*
Y44823D01*
X35432Y44839D01*
Y44844D01*
X35427Y44850D01*
X35416Y44855D01*
X35405D01*
X35389Y44861D01*
X35367Y44872D01*
X35361Y44877D01*
X35345D01*
X35339Y44883D01*
Y44888D01*
X35345Y44894D01*
X35367D01*
X35378Y44883D01*
D02*
G37*
G36*
X35848D02*
X35946D01*
X35957Y44866D01*
Y44861D01*
X35963Y44855D01*
X35968Y44844D01*
X35974Y44833D01*
Y44828D01*
X35979Y44823D01*
Y44817D01*
X35985Y44806D01*
Y44790D01*
Y44784D01*
Y44773D01*
Y44762D01*
X35979Y44751D01*
X35974Y44746D01*
Y44730D01*
X35968Y44724D01*
X35957Y44708D01*
X35941Y44680D01*
X35853D01*
X35842Y44686D01*
X35837Y44691D01*
X35804D01*
X35788Y44702D01*
X35777Y44708D01*
X35771Y44713D01*
X35766D01*
Y44719D01*
X35804D01*
X35810Y44713D01*
X35821D01*
X35842Y44708D01*
X35886Y44702D01*
X35908D01*
X35930Y44708D01*
X35946Y44724D01*
X35952Y44730D01*
X35957Y44740D01*
Y44751D01*
X35952Y44757D01*
X35935D01*
Y44762D01*
Y44768D01*
X35908D01*
X35897Y44773D01*
X35892Y44779D01*
X35864D01*
X35859Y44784D01*
X35864Y44790D01*
X35870Y44795D01*
X35875D01*
X35881Y44790D01*
X35897D01*
X35908Y44784D01*
X35919D01*
X35935Y44779D01*
X35957D01*
Y44784D01*
Y44801D01*
Y44806D01*
X35952Y44828D01*
X35935Y44844D01*
X35908Y44855D01*
X35897D01*
X35886Y44861D01*
X35881Y44866D01*
X35842D01*
X35831Y44872D01*
X35826Y44877D01*
Y44883D01*
X35831Y44888D01*
X35848Y44883D01*
D02*
G37*
G36*
X36160Y45162D02*
Y45156D01*
Y45145D01*
Y45129D01*
X36154Y45112D01*
X36149Y45101D01*
Y45079D01*
X36143Y45074D01*
X36138Y45063D01*
X36127Y45052D01*
X36116Y45058D01*
X36110Y45063D01*
X36088Y45085D01*
X36078Y45074D01*
X36072Y45069D01*
X36061Y45052D01*
X36045Y45036D01*
X36023Y45030D01*
X36017D01*
X36006Y45036D01*
X36001Y45047D01*
X35996Y45058D01*
Y45063D01*
Y45069D01*
Y45074D01*
X35990Y45063D01*
X35979Y45052D01*
X35968Y45047D01*
X35946Y45036D01*
X35941D01*
X35930Y45030D01*
X35913D01*
X35903Y45036D01*
X35886Y45041D01*
X35881Y45047D01*
X35875D01*
Y45052D01*
X35864D01*
Y45063D01*
X35853Y45085D01*
Y45090D01*
Y45101D01*
Y45118D01*
X35859Y45134D01*
Y45140D01*
X35864Y45151D01*
X35875Y45167D01*
X35886Y45178D01*
X35935Y45200D01*
X35941D01*
X35952Y45194D01*
X35963Y45183D01*
X35974Y45172D01*
X35985Y45151D01*
Y45145D01*
X35996Y45134D01*
X36001Y45129D01*
X36006D01*
Y45140D01*
Y45145D01*
X36012Y45156D01*
Y45162D01*
X36017Y45172D01*
Y45178D01*
X36023Y45183D01*
X36028Y45189D01*
X36039Y45194D01*
X36045Y45189D01*
X36050Y45183D01*
X36045Y45167D01*
X36028Y45140D01*
Y45134D01*
X36023Y45118D01*
X36017Y45079D01*
Y45074D01*
Y45069D01*
X36023Y45063D01*
X36028Y45058D01*
X36034D01*
X36050Y45063D01*
X36056Y45069D01*
X36061Y45085D01*
Y45090D01*
X36067Y45101D01*
X36078Y45112D01*
X36088Y45107D01*
X36099Y45101D01*
X36105D01*
X36110Y45096D01*
X36121Y45090D01*
X36127D01*
Y45101D01*
X36132Y45123D01*
Y45151D01*
Y45200D01*
X36160D01*
Y45162D01*
D02*
G37*
G36*
X35399Y45194D02*
X35405Y45189D01*
X35410Y45183D01*
X35421Y45172D01*
X35427Y45162D01*
Y45151D01*
X35432Y45140D01*
Y45118D01*
Y45112D01*
Y45107D01*
Y45096D01*
X35427Y45090D01*
X35416Y45074D01*
X35410Y45069D01*
X35399Y45063D01*
X35378Y45058D01*
X35356D01*
X35339Y45063D01*
X35334Y45069D01*
X35323Y45085D01*
Y45090D01*
X35317Y45096D01*
Y45107D01*
Y45118D01*
Y45145D01*
Y45151D01*
X35323Y45162D01*
X35334Y45178D01*
X35350Y45189D01*
X35356Y45194D01*
X35367Y45200D01*
X35383D01*
X35399Y45194D01*
D02*
G37*
G36*
X35296Y45189D02*
Y45178D01*
X35301Y45156D01*
Y45129D01*
Y45123D01*
Y45107D01*
X35296Y45090D01*
X35290Y45074D01*
X35285D01*
X35279Y45069D01*
X35257Y45063D01*
X35214D01*
X35197Y45069D01*
X35181Y45074D01*
X35175Y45079D01*
Y45085D01*
X35241D01*
X35257Y45090D01*
X35274Y45107D01*
Y45112D01*
X35279Y45129D01*
X35285Y45145D01*
X35279Y45167D01*
Y45172D01*
X35274Y45183D01*
Y45189D01*
X35279Y45194D01*
X35296D01*
Y45189D01*
D02*
G37*
G36*
X35465Y45249D02*
X35471Y45238D01*
X35476Y45227D01*
X35482Y45205D01*
Y45200D01*
Y45189D01*
Y45172D01*
X35487Y45162D01*
Y45156D01*
Y45134D01*
Y45129D01*
X35492Y45112D01*
X35503D01*
X35509Y45118D01*
X35520Y45134D01*
X35536Y45156D01*
Y45162D01*
X35542Y45167D01*
Y45172D01*
X35547D01*
Y45178D01*
X35553Y45183D01*
X35564Y45216D01*
X35569Y45222D01*
X35574Y45216D01*
X35580Y45211D01*
X35591Y45205D01*
X35558Y45156D01*
X35553Y45151D01*
Y45145D01*
X35531Y45096D01*
Y45090D01*
X35520Y45085D01*
X35514D01*
X35509Y45079D01*
Y45069D01*
X35503Y45063D01*
X35487D01*
X35482Y45069D01*
X35476Y45079D01*
X35471Y45090D01*
Y45107D01*
X35465Y45118D01*
Y45134D01*
Y45156D01*
Y45162D01*
Y45178D01*
Y45194D01*
X35460Y45205D01*
X35454Y45211D01*
Y45233D01*
Y45238D01*
Y45244D01*
Y45254D01*
X35460D01*
X35465Y45249D01*
D02*
G37*
G36*
X35088Y45205D02*
X35093D01*
X35121Y45200D01*
X35132D01*
X35148Y45194D01*
X35153D01*
X35164Y45189D01*
X35181D01*
X35192Y45183D01*
X35197Y45178D01*
Y45172D01*
X35192Y45167D01*
X35181Y45162D01*
X35170D01*
X35159Y45167D01*
X35137D01*
X35126Y45156D01*
Y45140D01*
X35121Y45118D01*
Y45112D01*
X35115Y45107D01*
Y45096D01*
Y45090D01*
X35110Y45074D01*
X35104Y45069D01*
X35093D01*
X35077Y45063D01*
X35060D01*
X35028Y45074D01*
X35011D01*
X35000Y45069D01*
X34968D01*
X34951Y45074D01*
X34946Y45085D01*
Y45090D01*
X34957Y45107D01*
X34995Y45145D01*
Y45151D01*
X35006Y45156D01*
X35022Y45167D01*
Y45172D01*
X35017D01*
X35011Y45178D01*
X34978D01*
X34984Y45189D01*
X34989Y45194D01*
X35000Y45200D01*
X35028D01*
X35050Y45205D01*
X35060Y45211D01*
X35071D01*
X35088Y45205D01*
D02*
G37*
G36*
X35307Y44921D02*
X35312Y44905D01*
X35317Y44899D01*
Y44894D01*
Y44883D01*
X35312Y44877D01*
X35307Y44861D01*
Y44855D01*
Y44850D01*
X35301Y44844D01*
Y44839D01*
Y44823D01*
Y44817D01*
X35296Y44812D01*
X35290Y44784D01*
X35285Y44773D01*
X35279Y44762D01*
Y44740D01*
Y44735D01*
Y44724D01*
X35274Y44713D01*
X35268Y44708D01*
X35263Y44713D01*
X35257Y44724D01*
Y44746D01*
Y44751D01*
X35252Y44762D01*
X35241D01*
X35235Y44757D01*
X35225Y44746D01*
X35219Y44740D01*
X35214Y44735D01*
X35203Y44724D01*
X35192Y44719D01*
X35186Y44713D01*
X35164Y44708D01*
X35148Y44697D01*
X35132Y44691D01*
X35126D01*
X35110Y44686D01*
X35099Y44680D01*
X35093D01*
X35088Y44686D01*
X35093Y44691D01*
Y44697D01*
X35099Y44702D01*
X35104Y44708D01*
X35115D01*
X35126Y44713D01*
X35153Y44724D01*
X35186Y44735D01*
X35192D01*
X35197Y44740D01*
X35214Y44751D01*
Y44757D01*
X35219Y44762D01*
X35225Y44773D01*
X35230Y44784D01*
X35214Y44801D01*
X35208Y44806D01*
X35192Y44828D01*
X35181Y44850D01*
Y44861D01*
X35186Y44866D01*
X35192Y44877D01*
Y44883D01*
X35197Y44888D01*
X35203Y44894D01*
X35214Y44899D01*
X35219Y44905D01*
X35230Y44910D01*
Y44915D01*
X35235D01*
X35246Y44921D01*
X35257Y44926D01*
X35301D01*
X35307Y44921D01*
D02*
G37*
G36*
X34131Y46058D02*
X34169D01*
X34410Y46053D01*
X34601D01*
X34629Y46047D01*
X34661D01*
X34683Y46042D01*
X34803D01*
X35121Y46025D01*
X35225D01*
X35241Y46020D01*
X35356D01*
X35416Y46015D01*
X35738D01*
X35755Y46020D01*
X35777Y46036D01*
X35782Y46042D01*
X35793D01*
X35810Y46036D01*
X35815D01*
X35821Y46031D01*
X35842Y46015D01*
Y46009D01*
X35848Y45982D01*
Y45971D01*
X35842Y45954D01*
X35826Y45943D01*
X35821Y45938D01*
X35804Y45933D01*
X35755D01*
X35744Y45943D01*
X35733Y45954D01*
X35728Y45971D01*
Y45993D01*
X35673D01*
X35656Y45998D01*
X35640D01*
X35629Y46004D01*
X35268D01*
X34803Y46020D01*
X34776D01*
X34771Y46025D01*
X34732D01*
X34464Y46031D01*
X34443D01*
X34421Y46036D01*
X34131D01*
X34125Y46031D01*
Y46025D01*
Y46004D01*
X34120Y45730D01*
Y45725D01*
Y45714D01*
Y45703D01*
X34115Y45692D01*
Y45686D01*
X34153D01*
X34175Y45692D01*
X34186D01*
X34197Y45686D01*
X34202Y45681D01*
Y45670D01*
X34197Y45654D01*
X34191Y45643D01*
Y45621D01*
Y45604D01*
Y45577D01*
Y45572D01*
Y45566D01*
Y45539D01*
Y45511D01*
X34186Y45506D01*
Y45501D01*
Y45495D01*
Y45484D01*
X34180Y45468D01*
Y45446D01*
Y45413D01*
Y45375D01*
Y45326D01*
Y45320D01*
Y45304D01*
Y45276D01*
Y45249D01*
Y45189D01*
X34186Y45167D01*
Y45151D01*
Y45145D01*
Y45140D01*
X34191Y45107D01*
Y45101D01*
Y45096D01*
X34202Y45069D01*
Y45063D01*
X34197Y45058D01*
X34186Y45052D01*
X34180Y45047D01*
X34175Y45041D01*
X34158Y45036D01*
X34125Y45030D01*
X34082D01*
Y44932D01*
Y44926D01*
Y44921D01*
Y44888D01*
Y44855D01*
X34087Y44844D01*
Y44833D01*
X34093Y44823D01*
X34098Y44812D01*
X34115Y44795D01*
X34136Y44773D01*
Y44757D01*
Y44751D01*
X34131Y44740D01*
X34120Y44730D01*
X34109Y44724D01*
X34104D01*
X34098Y44713D01*
Y44702D01*
Y44697D01*
X34093Y44686D01*
Y44669D01*
Y44637D01*
Y44489D01*
X34125D01*
Y44494D01*
X34147D01*
Y44500D01*
X34175D01*
X34191Y44494D01*
X34202Y44489D01*
X34207Y44483D01*
X34202Y44473D01*
X34197Y44467D01*
Y44456D01*
Y44440D01*
Y44434D01*
Y44423D01*
X34191Y44391D01*
Y44380D01*
Y44369D01*
X34186Y44352D01*
Y44325D01*
Y44287D01*
Y44248D01*
Y44194D01*
Y44188D01*
Y44172D01*
Y44144D01*
Y44112D01*
Y44052D01*
X34191Y44030D01*
Y44013D01*
Y44002D01*
Y43980D01*
Y43964D01*
Y43937D01*
X34197Y43833D01*
Y43827D01*
Y43822D01*
Y43811D01*
X34191Y43805D01*
X34186Y43800D01*
X34175Y43795D01*
X34164Y43789D01*
X34158D01*
X34147Y43784D01*
X34109D01*
Y43778D01*
X34115Y43762D01*
Y43756D01*
X34120Y43745D01*
X34125Y43718D01*
Y43685D01*
Y43674D01*
Y43652D01*
X34120Y43614D01*
X34115Y43570D01*
Y43565D01*
X34120Y43554D01*
X34125Y43543D01*
X34142Y43538D01*
X34147D01*
X34153Y43532D01*
X34164Y43521D01*
X34169Y43505D01*
X34175Y43499D01*
X34229Y43494D01*
X34279D01*
X34289Y43488D01*
X35039D01*
X35301Y43499D01*
X35334D01*
X35339Y43505D01*
X35410D01*
X35432Y43510D01*
X35460D01*
X35476Y43516D01*
X35482D01*
X35487Y43521D01*
X35602D01*
X35624Y43516D01*
X35656Y43510D01*
X35695D01*
X35717Y43516D01*
X35733Y43527D01*
X35749Y43538D01*
X35755Y43543D01*
X35766Y43548D01*
X35771Y43554D01*
X35788Y43559D01*
X35793D01*
X35799Y43565D01*
X35804Y43570D01*
X35837D01*
X35859Y43559D01*
X35864Y43554D01*
X35875Y43548D01*
X35881D01*
Y43543D01*
X35886Y43532D01*
Y43527D01*
Y43505D01*
Y43494D01*
X35881Y43488D01*
X35870Y43472D01*
X35864Y43466D01*
X35848Y43456D01*
X35842D01*
X35826Y43450D01*
X35804D01*
X35782Y43456D01*
X35777Y43461D01*
X35760D01*
X35749Y43472D01*
Y43477D01*
X35738Y43483D01*
X35733Y43488D01*
X35700D01*
X35689Y43494D01*
X35399D01*
X35389Y43488D01*
X35367D01*
X35356Y43483D01*
X35268D01*
X35148Y43477D01*
X34814Y43472D01*
X34546D01*
X34508Y43466D01*
X34459D01*
X34361Y43472D01*
X34284D01*
X34273Y43477D01*
X34251D01*
X34224Y43483D01*
X34191D01*
X34164Y43472D01*
X34147Y43461D01*
X34082D01*
X34065Y43472D01*
X34060Y43477D01*
X34054Y43483D01*
X34043Y43488D01*
X33814D01*
X33786Y43483D01*
X33524D01*
X33502Y43488D01*
X33480D01*
X33458Y43494D01*
X33261D01*
X33218Y43488D01*
X33147D01*
X33136Y43494D01*
X33048D01*
X33026Y43488D01*
X32988D01*
X32884Y43494D01*
X32830D01*
X32786Y43488D01*
X32764Y43483D01*
X32753Y43472D01*
X32748Y43466D01*
X32737Y43461D01*
X32720D01*
X32698Y43466D01*
X32687Y43472D01*
X32682Y43477D01*
X32676Y43494D01*
Y43499D01*
X32671Y43505D01*
X32665Y43516D01*
Y43521D01*
X32671Y43532D01*
X32682Y43543D01*
Y43548D01*
X32693Y43554D01*
X32704Y43559D01*
X32715Y43554D01*
X32726D01*
X32742Y43548D01*
X32748D01*
X32753Y43543D01*
X32758Y43532D01*
X32769Y43510D01*
X33420Y43505D01*
X33524D01*
X33535Y43499D01*
X33803D01*
X33825Y43505D01*
X34054D01*
X34065Y43510D01*
X34076Y43527D01*
X34093Y43543D01*
Y43713D01*
Y43718D01*
Y43723D01*
Y43729D01*
X34087Y43734D01*
X34082Y43740D01*
X34076Y43756D01*
X34071Y43778D01*
X33967Y43784D01*
X33972Y44035D01*
X33967Y44309D01*
Y44314D01*
Y44330D01*
Y44352D01*
Y44380D01*
Y44434D01*
X33972Y44456D01*
Y44473D01*
Y44478D01*
Y44489D01*
X33978Y44494D01*
X33983D01*
X34071Y44489D01*
Y44719D01*
X34060Y44724D01*
X34054Y44730D01*
X34049Y44735D01*
Y44740D01*
Y44746D01*
X34043Y44751D01*
X34027D01*
X34011Y44757D01*
X33814D01*
X33797Y44751D01*
X33770D01*
X33737Y44746D01*
X33316D01*
X33278Y44740D01*
X33240D01*
X33223Y44735D01*
X33201D01*
X33179Y44740D01*
X33103D01*
X33097Y44735D01*
X32928D01*
X32917Y44740D01*
X32901D01*
X32879Y44735D01*
X32868D01*
X32851Y44730D01*
X32835D01*
X32824Y44719D01*
X32819D01*
X32813Y44713D01*
X32802Y44708D01*
X32797D01*
X32780Y44697D01*
X32764D01*
X32758Y44702D01*
X32742Y44708D01*
X32737D01*
X32726Y44713D01*
X32720Y44724D01*
X32715Y44740D01*
Y44746D01*
X32720Y44757D01*
X32726Y44768D01*
X32742Y44779D01*
X32748D01*
X32758Y44784D01*
X32769Y44790D01*
X32797D01*
X32802Y44784D01*
X32819Y44779D01*
X32830Y44762D01*
Y44757D01*
X32835Y44751D01*
X32851D01*
X32857Y44757D01*
X33229D01*
X33240Y44762D01*
X33327D01*
X33354Y44757D01*
X33415D01*
X33426Y44762D01*
X33447Y44768D01*
X33529D01*
X33557Y44762D01*
X33710D01*
X34005Y44773D01*
X34027Y44779D01*
X34043D01*
X34054Y44784D01*
X34060Y44795D01*
Y44801D01*
Y44823D01*
Y44844D01*
Y44866D01*
Y44899D01*
Y44937D01*
X34054Y45030D01*
X33961D01*
X33950Y45036D01*
Y45041D01*
Y45052D01*
X33956Y45063D01*
Y45069D01*
X33961Y45085D01*
Y45090D01*
Y45096D01*
X33967Y45118D01*
Y45123D01*
Y45129D01*
Y45156D01*
X33972Y45353D01*
Y45364D01*
X33978Y45386D01*
X33983Y45408D01*
Y45429D01*
Y45435D01*
Y45446D01*
Y45473D01*
Y45479D01*
Y45484D01*
X33978Y45501D01*
Y45506D01*
X33972Y45517D01*
Y45544D01*
Y45583D01*
Y45588D01*
Y45593D01*
Y45621D01*
Y45654D01*
Y45676D01*
X33978Y45686D01*
X34082D01*
X34087Y45692D01*
X34093Y45697D01*
X34087Y45703D01*
Y45719D01*
Y45725D01*
Y45736D01*
Y45752D01*
X34093Y45774D01*
Y45801D01*
Y45840D01*
Y45883D01*
Y45889D01*
Y45905D01*
Y45927D01*
Y45954D01*
Y46004D01*
X34087Y46025D01*
Y46036D01*
Y46042D01*
X34082Y46047D01*
X34087Y46058D01*
X34109Y46064D01*
X34131Y46058D01*
D02*
G37*
G36*
X32512Y44270D02*
X32529Y44259D01*
X32540D01*
X32556Y44254D01*
X32573Y44243D01*
X32583Y44232D01*
X32578Y44226D01*
X32567D01*
X32556Y44232D01*
X32551Y44237D01*
X32534D01*
X32523Y44232D01*
X32518Y44221D01*
Y44205D01*
Y44199D01*
Y44188D01*
X32512Y44150D01*
X32507Y44123D01*
Y44117D01*
X32501Y44112D01*
X32491Y44101D01*
X32485Y44095D01*
X32480Y44090D01*
X32474D01*
X32469Y44095D01*
Y44101D01*
Y44106D01*
X32474Y44112D01*
X32480Y44134D01*
Y44139D01*
X32485Y44144D01*
X32491Y44172D01*
Y44177D01*
Y44183D01*
Y44210D01*
X32496Y44216D01*
Y44232D01*
X32491Y44243D01*
X32480Y44248D01*
X32447D01*
X32436Y44254D01*
Y44259D01*
Y44265D01*
Y44270D01*
X32441Y44276D01*
X32507D01*
X32512Y44270D01*
D02*
G37*
G36*
X35673Y44899D02*
Y44894D01*
Y44883D01*
Y44855D01*
X35667Y44850D01*
Y44833D01*
X35662Y44828D01*
X35656Y44817D01*
X35651D01*
Y44806D01*
Y44801D01*
X35646Y44784D01*
Y44779D01*
Y44773D01*
X35651D01*
X35662Y44779D01*
X35678Y44790D01*
X35700Y44806D01*
X35706Y44812D01*
X35717Y44828D01*
X35728Y44844D01*
X35738Y44855D01*
Y44861D01*
Y44866D01*
X35749Y44872D01*
X35771D01*
Y44861D01*
Y44850D01*
X35766Y44839D01*
X35760Y44823D01*
Y44817D01*
Y44806D01*
X35755Y44801D01*
Y44784D01*
X35749Y44779D01*
Y44768D01*
X35728Y44719D01*
X35722Y44713D01*
X35717Y44708D01*
X35706Y44713D01*
X35700Y44719D01*
X35695Y44724D01*
X35700Y44730D01*
X35706Y44735D01*
X35711Y44740D01*
X35722Y44757D01*
Y44762D01*
X35728Y44768D01*
Y44773D01*
X35738Y44784D01*
Y44790D01*
Y44795D01*
Y44806D01*
X35733Y44812D01*
X35728Y44817D01*
X35722Y44812D01*
X35717Y44801D01*
X35706Y44790D01*
X35695Y44779D01*
X35662Y44751D01*
X35656Y44746D01*
X35646Y44735D01*
X35635Y44730D01*
X35629D01*
Y44735D01*
Y44740D01*
Y44768D01*
Y44773D01*
Y44784D01*
Y44795D01*
X35635Y44801D01*
Y44806D01*
X35640Y44817D01*
Y44823D01*
X35646Y44833D01*
Y44839D01*
X35651Y44850D01*
Y44855D01*
X35656Y44866D01*
X35662Y44872D01*
Y44883D01*
X35667Y44894D01*
Y44899D01*
Y44905D01*
X35673Y44899D01*
D02*
G37*
G36*
X36138Y45254D02*
X36220D01*
X36252Y45249D01*
X36280D01*
X36291Y45244D01*
X36351D01*
X36362Y45238D01*
X36367Y45233D01*
Y45227D01*
X36362Y45222D01*
X36351Y45216D01*
X36313D01*
X36307Y45222D01*
X36280D01*
X36274Y45216D01*
X36269Y45211D01*
Y45200D01*
Y45189D01*
X36263Y45178D01*
X36258Y45172D01*
Y45167D01*
Y45151D01*
Y45140D01*
X36252Y45118D01*
Y45112D01*
X36247Y45107D01*
X36242Y45074D01*
Y45069D01*
X36236Y45063D01*
Y45052D01*
X36231Y45047D01*
X36225D01*
X36220Y45058D01*
X36214Y45074D01*
Y45079D01*
X36220Y45085D01*
X36225Y45101D01*
Y45107D01*
X36231Y45129D01*
Y45134D01*
Y45140D01*
X36236Y45156D01*
Y45162D01*
Y45167D01*
X36242Y45194D01*
Y45200D01*
Y45205D01*
Y45216D01*
Y45222D01*
X36236Y45227D01*
X36225Y45238D01*
X36116Y45244D01*
X36105D01*
X36094Y45249D01*
X36088Y45254D01*
Y45260D01*
X36121D01*
X36138Y45254D01*
D02*
G37*
%LPC*%
G36*
X35837Y43505D02*
X35831Y43499D01*
X35826D01*
X35810Y43494D01*
X35766D01*
X35755Y43488D01*
Y43483D01*
X35760Y43477D01*
X35766D01*
X35777Y43472D01*
X35831D01*
X35842Y43477D01*
X35853Y43483D01*
Y43494D01*
X35848Y43499D01*
X35837Y43505D01*
D02*
G37*
G36*
X33748Y43073D02*
X33743D01*
X33737Y43067D01*
Y43062D01*
Y43051D01*
X33732Y43045D01*
X33726D01*
X33721Y43051D01*
X33715Y43062D01*
Y43067D01*
X33710Y43073D01*
X33704D01*
X33693Y43067D01*
X33672Y43062D01*
X33666D01*
X33661Y43056D01*
X33655Y43045D01*
X33650Y43040D01*
X33639Y43024D01*
X33633Y43018D01*
Y43007D01*
X33628Y43002D01*
Y42991D01*
Y42985D01*
X33622Y42980D01*
X33617Y42974D01*
Y42969D01*
Y42952D01*
X33611Y42942D01*
X33606Y42925D01*
Y42920D01*
Y42909D01*
X33611Y42892D01*
X33617Y42881D01*
X33633Y42859D01*
X33655Y42849D01*
X33661D01*
X33677Y42843D01*
X33748D01*
X33792Y42865D01*
X33797D01*
X33803Y42870D01*
X33814Y42881D01*
Y42887D01*
X33819Y42892D01*
X33825Y42903D01*
Y42909D01*
X33830Y42920D01*
Y42925D01*
X33836Y42942D01*
Y42947D01*
Y42952D01*
Y42980D01*
Y43013D01*
X33819Y43040D01*
X33808Y43051D01*
X33797Y43045D01*
X33792Y43040D01*
Y43024D01*
X33786Y43018D01*
X33775Y43013D01*
X33770Y43018D01*
X33765D01*
Y43024D01*
Y43029D01*
X33770D01*
Y43034D01*
X33775Y43040D01*
X33781Y43045D01*
X33775Y43056D01*
X33770Y43062D01*
X33759Y43067D01*
X33754D01*
X33748Y43073D01*
D02*
G37*
G36*
X35919Y45178D02*
X35908Y45172D01*
X35903Y45167D01*
X35897Y45162D01*
X35892D01*
X35886Y45156D01*
X35881Y45140D01*
X35875Y45134D01*
Y45123D01*
Y45101D01*
Y45074D01*
X35886Y45063D01*
X35892Y45058D01*
X35919Y45052D01*
X35930D01*
X35952Y45058D01*
X35957Y45063D01*
X35963Y45074D01*
X35974Y45096D01*
Y45123D01*
Y45129D01*
X35963Y45145D01*
X35946Y45167D01*
X35919Y45178D01*
D02*
G37*
G36*
X35093Y45189D02*
X35060D01*
X35044Y45183D01*
Y45178D01*
X35039Y45172D01*
X35033Y45162D01*
X35006Y45129D01*
X35000Y45123D01*
X34989Y45112D01*
X34984Y45101D01*
X34978Y45096D01*
X34984D01*
X34989Y45090D01*
X35039D01*
X35044Y45085D01*
X35050D01*
X35066Y45079D01*
X35082D01*
Y45085D01*
X35088Y45090D01*
X35099Y45118D01*
Y45123D01*
Y45129D01*
X35104Y45151D01*
Y45156D01*
X35110Y45172D01*
X35104Y45183D01*
X35093Y45189D01*
D02*
G37*
G36*
X34601Y43051D02*
X34568D01*
X34557Y43040D01*
X34552Y43034D01*
X34541Y43024D01*
X34530Y43007D01*
X34525Y42991D01*
Y42985D01*
X34519Y42974D01*
X34514Y42969D01*
Y42952D01*
Y42942D01*
X34508Y42925D01*
X34503Y42920D01*
Y42909D01*
Y42903D01*
X34497Y42887D01*
Y42881D01*
Y42854D01*
Y42843D01*
X34508Y42832D01*
X34530Y42816D01*
X34557Y42799D01*
Y42794D01*
X34563D01*
Y42799D01*
Y42805D01*
Y42810D01*
X34557Y42816D01*
Y42827D01*
Y42832D01*
Y42838D01*
X34563D01*
X34568Y42832D01*
X34574D01*
X34579Y42838D01*
Y42843D01*
Y42849D01*
X34585Y42865D01*
Y42870D01*
X34590Y42887D01*
Y42892D01*
Y42903D01*
X34596Y42909D01*
Y42920D01*
X34601Y42931D01*
Y42947D01*
Y42952D01*
Y42963D01*
Y42974D01*
X34607Y42985D01*
Y42991D01*
Y42996D01*
X34612Y43024D01*
Y43029D01*
X34607Y43034D01*
Y43045D01*
X34601Y43051D01*
D02*
G37*
G36*
X35782Y45976D02*
X35760D01*
X35749Y45971D01*
Y45965D01*
X35755Y45960D01*
X35777Y45954D01*
X35793D01*
X35799Y45960D01*
X35793Y45965D01*
X35788D01*
Y45971D01*
X35782Y45976D01*
D02*
G37*
G36*
X35383Y45178D02*
X35367D01*
X35356Y45167D01*
X35350D01*
X35345Y45162D01*
X35339Y45156D01*
Y45151D01*
Y45145D01*
X35334Y45140D01*
Y45134D01*
Y45129D01*
Y45112D01*
Y45101D01*
X35345Y45085D01*
X35356D01*
X35367Y45079D01*
X35389D01*
X35394Y45085D01*
X35399Y45090D01*
X35405Y45096D01*
X35410Y45112D01*
Y45118D01*
Y45129D01*
X35405Y45151D01*
X35389Y45172D01*
X35383Y45178D01*
D02*
G37*
G36*
X32769Y44768D02*
X32758D01*
X32753Y44762D01*
X32758Y44757D01*
X32764D01*
X32769Y44762D01*
Y44768D01*
D02*
G37*
G36*
X32808Y44237D02*
X32791Y44232D01*
X32786D01*
X32775Y44226D01*
X32764Y44205D01*
X32758Y44199D01*
X32753Y44194D01*
X32748Y44183D01*
Y44177D01*
X32742Y44172D01*
Y44155D01*
X32748Y44139D01*
Y44134D01*
X32753Y44128D01*
X32758Y44117D01*
X32769Y44112D01*
X32775D01*
X32786Y44106D01*
X32797Y44101D01*
X32808Y44106D01*
X32824Y44112D01*
X32830Y44117D01*
X32835Y44128D01*
X32846Y44144D01*
X32851Y44166D01*
Y44172D01*
Y44183D01*
Y44199D01*
X32840Y44216D01*
X32835Y44221D01*
X32824Y44232D01*
X32808Y44237D01*
D02*
G37*
G36*
X33524Y44265D02*
X33518Y44259D01*
X33513Y44254D01*
X33502Y44248D01*
X33480D01*
X33464Y44243D01*
X33453Y44232D01*
X33447Y44226D01*
X33442Y44216D01*
X33436Y44199D01*
X33431Y44172D01*
Y44144D01*
X33442Y44128D01*
X33453Y44123D01*
X33475Y44106D01*
X33508Y44101D01*
X33524Y44095D01*
X33540Y44101D01*
X33546Y44106D01*
X33557Y44117D01*
X33573Y44144D01*
X33579Y44188D01*
Y44221D01*
X33557Y44237D01*
X33551Y44243D01*
X33540Y44254D01*
X33524Y44265D01*
D02*
G37*
G36*
X32780Y44746D02*
X32769Y44740D01*
X32758Y44735D01*
X32753Y44730D01*
X32758Y44724D01*
X32775D01*
X32780Y44730D01*
X32786Y44735D01*
Y44740D01*
X32780Y44746D01*
D02*
G37*
G36*
X34169Y44467D02*
X34087D01*
X34076Y44462D01*
X34071D01*
X34054Y44456D01*
X34049D01*
X34043Y44462D01*
X34016D01*
X34000Y44467D01*
X33989Y44456D01*
X33983Y44451D01*
X33989Y44434D01*
Y44423D01*
X33994Y44407D01*
Y44369D01*
Y43866D01*
Y43855D01*
Y43833D01*
X34000Y43811D01*
Y43805D01*
X34147D01*
X34164Y43811D01*
X34169Y43816D01*
X34175Y43827D01*
Y43844D01*
Y43871D01*
X34169Y43877D01*
Y43893D01*
X34175Y43942D01*
Y43948D01*
Y43953D01*
Y43980D01*
Y43991D01*
Y44002D01*
X34169Y44024D01*
Y44052D01*
Y44084D01*
Y44134D01*
Y44194D01*
Y44199D01*
Y44221D01*
Y44248D01*
Y44287D01*
Y44319D01*
Y44358D01*
X34175Y44385D01*
Y44401D01*
Y44407D01*
Y44418D01*
X34180Y44434D01*
Y44451D01*
Y44456D01*
X34175Y44462D01*
X34169Y44467D01*
D02*
G37*
G36*
X32004Y44194D02*
X31998Y44188D01*
Y44183D01*
Y44177D01*
Y44172D01*
X31993Y44161D01*
Y44155D01*
Y44150D01*
X31998D01*
X32015Y44144D01*
X32020D01*
Y44150D01*
Y44155D01*
Y44161D01*
X32015Y44166D01*
X32009Y44177D01*
Y44183D01*
X32004Y44194D01*
D02*
G37*
G36*
X32731Y44740D02*
Y44735D01*
Y44730D01*
X32737Y44724D01*
Y44730D01*
Y44735D01*
X32731Y44740D01*
D02*
G37*
G36*
X32726Y43538D02*
X32720D01*
Y43532D01*
Y43527D01*
Y43521D01*
X32726Y43516D01*
X32737D01*
Y43521D01*
Y43527D01*
X32731Y43532D01*
X32726Y43538D01*
D02*
G37*
G36*
X34131Y43505D02*
X34125Y43499D01*
Y43494D01*
Y43488D01*
X34131Y43483D01*
X34136D01*
Y43494D01*
X34131Y43499D01*
Y43505D01*
D02*
G37*
G36*
X32698Y43516D02*
X32693D01*
X32687Y43505D01*
Y43499D01*
X32693Y43494D01*
X32704Y43483D01*
X32726D01*
X32731Y43488D01*
X32726Y43494D01*
X32709D01*
X32704Y43499D01*
X32698Y43510D01*
Y43516D01*
D02*
G37*
G36*
X35777Y43538D02*
X35771Y43532D01*
X35766Y43527D01*
X35777Y43521D01*
X35782Y43527D01*
Y43532D01*
X35777Y43538D01*
D02*
G37*
G36*
X35285Y44899D02*
X35252D01*
X35241Y44894D01*
X35235D01*
X35230Y44888D01*
X35214Y44877D01*
X35208Y44872D01*
Y44855D01*
Y44844D01*
X35219Y44828D01*
X35225Y44823D01*
X35246Y44806D01*
X35257D01*
X35263Y44817D01*
X35274Y44833D01*
Y44839D01*
X35279Y44850D01*
Y44855D01*
X35290Y44872D01*
Y44877D01*
Y44894D01*
X35285Y44899D01*
D02*
G37*
G36*
X34153Y45654D02*
X34000D01*
X33994Y45643D01*
Y45632D01*
Y45626D01*
Y45615D01*
Y45599D01*
Y45577D01*
Y45544D01*
Y45511D01*
Y45424D01*
Y45419D01*
Y45402D01*
Y45386D01*
Y45358D01*
Y45309D01*
X33989Y45287D01*
Y45276D01*
X33983Y45260D01*
Y45238D01*
Y45216D01*
Y45194D01*
Y45090D01*
Y45085D01*
Y45074D01*
Y45063D01*
X33994Y45058D01*
X34011D01*
X34032Y45052D01*
X34164D01*
X34169Y45058D01*
Y45063D01*
Y45069D01*
X34164Y45238D01*
Y45244D01*
Y45254D01*
X34158Y45271D01*
Y45298D01*
Y45364D01*
X34164Y45440D01*
Y45451D01*
Y45473D01*
X34169Y45517D01*
Y45566D01*
Y45572D01*
Y45577D01*
Y45604D01*
Y45632D01*
X34164Y45643D01*
Y45648D01*
X34153Y45654D01*
D02*
G37*
G36*
X35842Y43548D02*
X35810D01*
X35799Y43538D01*
X35804Y43532D01*
X35815Y43527D01*
X35837D01*
X35842Y43532D01*
X35848Y43543D01*
X35842Y43548D01*
D02*
G37*
%LPD*%
D31*
X19828Y24274D02*
G03*
X19828Y24274I-50J0D01*
G01*
X23065Y25599D02*
X23165D01*
X23065Y24899D02*
Y25599D01*
Y24899D02*
X23165D01*
Y25599D01*
D61*
X22480Y42530D02*
X22874D01*
X22480Y43061D02*
X22874D01*
X20709Y43504D02*
X21102D01*
X20709Y42953D02*
X21102D01*
X23091Y44567D02*
X23366D01*
X23091Y43937D02*
X23366D01*
X23091Y44252D02*
X23366D01*
X20610Y44567D02*
X20886D01*
X20610Y43937D02*
X20886D01*
X20610Y44252D02*
X20886D01*
X22648Y26725D02*
X22924D01*
X22648Y26056D02*
X22924D01*
X18484Y25492D02*
Y25768D01*
X19154Y25492D02*
Y25768D01*
X36391Y46811D02*
X36522D01*
X36457D01*
Y46483D01*
X36522Y46417D01*
X36588D01*
X36654Y46483D01*
X36194Y46417D02*
X36063D01*
X35998Y46483D01*
Y46614D01*
X36063Y46680D01*
X36194D01*
X36260Y46614D01*
Y46483D01*
X36194Y46417D01*
X35866Y46680D02*
Y46417D01*
Y46549D01*
X35801Y46614D01*
X35735Y46680D01*
X35670D01*
X35473Y46417D02*
X35342D01*
X35407D01*
Y46680D01*
X35473D01*
X35079D02*
X34948D01*
X34882Y46614D01*
Y46417D01*
X35079D01*
X35145Y46483D01*
X35079Y46549D01*
X34882D01*
X34751Y46417D02*
Y46680D01*
X34554D01*
X34489Y46614D01*
Y46417D01*
X33964Y46811D02*
Y46417D01*
X33767D01*
X33702Y46483D01*
Y46549D01*
X33767Y46614D01*
X33964D01*
X33767D01*
X33702Y46680D01*
Y46745D01*
X33767Y46811D01*
X33964D01*
X33571Y46680D02*
Y46417D01*
Y46549D01*
X33505Y46614D01*
X33439Y46680D01*
X33374D01*
X33177D02*
Y46483D01*
X33111Y46417D01*
X32915D01*
Y46680D01*
X32783Y46417D02*
X32587D01*
X32521Y46483D01*
X32587Y46549D01*
X32718D01*
X32783Y46614D01*
X32718Y46680D01*
X32521D01*
X32390Y46417D02*
X32259D01*
X32324D01*
Y46811D01*
X32390D01*
X32062Y46417D02*
X31931D01*
X31996D01*
Y46680D01*
X32062D01*
X31734Y46417D02*
Y46680D01*
X31537D01*
X31471Y46614D01*
Y46417D01*
X31078Y46811D02*
Y46417D01*
X31275D01*
X31340Y46483D01*
Y46614D01*
X31275Y46680D01*
X31078D01*
X35945Y47319D02*
X35814Y47057D01*
X35682Y47319D01*
X35551Y47057D02*
X35420D01*
X35486D01*
Y47451D01*
X35551Y47385D01*
X35223Y47057D02*
Y47123D01*
X35158D01*
Y47057D01*
X35223D01*
X34895Y47385D02*
X34830Y47451D01*
X34699D01*
X34633Y47385D01*
Y47123D01*
X34699Y47057D01*
X34830D01*
X34895Y47123D01*
Y47385D01*
X34108D02*
X34043Y47451D01*
X33911D01*
X33846Y47385D01*
Y47319D01*
X33911Y47254D01*
X33977D01*
X33911D01*
X33846Y47188D01*
Y47123D01*
X33911Y47057D01*
X34043D01*
X34108Y47123D01*
X33715Y47057D02*
X33452Y47319D01*
X33059Y47057D02*
X33321D01*
X33059Y47319D01*
Y47385D01*
X33124Y47451D01*
X33255D01*
X33321Y47385D01*
X32927D02*
X32862Y47451D01*
X32731D01*
X32665Y47385D01*
Y47123D01*
X32731Y47057D01*
X32862D01*
X32927Y47123D01*
Y47385D01*
X32272Y47057D02*
X32534D01*
X32272Y47319D01*
Y47385D01*
X32337Y47451D01*
X32468D01*
X32534Y47385D01*
X32140Y47057D02*
X32009D01*
X32075D01*
Y47451D01*
X32140Y47385D01*
X35712Y48015D02*
X35778Y48081D01*
X35909D01*
X35974Y48015D01*
Y47753D01*
X35909Y47687D01*
X35778D01*
X35712Y47753D01*
X35515Y47687D02*
X35384D01*
X35318Y47753D01*
Y47884D01*
X35384Y47949D01*
X35515D01*
X35581Y47884D01*
Y47753D01*
X35515Y47687D01*
X35187D02*
Y47949D01*
X34990D01*
X34925Y47884D01*
Y47687D01*
X34728Y48015D02*
Y47949D01*
X34794D01*
X34662D01*
X34728D01*
Y47753D01*
X34662Y47687D01*
X34466Y47949D02*
Y47687D01*
Y47818D01*
X34400Y47884D01*
X34335Y47949D01*
X34269D01*
X34007Y47687D02*
X33875D01*
X33810Y47753D01*
Y47884D01*
X33875Y47949D01*
X34007D01*
X34072Y47884D01*
Y47753D01*
X34007Y47687D01*
X33679D02*
X33547D01*
X33613D01*
Y48081D01*
X33679D01*
X33351Y47687D02*
X33219D01*
X33285D01*
Y48081D01*
X33351D01*
X32826Y47687D02*
X32957D01*
X33023Y47753D01*
Y47884D01*
X32957Y47949D01*
X32826D01*
X32760Y47884D01*
Y47818D01*
X33023D01*
X32629Y47949D02*
Y47687D01*
Y47818D01*
X32563Y47884D01*
X32498Y47949D01*
X32432D01*
X36057Y48612D02*
X36319D01*
Y48218D01*
X36057D01*
X36319Y48415D02*
X36188D01*
X35663Y48546D02*
X35729Y48612D01*
X35860D01*
X35925Y48546D01*
Y48481D01*
X35860Y48415D01*
X35729D01*
X35663Y48350D01*
Y48284D01*
X35729Y48218D01*
X35860D01*
X35925Y48284D01*
X35532Y48218D02*
Y48612D01*
X35335D01*
X35269Y48546D01*
Y48415D01*
X35335Y48350D01*
X35532D01*
X35138Y48546D02*
X35073Y48612D01*
X34941D01*
X34876Y48546D01*
Y48481D01*
X34941Y48415D01*
X35007D01*
X34941D01*
X34876Y48350D01*
Y48284D01*
X34941Y48218D01*
X35073D01*
X35138Y48284D01*
X34482Y48218D02*
X34745D01*
X34482Y48481D01*
Y48546D01*
X34548Y48612D01*
X34679D01*
X34745Y48546D01*
X33695D02*
X33761Y48612D01*
X33892D01*
X33957Y48546D01*
Y48284D01*
X33892Y48218D01*
X33761D01*
X33695Y48284D01*
Y48415D01*
X33826D01*
X33564Y48218D02*
Y48612D01*
X33367D01*
X33301Y48546D01*
Y48415D01*
X33367Y48350D01*
X33564D01*
X33433D02*
X33301Y48218D01*
X33170Y48612D02*
Y48218D01*
X32974D01*
X32908Y48284D01*
Y48350D01*
X32974Y48415D01*
X33170D01*
X32974D01*
X32908Y48481D01*
Y48546D01*
X32974Y48612D01*
X33170D01*
X32777D02*
Y48218D01*
X32514D01*
D62*
X19543Y43506D02*
Y43756D01*
X19293D02*
X19543D01*
Y41756D02*
Y42006D01*
X19293Y41756D02*
X19543D01*
X17543D02*
X17793D01*
X17543D02*
Y42006D01*
Y43756D02*
X17793D01*
X17543Y43506D02*
Y43756D01*
D65*
X23819Y43307D02*
Y43583D01*
X23681D01*
X23635Y43537D01*
Y43445D01*
X23681Y43399D01*
X23819D01*
X23727D02*
X23635Y43307D01*
X23543D02*
X23452D01*
X23497D01*
Y43583D01*
X23543Y43537D01*
X23314D02*
X23268Y43583D01*
X23176D01*
X23130Y43537D01*
Y43491D01*
X23176Y43445D01*
X23130Y43399D01*
Y43353D01*
X23176Y43307D01*
X23268D01*
X23314Y43353D01*
Y43399D01*
X23268Y43445D01*
X23314Y43491D01*
Y43537D01*
X23268Y43445D02*
X23176D01*
X22638Y43386D02*
Y43661D01*
X22500D01*
X22454Y43615D01*
Y43524D01*
X22500Y43478D01*
X22638D01*
X22546D02*
X22454Y43386D01*
X22362D02*
X22270D01*
X22316D01*
Y43661D01*
X22362Y43615D01*
X22133Y43661D02*
X21949D01*
Y43615D01*
X22133Y43432D01*
Y43386D01*
X24816Y44678D02*
X24862Y44724D01*
X24954D01*
X25000Y44678D01*
Y44495D01*
X24954Y44449D01*
X24862D01*
X24816Y44495D01*
X24541Y44724D02*
X24633Y44678D01*
X24725Y44587D01*
Y44495D01*
X24679Y44449D01*
X24587D01*
X24541Y44495D01*
Y44541D01*
X24587Y44587D01*
X24725D01*
X22060Y44718D02*
X22106Y44764D01*
X22198D01*
X22244Y44718D01*
Y44534D01*
X22198Y44488D01*
X22106D01*
X22060Y44534D01*
X21969Y44718D02*
X21923Y44764D01*
X21831D01*
X21785Y44718D01*
Y44672D01*
X21831Y44626D01*
X21785Y44580D01*
Y44534D01*
X21831Y44488D01*
X21923D01*
X21969Y44534D01*
Y44580D01*
X21923Y44626D01*
X21969Y44672D01*
Y44718D01*
X21923Y44626D02*
X21831D01*
X16299Y42008D02*
Y42283D01*
X16161D01*
X16116Y42237D01*
Y42146D01*
X16161Y42100D01*
X16299D01*
X16207D02*
X16116Y42008D01*
X16024D02*
X15932D01*
X15978D01*
Y42283D01*
X16024Y42237D01*
X15610Y42283D02*
X15702Y42237D01*
X15794Y42146D01*
Y42054D01*
X15748Y42008D01*
X15656D01*
X15610Y42054D01*
Y42100D01*
X15656Y42146D01*
X15794D01*
X19650Y44415D02*
Y44186D01*
X19604Y44140D01*
X19512D01*
X19466Y44186D01*
Y44415D01*
X19191D02*
X19283Y44370D01*
X19375Y44278D01*
Y44186D01*
X19329Y44140D01*
X19237D01*
X19191Y44186D01*
Y44232D01*
X19237Y44278D01*
X19375D01*
X22117Y24501D02*
Y24685D01*
X22208Y24776D01*
X22300Y24685D01*
Y24501D01*
X22392D02*
Y24776D01*
X22530D01*
X22576Y24730D01*
Y24547D01*
X22530Y24501D01*
X22392D01*
X22668Y24776D02*
X22759D01*
X22713D01*
Y24501D01*
X22668Y24547D01*
X21610Y26005D02*
Y25776D01*
X21564Y25730D01*
X21472D01*
X21426Y25776D01*
Y26005D01*
X21151Y25730D02*
X21335D01*
X21151Y25914D01*
Y25960D01*
X21197Y26005D01*
X21289D01*
X21335Y25960D01*
X18670Y40340D02*
Y40616D01*
X18532D01*
X18486Y40570D01*
Y40478D01*
X18532Y40432D01*
X18670D01*
X18578D02*
X18486Y40340D01*
X18395Y40570D02*
X18349Y40616D01*
X18257D01*
X18211Y40570D01*
Y40524D01*
X18257Y40478D01*
X18211Y40432D01*
Y40386D01*
X18257Y40340D01*
X18349D01*
X18395Y40386D01*
Y40432D01*
X18349Y40478D01*
X18395Y40524D01*
Y40570D01*
X18349Y40478D02*
X18257D01*
X19620Y41170D02*
Y41445D01*
X19482D01*
X19436Y41400D01*
Y41308D01*
X19482Y41262D01*
X19620D01*
X19528D02*
X19436Y41170D01*
X19345Y41445D02*
X19161D01*
Y41400D01*
X19345Y41216D01*
Y41170D01*
X22261Y26909D02*
X22215Y26863D01*
X22123D01*
X22077Y26909D01*
Y27093D01*
X22123Y27139D01*
X22215D01*
X22261Y27093D01*
X22536Y26863D02*
X22353D01*
Y27001D01*
X22445Y26955D01*
X22490D01*
X22536Y27001D01*
Y27093D01*
X22490Y27139D01*
X22399D01*
X22353Y27093D01*
X18966Y26880D02*
X19012Y26925D01*
X19104D01*
X19150Y26880D01*
Y26696D01*
X19104Y26650D01*
X19012D01*
X18966Y26696D01*
X18737Y26650D02*
Y26925D01*
X18874Y26788D01*
X18691D01*
D110*
X19951Y24104D02*
X21604D01*
Y25443D01*
X19951D02*
X21604D01*
X19951Y24104D02*
Y25443D01*
M02*
