M48
;Layer_Color=6321
;FILE_FORMAT=2:4
INCH,LZ
T15F00S00C0.2000
%
G90
G05
T15
G00X03878Y008843
M15
G01X03878Y008848
G01X038878Y008844
G01X038993Y008856
G01X039186Y008894
G01X039297Y008928
G01X039478Y009003
G01X039581Y009058
G01X039744Y009167
G01X039834Y00924
G01X039972Y009379
G01X040046Y009469
G01X040155Y009632
G01X04021Y009735
G01X040285Y009916
G01X040318Y010027
G01X040357Y010219
G01X040368Y010335
G01X040368Y010433
G01X04037Y010433
G01X04037Y048622
G01X040365Y048622
G01X040368Y04872
G01X040357Y048836
G01X040318Y049028
G01X040285Y049139
G01X04021Y049321
G01X040155Y049423
G01X040046Y049586
G01X039972Y049676
G01X039834Y049815
G01X039744Y049888
G01X039581Y049997
G01X039478Y050052
G01X039297Y050127
G01X039186Y050161
G01X038993Y050199
G01X038878Y050211
G01X03878Y05021
G01X03878Y050213
G01X010433Y050213
G01X010433Y050207
G01X010335Y050211
G01X010219Y050199
G01X010027Y050161
G01X009916Y050127
G01X009735Y050052
G01X009632Y049997
G01X009469Y049888
G01X009379Y049815
G01X00924Y049676
G01X009167Y049586
G01X009058Y049423
G01X009003Y049321
G01X008928Y049139
G01X008894Y049028
G01X008856Y048836
G01X00884Y048622
G01X008843Y010433
G01X008848Y010433
G01X008844Y010335
G01X008856Y010219
G01X008894Y010027
G01X008928Y009916
G01X009003Y009735
G01X009058Y009632
G01X009167Y009469
G01X00924Y009379
G01X009379Y00924
G01X009469Y009167
G01X009632Y009058
G01X009735Y009003
G01X009916Y008928
G01X010027Y008894
G01X010219Y008856
G01X010433Y00884
G01X03878Y008843
M16
M17
M30
