M48
;Layer_Color=6321
;FILE_FORMAT=2:4
INCH,LZ
;TYPE=PLATED
T1F00S00C0.0118
T2F00S00C0.0122
T3F00S00C0.0138
T4F00S00C0.0280
T5F00S00C0.0300
T6F00S00C0.0315
T7F00S00C0.0394
T8F00S00C0.0400
T9F00S00C0.0512
T10F00S00C0.0900
T11F00S00C0.1260
T12F00S00C0.1378
;TYPE=NON_PLATED
T13F00S00C0.0433
T14F00S00C0.1181
%
T01
X020709Y02437
Y024774
Y025177
T02
X020787Y02122
X02563Y020984
X027598Y021063
X029252Y022165
X029016Y024134
X025157Y02437
X02315Y024331
X022559Y029173
X021693Y029843
X019567Y029331
X018976Y027795
X015354Y039331
X014882Y041693
X013504Y045118
X012795Y045276
X012165Y046142
X017913Y046024
X01811Y043189
Y042323
X018543
X01815Y040906
X015748Y041968
X019488Y04378
X021693Y045079
X022008
X023583Y045591
X023885Y042515
X022402Y041968
X021693Y034213
X022244Y033189
X022756Y03252
X024213Y034606
X020433Y034961
X020118Y035315
X031063Y034567
T03
X03311Y030433
X036378Y028307
X02768Y02297
X02791Y02248
X02833Y02206
X02594Y02199
X02833Y01943
X02206Y01853
X01975Y02101
X01605Y02297
X02492Y03281
X029094Y04016
X028701Y042677
X029055Y045039
X029173Y046693
X02878Y047559
X030984Y04748
T04
X027008Y026744
T05
X029528Y026783
Y027783
X029539Y029764
X030539
T06
X016321Y014004
X017321
X018321
X019321
X018821Y015004
X019821
X017821
X016821
X023474Y015043
X024474
X025474
X026474
X025974Y014043
X024974
X023974
X022974
X029549
X030549
X031049Y015043
X030049
X032049
X033049
X032549Y014043
X031549
X034169Y017963
Y018963
Y019963
Y020963
X035169Y020463
Y019463
Y018463
Y017463
X035248Y024077
Y025077
Y026077
Y027077
X034248Y026577
Y027577
Y025577
Y024577
X01528Y020384
Y019384
Y018384
Y017384
X01428Y017884
Y018884
Y019884
Y020884
T07
X028306Y039661
X030276Y039646
X032007Y039661
X033977Y039646
T08
X016454Y031182
X026454
Y032182
Y033182
Y034182
Y035182
Y036182
Y037182
Y038182
Y039182
Y040182
Y041182
Y042182
Y043182
Y044182
Y045182
X016454
Y044182
Y043182
Y042182
Y041182
Y040182
Y039182
Y038182
Y037182
Y036182
Y035182
Y034182
Y033182
Y032182
T09
X037402Y030669
X011929Y030433
X011614Y026181
Y024213
X011929Y032402
X011772Y035236
Y037205
X011811Y040079
Y042047
X037402Y042441
Y040472
Y03752
Y035551
Y032638
T10
X021884Y036632
T11
X015807Y011504
X020335
X022461Y011543
X026988
X029035
X033563
X037669Y016949
Y021476
X037748Y023563
Y028091
X01178Y021398
Y01687
T12
X011811Y011811
X037402
Y047244
X011811
T13
X020827Y04687
X022559
T14
X016856Y029804
X026052
Y048135
X016856
M30
