G04 Layer_Color=15132400*
%FSLAX24Y24*%
%MOIN*%
G70*
G01*
G75*
%ADD29C,0.0098*%
%ADD31C,0.0100*%
%ADD61C,0.0079*%
%ADD62C,0.0050*%
%ADD63C,0.0080*%
%ADD64C,0.0118*%
%ADD65C,0.0039*%
G36*
X25361Y42109D02*
X25223D01*
X25224Y42109D01*
X25225Y42108D01*
X25226Y42106D01*
X25228Y42104D01*
X25230Y42101D01*
X25233Y42097D01*
X25236Y42093D01*
X25239Y42089D01*
Y42088D01*
X25239Y42088D01*
X25240Y42087D01*
X25241Y42084D01*
X25243Y42081D01*
X25244Y42077D01*
X25246Y42074D01*
X25248Y42070D01*
X25249Y42066D01*
X25229D01*
Y42066D01*
X25228Y42067D01*
X25228Y42068D01*
X25227Y42069D01*
X25226Y42070D01*
X25225Y42072D01*
X25223Y42077D01*
X25220Y42082D01*
X25216Y42087D01*
X25212Y42092D01*
X25208Y42098D01*
X25208Y42098D01*
X25207Y42098D01*
X25207Y42099D01*
X25206Y42100D01*
X25203Y42102D01*
X25200Y42105D01*
X25197Y42108D01*
X25193Y42112D01*
X25189Y42114D01*
X25184Y42117D01*
Y42131D01*
X25361D01*
Y42109D01*
D02*
G37*
G36*
X25365Y42917D02*
X25362D01*
X25360Y42918D01*
X25358Y42918D01*
X25355Y42918D01*
X25353Y42919D01*
X25350Y42920D01*
X25350D01*
X25350Y42920D01*
X25348Y42921D01*
X25346Y42922D01*
X25343Y42923D01*
X25339Y42925D01*
X25335Y42928D01*
X25331Y42931D01*
X25327Y42934D01*
X25326D01*
X25326Y42935D01*
X25325Y42936D01*
X25322Y42938D01*
X25319Y42942D01*
X25315Y42945D01*
X25311Y42950D01*
X25305Y42956D01*
X25300Y42962D01*
X25300Y42963D01*
X25299Y42964D01*
X25298Y42965D01*
X25296Y42967D01*
X25294Y42969D01*
X25292Y42972D01*
X25289Y42975D01*
X25287Y42978D01*
X25280Y42985D01*
X25274Y42991D01*
X25271Y42994D01*
X25268Y42997D01*
X25265Y42999D01*
X25263Y43001D01*
X25262D01*
X25262Y43002D01*
X25261Y43003D01*
X25260Y43003D01*
X25258Y43005D01*
X25254Y43007D01*
X25250Y43009D01*
X25246Y43010D01*
X25241Y43011D01*
X25236Y43012D01*
X25236D01*
X25234Y43012D01*
X25232Y43011D01*
X25229Y43011D01*
X25225Y43010D01*
X25222Y43008D01*
X25218Y43006D01*
X25215Y43003D01*
X25214Y43002D01*
X25213Y43001D01*
X25212Y42999D01*
X25210Y42996D01*
X25209Y42993D01*
X25207Y42988D01*
X25206Y42984D01*
X25206Y42978D01*
Y42978D01*
Y42978D01*
Y42977D01*
X25206Y42976D01*
X25206Y42973D01*
X25207Y42969D01*
X25208Y42965D01*
X25210Y42961D01*
X25212Y42957D01*
X25215Y42953D01*
X25216Y42953D01*
X25217Y42952D01*
X25219Y42950D01*
X25222Y42948D01*
X25226Y42947D01*
X25230Y42945D01*
X25235Y42944D01*
X25241Y42944D01*
X25239Y42921D01*
X25239D01*
X25238Y42922D01*
X25237D01*
X25235Y42922D01*
X25233Y42922D01*
X25230Y42923D01*
X25228Y42924D01*
X25225Y42924D01*
X25219Y42927D01*
X25213Y42930D01*
X25210Y42931D01*
X25207Y42934D01*
X25204Y42936D01*
X25201Y42939D01*
X25201Y42939D01*
X25201Y42939D01*
X25200Y42940D01*
X25199Y42941D01*
X25198Y42943D01*
X25197Y42945D01*
X25196Y42947D01*
X25195Y42949D01*
X25193Y42952D01*
X25192Y42955D01*
X25191Y42958D01*
X25190Y42962D01*
X25189Y42966D01*
X25188Y42970D01*
X25188Y42974D01*
X25188Y42979D01*
Y42979D01*
Y42980D01*
Y42981D01*
X25188Y42983D01*
X25188Y42985D01*
X25189Y42988D01*
X25189Y42991D01*
X25190Y42993D01*
X25191Y43000D01*
X25194Y43007D01*
X25196Y43010D01*
X25197Y43013D01*
X25200Y43016D01*
X25202Y43019D01*
X25202Y43019D01*
X25203Y43020D01*
X25204Y43020D01*
X25205Y43021D01*
X25206Y43023D01*
X25208Y43024D01*
X25210Y43025D01*
X25212Y43027D01*
X25217Y43029D01*
X25223Y43032D01*
X25226Y43033D01*
X25229Y43033D01*
X25233Y43034D01*
X25237Y43034D01*
X25239D01*
X25241Y43034D01*
X25243Y43034D01*
X25247Y43033D01*
X25250Y43032D01*
X25254Y43031D01*
X25258Y43030D01*
X25258Y43029D01*
X25260Y43029D01*
X25262Y43028D01*
X25264Y43026D01*
X25267Y43024D01*
X25271Y43022D01*
X25275Y43019D01*
X25279Y43015D01*
X25280Y43014D01*
X25281Y43013D01*
X25283Y43012D01*
X25284Y43011D01*
X25286Y43009D01*
X25288Y43007D01*
X25290Y43005D01*
X25292Y43003D01*
X25294Y43000D01*
X25297Y42997D01*
X25300Y42994D01*
X25303Y42990D01*
X25307Y42986D01*
X25310Y42982D01*
X25311Y42982D01*
X25311Y42981D01*
X25312Y42980D01*
X25313Y42979D01*
X25314Y42977D01*
X25316Y42975D01*
X25319Y42971D01*
X25323Y42967D01*
X25327Y42963D01*
X25330Y42959D01*
X25331Y42958D01*
X25333Y42957D01*
X25333Y42956D01*
X25334Y42956D01*
X25335Y42955D01*
X25336Y42953D01*
X25338Y42952D01*
X25340Y42950D01*
X25344Y42947D01*
Y43034D01*
X25365D01*
Y42917D01*
D02*
G37*
G36*
X22619Y44274D02*
X22661D01*
Y44252D01*
X22619D01*
Y44175D01*
X22599D01*
X22485Y44256D01*
Y44274D01*
X22599D01*
Y44298D01*
X22619D01*
Y44274D01*
D02*
G37*
G36*
X25313Y43950D02*
X25315Y43950D01*
X25318Y43950D01*
X25320Y43949D01*
X25323Y43949D01*
X25329Y43947D01*
X25332Y43945D01*
X25335Y43944D01*
X25339Y43942D01*
X25342Y43939D01*
X25345Y43937D01*
X25348Y43934D01*
X25349Y43933D01*
X25349Y43933D01*
X25350Y43932D01*
X25351Y43931D01*
X25352Y43929D01*
X25354Y43927D01*
X25355Y43925D01*
X25356Y43922D01*
X25358Y43919D01*
X25359Y43916D01*
X25361Y43912D01*
X25362Y43909D01*
X25363Y43905D01*
X25364Y43900D01*
X25364Y43896D01*
X25364Y43891D01*
Y43891D01*
Y43890D01*
Y43889D01*
X25364Y43887D01*
X25364Y43885D01*
X25364Y43883D01*
X25363Y43880D01*
X25363Y43878D01*
X25361Y43871D01*
X25359Y43865D01*
X25357Y43862D01*
X25355Y43859D01*
X25353Y43856D01*
X25351Y43853D01*
X25350Y43852D01*
X25350Y43852D01*
X25349Y43851D01*
X25348Y43850D01*
X25347Y43849D01*
X25345Y43848D01*
X25343Y43846D01*
X25341Y43845D01*
X25338Y43843D01*
X25336Y43842D01*
X25330Y43839D01*
X25323Y43836D01*
X25319Y43836D01*
X25315Y43835D01*
X25312Y43857D01*
X25312D01*
X25313Y43857D01*
X25314Y43857D01*
X25315Y43858D01*
X25317Y43858D01*
X25318Y43858D01*
X25322Y43860D01*
X25327Y43861D01*
X25331Y43864D01*
X25335Y43866D01*
X25339Y43869D01*
X25339Y43870D01*
X25340Y43871D01*
X25341Y43873D01*
X25343Y43875D01*
X25344Y43879D01*
X25345Y43882D01*
X25346Y43887D01*
X25347Y43891D01*
Y43892D01*
Y43892D01*
Y43893D01*
X25346Y43894D01*
X25346Y43897D01*
X25345Y43900D01*
X25344Y43904D01*
X25342Y43909D01*
X25340Y43913D01*
X25336Y43917D01*
X25336Y43918D01*
X25334Y43919D01*
X25332Y43920D01*
X25329Y43922D01*
X25325Y43924D01*
X25321Y43926D01*
X25316Y43927D01*
X25310Y43928D01*
X25308D01*
X25307Y43928D01*
X25305Y43927D01*
X25301Y43926D01*
X25297Y43925D01*
X25293Y43924D01*
X25289Y43921D01*
X25285Y43918D01*
X25285Y43917D01*
X25284Y43916D01*
X25282Y43914D01*
X25280Y43911D01*
X25279Y43908D01*
X25277Y43903D01*
X25276Y43898D01*
X25275Y43893D01*
Y43893D01*
Y43892D01*
Y43891D01*
X25276Y43889D01*
X25276Y43887D01*
X25277Y43884D01*
X25277Y43881D01*
X25278Y43878D01*
X25259Y43880D01*
Y43881D01*
Y43882D01*
X25259Y43883D01*
Y43884D01*
Y43884D01*
Y43884D01*
Y43885D01*
Y43886D01*
X25258Y43889D01*
X25258Y43892D01*
X25257Y43896D01*
X25256Y43900D01*
X25254Y43904D01*
X25252Y43909D01*
Y43909D01*
X25252Y43909D01*
X25250Y43910D01*
X25249Y43912D01*
X25246Y43914D01*
X25243Y43916D01*
X25239Y43918D01*
X25235Y43919D01*
X25232Y43920D01*
X25228D01*
X25226Y43919D01*
X25223Y43919D01*
X25220Y43918D01*
X25216Y43917D01*
X25213Y43914D01*
X25210Y43912D01*
X25210Y43911D01*
X25209Y43910D01*
X25207Y43908D01*
X25206Y43906D01*
X25205Y43903D01*
X25203Y43899D01*
X25202Y43895D01*
X25202Y43891D01*
Y43891D01*
Y43890D01*
Y43889D01*
X25203Y43886D01*
X25203Y43883D01*
X25204Y43880D01*
X25205Y43877D01*
X25207Y43873D01*
X25210Y43870D01*
X25210Y43870D01*
X25211Y43869D01*
X25213Y43867D01*
X25216Y43865D01*
X25219Y43864D01*
X25223Y43862D01*
X25228Y43860D01*
X25234Y43859D01*
X25230Y43837D01*
X25230D01*
X25229Y43838D01*
X25228Y43838D01*
X25226Y43838D01*
X25224Y43839D01*
X25222Y43840D01*
X25218Y43841D01*
X25212Y43844D01*
X25206Y43847D01*
X25201Y43850D01*
X25196Y43855D01*
X25196Y43856D01*
X25196Y43856D01*
X25195Y43857D01*
X25194Y43858D01*
X25193Y43859D01*
X25192Y43861D01*
X25191Y43863D01*
X25190Y43865D01*
X25188Y43870D01*
X25186Y43876D01*
X25185Y43883D01*
X25184Y43886D01*
Y43890D01*
Y43891D01*
Y43891D01*
Y43892D01*
Y43893D01*
X25184Y43896D01*
X25185Y43899D01*
X25186Y43903D01*
X25187Y43908D01*
X25189Y43912D01*
X25191Y43917D01*
Y43917D01*
X25191Y43917D01*
X25192Y43919D01*
X25193Y43921D01*
X25195Y43924D01*
X25197Y43927D01*
X25200Y43930D01*
X25204Y43933D01*
X25207Y43935D01*
X25208Y43936D01*
X25209Y43936D01*
X25211Y43937D01*
X25214Y43939D01*
X25218Y43940D01*
X25221Y43941D01*
X25226Y43942D01*
X25230Y43942D01*
X25232D01*
X25234Y43942D01*
X25237Y43941D01*
X25240Y43941D01*
X25244Y43939D01*
X25247Y43938D01*
X25251Y43936D01*
X25252Y43935D01*
X25253Y43935D01*
X25254Y43933D01*
X25256Y43931D01*
X25259Y43929D01*
X25261Y43925D01*
X25264Y43922D01*
X25266Y43918D01*
Y43918D01*
X25266Y43918D01*
X25266Y43919D01*
X25267Y43920D01*
X25268Y43923D01*
X25269Y43926D01*
X25271Y43931D01*
X25274Y43935D01*
X25277Y43938D01*
X25281Y43942D01*
X25281Y43942D01*
X25283Y43943D01*
X25285Y43945D01*
X25289Y43946D01*
X25293Y43948D01*
X25298Y43949D01*
X25303Y43950D01*
X25309Y43951D01*
X25312D01*
X25313Y43950D01*
D02*
G37*
%LPC*%
G36*
X22599Y44252D02*
X22520D01*
X22599Y44196D01*
Y44252D01*
D02*
G37*
%LPD*%
D29*
X31900Y21301D02*
G03*
X31900Y21301I-49J0D01*
G01*
X24854Y18425D02*
G03*
X24854Y18425I-49J0D01*
G01*
X17965Y18504D02*
G03*
X17965Y18504I-49J0D01*
G01*
X12876Y46398D02*
G03*
X12876Y46398I-49J0D01*
G01*
D31*
X29970Y26516D02*
G03*
X29970Y28051I-443J767D01*
G01*
X29077Y28053D02*
G03*
X29077Y26519I443J-767D01*
G01*
X29272Y29321D02*
G03*
X30807Y29321I767J443D01*
G01*
X30809Y30215D02*
G03*
X29275Y30215I-767J-443D01*
G01*
X24532Y46196D02*
Y46296D01*
X25232D01*
Y46196D02*
Y46296D01*
X24532Y46196D02*
X25232D01*
X34642Y38403D02*
Y40896D01*
X31342Y38403D02*
Y40896D01*
Y38403D02*
X34642D01*
X31342Y40896D02*
X34642D01*
X30941Y38403D02*
Y40896D01*
X27641Y38403D02*
Y40896D01*
Y38403D02*
X30941D01*
X27641Y40896D02*
X30941D01*
X17669Y30733D02*
X23771D01*
X17669D02*
Y33332D01*
X23771Y30733D02*
X25356D01*
X17519Y41156D02*
X25506D01*
X17519Y33322D02*
Y41156D01*
X25506Y33322D02*
Y41156D01*
X17669Y33332D02*
X25356D01*
Y30733D02*
Y33332D01*
X25366Y33322D02*
X25506D01*
X17519D02*
X17659D01*
X27264Y43557D02*
Y49089D01*
X32024Y43557D02*
Y49089D01*
X27264Y43557D02*
X32024D01*
X27264Y49089D02*
X32024D01*
X29278Y25983D02*
X29778D01*
X29528Y25733D02*
Y26233D01*
X28739Y29514D02*
Y30014D01*
X28489Y29764D02*
X28989D01*
D61*
X18504Y45374D02*
Y45650D01*
X19134Y45374D02*
Y45650D01*
X18819Y45374D02*
Y45650D01*
X34016Y32250D02*
X34566D01*
X34491Y32325D02*
X34566Y32250D01*
X34091Y32325D02*
X34491D01*
X34016Y32249D02*
X34091Y32325D01*
X34491D02*
X34567Y32249D01*
Y31950D02*
Y32249D01*
X34016Y32175D02*
X34567D01*
X34016Y32000D02*
Y32249D01*
Y30975D02*
Y32000D01*
Y30975D02*
X34567D01*
Y31950D01*
X32835Y32250D02*
X33385D01*
X33310Y32325D02*
X33385Y32250D01*
X32910Y32325D02*
X33310D01*
X32835Y32249D02*
X32910Y32325D01*
X33310D02*
X33386Y32249D01*
Y31950D02*
Y32249D01*
X32835Y32175D02*
X33386D01*
X32835Y32000D02*
Y32249D01*
Y30975D02*
Y32000D01*
Y30975D02*
X33386D01*
Y31950D01*
X31733Y32250D02*
X32283D01*
X32208Y32325D02*
X32283Y32250D01*
X31808Y32325D02*
X32208D01*
X31732Y32249D02*
X31808Y32325D01*
X32208D02*
X32283Y32249D01*
Y31950D02*
Y32249D01*
X31732Y32175D02*
X32283D01*
X31732Y32000D02*
Y32249D01*
Y30975D02*
Y32000D01*
Y30975D02*
X32283D01*
Y31950D01*
X31260Y21417D02*
Y25354D01*
X30551Y21417D02*
Y25354D01*
Y21417D02*
X31260D01*
X30551Y25354D02*
X31260D01*
X24921Y19016D02*
X28858D01*
X24921Y19724D02*
X28858D01*
X24921Y19016D02*
Y19724D01*
X28858Y19016D02*
Y19724D01*
X18032Y19094D02*
X21969D01*
X18032Y19803D02*
X21969D01*
X18032Y19094D02*
Y19803D01*
X21969Y19094D02*
Y19803D01*
X28366Y42244D02*
X28642D01*
X28366Y41614D02*
X28642D01*
X28366Y41929D02*
X28642D01*
X13114Y46299D02*
X13264D01*
X13114Y45433D02*
X13264D01*
X13114D02*
Y46299D01*
X13264Y45433D02*
Y46299D01*
D62*
X32308Y32875D02*
Y33975D01*
X31708Y32875D02*
X32308D01*
X31708D02*
Y33975D01*
X32308D01*
D63*
X22961Y44715D02*
X24361D01*
Y42135D02*
Y44715D01*
X22961Y42135D02*
X24361D01*
X22961D02*
Y44715D01*
X20197Y46535D02*
Y47362D01*
X20433Y45472D02*
X20787D01*
X22598D02*
X22953D01*
X23189Y46535D02*
Y47362D01*
D64*
X33612Y22677D02*
X36811D01*
X37008D01*
X33612Y28976D02*
X37008D01*
X33612Y22677D02*
Y28976D01*
X33533Y16063D02*
X36732D01*
X36929D01*
X33533Y22362D02*
X36929D01*
X33533Y16063D02*
Y22362D01*
X28150Y12480D02*
Y15679D01*
Y12283D02*
Y12480D01*
X34449Y12283D02*
Y15679D01*
X28150D02*
X34449D01*
X21575Y12480D02*
Y15679D01*
Y12283D02*
Y12480D01*
X27874Y12283D02*
Y15679D01*
X21575D02*
X27874D01*
X14921Y12441D02*
Y15640D01*
Y12244D02*
Y12441D01*
X21220Y12244D02*
Y15640D01*
X14921D02*
X21220D01*
X12717Y22283D02*
X15915D01*
X12520D02*
X12717D01*
X12520Y15984D02*
X15915D01*
Y22283D01*
D65*
X18582Y46895D02*
X18536Y46941D01*
X18444D01*
X18398Y46895D01*
Y46712D01*
X18444Y46666D01*
X18536D01*
X18582Y46712D01*
X18674Y46666D02*
X18765D01*
X18720D01*
Y46941D01*
X18674Y46895D01*
X18903Y46666D02*
X18995D01*
X18949D01*
Y46941D01*
X18903Y46895D01*
X23237Y25209D02*
Y25484D01*
X23375D01*
X23421Y25438D01*
Y25347D01*
X23375Y25301D01*
X23237D01*
X23329D02*
X23421Y25209D01*
X23513D02*
X23605D01*
X23559D01*
Y25484D01*
X23513Y25438D01*
X23743Y25209D02*
X23834D01*
X23788D01*
Y25484D01*
X23743Y25438D01*
X31654Y34134D02*
Y34409D01*
X31791D01*
X31837Y34363D01*
Y34272D01*
X31791Y34226D01*
X31654D01*
X31745D02*
X31837Y34134D01*
X32113D02*
X31929D01*
X32113Y34318D01*
Y34363D01*
X32067Y34409D01*
X31975D01*
X31929Y34363D01*
X32205Y34134D02*
X32296D01*
X32250D01*
Y34409D01*
X32205Y34363D01*
X32795Y34409D02*
Y34685D01*
X32933D01*
X32979Y34639D01*
Y34547D01*
X32933Y34501D01*
X32795D01*
X32887D02*
X32979Y34409D01*
X33254D02*
X33071D01*
X33254Y34593D01*
Y34639D01*
X33209Y34685D01*
X33117D01*
X33071Y34639D01*
X33346D02*
X33392Y34685D01*
X33484D01*
X33530Y34639D01*
Y34455D01*
X33484Y34409D01*
X33392D01*
X33346Y34455D01*
Y34639D01*
X33976Y34213D02*
Y34488D01*
X34114D01*
X34160Y34442D01*
Y34350D01*
X34114Y34304D01*
X33976D01*
X34068D02*
X34160Y34213D01*
X34252D02*
X34344D01*
X34298D01*
Y34488D01*
X34252Y34442D01*
X34481Y34259D02*
X34527Y34213D01*
X34619D01*
X34665Y34259D01*
Y34442D01*
X34619Y34488D01*
X34527D01*
X34481Y34442D01*
Y34396D01*
X34527Y34350D01*
X34665D01*
X33976Y32749D02*
X34022Y32795D01*
X34114D01*
X34160Y32749D01*
Y32703D01*
X34114Y32657D01*
X34068D01*
X34114D01*
X34160Y32612D01*
Y32566D01*
X34114Y32520D01*
X34022D01*
X33976Y32566D01*
X33097Y32520D02*
X32913D01*
X33097Y32703D01*
Y32749D01*
X33051Y32795D01*
X32959D01*
X32913Y32749D01*
X31575Y32520D02*
X31667D01*
X31621D01*
Y32795D01*
X31575Y32749D01*
X15315Y48976D02*
Y48747D01*
X15361Y48701D01*
X15453D01*
X15499Y48747D01*
Y48976D01*
X15590D02*
X15774D01*
Y48930D01*
X15590Y48747D01*
Y48701D01*
X24520Y47875D02*
Y47692D01*
X24612Y47600D01*
X24704Y47692D01*
Y47875D01*
X24795D02*
Y47600D01*
X24933D01*
X24979Y47646D01*
Y47830D01*
X24933Y47875D01*
X24795D01*
X25255Y47600D02*
X25071D01*
X25255Y47784D01*
Y47830D01*
X25209Y47875D01*
X25117D01*
X25071Y47830D01*
X28819Y21653D02*
Y21424D01*
X28865Y21378D01*
X28957D01*
X29003Y21424D01*
Y21653D01*
X29278D02*
X29094D01*
Y21516D01*
X29186Y21562D01*
X29232D01*
X29278Y21516D01*
Y21424D01*
X29232Y21378D01*
X29140D01*
X29094Y21424D01*
X24750Y21386D02*
Y21156D01*
X24796Y21110D01*
X24888D01*
X24934Y21156D01*
Y21386D01*
X25163Y21110D02*
Y21386D01*
X25025Y21248D01*
X25209D01*
X17860Y21456D02*
Y21226D01*
X17906Y21180D01*
X17998D01*
X18044Y21226D01*
Y21456D01*
X18135Y21410D02*
X18181Y21456D01*
X18273D01*
X18319Y21410D01*
Y21364D01*
X18273Y21318D01*
X18227D01*
X18273D01*
X18319Y21272D01*
Y21226D01*
X18273Y21180D01*
X18181D01*
X18135Y21226D01*
X22087Y41653D02*
Y41424D01*
X22133Y41378D01*
X22224D01*
X22270Y41424D01*
Y41653D01*
X22362Y41378D02*
X22454D01*
X22408D01*
Y41653D01*
X22362Y41608D01*
X31514Y41420D02*
X31468Y41466D01*
X31376D01*
X31330Y41420D01*
Y41374D01*
X31376Y41328D01*
X31468D01*
X31514Y41282D01*
Y41236D01*
X31468Y41190D01*
X31376D01*
X31330Y41236D01*
X31789Y41190D02*
X31606D01*
X31789Y41374D01*
Y41420D01*
X31743Y41466D01*
X31651D01*
X31606Y41420D01*
X27814D02*
X27768Y41466D01*
X27676D01*
X27630Y41420D01*
Y41374D01*
X27676Y41328D01*
X27768D01*
X27814Y41282D01*
Y41236D01*
X27768Y41190D01*
X27676D01*
X27630Y41236D01*
X27905Y41190D02*
X27997D01*
X27951D01*
Y41466D01*
X27905Y41420D01*
X22913Y29016D02*
Y29291D01*
X23051D01*
X23097Y29245D01*
Y29153D01*
X23051Y29108D01*
X22913D01*
X23005D02*
X23097Y29016D01*
X23189D02*
X23281D01*
X23235D01*
Y29291D01*
X23189Y29245D01*
X23602Y29016D02*
X23418D01*
X23602Y29199D01*
Y29245D01*
X23556Y29291D01*
X23464D01*
X23418Y29245D01*
X31560Y37870D02*
Y38145D01*
X31698D01*
X31744Y38100D01*
Y38008D01*
X31698Y37962D01*
X31560D01*
X31652D02*
X31744Y37870D01*
X31835D02*
X31927D01*
X31881D01*
Y38145D01*
X31835Y38100D01*
X32065D02*
X32111Y38145D01*
X32203D01*
X32249Y38100D01*
Y37916D01*
X32203Y37870D01*
X32111D01*
X32065Y37916D01*
Y38100D01*
X30709Y31181D02*
Y31457D01*
X30846D01*
X30892Y31411D01*
Y31319D01*
X30846Y31273D01*
X30709D01*
X30800D02*
X30892Y31181D01*
X31168Y31457D02*
X31076Y31411D01*
X30984Y31319D01*
Y31227D01*
X31030Y31181D01*
X31122D01*
X31168Y31227D01*
Y31273D01*
X31122Y31319D01*
X30984D01*
X30709Y32362D02*
Y32638D01*
X30846D01*
X30892Y32592D01*
Y32500D01*
X30846Y32454D01*
X30709D01*
X30800D02*
X30892Y32362D01*
X31168Y32638D02*
X30984D01*
Y32500D01*
X31076Y32546D01*
X31122D01*
X31168Y32500D01*
Y32408D01*
X31122Y32362D01*
X31030D01*
X30984Y32408D01*
X30748Y33543D02*
Y33819D01*
X30886D01*
X30932Y33773D01*
Y33681D01*
X30886Y33635D01*
X30748D01*
X30840D02*
X30932Y33543D01*
X31161D02*
Y33819D01*
X31024Y33681D01*
X31207D01*
X30748Y34764D02*
Y35039D01*
X30886D01*
X30932Y34993D01*
Y34902D01*
X30886Y34856D01*
X30748D01*
X30840D02*
X30932Y34764D01*
X31024Y34993D02*
X31069Y35039D01*
X31161D01*
X31207Y34993D01*
Y34947D01*
X31161Y34902D01*
X31115D01*
X31161D01*
X31207Y34856D01*
Y34810D01*
X31161Y34764D01*
X31069D01*
X31024Y34810D01*
X30748Y35866D02*
Y36142D01*
X30886D01*
X30932Y36096D01*
Y36004D01*
X30886Y35958D01*
X30748D01*
X30840D02*
X30932Y35866D01*
X31207D02*
X31024D01*
X31207Y36050D01*
Y36096D01*
X31161Y36142D01*
X31069D01*
X31024Y36096D01*
X30748Y36969D02*
Y37244D01*
X30886D01*
X30932Y37198D01*
Y37106D01*
X30886Y37060D01*
X30748D01*
X30840D02*
X30932Y36969D01*
X31024D02*
X31115D01*
X31069D01*
Y37244D01*
X31024Y37198D01*
X17510Y41450D02*
Y41726D01*
X17602Y41634D01*
X17694Y41726D01*
Y41450D01*
X17786D02*
X17877D01*
X17831D01*
Y41726D01*
X17786Y41680D01*
X23545Y32072D02*
Y32347D01*
Y32255D01*
X23361Y32072D01*
X23499Y32209D01*
X23361Y32347D01*
X23086Y32072D02*
X23269D01*
Y32347D01*
X23086D01*
X23269Y32209D02*
X23178D01*
X22810Y32072D02*
X22994D01*
Y32347D01*
X22810D01*
X22994Y32209D02*
X22902D01*
X22718Y32347D02*
Y32072D01*
X22581D01*
X22535Y32118D01*
Y32209D01*
X22581Y32255D01*
X22718D01*
X22305Y32072D02*
X22397D01*
X22443Y32118D01*
Y32301D01*
X22397Y32347D01*
X22305D01*
X22259Y32301D01*
Y32118D01*
X22305Y32072D01*
X22167D02*
Y32301D01*
X22121Y32347D01*
X22030D01*
X21984Y32301D01*
Y32072D01*
X21892D02*
X21708D01*
X21800D01*
Y32347D01*
X24318Y45905D02*
X24226D01*
X24272D01*
Y45676D01*
X24226Y45630D01*
X24180D01*
X24134Y45676D01*
X24409Y45630D02*
X24501D01*
X24455D01*
Y45905D01*
X24409Y45860D01*
X27585Y43386D02*
X27493D01*
X27539D01*
Y43156D01*
X27493Y43110D01*
X27447D01*
X27402Y43156D01*
X27677Y43340D02*
X27723Y43386D01*
X27815D01*
X27861Y43340D01*
Y43294D01*
X27815Y43248D01*
X27861Y43202D01*
Y43156D01*
X27815Y43110D01*
X27723D01*
X27677Y43156D01*
Y43202D01*
X27723Y43248D01*
X27677Y43294D01*
Y43340D01*
X27723Y43248D02*
X27815D01*
X10374Y34346D02*
X10282D01*
X10328D01*
Y34116D01*
X10282Y34070D01*
X10236D01*
X10190Y34116D01*
X10466Y34346D02*
X10649D01*
Y34300D01*
X10466Y34116D01*
Y34070D01*
X14291Y34580D02*
Y34672D01*
Y34626D01*
X14062D01*
X14016Y34672D01*
Y34718D01*
X14062Y34764D01*
X14291Y34305D02*
X14245Y34396D01*
X14153Y34488D01*
X14062D01*
X14016Y34442D01*
Y34351D01*
X14062Y34305D01*
X14108D01*
X14153Y34351D01*
Y34488D01*
X14370Y39423D02*
Y39514D01*
Y39469D01*
X14140D01*
X14094Y39514D01*
Y39560D01*
X14140Y39606D01*
X14370Y39147D02*
Y39331D01*
X14232D01*
X14278Y39239D01*
Y39193D01*
X14232Y39147D01*
X14140D01*
X14094Y39193D01*
Y39285D01*
X14140Y39331D01*
X35454Y34376D02*
X35362D01*
X35408D01*
Y34146D01*
X35362Y34100D01*
X35316D01*
X35270Y34146D01*
X35683Y34100D02*
Y34376D01*
X35545Y34238D01*
X35729D01*
X38570Y34252D02*
X38478D01*
X38524D01*
Y34022D01*
X38478Y33976D01*
X38432D01*
X38386Y34022D01*
X38661Y34206D02*
X38707Y34252D01*
X38799D01*
X38845Y34206D01*
Y34160D01*
X38799Y34114D01*
X38753D01*
X38799D01*
X38845Y34068D01*
Y34022D01*
X38799Y33976D01*
X38707D01*
X38661Y34022D01*
X38609Y39134D02*
X38517D01*
X38563D01*
Y38904D01*
X38517Y38858D01*
X38471D01*
X38425Y38904D01*
X38884Y38858D02*
X38701D01*
X38884Y39042D01*
Y39088D01*
X38838Y39134D01*
X38747D01*
X38701Y39088D01*
X33071Y26010D02*
Y25919D01*
Y25965D01*
X33301D01*
X33346Y25919D01*
Y25873D01*
X33301Y25827D01*
X33346Y26102D02*
Y26194D01*
Y26148D01*
X33071D01*
X33117Y26102D01*
X33346Y26470D02*
X33071D01*
X33209Y26332D01*
Y26516D01*
X32992Y19318D02*
Y19226D01*
Y19272D01*
X33222D01*
X33268Y19226D01*
Y19180D01*
X33222Y19134D01*
X33268Y19409D02*
Y19501D01*
Y19455D01*
X32992D01*
X33038Y19409D01*
Y19639D02*
X32992Y19685D01*
Y19777D01*
X33038Y19823D01*
X33084D01*
X33130Y19777D01*
Y19731D01*
Y19777D01*
X33176Y19823D01*
X33222D01*
X33268Y19777D01*
Y19685D01*
X33222Y19639D01*
X31286Y16142D02*
X31194D01*
X31240D01*
Y15912D01*
X31194Y15866D01*
X31148D01*
X31102Y15912D01*
X31378Y15866D02*
X31470D01*
X31424D01*
Y16142D01*
X31378Y16096D01*
X31791Y15866D02*
X31607D01*
X31791Y16050D01*
Y16096D01*
X31745Y16142D01*
X31653D01*
X31607Y16096D01*
X24672Y16181D02*
X24580D01*
X24626D01*
Y15951D01*
X24580Y15906D01*
X24534D01*
X24488Y15951D01*
X24764Y15906D02*
X24856D01*
X24810D01*
Y16181D01*
X24764Y16135D01*
X24993Y15906D02*
X25085D01*
X25039D01*
Y16181D01*
X24993Y16135D01*
X17821Y16142D02*
X17730D01*
X17776D01*
Y15912D01*
X17730Y15866D01*
X17684D01*
X17638Y15912D01*
X17913Y15866D02*
X18005D01*
X17959D01*
Y16142D01*
X17913Y16096D01*
X18143D02*
X18189Y16142D01*
X18281D01*
X18327Y16096D01*
Y15912D01*
X18281Y15866D01*
X18189D01*
X18143Y15912D01*
Y16096D01*
X9004Y22856D02*
X8912D01*
X8958D01*
Y22626D01*
X8912Y22580D01*
X8866D01*
X8820Y22626D01*
X9096D02*
X9141Y22580D01*
X9233D01*
X9279Y22626D01*
Y22810D01*
X9233Y22856D01*
X9141D01*
X9096Y22810D01*
Y22764D01*
X9141Y22718D01*
X9279D01*
X27814Y42860D02*
X27768Y42906D01*
X27676D01*
X27630Y42860D01*
Y42676D01*
X27676Y42630D01*
X27768D01*
X27814Y42676D01*
X28089Y42630D02*
X27905D01*
X28089Y42814D01*
Y42860D01*
X28043Y42906D01*
X27951D01*
X27905Y42860D01*
X28614Y28890D02*
X28568Y28935D01*
X28476D01*
X28430Y28890D01*
Y28706D01*
X28476Y28660D01*
X28568D01*
X28614Y28706D01*
X28705Y28890D02*
X28751Y28935D01*
X28843D01*
X28889Y28890D01*
Y28844D01*
X28843Y28798D01*
X28797D01*
X28843D01*
X28889Y28752D01*
Y28706D01*
X28843Y28660D01*
X28751D01*
X28705Y28706D01*
X30978Y28478D02*
X31024Y28524D01*
Y28616D01*
X30978Y28661D01*
X30794D01*
X30748Y28616D01*
Y28524D01*
X30794Y28478D01*
X30748Y28386D02*
Y28294D01*
Y28340D01*
X31024D01*
X30978Y28386D01*
X15866Y27480D02*
X15682D01*
X15591Y27388D01*
X15682Y27297D01*
X15866D01*
Y27205D02*
Y27113D01*
Y27159D01*
X15591D01*
Y27205D01*
Y27113D01*
Y26975D02*
X15866D01*
X15591Y26792D01*
X15866D01*
X15591Y26332D02*
X15682Y26424D01*
X15774D01*
X15866Y26332D01*
X15591Y26195D02*
Y26103D01*
Y26149D01*
X15866D01*
X15820Y26195D01*
X13530Y45085D02*
Y45269D01*
X13484Y45315D01*
X13392D01*
X13346Y45269D01*
Y45085D01*
X13392Y45039D01*
X13484D01*
X13438Y45131D02*
X13530Y45039D01*
X13484D02*
X13530Y45085D01*
X13622Y45039D02*
X13714D01*
X13668D01*
Y45315D01*
X13622Y45269D01*
X14055Y46614D02*
Y46890D01*
X14193D01*
X14239Y46844D01*
Y46752D01*
X14193Y46706D01*
X14055D01*
X14147D02*
X14239Y46614D01*
X14331Y46660D02*
X14377Y46614D01*
X14468D01*
X14514Y46660D01*
Y46844D01*
X14468Y46890D01*
X14377D01*
X14331Y46844D01*
Y46798D01*
X14377Y46752D01*
X14514D01*
X18032Y27795D02*
Y28071D01*
X18169D01*
X18215Y28025D01*
Y27933D01*
X18169Y27887D01*
X18032D01*
X18123D02*
X18215Y27795D01*
X18307D02*
X18399D01*
X18353D01*
Y28071D01*
X18307Y28025D01*
X18537D02*
X18583Y28071D01*
X18674D01*
X18720Y28025D01*
Y27979D01*
X18674Y27933D01*
X18628D01*
X18674D01*
X18720Y27887D01*
Y27841D01*
X18674Y27795D01*
X18583D01*
X18537Y27841D01*
X11772Y44528D02*
Y44803D01*
X11909D01*
X11955Y44757D01*
Y44665D01*
X11909Y44619D01*
X11772D01*
X11863D02*
X11955Y44528D01*
X12047D02*
X12139D01*
X12093D01*
Y44803D01*
X12047Y44757D01*
X12414Y44528D02*
Y44803D01*
X12277Y44665D01*
X12460D01*
X12710Y48650D02*
Y48925D01*
X12848D01*
X12894Y48880D01*
Y48788D01*
X12848Y48742D01*
X12710D01*
X12802D02*
X12894Y48650D01*
X12986D02*
X13077D01*
X13031D01*
Y48925D01*
X12986Y48880D01*
X13399Y48925D02*
X13215D01*
Y48788D01*
X13307Y48834D01*
X13353D01*
X13399Y48788D01*
Y48696D01*
X13353Y48650D01*
X13261D01*
X13215Y48696D01*
X14409Y27480D02*
X14226D01*
X14134Y27388D01*
X14226Y27297D01*
X14409D01*
X14134Y27205D02*
Y27113D01*
Y27159D01*
X14318D01*
Y27205D01*
X14134Y26975D02*
X14318D01*
Y26837D01*
X14272Y26792D01*
X14134D01*
X14272Y26424D02*
Y26241D01*
X14363Y26332D02*
X14180D01*
X14449Y25039D02*
X14265D01*
X14173Y24948D01*
X14265Y24856D01*
X14449D01*
X14173Y24764D02*
Y24672D01*
Y24718D01*
X14357D01*
Y24764D01*
X14173Y24534D02*
X14357D01*
Y24397D01*
X14311Y24351D01*
X14173D01*
X14311Y23983D02*
Y23800D01*
Y30630D02*
Y30446D01*
X14272Y32835D02*
Y32651D01*
X14363Y32743D02*
X14180D01*
X14114Y37638D02*
Y37454D01*
X14206Y37546D02*
X14022D01*
X14153Y35433D02*
Y35249D01*
X13917Y42598D02*
Y42415D01*
X14009Y42507D02*
X13825D01*
X13957Y40394D02*
Y40210D01*
X35295Y40079D02*
Y40262D01*
X35203Y40171D02*
X35387D01*
X35256Y42283D02*
Y42467D01*
X35217Y35118D02*
Y35302D01*
X35125Y35210D02*
X35308D01*
X35177Y37323D02*
Y37506D01*
X35217Y30354D02*
Y30538D01*
X35125Y30446D02*
X35308D01*
X35177Y32559D02*
Y32743D01*
M02*
