M48
;Layer_Color=6321
;FILE_FORMAT=2:4
INCH,TZ
;TYPE=PLATED
T1F00S00C0.0280
T2F00S00C0.0300
T3F00S00C0.0315
T4F00S00C0.0472
T5F00S00C0.1220
T6F00S00C0.1260
T7F00S00C0.1280
%
T01
X16476Y11998
X20505Y11447
X21590Y12657
X22920Y14560
X24800Y15380
X19290Y21450
T02
X15140Y13667
Y14667
X18140Y13667
X19140
X20140
Y14667
X18640Y14167
X20140Y15667
Y16667
Y17667
Y18667
Y19667
Y20667
X15140
Y19667
Y18667
Y17667
Y16667
Y15667
T03
X16150Y22073
X17150
X18150
X18650Y23073
X17650
X16650
X15650
X21746Y20693
Y19693
Y18693
X22746Y19189
Y20189
Y21189
X15150Y22073
T04
X11240Y14646
Y16024
Y17402
Y18780
T05
X12067Y12067
X24272
Y24272
X12067
T06
X19163Y25573
X14636
T07
X25246Y17941
Y21941
M30
