G04*
G04 #@! TF.GenerationSoftware,Altium Limited,CircuitMaker,2.2.0 (2.2.0.5)*
G04*
G04 Layer_Color=20142*
%FSLAX25Y25*%
%MOIN*%
G70*
G04*
G04 #@! TF.SameCoordinates,9A8D6191-CA6A-4FCB-8608-DBD58737C46A*
G04*
G04*
G04 #@! TF.FilePolarity,Negative*
G04*
G01*
G75*
%ADD23R,0.04934X0.04737*%
%ADD24R,0.04147X0.04147*%
%ADD25R,0.05328X0.04934*%
%ADD26R,0.04343X0.04934*%
%ADD27R,0.05603X0.04383*%
%ADD28R,0.05131X0.06706*%
%ADD29R,0.05131X0.06706*%
%ADD30R,0.05131X0.06706*%
%ADD31C,0.06800*%
%ADD32C,0.00800*%
%ADD33O,0.05524X0.09461*%
%ADD34C,0.15367*%
%ADD35C,0.05524*%
%ADD36C,0.13005*%
D23*
X196457Y105217D02*
D03*
X190551D02*
D03*
X207677Y122146D02*
D03*
X201772D02*
D03*
X217126Y108071D02*
D03*
X211220D02*
D03*
D24*
X106299Y129134D02*
D03*
Y122835D02*
D03*
Y211811D02*
D03*
X106201Y205512D02*
D03*
D25*
X121161Y105906D02*
D03*
X114665D02*
D03*
D26*
X107579Y226575D02*
D03*
X112894D02*
D03*
D27*
X215846Y169843D02*
D03*
Y156929D02*
D03*
D28*
X229921Y168110D02*
D03*
X249921D02*
D03*
X239921D02*
D03*
D29*
X249921Y133071D02*
D03*
X239921D02*
D03*
D30*
X229921D02*
D03*
D31*
X151398Y206673D02*
D03*
Y196673D02*
D03*
Y186673D02*
D03*
Y176673D02*
D03*
Y166673D02*
D03*
Y156673D02*
D03*
Y146673D02*
D03*
Y136673D02*
D03*
X201398D02*
D03*
Y146673D02*
D03*
Y156673D02*
D03*
Y166673D02*
D03*
Y176673D02*
D03*
Y186673D02*
D03*
Y196673D02*
D03*
Y206673D02*
D03*
X191398Y136673D02*
D03*
X181398D02*
D03*
X186398Y141673D02*
D03*
X112402Y146457D02*
D03*
Y160236D02*
D03*
Y174016D02*
D03*
Y187795D02*
D03*
X227461Y191890D02*
D03*
X217461Y186929D02*
D03*
X227461Y201890D02*
D03*
X217461Y196929D02*
D03*
X227461Y211890D02*
D03*
X217461Y206929D02*
D03*
D32*
X252461Y179409D02*
D03*
Y219409D02*
D03*
D33*
X181496Y220728D02*
D03*
X171496D02*
D03*
X151496D02*
D03*
X161496D02*
D03*
X156496Y230728D02*
D03*
X166496D02*
D03*
X186496D02*
D03*
X176496D02*
D03*
D34*
X146358Y255728D02*
D03*
X191634D02*
D03*
D35*
X164764Y119980D02*
D03*
X215900Y126575D02*
D03*
X192900Y214500D02*
D03*
X205046Y114469D02*
D03*
X229200Y145600D02*
D03*
X248000Y153800D02*
D03*
D36*
X120669Y120669D02*
D03*
X242717D02*
D03*
X120669Y242717D02*
D03*
X242717D02*
D03*
M02*
