G04*
G04 #@! TF.GenerationSoftware,Altium Limited,CircuitMaker,2.2.0 (2.2.0.5)*
G04*
G04 Layer_Color=2752767*
%FSLAX25Y25*%
%MOIN*%
G70*
G04*
G04 #@! TF.SameCoordinates,9A8D6191-CA6A-4FCB-8608-DBD58737C46A*
G04*
G04*
G04 #@! TF.FilePolarity,Positive*
G04*
G01*
G75*
%ADD66C,0.00200*%
%ADD67C,0.00267*%
D66*
X150598Y205873D02*
Y207473D01*
X152198D01*
Y205873D01*
X150598D01*
Y195873D02*
Y197473D01*
X152198D01*
Y195873D01*
X150598D01*
Y185873D02*
Y187473D01*
X152198D01*
Y185873D01*
X150598D01*
Y175873D02*
Y177473D01*
X152198D01*
Y175873D01*
X150598D01*
Y165873D02*
Y167473D01*
X152198D01*
Y165873D01*
X150598D01*
Y155873D02*
Y157473D01*
X152198D01*
Y155873D01*
X150598D01*
Y145873D02*
Y147473D01*
X152198D01*
Y145873D01*
X150598D01*
Y135873D02*
Y137473D01*
X152198D01*
Y135873D01*
X150598D01*
X200598D02*
Y137473D01*
X202198D01*
Y135873D01*
X200598D01*
Y145873D02*
Y147473D01*
X202198D01*
Y145873D01*
X200598D01*
Y155873D02*
Y157473D01*
X202198D01*
Y155873D01*
X200598D01*
Y165873D02*
Y167473D01*
X202198D01*
Y165873D01*
X200598D01*
Y175873D02*
Y177473D01*
X202198D01*
Y175873D01*
X200598D01*
Y185873D02*
Y187473D01*
X202198D01*
Y185873D01*
X200598D01*
Y195873D02*
Y197473D01*
X202198D01*
Y195873D01*
X200598D01*
Y205873D02*
Y207473D01*
X202198D01*
Y205873D01*
X200598D01*
X190598Y135873D02*
Y137473D01*
X192198D01*
Y135873D01*
X190598D01*
X180598D02*
Y137473D01*
X182198D01*
Y135873D01*
X180598D01*
X185598Y140873D02*
Y142473D01*
X187198D01*
Y140873D01*
X185598D01*
X252461Y178609D02*
X251661Y180209D01*
X253261D01*
X252461Y178609D01*
X227461Y191090D02*
X227861Y191490D01*
X228261D01*
X227861Y191890D01*
X228261Y192290D01*
X227861D01*
X227461Y192690D01*
X227061Y192290D01*
X226661D01*
X227061Y191890D01*
X226661Y191490D01*
X227061D01*
X227461Y191090D01*
X217461Y186129D02*
X217861Y186529D01*
X218261D01*
X217861Y186929D01*
X218261Y187329D01*
X217861D01*
X217461Y187729D01*
X217061Y187329D01*
X216661D01*
X217061Y186929D01*
X216661Y186529D01*
X217061D01*
X217461Y186129D01*
X227461Y201090D02*
X227861Y201490D01*
X228261D01*
X227861Y201890D01*
X228261Y202290D01*
X227861D01*
X227461Y202690D01*
X227061Y202290D01*
X226661D01*
X227061Y201890D01*
X226661Y201490D01*
X227061D01*
X227461Y201090D01*
X217461Y196129D02*
X217861Y196529D01*
X218261D01*
X217861Y196929D01*
X218261Y197329D01*
X217861D01*
X217461Y197729D01*
X217061Y197329D01*
X216661D01*
X217061Y196929D01*
X216661Y196529D01*
X217061D01*
X217461Y196129D01*
X227461Y211090D02*
X227861Y211490D01*
X228261D01*
X227861Y211890D01*
X228261Y212290D01*
X227861D01*
X227461Y212690D01*
X227061Y212290D01*
X226661D01*
X227061Y211890D01*
X226661Y211490D01*
X227061D01*
X227461Y211090D01*
X217461Y206129D02*
X217861Y206529D01*
X218261D01*
X217861Y206929D01*
X218261Y207329D01*
X217861D01*
X217461Y207729D01*
X217061Y207329D01*
X216661D01*
X217061Y206929D01*
X216661Y206529D01*
X217061D01*
X217461Y206129D01*
X252461Y218609D02*
X251661Y220209D01*
X253261D01*
X252461Y218609D01*
X181496Y219928D02*
X181896Y220328D01*
X182296D01*
X181896Y220728D01*
X182296Y221128D01*
X181896D01*
X181496Y221528D01*
X181096Y221128D01*
X180696D01*
X181096Y220728D01*
X180696Y220328D01*
X181096D01*
X181496Y219928D01*
X171496D02*
X171896Y220328D01*
X172296D01*
X171896Y220728D01*
X172296Y221128D01*
X171896D01*
X171496Y221528D01*
X171096Y221128D01*
X170696D01*
X171096Y220728D01*
X170696Y220328D01*
X171096D01*
X171496Y219928D01*
X151496D02*
X151896Y220328D01*
X152296D01*
X151896Y220728D01*
X152296Y221128D01*
X151896D01*
X151496Y221528D01*
X151096Y221128D01*
X150696D01*
X151096Y220728D01*
X150696Y220328D01*
X151096D01*
X151496Y219928D01*
X161496D02*
X161896Y220328D01*
X162296D01*
X161896Y220728D01*
X162296Y221128D01*
X161896D01*
X161496Y221528D01*
X161096Y221128D01*
X160696D01*
X161096Y220728D01*
X160696Y220328D01*
X161096D01*
X161496Y219928D01*
X156496Y229928D02*
X156896Y230328D01*
X157296D01*
X156896Y230728D01*
X157296Y231128D01*
X156896D01*
X156496Y231528D01*
X156096Y231128D01*
X155696D01*
X156096Y230728D01*
X155696Y230328D01*
X156096D01*
X156496Y229928D01*
X166496D02*
X166896Y230328D01*
X167296D01*
X166896Y230728D01*
X167296Y231128D01*
X166896D01*
X166496Y231528D01*
X166096Y231128D01*
X165696D01*
X166096Y230728D01*
X165696Y230328D01*
X166096D01*
X166496Y229928D01*
X186496D02*
X186896Y230328D01*
X187296D01*
X186896Y230728D01*
X187296Y231128D01*
X186896D01*
X186496Y231528D01*
X186096Y231128D01*
X185696D01*
X186096Y230728D01*
X185696Y230328D01*
X186096D01*
X186496Y229928D01*
X176496D02*
X176896Y230328D01*
X177296D01*
X176896Y230728D01*
X177296Y231128D01*
X176896D01*
X176496Y231528D01*
X176096Y231128D01*
X175696D01*
X176096Y230728D01*
X175696Y230328D01*
X176096D01*
X176496Y229928D01*
X145558Y254928D02*
X145958Y255728D01*
X145558Y256528D01*
X146358Y256128D01*
X147158Y256528D01*
X146758Y255728D01*
X147158Y254928D01*
X146358Y255328D01*
X145558Y254928D01*
X190834D02*
X191234Y255728D01*
X190834Y256528D01*
X191634Y256128D01*
X192434Y256528D01*
X192034Y255728D01*
X192434Y254928D01*
X191634Y255328D01*
X190834Y254928D01*
X164364Y119580D02*
Y119180D01*
X165164D01*
Y119580D01*
X165564D01*
Y120380D01*
X165164D01*
Y120780D01*
X164364D01*
Y120380D01*
X163964D01*
Y119580D01*
X164364D01*
X215500Y126175D02*
Y125775D01*
X216300D01*
Y126175D01*
X216700D01*
Y126975D01*
X216300D01*
Y127375D01*
X215500D01*
Y126975D01*
X215100D01*
Y126175D01*
X215500D01*
X192500Y214100D02*
Y213700D01*
X193300D01*
Y214100D01*
X193700D01*
Y214900D01*
X193300D01*
Y215300D01*
X192500D01*
Y214900D01*
X192100D01*
Y214100D01*
X192500D01*
X204646Y114069D02*
Y113669D01*
X205446D01*
Y114069D01*
X205846D01*
Y114869D01*
X205446D01*
Y115269D01*
X204646D01*
Y114869D01*
X204246D01*
Y114069D01*
X204646D01*
X228800Y145200D02*
Y144800D01*
X229600D01*
Y145200D01*
X230000D01*
Y146000D01*
X229600D01*
Y146400D01*
X228800D01*
Y146000D01*
X228400D01*
Y145200D01*
X228800D01*
X247600Y153400D02*
Y153000D01*
X248400D01*
Y153400D01*
X248800D01*
Y154200D01*
X248400D01*
Y154600D01*
X247600D01*
Y154200D01*
X247200D01*
Y153400D01*
X247600D01*
X119869Y119869D02*
X120269D01*
X120669Y120269D01*
X121069Y119869D01*
X121469D01*
Y120269D01*
X121069Y120669D01*
X121469Y121069D01*
Y121469D01*
X121069D01*
X120669Y121069D01*
X120269Y121469D01*
X119869D01*
Y121069D01*
X120269Y120669D01*
X119869Y120269D01*
Y119869D01*
X241917D02*
X242317D01*
X242717Y120269D01*
X243117Y119869D01*
X243517D01*
Y120269D01*
X243117Y120669D01*
X243517Y121069D01*
Y121469D01*
X243117D01*
X242717Y121069D01*
X242317Y121469D01*
X241917D01*
Y121069D01*
X242317Y120669D01*
X241917Y120269D01*
Y119869D01*
X119869Y241917D02*
X120269D01*
X120669Y242317D01*
X121069Y241917D01*
X121469D01*
Y242317D01*
X121069Y242717D01*
X121469Y243117D01*
Y243517D01*
X121069D01*
X120669Y243117D01*
X120269Y243517D01*
X119869D01*
Y243117D01*
X120269Y242717D01*
X119869Y242317D01*
Y241917D01*
X241917D02*
X242317D01*
X242717Y242317D01*
X243117Y241917D01*
X243517D01*
Y242317D01*
X243117Y242717D01*
X243517Y243117D01*
Y243517D01*
X243117D01*
X242717Y243117D01*
X242317Y243517D01*
X241917D01*
Y243117D01*
X242317Y242717D01*
X241917Y242317D01*
Y241917D01*
D67*
X113202Y146457D02*
G03*
X113202Y146457I-800J0D01*
G01*
Y160236D02*
G03*
X113202Y160236I-800J0D01*
G01*
Y174016D02*
G03*
X113202Y174016I-800J0D01*
G01*
Y187795D02*
G03*
X113202Y187795I-800J0D01*
G01*
M02*
