G04*
G04 #@! TF.GenerationSoftware,Altium Limited,CircuitMaker,2.2.0 (2.2.0.5)*
G04*
G04 Layer_Color=128*
%FSLAX25Y25*%
%MOIN*%
G70*
G04*
G04 #@! TF.SameCoordinates,9A8D6191-CA6A-4FCB-8608-DBD58737C46A*
G04*
G04*
G04 #@! TF.FilePolarity,Positive*
G04*
G01*
G75*
%ADD66C,0.00200*%
D66*
X149898Y206673D02*
X152898D01*
X151398Y205173D02*
Y208173D01*
X149898Y196673D02*
X152898D01*
X151398Y195173D02*
Y198173D01*
X149898Y186673D02*
X152898D01*
X151398Y185173D02*
Y188173D01*
X149898Y176673D02*
X152898D01*
X151398Y175173D02*
Y178173D01*
X149898Y166673D02*
X152898D01*
X151398Y165173D02*
Y168173D01*
X149898Y156673D02*
X152898D01*
X151398Y155173D02*
Y158173D01*
X149898Y146673D02*
X152898D01*
X151398Y145173D02*
Y148173D01*
X149898Y136673D02*
X152898D01*
X151398Y135173D02*
Y138173D01*
X199898Y136673D02*
X202898D01*
X201398Y135173D02*
Y138173D01*
X199898Y146673D02*
X202898D01*
X201398Y145173D02*
Y148173D01*
X199898Y156673D02*
X202898D01*
X201398Y155173D02*
Y158173D01*
X199898Y166673D02*
X202898D01*
X201398Y165173D02*
Y168173D01*
X199898Y176673D02*
X202898D01*
X201398Y175173D02*
Y178173D01*
X199898Y186673D02*
X202898D01*
X201398Y185173D02*
Y188173D01*
X199898Y196673D02*
X202898D01*
X201398Y195173D02*
Y198173D01*
X199898Y206673D02*
X202898D01*
X201398Y205173D02*
Y208173D01*
X189898Y136673D02*
X192898D01*
X191398Y135173D02*
Y138173D01*
X179898Y136673D02*
X182898D01*
X181398Y135173D02*
Y138173D01*
X184898Y141673D02*
X187898D01*
X186398Y140173D02*
Y143173D01*
X110039Y146457D02*
X114764D01*
X112402Y144094D02*
Y148819D01*
X110039Y160236D02*
X114764D01*
X112402Y157874D02*
Y162598D01*
X110039Y174016D02*
X114764D01*
X112402Y171654D02*
Y176378D01*
X110039Y187795D02*
X114764D01*
X112402Y185433D02*
Y190157D01*
X246063Y179409D02*
X258858D01*
X252461Y173012D02*
Y185807D01*
X225886Y191890D02*
X229035D01*
X227461Y190315D02*
Y193465D01*
X215886Y186929D02*
X219035D01*
X217461Y185354D02*
Y188504D01*
X225886Y201890D02*
X229035D01*
X227461Y200315D02*
Y203465D01*
X215886Y196929D02*
X219035D01*
X217461Y195354D02*
Y198504D01*
X225886Y211890D02*
X229035D01*
X227461Y210315D02*
Y213465D01*
X215886Y206929D02*
X219035D01*
X217461Y205354D02*
Y208504D01*
X246063Y219409D02*
X258858D01*
X252461Y213012D02*
Y225807D01*
X179921Y220728D02*
X183071D01*
X181496Y219154D02*
Y222303D01*
X169921Y220728D02*
X173071D01*
X171496Y219154D02*
Y222303D01*
X149921Y220728D02*
X153071D01*
X151496Y219154D02*
Y222303D01*
X159921Y220728D02*
X163071D01*
X161496Y219154D02*
Y222303D01*
X154921Y230728D02*
X158071D01*
X156496Y229154D02*
Y232303D01*
X164921Y230728D02*
X168071D01*
X166496Y229154D02*
Y232303D01*
X184921Y230728D02*
X188071D01*
X186496Y229154D02*
Y232303D01*
X174921Y230728D02*
X178071D01*
X176496Y229154D02*
Y232303D01*
X140059Y255728D02*
X152657D01*
X146358Y249429D02*
Y262028D01*
X185335Y255728D02*
X197933D01*
X191634Y249429D02*
Y262028D01*
X163364Y119980D02*
X166163D01*
X164764Y118581D02*
Y121380D01*
X214500Y126575D02*
X217300D01*
X215900Y125175D02*
Y127974D01*
X191500Y214500D02*
X194300D01*
X192900Y213100D02*
Y215900D01*
X203646Y114469D02*
X206445D01*
X205046Y113069D02*
Y115868D01*
X227800Y145600D02*
X230600D01*
X229200Y144200D02*
Y147000D01*
X246600Y153800D02*
X249400D01*
X248000Y152400D02*
Y155200D01*
X114567Y120669D02*
X126772D01*
X120669Y114567D02*
Y126772D01*
X236614Y120669D02*
X248819D01*
X242717Y114567D02*
Y126772D01*
X114567Y242717D02*
X126772D01*
X120669Y236614D02*
Y248819D01*
X236614Y242717D02*
X248819D01*
X242717Y236614D02*
Y248819D01*
M02*
