G04*
G04 #@! TF.GenerationSoftware,Altium Limited,CircuitMaker,2.2.0 (2.2.0.5)*
G04*
G04 Layer_Color=8150272*
%FSLAX25Y25*%
%MOIN*%
G70*
G04*
G04 #@! TF.SameCoordinates,9A8D6191-CA6A-4FCB-8608-DBD58737C46A*
G04*
G04*
G04 #@! TF.FilePolarity,Negative*
G04*
G01*
G75*
%ADD31C,0.06800*%
%ADD32C,0.00800*%
%ADD33O,0.05524X0.09461*%
%ADD34C,0.15367*%
%ADD35C,0.05524*%
%ADD36C,0.13005*%
%ADD57R,0.04882X0.02913*%
%ADD58R,0.04737X0.07493*%
%ADD59R,0.08674X0.03950*%
%ADD60R,0.05918X0.04343*%
%ADD61R,0.05721X0.06902*%
%ADD62R,0.04383X0.05603*%
%ADD63O,0.06312X0.02178*%
%ADD64R,0.04540X0.04147*%
D31*
X151398Y206673D02*
D03*
Y196673D02*
D03*
Y186673D02*
D03*
Y176673D02*
D03*
Y166673D02*
D03*
Y156673D02*
D03*
Y146673D02*
D03*
Y136673D02*
D03*
X201398D02*
D03*
Y146673D02*
D03*
Y156673D02*
D03*
Y166673D02*
D03*
Y176673D02*
D03*
Y186673D02*
D03*
Y196673D02*
D03*
Y206673D02*
D03*
X191398Y136673D02*
D03*
X181398D02*
D03*
X186398Y141673D02*
D03*
X112402Y146457D02*
D03*
Y160236D02*
D03*
Y174016D02*
D03*
Y187795D02*
D03*
X227461Y191890D02*
D03*
X217461Y186929D02*
D03*
X227461Y201890D02*
D03*
X217461Y196929D02*
D03*
X227461Y211890D02*
D03*
X217461Y206929D02*
D03*
D32*
X252461Y179409D02*
D03*
Y219409D02*
D03*
D33*
X181496Y220728D02*
D03*
X171496D02*
D03*
X151496D02*
D03*
X161496D02*
D03*
X156496Y230728D02*
D03*
X166496D02*
D03*
X186496D02*
D03*
X176496D02*
D03*
D34*
X146358Y255728D02*
D03*
X191634D02*
D03*
D35*
X164764Y119980D02*
D03*
X215900Y126575D02*
D03*
X192900Y214500D02*
D03*
X205046Y114469D02*
D03*
X229200Y145600D02*
D03*
X248000Y153800D02*
D03*
D36*
X120669Y120669D02*
D03*
X242717D02*
D03*
X120669Y242717D02*
D03*
X242717D02*
D03*
D57*
X154331Y111614D02*
D03*
X164961Y115354D02*
D03*
Y111614D02*
D03*
Y107874D02*
D03*
X154331D02*
D03*
Y115354D02*
D03*
D58*
X168651Y136673D02*
D03*
X157746D02*
D03*
X136228Y110138D02*
D03*
X147134D02*
D03*
X182567Y201772D02*
D03*
X171661D02*
D03*
D59*
X156299Y120669D02*
D03*
Y129331D02*
D03*
D60*
X147343Y118405D02*
D03*
Y125886D02*
D03*
D61*
X183425Y106299D02*
D03*
X175354D02*
D03*
X202785Y104774D02*
D03*
X194715D02*
D03*
D62*
X166476Y126575D02*
D03*
X179390D02*
D03*
D63*
X191437Y191535D02*
D03*
Y188976D02*
D03*
Y186417D02*
D03*
Y183858D02*
D03*
Y181299D02*
D03*
Y178740D02*
D03*
Y176181D02*
D03*
X169390Y191535D02*
D03*
Y188976D02*
D03*
Y186417D02*
D03*
Y183858D02*
D03*
Y181299D02*
D03*
Y178740D02*
D03*
Y176181D02*
D03*
D64*
X179626Y114469D02*
D03*
Y119783D02*
D03*
M02*
