G04*
G04 #@! TF.GenerationSoftware,Altium Limited,CircuitMaker,2.2.0 (2.2.0.5)*
G04*
G04 Layer_Color=15132400*
%FSLAX25Y25*%
%MOIN*%
G70*
G04*
G04 #@! TF.SameCoordinates,9A8D6191-CA6A-4FCB-8608-DBD58737C46A*
G04*
G04*
G04 #@! TF.FilePolarity,Positive*
G04*
G01*
G75*
%ADD10C,0.00787*%
%ADD11C,0.01000*%
%ADD12C,0.00394*%
%ADD13C,0.01181*%
%ADD14C,0.00591*%
D10*
X103549Y119234D02*
X109049D01*
X103549D02*
X104299Y118484D01*
X108299D01*
X109055Y119240D01*
X103543D02*
X104299Y118484D01*
X103543Y119240D02*
Y122228D01*
Y119984D02*
X109055D01*
Y119240D02*
Y121728D01*
Y131984D01*
X103543D02*
X109055D01*
X103543Y122228D02*
Y131984D01*
X103549Y201911D02*
X109049D01*
X103549D02*
X104299Y201161D01*
X108299D01*
X109055Y201917D01*
X103543D02*
X104299Y201161D01*
X103543Y201917D02*
Y204906D01*
Y202661D02*
X109055D01*
Y201917D02*
Y204406D01*
Y214661D01*
X103543D02*
X109055D01*
X103543Y204906D02*
Y214661D01*
D11*
X98228Y137402D02*
X125787D01*
X98228Y196850D02*
X125787D01*
X98228Y137402D02*
Y196850D01*
X125787Y137402D02*
Y196850D01*
X265232Y175681D02*
Y223138D01*
X264945Y223425D02*
X265232Y223138D01*
X212461Y223425D02*
X264945D01*
Y175394D02*
X265232Y175681D01*
X212461Y175394D02*
X264945D01*
X262083Y213976D02*
X265232Y217126D01*
X262083Y184843D02*
X265232Y181693D01*
X262083Y184843D02*
Y213976D01*
X212461Y175394D02*
Y223425D01*
X212346Y160386D02*
X219346D01*
Y161386D01*
X212346D02*
X219346D01*
X212346Y160386D02*
Y161386D01*
X229921Y138583D02*
X254421D01*
X225984Y162598D02*
X254421D01*
X225984Y142913D02*
Y162598D01*
Y142913D02*
X229921Y138583D01*
X254421D02*
Y162598D01*
D12*
X227461Y186870D02*
Y216870D01*
X222232Y191886D02*
X232075D01*
X222339Y201898D02*
X232181D01*
X222339Y212028D02*
X232181D01*
X212339Y207067D02*
X222181D01*
X212339Y196937D02*
X222181D01*
X212232Y186925D02*
X222075D01*
X217461Y181909D02*
Y211909D01*
X252854Y168701D02*
Y180906D01*
Y217520D02*
Y229724D01*
X228346Y148032D02*
X231496D01*
X228346Y155906D02*
X231496D01*
X228346Y148032D02*
Y155906D01*
X231496Y148032D02*
Y155906D01*
X228346Y153150D02*
X231496D01*
X238346Y148071D02*
X241496D01*
X238346Y155945D02*
X241496D01*
X238346Y148071D02*
Y155945D01*
X241496Y148071D02*
Y155945D01*
X238346Y153189D02*
X241496D01*
X248346Y148071D02*
X251496D01*
X248346Y155945D02*
X251496D01*
X248346Y148071D02*
Y155945D01*
X251496Y148071D02*
Y155945D01*
X248346Y153189D02*
X251496D01*
X119595Y145418D02*
X122350D01*
X120972Y146795D01*
Y144959D01*
X121390Y160295D02*
X121850Y159836D01*
Y158918D01*
X121390Y158459D01*
X120931D01*
X120472Y158918D01*
Y159377D01*
Y158918D01*
X120013Y158459D01*
X119554D01*
X119095Y158918D01*
Y159836D01*
X119554Y160295D01*
X119095Y173459D02*
Y175295D01*
X120931Y173459D01*
X121390D01*
X121850Y173918D01*
Y174836D01*
X121390Y175295D01*
X119095Y187795D02*
Y186877D01*
Y187336D01*
X121850D01*
X121390Y187795D01*
X101901Y172835D02*
X104657D01*
X103279Y174213D01*
Y172376D01*
X101901Y171458D02*
X104657D01*
Y170080D01*
X104197Y169621D01*
X103279D01*
X102820Y170080D01*
Y171458D01*
X104657Y168702D02*
Y166866D01*
Y167784D01*
X101901D01*
X104657Y165947D02*
X101901D01*
Y164570D01*
X102361Y164111D01*
X102820D01*
X103279Y164570D01*
Y165947D01*
Y164570D01*
X103738Y164111D01*
X104197D01*
X104657Y164570D01*
Y165947D01*
X229528Y142126D02*
X230446D01*
X229987D01*
Y144881D01*
X229528Y144422D01*
X240313Y142126D02*
X238476D01*
X240313Y143963D01*
Y144422D01*
X239854Y144881D01*
X238936D01*
X238476Y144422D01*
X229724Y160235D02*
X228806D01*
X228346Y159776D01*
Y157940D01*
X228806Y157480D01*
X229724D01*
X230183Y157940D01*
Y159776D01*
X229724Y160235D01*
X231101Y157480D02*
Y160235D01*
X232938Y157480D01*
Y160235D01*
X248713Y144422D02*
X249172Y144881D01*
X250090D01*
X250549Y144422D01*
Y143963D01*
X250090Y143503D01*
X249631D01*
X250090D01*
X250549Y143044D01*
Y142585D01*
X250090Y142126D01*
X249172D01*
X248713Y142585D01*
D13*
X137500Y214370D02*
X200492D01*
X137500D02*
Y248327D01*
X200492Y246358D02*
Y248327D01*
Y214370D02*
Y246358D01*
D14*
X138090Y206987D02*
X137598Y207479D01*
X136614D01*
X136122Y206987D01*
Y205019D01*
X136614Y204528D01*
X137598D01*
X138090Y205019D01*
Y206003D01*
X137106D01*
X139074Y204528D02*
Y207479D01*
X141042Y204528D01*
Y207479D01*
X142026D02*
Y204528D01*
X143502D01*
X143993Y205019D01*
Y206987D01*
X143502Y207479D01*
X142026D01*
X135827Y198030D02*
Y196063D01*
X136811Y195079D01*
X137795Y196063D01*
Y198030D01*
X138779Y195079D02*
X139762D01*
X139271D01*
Y197047D01*
X138779D01*
X141730Y195079D02*
X142714D01*
X143206Y195571D01*
Y196555D01*
X142714Y197047D01*
X141730D01*
X141238Y196555D01*
Y195571D01*
X141730Y195079D01*
X137500Y138385D02*
Y136417D01*
X138484Y135433D01*
X139468Y136417D01*
Y138385D01*
X140452Y135433D02*
X141436D01*
X140944D01*
Y137401D01*
X140452D01*
X142912Y135433D02*
Y137401D01*
X144388D01*
X144879Y136909D01*
Y135433D01*
X251377Y126574D02*
X250885Y127066D01*
X249901D01*
X249410Y126574D01*
Y126082D01*
X249901Y125590D01*
X250885D01*
X251377Y125098D01*
Y124606D01*
X250885Y124114D01*
X249901D01*
X249410Y124606D01*
X252361Y124114D02*
Y127066D01*
X253837D01*
X254329Y126574D01*
Y125590D01*
X253837Y125098D01*
X252361D01*
X255313Y124114D02*
Y127066D01*
X256789D01*
X257281Y126574D01*
Y125590D01*
X256789Y125098D01*
X255313D01*
X256297D02*
X257281Y124114D01*
X258265Y127066D02*
Y124114D01*
X259741D01*
X260233Y124606D01*
Y126574D01*
X259741Y127066D01*
X258265D01*
X219882Y124311D02*
Y127263D01*
X220866Y126279D01*
X221850Y127263D01*
Y124311D01*
X224802Y126771D02*
X224310Y127263D01*
X223326D01*
X222834Y126771D01*
Y126279D01*
X223326Y125787D01*
X224310D01*
X224802Y125295D01*
Y124803D01*
X224310Y124311D01*
X223326D01*
X222834Y124803D01*
X225785Y124311D02*
X226769D01*
X226277D01*
Y127263D01*
X225785Y126771D01*
X234055Y108858D02*
Y111810D01*
X235039Y110826D01*
X236023Y111810D01*
Y108858D01*
X238975Y111318D02*
X238483Y111810D01*
X237499D01*
X237007Y111318D01*
Y110826D01*
X237499Y110334D01*
X238483D01*
X238975Y109842D01*
Y109350D01*
X238483Y108858D01*
X237499D01*
X237007Y109350D01*
X241927Y108858D02*
X239959D01*
X241927Y110826D01*
Y111318D01*
X241435Y111810D01*
X240451D01*
X239959Y111318D01*
X217520Y133661D02*
Y135629D01*
X218996Y136613D02*
X217520Y138089D01*
X216044Y136613D01*
Y143501D02*
Y142517D01*
X216536Y142025D01*
X218504D01*
X218996Y142517D01*
Y143501D01*
X218504Y143993D01*
X216536D01*
X216044Y143501D01*
X218996Y144977D02*
X217028D01*
Y146453D01*
X217520Y146945D01*
X218996D01*
X193012Y109449D02*
Y112401D01*
X194488D01*
X194980Y111909D01*
Y110925D01*
X194488Y110433D01*
X193012D01*
X193996D02*
X194980Y109449D01*
X195964Y109941D02*
X196456Y109449D01*
X197440D01*
X197932Y109941D01*
Y111909D01*
X197440Y112401D01*
X196456D01*
X195964Y111909D01*
Y111417D01*
X196456Y110925D01*
X197932D01*
X206102Y125689D02*
Y128641D01*
X207578D01*
X208070Y128149D01*
Y127165D01*
X207578Y126673D01*
X206102D01*
X207086D02*
X208070Y125689D01*
X209054Y128641D02*
X211022D01*
Y128149D01*
X209054Y126181D01*
Y125689D01*
X215158Y111417D02*
Y114369D01*
X216633D01*
X217125Y113877D01*
Y112893D01*
X216633Y112401D01*
X215158D01*
X216141D02*
X217125Y111417D01*
X218109Y113877D02*
X218601Y114369D01*
X219585D01*
X220077Y113877D01*
Y113385D01*
X219585Y112893D01*
X220077Y112401D01*
Y111909D01*
X219585Y111417D01*
X218601D01*
X218109Y111909D01*
Y112401D01*
X218601Y112893D01*
X218109Y113385D01*
Y113877D01*
X218601Y112893D02*
X219585D01*
X112402Y110138D02*
Y113090D01*
X113877D01*
X114369Y112598D01*
Y111614D01*
X113877Y111122D01*
X112402D01*
X113385D02*
X114369Y110138D01*
X117321D02*
X115353D01*
X117321Y112106D01*
Y112598D01*
X116829Y113090D01*
X115845D01*
X115353Y112598D01*
X118305D02*
X118797Y113090D01*
X119781D01*
X120273Y112598D01*
Y110630D01*
X119781Y110138D01*
X118797D01*
X118305Y110630D01*
Y112598D01*
X104200Y233400D02*
Y236352D01*
X105676D01*
X106168Y235860D01*
Y234876D01*
X105676Y234384D01*
X104200D01*
X105184D02*
X106168Y233400D01*
X107152D02*
X108136D01*
X107644D01*
Y236352D01*
X107152Y235860D01*
X109612Y233892D02*
X110104Y233400D01*
X111088D01*
X111580Y233892D01*
Y235860D01*
X111088Y236352D01*
X110104D01*
X109612Y235860D01*
Y235368D01*
X110104Y234876D01*
X111580D01*
X105568Y217600D02*
X103600D01*
X105568Y219568D01*
Y220060D01*
X105076Y220552D01*
X104092D01*
X103600Y220060D01*
X108028Y217600D02*
Y220552D01*
X106552Y219076D01*
X108520D01*
X109504Y220552D02*
Y218584D01*
X110488Y217600D01*
X111471Y218584D01*
Y220552D01*
X103740Y116141D02*
X101772D01*
Y114665D01*
X102756Y115157D01*
X103248D01*
X103740Y114665D01*
Y113681D01*
X103248Y113189D01*
X102264D01*
X101772Y113681D01*
X104724Y116141D02*
Y114173D01*
X105707Y113189D01*
X106691Y114173D01*
Y116141D01*
X100268Y202852D02*
X99284D01*
X99776D01*
Y200392D01*
X99284Y199900D01*
X98792D01*
X98300Y200392D01*
X101252Y202360D02*
X101744Y202852D01*
X102728D01*
X103220Y202360D01*
Y201868D01*
X102728Y201376D01*
X102236D01*
X102728D01*
X103220Y200884D01*
Y200392D01*
X102728Y199900D01*
X101744D01*
X101252Y200392D01*
X260729Y154822D02*
X260237Y154330D01*
Y153346D01*
X260729Y152854D01*
X261221D01*
X261713Y153346D01*
Y154330D01*
X262205Y154822D01*
X262697D01*
X263189Y154330D01*
Y153346D01*
X262697Y152854D01*
X260237Y155806D02*
X263189D01*
X262205Y156790D01*
X263189Y157774D01*
X260237D01*
X263189Y158758D02*
Y159742D01*
Y159250D01*
X260237D01*
X260729Y158758D01*
X146500Y217752D02*
Y215292D01*
X146992Y214800D01*
X147976D01*
X148468Y215292D01*
Y217752D01*
X151420Y214800D02*
X149452D01*
X151420Y216768D01*
Y217260D01*
X150928Y217752D01*
X149944D01*
X149452Y217260D01*
X192814Y220570D02*
X191830D01*
X192322D01*
Y218110D01*
X191830Y217618D01*
X191338D01*
X190847Y218110D01*
X193798Y217618D02*
X194782D01*
X194290D01*
Y220570D01*
X193798Y220078D01*
X270767Y185532D02*
Y186516D01*
Y186024D01*
X268307D01*
X267815Y186516D01*
Y187008D01*
X268307Y187500D01*
X267815Y182580D02*
Y184548D01*
X269783Y182580D01*
X270275D01*
X270767Y183072D01*
Y184056D01*
X270275Y184548D01*
X208367Y160433D02*
X210335D01*
X211319Y161417D01*
X210335Y162401D01*
X208367D01*
Y163385D02*
X211319D01*
Y164861D01*
X210827Y165353D01*
X208859D01*
X208367Y164861D01*
Y163385D01*
X211319Y166337D02*
Y167321D01*
Y166829D01*
X208367D01*
X208859Y166337D01*
M02*
