M48
;Layer_Color=6321
;FILE_FORMAT=2:4
INCH,TZ
;TYPE=PLATED
T1F00S00C0.0079
T2F00S00C0.0118
T3F00S00C0.0122
T4F00S00C0.0157
T5F00S00C0.0315
T6F00S00C0.0394
T7F00S00C0.0472
T8F00S00C0.1220
T9F00S00C0.1260
T10F00S00C0.1280
%
T01
X16093Y16378
X16526
Y16811
X16093
Y17244
X16526
X16959
Y16811
Y16378
T02
X15167Y11762
Y12569
T03
X18386Y11083
X17343Y12205
X16634Y13652
X18346Y14488
X21713Y15492
X22077Y16142
X22598Y17648
X20443Y17972
X18642Y17992
X17864Y18081
X18268Y19331
X18061Y15915
X19902Y15728
X15394Y15935
X15374Y17726
X12835Y17874
X12894Y15718
T04
X15167Y12165
T05
X16150Y22073
X17150
X18150
X18650Y23073
X17650
X16650
X15650
X21746Y20693
Y19693
Y18693
X22746Y19189
Y20189
Y21189
X15150Y22073
T06
X13002Y13553
X15679Y10423
T07
X11240Y14646
Y16024
Y17402
Y18780
T08
X12067Y12067
X24272
Y24272
X12067
T09
X19163Y25573
X14636
T10
X25246Y17941
Y21941
M30
