G04*
G04 #@! TF.GenerationSoftware,Altium Limited,CircuitMaker,2.0.3 (51)*
G04*
G04 Layer_Color=15132400*
%FSLAX24Y24*%
%MOIN*%
G70*
G04*
G04 #@! TF.SameCoordinates,C005A906-C81D-4AB5-B832-F2193FDFF32C*
G04*
G04*
G04 #@! TF.FilePolarity,Positive*
G04*
G01*
G75*
%ADD10C,0.0098*%
%ADD11C,0.0079*%
%ADD12C,0.0100*%
%ADD13C,0.0039*%
%ADD14C,0.0118*%
D10*
X15591Y15512D02*
G03*
X15591Y15512I-49J0D01*
G01*
D11*
X10050Y11894D02*
X10600D01*
X10050D02*
X10125Y11819D01*
X10525D01*
X10600Y11894D01*
X10049D02*
X10125Y11819D01*
X10049Y11894D02*
Y12193D01*
Y11969D02*
X10600D01*
Y11894D02*
Y12143D01*
Y13169D01*
X10049D02*
X10600D01*
X10049Y12193D02*
Y13169D01*
X10355Y20191D02*
X10905D01*
X10355D02*
X10430Y20116D01*
X10830D01*
X10906Y20192D01*
X10354D02*
X10430Y20116D01*
X10354Y20192D02*
Y20491D01*
Y20266D02*
X10906D01*
Y20192D02*
Y20441D01*
Y21466D01*
X10354D02*
X10906D01*
X10354Y20491D02*
Y21466D01*
X18209Y15305D02*
Y15541D01*
X18878Y15305D02*
Y15541D01*
X17569Y15768D02*
Y16014D01*
X17323Y15768D02*
X17569D01*
Y17608D02*
Y17854D01*
X17323D02*
X17569D01*
X15482D02*
X15728D01*
X15482Y17608D02*
Y17854D01*
Y15768D02*
Y16014D01*
Y15768D02*
X15728D01*
X16253Y10574D02*
X16188Y10640D01*
X16057D01*
X15991Y10574D01*
Y10312D01*
X16057Y10246D01*
X16188D01*
X16253Y10312D01*
Y10443D01*
X16122D01*
X16385Y10246D02*
Y10640D01*
X16647Y10246D01*
Y10640D01*
X16778D02*
Y10246D01*
X16975D01*
X17041Y10312D01*
Y10574D01*
X16975Y10640D01*
X16778D01*
X13140Y13238D02*
X12878D01*
Y13041D01*
X13009Y13107D01*
X13074D01*
X13140Y13041D01*
Y12910D01*
X13074Y12845D01*
X12943D01*
X12878Y12910D01*
X13271Y13238D02*
Y12976D01*
X13402Y12845D01*
X13534Y12976D01*
Y13238D01*
X13665D02*
X13927D01*
X13796D01*
Y12845D01*
X14255D02*
X14124D01*
X14058Y12910D01*
Y13041D01*
X14124Y13107D01*
X14255D01*
X14321Y13041D01*
Y12976D01*
X14058D01*
X14452Y12845D02*
X14649D01*
X14714Y12910D01*
X14649Y12976D01*
X14518D01*
X14452Y13041D01*
X14518Y13107D01*
X14714D01*
X14911Y13173D02*
Y13107D01*
X14846D01*
X14977D01*
X14911D01*
Y12910D01*
X14977Y12845D01*
X23087Y11135D02*
X23022Y11201D01*
X22890D01*
X22825Y11135D01*
Y11069D01*
X22890Y11004D01*
X23022D01*
X23087Y10938D01*
Y10873D01*
X23022Y10807D01*
X22890D01*
X22825Y10873D01*
X23218Y10807D02*
Y11201D01*
X23415D01*
X23481Y11135D01*
Y11004D01*
X23415Y10938D01*
X23218D01*
X23612Y10807D02*
Y11201D01*
X23809D01*
X23874Y11135D01*
Y11004D01*
X23809Y10938D01*
X23612D01*
X23743D02*
X23874Y10807D01*
X24006Y11201D02*
Y10807D01*
X24202D01*
X24268Y10873D01*
Y11135D01*
X24202Y11201D01*
X24006D01*
X22746Y13819D02*
Y14212D01*
X22877Y14081D01*
X23008Y14212D01*
Y13819D01*
X23402Y14147D02*
X23336Y14212D01*
X23205D01*
X23140Y14147D01*
Y14081D01*
X23205Y14016D01*
X23336D01*
X23402Y13950D01*
Y13884D01*
X23336Y13819D01*
X23205D01*
X23140Y13884D01*
X23533Y13819D02*
X23664D01*
X23599D01*
Y14212D01*
X23533Y14147D01*
X22953Y12776D02*
Y13169D01*
X23084Y13038D01*
X23215Y13169D01*
Y12776D01*
X23609Y13104D02*
X23543Y13169D01*
X23412D01*
X23346Y13104D01*
Y13038D01*
X23412Y12972D01*
X23543D01*
X23609Y12907D01*
Y12841D01*
X23543Y12776D01*
X23412D01*
X23346Y12841D01*
X24002Y12776D02*
X23740D01*
X24002Y13038D01*
Y13104D01*
X23937Y13169D01*
X23805D01*
X23740Y13104D01*
X19872Y10748D02*
X20134D01*
X20266Y10551D02*
X20462Y10748D01*
X20266Y10945D01*
X21184D02*
X21053D01*
X20987Y10879D01*
Y10617D01*
X21053Y10551D01*
X21184D01*
X21250Y10617D01*
Y10879D01*
X21184Y10945D01*
X21381Y10551D02*
Y10814D01*
X21578D01*
X21643Y10748D01*
Y10551D01*
X15591Y20541D02*
X15853D01*
X15984Y20344D02*
X16181Y20541D01*
X15984Y20738D01*
X16706Y20344D02*
Y20738D01*
X16837Y20607D01*
X16968Y20738D01*
Y20344D01*
X17165D02*
X17296D01*
X17362Y20410D01*
Y20541D01*
X17296Y20607D01*
X17165D01*
X17099Y20541D01*
Y20410D01*
X17165Y20344D01*
X17558Y20672D02*
Y20607D01*
X17493D01*
X17624D01*
X17558D01*
Y20410D01*
X17624Y20344D01*
X17886D02*
X18018D01*
X18083Y20410D01*
Y20541D01*
X18018Y20607D01*
X17886D01*
X17821Y20541D01*
Y20410D01*
X17886Y20344D01*
X18214Y20607D02*
Y20344D01*
Y20476D01*
X18280Y20541D01*
X18346Y20607D01*
X18411D01*
X19002Y20738D02*
X19133D01*
X19067D01*
Y20344D01*
X19002D01*
X19133D01*
X12677Y10010D02*
Y10403D01*
X12874D01*
X12940Y10338D01*
Y10207D01*
X12874Y10141D01*
X12677D01*
X12808D02*
X12940Y10010D01*
X13333D02*
X13071D01*
X13333Y10272D01*
Y10338D01*
X13268Y10403D01*
X13136D01*
X13071Y10338D01*
X13464D02*
X13530Y10403D01*
X13661D01*
X13727Y10338D01*
Y10075D01*
X13661Y10010D01*
X13530D01*
X13464Y10075D01*
Y10338D01*
X11570Y22730D02*
Y23124D01*
X11767D01*
X11832Y23058D01*
Y22927D01*
X11767Y22861D01*
X11570D01*
X11701D02*
X11832Y22730D01*
X11964D02*
X12095D01*
X12029D01*
Y23124D01*
X11964Y23058D01*
X12292Y22796D02*
X12357Y22730D01*
X12488D01*
X12554Y22796D01*
Y23058D01*
X12488Y23124D01*
X12357D01*
X12292Y23058D01*
Y22992D01*
X12357Y22927D01*
X12554D01*
X10642Y21780D02*
X10380D01*
X10642Y22042D01*
Y22108D01*
X10577Y22174D01*
X10446D01*
X10380Y22108D01*
X10970Y21780D02*
Y22174D01*
X10774Y21977D01*
X11036D01*
X11167Y22174D02*
Y21911D01*
X11298Y21780D01*
X11430Y21911D01*
Y22174D01*
X10134Y11683D02*
X9872D01*
Y11486D01*
X10003Y11552D01*
X10069D01*
X10134Y11486D01*
Y11355D01*
X10069Y11289D01*
X9938D01*
X9872Y11355D01*
X10266Y11683D02*
Y11421D01*
X10397Y11289D01*
X10528Y11421D01*
Y11683D01*
D12*
X9823Y13740D02*
X12579D01*
X9823Y19685D02*
X12579D01*
X9823Y13740D02*
Y19685D01*
X12579Y13740D02*
Y19685D01*
X26523Y17568D02*
Y22314D01*
X26494Y22343D02*
X26523Y22314D01*
X21246Y22343D02*
X26494D01*
Y17539D02*
X26523Y17568D01*
X21246Y17539D02*
X26494D01*
X26208Y21398D02*
X26523Y21713D01*
X26208Y18484D02*
X26523Y18169D01*
X26208Y18484D02*
Y21398D01*
X21246Y17539D02*
Y22343D01*
X21496Y18191D02*
Y18191D01*
X23971Y15881D02*
X24671D01*
Y15981D01*
X23971D02*
X24671D01*
X23971Y15881D02*
Y15981D01*
X19468Y11054D02*
Y13504D01*
X21870Y11054D02*
Y13898D01*
X19902D02*
X21870D01*
X19468Y13504D02*
X19902Y13898D01*
X19468Y11054D02*
X21870D01*
D13*
X22746Y18687D02*
Y21687D01*
X22223Y19189D02*
X23207D01*
X22234Y20190D02*
X23218D01*
X22234Y21203D02*
X23218D01*
X21234Y20707D02*
X22218D01*
X21234Y19694D02*
X22218D01*
X21223Y18693D02*
X22207D01*
X21746Y18191D02*
Y21191D01*
X25285Y16870D02*
Y18091D01*
Y21752D02*
Y22972D01*
X20413Y13346D02*
Y13661D01*
X21201Y13346D02*
Y13661D01*
X20413D02*
X21201D01*
X20413Y13346D02*
X21201D01*
X20925D02*
Y13661D01*
X20417Y12346D02*
Y12661D01*
X21205Y12346D02*
Y12661D01*
X20417D02*
X21205D01*
X20417Y12346D02*
X21205D01*
X20929D02*
Y12661D01*
X20417Y11346D02*
Y11661D01*
X21205Y11346D02*
Y11661D01*
X20417D02*
X21205D01*
X20417Y11346D02*
X21205D01*
X20929D02*
Y11661D01*
X11959Y14542D02*
X12235D01*
X12097Y14680D01*
Y14496D01*
X12139Y16030D02*
X12185Y15984D01*
Y15892D01*
X12139Y15846D01*
X12093D01*
X12047Y15892D01*
Y15938D01*
Y15892D01*
X12001Y15846D01*
X11955D01*
X11909Y15892D01*
Y15984D01*
X11955Y16030D01*
X11909Y17346D02*
Y17530D01*
X12093Y17346D01*
X12139D01*
X12185Y17392D01*
Y17484D01*
X12139Y17530D01*
X11909Y18780D02*
Y18688D01*
Y18734D01*
X12185D01*
X12139Y18780D01*
X10190Y17284D02*
X10466D01*
X10328Y17421D01*
Y17238D01*
X10190Y17146D02*
X10466D01*
Y17008D01*
X10420Y16962D01*
X10328D01*
X10282Y17008D01*
Y17146D01*
X10466Y16870D02*
Y16687D01*
Y16778D01*
X10190D01*
X10466Y16595D02*
X10190D01*
Y16457D01*
X10236Y16411D01*
X10282D01*
X10328Y16457D01*
Y16595D01*
Y16457D01*
X10374Y16411D01*
X10420D01*
X10466Y16457D01*
Y16595D01*
X19823Y13543D02*
Y13451D01*
Y13497D01*
X20098D01*
X20052Y13543D01*
X19823Y12465D02*
Y12648D01*
X20006Y12465D01*
X20052D01*
X20098Y12511D01*
Y12603D01*
X20052Y12648D01*
X21634Y13524D02*
Y13615D01*
X21588Y13661D01*
X21404D01*
X21358Y13615D01*
Y13524D01*
X21404Y13478D01*
X21588D01*
X21634Y13524D01*
X21358Y13386D02*
X21634D01*
X21358Y13202D01*
X21634D01*
X20052Y11625D02*
X20098Y11579D01*
Y11487D01*
X20052Y11441D01*
X20006D01*
X19961Y11487D01*
Y11533D01*
Y11487D01*
X19915Y11441D01*
X19869D01*
X19823Y11487D01*
Y11579D01*
X19869Y11625D01*
X9994Y20251D02*
X9902D01*
X9948D01*
Y20022D01*
X9902Y19976D01*
X9857D01*
X9811Y20022D01*
X10086Y20206D02*
X10132Y20251D01*
X10224D01*
X10270Y20206D01*
Y20160D01*
X10224Y20114D01*
X10178D01*
X10224D01*
X10270Y20068D01*
Y20022D01*
X10224Y19976D01*
X10132D01*
X10086Y20022D01*
X17123Y14708D02*
X17077Y14754D01*
X16985D01*
X16939Y14708D01*
Y14524D01*
X16985Y14478D01*
X17077D01*
X17123Y14524D01*
X17398Y14754D02*
X17214D01*
Y14616D01*
X17306Y14662D01*
X17352D01*
X17398Y14616D01*
Y14524D01*
X17352Y14478D01*
X17260D01*
X17214Y14524D01*
X17162Y13684D02*
X17116Y13730D01*
X17024D01*
X16978Y13684D01*
Y13501D01*
X17024Y13455D01*
X17116D01*
X17162Y13501D01*
X17438Y13730D02*
X17346Y13684D01*
X17254Y13592D01*
Y13501D01*
X17300Y13455D01*
X17392D01*
X17438Y13501D01*
Y13547D01*
X17392Y13592D01*
X17254D01*
X18806Y18340D02*
X18760Y18386D01*
X18668D01*
X18622Y18340D01*
Y18156D01*
X18668Y18110D01*
X18760D01*
X18806Y18156D01*
X18898Y18386D02*
X19081D01*
Y18340D01*
X18898Y18156D01*
Y18110D01*
X19285Y14856D02*
X19331Y14902D01*
Y14993D01*
X19285Y15039D01*
X19101D01*
X19055Y14993D01*
Y14902D01*
X19101Y14856D01*
X19285Y14764D02*
X19331Y14718D01*
Y14626D01*
X19285Y14580D01*
X19239D01*
X19193Y14626D01*
X19147Y14580D01*
X19101D01*
X19055Y14626D01*
Y14718D01*
X19101Y14764D01*
X19147D01*
X19193Y14718D01*
X19239Y14764D01*
X19285D01*
X19193Y14718D02*
Y14626D01*
X13799Y14990D02*
Y15266D01*
X13937D01*
X13983Y15220D01*
Y15128D01*
X13937Y15082D01*
X13799D01*
X13891D02*
X13983Y14990D01*
X14075D02*
X14167D01*
X14121D01*
Y15266D01*
X14075Y15220D01*
X13701Y18386D02*
Y18661D01*
X13839D01*
X13884Y18615D01*
Y18524D01*
X13839Y18478D01*
X13701D01*
X13793D02*
X13884Y18386D01*
X14160D02*
X13976D01*
X14160Y18569D01*
Y18615D01*
X14114Y18661D01*
X14022D01*
X13976Y18615D01*
X14970Y14094D02*
Y14370D01*
X15108D01*
X15154Y14324D01*
Y14232D01*
X15108Y14186D01*
X14970D01*
X15062D02*
X15154Y14094D01*
X15246Y14324D02*
X15292Y14370D01*
X15384D01*
X15430Y14324D01*
Y14278D01*
X15384Y14232D01*
X15338D01*
X15384D01*
X15430Y14186D01*
Y14140D01*
X15384Y14094D01*
X15292D01*
X15246Y14140D01*
X17707Y19705D02*
Y19980D01*
X17844D01*
X17890Y19934D01*
Y19842D01*
X17844Y19797D01*
X17707D01*
X17799D02*
X17890Y19705D01*
X18120D02*
Y19980D01*
X17982Y19842D01*
X18166D01*
X20285Y18770D02*
Y19045D01*
X20423D01*
X20469Y18999D01*
Y18907D01*
X20423Y18862D01*
X20285D01*
X20377D02*
X20469Y18770D01*
X20745Y19045D02*
X20561D01*
Y18907D01*
X20653Y18953D01*
X20699D01*
X20745Y18907D01*
Y18816D01*
X20699Y18770D01*
X20607D01*
X20561Y18816D01*
X17608Y12392D02*
Y12667D01*
X17746D01*
X17792Y12621D01*
Y12529D01*
X17746Y12484D01*
X17608D01*
X17700D02*
X17792Y12392D01*
X18067Y12667D02*
X17976Y12621D01*
X17884Y12529D01*
Y12438D01*
X17930Y12392D01*
X18022D01*
X18067Y12438D01*
Y12484D01*
X18022Y12529D01*
X17884D01*
X21260Y15856D02*
Y16132D01*
X21398D01*
X21444Y16086D01*
Y15994D01*
X21398Y15948D01*
X21260D01*
X21352D02*
X21444Y15856D01*
X21535Y16132D02*
X21719D01*
Y16086D01*
X21535Y15902D01*
Y15856D01*
X21919Y16811D02*
Y17087D01*
X22057D01*
X22103Y17041D01*
Y16949D01*
X22057Y16903D01*
X21919D01*
X22011D02*
X22103Y16811D01*
X22195Y17041D02*
X22241Y17087D01*
X22333D01*
X22378Y17041D01*
Y16995D01*
X22333Y16949D01*
X22378Y16903D01*
Y16857D01*
X22333Y16811D01*
X22241D01*
X22195Y16857D01*
Y16903D01*
X22241Y16949D01*
X22195Y16995D01*
Y17041D01*
X22241Y16949D02*
X22333D01*
X19764Y16407D02*
Y16683D01*
X19902D01*
X19947Y16637D01*
Y16545D01*
X19902Y16499D01*
X19764D01*
X19856D02*
X19947Y16407D01*
X20039Y16453D02*
X20085Y16407D01*
X20177D01*
X20223Y16453D01*
Y16637D01*
X20177Y16683D01*
X20085D01*
X20039Y16637D01*
Y16591D01*
X20085Y16545D01*
X20223D01*
X22014Y14629D02*
X21968Y14675D01*
X21877D01*
X21831Y14629D01*
Y14583D01*
X21877Y14537D01*
X21968D01*
X22014Y14491D01*
Y14446D01*
X21968Y14400D01*
X21877D01*
X21831Y14446D01*
X22106Y14675D02*
Y14400D01*
X22198Y14491D01*
X22290Y14400D01*
Y14675D01*
X22382Y14400D02*
X22474D01*
X22428D01*
Y14675D01*
X22382Y14629D01*
X15340Y18546D02*
Y18316D01*
X15386Y18270D01*
X15478D01*
X15524Y18316D01*
Y18546D01*
X15799Y18270D02*
X15616D01*
X15799Y18454D01*
Y18500D01*
X15753Y18546D01*
X15661D01*
X15616Y18500D01*
X19268Y22037D02*
X19176D01*
X19222D01*
Y21808D01*
X19176Y21762D01*
X19131D01*
X19085Y21808D01*
X19360Y21762D02*
X19452D01*
X19406D01*
Y22037D01*
X19360Y21991D01*
X27057Y18566D02*
Y18658D01*
Y18612D01*
X26827D01*
X26781Y18658D01*
Y18704D01*
X26827Y18750D01*
X26781Y18291D02*
Y18475D01*
X26965Y18291D01*
X27011D01*
X27057Y18337D01*
Y18429D01*
X27011Y18475D01*
X23967Y15177D02*
Y14993D01*
X24058Y14902D01*
X24150Y14993D01*
Y15177D01*
X24242D02*
Y14902D01*
X24380D01*
X24426Y14947D01*
Y15131D01*
X24380Y15177D01*
X24242D01*
X24518Y14902D02*
X24609D01*
X24563D01*
Y15177D01*
X24518Y15131D01*
D14*
X13750Y21437D02*
X20049D01*
X13750D02*
Y24833D01*
X20049Y24636D02*
Y24833D01*
Y21437D02*
Y24636D01*
M02*
