G04*
G04 #@! TF.GenerationSoftware,Altium Limited,CircuitMaker,2.0.3 (51)*
G04*
G04 Layer_Color=20142*
%FSLAX24Y24*%
%MOIN*%
G70*
G04*
G04 #@! TF.SameCoordinates,C005A906-C81D-4AB5-B832-F2193FDFF32C*
G04*
G04*
G04 #@! TF.FilePolarity,Negative*
G04*
G01*
G75*
%ADD15R,0.0434X0.0493*%
%ADD16R,0.0415X0.0415*%
%ADD17R,0.0533X0.0493*%
%ADD18R,0.0828X0.0690*%
%ADD19R,0.0533X0.0611*%
%ADD20R,0.1537X0.1537*%
%ADD21O,0.0395X0.0178*%
%ADD22O,0.0178X0.0395*%
%ADD23R,0.0493X0.0474*%
%ADD24R,0.0474X0.0493*%
%ADD25R,0.0415X0.0454*%
%ADD26R,0.0560X0.0438*%
%ADD27R,0.0671X0.0513*%
%ADD28R,0.0671X0.0513*%
%ADD29R,0.0671X0.0513*%
%ADD30R,0.0552X0.0552*%
%ADD31R,0.0671X0.0710*%
%ADD32C,0.0680*%
%ADD33C,0.0080*%
%ADD34O,0.0552X0.0946*%
%ADD35C,0.1537*%
G04:AMPARAMS|DCode=36|XSize=31.5mil|YSize=118.1mil|CornerRadius=8.9mil|HoleSize=0mil|Usage=FLASHONLY|Rotation=0.000|XOffset=0mil|YOffset=0mil|HoleType=Round|Shape=RoundedRectangle|*
%AMROUNDEDRECTD36*
21,1,0.0315,0.1004,0,0,0.0*
21,1,0.0138,0.1181,0,0,0.0*
1,1,0.0177,0.0069,-0.0502*
1,1,0.0177,-0.0069,-0.0502*
1,1,0.0177,-0.0069,0.0502*
1,1,0.0177,0.0069,0.0502*
%
%ADD36ROUNDEDRECTD36*%
%ADD37C,0.0474*%
%ADD38C,0.0320*%
%ADD39C,0.1300*%
%ADD40C,0.0277*%
%ADD41C,0.0316*%
D15*
X12421Y22028D02*
D03*
X11890D02*
D03*
D16*
X10325Y12884D02*
D03*
Y12254D02*
D03*
X10630Y21181D02*
D03*
X10620Y20551D02*
D03*
D17*
X12126Y10276D02*
D03*
X11476D02*
D03*
D18*
X18543Y14843D02*
D03*
Y16004D02*
D03*
D19*
X13917Y15718D02*
D03*
X13228D02*
D03*
X13907Y17884D02*
D03*
X13218D02*
D03*
D20*
X16526Y16811D02*
D03*
D21*
X15571Y16220D02*
D03*
Y16417D02*
D03*
Y16614D02*
D03*
Y16811D02*
D03*
Y17008D02*
D03*
Y17205D02*
D03*
Y17402D02*
D03*
X17480D02*
D03*
Y17205D02*
D03*
Y17008D02*
D03*
Y16811D02*
D03*
Y16614D02*
D03*
Y16417D02*
D03*
Y16220D02*
D03*
D22*
X15935Y17766D02*
D03*
X16132D02*
D03*
X16329D02*
D03*
X16526D02*
D03*
X16722D02*
D03*
X16919D02*
D03*
X17116D02*
D03*
Y15856D02*
D03*
X16919D02*
D03*
X16722D02*
D03*
X16526D02*
D03*
X16329D02*
D03*
X16132D02*
D03*
X15935D02*
D03*
D23*
X16555Y15098D02*
D03*
X17146D02*
D03*
X20433Y18396D02*
D03*
X19843D02*
D03*
X21417Y15502D02*
D03*
X20827D02*
D03*
X19921Y16024D02*
D03*
X19331D02*
D03*
X22077Y16437D02*
D03*
X21486D02*
D03*
D24*
X17244Y13169D02*
D03*
Y12579D02*
D03*
X15768Y14144D02*
D03*
Y13553D02*
D03*
D25*
X16683Y14094D02*
D03*
X17215D02*
D03*
X18780Y17726D02*
D03*
X18248D02*
D03*
D26*
X24321Y16827D02*
D03*
Y15535D02*
D03*
D27*
X22421Y13504D02*
D03*
Y11504D02*
D03*
Y12504D02*
D03*
D28*
X18917Y11504D02*
D03*
Y12504D02*
D03*
D29*
Y13504D02*
D03*
D30*
X17982Y18563D02*
D03*
Y19350D02*
D03*
D31*
X16703Y18957D02*
D03*
D32*
X11240Y14646D02*
D03*
Y16024D02*
D03*
Y17402D02*
D03*
Y18780D02*
D03*
X22746Y19189D02*
D03*
X21746Y18693D02*
D03*
X22746Y20189D02*
D03*
X21746Y19693D02*
D03*
X22746Y21189D02*
D03*
X21746Y20693D02*
D03*
D33*
X25246Y17941D02*
D03*
Y21941D02*
D03*
D34*
X18150Y22073D02*
D03*
X17150D02*
D03*
X15150D02*
D03*
X16150D02*
D03*
X15650Y23073D02*
D03*
X16650D02*
D03*
X18650D02*
D03*
X17650D02*
D03*
D35*
X14636Y25573D02*
D03*
X19163D02*
D03*
D36*
X15167Y12165D02*
D03*
D37*
X15679Y10423D02*
D03*
X13002Y13553D02*
D03*
D38*
X18386Y11083D02*
D03*
X17343Y12205D02*
D03*
X17864Y18081D02*
D03*
X18061Y15915D02*
D03*
X20443Y17972D02*
D03*
X22598Y17648D02*
D03*
X18346Y14488D02*
D03*
X19902Y15728D02*
D03*
X21713Y15492D02*
D03*
X22077Y16142D02*
D03*
X18268Y19331D02*
D03*
X18642Y17992D02*
D03*
X12894Y15718D02*
D03*
X12835Y17874D02*
D03*
X16634Y13652D02*
D03*
X15374Y17726D02*
D03*
X15394Y15935D02*
D03*
D39*
X24272Y12067D02*
D03*
X12067D02*
D03*
Y24272D02*
D03*
X24272D02*
D03*
D40*
X16959Y17244D02*
D03*
Y16811D02*
D03*
Y16378D02*
D03*
X16526Y17244D02*
D03*
Y16811D02*
D03*
Y16378D02*
D03*
X16093Y17244D02*
D03*
Y16811D02*
D03*
Y16378D02*
D03*
D41*
X15167Y12569D02*
D03*
Y11762D02*
D03*
M02*
