G04*
G04 #@! TF.GenerationSoftware,Altium Limited,CircuitMaker,2.0.3 (51)*
G04*
G04 Layer_Color=8150272*
%FSLAX24Y24*%
%MOIN*%
G70*
G04*
G04 #@! TF.SameCoordinates,C005A906-C81D-4AB5-B832-F2193FDFF32C*
G04*
G04*
G04 #@! TF.FilePolarity,Negative*
G04*
G01*
G75*
%ADD25R,0.0415X0.0454*%
%ADD32C,0.0680*%
%ADD33C,0.0080*%
%ADD34O,0.0552X0.0946*%
%ADD35C,0.1537*%
%ADD37C,0.0474*%
%ADD38C,0.0320*%
%ADD39C,0.1300*%
%ADD40C,0.0277*%
%ADD82O,0.0631X0.0218*%
G04:AMPARAMS|DCode=83|XSize=29.5mil|YSize=15.7mil|CornerRadius=4.9mil|HoleSize=0mil|Usage=FLASHONLY|Rotation=0.000|XOffset=0mil|YOffset=0mil|HoleType=Round|Shape=RoundedRectangle|*
%AMROUNDEDRECTD83*
21,1,0.0295,0.0059,0,0,0.0*
21,1,0.0197,0.0157,0,0,0.0*
1,1,0.0098,0.0098,-0.0030*
1,1,0.0098,-0.0098,-0.0030*
1,1,0.0098,-0.0098,0.0030*
1,1,0.0098,0.0098,0.0030*
%
%ADD83ROUNDEDRECTD83*%
%ADD84R,0.0454X0.0415*%
%ADD85R,0.0438X0.0560*%
%ADD86R,0.0749X0.0474*%
%ADD87R,0.0474X0.0749*%
D25*
X15512Y15561D02*
D03*
X14980D02*
D03*
X15512Y16437D02*
D03*
X14980D02*
D03*
D32*
X11240Y14646D02*
D03*
Y16024D02*
D03*
Y17402D02*
D03*
Y18780D02*
D03*
X22746Y19189D02*
D03*
X21746Y18693D02*
D03*
X22746Y20189D02*
D03*
X21746Y19693D02*
D03*
X22746Y21189D02*
D03*
X21746Y20693D02*
D03*
D33*
X25246Y17941D02*
D03*
Y21941D02*
D03*
D34*
X18150Y22073D02*
D03*
X17150D02*
D03*
X15150D02*
D03*
X16150D02*
D03*
X15650Y23073D02*
D03*
X16650D02*
D03*
X18650D02*
D03*
X17650D02*
D03*
D35*
X14636Y25573D02*
D03*
X19163D02*
D03*
D37*
X15679Y10423D02*
D03*
X13002Y13553D02*
D03*
D38*
X18386Y11083D02*
D03*
X17343Y12205D02*
D03*
X17864Y18081D02*
D03*
X18061Y15915D02*
D03*
X20443Y17972D02*
D03*
X22598Y17648D02*
D03*
X18346Y14488D02*
D03*
X19902Y15728D02*
D03*
X21713Y15492D02*
D03*
X22077Y16142D02*
D03*
X18268Y19331D02*
D03*
X18642Y17992D02*
D03*
X12894Y15718D02*
D03*
X12835Y17874D02*
D03*
X16634Y13652D02*
D03*
X15374Y17726D02*
D03*
X15394Y15935D02*
D03*
D39*
X24272Y12067D02*
D03*
X12067D02*
D03*
Y24272D02*
D03*
X24272D02*
D03*
D40*
X16959Y17244D02*
D03*
Y16811D02*
D03*
Y16378D02*
D03*
X16526Y17244D02*
D03*
Y16811D02*
D03*
Y16378D02*
D03*
X16093Y17244D02*
D03*
Y16811D02*
D03*
Y16378D02*
D03*
D82*
X19144Y19154D02*
D03*
Y18898D02*
D03*
Y18642D02*
D03*
Y18386D02*
D03*
Y18130D02*
D03*
Y17874D02*
D03*
Y17618D02*
D03*
X16939Y19154D02*
D03*
Y18898D02*
D03*
Y18642D02*
D03*
Y18386D02*
D03*
Y18130D02*
D03*
Y17874D02*
D03*
Y17618D02*
D03*
D83*
X15837Y11693D02*
D03*
Y11929D02*
D03*
Y12165D02*
D03*
Y12402D02*
D03*
Y12638D02*
D03*
X14636D02*
D03*
Y12402D02*
D03*
Y12165D02*
D03*
Y11929D02*
D03*
Y11693D02*
D03*
D84*
X17963Y11447D02*
D03*
Y11978D02*
D03*
D85*
X16648Y12657D02*
D03*
X17939D02*
D03*
D86*
X16663Y11928D02*
D03*
Y10837D02*
D03*
D87*
X14566Y10886D02*
D03*
X13475D02*
D03*
X15511Y17854D02*
D03*
X14420D02*
D03*
X15511Y18681D02*
D03*
X14420D02*
D03*
X18257Y20177D02*
D03*
X17166D02*
D03*
M02*
