**ABCDEFGHIJKLMNOPQRSTUVWXYZabcdefghijklmnopqrstuvwxyz**************************
**PARASOLID !"#$%&'()*+,-./:;<=>?@[\]^_`{|}~0123456789**************************
**PART1;
MC=AMD64;
MC_MODEL=Intel64 Family 6 Model 158 Stepping 9, GenuineIntel;
MC_ID=unknown;
OS=Windows_NT;
OS_RELEASE=unknown;
FRU=Parasolid Version 31.0, build 282,  2-25-2019;
APPL=SOLIDWORKS 2019-2019115;
SITE=;
USER=unknown;
FORMAT=text;
GUISE=transmit;
KEY=din rail 35mm x 7.5mm ;
FILE=din rail 35mm x 7.5mm .x_t;
DATE=Mon May 20 09:57:13 2019;
**PART2;
SCH=SCH_3100282_31001;
USFLD_SIZE=0;
**PART3;
**END_OF_HEADER*****************************************************************
T51 : TRANSMIT FILE created by modeller version 310028223 SCH_3100282_31001_1300
6215 0 12 34 CCCCCCI4 mesh1006 0 I8 polyline1008 0 CCCCCCCDI5 owner1040 0 CCCCCC
I13 boundary_mesh1006 0 I17 boundary_polyline1008 0 CCCA16 index_map_offset0 0 1
 dA9 index_map82 0 A17 node_id_index_map82 0 A20 schema_embedding_map82 0 A5 chi
ld12 0 A14 lowest_node_id0 0 1 dA16 mesh_offset_data206 0 Z1 2471 2 3 0 0 0 0 0
 0 1e3 1e-8 0 4 0 1 0 1 1 5 6 7 8 0 0 9 10 11 0 0 0 0 0 0 0 81 255 2 2 2429 12 1
 13 0 0 0 0 14 70 11 CI9 list_type0 0 1 uI10 notransmit0 0 1 lCCCDCCDI12 finger_
index0 0 1 dI12 finger_block1012 0 CZ3 0 4 T1 0 0 11 20 1 15 15 13 255 5 267 0 1
 0 16 0 0 17 0 51 255 6 794 0 18 19 0 0 +.06 .0065 -.0135 -1 0 0 .001 0 0 1 31 2
55 7 938 0 10 20 0 0 +.01817 .001 -819394603428017e-33 0 -1 0 0 0 -1 .00317 29 2
55 8 1026 0 11 21 0 .01817 634945347391257e-34 -.00317 19 8 CCCCCCCA5 owner12 0
 Z9 89 0 1 17 0 22 V0 16 255 10 936 23 ?24 0 25 7 0 0 1 18 255 11 1024 0 26 0 27
 8 ?1 17 255 26 0 28 29 30 11 31 32 0 33 +18 27 1004 0 34 11 35 21 ?1 17 34 0 36
 37 38 27 39 40 0 41 +18 35 984 0 42 27 43 44 ?1 29 21 1006 0 27 44 8 -.02783 63
4945347391257e-34 -.00317 29 44 986 0 35 45 21 -.05083 634945347391284e-34 -.003
1699999999984 29 45 966 0 43 46 44 .04117 634945347391257e-34 -.00317 18 43 964
 0 47 35 48 45 ?1 29 46 946 0 48 49 45 -.00483 634945347391257e-34 -.00317 18 48
 944 0 50 43 51 46 ?1 29 49 926 0 51 52 46 .02783 .001 -.00317 18 51 924 0 53 48
 54 49 ?1 29 52 906 0 54 55 49 -.01817 .001 -.00317 18 54 904 0 56 51 57 52 ?1 2
9 55 886 0 57 58 52 -.04117 .001 -.003169999999998705 18 57 884 0 59 54 60 55 ?1
 29 58 866 0 60 61 55 .05083 .001 -.00317 18 60 864 0 62 57 63 58 ?1 29 61 846 0
 63 64 58 .00483 .001 -.00317 18 63 844 0 65 60 66 61 ?1 29 64 487 0 66 67 61 .0
6 .0075 .0135 18 66 485 0 68 63 69 64 ?1 29 67 484 0 69 70 64 .06 .0065 .0125 18
 69 482 0 71 66 72 67 ?1 29 70 481 0 72 73 67 .06 .002 .0125 18 72 479 0 74 69 7
5 70 ?1 29 73 478 0 75 76 70 .06 .001 .0115 18 75 476 0 77 72 78 73 ?1 29 76 475
 0 78 79 73 .06 .001 -.0115 18 78 473 0 80 75 81 76 ?1 29 79 472 0 81 82 76 .06
 .002 -.0125 18 81 470 0 83 78 84 79 ?1 29 82 469 0 84 85 79 .06 .0065 -.0125 18
 84 467 0 86 81 87 82 ?1 29 85 466 0 87 88 82 .06 .0075 -.0135 18 87 464 0 89 84
 90 85 ?1 29 88 463 0 90 91 85 .06 .0065 -.0145 18 90 461 0 92 87 93 88 ?1 29 91
 460 0 93 94 88 .06 .001 .0135 18 93 458 0 95 90 96 91 ?1 29 94 457 0 96 97 91 .
06 .0055 .0135 18 96 455 0 98 93 99 94 ?1 29 97 454 0 99 100 94 .06 .0065 .0145
 18 99 452 0 101 96 102 97 ?1 29 100 441 0 102 103 97 .06 476251533001746e-34 -.
0125 18 102 439 0 104 99 105 100 ?1 29 103 438 0 105 106 100 .06 901476116039021
e-34 .0125 18 105 436 0 107 102 108 103 ?1 29 106 415 0 108 109 103 -.06 .0065 .
0145 18 108 413 0 110 105 111 106 ?1 29 109 412 0 111 112 106 -.06 .001 .0135 18
 111 410 0 113 108 114 109 ?1 29 112 409 0 114 115 109 -.06 .0055 .0135 18 114 4
07 0 116 111 117 112 ?1 29 115 406 0 117 118 112 -.06 476251533001746e-34 -.0125
 18 117 404 0 119 114 120 115 ?1 29 118 403 0 120 121 115 -.06 901476116039021e-
34 .0125 18 120 401 0 122 117 123 118 ?1 29 121 400 0 123 124 118 -.06 .0065 -.0
145 18 123 398 0 125 120 126 121 ?1 29 124 397 0 126 127 121 -.06 .0075 -.0135 1
8 126 395 0 128 123 129 124 ?1 29 127 394 0 129 130 124 -.06 .002 -.0125 18 129
 392 0 131 126 132 127 ?1 29 130 391 0 132 133 127 -.06 .0065 -.0125 18 132 389
 0 134 129 135 130 ?1 29 133 388 0 135 136 130 -.06 .001 .0115 18 135 386 0 137
 132 138 133 ?1 29 136 385 0 138 139 133 -.06 .001 -.0115 18 138 383 0 140 135 1
41 136 ?1 29 139 382 0 141 142 136 -.06 .0065 .0125 18 141 380 0 143 138 144 139
 ?1 29 142 379 0 144 145 139 -.06 .002 .0125 18 144 377 0 146 141 147 142 ?1 29
 145 376 0 147 148 142 -.06 .0075 .0135 18 147 374 0 149 144 150 145 ?1 29 148 3
63 0 150 151 145 .06 .0055 -.0135 18 150 361 0 152 147 153 148 ?1 29 151 360 0 1
53 154 148 .06 .001 -.0135 18 153 358 0 155 150 156 151 ?1 29 154 357 0 156 157
 151 -.06 .0055 -.0135 18 156 355 0 158 153 159 154 ?1 29 157 354 0 159 160 154
 -.06 .001 -.0135 18 159 352 0 161 156 162 157 ?1 29 160 195 0 163 164 157 -.06
 .0075 .0172 18 163 170 0 165 166 167 160 ?1 29 164 200 0 167 168 160 -.06 .0075
 -.0178 18 167 175 0 169 163 170 164 ?1 29 168 201 0 170 171 164 -.06 .0065 -.01
78 18 170 176 0 172 167 173 168 ?1 29 171 206 0 173 174 168 -.06 .0065 .0172 18
 173 181 0 175 170 176 171 ?1 29 174 88 0 162 177 171 .06 .0075 .0172 18 162 86
 0 178 159 179 174 ?1 29 177 73 0 179 180 174 .06 .0075 -.0178 18 179 71 0 181 1
62 182 177 ?1 29 180 70 0 182 183 177 .06 .0065 -.0178 18 182 68 0 184 179 166 1
80 ?1 29 183 55 0 166 185 180 .06 .0065 .0172 18 166 53 0 186 182 163 183 ?1 29
 185 1576 0 176 187 183 .01817 .001 .00317000000000006 18 176 1083 0 188 173 189
 185 ?1 29 187 1577 0 189 190 185 .02783 .001 .00317 18 189 1085 0 191 176 192 1
87 ?1 29 190 1579 0 192 193 187 .01817 .001 -.00317 18 192 1078 0 194 189 195 19
0 ?1 29 193 1580 0 195 196 190 -.02783 .001 .00317 18 195 1170 0 197 192 198 193
 ?1 29 196 1581 0 198 199 193 -.01817 .001 .00316999999999956 18 198 1172 0 200
 195 201 196 ?1 29 199 1583 0 201 202 196 -.02783 .001 -.00317 18 201 1165 0 203
 198 204 199 ?1 29 202 1584 0 204 205 199 -.05083 .001 .003169999999999835 18 20
4 1257 0 206 201 207 202 ?1 29 205 1585 0 207 208 202 -.04117 .001 .003169999999
99984 18 207 1259 0 209 204 210 205 ?1 29 208 1587 0 210 211 205 -.05083 .001 -.
003169999999998395 18 210 1252 0 212 207 213 208 ?1 29 211 1588 0 213 214 208 .0
4117 .001 .00317 18 213 1344 0 215 210 216 211 ?1 29 214 1589 0 216 217 211 .050
83 .001 .00317 18 216 1346 0 218 213 219 214 ?1 29 217 1591 0 219 220 214 .04117
 .001 -.00317 18 219 1339 0 221 216 222 217 ?1 29 220 1592 0 222 223 217 -.00483
 .001 .00316999999999958 18 222 1431 0 224 219 225 220 ?1 29 223 1593 0 225 226
 220 .00483 .001 .00317 18 225 1433 0 227 222 228 223 ?1 29 226 1595 0 228 229 2
23 -.00483 .001 -.00317 18 228 1426 0 230 225 231 226 ?1 29 229 1596 0 231 232 2
26 -.00483 539184771291194e-35 .00316999999999958 18 231 1428 0 233 228 234 229
 ?1 29 232 1597 0 234 235 229 .00483 539184771291266e-35 .00317 18 234 1429 0 23
6 231 237 232 ?1 29 235 1598 0 237 238 232 .00483 -539184771291266e-35 -.00317 1
8 237 1430 0 239 234 240 235 ?1 29 238 1604 0 241 242 235 -.02783 53918477129126
5e-35 .00317 18 241 1167 0 38 243 244 238 ?1 29 242 1605 0 244 245 238 -.01817 5
39184771291191e-35 .00316999999999956 18 244 1168 0 246 241 247 242 ?1 29 245 16
06 0 247 248 242 -.01817 -539184771291228e-35 -.003169999999999775 18 247 1169 0
 249 244 250 245 ?1 29 248 1612 0 240 251 245 .01817 539184771291276e-35 .003170
00000000006 18 240 1080 0 30 237 252 248 ?1 29 251 1613 0 252 253 248 .02783 539
184771291265e-35 .00317 18 252 1081 0 254 240 243 251 ?1 29 253 1614 0 243 255 2
51 .02783 -539184771291266e-35 -.00317 18 243 1082 0 256 252 241 253 ?1 29 255 1
620 0 257 258 253 .04117 539184771291266e-35 .00317 18 257 1341 0 259 260 261 25
5 ?1 29 258 1621 0 261 262 255 .05083 539184771291265e-35 .00317 18 261 1342 0 2
63 257 264 258 ?1 29 262 1622 0 264 265 258 .05083 -539184771291266e-35 -.00317
 18 264 1343 0 266 261 0 262 ?1 29 265 1628 0 250 267 262 -.05083 53918477129123
8e-35 .003169999999999835 18 250 1254 0 268 247 269 265 ?1 29 267 1629 0 269 270
 265 -.04117 539184771291238e-35 .00316999999999984 18 269 1255 0 271 250 260 26
7 ?1 29 270 1630 0 260 0 267 -.04117 -539184771291169e-35 -.00316999999999943 18
 260 1256 0 272 269 257 270 ?1 17 272 0 273 274 275 260 59 276 0 277 +15 255 273
 1275 0 272 278 0 17 274 0 273 279 272 269 280 281 0 282 +17 275 0 273 272 279 5
7 283 284 0 285 -17 59 0 286 212 277 57 272 276 0 275 -16 276 1223 287 ?272 288
 289 290 0 0 1 17 277 0 286 59 291 260 292 293 0 280 +15 286 1279 0 291 294 0 17
 291 0 286 277 212 35 295 289 0 292 +17 292 0 296 297 280 35 277 293 0 0 -16 293
 1243 298 ?277 281 299 300 0 0 1 17 280 0 296 292 282 260 274 281 0 0 -15 296 98
2 0 292 301 302 17 282 0 296 280 297 269 303 304 0 0 -16 281 1246 305 ?274 304 2
93 306 0 0 1 81 2 305 2233 307 281 0 0 308 309 0 0 16 304 1249 310 ?303 289 281
 311 0 0 1 31 306 1569 0 281 300 311 0 +-.04117 -271297488135034e-48 -1595024717
27541e-30 0 -1 1700898332149105e-33 0 -1700898332149105e-33 -1 .0031699999999992
7 30 255 300 1570 0 293 312 306 0 +-.05083 -539184771290993e-35 -.00316999999999
8395 1 -535811255231956e-46 -315159389269078e-28 30 311 1568 0 304 306 313 0 +-.
05083 539184771291238e-35 .003169999999999835 -1 -700915886204594e-48 -404050499
062921e-30 30 313 1567 0 314 311 315 0 +-.05083 .12 .003169999999999835 0 -1 170
0898332149105e-33 16 314 1219 316 ?268 40 288 313 0 0 1 30 315 1566 0 288 313 29
0 0 +-.04117 .12 .00316999999999984 0 -1 1700898332149105e-33 16 288 1221 317 ?2
71 314 276 315 0 0 1 30 290 1565 0 276 315 318 0 +-.04117 .12 -.0031699999999994
3 0 -1 1700898332149105e-33 30 318 1564 0 289 290 319 0 +-.05083 .12 -.003169999
999998395 0 -1 1700898332149105e-33 16 289 1217 320 ?291 276 304 318 0 0 1 31 31
9 1559 0 321 318 322 0 +.04117 -139081385920638e-50 -817693705095867e-33 0 -1 17
00898332149105e-33 0 -1700898332149105e-33 -1 .00317 16 321 1327 323 ?47 324 0 3
19 0 0 1 30 322 1558 0 324 319 325 0 +.04117 -539184771291265e-35 -.00317 1 -623
036343292973e-48 -359155999167041e-30 16 324 1330 326 ?327 328 321 322 0 0 1 31
 325 1557 0 328 322 329 0 +.05083 -75286292374583e-49 -442626645882226e-32 0 -1
 1700898332149105e-33 0 -1700898332149105e-33 -1 .00317 16 328 1333 330 ?331 332
 324 325 0 0 1 30 329 1556 0 332 325 333 0 +.04117 539184771291266e-35 .00317 -1
 623036343292973e-48 3591559991670415e-31 16 332 1336 334 ?335 336 328 329 0 0 1
 30 333 1555 0 337 329 338 0 +.04117 .12 .00317 0 -1 1700898332149105e-33 16 337
 1306 339 ?259 299 340 333 0 0 1 30 338 1554 0 340 333 341 0 +.05083 .12 .00317
 0 -1 1700898332149105e-33 16 340 1308 342 ?263 337 343 338 0 0 1 30 341 1553 0
 343 338 344 0 +.05083 .12 -.00317 0 -1 1700898332149105e-33 16 343 1310 345 ?26
6 340 336 341 0 0 1 30 344 1552 0 336 341 346 0 +.04117 .12 -.00317 0 -1 1700898
332149105e-33 16 336 1304 347 ?348 343 332 344 0 0 1 31 346 1547 0 32 344 349 0
 +.01817 -139081385920638e-50 -817693705095867e-33 0 -1 1700898332149105e-33 0 -
1700898332149105e-33 -1 .00317 16 32 1066 350 ?26 351 352 346 0 0 1 30 349 1546
 0 351 346 353 0 +.01817 -539184771291265e-35 -.00317 1 -623036343292973e-48 -35
9155999167041e-30 16 351 1069 354 ?355 356 32 349 0 0 1 31 353 1545 0 356 349 35
7 0 +.02783 -75286292374583e-49 -442626645882226e-32 0 -1 1700898332149105e-33 0
 -1700898332149105e-33 -1 .00317 16 356 1072 358 ?359 360 351 353 0 0 1 30 357 1
544 0 360 353 361 0 +.01817 539184771291276e-35 .00317000000000006 -1 1137041326
509668e-47 66892804844861e-28 16 360 1075 362 ?363 364 356 357 0 0 1 30 361 1543
 0 365 357 366 0 +.01817 .12 .00317000000000006 0 -1 1700898332149105e-33 16 365
 1045 367 ?30 368 369 361 0 0 1 30 366 1542 0 369 361 370 0 +.02783 .12 .00317 0
 -1 1700898332149105e-33 16 369 1047 371 ?254 365 372 366 0 0 1 30 370 1541 0 37
2 366 373 0 +.02783 .12 -.00317 0 -1 1700898332149105e-33 16 372 1049 374 ?256 3
69 364 370 0 0 1 30 373 1540 0 364 370 375 0 +.01817 .12 -.00317 0 -1 1700898332
149105e-33 16 364 1043 376 ?33 372 360 373 0 0 1 31 375 1535 0 40 373 377 0 +-.0
2783 -489889858210133e-50 -2880183071207745e-33 0 -1 1700898332149105e-33 0 -170
0898332149105e-33 -1 .00317 16 40 1153 378 ?34 379 314 375 0 0 1 30 377 1534 0 3
79 375 380 0 +-.02783 -539184771291266e-35 -.00317 1 700915886204594e-48 4040504
990629205e-31 16 379 1156 381 ?382 383 40 377 0 0 1 31 380 1533 0 383 377 384 0
 +-.01817 188063201949434e-50 1105669859243228e-33 0 -1 1700898332149105e-33 0 -
1700898332149105e-33 -1 .00316999999999978 16 383 1159 385 ?386 387 379 380 0 0
 1 30 384 1532 0 387 380 388 0 +-.02783 539184771291265e-35 .00317 -1 7678922931
08574e-46 451638668952545e-28 16 387 1162 389 ?390 391 383 384 0 0 1 30 388 1531
 0 352 384 392 0 +-.02783 .12 .00317 0 -1 1700898332149105e-33 16 352 1132 393 ?
38 32 394 388 0 0 1 30 392 1530 0 394 388 395 0 +-.01817 .12 .00316999999999956
 0 -1 1700898332149105e-33 16 394 1134 396 ?246 352 397 392 0 0 1 30 395 1529 0
 397 392 398 0 +-.01817 .12 -.003169999999999775 0 -1 1700898332149105e-33 16 39
7 1136 399 ?249 394 391 395 0 0 1 30 398 1528 0 391 395 400 0 +-.02783 .12 -.003
17 0 -1 1700898332149105e-33 16 391 1130 401 ?41 397 387 398 0 0 1 31 400 1523 0
 368 398 402 0 +-.00483 -71263857431616e-47 -418977760661176e-30 0 -1 1700898332
149105e-33 0 -1700898332149105e-33 -1 .00316999999999979 16 368 1414 403 ?50 404
 365 400 0 0 1 30 402 1522 0 404 400 405 0 +-.00483 -539184771291266e-35 -.00317
 1 0 0 16 404 1417 406 ?407 408 368 402 0 0 1 31 405 1521 0 408 402 409 0 +.0048
3 -2950588267028845e-51 -1734723475976805e-33 0 -1 1700898332149105e-33 0 -17008
98332149105e-33 -1 .00317 16 408 1420 410 ?411 412 404 405 0 0 1 30 409 1520 0 4
12 405 413 0 +-.00483 539184771291194e-35 .00316999999999958 -1 -738298066802172
e-46 -4341298139931605e-29 16 412 1423 414 ?415 416 408 409 0 0 1 30 413 1519 0
 417 409 418 0 +-.00483 .12 .00316999999999958 0 -1 1700898332149105e-33 16 417
 1393 419 ?233 420 421 413 0 0 1 30 418 1518 0 421 413 422 0 +.00483 .12 .00317
 0 -1 1700898332149105e-33 16 421 1395 423 ?236 417 424 418 0 0 1 30 422 1517 0
 424 418 425 0 +.00483 .12 -.00317 0 -1 1700898332149105e-33 16 424 1397 426 ?23
9 421 416 422 0 0 1 30 425 1516 0 416 422 427 0 +-.00483 .12 -.00317 0 -1 170089
8332149105e-33 16 416 1391 428 ?429 424 412 425 0 0 1 30 427 7 0 430 425 431 0 +
.06 .0065 .0172 0 -1 0 16 430 5 432 ?433 434 435 427 0 0 1 30 431 11 0 434 427 4
36 0 +.06 .0065 .0172 0 0 -1 16 434 9 437 ?438 439 430 431 0 0 1 30 436 15 0 439
 431 440 0 +.06 .0065 .0135 0 -1 0 16 439 456 441 ?442 443 434 436 0 0 1 30 440
 19 0 443 436 444 0 +.06 918485099360512e-34 .0135 0 -1700898332149105e-33 -1 16
 443 437 445 ?446 447 439 440 0 0 1 30 444 23 0 447 440 448 0 +.06 4592425496802
55e-34 -.0135 0 1 2668805347656625e-31 16 447 359 449 ?450 451 443 444 0 0 1 30
 448 27 0 451 444 452 0 +.06 .0065 -.0135 0 0 -1 16 451 462 453 ?184 454 447 448
 0 0 1 30 452 31 0 454 448 455 0 +.06 .0075 -.0178 0 1 0 16 454 29 456 ?181 457
 451 452 0 0 1 30 455 35 0 457 452 458 0 +.06 .0075 -.0125 0 0 1 16 457 33 459 ?
460 461 454 455 0 0 1 30 458 39 0 461 455 462 0 +.06 .001 -.0125 0 -1 -800641604
296988e-30 16 461 468 463 ?464 465 457 458 0 0 1 30 462 43 0 465 458 466 0 +.06
 .001 .0125 0 0 1 16 465 474 467 ?468 469 461 462 0 0 1 30 466 47 0 469 462 470
 0 +.06 .0075 .0125 0 1 2668805347656625e-31 16 469 480 471 ?472 473 465 466 0 0
 1 30 470 51 0 473 466 474 0 +.06 .0075 .0172 0 0 1 16 473 486 475 ?178 476 469
 470 0 0 1 30 474 194 0 420 470 477 0 +-.06 .0065 .0172 0 -1 0 16 420 166 478 ?4
79 480 417 474 0 0 1 30 477 193 0 480 474 481 0 +-.06 .0065 .0172 0 0 -1 16 480
 162 482 ?483 484 420 477 0 0 1 30 481 192 0 484 477 485 0 +-.06 .0065 .0135 0 -
1 0 16 484 408 486 ?487 488 480 481 0 0 1 30 485 191 0 488 481 489 0 +-.06 91848
5099360512e-34 .0135 0 -1700898332149105e-33 -1 16 488 402 490 ?491 492 484 485
 0 0 1 30 489 190 0 492 485 493 0 +-.06 459242549680255e-34 -.0135 0 1 266880534
7656625e-31 16 492 353 308 ?494 495 488 489 0 0 1 30 493 189 0 495 489 496 0 +-.
06 .0065 -.0135 0 0 -1 16 495 399 497 ?172 498 492 493 0 0 1 30 496 188 0 498 49
3 499 0 +-.06 .0075 -.0178 0 1 0 16 498 142 500 ?169 501 495 496 0 0 1 30 499 18
7 0 501 496 502 0 +-.06 .0075 -.0125 0 0 1 16 501 138 503 ?504 505 498 499 0 0 1
 30 502 186 0 505 499 506 0 +-.06 .001 -.0125 0 -1 -800641604296988e-30 16 505 3
90 507 ?508 509 501 502 0 0 1 30 506 185 0 509 502 510 0 +-.06 .001 .0125 0 0 1
 16 509 384 511 ?512 513 505 506 0 0 1 30 510 184 0 513 506 514 0 +-.06 .0075 .0
125 0 1 2668805347656625e-31 16 513 378 515 ?516 435 509 510 0 0 1 30 514 183 0
 435 510 517 0 +-.06 .0075 .0172 0 0 1 16 435 375 518 ?165 430 513 514 0 0 1 30
 517 255 0 476 514 519 0 +.06 .0075 .0172 -1 0 0 16 476 207 520 ?521 522 473 517
 0 0 1 30 519 260 0 522 517 523 0 +.06 .0075 -.0178 -1 0 0 16 522 212 524 ?525 5
26 476 519 0 0 1 30 523 261 0 526 519 527 0 +.06 .0065 -.0178 -1 0 0 16 526 213
 528 ?529 530 522 523 0 0 1 30 527 266 0 530 523 531 0 +.06 .0065 .0172 -1 0 0 1
6 530 218 532 ?533 534 526 527 0 0 1 30 531 366 0 534 527 535 0 -.06 .0055 -.013
5 -1 0 0 16 534 364 536 ?152 537 530 531 0 0 1 30 535 371 0 537 531 538 0 +.06 .
001 -.0135 -1 0 0 16 537 369 539 ?540 541 534 535 0 0 1 31 538 418 0 541 535 542
 0 +-.06 .0065 -.0135 -1 0 0 0 0 1 .001 16 541 416 543 ?128 544 537 538 0 0 1 31
 542 423 0 544 538 545 0 +-.06 .0065 .0135 -1 0 0 0 0 1 .001 16 544 421 546 ?143
 547 541 542 0 0 1 31 545 428 0 547 542 548 0 +-.06 .001 .0125 -1 0 0 0 0 1 .001
 16 547 426 549 ?113 550 544 545 0 0 1 31 548 433 0 550 545 551 0 +-.06 .001 -.0
125 -1 0 0 0 0 1 .001 16 550 431 552 ?119 553 547 548 0 0 1 30 551 444 0 553 548
 554 0 +.06 901476116039021e-34 .0125 -1 0 0 16 553 442 555 ?556 557 550 551 0 0
 1 30 554 449 0 557 551 558 0 -.06 476251533001746e-34 -.0125 -1 0 0 16 557 447
 559 ?104 560 553 554 0 0 1 31 558 490 0 560 554 561 0 -.06 .0065 -.0135 -1 0 0
 0 0 1 .001 16 560 488 562 ?86 563 557 558 0 0 1 31 561 495 0 563 558 564 0 -.06
 .0065 .0135 -1 0 0 0 0 1 .001 16 563 493 565 ?68 566 560 561 0 0 1 31 564 500 0
 566 561 567 0 -.06 .001 .0125 -1 0 0 0 0 1 .001 16 566 498 568 ?107 569 563 564
 0 0 1 31 567 505 0 569 564 570 0 -.06 .001 -.0125 -1 0 0 0 0 1 .001 16 569 503
 571 ?155 572 566 567 0 0 1 30 570 510 0 572 567 573 0 +-.06 .0065 -.0145 -1 0 0
 16 572 508 574 ?575 576 569 570 0 0 1 30 573 515 0 576 570 577 0 -.06 .001 .013
5 -1 0 0 16 576 513 578 ?95 579 572 573 0 0 1 30 577 520 0 579 573 580 0 +-.06 .
0055 .0135 -1 0 0 16 579 518 309 ?581 582 576 577 0 0 1 30 580 525 0 582 577 583
 0 -.06 .0065 .0145 -1 0 0 16 582 523 584 ?101 585 579 580 0 0 1 30 583 530 0 58
5 580 586 0 -.06 .0065 .0125 -1 0 0 16 585 528 587 ?71 588 582 583 0 0 1 30 586
 535 0 588 583 589 0 +-.06 .002 .0125 -1 0 0 16 588 533 590 ?591 592 585 586 0 0
 1 30 589 540 0 592 586 593 0 +-.06 .001 -.0115 -1 0 0 16 592 538 594 ?595 596 5
88 589 0 0 1 30 593 545 0 596 589 597 0 -.06 .001 .0115 -1 0 0 16 596 543 598 ?7
7 599 592 593 0 0 1 30 597 550 0 599 593 600 0 +.06 .0075 .0135 -1 0 0 16 599 54
8 601 ?602 603 596 597 0 0 1 30 600 555 0 603 597 604 0 +.06 .0065 -.0125 -1 0 0
 16 603 553 605 ?606 607 599 600 0 0 1 30 604 560 0 607 600 608 0 -.06 .002 -.01
25 -1 0 0 16 607 558 609 ?83 610 603 604 0 0 1 30 608 565 0 610 604 611 0 -.06 .
0075 -.0135 -1 0 0 16 610 563 612 ?89 613 607 608 0 0 1 31 611 600 0 613 608 614
 0 --.06 .0055 -.0145 -1 0 0 0 0 1 .001 16 613 568 615 ?158 616 610 611 0 0 1 31
 614 601 0 616 611 617 0 +.06 .0055 -.0145 -1 0 0 0 0 1 .001 16 616 572 618 ?92
 619 613 614 0 0 1 31 617 602 0 619 614 620 0 --.06 .0055 .0145 -1 0 0 0 0 1 .00
1 16 619 576 621 ?110 622 616 617 0 0 1 31 620 603 0 622 617 623 0 +.06 .0055 .0
145 -1 0 0 0 0 1 .001 16 622 580 624 ?98 625 619 620 0 0 1 31 623 604 0 625 620
 626 0 --.06 .002 .0115 -1 0 0 0 0 1 .001 16 625 584 627 ?137 628 622 623 0 0 1
 31 626 605 0 628 623 629 0 +.06 .002 .0115 -1 0 0 0 0 1 .001 16 628 588 630 ?74
 631 625 626 0 0 1 31 629 606 0 631 626 632 0 --.06 .002 -.0115 -1 0 0 0 0 1 .00
1 16 631 592 633 ?131 634 628 629 0 0 1 31 632 607 0 634 629 635 0 +.06 .002 -.0
115 -1 0 0 0 0 1 .001 16 634 596 636 ?80 637 631 632 0 0 1 30 635 847 0 637 632
 638 0 +.06 .001 -.00317 1 0 0 16 637 845 639 ?640 641 634 635 0 0 1 31 638 851
 0 641 635 642 0 +.00483 .001 -1736424374308955e-33 0 -1 0 0 0 -1 .00317 16 641
 849 643 ?644 645 637 638 0 0 1 30 642 855 0 645 638 646 0 +.06 .001 .0031700000
00002395 -1 0 -4341298139931605e-29 16 645 853 647 ?648 649 641 642 0 0 1 31 646
 858 0 649 642 650 0 +-.00483 .001 -418979461559508e-30 0 -1 0 0 0 -1 .003169999
99999979 16 649 856 651 ?652 653 645 646 0 0 1 30 650 867 0 653 646 654 0 +.06 .
001 -.00317 1 0 -359155999167041e-30 16 653 865 655 ?656 657 649 650 0 0 1 31 65
4 871 0 657 650 658 0 +.05083 .001 -442796735715441e-32 0 -1 0 0 0 -1 .00317 16
 657 869 659 ?660 661 653 654 0 0 1 30 658 875 0 661 654 662 0 +.06 .001 .00317
 -1 0 3591559991670415e-31 16 661 873 663 ?664 665 657 658 0 0 1 31 662 878 0 66
5 658 666 0 +.04117 .001 -819394603428017e-33 0 -1 0 0 0 -1 .00317 16 665 876 66
7 ?668 669 661 662 0 0 1 30 666 887 0 669 662 670 0 +.06 .001 -.0031700000000018
9 1 0 -315159389269078e-28 16 669 885 671 ?285 284 665 666 0 0 1 31 670 891 0 28
4 666 672 0 +-.04117 .001 -159504172625873e-30 0 -1 0 0 0 -1 .00316999999999927
 16 284 889 673 ?283 674 669 670 0 0 1 30 672 895 0 674 670 675 0 +.06 .001 .003
16999999999988 -1 0 -404050499062921e-30 16 674 893 676 ?677 678 284 672 0 0 1 3
1 675 898 0 678 672 679 0 +-.05083 .001 -163490025556324e-30 0 -1 0 0 0 -1 .0031
69999999999115 16 678 896 680 ?681 682 674 675 0 0 1 30 679 907 0 682 675 683 0
 +.06 .001 -.003169999999999965 1 0 4040504990629205e-31 16 682 905 684 ?685 686
 678 679 0 0 1 31 683 911 0 686 679 687 0 +-.01817 .001 110396896091108e-32 0 -1
 0 0 0 -1 .00316999999999978 16 686 909 688 ?689 690 682 683 0 0 1 30 687 915 0
 690 683 691 0 +.06 .001 .00316999999999603 -1 0 451638668952545e-28 16 690 913
 692 ?693 694 686 687 0 0 1 31 691 918 0 694 687 695 0 +-.02783 .001 -2881883969
53989e-32 0 -1 0 0 0 -1 .00317 16 694 916 696 ?697 698 690 691 0 0 1 30 695 927
 0 698 691 699 0 +.06 .001 -.00317 1 0 -359155999167041e-30 16 698 925 700 ?701
 702 694 695 0 0 1 31 699 931 0 702 695 20 0 +.02783 .001 -442796735715441e-32 0
 -1 0 0 0 -1 .00317 16 702 929 703 ?704 25 698 699 0 0 1 30 20 935 0 25 699 7 0
 +.06 .001 .00316999999999978 -1 0 66892804844861e-28 16 25 933 705 ?706 10 702
 20 0 0 1 81 2 705 2230 307 25 0 0 659 503 0 0 17 706 0 707 24 704 176 191 25 0
 0 +15 707 922 0 706 708 709 17 24 0 707 701 706 192 188 10 0 0 +17 704 0 707 70
6 701 189 710 702 0 0 +17 191 0 711 254 712 189 706 25 0 713 -15 711 1097 0 254
 714 0 17 254 0 711 363 191 252 713 369 0 359 +17 712 0 711 191 363 176 30 365 0
 706 -17 713 0 715 710 359 189 254 369 0 704 -15 715 1101 0 256 716 0 17 710 0 7
15 256 713 51 704 702 0 701 -17 359 0 715 713 256 252 717 356 0 718 +17 256 0 71
5 359 710 243 53 372 0 355 +17 717 0 719 720 718 243 359 356 0 0 -17 718 0 719 7
17 31 252 363 360 0 0 -15 719 1022 0 720 301 721 17 31 0 719 718 720 240 26 32 0
 0 -17 363 0 711 712 254 240 718 360 0 31 +17 720 0 719 31 717 11 355 351 0 0 -1
7 355 0 722 53 33 243 720 351 0 717 +15 722 1105 0 33 723 0 17 53 0 722 194 355
 51 256 372 0 710 -17 33 0 722 355 194 11 29 364 0 720 +17 194 0 722 33 53 192 7
01 698 0 29 -17 29 0 28 188 26 192 33 364 0 24 -15 28 1093 0 30 724 0 17 188 0 2
8 30 29 176 24 10 0 712 -17 30 0 28 26 188 240 712 365 0 363 +14 255 724 1090 72
5 ?714 726 28 5 727 -0 0 714 726 22 81 1 725 2430 728 724 729 0 0 730 731 14 714
 1094 730 ?716 724 711 5 732 -0 0 716 724 22 14 726 1189 733 ?724 734 735 5 736
 -0 0 724 734 22 51 727 1498 0 724 737 738 0 +.01817 .12 -102180150495376e-32 0
 -1 1700898332149105e-33 .00317 0 -1700898332149105e-33 -1 13 22 90 0 0 0 0 0 0
 9 16 14 16 242 739 ?740 0 741 5 742 -0 0 740 0 22 81 1 739 2433 728 16 743 0 73
3 744 745 14 740 240 744 ?746 16 747 5 748 -0 0 746 16 22 15 741 241 0 479 16 0
 50 255 742 254 0 16 748 749 0 +.06 .0065 .0172 0 0 -1 -1 0 0 50 748 253 0 740 7
50 742 0 +.06 .0065 .0172 0 1 0 0 0 1 51 749 647 0 751 742 752 0 +.06 .001 -.012
5 -1 0 0 .001 0 0 1 14 751 635 753 ?754 755 756 5 749 +0 0 754 755 22 51 752 668
 0 754 749 757 0 +.06 .0055 -.0145 1 0 0 .001 0 0 -1 14 754 656 758 ?759 751 760
 5 752 -0 0 759 751 22 51 757 689 0 759 752 761 0 +.06 .0055 .0145 1 0 0 .001 0
 0 -1 14 759 677 762 ?763 754 764 5 757 -0 0 763 754 22 51 761 710 0 763 757 765
 0 +.06 .001 .0125 -1 0 0 .001 0 0 1 14 763 698 766 ?767 759 768 5 761 +0 0 767
 759 22 51 765 731 0 767 761 769 0 +.06 .002 .0115 1 0 0 .001 0 0 -1 14 767 719
 770 ?771 763 772 5 765 -0 0 771 763 22 51 769 752 0 771 765 19 0 +.06 .0065 .01
35 -1 0 0 .001 0 0 1 14 771 740 773 ?774 767 775 5 769 +0 0 774 767 22 51 19 773
 0 774 769 6 0 +.06 .002 -.0115 1 0 0 .001 0 0 -1 14 774 761 776 ?18 771 777 5 1
9 -0 0 18 771 22 81 1 776 2441 728 774 778 0 773 779 780 14 18 782 779 ?781 774
 782 5 6 +0 0 781 774 22 15 777 762 0 783 774 0 17 783 0 777 784 785 81 80 634 0
 0 -17 784 0 777 140 783 129 83 607 0 0 -17 785 0 777 783 140 78 595 592 0 0 -17
 80 0 786 468 464 78 783 634 0 787 +15 786 4 0 446 788 0 17 468 0 786 74 80 75 7
87 465 0 789 +17 464 0 786 80 86 81 790 461 0 783 +17 787 0 791 595 77 78 468 46
5 0 785 -15 791 223 0 512 708 0 17 595 0 791 512 787 138 785 592 0 792 +17 77 0
 791 787 512 75 793 596 0 468 +17 512 0 791 77 595 135 792 509 0 793 +17 793 0 7
72 146 789 135 77 596 0 0 -15 772 720 0 789 767 0 17 146 0 772 794 793 144 137 6
25 0 591 -17 789 0 772 793 794 75 74 628 0 0 -17 794 0 772 789 146 72 591 588 0
 0 -17 74 0 786 472 468 72 789 628 0 795 +17 472 0 786 68 74 69 795 469 0 796 +1
7 795 0 797 591 71 72 472 469 0 794 -15 797 221 0 795 798 0 17 591 0 797 516 795
 144 794 588 0 799 +17 71 0 797 795 516 69 800 585 0 472 +17 516 0 797 71 591 14
1 799 513 0 800 +17 800 0 775 149 796 141 71 585 0 0 -15 775 741 0 796 771 0 17
 149 0 775 801 800 147 143 544 0 602 -17 796 0 775 800 801 69 68 563 0 0 -17 801
 0 775 796 149 66 602 599 0 0 -17 68 0 786 178 472 66 796 563 0 802 +17 178 0 78
6 433 68 162 802 473 0 803 +17 802 0 804 602 803 66 178 473 0 801 -15 804 219 0
 802 805 0 17 602 0 804 165 802 147 801 599 0 806 +17 803 0 804 802 165 162 521
 476 0 807 -17 165 0 804 803 602 163 806 435 0 521 +17 521 0 741 479 807 163 803
 476 0 808 +17 807 0 741 521 809 162 433 430 0 0 -17 809 0 741 807 479 166 533 5
30 0 0 -17 433 0 786 438 178 166 807 430 0 809 +17 438 0 786 98 433 99 186 434 0
 810 +17 98 0 786 442 438 96 810 622 0 811 +17 186 0 747 533 101 166 438 434 0 4
33 -17 810 0 764 812 813 99 98 622 0 0 -15 764 678 0 810 759 0 17 812 0 764 116
 810 108 101 582 0 0 -17 813 0 764 810 116 96 581 579 0 0 -17 116 0 764 813 812
 114 110 619 0 581 -17 581 0 814 487 811 114 813 579 0 815 +15 814 237 0 811 746
 0 17 487 0 814 95 581 111 815 484 0 816 +17 811 0 814 581 95 96 442 439 0 813 -
17 815 0 817 110 113 114 487 484 0 0 -15 817 121 0 818 755 0 17 110 0 817 175 81
5 108 116 619 0 483 +17 113 0 817 815 819 111 122 547 0 487 +17 819 0 817 113 11
9 120 491 488 0 0 -17 122 0 768 820 816 120 113 547 0 556 -15 768 699 0 821 763
 0 17 820 0 768 821 122 105 556 553 0 0 -17 816 0 768 122 821 111 95 576 0 0 -17
 556 0 822 491 823 120 820 553 0 819 +15 822 235 0 491 301 0 17 491 0 822 104 55
6 117 819 488 0 824 +17 823 0 822 556 104 105 446 443 0 820 -17 104 0 822 823 49
1 102 824 557 0 446 +17 446 0 786 155 107 102 823 443 0 825 +17 155 0 786 450 44
6 153 825 569 0 826 +17 107 0 786 446 442 105 821 566 0 823 +17 825 0 756 824 82
7 102 155 569 0 0 -15 756 636 0 825 751 0 17 824 0 756 161 825 117 104 557 0 0 -
17 827 0 756 825 161 153 540 537 0 0 -17 161 0 756 827 824 159 119 550 0 540 -17
 540 0 828 494 826 159 827 537 0 818 +15 828 233 0 826 829 0 17 494 0 828 152 54
0 156 818 492 0 830 +17 826 0 828 540 152 153 450 447 0 827 -17 818 0 817 119 15
8 159 494 492 0 0 -17 119 0 817 819 818 117 161 550 0 491 +17 158 0 817 818 831
 156 125 613 0 494 +17 831 0 817 158 832 123 172 495 0 0 -17 125 0 760 833 830 1
23 158 613 0 575 -15 760 657 0 834 754 0 17 833 0 760 834 125 90 575 572 0 0 -17
 830 0 760 125 834 156 152 534 0 0 -17 575 0 835 172 836 123 833 572 0 831 +15 8
35 231 0 836 837 0 17 172 0 835 838 575 170 831 495 0 529 +17 836 0 835 575 838
 90 184 451 0 833 -17 838 0 835 836 172 182 529 526 0 839 -17 184 0 786 181 92 1
82 836 451 0 838 +17 181 0 786 460 184 179 839 454 0 840 +17 92 0 786 184 450 90
 834 616 0 836 +17 450 0 786 92 155 150 826 447 0 834 +17 834 0 760 830 833 150
 92 616 0 0 -17 460 0 786 86 181 87 841 457 0 842 +17 839 0 843 529 840 182 181
 454 0 0 -17 840 0 843 839 169 179 525 522 0 841 -15 843 229 0 169 844 0 17 169
 0 843 840 529 167 832 498 0 525 +17 525 0 845 504 841 167 840 522 0 846 +17 841
 0 845 525 89 179 460 457 0 0 -15 845 227 0 504 847 0 17 89 0 845 841 504 87 848
 610 0 460 +17 504 0 845 89 525 126 846 501 0 848 +17 848 0 782 134 842 126 89 6
10 0 0 -15 782 783 0 842 18 0 17 134 0 782 849 848 132 128 541 0 606 -17 842 0 7
82 848 849 87 86 560 0 0 -17 849 0 782 842 134 84 606 603 0 0 -17 86 0 786 464 4
60 84 842 560 0 790 +17 790 0 850 606 83 84 464 461 0 849 -15 850 225 0 508 851
 0 17 606 0 850 508 790 132 849 603 0 852 +17 83 0 850 790 508 81 784 607 0 464
 +17 508 0 850 83 606 129 852 505 0 784 +17 852 0 817 128 131 132 508 505 0 0 -1
7 128 0 817 846 852 126 134 541 0 504 +17 131 0 817 852 792 129 140 631 0 508 +1
7 792 0 817 131 137 138 512 509 0 0 -17 140 0 777 785 784 138 131 631 0 595 -17
 137 0 817 792 799 135 146 625 0 512 +17 799 0 817 137 143 144 516 513 0 0 -17 1
43 0 817 799 806 141 149 544 0 516 +17 806 0 817 143 808 147 165 435 0 0 -17 808
 0 817 806 175 163 479 420 0 0 -17 175 0 817 808 110 173 483 480 0 533 -17 479 0
 741 809 521 173 808 420 0 0 +17 483 0 747 101 533 108 175 480 0 812 +17 533 0 7
47 483 186 173 809 530 0 479 +15 747 239 0 483 740 0 17 101 0 747 186 483 99 812
 582 0 438 +17 846 0 817 832 128 167 504 501 0 0 -17 832 0 817 831 846 170 169 4
98 0 0 -14 851 226 853 ?708 847 850 5 854 -0 0 708 847 22 81 1 853 2443 728 851
 855 0 779 856 857 14 708 224 856 ?798 851 707 5 858 -0 0 798 851 22 14 847 228
 859 ?851 844 845 5 860 -0 0 851 844 22 50 854 246 0 851 858 860 0 +.06 .001 -.0
125 0 800641604296988e-30 -1 0 1 800641604296988e-30 50 858 245 0 708 861 854 0
 +.06 .001 .0125 0 -1 0 0 0 -1 50 860 247 0 847 854 862 0 +.06 .0075 -.0125 0 -1
 0 0 0 -1 50 862 248 0 844 860 863 0 +.06 .0075 -.0178 0 0 1 1 0 0 14 844 230 86
4 ?847 837 843 5 862 -0 0 847 837 22 50 863 249 0 837 862 865 0 +.06 .0065 -.013
5 0 1 0 0 0 1 14 837 232 866 ?844 829 835 5 863 -0 0 844 829 22 50 865 250 0 829
 863 867 0 +.06 459242549680255e-34 -.0135 0 -2668805347656625e-31 1 0 -1 -26688
05347656625e-31 14 829 234 868 ?837 301 828 5 865 -0 0 837 301 22 50 867 251 0 3
01 865 750 0 +.06 918485099360512e-34 .0135 0 1 -1700898332149105e-33 0 17008983
32149105e-33 1 14 301 236 869 ?829 746 719 5 867 -0 0 829 746 22 50 750 252 0 74
6 867 748 0 +.06 .0065 .0135 0 0 -1 -1 0 0 14 746 238 870 ?301 740 814 5 750 -0
 0 301 740 22 81 1 870 2450 728 746 871 0 869 872 873 80 255 1 728 874 875 9000
 1 1 1 1 1 1 1 1 0 FFFFTFTFFFFFFF1 81 1 871 2303 876 746 877 870 878 879 880 81
 1 869 2449 728 301 879 0 868 870 881 81 1 872 2451 728 798 882 0 870 883 884 82
 255 1 873 -1853751182 14 798 222 872 ?805 708 797 5 861 -0 0 805 708 22 81 1 88
2 2311 876 798 885 872 886 887 888 81 1 883 2452 728 805 887 0 872 889 890 82 1
 884 -1855848334 14 805 220 883 ?788 798 804 5 891 -0 0 788 798 22 81 1 887 2312
 876 805 892 883 882 893 894 81 1 889 2453 728 788 893 0 883 895 896 82 1 890 -1
856110478 14 788 1 889 ?755 805 786 5 897 -0 0 755 805 22 81 1 893 2313 876 788
 898 889 887 899 900 81 1 895 2454 728 755 899 0 889 901 902 82 1 896 -187367412
6 14 755 120 895 ?751 788 817 5 903 +0 0 751 788 22 81 1 899 2314 876 755 904 89
5 893 905 906 81 1 901 2455 728 781 907 0 895 908 909 82 1 902 -1858600846 14 78
1 1438 901 ?910 18 911 5 912 -0 0 910 18 22 81 1 907 2323 876 781 913 901 914 91
5 916 81 1 908 2456 728 910 915 0 901 917 918 82 1 909 -1675034508 14 910 1442 9
08 ?919 781 920 5 921 -0 0 919 781 22 81 1 915 2324 876 910 922 908 907 923 924
 81 1 917 2457 728 919 923 0 908 925 926 82 1 918 -1675493260 14 919 1446 917 ?9
27 910 928 5 929 -0 0 927 910 22 81 1 923 2325 876 919 930 917 915 931 932 81 1
 925 2458 728 927 931 0 917 933 934 82 1 926 -1676279692 14 927 1450 925 ?935 91
9 936 5 937 -0 0 935 919 22 81 1 931 2326 876 927 938 925 923 939 940 81 1 933 2
459 728 935 939 0 925 941 942 82 1 934 -1677066124 14 935 1351 933 ?943 927 944
 5 945 -0 0 943 927 22 81 1 939 2327 876 935 946 933 931 947 948 81 1 941 2460 7
28 943 947 0 933 949 950 82 1 942 -1671888780 14 943 1355 941 ?951 935 952 5 953
 -0 0 951 935 22 81 1 947 2328 876 943 954 941 939 955 956 81 1 949 2461 728 951
 955 0 941 957 958 82 1 950 -1672347532 14 951 1359 949 ?959 943 960 5 961 -0 0
 959 943 22 81 1 955 2329 876 951 962 949 947 963 964 81 1 957 2462 728 959 963
 0 949 965 966 82 1 958 -1673133964 14 959 1363 957 ?967 951 968 5 969 -0 0 967
 951 22 81 1 963 2330 876 959 970 957 955 971 972 81 1 965 2463 728 967 971 0 95
7 973 974 82 1 966 -1673920396 14 967 1264 965 ?975 959 976 5 977 -0 0 975 959 2
2 81 1 971 2331 876 967 978 965 963 979 980 81 1 973 2464 728 975 979 0 965 981
 982 82 1 974 -1668743052 14 975 1268 973 ?278 967 983 5 984 -0 0 278 967 22 81
 1 979 2332 876 975 985 973 971 986 987 81 1 981 2465 728 278 986 0 973 988 989
 82 1 982 -1669201804 14 278 1272 981 ?294 975 273 5 990 -0 0 294 975 22 81 1 98
6 2333 876 278 991 981 979 992 993 81 1 988 2466 728 294 992 0 981 994 995 82 1
 989 -1669988236 14 294 1276 988 ?996 278 286 5 997 -0 0 996 278 22 81 1 992 233
4 876 294 998 988 986 999 1000 81 1 994 2467 728 996 999 0 988 1001 1002 82 1 99
5 -1670774668 14 996 1177 994 ?1003 294 36 5 1004 -0 0 1003 294 22 81 1 999 2335
 876 996 1005 994 992 1006 1007 81 1 1001 2468 728 1003 1006 0 994 1008 1009 82
 1 1002 -1665597324 14 1003 1181 1001 ?734 996 1010 5 738 -0 0 734 996 22 81 1 1
006 2336 876 1003 1011 1001 999 1012 1013 81 1 1008 2469 728 734 1012 0 1001 101
4 1015 82 1 1009 -1666056076 14 734 1185 1008 ?726 1003 1016 5 1017 -0 0 726 100
3 22 81 1 1012 2337 876 734 1018 1008 1006 1019 1020 81 1 1014 2470 728 716 1021
 0 1008 1022 1023 82 1 1015 -1666842508 14 716 1098 1014 ?723 714 715 5 1024 -0
 0 723 714 22 81 1 1021 2341 876 716 1025 1014 1026 1027 1028 81 1 1022 2471 728
 723 1027 0 1014 0 1029 82 1 1023 -1663696780 14 723 1102 1022 ?0 716 722 5 737
 -0 0 0 716 22 81 1 1027 2342 876 723 1030 1022 1021 0 1031 82 1 1029 -166448321
2 80 1 876 0 1032 8001 0 0 0 0 3 5 0 0 0 FFFFTFTFFFFFFF2 81 2 1030 2018 1033 723
 0 1027 1025 0 0 0 83 255 3 1031 .776470588235294 .756862745098039 .737254901960
784 80 2 1033 1034 1035 9000 0 0 0 0 3 6 0 0 0 FFFFTFFFFFFFFF9 1 81 2 1025 2016
 1033 716 0 1021 1036 1030 0 0 81 2 1036 2014 1033 714 0 1026 1037 1025 0 0 81 1
 1026 2340 876 714 1036 730 729 1021 1038 81 2 1037 2012 1033 724 0 729 1039 103
6 0 0 81 1 729 2339 876 724 1037 725 1019 1026 1040 81 2 1039 2010 1033 726 0 10
19 1018 1037 0 0 81 1 1019 2338 876 726 1039 733 1012 729 1041 81 2 1018 2008 10
33 734 0 1012 1011 1039 0 0 81 2 1011 2006 1033 1003 0 1006 1005 1018 0 0 81 2 1
005 2004 1033 996 0 999 998 1011 0 0 81 2 998 2002 1033 294 0 992 991 1005 0 0 8
1 2 991 2000 1033 278 0 986 985 998 0 0 81 2 985 1998 1033 975 0 979 978 991 0 0
 81 2 978 1996 1033 967 0 971 970 985 0 0 81 2 970 1994 1033 959 0 963 962 978 0
 0 81 2 962 1992 1033 951 0 955 954 970 0 0 81 2 954 1990 1033 943 0 947 946 962
 0 0 81 2 946 1988 1033 935 0 939 938 954 0 0 81 2 938 1986 1033 927 0 931 930 9
46 0 0 81 2 930 1984 1033 919 0 923 922 938 0 0 81 2 922 1982 1033 910 0 915 913
 930 0 0 81 2 913 1980 1033 781 0 907 1042 922 0 0 81 2 1042 1978 1033 18 0 914
 1043 913 0 0 81 1 914 2322 876 18 1042 779 778 907 1044 81 2 1043 1976 1033 774
 0 778 1045 1042 0 0 81 1 778 2321 876 774 1043 776 1046 914 1047 81 2 1045 1974
 1033 771 0 1046 1048 1043 0 0 81 1 1046 2320 876 771 1045 773 1049 778 1050 81
 2 1048 1972 1033 767 0 1049 1051 1045 0 0 81 1 1049 2319 876 767 1048 770 1052
 1046 1053 81 2 1051 1970 1033 763 0 1052 1054 1048 0 0 81 1 1052 2318 876 763 1
051 766 1055 1049 1056 81 2 1054 1968 1033 759 0 1055 1057 1051 0 0 81 1 1055 23
17 876 759 1054 762 1058 1052 1059 81 2 1057 1966 1033 754 0 1058 1060 1054 0 0
 81 1 1058 2316 876 754 1057 758 905 1055 1061 81 2 1060 1964 1033 751 0 905 904
 1057 0 0 81 1 905 2315 876 751 1060 753 899 1058 1062 81 2 904 1962 1033 755 0
 899 898 1060 0 0 81 2 898 1960 1033 788 0 893 892 904 0 0 81 2 892 1958 1033 80
5 0 887 885 898 0 0 81 2 885 1956 1033 798 0 882 1063 892 0 0 81 2 1063 1954 103
3 708 0 886 1064 885 0 0 81 1 886 2310 876 708 1063 856 855 882 1065 81 2 1064 1
952 1033 851 0 855 1066 1063 0 0 81 1 855 2309 876 851 1064 853 1067 886 1068 81
 2 1066 1950 1033 847 0 1067 1069 1064 0 0 81 1 1067 2308 876 847 1066 859 1070
 855 1071 81 2 1069 1948 1033 844 0 1070 1072 1066 0 0 81 1 1070 2307 876 844 10
69 864 1073 1067 1074 81 2 1072 1946 1033 837 0 1073 1075 1069 0 0 81 1 1073 230
6 876 837 1072 866 1076 1070 1077 81 2 1075 1944 1033 829 0 1076 1078 1072 0 0 8
1 1 1076 2305 876 829 1075 868 879 1073 1079 81 2 1078 1942 1033 301 0 879 877 1
075 0 0 81 1 879 2304 876 301 1078 869 871 1076 1080 81 2 877 1940 1033 746 0 87
1 1081 1078 0 0 81 2 1081 1938 1033 740 0 878 1082 877 0 0 81 1 878 2302 876 740
 1081 744 743 871 1083 81 2 1082 1936 1033 16 0 743 0 1081 0 0 81 1 743 2301 876
 16 1082 739 0 878 1084 83 3 1084 .776470588235294 .756862745098039 .73725490196
0784 81 1 744 2434 728 740 878 0 739 753 1085 83 3 1083 .776470588235294 .756862
745098039 .737254901960784 81 1 753 2435 728 751 905 0 744 758 1086 82 1 1085 -1
853489038 81 1 758 2436 728 754 1058 0 753 762 1087 82 1 1086 -1841627022 81 1 7
62 2437 728 759 1055 0 758 766 1088 82 1 1087 -1839660942 81 1 766 2438 728 763
 1052 0 762 770 1089 82 1 1088 -1837694862 81 1 770 2439 728 767 1049 0 766 773
 1090 82 1 1089 -1835728782 81 1 773 2440 728 771 1046 0 770 776 1091 82 1 1090
 -1833762702 82 1 1091 -1831796622 83 3 1080 .776470588235294 .756862745098039 .
737254901960784 81 1 868 2448 728 829 1076 0 866 869 1092 83 3 1079 .77647058823
5294 .756862745098039 .737254901960784 81 1 866 2447 728 837 1073 0 864 868 1093
 82 1 1092 -1854275470 81 1 864 2446 728 844 1070 0 859 866 1094 82 1 1093 -1854
537614 81 1 859 2445 728 847 1067 0 856 864 1095 82 1 1094 -1854799759 81 1 856
 2444 728 708 886 0 853 859 1096 82 1 1095 -1855061902 82 1 1096 -1855586188 83
 3 1077 .776470588235294 .756862745098039 .737254901960784 83 3 1074 .7764705882
35294 .756862745098039 .737254901960784 83 3 1071 .776470588235294 .756862745098
039 .737254901960784 83 3 1068 .776470588235294 .756862745098039 .73725490196078
4 83 3 1065 .776470588235294 .756862745098039 .737254901960784 83 3 1062 .776470
588235294 .756862745098039 .737254901960784 83 3 1061 .776470588235294 .75686274
5098039 .737254901960784 83 3 1059 .776470588235294 .756862745098039 .7372549019
60784 83 3 1056 .776470588235294 .756862745098039 .737254901960784 83 3 1053 .77
6470588235294 .756862745098039 .737254901960784 83 3 1050 .776470588235294 .7568
62745098039 .737254901960784 83 3 1047 .776470588235294 .756862745098039 .737254
901960784 81 1 779 2442 728 18 914 0 776 853 1097 83 3 1044 .776470588235294 .75
6862745098039 .737254901960784 82 1 1097 -1827864462 81 1 733 2432 728 726 1019
 0 730 739 1098 83 3 1041 .776470588235294 .756862745098039 .737254901960784 81
 1 730 2431 728 714 1026 0 725 733 1099 82 1 1098 -1667628940 82 1 1099 -1662910
348 83 3 1040 .776470588235294 .756862745098039 .737254901960784 83 3 1038 .7764
70588235294 .756862745098039 .737254901960784 79 255 14 1035 FACE_ID_2_200179 15
 1032 SDL/TYSA_COLOUR50 737 1499 0 723 1024 727 0 +.01817 .12 -.00317 -359155999
167041e-30 -1700898332149105e-33 -1 -1 0 359155999167041e-30 51 1024 1500 0 716
 732 737 0 +.02783 .12 -463037425868015e-32 0 -1 1700898332149105e-33 .00317 0 -
1700898332149105e-33 -1 50 732 1501 0 714 945 1024 0 +.01817 .12 .00317000000000
006 66892804844861e-28 1700898332149105e-33 1 1 0 -66892804844861e-28 51 945 150
4 0 935 969 732 0 +.04117 .12 -102180150495376e-32 0 -1 1700898332149105e-33 .00
317 0 -1700898332149105e-33 -1 50 969 1505 0 959 961 945 0 +.04117 .12 -.00317 -
359155999167041e-30 -1700898332149105e-33 -1 -1 0 359155999167041e-30 51 961 150
6 0 951 953 969 0 +.05083 .12 -463037425868015e-32 0 -1 1700898332149105e-33 .00
317 0 -1700898332149105e-33 -1 50 953 1507 0 943 977 961 0 +.04117 .12 .00317 35
91559991670415e-31 1700898332149105e-33 1 1 0 -3591559991670415e-31 51 977 1510
 0 967 997 953 0 +-.05083 .12 -16369243245785e-29 0 -1 1700898332149105e-33 .003
169999999999115 0 -1700898332149105e-33 -1 50 997 1511 0 294 990 977 0 +-.05083
 .12 -.003169999999998395 -315159389269078e-28 -1700898332149105e-33 -1 -1 0 315
159389269078e-28 51 990 1512 0 278 984 997 0 +-.04117 .12 -159706579527399e-30 0
 -1 1700898332149105e-33 .00316999999999927 0 -1700898332149105e-33 -1 50 984 15
13 0 975 0 990 0 +-.05083 .12 .003169999999999835 -404050499062921e-30 170089833
2149105e-33 1 1 0 404050499062921e-30 83 3 1028 .776470588235294 .75686274509803
9 .737254901960784 83 3 1020 .776470588235294 .756862745098039 .737254901960784
 15 1016 1188 0 249 734 0 51 1017 1494 0 734 738 736 0 +-.01817 .12 901562059385
336e-33 0 -1 1700898332149105e-33 .00316999999999978 0 -1700898332149105e-33 -1
 50 738 1495 0 1003 727 1017 0 +-.02783 .12 .00317 451638668952545e-28 170089833
2149105e-33 1 1 0 -451638668952545e-28 50 736 1493 0 726 1017 1004 0 +-.02783 .1
2 -.00317 4040504990629205e-31 -1700898332149105e-33 -1 -1 0 -4040504990629205e-
31 51 1004 1492 0 996 736 921 0 +-.02783 .12 -3084290871065635e-33 0 -1 17008983
32149105e-33 .00317 0 -1700898332149105e-33 -1 50 921 1489 0 910 1004 929 0 +-.0
0483 .12 .00316999999999958 -4341298139931605e-29 1700898332149105e-33 1 1 0 434
1298139931605e-29 51 929 1488 0 919 921 937 0 +.00483 .12 -19388312758347e-31 0
 -1 1700898332149105e-33 .00317 0 -1700898332149105e-33 -1 50 937 1487 0 927 929
 912 0 +-.00483 .12 -.00317 0 -1700898332149105e-33 -1 0 1 -1700898332149105e-33
 51 912 1486 0 781 937 897 0 +-.00483 .12 -419181868461034e-30 0 -1 170089833214
9105e-33 .00316999999999979 0 -1700898332149105e-33 -1 50 897 3 0 788 912 903 0
 +.06 0 0 -1 0 0 0 0 1 50 903 182 0 755 897 891 0 +-.06 0 0 -1 0 0 0 0 1 50 891
 243 0 805 903 861 0 +.06 .0075 .0172 0 -1 0 0 0 -1 50 861 244 0 798 891 858 0 +
.06 .0075 .0125 0 -2668805347656625e-31 1 0 -1 -2668805347656625e-31 17 249 0 10
16 386 1100 247 56 397 0 382 +17 386 0 1016 1101 249 244 1102 383 0 1103 +17 110
0 0 1016 249 1101 54 689 686 0 685 -17 56 0 735 203 382 54 249 397 0 1100 -17 38
2 0 735 56 41 247 1104 379 0 1102 +15 735 1192 0 41 726 0 17 41 0 735 382 203 27
 37 391 0 1104 +17 1104 0 721 39 1102 27 382 379 0 0 -17 1102 0 721 1104 1103 24
7 386 383 0 0 -15 721 1002 0 1104 301 296 17 1103 0 721 1102 39 244 390 387 0 0
 -17 39 0 721 1103 1104 241 34 40 0 0 -17 390 0 1010 1105 246 241 1103 387 0 39
 +15 1010 1184 0 246 1003 0 17 1105 0 1010 200 390 195 38 352 0 693 -17 246 0 10
10 390 200 244 1101 394 0 386 +17 200 0 1010 246 1105 198 693 690 0 1101 -17 110
1 0 1016 1100 386 198 246 394 0 689 -17 689 0 709 693 685 198 1100 686 0 0 +15 7
09 902 0 693 708 1106 17 693 0 709 697 689 195 200 690 0 0 +17 685 0 709 689 697
 54 203 682 0 0 +17 697 0 709 685 693 201 197 694 0 0 +17 203 0 735 41 56 201 68
5 682 0 37 -17 37 0 36 197 34 201 41 391 0 697 -15 36 1180 0 38 996 0 17 197 0 3
6 38 37 195 697 694 0 1105 -17 38 0 36 34 197 241 1105 352 0 390 +15 1106 882 0
 677 708 1107 17 677 0 1106 681 283 204 209 674 0 0 +15 1107 862 0 664 708 1108
 17 664 0 1107 668 660 213 218 661 0 0 +15 1108 842 0 648 708 791 17 648 0 1108
 652 644 222 227 645 0 0 +17 652 0 1108 640 648 228 224 649 0 0 +17 644 0 1108 6
48 640 225 1109 641 0 0 +17 227 0 920 236 1110 225 648 645 0 1111 -15 920 1445 0
 236 910 0 17 236 0 920 415 227 234 1111 421 0 411 +17 1110 0 920 227 415 222 23
3 417 0 648 -17 1111 0 928 1109 411 225 236 421 0 644 -15 928 1449 0 239 919 0 1
7 1109 0 928 239 1111 63 644 641 0 640 -17 411 0 928 1111 239 234 1112 408 0 111
3 +17 239 0 928 411 1109 237 65 424 0 407 +17 1112 0 1114 1115 1113 237 411 408
 0 0 -17 1113 0 1114 1112 1116 234 415 412 0 0 -15 1114 942 0 1115 301 822 17 11
16 0 1114 1113 1115 231 50 368 0 0 -17 415 0 920 1110 236 231 1113 412 0 1116 +1
7 1115 0 1114 1116 1112 48 407 404 0 0 -17 50 0 911 1117 233 48 1116 368 0 429 +
15 911 1441 0 233 781 0 17 1117 0 911 224 50 228 429 416 0 652 -17 233 0 911 50
 224 231 1110 417 0 415 +17 429 0 936 407 230 48 1117 416 0 1115 +15 936 1453 0
 429 927 0 17 407 0 936 65 429 237 1115 404 0 1112 +17 230 0 936 429 65 228 640
 637 0 1117 -17 65 0 936 230 407 63 239 424 0 1109 -17 640 0 1108 644 652 63 230
 637 0 0 +17 224 0 911 233 1117 222 652 649 0 1110 -17 668 0 1107 656 664 219 21
5 665 0 0 +17 660 0 1107 664 656 216 1118 657 0 0 +17 218 0 952 263 1119 216 664
 661 0 1120 -15 952 1358 0 263 943 0 17 263 0 952 335 218 261 1120 340 0 331 +17
 1119 0 952 218 335 213 259 337 0 664 -17 1120 0 960 1118 331 216 263 340 0 660
 -15 960 1362 0 266 951 0 17 1118 0 960 266 1120 60 660 657 0 656 -17 331 0 960
 1120 266 261 1121 328 0 1122 +17 266 0 960 331 1118 264 62 343 0 327 +17 1121 0
 302 1123 1122 264 331 328 0 0 -17 1122 0 302 1121 1124 261 335 332 0 0 -15 302
 962 0 1123 301 1114 17 1124 0 302 1122 1123 257 47 321 0 0 -17 335 0 952 1119 2
63 257 1122 332 0 1124 +17 1123 0 302 1124 1121 43 327 324 0 0 -17 47 0 944 1125
 259 43 1124 321 0 348 +15 944 1354 0 259 935 0 17 1125 0 944 215 47 219 348 336
 0 668 -17 259 0 944 47 215 257 1119 337 0 335 +17 348 0 968 327 221 43 1125 336
 0 1123 +15 968 1366 0 348 959 0 17 327 0 968 62 348 264 1123 324 0 1121 +17 221
 0 968 348 62 219 656 653 0 1125 -17 62 0 968 221 327 60 266 343 0 1118 -17 656
 0 1107 660 668 60 221 653 0 0 +17 215 0 944 259 1125 213 668 665 0 1119 -17 681
 0 1106 285 677 210 206 678 0 0 +17 283 0 1106 677 285 207 275 284 0 0 +17 209 0
 983 271 1126 207 677 674 0 279 -15 983 1271 0 271 975 0 17 271 0 983 303 209 26
9 279 288 0 274 +17 1126 0 983 209 303 204 268 314 0 677 -17 279 0 273 275 274 2
07 271 288 0 283 -17 303 0 983 1126 271 250 282 304 0 297 +17 268 0 976 42 206 2
50 1126 314 0 303 +15 976 1267 0 268 967 0 17 42 0 976 295 268 35 297 299 0 291
 +17 206 0 976 268 295 204 681 678 0 1126 -17 295 0 976 206 42 210 291 289 0 681
 -17 297 0 296 282 292 250 42 299 0 0 -16 299 1240 1127 ?42 293 337 312 0 0 1 81
 2 1127 2222 307 299 0 0 555 350 0 0 31 312 1571 0 299 0 300 0 +-.05083 -2780770
187366295e-49 -163488324657992e-30 0 -1 1700898332149105e-33 0 -1700898332149105
e-33 -1 .003169999999999115 80 2 307 1128 1129 9000 0 0 0 0 3 6 0 0 0 FFFFFFTFFF
FFFF9 1 81 2 555 2221 307 553 0 0 700 1127 0 0 81 2 350 2223 307 32 0 0 1127 432
 0 0 81 2 432 2224 307 430 0 0 350 287 0 0 81 2 287 2225 307 276 0 0 432 347 0 0
 81 2 347 2226 307 336 0 0 287 552 0 0 81 2 552 2227 307 550 0 0 347 471 0 0 81
 2 471 2228 307 469 0 0 552 659 0 0 81 2 659 2229 307 657 0 0 471 705 0 0 81 2 7
00 2220 307 698 0 0 515 555 0 0 81 2 515 2219 307 513 0 0 543 700 0 0 81 2 543 2
218 307 541 0 0 578 515 0 0 81 2 578 2217 307 576 0 0 497 543 0 0 81 2 497 2216
 307 495 0 0 459 578 0 0 81 2 459 2215 307 457 0 0 463 497 0 0 81 2 463 2214 307
 461 0 0 688 459 0 0 81 2 688 2213 307 686 0 0 667 463 0 0 81 2 667 2212 307 665
 0 0 633 688 0 0 81 2 633 2211 307 631 0 0 559 667 0 0 81 2 559 2210 307 557 0 0
 598 633 0 0 81 2 598 2209 307 596 0 0 636 559 0 0 81 2 636 2208 307 634 0 0 358
 598 0 0 81 2 358 2207 307 356 0 0 330 636 0 0 81 2 330 2206 307 328 0 0 453 358
 0 0 81 2 453 2205 307 451 0 0 612 330 0 0 81 2 612 2204 307 610 0 0 696 453 0 0
 81 2 696 2203 307 694 0 0 467 612 0 0 81 2 467 2202 307 465 0 0 618 696 0 0 81
 2 618 2201 307 616 0 0 621 467 0 0 81 2 621 2200 307 619 0 0 546 618 0 0 81 2 5
46 2199 307 544 0 0 532 621 0 0 81 2 532 2198 307 530 0 0 298 546 0 0 81 2 298 2
197 307 293 0 0 456 532 0 0 81 2 456 2196 307 454 0 0 605 298 0 0 81 2 605 2195
 307 603 0 0 671 456 0 0 81 2 671 2194 307 669 0 0 475 605 0 0 81 2 475 2193 307
 473 0 0 419 671 0 0 81 2 419 2192 307 417 0 0 423 475 0 0 81 2 423 2191 307 421
 0 0 317 419 0 0 81 2 317 2190 307 288 0 0 367 423 0 0 81 2 367 2189 307 365 0 0
 478 317 0 0 81 2 478 2188 307 420 0 0 381 367 0 0 81 2 381 2187 307 379 0 0 389
 478 0 0 81 2 389 2186 307 387 0 0 528 381 0 0 81 2 528 2185 307 526 0 0 507 389
 0 0 81 2 507 2184 307 505 0 0 676 528 0 0 81 2 676 2183 307 674 0 0 655 507 0 0
 81 2 655 2182 307 653 0 0 345 676 0 0 81 2 345 2181 307 343 0 0 0 655 0 0 79 19
 1129 EDGE_PERM_ID_2_200317 285 0 1106 283 681 57 212 669 0 0 +17 212 0 286 291
 59 210 285 669 0 295 -83 3 1013 .776470588235294 .756862745098039 .737254901960
784 83 3 1007 .776470588235294 .756862745098039 .737254901960784 83 3 1000 .7764
70588235294 .756862745098039 .737254901960784 83 3 993 .776470588235294 .7568627
45098039 .737254901960784 83 3 987 .776470588235294 .756862745098039 .7372549019
60784 83 3 980 .776470588235294 .756862745098039 .737254901960784 83 3 972 .7764
70588235294 .756862745098039 .737254901960784 83 3 964 .776470588235294 .7568627
45098039 .737254901960784 83 3 956 .776470588235294 .756862745098039 .7372549019
60784 83 3 948 .776470588235294 .756862745098039 .737254901960784 83 3 940 .7764
70588235294 .756862745098039 .737254901960784 83 3 932 .776470588235294 .7568627
45098039 .737254901960784 83 3 924 .776470588235294 .756862745098039 .7372549019
60784 83 3 916 .776470588235294 .756862745098039 .737254901960784 83 3 906 .7764
70588235294 .756862745098039 .737254901960784 83 3 900 .776470588235294 .7568627
45098039 .737254901960784 83 3 894 .776470588235294 .756862745098039 .7372549019
60784 83 3 888 .776470588235294 .756862745098039 .737254901960784 82 1 881 -1854
013324 83 3 880 .776470588235294 .756862745098039 .737254901960784 79 14 875 SWE
ntUnchanged82 1 857 -1855324046 17 529 0 843 169 839 170 838 526 0 832 +17 152 0
 828 826 494 150 830 534 0 450 +17 442 0 786 107 98 93 811 439 0 821 +17 821 0 7
68 816 820 93 107 566 0 0 -17 95 0 814 811 487 93 816 576 0 442 +82 1 780 -18298
30542 82 1 745 -1853226895 82 1 731 -1662451596 17 701 0 707 704 24 51 194 698 0
 0 +81 2 503 2231 307 501 0 0 705 308 0 0 81 2 308 2232 307 492 0 0 503 305 0 0
 81 2 703 2258 307 702 0 0 643 524 0 0 81 2 643 2257 307 641 0 0 571 703 0 0 81
 2 524 2259 307 522 0 0 703 536 0 0 81 2 536 2260 307 534 0 0 524 334 0 0 81 2 3
34 2261 307 332 0 0 536 310 0 0 81 2 310 2262 307 304 0 0 334 362 0 0 81 2 362 2
263 307 360 0 0 310 371 0 0 81 2 371 2264 307 369 0 0 362 342 0 0 81 2 342 2265
 307 340 0 0 371 590 0 0 81 2 590 2266 307 588 0 0 342 511 0 0 81 2 511 2267 307
 509 0 0 590 684 0 0 81 2 684 2268 307 682 0 0 511 410 0 0 81 2 410 2269 307 408
 0 0 684 374 0 0 81 2 374 2270 307 372 0 0 410 396 0 0 81 2 396 2271 307 394 0 0
 374 627 0 0 81 2 627 2272 307 625 0 0 396 673 0 0 81 2 673 2273 307 284 0 0 627
 23 0 0 81 2 23 2274 307 10 0 0 673 500 0 0 81 2 500 2275 307 498 0 0 23 445 0 0
 81 2 445 2276 307 443 0 0 500 437 0 0 81 2 437 2277 307 434 0 0 445 316 0 0 81
 2 316 2278 307 314 0 0 437 647 0 0 81 2 647 2279 307 645 0 0 316 539 0 0 81 2 5
39 2280 307 537 0 0 647 326 0 0 81 2 326 2281 307 324 0 0 539 378 0 0 81 2 378 2
282 307 40 0 0 326 486 0 0 81 2 486 2283 307 484 0 0 378 428 0 0 81 2 428 2284 3
07 416 0 0 486 565 0 0 81 2 565 2285 307 563 0 0 428 663 0 0 81 2 663 2286 307 6
61 0 0 565 692 0 0 81 2 692 2287 307 690 0 0 663 323 0 0 81 2 323 2288 307 321 0
 0 692 584 0 0 81 2 584 2289 307 582 0 0 323 615 0 0 81 2 615 2290 307 613 0 0 5
84 630 0 0 81 2 630 2291 307 628 0 0 615 601 0 0 81 2 601 2292 307 599 0 0 630 6
39 0 0 81 2 639 2293 307 637 0 0 601 574 0 0 81 2 574 2294 307 572 0 0 639 414 0
 0 81 2 414 2295 307 412 0 0 574 393 0 0 81 2 393 2296 307 352 0 0 414 339 0 0 8
1 2 339 2297 307 337 0 0 393 651 0 0 81 2 651 2298 307 649 0 0 339 490 0 0 81 2
 490 2299 307 488 0 0 651 482 0 0 81 2 482 2300 307 480 0 0 490 0 0 0 81 2 571 2
256 307 569 0 0 624 643 0 0 81 2 624 2255 307 622 0 0 426 571 0 0 81 2 426 2254
 307 424 0 0 401 624 0 0 81 2 401 2253 307 391 0 0 354 426 0 0 81 2 354 2252 307
 351 0 0 385 401 0 0 81 2 385 2251 307 383 0 0 403 354 0 0 81 2 403 2250 307 368
 0 0 609 385 0 0 81 2 609 2249 307 607 0 0 680 403 0 0 81 2 680 2248 307 678 0 0
 587 609 0 0 81 2 587 2247 307 585 0 0 320 680 0 0 81 2 320 2246 307 289 0 0 441
 587 0 0 81 2 441 2245 307 439 0 0 449 320 0 0 81 2 449 2244 307 447 0 0 562 441
 0 0 81 2 562 2243 307 560 0 0 549 449 0 0 81 2 549 2242 307 547 0 0 399 562 0 0
 81 2 399 2241 307 397 0 0 520 549 0 0 81 2 520 2240 307 476 0 0 406 399 0 0 81
 2 406 2239 307 404 0 0 594 520 0 0 81 2 594 2238 307 592 0 0 518 406 0 0 81 2 5
18 2237 307 435 0 0 568 594 0 0 81 2 568 2236 307 566 0 0 376 518 0 0 81 2 376 2
235 307 364 0 0 309 568 0 0 81 2 309 2234 307 579 0 0 305 376 0 0 19 17 268 0 1
 0 9 5 S0 74 4 CI16 index_map_offset0 0 1 dCCZ20 15 11 0 0 1130 1131 1022 1132 1
133 1134 1030 482 1027 13 2 0 0 0 0 0 0 0 0 0 81 2 1130 324 1135 1 0 1131 0 0 0
 1136 81 2 1131 328 1137 1 1130 1132 0 0 0 1138 81 1 1132 1844 1139 1 1131 1133
 0 0 1140 81 2 1133 1889 1141 1 1132 1134 0 0 0 1142 81 2 1134 1933 1143 1 1133
 13 0 0 0 0 81 2 13 2428 1144 1 1134 2 0 0 1145 0 80 2 1144 1146 1147 8004 0 0 0
 0 3 5 0 0 0 FFTFFFFFFFFFFF2 3 83 1 1145 7859.9999 79 16 1147 SDL/TYSA_DENSITY80
 2 1143 1148 1149 9000 0 0 0 0 3 5 0 0 0 FFTFFFFFFFFFFF9 1 79 16 1149 BODY_RECIP
E_200180 2 1141 1150 1151 9000 0 0 0 0 3 5 0 0 0 FFTFFFFFFFFFFF9 1 82 1 1142 1 7
9 24 1151 BODY_IN_LIGHTWEIGHT_PERM80 1 1139 1152 1153 9000 1 1 1 1 1 1 1 1 0 FFT
FFFFFFFFFFF1 82 1 1140 2265168 79 10 1153 BODY_MATCH80 2 1137 1154 1155 9000 0 0
 0 0 3 5 0 0 0 FFTFFFFFFFFFFF9 1 82 1 1138 97 79 30 1155 LAST_BODY_MODIFYING_FEA
TURE_ID80 2 1135 1156 1157 9000 0 0 0 0 3 5 0 0 0 FFTFFFFFFFFFFT9 1 82 1 1136 11
4 79 19 1157 ENT_TIME_STAMP_200180 2 12 307 1158 9000 0 0 0 0 3 5 0 0 0 FFTFFFFF
FFFFFF9 1 82 1 14 102 79 12 1158 ATOM_ID_20011 0 
