**ABCDEFGHIJKLMNOPQRSTUVWXYZabcdefghijklmnopqrstuvwxyz**************************
**PARASOLID !"#$%&'()*+,-./:;<=>?@[\]^_`{|}~0123456789**************************
**PART1;
MC=AMD64;
MC_MODEL=Intel64 Family 6 Model 158 Stepping 9, GenuineIntel;
MC_ID=unknown;
OS=Windows_NT;
OS_RELEASE=unknown;
FRU=Parasolid Version 31.0, build 282,  2-25-2019;
APPL=SOLIDWORKS 2019-2019115;
SITE=;
USER=unknown;
FORMAT=text;
GUISE=transmit;
KEY=TS-35 Din Rail 35mm x 7.5mm ;
FILE=TS-35 Din Rail 35mm x 7.5mm .x_t;
DATE=Mon May 20 10:17:14 2019;
**PART2;
SCH=SCH_3100282_31001;
USFLD_SIZE=0;
**PART3;
**END_OF_HEADER*****************************************************************
T51 : TRANSMIT FILE created by modeller version 310028223 SCH_3100282_31001_1300
6215 0 12 34 CCCCCCI4 mesh1006 0 I8 polyline1008 0 CCCCCCCDI5 owner1040 0 CCCCCC
I13 boundary_mesh1006 0 I17 boundary_polyline1008 0 CCCA16 index_map_offset0 0 1
 dA9 index_map82 0 A17 node_id_index_map82 0 A20 schema_embedding_map82 0 A5 chi
ld12 0 A14 lowest_node_id0 0 1 dA16 mesh_offset_data206 0 Z1 1817 2 3 0 0 0 0 0
 0 1e3 1e-8 0 4 0 1 0 1 1 5 6 7 8 0 0 9 10 11 0 0 0 0 0 0 0 81 255 2 2 1775 12 1
 13 0 0 0 0 14 70 11 CI9 list_type0 0 1 uI10 notransmit0 0 1 lCCCDCCDI12 finger_
index0 0 1 dI12 finger_block1012 0 CZ3 0 4 T1 0 0 9 20 1 15 15 13 255 5 435 0 1
 0 16 0 0 17 0 50 255 6 414 0 16 18 0 0 +.06 .00650000000000017 -.0175 0 0 1 1 0
 0 30 255 7 434 0 10 19 0 0 +.06 .0075 -.0175 -1 0 0 29 255 8 726 0 11 20 0 .027
83 .000999999999999967 -.00317 19 8 CCCCCCCA5 owner12 0 Z9 145 0 1 17 0 21 V0 16
 255 10 354 0 ?22 0 23 7 0 0 1 18 255 11 724 0 24 0 25 8 ?1 17 255 24 0 26 27 28
 11 29 30 0 31 -18 25 708 0 32 11 33 20 ?1 17 32 0 34 35 36 25 37 38 0 39 -18 33
 692 0 40 25 41 42 ?1 29 20 710 0 25 42 8 -.01817000000000065 .00099999999999996
7 -.003170000000001185 29 42 694 0 33 43 20 -.04117000000000075 .000999999999999
967 -.003169999999990685 29 43 678 0 41 44 42 .05083 .000999999999999967 -.00317
 18 41 676 0 45 33 46 43 ?1 29 44 662 0 46 47 43 .00483 .000999999999999967 -.00
317 18 46 660 0 48 41 49 44 ?1 29 47 642 0 49 50 44 .01817 272953428566963e-32 -
.00317 18 49 640 0 51 46 52 47 ?1 29 50 622 0 52 53 47 -.02783 272953428566963e-
32 -.00317 18 52 620 0 54 49 55 50 ?1 29 53 602 0 55 56 50 -.0508300000000007 27
2953428566752e-32 -.00316999999998808 18 55 600 0 57 52 58 53 ?1 29 56 582 0 58
 59 53 .04117 272953428566963e-32 -.00317 18 58 580 0 60 55 61 56 ?1 29 59 562 0
 61 62 56 -.00483 272953428566963e-32 -.00317 18 61 560 0 63 58 64 59 ?1 29 62 3
15 0 65 66 59 -.06 .00650000000000017 -.0175 18 65 274 0 67 68 69 62 ?1 29 66 31
6 0 69 70 62 -.06 .00650000000000017 -.01475 18 69 275 0 71 65 72 66 ?1 29 70 31
7 0 72 73 66 -.06 .00525000000000017 -.0135 18 72 276 0 74 69 75 70 ?1 29 73 318
 0 75 76 70 -.06 .00125 -.0135 18 75 277 0 77 72 78 73 ?1 29 76 319 0 78 79 73 -
.06 247198095326695e-31 -.01225 18 78 278 0 80 75 81 76 ?1 29 79 320 0 81 82 76
 -.06 0 .01225 18 81 279 0 83 78 84 79 ?1 29 82 321 0 84 85 79 -.06 .00125 .0135
 18 84 280 0 86 81 87 82 ?1 29 85 322 0 87 88 82 -.06 .00524999999999986 .0135 1
8 87 281 0 89 84 90 85 ?1 29 88 323 0 90 91 85 -.06 .00649999999999986 .01475 18
 90 282 0 92 87 93 88 ?1 29 91 324 0 93 94 88 -.06 .00649999999999986 .0175 18 9
3 283 0 95 90 96 91 ?1 29 94 325 0 96 97 91 -.06 .0075 .0175 18 96 284 0 98 93 9
9 94 ?1 29 97 326 0 99 100 94 -.06 .0075 .01475 18 99 285 0 101 96 102 97 ?1 29
 100 327 0 102 103 97 -.06 .00525 .0125 18 102 286 0 104 99 105 100 ?1 29 103 32
8 0 105 106 100 -.06 .00124999999999996 .0125 18 105 287 0 107 102 108 103 ?1 29
 106 329 0 108 109 103 -.06 .000999999999999966 .01225 18 108 288 0 110 105 111
 106 ?1 29 109 330 0 111 112 106 -.06 .000999999999999968 -.01225 18 111 289 0 1
13 108 114 109 ?1 29 112 331 0 114 115 109 -.06 .001249999999999968 -.0125 18 11
4 290 0 116 111 117 112 ?1 29 115 332 0 117 118 112 -.06 .00525 -.0125 18 117 29
1 0 119 114 120 115 ?1 29 118 333 0 120 121 115 -.06 .0075 -.01475 18 120 292 0
 122 117 123 118 ?1 29 121 334 0 123 124 118 -.06 .0075 -.0175 18 123 293 0 125
 120 126 121 ?1 29 124 144 0 64 127 121 .06 .00650000000000017 -.0175 18 64 142
 0 128 61 129 124 ?1 29 127 141 0 129 130 124 .06 .00650000000000017 -.01475 18
 129 139 0 131 64 132 127 ?1 29 130 138 0 132 133 127 .06 .00525000000000017 -.0
135 18 132 136 0 134 129 135 130 ?1 29 133 135 0 135 136 130 .06 .00125 -.0135 1
8 135 133 0 137 132 138 133 ?1 29 136 132 0 138 139 133 .06 247198095326695e-31
 -.01225 18 138 130 0 140 135 141 136 ?1 29 139 129 0 141 142 136 .06 0 .01225 1
8 141 127 0 143 138 144 139 ?1 29 142 126 0 144 145 139 .06 .00125 .0135 18 144
 124 0 146 141 147 142 ?1 29 145 123 0 147 148 142 .06 .00524999999999986 .0135
 18 147 121 0 149 144 150 145 ?1 29 148 120 0 150 151 145 .06 .00649999999999986
 .01475 18 150 118 0 152 147 153 148 ?1 29 151 117 0 153 154 148 .06 .0064999999
9999986 .0175 18 153 115 0 155 150 156 151 ?1 29 154 114 0 156 157 151 .06 .0075
 .0175 18 156 112 0 158 153 159 154 ?1 29 157 111 0 159 160 154 .06 .0075 .01475
 18 159 109 0 161 156 162 157 ?1 29 160 108 0 162 163 157 .06 .00525 .0125 18 16
2 106 0 164 159 165 160 ?1 29 163 105 0 165 166 160 .06 .00124999999999996 .0125
 18 165 103 0 167 162 168 163 ?1 29 166 102 0 168 169 163 .06 .00099999999999996
6 .01225 18 168 100 0 170 165 171 166 ?1 29 169 99 0 171 172 166 .06 .0009999999
99999968 -.01225 18 171 97 0 173 168 174 169 ?1 29 172 96 0 174 175 169 .06 .001
249999999999968 -.0125 18 174 94 0 176 171 177 172 ?1 29 175 93 0 177 178 172 .0
6 .00525 -.0125 18 177 91 0 179 174 180 175 ?1 29 178 90 0 180 181 175 .06 .0075
 -.01475 18 180 88 0 182 177 68 178 ?1 29 181 87 0 68 183 178 .06 .0075 -.0175 1
8 68 85 0 184 180 65 181 ?1 29 183 1292 0 126 185 181 .01817 .000999999999999973
 .003170000000000125 18 126 779 0 186 123 187 183 ?1 29 185 1293 0 187 188 183 .
02783 .000999999999999973 .00317 18 187 781 0 189 126 190 185 ?1 29 188 1295 0 1
90 191 185 .01817 .000999999999999973 -.00317 18 190 774 0 27 187 192 188 ?1 29
 191 1296 0 192 193 188 -.02783 .000999999999999973 .00317 18 192 866 0 194 190
 195 191 ?1 29 193 1297 0 195 196 191 -.01816999999999925 .000999999999999973 .0
03169999999998685 18 195 868 0 197 192 198 193 ?1 29 196 1299 0 198 199 193 -.02
783 .000999999999999973 -.00317 18 198 861 0 35 195 200 196 ?1 29 199 1300 0 200
 201 196 -.05083 .000999999999999973 .003169999999999835 18 200 953 0 202 198 20
3 199 ?1 29 201 1301 0 203 204 199 -.04116999999999935 .000999999999999973 .0031
69999999998645 18 203 955 0 205 200 206 201 ?1 29 204 1303 0 206 207 201 -.05083
00000000007 .000999999999999973 -.00316999999998808 18 206 948 0 208 203 209 204
 ?1 29 207 1304 0 209 210 204 .04117 .000999999999999973 .00317 18 209 1040 0 21
1 206 212 207 ?1 29 210 1305 0 212 213 207 .05083 .000999999999999973 .00317 18
 212 1042 0 214 209 215 210 ?1 29 213 1307 0 215 216 210 .04117 .000999999999999
973 -.00317 18 215 1035 0 217 212 218 213 ?1 29 216 1308 0 218 219 213 -.00483 .
000999999999999973 .00316999999999958 18 218 1127 0 220 215 221 216 ?1 29 219 13
09 0 221 222 216 .00483 .000999999999999973 .00317 18 221 1129 0 223 218 224 219
 ?1 29 222 1311 0 224 225 219 -.00483 .000999999999999973 -.00317 18 224 1122 0
 226 221 227 222 ?1 29 225 1312 0 227 228 222 -.00483 -561129940698545e-33 .0031
6999999999958 18 227 1124 0 229 224 230 225 ?1 29 228 1313 0 230 231 225 .00483
 -561129940698619e-33 .00317 18 230 1125 0 232 227 233 228 ?1 29 231 1314 0 233
 234 228 .00483 56112994069862e-32 -.00317 18 233 1126 0 235 230 236 231 ?1 29 2
34 1320 0 237 238 231 -.02783 -561129940698619e-33 .00317 18 237 863 0 239 240 2
41 234 ?1 29 238 1321 0 241 242 234 -.01816999999999925 -561129940698386e-33 .00
3169999999998685 18 241 864 0 243 237 244 238 ?1 29 242 1322 0 244 245 238 -.018
17000000000065 561129940698607e-33 -.00316999999999993 18 244 865 0 37 241 246 2
42 ?1 29 245 1328 0 236 247 242 .01817 -561129940698641e-33 .003170000000000125
 18 236 776 0 248 233 249 245 ?1 29 247 1329 0 249 250 245 .02783 -5611299406986
19e-33 .00317 18 249 777 0 251 236 240 247 ?1 29 250 1330 0 240 252 247 .02783 5
6112994069862e-32 -.00317 18 240 778 0 29 249 237 250 ?1 29 252 1336 0 253 254 2
50 .04117 -561129940698619e-33 .00317 18 253 1037 0 255 256 257 252 ?1 29 254 13
37 0 257 258 252 .05083 -561129940698619e-33 .00317 18 257 1038 0 259 253 260 25
4 ?1 29 258 1338 0 260 261 254 .05083 56112994069862e-32 -.00317 18 260 1039 0 2
62 257 0 258 ?1 29 261 1344 0 246 263 258 -.05083 -56112994069859e-32 .003169999
999999835 18 246 950 0 264 244 265 261 ?1 29 263 1345 0 265 266 261 -.0411699999
9999935 -56112994069838e-32 .003169999999998645 18 265 951 0 267 246 256 263 ?1
 29 266 1346 0 256 0 263 -.0411700000000007 561129940697704e-33 -.00316999999999
4825 18 256 952 0 268 265 253 266 ?1 17 268 0 269 270 271 256 40 272 0 273 +15 2
55 269 971 0 268 274 0 17 270 0 269 275 268 265 276 277 0 278 +17 271 0 269 268
 275 33 279 280 0 281 -17 40 0 282 208 273 33 268 272 0 271 -16 272 919 0 ?268 2
83 284 285 0 0 1 17 273 0 282 40 286 256 287 288 0 276 +15 282 975 0 286 289 0 1
7 286 0 282 273 208 55 290 284 0 287 +17 287 0 291 292 276 55 273 288 0 0 -16 28
8 939 0 ?273 277 293 294 0 0 1 17 276 0 291 287 278 256 270 277 0 0 -15 291 598
 0 287 295 296 17 278 0 291 276 292 265 297 298 0 0 -16 277 942 0 ?270 298 288 2
99 0 0 1 16 298 945 0 ?297 284 277 300 0 0 1 31 255 299 1285 0 277 294 300 0 +-.
04117 2823394716143795e-47 -159502471727541e-30 0 -1 -17701259958947e-29 0 17701
259958947e-29 -1 .003169999999994665 30 294 1286 0 288 301 299 0 +-.050830000000
0007 561129940696509e-33 -.00316999999998808 1 477495053499736e-43 -269771049874
3445e-28 30 300 1284 0 298 299 302 0 +-.05083 -56112994069859e-32 .0031699999999
99835 -1 -217913191430135e-43 1231456132143904e-28 30 302 1283 0 303 300 304 0 +
-.05083 .12 .00316999999999986 0 -1 -17701259958947e-29 16 303 915 0 ?264 305 28
3 302 0 0 1 30 304 1282 0 283 302 285 0 +-.04116999999999935 .12 .00316999999999
867 0 -1 -17701259958947e-29 16 283 917 0 ?267 303 272 304 0 0 1 30 285 1281 0 2
72 304 306 0 +-.0411700000000007 .12 -.003169999999994805 0 -1 -17701259958947e-
29 30 306 1280 0 284 285 307 0 +-.0508300000000007 .12 -.00316999999998806 0 -1
 -17701259958947e-29 16 284 913 0 ?286 272 298 306 0 0 1 31 307 1275 0 308 306 3
09 0 +.04117 1447420884069648e-49 -817693705095867e-33 0 -1 -17701259958947e-29
 0 17701259958947e-29 -1 .00317 16 308 1023 0 ?60 310 0 307 0 0 1 30 309 1274 0
 310 307 311 0 +.04117 561129940698619e-33 -.00317 1 598114889561254e-46 -359155
999167041e-30 16 310 1026 0 ?312 313 308 309 0 0 1 31 311 1273 0 313 309 314 0 +
.05083 783504932351806e-48 -442626645882226e-32 0 -1 -17701259958947e-29 0 17701
259958947e-29 -1 .00317 16 313 1029 0 ?315 316 310 311 0 0 1 30 314 1272 0 316 3
11 317 0 +.04117 -561129940698619e-33 .00317 -1 -598114889561254e-46 35915599916
70415e-31 16 316 1032 0 ?318 319 313 314 0 0 1 30 317 1271 0 320 314 321 0 +.041
17 .12 .00317 0 -1 -17701259958947e-29 16 320 1002 0 ?255 293 322 317 0 0 1 30 3
21 1270 0 322 317 323 0 +.05083 .12 .00317 0 -1 -17701259958947e-29 16 322 1004
 0 ?259 320 324 321 0 0 1 30 323 1269 0 324 321 325 0 +.05083 .12 -.00317 0 -1 -
17701259958947e-29 16 324 1006 0 ?262 322 319 323 0 0 1 30 325 1268 0 319 323 32
6 0 +.04117 .12 -.00317 0 -1 -17701259958947e-29 16 319 1000 0 ?327 324 316 325
 0 0 1 31 326 1263 0 328 325 329 0 +.01817 1447420884069648e-49 -817693705095867
e-33 0 -1 -17701259958947e-29 0 17701259958947e-29 -1 .00317000000000006 16 328
 762 0 ?51 330 331 326 0 0 1 30 329 1262 0 330 326 332 0 +.01817 561129940698619
e-33 -.00317 1 598114889561254e-46 -359155999167041e-30 16 330 765 0 ?28 333 328
 329 0 0 1 31 332 1261 0 333 329 334 0 +.02783 783504932351806e-48 -442626645882
226e-32 0 -1 -17701259958947e-29 0 17701259958947e-29 -1 .00317 16 333 768 0 ?33
5 336 330 332 0 0 1 30 334 1260 0 336 332 337 0 +.01817 -561129940698641e-33 .00
3170000000000125 -1 -231271090630351e-44 1310919396959696e-29 16 336 771 0 ?338
 339 333 334 0 0 1 30 337 1259 0 340 334 341 0 +.01817 .12 .003170000000000145 0
 -1 -17701259958947e-29 16 340 741 0 ?248 342 343 337 0 0 1 30 341 1258 0 343 33
7 344 0 +.02783 .12 .00317 0 -1 -17701259958947e-29 16 343 743 0 ?251 340 30 341
 0 0 1 30 344 1257 0 30 341 345 0 +.02783 .12 -.00317 0 -1 -17701259958947e-29 1
6 30 745 0 ?29 343 339 344 0 0 1 30 345 1256 0 339 344 346 0 +.01817 .12 -.00317
 0 -1 -17701259958947e-29 16 339 739 0 ?347 30 336 345 0 0 1 31 346 1251 0 305 3
45 348 0 +-.02783 509828692728066e-48 -2880183071207745e-33 0 -1 -17701259958947
e-29 0 17701259958947e-29 -1 .00317 16 305 849 0 ?54 349 303 346 0 0 1 30 348 12
50 0 349 346 350 0 +-.02783 561129940698619e-33 -.00317 1 2169163332808965e-44 -
1225170902158652e-28 16 349 852 0 ?36 351 305 348 0 0 1 31 350 1249 0 351 348 35
2 0 +-.01817 -195717496072367e-48 1105669859243228e-33 0 -1 -17701259958947e-29
 0 17701259958947e-29 -1 .003169999999999935 16 351 855 0 ?353 354 349 350 0 0 1
 30 352 1248 0 354 350 355 0 +-.02783 -561129940698619e-33 .00317 -1 -2406415572
33459e-43 1359854401846102e-28 16 354 858 0 ?356 357 351 352 0 0 1 30 355 1247 0
 331 352 358 0 +-.02783 .12 .00317 0 -1 -17701259958947e-29 16 331 828 0 ?239 32
8 359 355 0 0 1 30 358 1246 0 359 355 360 0 +-.01816999999999925 .12 .0031699999
99998705 0 -1 -17701259958947e-29 16 359 830 0 ?243 331 38 358 0 0 1 30 360 1245
 0 38 358 361 0 +-.01817000000000065 .12 -.00316999999999991 0 -1 -1770125995894
7e-29 16 38 832 0 ?37 359 357 360 0 0 1 30 361 1244 0 357 360 362 0 +-.02783 .12
 -.00317 0 -1 -17701259958947e-29 16 357 826 0 ?363 38 354 361 0 0 1 31 362 1239
 0 342 361 364 0 +-.00483 741643425848095e-46 -418977760661176e-30 0 -1 -1770125
9958947e-29 0 17701259958947e-29 -1 .00316999999999979 16 342 1110 0 ?63 365 340
 362 0 0 1 30 364 1238 0 365 362 366 0 +-.00483 561129940698619e-33 -.00317 1 0
 0 16 365 1113 0 ?367 368 342 364 0 0 1 31 366 1237 0 368 364 369 0 +.00483 3070
67912051536e-48 -1734723475976805e-33 0 -1 -17701259958947e-29 0 17701259958947e
-29 -1 .00317 16 368 1116 0 ?370 371 365 366 0 0 1 30 369 1236 0 371 366 372 0 +
-.00483 -561129940698545e-33 .00316999999999958 -1 767580774936942e-44 -43323192
3995243e-28 16 371 1119 0 ?373 374 368 369 0 0 1 30 372 1235 0 375 369 376 0 +-.
00483 .12 .003169999999999605 0 -1 -17701259958947e-29 16 375 1089 0 ?229 377 37
8 372 0 0 1 30 376 1234 0 378 372 379 0 +.00483 .12 .00317 0 -1 -17701259958947e
-29 16 378 1091 0 ?232 375 380 376 0 0 1 30 379 1233 0 380 376 381 0 +.00483 .12
 -.00317 0 -1 -17701259958947e-29 16 380 1093 0 ?235 378 374 379 0 0 1 30 381 12
32 0 374 379 382 0 +-.00483 .12 -.00317 0 -1 -17701259958947e-29 16 374 1087 0 ?
383 380 371 381 0 0 1 30 382 1231 0 377 381 384 0 +.06 .000999999999999967 -.003
17 1 0 0 16 377 1092 0 ?385 386 375 382 0 0 1 31 384 1230 0 386 382 387 0 +.0048
3 .000999999999999973 -155771087638734e-32 0 -1 -708050398357881e-31 0 708050398
357881e-31 -1 .00317 16 386 1090 0 ?388 389 377 384 0 0 1 30 387 1229 0 389 384
 390 0 +.0599999999999993 .000999999999999967 .00317000000000239 -1 306750036366
183e-44 -433231923995243e-28 16 389 1088 0 ?391 392 386 387 0 0 1 31 390 1228 0
 392 387 393 0 +-.00483 .000999999999999973 -4188007480615865e-31 0 -1 -70805039
8357881e-31 0 708050398357881e-31 -1 .00316999999999979 16 392 1086 0 ?394 395 3
89 390 0 0 1 30 393 1227 0 395 390 396 0 +.06 .000999999999999967 -.00317 1 2543
00548282846e-46 -359155999167041e-30 16 395 1005 0 ?397 398 392 393 0 0 1 31 396
 1226 0 398 393 399 0 +.05083 .000999999999999973 -4249253859232795e-33 0 -1 -70
8050398357881e-31 0 708050398357881e-31 -1 .00317 16 398 1003 0 ?400 401 395 396
 0 0 1 30 399 1225 0 401 396 402 0 +.06 .000999999999999967 .00317 -1 -254300548
282846e-46 3591559991670415e-31 16 401 1001 0 ?403 404 398 399 0 0 1 31 402 1224
 0 404 399 405 0 +.04117 .000999999999999973 -640681105506401e-33 0 -1 -70805039
8357881e-31 0 708050398357881e-31 -1 .00317 16 404 999 0 ?406 407 401 402 0 0 1
 30 405 1223 0 407 402 408 0 +.0600000000000025 .000999999999999967 -.0031700000
0001798 1 1910114993289535e-44 -2697710498743445e-28 16 407 918 0 ?281 280 404 4
05 0 0 1 31 408 1222 0 280 405 409 0 +-.04117 .000999999999999973 -1593254591279
515e-31 0 -1 -708050398357881e-31 0 708050398357881e-31 -1 .003169999999994665 1
6 280 916 0 ?279 410 407 408 0 0 1 30 409 1221 0 410 408 411 0 +.060000000000001
9 .000999999999999967 .00316999999998619 -1 -871933004924747e-44 123145613214390
4e-28 16 410 914 0 ?412 413 280 409 0 0 1 31 411 1220 0 413 409 414 0 +-.05083 .
000999999999999973 -1633113120584025e-31 0 -1 -708050398357881e-31 0 70805039835
7881e-31 -1 .00316999999999396 16 413 912 0 ?415 416 410 411 0 0 1 30 414 1219 0
 416 411 417 0 +.0600000000000011 .000999999999999967 -.00317000000001076 1 8674
82745329919e-44 -1225170902158652e-28 16 416 831 0 ?418 419 413 414 0 0 1 31 417
 1218 0 419 414 420 0 +-.01817 .000999999999999973 1282682458832696e-33 0 -1 -70
8050398357881e-31 0 708050398357881e-31 -1 .003169999999999935 16 419 829 0 ?421
 422 416 417 0 0 1 30 420 1217 0 422 417 423 0 +.0600000000000021 .0009999999999
99967 .003169999999988055 -1 -96284545093585e-43 1359854401846102e-28 16 422 827
 0 ?424 425 419 420 0 0 1 31 423 1216 0 425 420 426 0 +-.02783 .0009999999999999
73 -2703170471618275e-33 0 -1 -708050398357881e-31 0 708050398357881e-31 -1 .003
17 16 425 825 0 ?427 428 422 423 0 0 1 30 426 1215 0 428 423 429 0 +.06 .0009999
99999999967 -.00317 1 254300548282846e-46 -359155999167041e-30 16 428 744 0 ?430
 431 425 426 0 0 1 31 429 1214 0 431 426 432 0 +.02783 .000999999999999973 -4249
253859232795e-33 0 -1 -708050398357881e-31 0 708050398357881e-31 -1 .00317 16 43
1 742 0 ?433 434 428 429 0 0 1 30 432 1213 0 434 429 435 0 +.06 .000999999999999
967 .003169999999999575 -1 -928197001232386e-45 1310919396959696e-29 16 434 740
 0 ?436 437 431 432 0 0 1 31 435 1212 0 437 432 438 0 +.01817 .00099999999999997
3 -640681105506401e-33 0 -1 -708050398357881e-31 0 708050398357881e-31 -1 .00317
000000000006 16 437 738 0 ?439 440 434 435 0 0 1 30 438 7 0 441 435 442 0 +.06 .
00650000000000017 -.0175 0 1 0 16 441 5 0 ?443 444 445 438 0 0 1 30 442 11 0 444
 438 446 0 +.06 .0075 -.01475 0 0 1 16 444 9 0 ?182 447 441 442 0 0 1 31 446 15
 0 447 442 448 0 +.06 .00525 -.01475 1 0 0 0 0 1 .00225 16 447 13 0 ?179 449 444
 446 0 0 1 30 448 19 0 449 446 450 0 +.06 .00125 -.0125 0 -1 0 16 449 17 0 ?176
 451 447 448 0 0 1 31 450 23 0 451 448 452 0 +.06 .001249999999999968 -.01225 -1
 0 0 0 0 -1 25e-5 16 451 21 0 ?173 453 449 450 0 0 1 30 452 27 0 453 450 454 0 +
.06 .000999999999999968 -.01225 0 -708050398357881e-31 1 16 453 25 0 ?170 455 45
1 452 0 0 1 31 454 31 0 455 452 456 0 +.06 .001249999999999966 .01225 -1 0 0 0 0
 1 25e-5 16 455 29 0 ?167 457 453 454 0 0 1 30 456 35 0 457 454 458 0 +.06 .0012
4999999999996 .0125 0 1 0 16 457 33 0 ?164 459 455 456 0 0 1 31 458 39 0 459 456
 460 0 +.06 .00525 .01475 1 0 0 0 0 1 .00225 16 459 37 0 ?161 461 457 458 0 0 1
 30 460 43 0 461 458 462 0 +.06 .0075 .01475 0 0 1 16 461 41 0 ?158 463 459 460
 0 0 1 30 462 47 0 463 460 464 0 +.06 .00649999999999986 .0175 0 -1 0 16 463 45
 0 ?155 465 461 462 0 0 1 30 464 51 0 465 462 466 0 +.06 .00649999999999986 .014
75 0 3154042683594175e-31 -1 16 465 49 0 ?152 467 463 464 0 0 1 31 466 55 0 467
 464 468 0 +.06 .00524999999999986 .01475 -1 0 0 0 0 1 .00125 16 467 53 0 ?149 4
69 465 466 0 0 1 30 468 59 0 469 466 470 0 +.06 .00125 .0135 0 -1 0 16 469 57 0
 ?146 471 467 468 0 0 1 31 470 63 0 471 468 472 0 +.06 .00125 .01225 1 0 0 0 0 1
 .00125 16 471 61 0 ?143 473 469 470 0 0 1 30 472 67 0 473 470 474 0 +.06 433680
868994202e-32 -.01225 0 17701259958947e-29 -1 16 473 65 0 ?140 475 471 472 0 0 1
 31 474 71 0 475 472 476 0 +.06 .00125 -.01225 1 0 0 0 0 -1 .00124999999999998 1
6 475 69 0 ?137 477 473 474 0 0 1 30 476 75 0 477 474 478 0 +.06 .00125 -.0135 0
 1 0 16 477 73 0 ?134 479 475 476 0 0 1 31 478 79 0 479 476 480 0 +.06 .00525000
000000017 -.01475 -1 0 0 0 0 1 .00125 16 479 77 0 ?131 481 477 478 0 0 1 30 480
 83 0 481 478 482 0 +.06 .00650000000000017 -.01475 0 0 -1 16 481 81 0 ?128 483
 479 480 0 0 1 30 482 314 0 440 480 484 0 +-.06 .00650000000000017 -.0175 0 1 0
 16 440 270 0 ?485 486 437 482 0 0 1 30 484 313 0 486 482 487 0 +-.06 .0075 -.01
475 0 0 1 16 486 266 0 ?122 488 440 484 0 0 1 31 487 312 0 488 484 489 0 +-.06 .
00525 -.01475 1 0 0 0 0 1 .00225 16 488 262 0 ?119 490 486 487 0 0 1 30 489 311
 0 490 487 491 0 +-.06 .00125 -.0125 0 -1 0 16 490 258 0 ?116 492 488 489 0 0 1
 31 491 310 0 492 489 493 0 +-.06 .001249999999999968 -.01225 -1 0 0 0 0 -1 25e-
5 16 492 254 0 ?113 494 490 491 0 0 1 30 493 309 0 494 491 495 0 +-.06 .00099999
9999999968 -.01225 0 -708050398357881e-31 1 16 494 250 0 ?110 496 492 493 0 0 1
 31 495 308 0 496 493 497 0 +-.06 .001249999999999966 .01225 -1 0 0 0 0 1 25e-5
 16 496 246 0 ?107 498 494 495 0 0 1 30 497 307 0 498 495 499 0 +-.06 .001249999
99999996 .0125 0 1 0 16 498 242 0 ?104 500 496 497 0 0 1 31 499 306 0 500 497 50
1 0 +-.06 .00525 .01475 1 0 0 0 0 1 .00225 16 500 238 0 ?101 502 498 499 0 0 1 3
0 501 305 0 502 499 503 0 +-.06 .0075 .01475 0 0 1 16 502 234 0 ?98 504 500 501
 0 0 1 30 503 304 0 504 501 505 0 +-.06 .00649999999999986 .0175 0 -1 0 16 504 2
30 0 ?95 506 502 503 0 0 1 30 505 303 0 506 503 507 0 +-.06 .00649999999999986 .
01475 0 3154042683594175e-31 -1 16 506 226 0 ?92 508 504 505 0 0 1 31 507 302 0
 508 505 509 0 +-.06 .00524999999999986 .01475 -1 0 0 0 0 1 .00125 16 508 222 0
 ?89 510 506 507 0 0 1 30 509 301 0 510 507 511 0 +-.06 .00125 .0135 0 -1 0 16 5
10 218 0 ?86 512 508 509 0 0 1 31 511 300 0 512 509 513 0 +-.06 .00125 .01225 1
 0 0 0 0 1 .00125 16 512 214 0 ?83 514 510 511 0 0 1 30 513 299 0 514 511 515 0
 +-.06 433680868994202e-32 -.01225 0 17701259958947e-29 -1 16 514 210 0 ?80 516
 512 513 0 0 1 31 515 298 0 516 513 517 0 +-.06 .00125 -.01225 1 0 0 0 0 -1 .001
24999999999998 16 516 206 0 ?77 518 514 515 0 0 1 30 517 297 0 518 515 519 0 +-.
06 .00125 -.0135 0 1 0 16 518 202 0 ?74 520 516 517 0 0 1 31 519 296 0 520 517 5
21 0 +-.06 .00525000000000017 -.01475 -1 0 0 0 0 1 .00125 16 520 198 0 ?71 445 5
18 519 0 0 1 30 521 295 0 445 519 522 0 +-.06 .00650000000000017 -.01475 0 0 -1
 16 445 194 0 ?67 441 520 521 0 0 1 30 522 415 0 483 521 523 0 +.06 .00650000000
000017 -.0175 -1 0 0 16 483 335 0 ?524 525 481 522 0 0 1 30 523 416 0 525 522 52
6 0 +.06 .00650000000000017 -.01475 -1 0 0 16 525 336 0 ?527 528 483 523 0 0 1 3
0 526 417 0 528 523 529 0 +.06 .00525000000000017 -.0135 -1 0 0 16 528 337 0 ?53
0 531 525 526 0 0 1 30 529 418 0 531 526 532 0 +.06 .00125 -.0135 -1 0 0 16 531
 338 0 ?533 534 528 529 0 0 1 30 532 419 0 534 529 535 0 +.06 247198095326695e-3
1 -.01225 -1 0 0 16 534 339 0 ?536 537 531 532 0 0 1 30 535 420 0 537 532 538 0
 +.06 0 .01225 -1 0 0 16 537 340 0 ?539 540 534 535 0 0 1 30 538 421 0 540 535 5
41 0 +.06 .00125 .0135 -1 0 0 16 540 341 0 ?542 543 537 538 0 0 1 30 541 422 0 5
43 538 544 0 +.06 .00524999999999986 .0135 -1 0 0 16 543 342 0 ?545 546 540 541
 0 0 1 30 544 423 0 546 541 547 0 +.06 .00649999999999986 .01475 -1 0 0 16 546 3
43 0 ?548 549 543 544 0 0 1 30 547 424 0 549 544 550 0 +.06 .00649999999999986 .
0175 -1 0 0 16 549 344 0 ?551 552 546 547 0 0 1 30 550 425 0 552 547 553 0 +.06
 .0075 .0175 -1 0 0 16 552 345 0 ?554 555 549 550 0 0 1 30 553 426 0 555 550 556
 0 +.06 .0075 .01475 -1 0 0 16 555 346 0 ?557 558 552 553 0 0 1 30 556 427 0 558
 553 559 0 +.06 .00525 .0125 -1 0 0 16 558 347 0 ?560 561 555 556 0 0 1 30 559 4
28 0 561 556 562 0 +.06 .00124999999999996 .0125 -1 0 0 16 561 348 0 ?563 564 55
8 559 0 0 1 30 562 429 0 564 559 565 0 +.06 .000999999999999966 .01225 -1 0 0 16
 564 349 0 ?566 567 561 562 0 0 1 30 565 430 0 567 562 568 0 +.06 .0009999999999
99968 -.01225 -1 0 0 16 567 350 0 ?569 570 564 565 0 0 1 30 568 431 0 570 565 57
1 0 +.06 .001249999999999968 -.0125 -1 0 0 16 570 351 0 ?572 573 567 568 0 0 1 3
0 571 432 0 573 568 19 0 +.06 .00525 -.0125 -1 0 0 16 573 352 0 ?574 23 570 571
 0 0 1 30 19 433 0 23 571 7 0 +.06 .0075 -.01475 -1 0 0 16 23 353 0 ?575 10 573
 19 0 0 1 17 575 0 576 119 577 120 578 23 0 579 +15 576 389 0 119 580 0 17 119 0
 576 581 575 117 579 488 0 574 +17 577 0 576 575 581 180 179 447 0 0 -17 578 0 5
82 184 122 180 575 23 0 577 -17 579 0 583 125 584 120 119 488 0 0 -15 583 193 0
 585 586 0 17 125 0 583 585 579 123 122 486 0 22 -17 584 0 583 579 587 117 116 4
90 0 0 -17 587 0 583 584 588 114 113 492 0 0 -17 116 0 589 590 574 114 584 490 0
 572 +15 589 387 0 116 591 0 17 590 0 589 592 116 174 572 570 0 593 -17 574 0 58
9 116 592 117 581 573 0 584 +17 572 0 594 113 593 114 590 570 0 587 +15 594 385
 0 113 595 0 17 113 0 594 596 572 111 587 492 0 569 +17 593 0 594 572 596 174 17
3 451 0 0 -17 596 0 594 593 113 171 569 567 0 597 -17 173 0 598 170 176 171 593
 451 0 596 +15 598 4 0 443 599 0 17 170 0 598 167 173 168 597 453 0 600 +17 176
 0 598 173 179 174 592 449 0 590 +17 179 0 598 176 182 177 577 447 0 581 +17 592
 0 589 574 590 177 176 449 0 0 -17 182 0 598 179 443 180 184 444 0 578 +17 581 0
 576 577 119 177 574 573 0 592 -17 443 0 598 182 128 68 601 441 0 602 +17 184 0
 582 22 578 68 182 444 0 443 -15 582 391 0 122 603 0 17 22 0 582 122 184 123 602
 10 0 485 +17 122 0 582 578 22 120 125 486 0 575 +17 602 0 604 601 485 68 22 10
 0 0 -17 485 0 604 602 524 123 585 440 0 0 +15 604 393 0 485 16 0 17 524 0 604 4
85 601 65 605 483 0 585 +17 585 0 583 606 125 65 485 440 0 0 -17 606 0 583 607 5
85 69 67 445 0 0 -17 607 0 583 608 606 72 71 520 0 0 -17 67 0 609 605 527 65 606
 445 0 524 +15 609 355 0 67 610 0 17 605 0 609 611 67 64 524 483 0 601 -17 527 0
 609 67 611 69 612 525 0 606 +17 611 0 609 527 605 129 128 481 0 0 -17 612 0 613
 614 71 129 527 525 0 611 -15 613 357 0 71 615 0 17 614 0 613 530 612 132 131 47
9 0 0 -17 71 0 613 612 530 69 607 520 0 527 +17 530 0 613 71 614 72 616 528 0 60
7 +17 616 0 617 618 74 132 530 528 0 614 -15 617 359 0 74 619 0 17 618 0 617 533
 616 135 134 477 0 0 -17 74 0 617 616 533 72 608 518 0 530 +17 533 0 617 74 618
 75 620 531 0 608 +17 608 0 583 621 607 75 74 518 0 0 -17 621 0 583 622 608 78 7
7 516 0 0 -17 622 0 583 623 621 81 80 514 0 0 -17 77 0 624 620 536 75 621 516 0
 533 +15 624 361 0 77 625 0 17 620 0 624 626 77 135 533 531 0 618 -17 536 0 624
 77 626 78 627 534 0 621 +17 626 0 624 536 620 138 137 475 0 0 -17 627 0 628 629
 80 138 536 534 0 626 -15 628 363 0 80 295 0 17 629 0 628 539 627 141 140 473 0
 0 -17 80 0 628 627 539 78 622 514 0 536 +17 539 0 628 80 629 81 630 537 0 622 +
17 630 0 631 632 83 141 539 537 0 629 -15 631 365 0 83 633 0 17 632 0 631 542 63
0 144 143 471 0 0 -17 83 0 631 630 542 81 623 512 0 539 +17 542 0 631 83 632 84
 634 540 0 623 +17 623 0 583 635 622 84 83 512 0 0 -17 635 0 583 636 623 87 86 5
10 0 0 -17 636 0 583 637 635 90 89 508 0 0 -17 86 0 638 634 545 84 635 510 0 542
 +15 638 367 0 86 639 0 17 634 0 638 640 86 144 542 540 0 632 -17 545 0 638 86 6
40 87 641 543 0 635 +17 640 0 638 545 634 147 146 469 0 0 -17 641 0 642 643 89 1
47 545 543 0 640 -15 642 369 0 89 644 0 17 643 0 642 548 641 150 149 467 0 0 -17
 89 0 642 641 548 87 636 508 0 545 +17 548 0 642 89 643 90 645 546 0 636 +17 645
 0 646 647 92 150 548 546 0 643 -15 646 371 0 92 648 0 17 647 0 646 551 645 153
 152 465 0 0 -17 92 0 646 645 551 90 637 506 0 548 +17 551 0 646 92 647 93 649 5
49 0 637 +17 637 0 583 650 636 93 92 506 0 0 -17 650 0 583 651 637 96 95 504 0 0
 -17 651 0 583 652 650 99 98 502 0 0 -17 95 0 653 649 554 93 650 504 0 551 +15 6
53 373 0 95 654 0 17 649 0 653 655 95 153 551 549 0 647 -17 554 0 653 95 655 96
 656 552 0 650 +17 655 0 653 554 649 156 155 463 0 0 -17 656 0 657 658 98 156 55
4 552 0 655 -15 657 375 0 98 659 0 17 658 0 657 557 656 159 158 461 0 0 -17 98 0
 657 656 557 96 651 502 0 554 +17 557 0 657 98 658 99 660 555 0 651 +17 660 0 66
1 662 101 159 557 555 0 658 -15 661 377 0 101 663 0 17 662 0 661 560 660 162 161
 459 0 0 -17 101 0 661 660 560 99 652 500 0 557 +17 560 0 661 101 662 102 664 55
8 0 652 +17 652 0 583 665 651 102 101 500 0 0 -17 665 0 583 666 652 105 104 498
 0 0 -17 666 0 583 588 665 108 107 496 0 0 -17 104 0 667 664 563 102 665 498 0 5
60 +15 667 379 0 104 668 0 17 664 0 667 669 104 162 560 558 0 662 -17 563 0 667
 104 669 105 670 561 0 665 +17 669 0 667 563 664 165 164 457 0 0 -17 670 0 671 6
72 107 165 563 561 0 669 -15 671 381 0 107 673 0 17 672 0 671 566 670 168 167 45
5 0 0 -17 107 0 671 670 566 105 666 496 0 563 +17 566 0 671 107 672 108 600 564
 0 666 +17 600 0 674 597 110 168 566 564 0 672 -15 674 383 0 110 675 0 17 597 0
 674 569 600 171 170 453 0 0 -17 110 0 674 600 569 108 588 494 0 566 +17 569 0 6
74 110 597 111 596 567 0 588 +17 588 0 583 587 666 111 110 494 0 0 -14 255 675 3
84 676 ?673 595 677 5 678 -0 0 673 595 21 81 1 676 1776 679 675 680 0 0 681 682
 14 673 382 681 ?668 675 671 5 683 -0 0 668 675 21 14 595 386 684 ?675 591 594 5
 685 -0 0 675 591 21 15 677 722 0 436 675 686 50 678 409 0 675 683 685 0 +.06 .0
00999999999999968 -.01225 0 -1 -708050398357881e-31 0 708050398357881e-31 -1 13
 21 146 0 0 0 0 0 0 9 16 14 16 394 687 ?603 0 604 5 6 -0 0 603 0 21 81 1 687 177
9 679 16 688 0 684 689 690 14 603 392 689 ?580 16 582 5 18 -0 0 580 16 21 81 1 6
89 1780 679 603 691 0 687 692 693 14 580 390 692 ?591 603 576 5 694 -0 0 591 603
 21 50 18 413 0 603 694 6 0 +.06 .0075 -.01475 0 -1 0 0 0 -1 51 255 694 412 0 58
0 695 18 0 -.06 .00525 -.01475 -1 0 0 .00225 0 0 1 50 695 411 0 591 685 694 0 +.
06 .00125 -.0125 0 0 -1 -1 0 0 14 591 388 696 ?595 580 589 5 695 -0 0 595 580 21
 51 685 410 0 595 678 695 0 +.06 .001249999999999968 -.01225 -1 0 0 25e-5 0 0 1
 81 1 696 1782 679 591 697 0 692 698 699 80 255 1 679 700 701 9000 1 1 1 1 1 1 1
 1 0 FFFFTFTFFFFFFF1 81 1 697 1650 702 591 0 696 703 704 705 81 1 692 1781 679 5
80 703 0 689 696 706 81 1 698 1783 679 668 707 0 696 708 709 82 255 1 699 972555
50 14 668 380 698 ?663 673 667 5 710 -0 0 663 673 21 81 1 707 1654 702 668 0 698
 711 712 713 81 1 708 1784 679 663 712 0 698 714 715 82 1 709 96206974 14 663 37
8 708 ?659 668 661 5 716 -0 0 659 668 21 81 1 712 1655 702 663 0 708 707 717 718
 81 1 714 1785 679 659 717 0 708 719 720 82 1 715 95944830 14 659 376 714 ?654 6
63 657 5 721 -0 0 654 663 21 81 1 717 1656 702 659 0 714 712 722 723 81 1 719 17
86 679 654 722 0 714 724 725 82 1 720 95682686 14 654 374 719 ?648 659 653 5 726
 -0 0 648 659 21 81 1 722 1657 702 654 0 719 717 727 728 81 1 724 1787 679 648 7
27 0 719 729 730 82 1 725 95420542 14 648 372 724 ?644 654 646 5 731 -0 0 644 65
4 21 81 1 727 1658 702 648 0 724 722 732 733 81 1 729 1788 679 644 732 0 724 734
 735 82 1 730 95158398 14 644 370 729 ?639 648 642 5 736 -0 0 639 648 21 81 1 73
2 1659 702 644 0 729 727 737 738 81 1 734 1789 679 639 737 0 729 739 740 82 1 73
5 94896254 14 639 368 734 ?633 644 638 5 741 -0 0 633 644 21 81 1 737 1660 702 6
39 0 734 732 742 743 81 1 739 1790 679 633 742 0 734 744 745 82 1 740 94634110 1
4 633 366 739 ?295 639 631 5 746 -0 0 295 639 21 81 1 742 1661 702 633 0 739 737
 747 748 81 1 744 1791 679 625 749 0 739 750 751 82 1 745 94371966 14 625 362 74
4 ?619 295 624 5 752 -0 0 619 295 21 81 1 749 1663 702 625 0 744 747 753 754 81
 1 750 1792 679 619 753 0 744 755 756 82 1 751 93847678 14 619 360 750 ?615 625
 617 5 757 -0 0 615 625 21 81 1 753 1664 702 619 0 750 749 758 759 81 1 755 1793
 679 615 758 0 750 760 761 82 1 756 93585534 14 615 358 755 ?610 619 613 5 762 -
0 0 610 619 21 81 1 758 1665 702 615 0 755 753 763 764 81 1 760 1794 679 610 763
 0 755 765 766 82 1 761 93323390 14 610 356 760 ?599 615 609 5 767 -0 0 599 615
 21 81 1 763 1666 702 610 0 760 758 768 769 81 1 765 1795 679 599 768 0 760 770
 771 82 1 766 93061246 14 599 1 765 ?586 610 598 5 772 -0 0 586 610 21 81 1 768
 1667 702 599 0 765 763 773 774 81 1 770 1796 679 586 773 0 765 775 776 82 1 771
 64487550 14 586 192 770 ?777 599 583 5 778 +0 0 777 599 21 81 1 773 1668 702 58
6 0 770 768 779 780 81 1 775 1797 679 295 747 0 770 781 782 82 1 776 88998014 14
 295 364 775 ?625 633 783 5 784 -0 0 625 633 21 81 1 747 1662 702 295 0 775 742
 749 785 81 1 781 1798 679 777 779 0 775 786 787 82 1 782 94109897 14 777 1134 7
81 ?788 586 789 5 790 -0 0 788 586 21 81 1 779 1669 702 777 0 781 773 791 792 81
 1 786 1799 679 788 791 0 781 793 794 82 1 787 -433979191 14 788 1138 786 ?795 7
77 796 5 797 -0 0 795 777 21 81 1 791 1670 702 788 0 786 779 798 799 81 1 793 18
00 679 795 798 0 786 800 801 82 1 794 -434503479 14 795 1142 793 ?802 788 803 5
 804 -0 0 802 788 21 81 1 798 1671 702 795 0 793 791 805 806 81 1 800 1801 679 8
02 805 0 793 807 808 82 1 801 -435355447 14 802 1146 800 ?809 795 810 5 811 -0 0
 809 795 21 81 1 805 1672 702 802 0 800 798 812 813 81 1 807 1802 679 809 812 0
 800 814 815 82 1 808 -436207415 14 809 1047 807 ?816 802 817 5 818 -0 0 816 802
 21 81 1 812 1673 702 809 0 807 805 819 820 81 1 814 1803 679 816 819 0 807 821
 822 82 1 815 -430571319 14 816 1051 814 ?823 809 824 5 825 -0 0 823 809 21 81 1
 819 1674 702 816 0 814 812 826 827 81 1 821 1804 679 823 826 0 814 828 829 82 1
 822 -431095607 14 823 1055 821 ?830 816 831 5 832 -0 0 830 816 21 81 1 826 1675
 702 823 0 821 819 833 834 81 1 828 1805 679 830 833 0 821 835 836 82 1 829 -431
947575 14 830 1059 828 ?837 823 838 5 839 -0 0 837 823 21 81 1 833 1676 702 830
 0 828 826 840 841 81 1 835 1806 679 837 840 0 828 842 843 82 1 836 -432799543 1
4 837 960 835 ?844 830 845 5 846 -0 0 844 830 21 81 1 840 1677 702 837 0 835 833
 847 848 81 1 842 1807 679 844 847 0 835 849 850 82 1 843 -427163447 14 844 964
 842 ?274 837 851 5 852 -0 0 274 837 21 81 1 847 1678 702 844 0 842 840 853 854
 81 1 849 1808 679 274 853 0 842 855 856 82 1 850 -427687735 14 274 968 849 ?289
 844 269 5 857 -0 0 289 844 21 81 1 853 1679 702 274 0 849 847 858 859 81 1 855
 1809 679 289 858 0 849 860 861 82 1 856 -428539703 14 289 972 855 ?862 274 282
 5 863 -0 0 862 274 21 81 1 858 1680 702 289 0 855 853 864 865 81 1 860 1810 679
 862 864 0 855 866 867 82 1 861 -429391671 14 862 873 860 ?868 289 869 5 870 -0
 0 868 289 21 81 1 864 1681 702 862 0 860 858 871 872 81 1 866 1811 679 868 871
 0 860 873 874 82 1 867 -423755575 14 868 877 866 ?875 862 876 5 877 -0 0 875 86
2 21 81 1 871 1682 702 868 0 866 864 878 879 81 1 873 1812 679 875 878 0 866 880
 881 82 1 874 -424279863 14 875 881 873 ?882 868 883 5 884 -0 0 882 868 21 81 1
 878 1683 702 875 0 873 871 885 886 81 1 880 1813 679 882 885 0 873 887 888 82 1
 881 -425131831 14 882 885 880 ?889 875 34 5 890 -0 0 889 875 21 81 1 885 1684 7
02 882 0 880 878 891 892 81 1 887 1814 679 889 891 0 880 893 894 82 1 888 -42598
3799 14 889 786 887 ?895 882 896 5 897 -0 0 895 882 21 81 1 891 1685 702 889 0 8
87 885 898 899 81 1 893 1815 679 895 898 0 887 900 901 82 1 894 -420347703 14 89
5 790 893 ?902 889 903 5 904 -0 0 902 889 21 81 1 898 1686 702 895 0 893 891 905
 906 81 1 900 1816 679 902 905 0 893 907 908 82 1 901 -420871991 14 902 794 900
 ?909 895 910 5 911 -0 0 909 895 21 81 1 905 1687 702 902 0 900 898 912 913 81 1
 907 1817 679 909 912 0 900 0 914 82 1 908 -421723959 14 909 798 907 ?0 902 26 5
 915 -0 0 0 902 21 81 1 912 1688 702 909 0 907 905 0 916 82 1 914 -422575927 80
 1 702 0 917 8001 0 0 0 0 3 5 0 0 0 FFFFTFTFFFFFFF2 83 255 3 916 .77647058823529
4 .756862745098039 .737254901960784 79 255 15 917 SDL/TYSA_COLOUR15 26 801 0 347
 909 0 50 915 1195 0 909 911 897 0 +.01817 .12 -.00317 -359155999167041e-30 1770
1259958947e-29 -1 -1 0 359155999167041e-30 51 911 1196 0 902 904 915 0 +.02783 .
12 168152454919141e-31 0 -1 -17701259958947e-29 .00317 0 17701259958947e-29 -1 5
1 897 1194 0 889 915 877 0 +.01817 .12 204238182456405e-31 0 -1 -17701259958947e
-29 .00317000000000006 0 17701259958947e-29 -1 50 877 1191 0 868 897 884 0 +-.02
783 .12 .00317 1359854401846102e-28 -17701259958947e-29 1 1 0 -1359854401846102e
-28 51 884 1190 0 875 877 890 0 +-.01817 .12 223471818099796e-31 0 -1 -177012599
58947e-29 .003169999999999935 0 17701259958947e-29 -1 50 890 1189 0 882 884 870
 0 +-.02783 .12 -.00317 -1225170902158652e-28 17701259958947e-29 -1 -1 0 1225170
902158652e-28 51 870 1188 0 862 890 797 0 +-.02783 .12 1836132887952865e-32 0 -1
 -17701259958947e-29 .00317 0 17701259958947e-29 -1 50 797 1185 0 788 870 804 0
 +-.00483 .12 .003169999999999605 -433231923995243e-28 -17701259958947e-29 1 1 0
 433231923995243e-28 51 804 1184 0 795 797 811 0 +.00483 .12 195067884747596e-31
 0 -1 -17701259958947e-29 .00317 0 17701259958947e-29 -1 50 811 1183 0 802 804 7
90 0 +-.00483 .12 -.00317 0 17701259958947e-29 -1 0 1 17701259958947e-29 51 790
 1182 0 777 811 772 0 +-.00483 .12 -3977362487104395e-31 0 -1 -17701259958947e-2
9 .00316999999999979 0 17701259958947e-29 -1 50 772 3 0 599 790 778 0 +.06 .0052
5 -.01475 -1 0 0 0 0 1 50 778 294 0 586 772 767 0 +-.06 .00525 -.01475 -1 0 0 0
 0 1 50 767 395 0 610 778 762 0 +.06 .00650000000000017 -.01475 0 1 0 0 0 1 51 7
62 396 0 615 767 757 0 +.06 .00525000000000017 -.01475 -1 0 0 .00125 0 0 1 50 75
7 397 0 619 762 752 0 +.06 .00125 -.0135 0 0 1 1 0 0 51 752 398 0 625 757 784 0
 -.06 .00125 -.01225 -1 0 0 .00124999999999998 0 0 1 50 784 399 0 295 752 746 0
 +.06 433680868994202e-32 -.01225 0 1 17701259958947e-29 0 -17701259958947e-29 1
 51 746 400 0 633 784 741 0 -.06 .00125 .01225 -1 0 0 .00125 0 0 1 50 741 401 0
 639 746 736 0 +.06 .00125 .0135 0 0 -1 -1 0 0 51 736 402 0 644 741 731 0 +.06 .
00524999999999986 .01475 -1 0 0 .00125 0 0 1 50 731 403 0 648 736 726 0 +.06 .00
649999999999986 .01475 0 1 3154042683594175e-31 0 -3154042683594175e-31 1 50 726
 404 0 654 731 721 0 +.06 .00649999999999986 .0175 0 0 -1 -1 0 0 50 721 405 0 65
9 726 716 0 +.06 .0075 .01475 0 -1 0 0 0 -1 51 716 406 0 663 721 710 0 -.06 .005
25 .01475 -1 0 0 .00225 0 0 1 50 710 407 0 668 716 683 0 +.06 .00124999999999996
 .0125 0 0 1 1 0 0 51 683 408 0 673 710 678 0 +.06 .001249999999999966 .01225 -1
 0 0 25e-5 0 0 1 50 904 1197 0 895 818 911 0 +.01817 .12 .003170000000000145 131
0919396959696e-29 -17701259958947e-29 1 1 0 -1310919396959696e-29 51 818 1200 0
 809 839 904 0 +.04117 .12 204238182456405e-31 0 -1 -17701259958947e-29 .00317 0
 17701259958947e-29 -1 50 839 1201 0 830 832 818 0 +.04117 .12 -.00317 -35915599
9167041e-30 17701259958947e-29 -1 -1 0 359155999167041e-30 51 832 1202 0 823 825
 839 0 +.05083 .12 168152454919141e-31 0 -1 -17701259958947e-29 .00317 0 1770125
9958947e-29 -1 50 825 1203 0 816 846 832 0 +.04117 .12 .00317 3591559991670415e-
31 -17701259958947e-29 1 1 0 -3591559991670415e-31 51 846 1206 0 837 863 825 0 +
-.05083 .12 -1422468127072554e-31 0 -1 -17701259958947e-29 .00316999999999396 0
 17701259958947e-29 -1 50 863 1207 0 289 857 846 0 +-.0508300000000007 .12 -.003
16999999998806 -2697710498743445e-28 17701259958947e-29 -1 -1 0 2697710498743445
e-28 51 857 1208 0 274 852 863 0 +-.04117 .12 -1382609597768044e-31 0 -1 -177012
59958947e-29 .003169999999994665 0 17701259958947e-29 -1 50 852 1209 0 844 0 857
 0 +-.05083 .12 .00316999999999986 1231456132143904e-28 -17701259958947e-29 1 1
 0 -1231456132143904e-28 17 347 0 26 28 27 49 918 339 0 919 +17 28 0 26 24 347 2
40 919 330 0 920 +17 27 0 26 347 24 190 430 428 0 918 -17 918 0 896 186 51 190 3
47 339 0 439 -17 919 0 783 921 920 49 28 330 0 0 -15 783 638 0 919 295 922 17 92
1 0 783 923 919 236 51 328 0 0 -17 920 0 783 919 923 240 335 333 0 0 -17 923 0 7
83 920 921 249 338 336 0 0 -17 335 0 910 924 29 249 920 333 0 923 +15 910 797 0
 29 902 0 17 924 0 910 31 335 187 251 343 0 433 -17 29 0 910 335 31 240 24 30 0
 28 +17 31 0 910 29 924 11 433 431 0 430 -17 433 0 677 436 430 187 31 431 0 0 +1
7 430 0 677 433 439 11 27 428 0 0 +17 439 0 677 430 436 190 186 437 0 0 +17 436
 0 677 439 433 126 189 434 0 0 +17 186 0 896 248 918 126 439 437 0 925 -15 896 7
89 0 248 889 0 17 248 0 896 51 186 236 925 340 0 338 +17 925 0 903 189 338 126 2
48 340 0 436 -15 903 793 0 251 895 0 17 189 0 903 251 925 187 436 434 0 924 -17
 338 0 903 925 251 236 923 336 0 921 +17 251 0 903 338 189 249 924 343 0 335 +17
 51 0 896 918 248 49 921 328 0 347 +15 922 618 0 926 295 291 17 926 0 922 927 92
8 52 36 349 0 0 -17 927 0 922 929 926 237 54 305 0 0 -17 928 0 922 926 929 244 3
53 351 0 0 -17 36 0 34 32 363 244 926 349 0 928 +15 34 888 0 363 882 0 17 363 0
 34 36 35 52 930 357 0 926 +17 35 0 34 363 32 198 418 416 0 930 -17 930 0 869 19
4 54 198 363 357 0 427 -15 869 876 0 239 862 0 17 194 0 869 239 930 192 427 425
 0 931 -17 54 0 869 930 239 52 927 305 0 363 +17 427 0 686 418 424 198 194 425 0
 0 +15 686 706 0 424 675 932 17 418 0 686 421 427 25 35 416 0 0 +17 424 0 686 42
7 421 192 197 422 0 0 +17 421 0 686 424 418 195 39 419 0 0 +17 197 0 876 243 931
 195 424 422 0 933 -15 876 880 0 243 868 0 17 243 0 876 356 197 241 933 359 0 35
3 +17 931 0 876 197 356 192 239 331 0 424 -17 933 0 883 39 353 195 243 359 0 421
 -15 883 884 0 37 875 0 17 39 0 883 37 933 25 421 419 0 418 -17 353 0 883 933 37
 241 928 351 0 929 +17 37 0 883 353 39 244 32 38 0 36 +17 929 0 922 928 927 241
 356 354 0 0 -17 356 0 876 931 243 237 929 354 0 927 +17 239 0 869 54 194 237 93
1 331 0 356 +15 932 690 0 412 675 934 17 412 0 932 415 279 200 205 410 0 0 +15 9
34 674 0 403 675 935 17 403 0 934 406 400 209 214 401 0 0 +15 935 658 0 391 675
 674 17 391 0 935 394 388 218 223 389 0 0 +17 394 0 935 385 391 224 220 392 0 0
 +17 388 0 935 391 385 221 936 386 0 0 +17 223 0 796 232 937 221 391 389 0 938 -
15 796 1141 0 232 788 0 17 232 0 796 373 223 230 938 378 0 370 +17 937 0 796 223
 373 218 229 375 0 391 -17 938 0 803 936 370 221 232 378 0 388 -15 803 1145 0 23
5 795 0 17 936 0 803 235 938 46 388 386 0 385 -17 370 0 803 938 235 230 939 368
 0 940 +17 235 0 803 370 936 233 48 380 0 367 +17 939 0 941 942 940 233 370 368
 0 0 -17 940 0 941 939 943 230 373 371 0 0 -15 941 558 0 942 295 628 17 943 0 94
1 940 942 227 63 342 0 0 -17 373 0 796 937 232 227 940 371 0 943 +17 942 0 941 9
43 939 61 367 365 0 0 -17 63 0 789 944 229 61 943 342 0 383 +15 789 1137 0 229 7
77 0 17 944 0 789 220 63 224 383 374 0 394 -17 229 0 789 63 220 227 937 375 0 37
3 +17 383 0 810 367 226 61 944 374 0 942 +15 810 1149 0 383 802 0 17 367 0 810 4
8 383 233 942 365 0 939 +17 226 0 810 383 48 224 385 377 0 944 -17 48 0 810 226
 367 46 235 380 0 936 -17 385 0 935 388 394 46 226 377 0 0 +17 220 0 789 229 944
 218 394 392 0 937 -17 406 0 934 397 403 215 211 404 0 0 +17 400 0 934 403 397 2
12 945 398 0 0 +17 214 0 824 259 946 212 403 401 0 947 -15 824 1054 0 259 816 0
 17 259 0 824 318 214 257 947 322 0 315 +17 946 0 824 214 318 209 255 320 0 403
 -17 947 0 831 945 315 212 259 322 0 400 -15 831 1058 0 262 823 0 17 945 0 831 2
62 947 41 400 398 0 397 -17 315 0 831 947 262 257 948 313 0 949 +17 262 0 831 31
5 945 260 45 324 0 312 +17 948 0 296 950 949 260 315 313 0 0 -17 949 0 296 948 9
51 257 318 316 0 0 -15 296 578 0 950 295 941 17 951 0 296 949 950 253 60 308 0 0
 -17 318 0 824 946 259 253 949 316 0 951 +17 950 0 296 951 948 58 312 310 0 0 -1
7 60 0 817 952 255 58 951 308 0 327 +15 817 1050 0 255 809 0 17 952 0 817 211 60
 215 327 319 0 406 -17 255 0 817 60 211 253 946 320 0 318 +17 327 0 838 312 217
 58 952 319 0 950 +15 838 1062 0 327 830 0 17 312 0 838 45 327 260 950 310 0 948
 +17 217 0 838 327 45 215 397 395 0 952 -17 45 0 838 217 312 41 262 324 0 945 -1
7 397 0 934 400 406 41 217 395 0 0 +17 211 0 817 255 952 209 406 404 0 946 -17 4
15 0 932 281 412 206 202 413 0 0 +17 279 0 932 412 281 203 271 280 0 0 +17 205 0
 851 267 953 203 412 410 0 275 -15 851 967 0 267 844 0 17 267 0 851 297 205 265
 275 283 0 270 +17 953 0 851 205 297 200 264 303 0 412 -17 275 0 269 271 270 203
 267 283 0 279 -17 297 0 851 953 267 246 278 298 0 292 +17 264 0 845 57 202 246
 953 303 0 297 +15 845 963 0 264 837 0 17 57 0 845 290 264 55 292 293 0 286 +17
 202 0 845 264 290 200 415 413 0 953 -17 290 0 845 202 57 206 286 284 0 415 -17
 292 0 291 278 287 246 57 293 0 0 -16 293 936 0 ?57 288 320 301 0 0 1 31 301 128
7 0 293 0 294 0 +-.05083 2893949335023835e-47 -163488324657992e-30 0 -1 -1770125
9958947e-29 0 17701259958947e-29 -1 .00316999999999396 17 281 0 932 279 415 33 2
08 407 0 0 +17 208 0 282 286 40 206 281 407 0 290 -83 3 913 .776470588235294 .75
6862745098039 .737254901960784 83 3 906 .776470588235294 .756862745098039 .73725
4901960784 83 3 899 .776470588235294 .756862745098039 .737254901960784 83 3 892
 .776470588235294 .756862745098039 .737254901960784 83 3 886 .776470588235294 .7
56862745098039 .737254901960784 83 3 879 .776470588235294 .756862745098039 .7372
54901960784 83 3 872 .776470588235294 .756862745098039 .737254901960784 83 3 865
 .776470588235294 .756862745098039 .737254901960784 83 3 859 .776470588235294 .7
56862745098039 .737254901960784 83 3 854 .776470588235294 .756862745098039 .7372
54901960784 83 3 848 .776470588235294 .756862745098039 .737254901960784 83 3 841
 .776470588235294 .756862745098039 .737254901960784 83 3 834 .776470588235294 .7
56862745098039 .737254901960784 83 3 827 .776470588235294 .756862745098039 .7372
54901960784 83 3 820 .776470588235294 .756862745098039 .737254901960784 83 3 813
 .776470588235294 .756862745098039 .737254901960784 83 3 806 .776470588235294 .7
56862745098039 .737254901960784 83 3 799 .776470588235294 .756862745098039 .7372
54901960784 83 3 792 .776470588235294 .756862745098039 .737254901960784 83 3 785
 .776470588235294 .756862745098039 .737254901960784 83 3 780 .776470588235294 .7
56862745098039 .737254901960784 83 3 774 .776470588235294 .756862745098039 .7372
54901960784 83 3 769 .776470588235294 .756862745098039 .737254901960784 83 3 764
 .776470588235294 .756862745098039 .737254901960784 83 3 759 .776470588235294 .7
56862745098039 .737254901960784 83 3 754 .776470588235294 .756862745098039 .7372
54901960784 83 3 748 .776470588235294 .756862745098039 .737254901960784 83 3 743
 .776470588235294 .756862745098039 .737254901960784 83 3 738 .776470588235294 .7
56862745098039 .737254901960784 83 3 733 .776470588235294 .756862745098039 .7372
54901960784 83 3 728 .776470588235294 .756862745098039 .737254901960784 83 3 723
 .776470588235294 .756862745098039 .737254901960784 83 3 718 .776470588235294 .7
56862745098039 .737254901960784 81 1 711 1653 702 673 0 681 680 707 954 83 3 713
 .776470588235294 .756862745098039 .737254901960784 81 1 681 1777 679 673 711 0
 676 684 955 81 1 680 1652 702 675 0 676 704 711 956 83 3 954 .776470588235294 .
756862745098039 .737254901960784 81 1 704 1651 702 595 0 684 697 680 957 83 3 95
6 .776470588235294 .756862745098039 .737254901960784 81 1 684 1778 679 595 704 0
 681 687 958 83 3 957 .776470588235294 .756862745098039 .737254901960784 82 1 95
8 96993406 82 1 955 96469118 81 1 703 1649 702 580 0 692 691 697 959 82 1 706 97
517694 81 1 691 1648 702 603 0 689 688 703 960 83 3 959 .776470588235294 .756862
745098039 .737254901960784 81 1 688 1647 702 16 0 687 0 691 961 83 3 960 .776470
588235294 .756862745098039 .737254901960784 83 3 961 .776470588235294 .756862745
098039 .737254901960784 83 3 705 .776470588235294 .756862745098039 .737254901960
784 79 14 701 SWEntUnchanged82 1 693 97779838 82 1 690 98041982 82 1 682 9673133
7 17 167 0 598 164 170 165 672 455 0 670 +17 164 0 598 161 167 162 669 457 0 664
 +17 161 0 598 158 164 159 662 459 0 660 +17 158 0 598 155 161 156 658 461 0 656
 +17 155 0 598 152 158 153 655 463 0 649 +17 152 0 598 149 155 150 647 465 0 645
 +17 149 0 598 146 152 147 643 467 0 641 +17 146 0 598 143 149 144 640 469 0 634
 +17 143 0 598 140 146 141 632 471 0 630 +17 140 0 598 137 143 138 629 473 0 627
 +17 137 0 598 134 140 135 626 475 0 620 +17 134 0 598 131 137 132 618 477 0 616
 +17 131 0 598 128 134 129 614 479 0 612 +17 128 0 598 443 131 64 611 481 0 605
 +17 601 0 604 524 602 64 443 441 0 0 -19 17 436 0 1 0 9 5 S0 74 4 CI16 index_ma
p_offset0 0 1 dCCZ20 15 9 0 0 962 963 907 964 965 966 912 13 2 0 0 0 0 0 0 0 0 0
 0 0 81 2 962 524 967 1 0 963 0 0 0 968 81 2 963 528 969 1 962 964 0 0 0 970 81
 2 964 552 971 1 963 965 0 0 0 0 81 1 965 1560 972 1 964 966 0 0 973 81 2 966 16
04 974 1 965 13 0 0 0 975 81 2 13 1774 976 1 966 2 0 0 977 0 80 2 976 978 979 80
04 0 0 0 0 3 5 0 0 0 FFTFFFFFFFFFFF2 3 83 1 977 78e2 79 16 979 SDL/TYSA_DENSITY8
0 2 974 980 981 9000 0 0 0 0 3 5 0 0 0 FFTFFFFFFFFFFF9 1 82 1 975 1 79 24 981 BO
DY_IN_LIGHTWEIGHT_PERM80 1 972 982 983 9000 1 1 1 1 1 1 1 1 0 FFTFFFFFFFFFFF1 82
 1 973 2425814 79 10 983 BODY_MATCH80 2 971 984 985 9000 0 0 0 0 3 5 0 0 0 FFTFF
FFFFFFFFF9 1 79 16 985 BODY_RECIPE_200180 2 969 986 987 9000 0 0 0 0 3 5 0 0 0 F
FTFFFFFFFFFFF9 1 82 1 970 97 79 30 987 LAST_BODY_MODIFYING_FEATURE_ID80 2 967 98
8 989 9000 0 0 0 0 3 5 0 0 0 FFTFFFFFFFFFFT9 1 82 1 968 166 79 19 989 ENT_TIME_S
TAMP_200180 2 12 990 991 9000 0 0 0 0 3 5 0 0 0 FFTFFFFFFFFFFF9 1 82 1 14 102 79
 12 991 ATOM_ID_20011 0 
