G04 Layer_Color=15132400*
%FSLAX24Y24*%
%MOIN*%
G70*
G01*
G75*
%ADD18C,0.0100*%
%ADD39C,0.0079*%
%ADD40C,0.0039*%
%ADD41C,0.0100*%
%ADD42C,0.0118*%
%ADD43C,0.0059*%
D18*
X9823Y13740D02*
X12579D01*
X9823Y19685D02*
X12579D01*
X9823Y13740D02*
Y19685D01*
X12579Y13740D02*
Y19685D01*
X26523Y17568D02*
Y22314D01*
X26494Y22343D02*
X26523Y22314D01*
X21246Y22343D02*
X26494D01*
Y17539D02*
X26523Y17568D01*
X21246Y17539D02*
X26494D01*
X26208Y21398D02*
X26523Y21713D01*
X26208Y18484D02*
X26523Y18169D01*
X26208Y18484D02*
Y21398D01*
X21246Y17539D02*
Y22343D01*
X21235Y16039D02*
X21935D01*
Y16139D01*
X21235D02*
X21935D01*
X21235Y16039D02*
Y16139D01*
X22992Y13858D02*
X25442D01*
X22598Y16260D02*
X25442D01*
X22598Y14291D02*
Y16260D01*
Y14291D02*
X22992Y13858D01*
X25442D02*
Y16260D01*
D39*
X10355Y11923D02*
X10905D01*
X10355D02*
X10430Y11848D01*
X10830D01*
X10906Y11924D01*
X10354D02*
X10430Y11848D01*
X10354Y11924D02*
Y12223D01*
Y11998D02*
X10906D01*
Y11924D02*
Y12173D01*
Y13198D01*
X10354D02*
X10906D01*
X10354Y12223D02*
Y13198D01*
X10355Y20191D02*
X10905D01*
X10355D02*
X10430Y20116D01*
X10830D01*
X10906Y20192D01*
X10354D02*
X10430Y20116D01*
X10354Y20192D02*
Y20491D01*
Y20266D02*
X10906D01*
Y20192D02*
Y20441D01*
Y21466D01*
X10354D02*
X10906D01*
X10354Y20491D02*
Y21466D01*
X13875Y20781D02*
X13809Y20846D01*
X13678D01*
X13612Y20781D01*
Y20518D01*
X13678Y20453D01*
X13809D01*
X13875Y20518D01*
Y20650D01*
X13743D01*
X14006Y20453D02*
Y20846D01*
X14268Y20453D01*
Y20846D01*
X14399D02*
Y20453D01*
X14596D01*
X14662Y20518D01*
Y20781D01*
X14596Y20846D01*
X14399D01*
X13583Y19901D02*
Y19639D01*
X13714Y19508D01*
X13845Y19639D01*
Y19901D01*
X13976Y19508D02*
X14107D01*
X14042D01*
Y19770D01*
X13976D01*
X14370Y19508D02*
X14501D01*
X14567Y19573D01*
Y19705D01*
X14501Y19770D01*
X14370D01*
X14304Y19705D01*
Y19573D01*
X14370Y19508D01*
X13573Y13819D02*
Y13556D01*
X13704Y13425D01*
X13835Y13556D01*
Y13819D01*
X13966Y13425D02*
X14098D01*
X14032D01*
Y13688D01*
X13966D01*
X14294Y13425D02*
Y13688D01*
X14491D01*
X14557Y13622D01*
Y13425D01*
X12795Y10020D02*
Y10413D01*
X12992D01*
X13058Y10348D01*
Y10216D01*
X12992Y10151D01*
X12795D01*
X12926D02*
X13058Y10020D01*
X13451D02*
X13189D01*
X13451Y10282D01*
Y10348D01*
X13386Y10413D01*
X13254D01*
X13189Y10348D01*
X13582D02*
X13648Y10413D01*
X13779D01*
X13845Y10348D01*
Y10085D01*
X13779Y10020D01*
X13648D01*
X13582Y10085D01*
Y10348D01*
X10443Y23364D02*
Y23757D01*
X10640D01*
X10706Y23692D01*
Y23560D01*
X10640Y23495D01*
X10443D01*
X10574D02*
X10706Y23364D01*
X10837D02*
X10968D01*
X10902D01*
Y23757D01*
X10837Y23692D01*
X11165Y23429D02*
X11230Y23364D01*
X11361D01*
X11427Y23429D01*
Y23692D01*
X11361Y23757D01*
X11230D01*
X11165Y23692D01*
Y23626D01*
X11230Y23560D01*
X11427D01*
X10642Y21780D02*
X10380D01*
X10642Y22042D01*
Y22108D01*
X10577Y22174D01*
X10446D01*
X10380Y22108D01*
X10970Y21780D02*
Y22174D01*
X10774Y21977D01*
X11036D01*
X11167Y22174D02*
Y21911D01*
X11298Y21780D01*
X11430Y21911D01*
Y22174D01*
X10440Y11712D02*
X10177D01*
Y11516D01*
X10308Y11581D01*
X10374D01*
X10440Y11516D01*
Y11384D01*
X10374Y11319D01*
X10243D01*
X10177Y11384D01*
X10571Y11712D02*
Y11450D01*
X10702Y11319D01*
X10833Y11450D01*
Y11712D01*
X25203Y12739D02*
X25138Y12805D01*
X25007D01*
X24941Y12739D01*
Y12674D01*
X25007Y12608D01*
X25138D01*
X25203Y12543D01*
Y12477D01*
X25138Y12411D01*
X25007D01*
X24941Y12477D01*
X25335Y12411D02*
Y12805D01*
X25531D01*
X25597Y12739D01*
Y12608D01*
X25531Y12543D01*
X25335D01*
X25728Y12411D02*
Y12805D01*
X25925D01*
X25990Y12739D01*
Y12608D01*
X25925Y12543D01*
X25728D01*
X25859D02*
X25990Y12411D01*
X26122Y12805D02*
Y12411D01*
X26318D01*
X26384Y12477D01*
Y12739D01*
X26318Y12805D01*
X26122D01*
X21988Y12431D02*
Y12825D01*
X22119Y12693D01*
X22251Y12825D01*
Y12431D01*
X22644Y12759D02*
X22579Y12825D01*
X22447D01*
X22382Y12759D01*
Y12693D01*
X22447Y12628D01*
X22579D01*
X22644Y12562D01*
Y12497D01*
X22579Y12431D01*
X22447D01*
X22382Y12497D01*
X22775Y12431D02*
X22907D01*
X22841D01*
Y12825D01*
X22775Y12759D01*
X23406Y10886D02*
Y11279D01*
X23537Y11148D01*
X23668Y11279D01*
Y10886D01*
X24061Y11214D02*
X23996Y11279D01*
X23865D01*
X23799Y11214D01*
Y11148D01*
X23865Y11083D01*
X23996D01*
X24061Y11017D01*
Y10951D01*
X23996Y10886D01*
X23865D01*
X23799Y10951D01*
X24455Y10886D02*
X24193D01*
X24455Y11148D01*
Y11214D01*
X24389Y11279D01*
X24258D01*
X24193Y11214D01*
X21703Y13366D02*
Y13629D01*
X21900Y13760D02*
X21703Y13957D01*
X21506Y13760D01*
Y14678D02*
Y14547D01*
X21572Y14481D01*
X21834D01*
X21900Y14547D01*
Y14678D01*
X21834Y14744D01*
X21572D01*
X21506Y14678D01*
X21900Y14875D02*
X21637D01*
Y15072D01*
X21703Y15137D01*
X21900D01*
D40*
X22746Y18687D02*
Y21687D01*
X22223Y19189D02*
X23207D01*
X22234Y20190D02*
X23218D01*
X22234Y21203D02*
X23218D01*
X21234Y20707D02*
X22218D01*
X21234Y19694D02*
X22218D01*
X21223Y18693D02*
X22207D01*
X21746Y18191D02*
Y21191D01*
X25285Y16870D02*
Y18091D01*
Y21752D02*
Y22972D01*
X22835Y14803D02*
X23150D01*
X22835Y15591D02*
X23150D01*
X22835Y14803D02*
Y15591D01*
X23150Y14803D02*
Y15591D01*
X22835Y15315D02*
X23150D01*
X23835Y14807D02*
X24150D01*
X23835Y15594D02*
X24150D01*
X23835Y14807D02*
Y15594D01*
X24150Y14807D02*
Y15594D01*
X23835Y15319D02*
X24150D01*
X24835Y14807D02*
X25150D01*
X24835Y15594D02*
X25150D01*
X24835Y14807D02*
Y15594D01*
X25150Y14807D02*
Y15594D01*
X24835Y15319D02*
X25150D01*
X20610Y12569D02*
Y12844D01*
X20748D01*
X20794Y12798D01*
Y12707D01*
X20748Y12661D01*
X20610D01*
X20702D02*
X20794Y12569D01*
X20886Y12844D02*
X21069D01*
Y12798D01*
X20886Y12615D01*
Y12569D01*
X21516Y11142D02*
Y11417D01*
X21653D01*
X21699Y11371D01*
Y11279D01*
X21653Y11234D01*
X21516D01*
X21608D02*
X21699Y11142D01*
X21791Y11371D02*
X21837Y11417D01*
X21929D01*
X21975Y11371D01*
Y11325D01*
X21929Y11279D01*
X21975Y11234D01*
Y11188D01*
X21929Y11142D01*
X21837D01*
X21791Y11188D01*
Y11234D01*
X21837Y11279D01*
X21791Y11325D01*
Y11371D01*
X21837Y11279D02*
X21929D01*
X9994Y20251D02*
X9902D01*
X9948D01*
Y20022D01*
X9902Y19976D01*
X9857D01*
X9811Y20022D01*
X10086Y20206D02*
X10132Y20251D01*
X10224D01*
X10270Y20206D01*
Y20160D01*
X10224Y20114D01*
X10178D01*
X10224D01*
X10270Y20068D01*
Y20022D01*
X10224Y19976D01*
X10132D01*
X10086Y20022D01*
X26089Y15469D02*
X26043Y15423D01*
Y15331D01*
X26089Y15285D01*
X26135D01*
X26181Y15331D01*
Y15423D01*
X26227Y15469D01*
X26273D01*
X26319Y15423D01*
Y15331D01*
X26273Y15285D01*
X26043Y15561D02*
X26319D01*
X26227Y15653D01*
X26319Y15745D01*
X26043D01*
X26319Y15836D02*
Y15928D01*
Y15882D01*
X26043D01*
X26089Y15836D01*
X14632Y21727D02*
Y21498D01*
X14678Y21452D01*
X14770D01*
X14816Y21498D01*
Y21727D01*
X15091Y21452D02*
X14907D01*
X15091Y21636D01*
Y21682D01*
X15045Y21727D01*
X14953D01*
X14907Y21682D01*
X19268Y22037D02*
X19176D01*
X19222D01*
Y21808D01*
X19176Y21762D01*
X19131D01*
X19085Y21808D01*
X19360Y21762D02*
X19452D01*
X19406D01*
Y22037D01*
X19360Y21991D01*
X27057Y18566D02*
Y18658D01*
Y18612D01*
X26827D01*
X26781Y18658D01*
Y18704D01*
X26827Y18750D01*
X26781Y18291D02*
Y18475D01*
X26965Y18291D01*
X27011D01*
X27057Y18337D01*
Y18429D01*
X27011Y18475D01*
X20856Y16043D02*
X21040D01*
X21132Y16135D01*
X21040Y16227D01*
X20856D01*
Y16319D02*
X21132D01*
Y16457D01*
X21086Y16502D01*
X20902D01*
X20856Y16457D01*
Y16319D01*
X21132Y16594D02*
Y16686D01*
Y16640D01*
X20856D01*
X20902Y16594D01*
X11959Y14542D02*
X12235D01*
X12097Y14680D01*
Y14496D01*
X12139Y16030D02*
X12185Y15984D01*
Y15892D01*
X12139Y15846D01*
X12093D01*
X12047Y15892D01*
Y15938D01*
Y15892D01*
X12001Y15846D01*
X11955D01*
X11909Y15892D01*
Y15984D01*
X11955Y16030D01*
X11909Y17346D02*
Y17530D01*
X12093Y17346D01*
X12139D01*
X12185Y17392D01*
Y17484D01*
X12139Y17530D01*
X11909Y18780D02*
Y18688D01*
Y18734D01*
X12185D01*
X12139Y18780D01*
X10190Y17284D02*
X10466D01*
X10328Y17421D01*
Y17238D01*
X10190Y17146D02*
X10466D01*
Y17008D01*
X10420Y16962D01*
X10328D01*
X10282Y17008D01*
Y17146D01*
X10466Y16870D02*
Y16687D01*
Y16778D01*
X10190D01*
X10466Y16595D02*
X10190D01*
Y16457D01*
X10236Y16411D01*
X10282D01*
X10328Y16457D01*
Y16595D01*
Y16457D01*
X10374Y16411D01*
X10420D01*
X10466Y16457D01*
Y16595D01*
X22953Y14213D02*
X23045D01*
X22999D01*
Y14488D01*
X22953Y14442D01*
X24031Y14213D02*
X23848D01*
X24031Y14396D01*
Y14442D01*
X23985Y14488D01*
X23894D01*
X23848Y14442D01*
X22972Y16024D02*
X22881D01*
X22835Y15978D01*
Y15794D01*
X22881Y15748D01*
X22972D01*
X23018Y15794D01*
Y15978D01*
X22972Y16024D01*
X23110Y15748D02*
Y16024D01*
X23294Y15748D01*
Y16024D01*
X24871Y14442D02*
X24917Y14488D01*
X25009D01*
X25055Y14442D01*
Y14396D01*
X25009Y14350D01*
X24963D01*
X25009D01*
X25055Y14304D01*
Y14259D01*
X25009Y14213D01*
X24917D01*
X24871Y14259D01*
D41*
X21496Y18191D02*
D03*
D42*
X13750Y21437D02*
X20049D01*
X13750D02*
Y24833D01*
X20049Y24636D02*
Y24833D01*
Y21437D02*
Y24636D01*
D43*
X19301Y10945D02*
Y11220D01*
X19439D01*
X19485Y11174D01*
Y11083D01*
X19439Y11037D01*
X19301D01*
X19393D02*
X19485Y10945D01*
X19577Y10991D02*
X19623Y10945D01*
X19714D01*
X19760Y10991D01*
Y11174D01*
X19714Y11220D01*
X19623D01*
X19577Y11174D01*
Y11129D01*
X19623Y11083D01*
X19760D01*
M02*
