M48
;Layer_Color=6321
;FILE_FORMAT=2:4
INCH,LZ
;TYPE=PLATED
T1F00S00C0.0118
T2F00S00C0.0280
T3F00S00C0.0300
T4F00S00C0.0315
T5F00S00C0.0472
T6F00S00C0.1220
T7F00S00C0.1260
T8F00S00C0.1280
;TYPE=NON_PLATED
%
T01
X015167Y011762
Y012165
Y012569
T02
X020505Y011447
X02159Y012657
X02292Y01456
X0248Y01538
X01929Y02145
T03
X01514Y013667
Y014667
X01814Y013667
X01914
X02014
Y014667
X01864Y014167
X02014Y015667
Y016667
Y017667
Y018667
Y019667
Y020667
X01514
Y019667
Y018667
Y017667
Y016667
Y015667
T04
X01615Y022073
X01715
X01815
X01865Y023073
X01765
X01665
X01565
X021746Y020693
Y019693
Y018693
X022746Y019189
Y020189
Y021189
X01515Y022073
T05
X01124Y014646
Y016024
Y017402
Y01878
T06
X012067Y012067
X024272
Y024272
X012067
T07
X019163Y025573
X014636
T08
X025246Y017941
Y021941
M30
