G04 Layer_Physical_Order=1*
G04 Layer_Color=25308*
%FSLAX24Y24*%
%MOIN*%
G70*
G01*
G75*
%ADD10R,0.0413X0.0394*%
%ADD11R,0.0335X0.0335*%
%ADD12R,0.0453X0.0413*%
%ADD13R,0.0354X0.0413*%
%ADD14R,0.0480X0.0358*%
%ADD15R,0.0433X0.0591*%
%ADD16R,0.0433X0.0591*%
%ADD17R,0.0433X0.0591*%
%ADD18C,0.0100*%
%ADD19C,0.0197*%
%ADD20C,0.0098*%
%ADD21C,0.0394*%
%ADD22C,0.0591*%
%ADD23C,0.0600*%
%ADD24O,0.0472X0.0866*%
%ADD25C,0.1457*%
G04:AMPARAMS|DCode=26|XSize=27.6mil|YSize=114.2mil|CornerRadius=6.9mil|HoleSize=0mil|Usage=FLASHONLY|Rotation=0.000|XOffset=0mil|YOffset=0mil|HoleType=Round|Shape=RoundedRectangle|*
%AMROUNDEDRECTD26*
21,1,0.0276,0.1004,0,0,0.0*
21,1,0.0138,0.1142,0,0,0.0*
1,1,0.0138,0.0069,-0.0502*
1,1,0.0138,-0.0069,-0.0502*
1,1,0.0138,-0.0069,0.0502*
1,1,0.0138,0.0069,0.0502*
%
%ADD26ROUNDEDRECTD26*%
%ADD27C,0.0472*%
%ADD28C,0.0236*%
%ADD29C,0.1220*%
G36*
X25807Y26453D02*
Y26453D01*
X25931Y26441D01*
X26050Y26405D01*
X26160Y26346D01*
X26257Y26267D01*
X26336Y26170D01*
X26395Y26060D01*
X26431Y25941D01*
X26443Y25817D01*
X26444D01*
X26444Y25817D01*
X26444Y25817D01*
Y25817D01*
X26444Y25817D01*
X26435D01*
X26436Y25816D01*
X26444Y25816D01*
Y10532D01*
X26444Y10532D01*
X26443D01*
X26431Y10407D01*
X26395Y10288D01*
X26336Y10178D01*
X26257Y10082D01*
X26160Y10003D01*
X26050Y9944D01*
X25931Y9908D01*
X25807Y9896D01*
X25807Y9895D01*
Y9903D01*
X25806Y9903D01*
X25807Y9895D01*
X10532D01*
X10532Y9895D01*
Y9895D01*
X10407Y9908D01*
X10288Y9944D01*
X10178Y10003D01*
X10082Y10082D01*
X10003Y10178D01*
X9944Y10288D01*
X9908Y10407D01*
X9901Y10479D01*
X9896Y10479D01*
X9895Y10482D01*
X9903D01*
X9895Y10502D01*
Y25817D01*
X9895Y25817D01*
X9895D01*
X9908Y25941D01*
X9944Y26060D01*
X10003Y26170D01*
X10082Y26267D01*
X10178Y26346D01*
X10288Y26405D01*
X10407Y26441D01*
X10479Y26448D01*
X10479Y26452D01*
X10482Y26453D01*
Y26445D01*
X10502Y26453D01*
X25807D01*
X25807Y26453D01*
X25807Y26453D01*
D02*
G37*
%LPC*%
G36*
X15140Y17022D02*
X15048Y17009D01*
X14963Y16974D01*
X14889Y16918D01*
X14833Y16844D01*
X14798Y16759D01*
X14786Y16671D01*
X14391Y16277D01*
X11487D01*
X11417Y16330D01*
X11332Y16366D01*
X11240Y16378D01*
X11148Y16366D01*
X11063Y16330D01*
X10990Y16274D01*
X10933Y16201D01*
X10898Y16115D01*
X10886Y16024D01*
X10898Y15932D01*
X10933Y15847D01*
X10990Y15773D01*
X11063Y15717D01*
X11148Y15681D01*
X11240Y15669D01*
X11332Y15681D01*
X11417Y15717D01*
X11487Y15771D01*
X14496D01*
X14593Y15790D01*
X14675Y15845D01*
X15144Y16314D01*
X15231Y16325D01*
X15317Y16361D01*
X15390Y16417D01*
X15447Y16490D01*
X15482Y16576D01*
X15494Y16667D01*
X15482Y16759D01*
X15447Y16844D01*
X15390Y16918D01*
X15317Y16974D01*
X15231Y17009D01*
X15140Y17022D01*
D02*
G37*
G36*
Y16022D02*
X15048Y16009D01*
X14963Y15974D01*
X14889Y15918D01*
X14833Y15844D01*
X14798Y15759D01*
X14786Y15671D01*
X14013Y14899D01*
X11487D01*
X11417Y14952D01*
X11332Y14988D01*
X11240Y15000D01*
X11148Y14988D01*
X11063Y14952D01*
X10990Y14896D01*
X10933Y14823D01*
X10898Y14737D01*
X10886Y14646D01*
X10898Y14554D01*
X10933Y14469D01*
X10990Y14395D01*
X11063Y14339D01*
X11148Y14304D01*
X11240Y14291D01*
X11332Y14304D01*
X11417Y14339D01*
X11487Y14393D01*
X14118D01*
X14215Y14412D01*
X14297Y14467D01*
X15144Y15314D01*
X15231Y15325D01*
X15317Y15361D01*
X15390Y15417D01*
X15447Y15490D01*
X15482Y15576D01*
X15494Y15667D01*
X15482Y15759D01*
X15447Y15844D01*
X15390Y15918D01*
X15317Y15974D01*
X15231Y16009D01*
X15140Y16022D01*
D02*
G37*
G36*
X18640Y14522D02*
X18548Y14509D01*
X18463Y14474D01*
X18389Y14418D01*
X18333Y14344D01*
X18298Y14259D01*
X18286Y14167D01*
X18298Y14076D01*
X18333Y13990D01*
X18386Y13921D01*
X18317Y13974D01*
X18231Y14009D01*
X18140Y14022D01*
X18048Y14009D01*
X17963Y13974D01*
X17889Y13918D01*
X17833Y13844D01*
X17798Y13759D01*
X17786Y13667D01*
X17798Y13576D01*
X17833Y13490D01*
X17889Y13417D01*
X17963Y13361D01*
X18048Y13325D01*
X18140Y13313D01*
X18231Y13325D01*
X18317Y13361D01*
X18390Y13417D01*
X18447Y13490D01*
X18482Y13576D01*
X18494Y13667D01*
X18482Y13759D01*
X18447Y13844D01*
X18393Y13914D01*
X18463Y13861D01*
X18548Y13825D01*
X18640Y13813D01*
X18731Y13825D01*
X18817Y13861D01*
X18886Y13914D01*
X18833Y13844D01*
X18798Y13759D01*
X18786Y13667D01*
X18798Y13576D01*
X18833Y13490D01*
X18889Y13417D01*
X18963Y13361D01*
X19048Y13325D01*
X19140Y13313D01*
X19231Y13325D01*
X19317Y13361D01*
X19390Y13417D01*
X19447Y13490D01*
X19482Y13576D01*
X19494Y13667D01*
X19482Y13759D01*
X19447Y13844D01*
X19390Y13918D01*
X19317Y13974D01*
X19231Y14009D01*
X19140Y14022D01*
X19048Y14009D01*
X18963Y13974D01*
X18893Y13921D01*
X18947Y13990D01*
X18982Y14076D01*
X18994Y14167D01*
X18982Y14259D01*
X18947Y14344D01*
X18890Y14418D01*
X18817Y14474D01*
X18731Y14509D01*
X18640Y14522D01*
D02*
G37*
G36*
X20140Y17022D02*
X20048Y17009D01*
X19963Y16974D01*
X19889Y16918D01*
X19833Y16844D01*
X19798Y16759D01*
X19786Y16667D01*
X19798Y16576D01*
X19833Y16490D01*
X19889Y16417D01*
X19963Y16361D01*
X20048Y16325D01*
X20140Y16313D01*
X20231Y16325D01*
X20317Y16361D01*
X20390Y16417D01*
X20447Y16490D01*
X20482Y16576D01*
X20494Y16667D01*
X20482Y16759D01*
X20447Y16844D01*
X20390Y16918D01*
X20317Y16974D01*
X20231Y17009D01*
X20140Y17022D01*
D02*
G37*
G36*
Y18022D02*
X20048Y18009D01*
X19963Y17974D01*
X19889Y17918D01*
X19833Y17844D01*
X19798Y17759D01*
X19786Y17667D01*
X19798Y17576D01*
X19833Y17490D01*
X19889Y17417D01*
X19963Y17361D01*
X20048Y17325D01*
X20140Y17313D01*
X20231Y17325D01*
X20317Y17361D01*
X20390Y17417D01*
X20447Y17490D01*
X20482Y17576D01*
X20494Y17667D01*
X20482Y17759D01*
X20447Y17844D01*
X20390Y17918D01*
X20317Y17974D01*
X20231Y18009D01*
X20140Y18022D01*
D02*
G37*
G36*
X25246Y18635D02*
X25111Y18622D01*
X24980Y18582D01*
X24860Y18518D01*
X24755Y18432D01*
X24669Y18327D01*
X24605Y18207D01*
X24565Y18076D01*
X24552Y17941D01*
X24565Y17805D01*
X24605Y17675D01*
X24669Y17555D01*
X24755Y17450D01*
X24860Y17364D01*
X24980Y17299D01*
X25111Y17260D01*
X25246Y17247D01*
X25382Y17260D01*
X25512Y17299D01*
X25632Y17364D01*
X25737Y17450D01*
X25823Y17555D01*
X25887Y17675D01*
X25927Y17805D01*
X25940Y17941D01*
X25927Y18076D01*
X25887Y18207D01*
X25823Y18327D01*
X25737Y18432D01*
X25632Y18518D01*
X25512Y18582D01*
X25382Y18622D01*
X25246Y18635D01*
D02*
G37*
G36*
X25260Y17157D02*
X24724D01*
Y16914D01*
X24260D01*
Y17157D01*
X23724D01*
Y16914D01*
X23260D01*
Y17157D01*
X22724D01*
Y16465D01*
X22889D01*
Y15918D01*
X22767Y15796D01*
X21876D01*
Y15923D01*
X21293D01*
Y15463D01*
X21487D01*
Y12926D01*
X21445Y12909D01*
X21385Y12862D01*
X21339Y12802D01*
X21310Y12733D01*
X21300Y12657D01*
X21310Y12582D01*
X21339Y12513D01*
X21385Y12452D01*
X21445Y12406D01*
X21515Y12377D01*
X21590Y12368D01*
X21665Y12377D01*
X21735Y12406D01*
X21795Y12452D01*
X21841Y12513D01*
X21870Y12582D01*
X21880Y12657D01*
X21870Y12733D01*
X21841Y12802D01*
X21795Y12862D01*
X21735Y12909D01*
X21693Y12926D01*
Y15463D01*
X21876D01*
Y15590D01*
X22810D01*
X22850Y15598D01*
X22883Y15620D01*
X23065Y15802D01*
X23087Y15836D01*
X23095Y15875D01*
Y16465D01*
X23260D01*
Y16708D01*
X23724D01*
Y16465D01*
X24260D01*
Y16708D01*
X24724D01*
Y16465D01*
X25260D01*
Y17157D01*
D02*
G37*
G36*
X19290Y21740D02*
X19215Y21730D01*
X19145Y21701D01*
X19085Y21655D01*
X19039Y21595D01*
X19010Y21525D01*
X19000Y21450D01*
X19010Y21375D01*
X19039Y21305D01*
X19085Y21245D01*
X19145Y21199D01*
X19187Y21182D01*
Y19517D01*
X19195Y19478D01*
X19217Y19444D01*
X19828Y18833D01*
X19798Y18759D01*
X19786Y18667D01*
X19798Y18576D01*
X19833Y18490D01*
X19889Y18417D01*
X19963Y18361D01*
X20048Y18325D01*
X20140Y18313D01*
X20231Y18325D01*
X20305Y18356D01*
X21019Y17642D01*
Y11055D01*
X20864D01*
Y10559D01*
X21380D01*
Y11055D01*
X21225D01*
Y17685D01*
X21217Y17725D01*
X21195Y17758D01*
X20451Y18502D01*
X20482Y18576D01*
X20494Y18667D01*
X20482Y18759D01*
X20447Y18844D01*
X20390Y18918D01*
X20317Y18974D01*
X20231Y19009D01*
X20140Y19022D01*
X20048Y19009D01*
X19974Y18979D01*
X19393Y19560D01*
Y21182D01*
X19435Y21199D01*
X19495Y21245D01*
X19541Y21305D01*
X19570Y21375D01*
X19580Y21450D01*
X19570Y21525D01*
X19541Y21595D01*
X19495Y21655D01*
X19435Y21701D01*
X19365Y21730D01*
X19290Y21740D01*
D02*
G37*
G36*
X10848Y12502D02*
X10411D01*
Y12065D01*
X10528D01*
Y11427D01*
X10535Y11388D01*
X10535Y11388D01*
Y11388D01*
X10558Y11355D01*
X11189Y10723D01*
Y10333D01*
X11744D01*
Y10848D01*
X11353D01*
X10732Y11470D01*
Y12065D01*
X10848D01*
Y12502D01*
D02*
G37*
G36*
X18650Y23560D02*
X18575Y23550D01*
X18505Y23521D01*
X18445Y23475D01*
X18399Y23415D01*
X18370Y23345D01*
X18360Y23270D01*
Y22876D01*
X18370Y22801D01*
X18399Y22731D01*
X18445Y22671D01*
X18505Y22625D01*
X18547Y22607D01*
Y15157D01*
X18554Y15125D01*
X18555Y15118D01*
X18577Y15085D01*
X19829Y13834D01*
X19798Y13759D01*
X19786Y13667D01*
X19798Y13576D01*
X19833Y13490D01*
X19889Y13417D01*
X19963Y13361D01*
X20048Y13325D01*
X20140Y13313D01*
X20231Y13325D01*
X20317Y13361D01*
X20390Y13417D01*
X20438Y13479D01*
Y13434D01*
X18667Y11663D01*
X18645Y11629D01*
X18637Y11590D01*
Y10230D01*
X18645Y10191D01*
X18667Y10157D01*
X18677Y10147D01*
X18711Y10125D01*
X18750Y10117D01*
X19636D01*
X19675Y10125D01*
X19709Y10147D01*
X19719Y10157D01*
X19741Y10191D01*
X19749Y10230D01*
Y10274D01*
X19904D01*
Y10418D01*
X19917D01*
X20104Y10232D01*
X20137Y10210D01*
X20177Y10202D01*
X22375D01*
X22414Y10210D01*
X22448Y10232D01*
X22583Y10367D01*
X22605Y10401D01*
X22613Y10440D01*
Y11475D01*
X24065Y12927D01*
X24087Y12961D01*
X24087Y12961D01*
X24260D01*
Y13654D01*
X23724D01*
Y12961D01*
X23807D01*
X22437Y11591D01*
X22415Y11557D01*
X22407Y11518D01*
Y10483D01*
X22332Y10408D01*
X20219D01*
X20033Y10595D01*
X19999Y10617D01*
X19960Y10625D01*
X19904D01*
Y10770D01*
X19388D01*
Y10323D01*
X18843D01*
Y11547D01*
X20589Y13293D01*
Y13066D01*
X20104Y12582D01*
X20082Y12548D01*
X20074Y12509D01*
Y12463D01*
X19919D01*
Y11967D01*
X20435D01*
Y12463D01*
X20280D01*
Y12466D01*
X20765Y12951D01*
X20787Y12984D01*
X20795Y13024D01*
Y15115D01*
X20787Y15154D01*
X20765Y15188D01*
X20451Y15502D01*
X20482Y15576D01*
X20494Y15667D01*
X20482Y15759D01*
X20447Y15844D01*
X20390Y15918D01*
X20317Y15974D01*
X20231Y16009D01*
X20140Y16022D01*
X20048Y16009D01*
X19963Y15974D01*
X19889Y15918D01*
X19833Y15844D01*
X19798Y15759D01*
X19786Y15667D01*
X19798Y15576D01*
X19833Y15490D01*
X19889Y15417D01*
X19963Y15361D01*
X20048Y15325D01*
X20140Y15313D01*
X20231Y15325D01*
X20305Y15356D01*
X20589Y15072D01*
Y14364D01*
X20451Y14502D01*
X20482Y14576D01*
X20494Y14667D01*
X20482Y14759D01*
X20447Y14844D01*
X20390Y14918D01*
X20317Y14974D01*
X20231Y15009D01*
X20140Y15022D01*
X20048Y15009D01*
X19963Y14974D01*
X19889Y14918D01*
X19833Y14844D01*
X19798Y14759D01*
X19786Y14667D01*
X19798Y14576D01*
X19833Y14490D01*
X19889Y14417D01*
X19963Y14361D01*
X20048Y14325D01*
X20140Y14313D01*
X20231Y14325D01*
X20305Y14356D01*
X20438Y14223D01*
Y13856D01*
X20390Y13918D01*
X20317Y13974D01*
X20231Y14009D01*
X20140Y14022D01*
X20048Y14009D01*
X19973Y13979D01*
X18752Y15200D01*
Y22607D01*
X18795Y22625D01*
X18855Y22671D01*
X18901Y22731D01*
X18930Y22801D01*
X18939Y22876D01*
Y23270D01*
X18930Y23345D01*
X18901Y23415D01*
X18855Y23475D01*
X18795Y23521D01*
X18725Y23550D01*
X18650Y23560D01*
D02*
G37*
G36*
X12067Y12732D02*
X11937Y12719D01*
X11813Y12681D01*
X11698Y12620D01*
X11597Y12537D01*
X11514Y12436D01*
X11453Y12321D01*
X11415Y12197D01*
X11402Y12067D01*
X11415Y11937D01*
X11453Y11813D01*
X11514Y11698D01*
X11597Y11597D01*
X11698Y11514D01*
X11813Y11453D01*
X11937Y11415D01*
X12067Y11402D01*
X12197Y11415D01*
X12321Y11453D01*
X12436Y11514D01*
X12537Y11597D01*
X12620Y11698D01*
X12681Y11813D01*
X12719Y11937D01*
X12732Y12067D01*
X12719Y12197D01*
X12681Y12321D01*
X12620Y12436D01*
X12537Y12537D01*
X12436Y12620D01*
X12321Y12681D01*
X12197Y12719D01*
X12067Y12732D01*
D02*
G37*
G36*
X24800Y15670D02*
X24725Y15660D01*
X24655Y15631D01*
X24595Y15585D01*
X24549Y15525D01*
X24520Y15455D01*
X24510Y15380D01*
X24520Y15305D01*
X24549Y15235D01*
X24595Y15175D01*
X24655Y15129D01*
X24725Y15100D01*
X24800Y15090D01*
X24875Y15100D01*
X24889Y15106D01*
Y13654D01*
X24724D01*
Y12961D01*
X25260D01*
Y13654D01*
X25095D01*
Y15188D01*
X25087Y15227D01*
X25065Y15261D01*
X25063Y15263D01*
X25080Y15305D01*
X25090Y15380D01*
X25080Y15455D01*
X25051Y15525D01*
X25005Y15585D01*
X24945Y15631D01*
X24875Y15660D01*
X24800Y15670D01*
D02*
G37*
G36*
X22920Y14850D02*
X22845Y14840D01*
X22775Y14811D01*
X22715Y14765D01*
X22669Y14705D01*
X22640Y14635D01*
X22630Y14560D01*
X22640Y14485D01*
X22669Y14415D01*
X22715Y14355D01*
X22775Y14309D01*
X22845Y14280D01*
X22889Y14274D01*
Y13654D01*
X22724D01*
Y12961D01*
X23260D01*
Y13654D01*
X23095D01*
Y14332D01*
X23125Y14355D01*
X23171Y14415D01*
X23200Y14485D01*
X23210Y14560D01*
X23200Y14635D01*
X23171Y14705D01*
X23125Y14765D01*
X23065Y14811D01*
X22995Y14840D01*
X22920Y14850D01*
D02*
G37*
G36*
X24272Y12732D02*
X24142Y12719D01*
X24017Y12681D01*
X23902Y12620D01*
X23802Y12537D01*
X23719Y12436D01*
X23658Y12321D01*
X23620Y12197D01*
X23607Y12067D01*
X23620Y11937D01*
X23658Y11813D01*
X23719Y11698D01*
X23802Y11597D01*
X23902Y11514D01*
X24017Y11453D01*
X24142Y11415D01*
X24272Y11402D01*
X24401Y11415D01*
X24526Y11453D01*
X24641Y11514D01*
X24742Y11597D01*
X24824Y11698D01*
X24886Y11813D01*
X24924Y11937D01*
X24936Y12067D01*
X24924Y12197D01*
X24886Y12321D01*
X24824Y12436D01*
X24742Y12537D01*
X24641Y12620D01*
X24526Y12681D01*
X24401Y12719D01*
X24272Y12732D01*
D02*
G37*
G36*
X15965Y24266D02*
X13258D01*
X13225Y24259D01*
X13219Y24258D01*
X13185Y24236D01*
X12192Y23242D01*
X10315D01*
X10276Y23234D01*
X10243Y23212D01*
X10220Y23179D01*
X10213Y23140D01*
Y21496D01*
X10219Y21463D01*
X10220Y21457D01*
X10243Y21424D01*
X10411Y21255D01*
Y20963D01*
X10848D01*
Y21400D01*
X10556D01*
X10417Y21538D01*
Y23037D01*
X12234D01*
X12267Y23044D01*
X12273Y23045D01*
X12307Y23067D01*
X13300Y24061D01*
X15922D01*
X16481Y23502D01*
X16445Y23475D01*
X16399Y23415D01*
X16370Y23345D01*
X16360Y23270D01*
Y23264D01*
X16347Y23248D01*
X16312Y23163D01*
X16300Y23073D01*
Y22594D01*
X16300Y22594D01*
X16311Y22508D01*
X16295Y22521D01*
X16225Y22550D01*
X16150Y22560D01*
X16075Y22550D01*
X16005Y22521D01*
X15945Y22475D01*
X15899Y22415D01*
X15870Y22345D01*
X15860Y22270D01*
Y21876D01*
X15870Y21801D01*
X15899Y21731D01*
X15945Y21671D01*
X16005Y21625D01*
X16075Y21596D01*
X16150Y21586D01*
X16225Y21596D01*
X16295Y21625D01*
X16355Y21671D01*
X16401Y21731D01*
X16430Y21801D01*
X16439Y21876D01*
Y22270D01*
X16433Y22316D01*
X16800Y21949D01*
Y15168D01*
X15649Y14017D01*
X15176D01*
X15140Y14022D01*
X15048Y14009D01*
X14963Y13974D01*
X14889Y13918D01*
X14833Y13844D01*
X14798Y13759D01*
X14786Y13667D01*
X14798Y13576D01*
X14833Y13490D01*
X14889Y13417D01*
X14963Y13361D01*
X15048Y13325D01*
X15140Y13313D01*
X15176Y13318D01*
X15793D01*
X15793Y13318D01*
X15884Y13330D01*
X15968Y13365D01*
X16040Y13420D01*
X17397Y14777D01*
X17452Y14849D01*
X17487Y14933D01*
X17499Y15024D01*
X17499Y15024D01*
Y22073D01*
Y22094D01*
X17499Y22094D01*
X17487Y22184D01*
X17452Y22268D01*
X17437Y22288D01*
X17430Y22345D01*
X17401Y22415D01*
X17355Y22475D01*
X17295Y22521D01*
X17225Y22550D01*
X17182Y22555D01*
X16999Y22738D01*
Y23073D01*
X16987Y23163D01*
X16952Y23248D01*
X16939Y23264D01*
Y23270D01*
X16930Y23345D01*
X16901Y23415D01*
X16855Y23475D01*
X16795Y23521D01*
X16725Y23550D01*
X16722Y23550D01*
X16722Y23551D01*
X16037Y24236D01*
X16004Y24258D01*
X15997Y24259D01*
X15965Y24266D01*
D02*
G37*
G36*
X25246Y22635D02*
X25111Y22622D01*
X24980Y22582D01*
X24860Y22518D01*
X24755Y22432D01*
X24669Y22327D01*
X24605Y22207D01*
X24565Y22076D01*
X24552Y21941D01*
X24565Y21805D01*
X24605Y21675D01*
X24669Y21555D01*
X24755Y21450D01*
X24860Y21364D01*
X24980Y21300D01*
X25111Y21260D01*
X25246Y21247D01*
X25382Y21260D01*
X25512Y21300D01*
X25632Y21364D01*
X25737Y21450D01*
X25823Y21555D01*
X25887Y21675D01*
X25927Y21805D01*
X25940Y21941D01*
X25927Y22076D01*
X25887Y22207D01*
X25823Y22327D01*
X25737Y22432D01*
X25632Y22518D01*
X25512Y22582D01*
X25382Y22622D01*
X25246Y22635D01*
D02*
G37*
G36*
X10986Y22915D02*
X10530D01*
Y22400D01*
X10871D01*
X11089Y22182D01*
Y20948D01*
X10839Y20698D01*
Y20770D01*
X10402D01*
Y20333D01*
X10839D01*
Y20449D01*
X10876Y20457D01*
X10876Y20457D01*
X10876D01*
X10896Y20470D01*
X10909Y20479D01*
X10909Y20479D01*
X10909Y20479D01*
X11263Y20833D01*
X11281Y20860D01*
X11286Y20866D01*
Y20866D01*
X11286Y20866D01*
X11288Y20877D01*
X11293Y20906D01*
Y22224D01*
X11286Y22264D01*
X11278Y22275D01*
X11263Y22297D01*
X10986Y22574D01*
Y22915D01*
D02*
G37*
G36*
X12067Y24936D02*
X11937Y24924D01*
X11813Y24886D01*
X11698Y24824D01*
X11597Y24742D01*
X11514Y24641D01*
X11453Y24526D01*
X11415Y24401D01*
X11402Y24272D01*
X11415Y24142D01*
X11453Y24017D01*
X11514Y23902D01*
X11597Y23802D01*
X11698Y23719D01*
X11813Y23658D01*
X11937Y23620D01*
X12067Y23607D01*
X12197Y23620D01*
X12321Y23658D01*
X12436Y23719D01*
X12537Y23802D01*
X12620Y23902D01*
X12681Y24017D01*
X12719Y24142D01*
X12732Y24272D01*
X12719Y24401D01*
X12681Y24526D01*
X12620Y24641D01*
X12537Y24742D01*
X12436Y24824D01*
X12321Y24886D01*
X12197Y24924D01*
X12067Y24936D01*
D02*
G37*
G36*
X19163Y26356D02*
X19011Y26341D01*
X18864Y26297D01*
X18728Y26224D01*
X18609Y26127D01*
X18512Y26008D01*
X18440Y25873D01*
X18395Y25726D01*
X18380Y25573D01*
X18395Y25420D01*
X18440Y25273D01*
X18512Y25138D01*
X18609Y25019D01*
X18728Y24922D01*
X18864Y24849D01*
X19011Y24805D01*
X19163Y24790D01*
X19316Y24805D01*
X19463Y24849D01*
X19599Y24922D01*
X19717Y25019D01*
X19815Y25138D01*
X19887Y25273D01*
X19932Y25420D01*
X19947Y25573D01*
X19932Y25726D01*
X19887Y25873D01*
X19815Y26008D01*
X19717Y26127D01*
X19599Y26224D01*
X19463Y26297D01*
X19316Y26341D01*
X19163Y26356D01*
D02*
G37*
G36*
X14636D02*
X14483Y26341D01*
X14336Y26297D01*
X14201Y26224D01*
X14082Y26127D01*
X13985Y26008D01*
X13912Y25873D01*
X13868Y25726D01*
X13853Y25573D01*
X13868Y25420D01*
X13912Y25273D01*
X13985Y25138D01*
X14082Y25019D01*
X14201Y24922D01*
X14336Y24849D01*
X14483Y24805D01*
X14636Y24790D01*
X14789Y24805D01*
X14936Y24849D01*
X15071Y24922D01*
X15190Y25019D01*
X15287Y25138D01*
X15359Y25273D01*
X15404Y25420D01*
X15419Y25573D01*
X15404Y25726D01*
X15359Y25873D01*
X15287Y26008D01*
X15190Y26127D01*
X15071Y26224D01*
X14936Y26297D01*
X14789Y26341D01*
X14636Y26356D01*
D02*
G37*
G36*
X24272Y24936D02*
X24142Y24924D01*
X24017Y24886D01*
X23902Y24824D01*
X23802Y24742D01*
X23719Y24641D01*
X23658Y24526D01*
X23620Y24401D01*
X23607Y24272D01*
X23620Y24142D01*
X23658Y24017D01*
X23719Y23902D01*
X23802Y23802D01*
X23902Y23719D01*
X24017Y23658D01*
X24142Y23620D01*
X24272Y23607D01*
X24401Y23620D01*
X24526Y23658D01*
X24641Y23719D01*
X24742Y23802D01*
X24824Y23902D01*
X24886Y24017D01*
X24924Y24142D01*
X24936Y24272D01*
X24924Y24401D01*
X24886Y24526D01*
X24824Y24641D01*
X24742Y24742D01*
X24641Y24824D01*
X24526Y24886D01*
X24401Y24924D01*
X24272Y24936D01*
D02*
G37*
G36*
X22746Y19543D02*
X22654Y19531D01*
X22569Y19496D01*
X22496Y19439D01*
X22439Y19366D01*
X22404Y19281D01*
X22392Y19189D01*
X22404Y19097D01*
X22439Y19012D01*
X22496Y18939D01*
X22569Y18882D01*
X22654Y18847D01*
X22746Y18835D01*
X22838Y18847D01*
X22923Y18882D01*
X22997Y18939D01*
X23053Y19012D01*
X23088Y19097D01*
X23100Y19189D01*
X23088Y19281D01*
X23053Y19366D01*
X22997Y19439D01*
X22923Y19496D01*
X22838Y19531D01*
X22746Y19543D01*
D02*
G37*
G36*
X11240Y19134D02*
X11148Y19122D01*
X11063Y19086D01*
X10990Y19030D01*
X10933Y18957D01*
X10898Y18871D01*
X10886Y18780D01*
X10898Y18688D01*
X10933Y18602D01*
X10990Y18529D01*
X11063Y18473D01*
X11148Y18437D01*
X11240Y18425D01*
X11332Y18437D01*
X11417Y18473D01*
X11487Y18527D01*
X14818D01*
X14833Y18490D01*
X14889Y18417D01*
X14963Y18361D01*
X15048Y18325D01*
X15140Y18313D01*
X15231Y18325D01*
X15317Y18361D01*
X15390Y18417D01*
X15447Y18490D01*
X15482Y18576D01*
X15494Y18667D01*
X15482Y18759D01*
X15447Y18844D01*
X15390Y18918D01*
X15317Y18974D01*
X15231Y19009D01*
X15140Y19022D01*
X15105Y19017D01*
X15028Y19032D01*
X11487D01*
X11417Y19086D01*
X11332Y19122D01*
X11240Y19134D01*
D02*
G37*
G36*
X15140Y18022D02*
X15048Y18009D01*
X14963Y17974D01*
X14889Y17918D01*
X14833Y17844D01*
X14798Y17759D01*
X14786Y17671D01*
X14769Y17654D01*
X11487D01*
X11417Y17708D01*
X11332Y17744D01*
X11240Y17756D01*
X11148Y17744D01*
X11063Y17708D01*
X10990Y17652D01*
X10933Y17579D01*
X10898Y17493D01*
X10886Y17402D01*
X10898Y17310D01*
X10933Y17224D01*
X10990Y17151D01*
X11063Y17095D01*
X11148Y17059D01*
X11240Y17047D01*
X11332Y17059D01*
X11417Y17095D01*
X11487Y17149D01*
X14874D01*
X14971Y17168D01*
X15053Y17223D01*
X15144Y17314D01*
X15231Y17325D01*
X15317Y17361D01*
X15390Y17417D01*
X15447Y17490D01*
X15482Y17576D01*
X15494Y17667D01*
X15482Y17759D01*
X15447Y17844D01*
X15390Y17918D01*
X15317Y17974D01*
X15231Y18009D01*
X15140Y18022D01*
D02*
G37*
G36*
Y20022D02*
X15048Y20009D01*
X14963Y19974D01*
X14889Y19918D01*
X14833Y19844D01*
X14802Y19770D01*
X10976D01*
X10937Y19762D01*
X10904Y19740D01*
X10302Y19137D01*
X10279Y19104D01*
X10278Y19098D01*
X10272Y19065D01*
Y13169D01*
X10278Y13137D01*
X10279Y13130D01*
X10279Y13130D01*
Y13130D01*
X10288Y13118D01*
X10302Y13097D01*
X10411Y12987D01*
Y12695D01*
X10848D01*
Y13132D01*
X10556D01*
X10476Y13212D01*
Y19023D01*
X11019Y19565D01*
X14802D01*
X14833Y19490D01*
X14889Y19417D01*
X14963Y19361D01*
X15048Y19325D01*
X15140Y19313D01*
X15231Y19325D01*
X15317Y19361D01*
X15390Y19417D01*
X15447Y19490D01*
X15482Y19576D01*
X15494Y19667D01*
X15482Y19759D01*
X15447Y19844D01*
X15390Y19918D01*
X15317Y19974D01*
X15231Y20009D01*
X15140Y20022D01*
D02*
G37*
G36*
X21746Y21047D02*
X21654Y21035D01*
X21569Y21000D01*
X21496Y20943D01*
X21439Y20870D01*
X21404Y20785D01*
X21392Y20693D01*
X21404Y20601D01*
X21435Y20527D01*
X21267Y20360D01*
X21245Y20326D01*
X21237Y20287D01*
Y16984D01*
X21245Y16945D01*
X21267Y16911D01*
X21293Y16894D01*
Y16754D01*
X21876D01*
Y17215D01*
X21443D01*
Y18511D01*
X21496Y18442D01*
X21569Y18386D01*
X21654Y18351D01*
X21746Y18339D01*
X21838Y18351D01*
X21923Y18386D01*
X21997Y18442D01*
X22053Y18516D01*
X22088Y18601D01*
X22100Y18693D01*
X22088Y18785D01*
X22053Y18870D01*
X21997Y18943D01*
X21923Y19000D01*
X21838Y19035D01*
X21746Y19047D01*
X21654Y19035D01*
X21569Y19000D01*
X21496Y18943D01*
X21443Y18875D01*
Y19511D01*
X21496Y19442D01*
X21569Y19386D01*
X21654Y19351D01*
X21746Y19339D01*
X21838Y19351D01*
X21923Y19386D01*
X21997Y19442D01*
X22053Y19516D01*
X22088Y19601D01*
X22100Y19693D01*
X22088Y19785D01*
X22053Y19870D01*
X21997Y19943D01*
X21923Y20000D01*
X21838Y20035D01*
X21746Y20047D01*
X21654Y20035D01*
X21569Y20000D01*
X21496Y19943D01*
X21443Y19875D01*
Y20244D01*
X21580Y20381D01*
X21654Y20351D01*
X21746Y20339D01*
X21838Y20351D01*
X21923Y20386D01*
X21997Y20442D01*
X22053Y20516D01*
X22088Y20601D01*
X22100Y20693D01*
X22088Y20785D01*
X22053Y20870D01*
X21997Y20943D01*
X21923Y21000D01*
X21838Y21035D01*
X21746Y21047D01*
D02*
G37*
G36*
X19557Y24020D02*
X18209D01*
X18176Y24013D01*
X18169Y24012D01*
X18136Y23990D01*
X17700Y23553D01*
X17650Y23560D01*
X17575Y23550D01*
X17505Y23521D01*
X17445Y23475D01*
X17399Y23415D01*
X17370Y23345D01*
X17360Y23270D01*
Y22876D01*
X17370Y22801D01*
X17399Y22731D01*
X17445Y22671D01*
X17505Y22625D01*
X17575Y22596D01*
X17650Y22586D01*
X17725Y22596D01*
X17795Y22625D01*
X17855Y22671D01*
X17901Y22731D01*
X17930Y22801D01*
X17939Y22876D01*
Y23270D01*
X17930Y23345D01*
X17901Y23415D01*
X17879Y23443D01*
X18251Y23815D01*
X18435D01*
X18415Y23802D01*
X18402Y23793D01*
X18402Y23793D01*
X18402Y23793D01*
X18077Y23468D01*
X18059Y23440D01*
X18055Y23435D01*
Y23435D01*
X18055Y23435D01*
X18053Y23424D01*
X18047Y23396D01*
Y22538D01*
X18005Y22521D01*
X17945Y22475D01*
X17899Y22415D01*
X17870Y22345D01*
X17860Y22270D01*
Y21876D01*
X17870Y21801D01*
X17899Y21731D01*
X17945Y21671D01*
X18005Y21625D01*
X18075Y21596D01*
X18150Y21586D01*
X18225Y21596D01*
X18295Y21625D01*
X18355Y21671D01*
X18401Y21731D01*
X18430Y21801D01*
X18439Y21876D01*
Y22270D01*
X18430Y22345D01*
X18401Y22415D01*
X18355Y22475D01*
X18295Y22521D01*
X18252Y22538D01*
Y23353D01*
X18517Y23618D01*
X19308D01*
X19819Y23107D01*
Y21430D01*
X19514Y21126D01*
X19492Y21092D01*
X19491Y21086D01*
X19484Y21053D01*
Y20220D01*
X19492Y20181D01*
X19499Y20170D01*
X19514Y20148D01*
X19829Y19834D01*
X19798Y19759D01*
X19786Y19667D01*
X19798Y19576D01*
X19833Y19490D01*
X19889Y19417D01*
X19963Y19361D01*
X20048Y19325D01*
X20140Y19313D01*
X20231Y19325D01*
X20317Y19361D01*
X20390Y19417D01*
X20447Y19490D01*
X20482Y19576D01*
X20494Y19667D01*
X20482Y19759D01*
X20447Y19844D01*
X20390Y19918D01*
X20317Y19974D01*
X20231Y20009D01*
X20140Y20022D01*
X20048Y20009D01*
X19973Y19978D01*
X19689Y20263D01*
Y21011D01*
X19994Y21315D01*
X20008Y21338D01*
X20016Y21349D01*
X20024Y21388D01*
Y23150D01*
X20016Y23189D01*
X20008Y23200D01*
X19994Y23222D01*
X19423Y23793D01*
X19390Y23815D01*
X19515D01*
X20037Y23292D01*
Y21005D01*
X19963Y20974D01*
X19889Y20918D01*
X19833Y20844D01*
X19798Y20759D01*
X19786Y20667D01*
X19798Y20576D01*
X19833Y20490D01*
X19889Y20417D01*
X19963Y20361D01*
X20048Y20325D01*
X20140Y20313D01*
X20231Y20325D01*
X20317Y20361D01*
X20390Y20417D01*
X20447Y20490D01*
X20482Y20576D01*
X20494Y20667D01*
X20482Y20759D01*
X20447Y20844D01*
X20390Y20918D01*
X20317Y20974D01*
X20242Y21005D01*
Y23335D01*
X20236Y23367D01*
X20234Y23374D01*
X20212Y23407D01*
X19629Y23990D01*
X19596Y24012D01*
X19590Y24013D01*
X19557Y24020D01*
D02*
G37*
G36*
X22746Y20543D02*
X22654Y20531D01*
X22569Y20496D01*
X22496Y20439D01*
X22439Y20366D01*
X22404Y20281D01*
X22392Y20189D01*
X22404Y20097D01*
X22439Y20012D01*
X22496Y19939D01*
X22569Y19882D01*
X22654Y19847D01*
X22746Y19835D01*
X22838Y19847D01*
X22923Y19882D01*
X22997Y19939D01*
X23053Y20012D01*
X23088Y20097D01*
X23100Y20189D01*
X23088Y20281D01*
X23053Y20366D01*
X22997Y20439D01*
X22923Y20496D01*
X22838Y20531D01*
X22746Y20543D01*
D02*
G37*
%LPD*%
D10*
X19646Y10522D02*
D03*
X19055D02*
D03*
X20768Y12215D02*
D03*
X20177D02*
D03*
X21713Y10807D02*
D03*
X21122D02*
D03*
D11*
X10630Y12913D02*
D03*
Y12283D02*
D03*
Y21181D02*
D03*
X10620Y20551D02*
D03*
D12*
X12116Y10591D02*
D03*
X11467D02*
D03*
D13*
X10758Y22657D02*
D03*
X11289D02*
D03*
D14*
X21585Y16984D02*
D03*
Y15693D02*
D03*
D15*
X22992Y16811D02*
D03*
X24992D02*
D03*
X23992D02*
D03*
D16*
X24992Y13307D02*
D03*
X23992D02*
D03*
D17*
X22992D02*
D03*
D18*
X21340Y16984D02*
Y20287D01*
X21590Y12657D02*
Y15693D01*
X19180Y10820D02*
X20380D01*
X19055D02*
X19180D01*
X15167Y12165D02*
Y12569D01*
Y11762D02*
Y12165D01*
X21585Y15693D02*
X21590D01*
X22810D01*
X22992Y15875D01*
Y16811D01*
X19290Y19517D02*
X20140Y18667D01*
X19290Y19517D02*
Y21450D01*
X21713Y10510D02*
Y10807D01*
X20700Y10500D02*
X21713Y10510D01*
X20380Y10820D02*
X20700Y10500D01*
X19055Y10522D02*
Y10820D01*
X20768Y11710D02*
Y12215D01*
X20505Y11447D02*
X20768Y11710D01*
X20355Y11000D02*
X20505Y11447D01*
X19180Y11000D02*
X20355D01*
X19180Y10820D02*
Y11000D01*
X19055Y10522D02*
X19180Y10820D01*
X20140Y14667D02*
X20541Y14266D01*
Y13391D02*
Y14266D01*
X18740Y11590D02*
X20541Y13391D01*
X18740Y10230D02*
Y11590D01*
Y10230D02*
X18750Y10220D01*
X19636D01*
X19646Y10230D01*
Y10522D01*
X22992Y13307D02*
Y14488D01*
X22920Y14560D02*
X22992Y14488D01*
X24992Y13307D02*
Y15188D01*
X24800Y15380D02*
X24992Y15188D01*
X20177Y12215D02*
Y12509D01*
X20692Y13024D01*
Y15115D01*
X20140Y15667D02*
X20692Y15115D01*
X19646Y10522D02*
X19960D01*
X20177Y10305D01*
X22375D01*
X22510Y10440D01*
Y11518D01*
X23992Y13000D01*
Y13307D01*
X21122Y10807D02*
Y17685D01*
X20140Y18667D02*
X21122Y17685D01*
X21340Y16984D02*
X21585D01*
X21340Y20287D02*
X21746Y20693D01*
X23992Y16811D02*
X24992D01*
X22992D02*
X23992D01*
D19*
X13996Y10591D02*
X15167Y11762D01*
X12116Y10591D02*
X13996D01*
X15128Y12165D02*
X15167D01*
X14518Y12776D02*
X15128Y12165D01*
X14518Y12776D02*
Y14045D01*
X15140Y14667D01*
D20*
X10630Y11427D02*
X11467Y10591D01*
X10630Y11427D02*
Y12283D01*
X10374Y13169D02*
X10630Y12913D01*
X10374Y13169D02*
Y19065D01*
X10976Y19667D01*
X15140D01*
X18650Y15157D02*
X20140Y13667D01*
X18650Y15157D02*
Y23073D01*
X19587Y20220D02*
X20140Y19667D01*
X19587Y20220D02*
Y21053D01*
X19921Y21388D01*
Y23150D01*
X19350Y23720D02*
X19921Y23150D01*
X18474Y23720D02*
X19350D01*
X18150Y23396D02*
X18474Y23720D01*
X18150Y22073D02*
Y23396D01*
X18209Y23917D02*
X19557D01*
X17650Y23358D02*
X18209Y23917D01*
X17650Y23073D02*
Y23358D01*
X19557Y23917D02*
X20140Y23335D01*
Y20667D02*
Y23335D01*
X14565Y22657D02*
X15150Y22073D01*
X11289Y22657D02*
X14565D01*
X10758D02*
X11191Y22224D01*
Y20906D02*
Y22224D01*
X10837Y20551D02*
X11191Y20906D01*
X10620Y20551D02*
X10837D01*
X10315Y21496D02*
X10630Y21181D01*
X10315Y21496D02*
Y23140D01*
X12234D01*
X13258Y24163D01*
X15965D01*
X16650Y23478D01*
Y23073D02*
Y23478D01*
D21*
X14118Y14646D02*
X15140Y15667D01*
X11240Y14646D02*
X14118D01*
X14496Y16024D02*
X15140Y16667D01*
X11240Y16024D02*
X14496D01*
X14874Y17402D02*
X15140Y17667D01*
X11240Y17402D02*
X14874D01*
X15028Y18780D02*
X15140Y18667D01*
X11240Y18780D02*
X15028D01*
D22*
X15140Y14667D02*
X16132Y15659D01*
Y19675D01*
X15140Y20667D02*
X16132Y19675D01*
X15140Y20667D02*
X15150Y20677D01*
Y22073D01*
Y22573D01*
X15650Y23073D01*
X15140Y13667D02*
X15793D01*
X17150Y15024D01*
Y22073D01*
Y22094D01*
X16650Y22594D02*
X17150Y22094D01*
X16650Y22594D02*
Y23073D01*
D23*
X15140Y20667D02*
D03*
Y19667D02*
D03*
Y18667D02*
D03*
Y17667D02*
D03*
Y16667D02*
D03*
Y15667D02*
D03*
Y14667D02*
D03*
Y13667D02*
D03*
X20140D02*
D03*
Y14667D02*
D03*
Y15667D02*
D03*
Y16667D02*
D03*
Y17667D02*
D03*
Y18667D02*
D03*
Y19667D02*
D03*
Y20667D02*
D03*
X19140Y13667D02*
D03*
X18140D02*
D03*
X18640Y14167D02*
D03*
X11240Y14646D02*
D03*
Y16024D02*
D03*
Y17402D02*
D03*
Y18780D02*
D03*
X22746Y19189D02*
D03*
X21746Y18693D02*
D03*
X22746Y20189D02*
D03*
X21746Y19693D02*
D03*
X22746Y21189D02*
D03*
X21746Y20693D02*
D03*
D24*
X18150Y22073D02*
D03*
X17150D02*
D03*
X15150D02*
D03*
X16150D02*
D03*
X15650Y23073D02*
D03*
X16650D02*
D03*
X18650D02*
D03*
X17650D02*
D03*
D25*
X14636Y25573D02*
D03*
X19163D02*
D03*
D26*
X15167Y12165D02*
D03*
D27*
X21590Y12657D02*
D03*
X19290Y21450D02*
D03*
X20505Y11447D02*
D03*
X22920Y14560D02*
D03*
X24800Y15380D02*
D03*
D28*
X15167Y12569D02*
D03*
Y11762D02*
D03*
D29*
X12067Y12067D02*
D03*
X24272D02*
D03*
X12067Y24272D02*
D03*
X24272D02*
D03*
M02*
