G04 Layer_Color=8150272*
%FSLAX24Y24*%
%MOIN*%
G70*
G01*
G75*
%ADD52C,0.0680*%
%ADD53C,0.0080*%
%ADD54O,0.0552X0.0946*%
%ADD55C,0.1537*%
%ADD57C,0.0552*%
%ADD59C,0.1300*%
%ADD60O,0.0631X0.0218*%
G04:AMPARAMS|DCode=61|XSize=29.5mil|YSize=15.7mil|CornerRadius=4.9mil|HoleSize=0mil|Usage=FLASHONLY|Rotation=0.000|XOffset=0mil|YOffset=0mil|HoleType=Round|Shape=RoundedRectangle|*
%AMROUNDEDRECTD61*
21,1,0.0295,0.0059,0,0,0.0*
21,1,0.0197,0.0157,0,0,0.0*
1,1,0.0098,0.0098,-0.0030*
1,1,0.0098,-0.0098,-0.0030*
1,1,0.0098,-0.0098,0.0030*
1,1,0.0098,0.0098,0.0030*
%
%ADD61ROUNDEDRECTD61*%
%ADD62R,0.0454X0.0415*%
%ADD63R,0.0438X0.0560*%
%ADD64R,0.0749X0.0474*%
%ADD65R,0.0474X0.0749*%
D52*
X15140Y20667D02*
D03*
Y19667D02*
D03*
Y18667D02*
D03*
Y17667D02*
D03*
Y16667D02*
D03*
Y15667D02*
D03*
Y14667D02*
D03*
Y13667D02*
D03*
X20140D02*
D03*
Y14667D02*
D03*
Y15667D02*
D03*
Y16667D02*
D03*
Y17667D02*
D03*
Y18667D02*
D03*
Y19667D02*
D03*
Y20667D02*
D03*
X19140Y13667D02*
D03*
X18140D02*
D03*
X18640Y14167D02*
D03*
X11240Y14646D02*
D03*
Y16024D02*
D03*
Y17402D02*
D03*
Y18780D02*
D03*
X22746Y19189D02*
D03*
X21746Y18693D02*
D03*
X22746Y20189D02*
D03*
X21746Y19693D02*
D03*
X22746Y21189D02*
D03*
X21746Y20693D02*
D03*
D53*
X25246Y17941D02*
D03*
Y21941D02*
D03*
D54*
X18150Y22073D02*
D03*
X17150D02*
D03*
X15150D02*
D03*
X16150D02*
D03*
X15650Y23073D02*
D03*
X16650D02*
D03*
X18650D02*
D03*
X17650D02*
D03*
D55*
X14636Y25573D02*
D03*
X19163D02*
D03*
D57*
X21590Y12657D02*
D03*
X19290Y21450D02*
D03*
X20505Y11447D02*
D03*
X22920Y14560D02*
D03*
X24800Y15380D02*
D03*
D59*
X12067Y12067D02*
D03*
X24272D02*
D03*
X12067Y24272D02*
D03*
X24272D02*
D03*
D60*
X19144Y19154D02*
D03*
Y18898D02*
D03*
Y18642D02*
D03*
Y18386D02*
D03*
Y18130D02*
D03*
Y17874D02*
D03*
Y17618D02*
D03*
X16939Y19154D02*
D03*
Y18898D02*
D03*
Y18642D02*
D03*
Y18386D02*
D03*
Y18130D02*
D03*
Y17874D02*
D03*
Y17618D02*
D03*
D61*
X15837Y11693D02*
D03*
Y11929D02*
D03*
Y12165D02*
D03*
Y12402D02*
D03*
Y12638D02*
D03*
X14636D02*
D03*
Y12402D02*
D03*
Y12165D02*
D03*
Y11929D02*
D03*
Y11693D02*
D03*
D62*
X17963Y11447D02*
D03*
Y11978D02*
D03*
D63*
X16648Y12657D02*
D03*
X17939D02*
D03*
D64*
X16663Y11928D02*
D03*
Y10837D02*
D03*
X13681Y12233D02*
D03*
Y11143D02*
D03*
D65*
X18257Y20177D02*
D03*
X17166D02*
D03*
M02*
