G04 Layer_Color=8150272*
%FSLAX24Y24*%
%MOIN*%
G70*
G01*
G75*
%ADD57R,0.0415X0.0454*%
%ADD72C,0.1537*%
%ADD73O,0.0552X0.0946*%
%ADD74C,0.0080*%
%ADD75C,0.0680*%
%ADD76C,0.0320*%
%ADD77C,0.1300*%
%ADD79C,0.0277*%
%ADD80R,0.0474X0.0749*%
%ADD81R,0.0749X0.0474*%
%ADD82R,0.0438X0.0560*%
%ADD83R,0.0454X0.0415*%
G04:AMPARAMS|DCode=84|XSize=29.5mil|YSize=15.7mil|CornerRadius=4.9mil|HoleSize=0mil|Usage=FLASHONLY|Rotation=0.000|XOffset=0mil|YOffset=0mil|HoleType=Round|Shape=RoundedRectangle|*
%AMROUNDEDRECTD84*
21,1,0.0295,0.0059,0,0,0.0*
21,1,0.0197,0.0157,0,0,0.0*
1,1,0.0098,0.0098,-0.0030*
1,1,0.0098,-0.0098,-0.0030*
1,1,0.0098,-0.0098,0.0030*
1,1,0.0098,0.0098,0.0030*
%
%ADD84ROUNDEDRECTD84*%
%ADD85O,0.0631X0.0218*%
D57*
X14980Y16437D02*
D03*
X15512D02*
D03*
X14980Y15561D02*
D03*
X15512D02*
D03*
D72*
X19163Y25573D02*
D03*
X14636D02*
D03*
D73*
X17650Y23073D02*
D03*
X18650D02*
D03*
X16650D02*
D03*
X15650D02*
D03*
X16150Y22073D02*
D03*
X15150D02*
D03*
X17150D02*
D03*
X18150D02*
D03*
D74*
X25246Y21941D02*
D03*
Y17941D02*
D03*
D75*
X21746Y20693D02*
D03*
X22746Y21189D02*
D03*
X21746Y19693D02*
D03*
X22746Y20189D02*
D03*
X21746Y18693D02*
D03*
X22746Y19189D02*
D03*
X11240Y18780D02*
D03*
Y17402D02*
D03*
Y16024D02*
D03*
Y14646D02*
D03*
D76*
X15394Y15935D02*
D03*
X15374Y17726D02*
D03*
X18543Y12943D02*
D03*
X16634Y13652D02*
D03*
X18386Y11959D02*
D03*
X12835Y17874D02*
D03*
X12894Y15718D02*
D03*
X18642Y17992D02*
D03*
X18268Y19331D02*
D03*
X22077Y16142D02*
D03*
X21713Y15492D02*
D03*
X19902Y15728D02*
D03*
X18346Y14488D02*
D03*
X22598Y17648D02*
D03*
X20443Y17972D02*
D03*
X18061Y15915D02*
D03*
X17864Y18081D02*
D03*
D77*
X24272Y24272D02*
D03*
X12067D02*
D03*
X24272Y12067D02*
D03*
X12067D02*
D03*
D79*
X16093Y16378D02*
D03*
Y16811D02*
D03*
Y17244D02*
D03*
X16526Y16378D02*
D03*
Y16811D02*
D03*
Y17244D02*
D03*
X16959Y16378D02*
D03*
Y16811D02*
D03*
Y17244D02*
D03*
D80*
X17166Y20177D02*
D03*
X18257D02*
D03*
X14420Y18681D02*
D03*
X15511D02*
D03*
X14420Y17854D02*
D03*
X15511D02*
D03*
D81*
X13681Y11143D02*
D03*
Y12233D02*
D03*
X16663Y10837D02*
D03*
Y11928D02*
D03*
D82*
X17939Y12657D02*
D03*
X16648D02*
D03*
D83*
X17963Y11978D02*
D03*
Y11447D02*
D03*
D84*
X14636Y11693D02*
D03*
Y11929D02*
D03*
Y12165D02*
D03*
Y12402D02*
D03*
Y12638D02*
D03*
X15837D02*
D03*
Y12402D02*
D03*
Y12165D02*
D03*
Y11929D02*
D03*
Y11693D02*
D03*
D85*
X16939Y17618D02*
D03*
Y17874D02*
D03*
Y18130D02*
D03*
Y18386D02*
D03*
Y18642D02*
D03*
Y18898D02*
D03*
Y19154D02*
D03*
X19144Y17618D02*
D03*
Y17874D02*
D03*
Y18130D02*
D03*
Y18386D02*
D03*
Y18642D02*
D03*
Y18898D02*
D03*
Y19154D02*
D03*
M02*
