M48
;Layer_Color=6321
;FILE_FORMAT=2:4
INCH,LZ
;TYPE=PLATED
T1F00S00C0.0079
T2F00S00C0.0118
T3F00S00C0.0122
T4F00S00C0.0315
T5F00S00C0.0472
T6F00S00C0.1220
T7F00S00C0.1260
T8F00S00C0.1280
;TYPE=NON_PLATED
%
T01
X016093Y016378
Y016811
X016526
Y016378
X016959
Y016811
Y017244
X016526
X016093
T02
X015167Y011762
Y012165
Y012569
T03
X016634Y013652
X018346Y014488
X018543Y012943
X018386Y011959
X021713Y015492
X022077Y016142
X022598Y017648
X020443Y017972
X018642Y017992
X017864Y018081
X018268Y019331
X018061Y015915
X019902Y015728
X015394Y015935
X015374Y017726
X012835Y017874
X012894Y015718
T04
X01615Y022073
X01715
X01815
X01765Y023073
X01865
X01665
X01565
X021746Y020693
Y019693
Y018693
X022746Y019189
Y020189
Y021189
X01515Y022073
T05
X01124Y014646
Y016024
Y017402
Y01878
T06
X012067Y012067
X024272
Y024272
X012067
T07
X019163Y025573
X014636
T08
X025246Y017941
Y021941
M30
