G04 Layer_Color=25308*
%FSLAX24Y24*%
%MOIN*%
G70*
G01*
G75*
%ADD10R,0.0709X0.0453*%
%ADD11R,0.0532X0.0610*%
%ADD12R,0.0413X0.0354*%
%ADD13R,0.0413X0.0453*%
%ADD14R,0.0335X0.0335*%
%ADD15R,0.0480X0.0358*%
%ADD16O,0.0866X0.0236*%
%ADD17O,0.0236X0.0866*%
%ADD18R,0.0880X0.0480*%
%ADD19R,0.0870X0.1420*%
%ADD20R,0.0610X0.0532*%
%ADD21R,0.1969X0.1969*%
%ADD22R,0.0354X0.0787*%
%ADD23R,0.0787X0.0354*%
%ADD24R,0.0197X0.0906*%
%ADD25R,0.0787X0.0984*%
%ADD26R,0.0276X0.0374*%
%ADD27R,0.0453X0.0709*%
%ADD28R,0.0260X0.0118*%
G04:AMPARAMS|DCode=33|XSize=27.6mil|YSize=114.2mil|CornerRadius=6.9mil|HoleSize=0mil|Usage=FLASHONLY|Rotation=0.000|XOffset=0mil|YOffset=0mil|HoleType=Round|Shape=RoundedRectangle|*
%AMROUNDEDRECTD33*
21,1,0.0276,0.1004,0,0,0.0*
21,1,0.0138,0.1142,0,0,0.0*
1,1,0.0138,0.0069,-0.0502*
1,1,0.0138,-0.0069,-0.0502*
1,1,0.0138,-0.0069,0.0502*
1,1,0.0138,0.0069,0.0502*
%
%ADD33ROUNDEDRECTD33*%
G04:AMPARAMS|DCode=34|XSize=60mil|YSize=90mil|CornerRadius=15mil|HoleSize=0mil|Usage=FLASHONLY|Rotation=270.000|XOffset=0mil|YOffset=0mil|HoleType=Round|Shape=RoundedRectangle|*
%AMROUNDEDRECTD34*
21,1,0.0600,0.0600,0,0,270.0*
21,1,0.0300,0.0900,0,0,270.0*
1,1,0.0300,-0.0300,-0.0150*
1,1,0.0300,-0.0300,0.0150*
1,1,0.0300,0.0300,0.0150*
1,1,0.0300,0.0300,-0.0150*
%
%ADD34ROUNDEDRECTD34*%
%ADD35C,0.0600*%
%ADD36C,0.0787*%
%ADD37C,0.1000*%
%ADD38C,0.0354*%
%ADD39C,0.0906*%
%ADD40C,0.1457*%
%ADD41O,0.0866X0.0472*%
%ADD42O,0.0472X0.0866*%
D10*
X18819Y44921D02*
D03*
Y46102D02*
D03*
D11*
X24439Y24449D02*
D03*
X23671D02*
D03*
X23140Y29882D02*
D03*
X22372D02*
D03*
X30148Y31654D02*
D03*
X29380D02*
D03*
X30148Y32874D02*
D03*
X29380D02*
D03*
X30148Y34055D02*
D03*
X29380D02*
D03*
X30148Y35236D02*
D03*
X29380D02*
D03*
X30148Y36339D02*
D03*
X29380D02*
D03*
X30148Y37441D02*
D03*
X29380D02*
D03*
X14498Y47559D02*
D03*
X15266D02*
D03*
X18474Y28661D02*
D03*
X19242D02*
D03*
X11191Y45394D02*
D03*
X11959D02*
D03*
D12*
X32008Y33140D02*
D03*
Y33711D02*
D03*
X34331Y33159D02*
D03*
Y33691D02*
D03*
D13*
X33150Y33829D02*
D03*
Y33179D02*
D03*
D14*
X34291Y31260D02*
D03*
Y31890D02*
D03*
X33110Y31260D02*
D03*
Y31890D02*
D03*
X32008Y31260D02*
D03*
Y31890D02*
D03*
D15*
X24882Y45850D02*
D03*
Y47142D02*
D03*
D16*
X31850Y21636D02*
D03*
Y22136D02*
D03*
Y22636D02*
D03*
Y23136D02*
D03*
Y23636D02*
D03*
Y24136D02*
D03*
Y24636D02*
D03*
Y25136D02*
D03*
X29961Y21636D02*
D03*
Y22136D02*
D03*
Y22636D02*
D03*
Y23136D02*
D03*
Y23636D02*
D03*
Y24136D02*
D03*
Y24636D02*
D03*
Y25136D02*
D03*
D17*
X25140Y18425D02*
D03*
X25640D02*
D03*
X26140D02*
D03*
X26640D02*
D03*
X27140D02*
D03*
X27640D02*
D03*
X28140D02*
D03*
X28640D02*
D03*
X25140Y20315D02*
D03*
X25640D02*
D03*
X26140D02*
D03*
X26640D02*
D03*
X27140D02*
D03*
X27640D02*
D03*
X28140D02*
D03*
X28640D02*
D03*
X18250Y18504D02*
D03*
X18750D02*
D03*
X19250D02*
D03*
X19750D02*
D03*
X20250D02*
D03*
X20750D02*
D03*
X21250D02*
D03*
X21750D02*
D03*
X18250Y20394D02*
D03*
X18750D02*
D03*
X19250D02*
D03*
X19750D02*
D03*
X20250D02*
D03*
X20750D02*
D03*
X21250D02*
D03*
X21750D02*
D03*
D18*
X24881Y42515D02*
D03*
Y43425D02*
D03*
Y44335D02*
D03*
D19*
X22431Y43425D02*
D03*
D20*
X32047Y37156D02*
D03*
Y36388D02*
D03*
X13189Y47175D02*
D03*
Y47943D02*
D03*
D21*
X21884Y36632D02*
D03*
D22*
X19257Y40576D02*
D03*
X23757D02*
D03*
X23257Y40582D02*
D03*
X22757Y40576D02*
D03*
X22257D02*
D03*
X21757D02*
D03*
X21257D02*
D03*
X20757D02*
D03*
X20257D02*
D03*
X19757D02*
D03*
D23*
X18161Y40182D02*
D03*
Y33682D02*
D03*
Y34182D02*
D03*
Y34682D02*
D03*
Y35182D02*
D03*
Y35682D02*
D03*
Y36182D02*
D03*
Y36682D02*
D03*
Y37182D02*
D03*
Y37682D02*
D03*
Y38182D02*
D03*
Y38682D02*
D03*
Y39182D02*
D03*
Y39682D02*
D03*
X24854D02*
D03*
Y39182D02*
D03*
Y38682D02*
D03*
Y38182D02*
D03*
Y37682D02*
D03*
Y37182D02*
D03*
Y36682D02*
D03*
Y36182D02*
D03*
Y35682D02*
D03*
Y35182D02*
D03*
Y34682D02*
D03*
Y34182D02*
D03*
Y33682D02*
D03*
Y40182D02*
D03*
D24*
X22323Y45787D02*
D03*
X21378D02*
D03*
X21063D02*
D03*
X22008D02*
D03*
X21693D02*
D03*
D25*
X23445Y45866D02*
D03*
X19941D02*
D03*
X23445Y48032D02*
D03*
X19941D02*
D03*
D26*
X28386Y47913D02*
D03*
X28819D02*
D03*
X29252D02*
D03*
X29685D02*
D03*
X30118D02*
D03*
X30551D02*
D03*
X30984D02*
D03*
X31417D02*
D03*
D27*
X27913Y41929D02*
D03*
X29094D02*
D03*
D28*
X12827Y46122D02*
D03*
Y45866D02*
D03*
Y45610D02*
D03*
X13551D02*
D03*
Y45866D02*
D03*
Y46122D02*
D03*
D33*
X20709Y24774D02*
D03*
D34*
X16454Y31182D02*
D03*
Y32182D02*
D03*
Y33182D02*
D03*
Y34182D02*
D03*
Y35182D02*
D03*
Y36182D02*
D03*
Y37182D02*
D03*
Y38182D02*
D03*
Y39182D02*
D03*
Y40182D02*
D03*
Y41182D02*
D03*
Y42182D02*
D03*
Y43182D02*
D03*
Y45182D02*
D03*
X26454Y31182D02*
D03*
Y32182D02*
D03*
Y33182D02*
D03*
Y34182D02*
D03*
Y35182D02*
D03*
Y36182D02*
D03*
Y37182D02*
D03*
Y38182D02*
D03*
Y39182D02*
D03*
Y40182D02*
D03*
Y41182D02*
D03*
Y42182D02*
D03*
Y43182D02*
D03*
Y44182D02*
D03*
Y45182D02*
D03*
X16454Y44182D02*
D03*
D35*
X16856Y48135D02*
D03*
X26052D02*
D03*
Y29804D02*
D03*
X16856D02*
D03*
X29528Y27783D02*
D03*
Y26783D02*
D03*
X30539Y29764D02*
D03*
X29539D02*
D03*
D36*
X32007Y39661D02*
D03*
X33977Y39646D02*
D03*
X28306Y39661D02*
D03*
X30276Y39646D02*
D03*
D37*
X21884Y36632D02*
D03*
D38*
X20827Y46870D02*
D03*
X22559D02*
D03*
D39*
X11929Y32402D02*
D03*
Y30433D02*
D03*
X11772Y37205D02*
D03*
Y35236D02*
D03*
X11811Y42047D02*
D03*
Y40079D02*
D03*
X37402Y30669D02*
D03*
Y32638D02*
D03*
Y35551D02*
D03*
Y37520D02*
D03*
Y40472D02*
D03*
Y42441D02*
D03*
X11614Y24213D02*
D03*
Y26181D02*
D03*
D40*
X37748Y23563D02*
D03*
Y28091D02*
D03*
X37669Y16949D02*
D03*
Y21476D02*
D03*
X29035Y11543D02*
D03*
X33563D02*
D03*
X22461D02*
D03*
X26988D02*
D03*
X15807Y11504D02*
D03*
X20335D02*
D03*
X11780Y21398D02*
D03*
Y16870D02*
D03*
D41*
X35248Y25077D02*
D03*
Y24077D02*
D03*
Y26077D02*
D03*
Y27077D02*
D03*
X34248Y26577D02*
D03*
Y27577D02*
D03*
Y25577D02*
D03*
Y24577D02*
D03*
X35169Y18463D02*
D03*
Y17463D02*
D03*
Y19463D02*
D03*
Y20463D02*
D03*
X34169Y19963D02*
D03*
Y20963D02*
D03*
Y18963D02*
D03*
Y17963D02*
D03*
X14280Y19884D02*
D03*
Y20884D02*
D03*
Y18884D02*
D03*
Y17884D02*
D03*
X15280Y18384D02*
D03*
Y17384D02*
D03*
Y19384D02*
D03*
Y20384D02*
D03*
D42*
X30549Y14043D02*
D03*
X29549D02*
D03*
X31549D02*
D03*
X32549D02*
D03*
X32049Y15043D02*
D03*
X33049D02*
D03*
X31049D02*
D03*
X30049D02*
D03*
X23974Y14043D02*
D03*
X22974D02*
D03*
X24974D02*
D03*
X25974D02*
D03*
X25474Y15043D02*
D03*
X26474D02*
D03*
X24474D02*
D03*
X23474D02*
D03*
X17321Y14004D02*
D03*
X16321D02*
D03*
X18321D02*
D03*
X19321D02*
D03*
X18821Y15004D02*
D03*
X19821D02*
D03*
X17821D02*
D03*
X16821D02*
D03*
M02*
