M48
;Layer_Color=6321
;FILE_FORMAT=2:4
INCH,LZ
T9F00S00C0.2000
%
G90
G05
T09
G00X025808Y008823
M15
G01X025808Y008828
G01X025905Y008824
G01X026044Y008838
G01X026236Y008876
G01X02637Y008917
G01X026551Y008992
G01X026674Y009057
G01X026837Y009166
G01X026945Y009255
G01X027084Y009393
G01X027172Y009501
G01X027281Y009664
G01X027347Y009788
G01X027422Y009969
G01X027463Y010102
G01X027501Y010295
G01X027519Y010532
G01X027516Y025817
G01X027515Y025817
G01X027517Y025847
G01X027513Y025878
G01X027514Y025915
G01X027501Y026054
G01X027463Y026246
G01X027422Y02638
G01X027347Y026561
G01X027281Y026684
G01X027172Y026847
G01X027084Y026955
G01X026945Y027094
G01X026837Y027182
G01X026674Y027291
G01X026551Y027357
G01X02637Y027432
G01X026236Y027472
G01X026044Y027511
G01X025807Y027529
G01X010482Y027526
G01X010482Y027525
G01X010452Y027527
G01X010375Y027517
G01X010374Y027519
G01X010294Y027511
G01X010102Y027472
G01X009969Y027432
G01X009788Y027357
G01X009664Y027291
G01X009501Y027182
G01X009393Y027094
G01X009255Y026955
G01X009166Y026847
G01X009057Y026684
G01X008992Y026561
G01X008917Y02638
G01X008876Y026246
G01X008838Y026054
G01X008819Y025817
G01X008823Y010482
G01X008824Y010482
G01X008821Y010452
G01X008832Y010375
G01X00883Y010375
G01X008838Y010295
G01X008876Y010102
G01X008917Y009969
G01X008992Y009788
G01X009057Y009664
G01X009166Y009501
G01X009255Y009393
G01X009393Y009255
G01X009501Y009166
G01X009664Y009057
G01X009788Y008992
G01X009969Y008917
G01X010102Y008876
G01X010295Y008838
G01X010532Y008819
G01X025808Y008823
M16
M17
M30
