G04 Layer_Physical_Order=2*
G04 Layer_Color=11436288*
%FSLAX24Y24*%
%MOIN*%
G70*
G01*
G75*
%ADD18C,0.0100*%
%ADD19C,0.0197*%
%ADD21C,0.0394*%
%ADD23C,0.0600*%
%ADD24O,0.0472X0.0866*%
%ADD25C,0.1457*%
G04:AMPARAMS|DCode=26|XSize=27.6mil|YSize=114.2mil|CornerRadius=6.9mil|HoleSize=0mil|Usage=FLASHONLY|Rotation=0.000|XOffset=0mil|YOffset=0mil|HoleType=Round|Shape=RoundedRectangle|*
%AMROUNDEDRECTD26*
21,1,0.0276,0.1004,0,0,0.0*
21,1,0.0138,0.1142,0,0,0.0*
1,1,0.0138,0.0069,-0.0502*
1,1,0.0138,-0.0069,-0.0502*
1,1,0.0138,-0.0069,0.0502*
1,1,0.0138,0.0069,0.0502*
%
%ADD26ROUNDEDRECTD26*%
%ADD27C,0.0472*%
%ADD28C,0.0236*%
%ADD29C,0.1220*%
%ADD30O,0.0551X0.0138*%
G04:AMPARAMS|DCode=31|XSize=25.6mil|YSize=11.8mil|CornerRadius=3mil|HoleSize=0mil|Usage=FLASHONLY|Rotation=0.000|XOffset=0mil|YOffset=0mil|HoleType=Round|Shape=RoundedRectangle|*
%AMROUNDEDRECTD31*
21,1,0.0256,0.0059,0,0,0.0*
21,1,0.0197,0.0118,0,0,0.0*
1,1,0.0059,0.0098,-0.0030*
1,1,0.0059,-0.0098,-0.0030*
1,1,0.0059,-0.0098,0.0030*
1,1,0.0059,0.0098,0.0030*
%
%ADD31ROUNDEDRECTD31*%
%ADD32R,0.0374X0.0335*%
%ADD33R,0.0358X0.0480*%
%ADD34R,0.0669X0.0394*%
%ADD35R,0.0394X0.0669*%
%ADD36R,0.1152X0.0404*%
%ADD37R,0.0482X0.1043*%
%ADD38R,0.0896X0.0404*%
G36*
X25807Y26453D02*
Y26453D01*
X25807Y26453D01*
X25855Y26448D01*
X25931Y26441D01*
X26050Y26405D01*
X26160Y26346D01*
X26257Y26267D01*
X26336Y26170D01*
X26395Y26060D01*
X26431Y25941D01*
X26438Y25867D01*
X26438Y25865D01*
X26435Y25817D01*
X26436Y25816D01*
X26444Y25770D01*
Y10532D01*
X26444Y10532D01*
X26443D01*
X26431Y10407D01*
X26395Y10288D01*
X26336Y10178D01*
X26257Y10082D01*
X26160Y10003D01*
X26050Y9944D01*
X25931Y9908D01*
X25857Y9900D01*
X25855Y9901D01*
X25807Y9903D01*
X25806Y9903D01*
X25760Y9895D01*
X10532D01*
X10532Y9895D01*
Y9895D01*
X10407Y9908D01*
X10288Y9944D01*
X10178Y10003D01*
X10082Y10082D01*
X10003Y10178D01*
X9944Y10288D01*
X9908Y10407D01*
X9905Y10433D01*
X9903Y10482D01*
X9895Y10529D01*
Y10529D01*
Y25817D01*
X9895Y25817D01*
X9895D01*
X9908Y25941D01*
X9944Y26060D01*
X10003Y26170D01*
X10082Y26267D01*
X10178Y26346D01*
X10288Y26405D01*
X10407Y26441D01*
X10433Y26443D01*
X10482Y26445D01*
X10482D01*
X10529Y26453D01*
X10529D01*
X25760D01*
X25807Y26453D01*
D02*
G37*
%LPC*%
G36*
X15140Y18022D02*
X15048Y18009D01*
X14963Y17974D01*
X14889Y17918D01*
X14833Y17844D01*
X14798Y17759D01*
X14786Y17667D01*
X14798Y17576D01*
X14833Y17490D01*
X14889Y17417D01*
X14963Y17361D01*
X15048Y17325D01*
X15140Y17313D01*
X15231Y17325D01*
X15317Y17361D01*
X15390Y17417D01*
X15447Y17490D01*
X15482Y17576D01*
X15494Y17667D01*
X15482Y17759D01*
X15447Y17844D01*
X15390Y17918D01*
X15317Y17974D01*
X15231Y18009D01*
X15140Y18022D01*
D02*
G37*
G36*
X11240Y17756D02*
X11148Y17744D01*
X11063Y17708D01*
X10990Y17652D01*
X10933Y17579D01*
X10898Y17493D01*
X10886Y17402D01*
X10898Y17310D01*
X10933Y17224D01*
X10990Y17151D01*
X11063Y17095D01*
X11148Y17059D01*
X11240Y17047D01*
X11332Y17059D01*
X11417Y17095D01*
X11491Y17151D01*
X11547Y17224D01*
X11582Y17310D01*
X11594Y17402D01*
X11582Y17493D01*
X11547Y17579D01*
X11491Y17652D01*
X11417Y17708D01*
X11332Y17744D01*
X11240Y17756D01*
D02*
G37*
G36*
X25246Y18635D02*
X25111Y18622D01*
X24980Y18582D01*
X24860Y18518D01*
X24755Y18432D01*
X24669Y18327D01*
X24605Y18207D01*
X24565Y18076D01*
X24552Y17941D01*
X24565Y17805D01*
X24605Y17675D01*
X24669Y17555D01*
X24755Y17450D01*
X24860Y17364D01*
X24980Y17299D01*
X25111Y17260D01*
X25246Y17247D01*
X25382Y17260D01*
X25512Y17299D01*
X25632Y17364D01*
X25737Y17450D01*
X25823Y17555D01*
X25887Y17675D01*
X25927Y17805D01*
X25940Y17941D01*
X25927Y18076D01*
X25887Y18207D01*
X25823Y18327D01*
X25737Y18432D01*
X25632Y18518D01*
X25512Y18582D01*
X25382Y18622D01*
X25246Y18635D01*
D02*
G37*
G36*
X16878Y12949D02*
X16417D01*
Y12782D01*
X15689D01*
X15650Y12766D01*
X15634Y12726D01*
Y12323D01*
X15650Y12284D01*
Y12284D01*
X15662Y12226D01*
X15656Y12195D01*
Y12136D01*
X15662Y12104D01*
X15680Y12078D01*
X15681Y12077D01*
Y12018D01*
X15680Y12017D01*
X15662Y11990D01*
X15656Y11959D01*
Y11900D01*
X15662Y11868D01*
X15680Y11841D01*
X15681Y11841D01*
Y11782D01*
X15680Y11781D01*
X15662Y11754D01*
X15656Y11722D01*
Y11663D01*
X15662Y11632D01*
X15680Y11605D01*
X15707Y11587D01*
X15738Y11581D01*
X15935D01*
X15967Y11587D01*
X15993Y11605D01*
X16011Y11632D01*
X16017Y11663D01*
Y11722D01*
X16011Y11754D01*
X15993Y11781D01*
X15992Y11782D01*
Y11841D01*
X15993Y11841D01*
X16011Y11868D01*
X16017Y11900D01*
Y11959D01*
X16011Y11990D01*
X15993Y12017D01*
X15992Y12018D01*
Y12077D01*
X15993Y12078D01*
X16011Y12104D01*
X16017Y12136D01*
Y12195D01*
X16013Y12217D01*
X16030Y12250D01*
X16044Y12267D01*
X16395D01*
Y12176D01*
X16278D01*
Y11680D01*
X16639D01*
X16663Y11675D01*
X16688Y11680D01*
X17049D01*
Y12176D01*
X16901D01*
Y12657D01*
X16896Y12680D01*
Y12726D01*
X16880Y12766D01*
X16878Y12766D01*
Y12949D01*
D02*
G37*
G36*
X15140Y19022D02*
X15048Y19009D01*
X14963Y18974D01*
X14889Y18918D01*
X14833Y18844D01*
X14798Y18759D01*
X14786Y18667D01*
X14798Y18576D01*
X14833Y18490D01*
X14889Y18417D01*
X14963Y18361D01*
X15048Y18325D01*
X15140Y18313D01*
X15231Y18325D01*
X15317Y18361D01*
X15390Y18417D01*
X15447Y18490D01*
X15482Y18576D01*
X15494Y18667D01*
X15482Y18759D01*
X15447Y18844D01*
X15390Y18918D01*
X15317Y18974D01*
X15231Y19009D01*
X15140Y19022D01*
D02*
G37*
G36*
X20140Y18022D02*
X20048Y18009D01*
X19963Y17974D01*
X19889Y17918D01*
X19833Y17844D01*
X19798Y17759D01*
X19786Y17667D01*
X19798Y17576D01*
X19833Y17490D01*
X19889Y17417D01*
X19963Y17361D01*
X20048Y17325D01*
X20140Y17313D01*
X20231Y17325D01*
X20317Y17361D01*
X20390Y17417D01*
X20447Y17490D01*
X20482Y17576D01*
X20494Y17667D01*
X20482Y17759D01*
X20447Y17844D01*
X20390Y17918D01*
X20317Y17974D01*
X20231Y18009D01*
X20140Y18022D01*
D02*
G37*
G36*
X15140Y14022D02*
X15048Y14009D01*
X14963Y13974D01*
X14889Y13918D01*
X14833Y13844D01*
X14798Y13759D01*
X14786Y13667D01*
X14798Y13576D01*
X14833Y13490D01*
X14889Y13417D01*
X14946Y13373D01*
X14949Y13362D01*
X14913Y13313D01*
X13875D01*
X13836Y13305D01*
X13802Y13283D01*
X13677Y13158D01*
X13655Y13124D01*
X13647Y13085D01*
Y12527D01*
X13605Y12481D01*
X13295D01*
Y11985D01*
X14067D01*
Y12002D01*
X14764D01*
X14803Y12018D01*
X14819Y12057D01*
Y12461D01*
X14804Y12498D01*
X14803Y12500D01*
X14803Y12500D01*
X14797Y12526D01*
X14797Y12557D01*
X14810Y12577D01*
X14817Y12608D01*
Y12667D01*
X14810Y12699D01*
X14792Y12726D01*
X14766Y12743D01*
X14734Y12750D01*
X14537D01*
X14506Y12743D01*
X14479Y12726D01*
X14461Y12699D01*
X14455Y12667D01*
Y12608D01*
X14461Y12577D01*
X14469Y12566D01*
X14448Y12517D01*
X14446Y12516D01*
X13906D01*
X13853Y12569D01*
Y13042D01*
X13918Y13107D01*
X15000D01*
X15039Y13115D01*
X15073Y13137D01*
X15213Y13277D01*
X15235Y13310D01*
X15239Y13328D01*
X15317Y13361D01*
X15390Y13417D01*
X15447Y13490D01*
X15482Y13576D01*
X15494Y13667D01*
X15482Y13759D01*
X15447Y13844D01*
X15390Y13918D01*
X15317Y13974D01*
X15231Y14009D01*
X15140Y14022D01*
D02*
G37*
G36*
Y17022D02*
X15048Y17009D01*
X14963Y16974D01*
X14889Y16918D01*
X14833Y16844D01*
X14798Y16759D01*
X14786Y16667D01*
X14798Y16576D01*
X14833Y16490D01*
X14889Y16417D01*
X14963Y16361D01*
X15048Y16325D01*
X15140Y16313D01*
X15231Y16325D01*
X15317Y16361D01*
X15390Y16417D01*
X15447Y16490D01*
X15482Y16576D01*
X15494Y16667D01*
X15482Y16759D01*
X15447Y16844D01*
X15390Y16918D01*
X15317Y16974D01*
X15231Y17009D01*
X15140Y17022D01*
D02*
G37*
G36*
X20140Y16022D02*
X20048Y16009D01*
X19963Y15974D01*
X19889Y15918D01*
X19833Y15844D01*
X19798Y15759D01*
X19786Y15667D01*
X19798Y15576D01*
X19833Y15490D01*
X19889Y15417D01*
X19963Y15361D01*
X20048Y15325D01*
X20140Y15313D01*
X20231Y15325D01*
X20305Y15356D01*
X21174Y14487D01*
X21208Y14465D01*
X21247Y14457D01*
X22652D01*
X22669Y14415D01*
X22715Y14355D01*
X22775Y14309D01*
X22845Y14280D01*
X22920Y14270D01*
X22995Y14280D01*
X23065Y14309D01*
X23125Y14355D01*
X23171Y14415D01*
X23200Y14485D01*
X23210Y14560D01*
X23200Y14635D01*
X23171Y14705D01*
X23125Y14765D01*
X23065Y14811D01*
X22995Y14840D01*
X22920Y14850D01*
X22845Y14840D01*
X22775Y14811D01*
X22715Y14765D01*
X22669Y14705D01*
X22652Y14663D01*
X21290D01*
X20451Y15502D01*
X20482Y15576D01*
X20494Y15667D01*
X20482Y15759D01*
X20447Y15844D01*
X20390Y15918D01*
X20317Y15974D01*
X20231Y16009D01*
X20140Y16022D01*
D02*
G37*
G36*
X11240Y15000D02*
X11148Y14988D01*
X11063Y14952D01*
X10990Y14896D01*
X10933Y14823D01*
X10898Y14737D01*
X10886Y14646D01*
X10898Y14554D01*
X10933Y14469D01*
X10990Y14395D01*
X11063Y14339D01*
X11148Y14304D01*
X11240Y14291D01*
X11332Y14304D01*
X11417Y14339D01*
X11491Y14395D01*
X11547Y14469D01*
X11582Y14554D01*
X11594Y14646D01*
X11582Y14737D01*
X11547Y14823D01*
X11491Y14896D01*
X11417Y14952D01*
X11332Y14988D01*
X11240Y15000D01*
D02*
G37*
G36*
X20140Y14022D02*
X20048Y14009D01*
X19963Y13974D01*
X19889Y13918D01*
X19833Y13844D01*
X19798Y13759D01*
X19786Y13667D01*
X19798Y13576D01*
X19833Y13490D01*
X19889Y13417D01*
X19963Y13361D01*
X20048Y13325D01*
X20140Y13313D01*
X20231Y13325D01*
X20317Y13361D01*
X20390Y13417D01*
X20447Y13490D01*
X20482Y13576D01*
X20494Y13667D01*
X20482Y13759D01*
X20447Y13844D01*
X20390Y13918D01*
X20317Y13974D01*
X20231Y14009D01*
X20140Y14022D01*
D02*
G37*
G36*
X18640Y14522D02*
X18548Y14509D01*
X18463Y14474D01*
X18389Y14418D01*
X18333Y14344D01*
X18298Y14259D01*
X18286Y14167D01*
X18298Y14076D01*
X18317Y14028D01*
X18279Y13990D01*
X18231Y14009D01*
X18140Y14022D01*
X18048Y14009D01*
X17963Y13974D01*
X17889Y13918D01*
X17833Y13844D01*
X17798Y13759D01*
X17786Y13667D01*
X17798Y13576D01*
X17833Y13490D01*
X17889Y13417D01*
X17963Y13361D01*
X18048Y13325D01*
X18140Y13313D01*
X18231Y13325D01*
X18317Y13361D01*
X18390Y13417D01*
X18447Y13490D01*
X18482Y13576D01*
X18494Y13667D01*
X18482Y13759D01*
X18462Y13807D01*
X18500Y13845D01*
X18548Y13825D01*
X18640Y13813D01*
X18731Y13825D01*
X18779Y13845D01*
X18817Y13807D01*
X18798Y13759D01*
X18786Y13667D01*
X18798Y13576D01*
X18833Y13490D01*
X18889Y13417D01*
X18963Y13361D01*
X19048Y13325D01*
X19140Y13313D01*
X19231Y13325D01*
X19317Y13361D01*
X19390Y13417D01*
X19447Y13490D01*
X19482Y13576D01*
X19494Y13667D01*
X19482Y13759D01*
X19447Y13844D01*
X19390Y13918D01*
X19317Y13974D01*
X19231Y14009D01*
X19140Y14022D01*
X19048Y14009D01*
X19000Y13990D01*
X18962Y14028D01*
X18982Y14076D01*
X18994Y14167D01*
X18982Y14259D01*
X18947Y14344D01*
X18890Y14418D01*
X18817Y14474D01*
X18731Y14509D01*
X18640Y14522D01*
D02*
G37*
G36*
X15140Y16022D02*
X15048Y16009D01*
X14963Y15974D01*
X14889Y15918D01*
X14833Y15844D01*
X14798Y15759D01*
X14786Y15667D01*
X14798Y15576D01*
X14833Y15490D01*
X14889Y15417D01*
X14963Y15361D01*
X15048Y15325D01*
X15140Y15313D01*
X15231Y15325D01*
X15317Y15361D01*
X15390Y15417D01*
X15447Y15490D01*
X15482Y15576D01*
X15494Y15667D01*
X15482Y15759D01*
X15447Y15844D01*
X15390Y15918D01*
X15317Y15974D01*
X15231Y16009D01*
X15140Y16022D01*
D02*
G37*
G36*
X11240Y16378D02*
X11148Y16366D01*
X11063Y16330D01*
X10990Y16274D01*
X10933Y16201D01*
X10898Y16115D01*
X10886Y16024D01*
X10898Y15932D01*
X10933Y15847D01*
X10990Y15773D01*
X11063Y15717D01*
X11148Y15681D01*
X11240Y15669D01*
X11332Y15681D01*
X11417Y15717D01*
X11491Y15773D01*
X11547Y15847D01*
X11582Y15932D01*
X11594Y16024D01*
X11582Y16115D01*
X11547Y16201D01*
X11491Y16274D01*
X11417Y16330D01*
X11332Y16366D01*
X11240Y16378D01*
D02*
G37*
G36*
X20140Y15022D02*
X20048Y15009D01*
X19963Y14974D01*
X19889Y14918D01*
X19833Y14844D01*
X19798Y14759D01*
X19786Y14667D01*
X19798Y14576D01*
X19833Y14490D01*
X19889Y14417D01*
X19963Y14361D01*
X20048Y14325D01*
X20140Y14313D01*
X20231Y14325D01*
X20317Y14361D01*
X20390Y14417D01*
X20447Y14490D01*
X20482Y14576D01*
X20494Y14667D01*
X20482Y14759D01*
X20447Y14844D01*
X20390Y14918D01*
X20317Y14974D01*
X20231Y15009D01*
X20140Y15022D01*
D02*
G37*
G36*
Y17022D02*
X20048Y17009D01*
X19963Y16974D01*
X19889Y16918D01*
X19833Y16844D01*
X19798Y16759D01*
X19786Y16667D01*
X19798Y16576D01*
X19833Y16490D01*
X19889Y16417D01*
X19963Y16361D01*
X20048Y16325D01*
X20140Y16313D01*
X20231Y16325D01*
X20305Y16356D01*
X21354Y15307D01*
X21388Y15285D01*
X21427Y15277D01*
X24532D01*
X24549Y15235D01*
X24595Y15175D01*
X24655Y15129D01*
X24725Y15100D01*
X24800Y15090D01*
X24875Y15100D01*
X24945Y15129D01*
X25005Y15175D01*
X25051Y15235D01*
X25080Y15305D01*
X25090Y15380D01*
X25080Y15455D01*
X25051Y15525D01*
X25005Y15585D01*
X24945Y15631D01*
X24875Y15660D01*
X24800Y15670D01*
X24725Y15660D01*
X24655Y15631D01*
X24595Y15585D01*
X24549Y15525D01*
X24532Y15483D01*
X21470D01*
X20451Y16502D01*
X20482Y16576D01*
X20494Y16667D01*
X20482Y16759D01*
X20447Y16844D01*
X20390Y16918D01*
X20317Y16974D01*
X20231Y17009D01*
X20140Y17022D01*
D02*
G37*
G36*
X17650Y23560D02*
X17575Y23550D01*
X17505Y23521D01*
X17445Y23475D01*
X17399Y23415D01*
X17370Y23345D01*
X17360Y23270D01*
Y22876D01*
X17370Y22801D01*
X17399Y22731D01*
X17445Y22671D01*
X17505Y22625D01*
X17575Y22596D01*
X17650Y22586D01*
X17725Y22596D01*
X17795Y22625D01*
X17855Y22671D01*
X17901Y22731D01*
X17930Y22801D01*
X17939Y22876D01*
Y23270D01*
X17930Y23345D01*
X17901Y23415D01*
X17855Y23475D01*
X17795Y23521D01*
X17725Y23550D01*
X17650Y23560D01*
D02*
G37*
G36*
X18650D02*
X18575Y23550D01*
X18505Y23521D01*
X18445Y23475D01*
X18399Y23415D01*
X18370Y23345D01*
X18360Y23270D01*
Y22876D01*
X18370Y22801D01*
X18399Y22731D01*
X18445Y22671D01*
X18505Y22625D01*
X18575Y22596D01*
X18650Y22586D01*
X18725Y22596D01*
X18795Y22625D01*
X18855Y22671D01*
X18901Y22731D01*
X18930Y22801D01*
X18939Y22876D01*
Y23270D01*
X18930Y23345D01*
X18901Y23415D01*
X18855Y23475D01*
X18795Y23521D01*
X18725Y23550D01*
X18650Y23560D01*
D02*
G37*
G36*
X18150Y22560D02*
X18075Y22550D01*
X18005Y22521D01*
X17945Y22475D01*
X17899Y22415D01*
X17870Y22345D01*
X17860Y22270D01*
Y21876D01*
X17870Y21801D01*
X17899Y21731D01*
X17945Y21671D01*
X18005Y21625D01*
X18057Y21603D01*
X18047Y21553D01*
X17252D01*
X17242Y21603D01*
X17295Y21625D01*
X17355Y21671D01*
X17401Y21731D01*
X17430Y21801D01*
X17439Y21876D01*
Y22270D01*
X17430Y22345D01*
X17401Y22415D01*
X17355Y22475D01*
X17295Y22521D01*
X17225Y22550D01*
X17150Y22560D01*
X17075Y22550D01*
X17005Y22521D01*
X16945Y22475D01*
X16899Y22415D01*
X16870Y22345D01*
X16860Y22270D01*
Y21876D01*
X16870Y21801D01*
X16899Y21731D01*
X16945Y21671D01*
X17005Y21625D01*
X17057Y21603D01*
X17047Y21553D01*
X16367D01*
X16322Y21599D01*
X16325Y21648D01*
X16355Y21671D01*
X16401Y21731D01*
X16430Y21801D01*
X16439Y21876D01*
Y22270D01*
X16430Y22345D01*
X16401Y22415D01*
X16355Y22475D01*
X16295Y22521D01*
X16225Y22550D01*
X16150Y22560D01*
X16075Y22550D01*
X16005Y22521D01*
X15945Y22475D01*
X15899Y22415D01*
X15870Y22345D01*
X15860Y22270D01*
Y21876D01*
X15870Y21801D01*
X15899Y21731D01*
X15945Y21671D01*
X16005Y21625D01*
X16050Y21606D01*
X16054Y21586D01*
X16077Y21552D01*
X16252Y21377D01*
X16285Y21355D01*
X16325Y21347D01*
X19022D01*
X19039Y21305D01*
X19085Y21245D01*
X19145Y21199D01*
X19215Y21170D01*
X19290Y21160D01*
X19365Y21170D01*
X19435Y21199D01*
X19495Y21245D01*
X19541Y21305D01*
X19570Y21375D01*
X19580Y21450D01*
X19570Y21525D01*
X19541Y21595D01*
X19495Y21655D01*
X19435Y21701D01*
X19365Y21730D01*
X19290Y21740D01*
X19215Y21730D01*
X19145Y21701D01*
X19085Y21655D01*
X19039Y21595D01*
X19022Y21553D01*
X18252D01*
X18242Y21603D01*
X18295Y21625D01*
X18355Y21671D01*
X18401Y21731D01*
X18430Y21801D01*
X18439Y21876D01*
Y22270D01*
X18430Y22345D01*
X18401Y22415D01*
X18355Y22475D01*
X18295Y22521D01*
X18225Y22550D01*
X18150Y22560D01*
D02*
G37*
G36*
X16650Y23560D02*
X16575Y23550D01*
X16505Y23521D01*
X16445Y23475D01*
X16399Y23415D01*
X16370Y23345D01*
X16360Y23270D01*
Y22876D01*
X16370Y22801D01*
X16399Y22731D01*
X16445Y22671D01*
X16505Y22625D01*
X16575Y22596D01*
X16650Y22586D01*
X16725Y22596D01*
X16795Y22625D01*
X16855Y22671D01*
X16901Y22731D01*
X16930Y22801D01*
X16939Y22876D01*
Y23270D01*
X16930Y23345D01*
X16901Y23415D01*
X16855Y23475D01*
X16795Y23521D01*
X16725Y23550D01*
X16650Y23560D01*
D02*
G37*
G36*
X14636Y26356D02*
X14483Y26341D01*
X14336Y26297D01*
X14201Y26224D01*
X14082Y26127D01*
X13985Y26008D01*
X13912Y25873D01*
X13868Y25726D01*
X13853Y25573D01*
X13868Y25420D01*
X13912Y25273D01*
X13985Y25138D01*
X14082Y25019D01*
X14201Y24922D01*
X14336Y24849D01*
X14483Y24805D01*
X14636Y24790D01*
X14789Y24805D01*
X14936Y24849D01*
X15071Y24922D01*
X15190Y25019D01*
X15287Y25138D01*
X15359Y25273D01*
X15404Y25420D01*
X15419Y25573D01*
X15404Y25726D01*
X15359Y25873D01*
X15287Y26008D01*
X15190Y26127D01*
X15071Y26224D01*
X14936Y26297D01*
X14789Y26341D01*
X14636Y26356D01*
D02*
G37*
G36*
X19163D02*
X19011Y26341D01*
X18864Y26297D01*
X18728Y26224D01*
X18609Y26127D01*
X18512Y26008D01*
X18440Y25873D01*
X18395Y25726D01*
X18380Y25573D01*
X18395Y25420D01*
X18440Y25273D01*
X18512Y25138D01*
X18609Y25019D01*
X18728Y24922D01*
X18864Y24849D01*
X19011Y24805D01*
X19163Y24790D01*
X19316Y24805D01*
X19463Y24849D01*
X19599Y24922D01*
X19717Y25019D01*
X19815Y25138D01*
X19887Y25273D01*
X19932Y25420D01*
X19947Y25573D01*
X19932Y25726D01*
X19887Y25873D01*
X19815Y26008D01*
X19717Y26127D01*
X19599Y26224D01*
X19463Y26297D01*
X19316Y26341D01*
X19163Y26356D01*
D02*
G37*
G36*
X12067Y24936D02*
X11937Y24924D01*
X11813Y24886D01*
X11698Y24824D01*
X11597Y24742D01*
X11514Y24641D01*
X11453Y24526D01*
X11415Y24401D01*
X11402Y24272D01*
X11415Y24142D01*
X11453Y24017D01*
X11514Y23902D01*
X11597Y23802D01*
X11698Y23719D01*
X11813Y23658D01*
X11937Y23620D01*
X12067Y23607D01*
X12197Y23620D01*
X12321Y23658D01*
X12436Y23719D01*
X12537Y23802D01*
X12620Y23902D01*
X12681Y24017D01*
X12719Y24142D01*
X12732Y24272D01*
X12719Y24401D01*
X12681Y24526D01*
X12620Y24641D01*
X12537Y24742D01*
X12436Y24824D01*
X12321Y24886D01*
X12197Y24924D01*
X12067Y24936D01*
D02*
G37*
G36*
X24272D02*
X24142Y24924D01*
X24017Y24886D01*
X23902Y24824D01*
X23802Y24742D01*
X23719Y24641D01*
X23658Y24526D01*
X23620Y24401D01*
X23607Y24272D01*
X23620Y24142D01*
X23658Y24017D01*
X23719Y23902D01*
X23802Y23802D01*
X23902Y23719D01*
X24017Y23658D01*
X24142Y23620D01*
X24272Y23607D01*
X24401Y23620D01*
X24526Y23658D01*
X24641Y23719D01*
X24742Y23802D01*
X24824Y23902D01*
X24886Y24017D01*
X24924Y24142D01*
X24936Y24272D01*
X24924Y24401D01*
X24886Y24526D01*
X24824Y24641D01*
X24742Y24742D01*
X24641Y24824D01*
X24526Y24886D01*
X24401Y24924D01*
X24272Y24936D01*
D02*
G37*
G36*
Y12732D02*
X24142Y12719D01*
X24017Y12681D01*
X23902Y12620D01*
X23802Y12537D01*
X23719Y12436D01*
X23658Y12321D01*
X23620Y12197D01*
X23607Y12067D01*
X23620Y11937D01*
X23658Y11813D01*
X23719Y11698D01*
X23802Y11597D01*
X23902Y11514D01*
X24017Y11453D01*
X24142Y11415D01*
X24272Y11402D01*
X24401Y11415D01*
X24526Y11453D01*
X24641Y11514D01*
X24742Y11597D01*
X24824Y11698D01*
X24886Y11813D01*
X24924Y11937D01*
X24936Y12067D01*
X24924Y12197D01*
X24886Y12321D01*
X24824Y12436D01*
X24742Y12537D01*
X24641Y12620D01*
X24526Y12681D01*
X24401Y12719D01*
X24272Y12732D01*
D02*
G37*
G36*
X12067D02*
X11937Y12719D01*
X11813Y12681D01*
X11698Y12620D01*
X11597Y12537D01*
X11514Y12436D01*
X11453Y12321D01*
X11415Y12197D01*
X11402Y12067D01*
X11415Y11937D01*
X11453Y11813D01*
X11514Y11698D01*
X11597Y11597D01*
X11698Y11514D01*
X11813Y11453D01*
X11937Y11415D01*
X12067Y11402D01*
X12197Y11415D01*
X12321Y11453D01*
X12436Y11514D01*
X12537Y11597D01*
X12620Y11698D01*
X12681Y11813D01*
X12719Y11937D01*
X12732Y12067D01*
X12719Y12197D01*
X12681Y12321D01*
X12620Y12436D01*
X12537Y12537D01*
X12436Y12620D01*
X12321Y12681D01*
X12197Y12719D01*
X12067Y12732D01*
D02*
G37*
G36*
X11240Y19134D02*
X11148Y19122D01*
X11063Y19086D01*
X10990Y19030D01*
X10933Y18957D01*
X10898Y18871D01*
X10886Y18780D01*
X10898Y18688D01*
X10933Y18602D01*
X10990Y18529D01*
X11063Y18473D01*
X11148Y18437D01*
X11240Y18425D01*
X11332Y18437D01*
X11417Y18473D01*
X11491Y18529D01*
X11547Y18602D01*
X11582Y18688D01*
X11594Y18780D01*
X11582Y18871D01*
X11547Y18957D01*
X11491Y19030D01*
X11417Y19086D01*
X11332Y19122D01*
X11240Y19134D01*
D02*
G37*
G36*
X17414Y20563D02*
X16918D01*
Y20143D01*
X16625D01*
X16586Y20135D01*
X16552Y20113D01*
X16387Y19948D01*
X16365Y19914D01*
X16357Y19875D01*
Y18807D01*
X16365Y18767D01*
X16387Y18734D01*
X16532Y18588D01*
X16512Y18538D01*
X16245D01*
Y19596D01*
X16233Y19655D01*
X16200Y19704D01*
X16130Y19775D01*
X16080Y19808D01*
X16022Y19820D01*
X15457D01*
X15447Y19844D01*
X15390Y19918D01*
X15317Y19974D01*
X15231Y20009D01*
X15140Y20022D01*
X15048Y20009D01*
X14963Y19974D01*
X14889Y19918D01*
X14833Y19844D01*
X14798Y19759D01*
X14786Y19667D01*
X14798Y19576D01*
X14833Y19490D01*
X14889Y19417D01*
X14963Y19361D01*
X15048Y19325D01*
X15140Y19313D01*
X15231Y19325D01*
X15317Y19361D01*
X15390Y19417D01*
X15447Y19490D01*
X15457Y19515D01*
X15940D01*
Y18386D01*
Y14504D01*
X15952Y14446D01*
X15985Y14396D01*
X17709Y12672D01*
Y12366D01*
X17810D01*
Y12197D01*
X17724D01*
Y11760D01*
X18201D01*
Y12197D01*
X18115D01*
Y12366D01*
X18169D01*
Y12554D01*
X21322D01*
X21339Y12513D01*
X21385Y12452D01*
X21445Y12406D01*
X21515Y12377D01*
X21590Y12368D01*
X21665Y12377D01*
X21735Y12406D01*
X21795Y12452D01*
X21841Y12513D01*
X21870Y12582D01*
X21880Y12657D01*
X21870Y12733D01*
X21841Y12802D01*
X21795Y12862D01*
X21735Y12909D01*
X21665Y12937D01*
X21590Y12947D01*
X21515Y12937D01*
X21445Y12909D01*
X21385Y12862D01*
X21339Y12802D01*
X21322Y12761D01*
X18169D01*
Y12949D01*
X17863D01*
X16245Y14567D01*
Y18233D01*
X16597D01*
X16624Y18183D01*
X16619Y18177D01*
X16610Y18130D01*
X16619Y18083D01*
X16646Y18043D01*
X16665Y18030D01*
Y17974D01*
X16646Y17961D01*
X16619Y17921D01*
X16610Y17874D01*
X16619Y17827D01*
X16646Y17787D01*
X16665Y17774D01*
Y17718D01*
X16646Y17705D01*
X16619Y17665D01*
X16610Y17618D01*
X16619Y17571D01*
X16646Y17532D01*
X16685Y17505D01*
X16732Y17496D01*
X17146D01*
X17193Y17505D01*
X17232Y17532D01*
X17259Y17571D01*
X17268Y17618D01*
X17259Y17665D01*
X17232Y17705D01*
X17213Y17718D01*
Y17774D01*
X17232Y17787D01*
X17259Y17827D01*
X17268Y17874D01*
X17259Y17921D01*
X17232Y17961D01*
X17213Y17974D01*
Y18030D01*
X17232Y18043D01*
X17259Y18083D01*
X17268Y18130D01*
X17259Y18177D01*
X17232Y18216D01*
X17213Y18230D01*
Y18286D01*
X17232Y18299D01*
X17259Y18339D01*
X17268Y18386D01*
X17259Y18433D01*
X17232Y18472D01*
X17213Y18486D01*
Y18542D01*
X17232Y18555D01*
X17259Y18595D01*
X17268Y18642D01*
X17259Y18689D01*
X17232Y18728D01*
X17193Y18755D01*
X17146Y18764D01*
X16732D01*
X16685Y18755D01*
X16671Y18745D01*
X16668D01*
X16563Y18849D01*
Y19132D01*
X16609Y19137D01*
X16611Y19137D01*
X16613Y19137D01*
X16613Y19137D01*
X16616Y19123D01*
Y19123D01*
D01*
X16619Y19107D01*
X16636Y19081D01*
X16646Y19067D01*
X16685Y19040D01*
X16732Y19031D01*
X17146D01*
X17193Y19040D01*
X17232Y19067D01*
X17259Y19107D01*
X17268Y19154D01*
X17259Y19200D01*
X17232Y19240D01*
X17193Y19267D01*
X17146Y19276D01*
X16732D01*
X16685Y19267D01*
X16646Y19240D01*
X16619Y19200D01*
X16616Y19184D01*
Y19184D01*
X16613Y19170D01*
X16613Y19170D01*
X16611Y19170D01*
X16609Y19171D01*
X16563Y19175D01*
Y19832D01*
X16668Y19937D01*
X16918D01*
Y19791D01*
X17414D01*
Y20563D01*
D02*
G37*
G36*
X21746Y21047D02*
X21654Y21035D01*
X21569Y21000D01*
X21496Y20943D01*
X21439Y20870D01*
X21404Y20785D01*
X21392Y20693D01*
X21404Y20601D01*
X21439Y20516D01*
X21496Y20442D01*
X21569Y20386D01*
X21654Y20351D01*
X21746Y20339D01*
X21838Y20351D01*
X21923Y20386D01*
X21997Y20442D01*
X22053Y20516D01*
X22088Y20601D01*
X22100Y20693D01*
X22088Y20785D01*
X22053Y20870D01*
X21997Y20943D01*
X21923Y21000D01*
X21838Y21035D01*
X21746Y21047D01*
D02*
G37*
G36*
X25246Y22635D02*
X25111Y22622D01*
X24980Y22582D01*
X24860Y22518D01*
X24755Y22432D01*
X24669Y22327D01*
X24605Y22207D01*
X24565Y22076D01*
X24552Y21941D01*
X24565Y21805D01*
X24605Y21675D01*
X24669Y21555D01*
X24755Y21450D01*
X24860Y21364D01*
X24980Y21300D01*
X25111Y21260D01*
X25246Y21247D01*
X25382Y21260D01*
X25512Y21300D01*
X25632Y21364D01*
X25737Y21450D01*
X25823Y21555D01*
X25887Y21675D01*
X25927Y21805D01*
X25940Y21941D01*
X25927Y22076D01*
X25887Y22207D01*
X25823Y22327D01*
X25737Y22432D01*
X25632Y22518D01*
X25512Y22582D01*
X25382Y22622D01*
X25246Y22635D01*
D02*
G37*
G36*
X22746Y20543D02*
X22654Y20531D01*
X22569Y20496D01*
X22496Y20439D01*
X22439Y20366D01*
X22404Y20281D01*
X22393Y20197D01*
X21500D01*
X21499Y20197D01*
X21498Y20197D01*
X19873Y20172D01*
X19854Y20168D01*
X19836Y20164D01*
X19835Y20163D01*
X19834Y20163D01*
X19818Y20152D01*
X19802Y20141D01*
X19365Y19704D01*
X19342Y19671D01*
X19334Y19631D01*
Y19276D01*
X18937D01*
X18890Y19267D01*
X18850Y19240D01*
X18824Y19200D01*
X18815Y19154D01*
X18824Y19107D01*
X18850Y19067D01*
X18870Y19054D01*
Y18997D01*
X18850Y18984D01*
X18824Y18944D01*
X18815Y18898D01*
X18824Y18851D01*
X18850Y18811D01*
X18870Y18798D01*
Y18741D01*
X18850Y18728D01*
X18824Y18689D01*
X18815Y18642D01*
X18824Y18595D01*
X18850Y18555D01*
X18870Y18542D01*
Y18486D01*
X18850Y18472D01*
X18824Y18433D01*
X18815Y18386D01*
X18824Y18339D01*
X18850Y18299D01*
X18870Y18286D01*
Y18230D01*
X18850Y18216D01*
X18824Y18177D01*
X18815Y18130D01*
X18824Y18083D01*
X18850Y18043D01*
X18870Y18030D01*
Y17974D01*
X18850Y17961D01*
X18824Y17921D01*
X18815Y17874D01*
X18824Y17827D01*
X18850Y17787D01*
X18870Y17774D01*
Y17718D01*
X18850Y17705D01*
X18824Y17665D01*
X18815Y17618D01*
X18824Y17571D01*
X18850Y17532D01*
X18890Y17505D01*
X18937Y17496D01*
X19350D01*
X19397Y17505D01*
X19437Y17532D01*
X19463Y17571D01*
X19473Y17618D01*
X19463Y17665D01*
X19437Y17705D01*
X19417Y17718D01*
Y17774D01*
X19437Y17787D01*
X19463Y17827D01*
X19473Y17874D01*
X19463Y17921D01*
X19437Y17961D01*
X19417Y17974D01*
Y18030D01*
X19437Y18043D01*
X19463Y18083D01*
X19473Y18130D01*
X19463Y18177D01*
X19437Y18216D01*
X19417Y18230D01*
X19417Y18237D01*
X19445Y18283D01*
X19607D01*
X19763Y18127D01*
X19796Y18105D01*
X19836Y18097D01*
X21253D01*
X21293Y18105D01*
X21326Y18127D01*
X21580Y18381D01*
X21654Y18351D01*
X21746Y18339D01*
X21838Y18351D01*
X21923Y18386D01*
X21997Y18442D01*
X22053Y18516D01*
X22088Y18601D01*
X22100Y18693D01*
X22088Y18785D01*
X22053Y18870D01*
X21997Y18943D01*
X21923Y19000D01*
X21838Y19035D01*
X21832Y19036D01*
X21835Y19086D01*
X22409D01*
X22439Y19012D01*
X22496Y18939D01*
X22569Y18882D01*
X22654Y18847D01*
X22746Y18835D01*
X22838Y18847D01*
X22923Y18882D01*
X22997Y18939D01*
X23053Y19012D01*
X23088Y19097D01*
X23100Y19189D01*
X23088Y19281D01*
X23053Y19366D01*
X22997Y19439D01*
X22923Y19496D01*
X22838Y19531D01*
X22746Y19543D01*
X22654Y19531D01*
X22569Y19496D01*
X22496Y19439D01*
X22439Y19366D01*
X22409Y19292D01*
X21775D01*
X21772Y19342D01*
X21838Y19351D01*
X21923Y19386D01*
X21997Y19442D01*
X22053Y19516D01*
X22088Y19601D01*
X22100Y19693D01*
X22088Y19785D01*
X22053Y19870D01*
X21998Y19941D01*
X22001Y19958D01*
X22012Y19991D01*
X22455D01*
X22496Y19939D01*
X22569Y19882D01*
X22654Y19847D01*
X22746Y19835D01*
X22838Y19847D01*
X22923Y19882D01*
X22997Y19939D01*
X23053Y20012D01*
X23088Y20097D01*
X23100Y20189D01*
X23088Y20281D01*
X23053Y20366D01*
X22997Y20439D01*
X22923Y20496D01*
X22838Y20531D01*
X22746Y20543D01*
D02*
G37*
G36*
X20140Y21022D02*
X20048Y21009D01*
X19963Y20974D01*
X19889Y20918D01*
X19833Y20844D01*
X19798Y20759D01*
X19786Y20667D01*
X19798Y20576D01*
X19833Y20490D01*
X19889Y20417D01*
X19963Y20361D01*
X20048Y20325D01*
X20140Y20313D01*
X20231Y20325D01*
X20317Y20361D01*
X20390Y20417D01*
X20447Y20490D01*
X20482Y20576D01*
X20494Y20667D01*
X20482Y20759D01*
X20447Y20844D01*
X20390Y20918D01*
X20317Y20974D01*
X20231Y21009D01*
X20140Y21022D01*
D02*
G37*
%LPD*%
G36*
X21496Y19442D02*
X21569Y19386D01*
X21654Y19351D01*
X21720Y19342D01*
X21717Y19292D01*
X21417D01*
X21378Y19284D01*
X21344Y19262D01*
X21254Y19172D01*
X21163D01*
X21144Y19218D01*
X21393Y19467D01*
X21477D01*
X21496Y19442D01*
D02*
G37*
G36*
X21492Y19952D02*
X21494Y19941D01*
X21439Y19870D01*
X21404Y19785D01*
X21392Y19693D01*
X21375Y19673D01*
X21350D01*
X21311Y19665D01*
X21277Y19643D01*
X20957Y19323D01*
X20350D01*
X20333Y19373D01*
X20390Y19417D01*
X20447Y19490D01*
X20482Y19576D01*
X20494Y19667D01*
X20482Y19759D01*
X20447Y19844D01*
X20390Y19918D01*
X20379Y19926D01*
X20395Y19974D01*
X21475Y19991D01*
X21492Y19952D01*
D02*
G37*
G36*
X19809Y19786D02*
X19798Y19759D01*
X19786Y19667D01*
X19798Y19576D01*
X19833Y19490D01*
X19889Y19417D01*
X19947Y19373D01*
X19930Y19323D01*
X19800D01*
X19760Y19315D01*
X19727Y19293D01*
X19589Y19155D01*
X19558Y19164D01*
X19541Y19177D01*
Y19588D01*
X19766Y19814D01*
X19809Y19786D01*
D02*
G37*
G36*
Y18786D02*
X19798Y18759D01*
X19786Y18667D01*
X19798Y18576D01*
X19833Y18490D01*
X19889Y18417D01*
X19963Y18361D01*
X19981Y18353D01*
X19971Y18303D01*
X19879D01*
X19723Y18459D01*
X19689Y18481D01*
X19650Y18489D01*
X19449D01*
X19448Y18539D01*
X19488Y18546D01*
X19521Y18569D01*
X19766Y18814D01*
X19809Y18786D01*
D02*
G37*
G36*
X21660Y19036D02*
X21654Y19035D01*
X21569Y19000D01*
X21496Y18943D01*
X21439Y18870D01*
X21404Y18785D01*
X21392Y18693D01*
X21404Y18601D01*
X21435Y18527D01*
X21210Y18303D01*
X20309D01*
X20299Y18353D01*
X20317Y18361D01*
X20390Y18417D01*
X20447Y18490D01*
X20482Y18576D01*
X20494Y18667D01*
X20482Y18759D01*
X20447Y18844D01*
X20392Y18915D01*
X20395Y18933D01*
X20406Y18965D01*
X21297D01*
X21336Y18973D01*
X21370Y18996D01*
X21460Y19086D01*
X21657D01*
X21660Y19036D01*
D02*
G37*
D18*
X21350Y19570D02*
X21746D01*
X21500Y20094D02*
X22746D01*
X16625Y20040D02*
X17166D01*
X13750Y12527D02*
X13875Y12402D01*
X18257Y20220D02*
Y20536D01*
Y20177D02*
Y20220D01*
X17463Y20667D02*
X18125D01*
X15140D02*
X17463D01*
X15167Y11762D02*
Y11850D01*
Y11000D02*
Y11762D01*
X14921Y11929D02*
X15000D01*
X15079Y11850D02*
X15167Y11762D01*
X15000Y11929D02*
X15079Y11850D01*
X15167D01*
X15000D02*
X15079D01*
X14921Y11929D02*
X15000Y11850D01*
X21417Y19189D02*
X22746D01*
X21297Y19069D02*
X21417Y19189D01*
X19875Y19069D02*
X21297D01*
X19448Y18642D02*
X19875Y19069D01*
X19144Y18642D02*
X19448D01*
X21746Y19570D02*
Y19693D01*
X21000Y19220D02*
X21350Y19570D01*
X19800Y19220D02*
X21000D01*
X19478Y18898D02*
X19800Y19220D01*
X19144Y18898D02*
X19478D01*
X22746Y20094D02*
Y20189D01*
X19875Y20069D02*
X21500Y20094D01*
X19438Y19631D02*
X19875Y20069D01*
X19438Y19170D02*
Y19631D01*
X19144Y19154D02*
X19438Y19170D01*
X17939Y12657D02*
X21590D01*
X16325Y21450D02*
X19290D01*
X16150Y21625D02*
X16325Y21450D01*
X16150Y21625D02*
Y22073D01*
X15140Y13350D02*
Y13667D01*
X15000Y13210D02*
X15140Y13350D01*
X13875Y13210D02*
X15000D01*
X13750Y13085D02*
X13875Y13210D01*
X13750Y12527D02*
Y13085D01*
X13875Y12402D02*
X14636D01*
X22746Y20781D02*
Y21189D01*
X22210Y20245D02*
X22746Y20781D01*
X20675Y20245D02*
X22210D01*
X18257Y20220D02*
X20675Y20245D01*
X17963Y11447D02*
X20505D01*
X21247Y14560D02*
X22920D01*
X20140Y15667D02*
X21247Y14560D01*
X18125Y20667D02*
X18257Y20536D01*
X21427Y15380D02*
X24800D01*
X20140Y16667D02*
X21427Y15380D01*
X19144Y18386D02*
X19650D01*
X19836Y18200D01*
X21253D01*
X21746Y18693D01*
X14636Y11929D02*
X14921D01*
X15167Y11850D02*
Y12165D01*
X17166Y20040D02*
Y20177D01*
X16460Y19875D02*
X16625Y20040D01*
X16460Y18807D02*
Y19875D01*
Y18807D02*
X16625Y18642D01*
X16939D01*
Y18898D02*
X17250D01*
X17470Y19118D01*
Y20660D01*
X17463Y20667D02*
X17470Y20660D01*
X15167Y11000D02*
X15330Y10837D01*
X16663D01*
X17800D01*
X17963Y11000D01*
Y11447D01*
X14188Y12165D02*
X14636D01*
X14120Y12233D02*
X14188Y12165D01*
X13681Y12233D02*
X14120D01*
D19*
X16093Y18386D02*
Y19596D01*
Y14504D02*
Y18386D01*
X16939D01*
X15140Y19667D02*
X16022D01*
X16093Y19596D01*
Y14504D02*
X17939Y12657D01*
X17963Y12634D01*
Y11978D02*
Y12634D01*
X14507Y11143D02*
X14508Y11142D01*
X13681Y11143D02*
X14507D01*
D21*
X16648Y11944D02*
X16663Y11928D01*
X16648Y11944D02*
Y12657D01*
D23*
X15140Y20667D02*
D03*
Y19667D02*
D03*
Y18667D02*
D03*
Y17667D02*
D03*
Y16667D02*
D03*
Y15667D02*
D03*
Y14667D02*
D03*
Y13667D02*
D03*
X20140D02*
D03*
Y14667D02*
D03*
Y15667D02*
D03*
Y16667D02*
D03*
Y17667D02*
D03*
Y18667D02*
D03*
Y19667D02*
D03*
Y20667D02*
D03*
X19140Y13667D02*
D03*
X18140D02*
D03*
X18640Y14167D02*
D03*
X11240Y14646D02*
D03*
Y16024D02*
D03*
Y17402D02*
D03*
Y18780D02*
D03*
X22746Y19189D02*
D03*
X21746Y18693D02*
D03*
X22746Y20189D02*
D03*
X21746Y19693D02*
D03*
X22746Y21189D02*
D03*
X21746Y20693D02*
D03*
D24*
X18150Y22073D02*
D03*
X17150D02*
D03*
X15150D02*
D03*
X16150D02*
D03*
X15650Y23073D02*
D03*
X16650D02*
D03*
X18650D02*
D03*
X17650D02*
D03*
D25*
X14636Y25573D02*
D03*
X19163D02*
D03*
D26*
X15167Y12165D02*
D03*
D27*
X21590Y12657D02*
D03*
X19290Y21450D02*
D03*
X20505Y11447D02*
D03*
X22920Y14560D02*
D03*
X24800Y15380D02*
D03*
D28*
X15167Y12569D02*
D03*
Y11762D02*
D03*
D29*
X12067Y12067D02*
D03*
X24272D02*
D03*
X12067Y24272D02*
D03*
X24272D02*
D03*
D30*
X19144Y19154D02*
D03*
Y18898D02*
D03*
Y18642D02*
D03*
Y18386D02*
D03*
Y18130D02*
D03*
Y17874D02*
D03*
Y17618D02*
D03*
X16939Y19154D02*
D03*
Y18898D02*
D03*
Y18642D02*
D03*
Y18386D02*
D03*
Y18130D02*
D03*
Y17874D02*
D03*
Y17618D02*
D03*
D31*
X15837Y11693D02*
D03*
Y11929D02*
D03*
Y12165D02*
D03*
Y12402D02*
D03*
Y12638D02*
D03*
X14636D02*
D03*
Y12402D02*
D03*
Y12165D02*
D03*
Y11929D02*
D03*
Y11693D02*
D03*
D32*
X17963Y11447D02*
D03*
Y11978D02*
D03*
D33*
X16648Y12657D02*
D03*
X17939D02*
D03*
D34*
X16663Y11928D02*
D03*
Y10837D02*
D03*
X13681Y12233D02*
D03*
Y11143D02*
D03*
D35*
X18257Y20177D02*
D03*
X17166D02*
D03*
D36*
X16265Y12525D02*
D03*
D37*
X14523Y11447D02*
D03*
D38*
X14316Y12259D02*
D03*
M02*
