G04 Layer_Color=16770453*
%FSLAX24Y24*%
%MOIN*%
G70*
G01*
G75*
%ADD30O,0.0551X0.0138*%
G04:AMPARAMS|DCode=31|XSize=25.6mil|YSize=11.8mil|CornerRadius=3mil|HoleSize=0mil|Usage=FLASHONLY|Rotation=0.000|XOffset=0mil|YOffset=0mil|HoleType=Round|Shape=RoundedRectangle|*
%AMROUNDEDRECTD31*
21,1,0.0256,0.0059,0,0,0.0*
21,1,0.0197,0.0118,0,0,0.0*
1,1,0.0059,0.0098,-0.0030*
1,1,0.0059,-0.0098,-0.0030*
1,1,0.0059,-0.0098,0.0030*
1,1,0.0059,0.0098,0.0030*
%
%ADD31ROUNDEDRECTD31*%
%ADD32R,0.0374X0.0335*%
%ADD33R,0.0358X0.0480*%
%ADD34R,0.0669X0.0394*%
%ADD35R,0.0394X0.0669*%
D30*
X19144Y19154D02*
D03*
Y18898D02*
D03*
Y18642D02*
D03*
Y18386D02*
D03*
Y18130D02*
D03*
Y17874D02*
D03*
Y17618D02*
D03*
X16939Y19154D02*
D03*
Y18898D02*
D03*
Y18642D02*
D03*
Y18386D02*
D03*
Y18130D02*
D03*
Y17874D02*
D03*
Y17618D02*
D03*
D31*
X15837Y11693D02*
D03*
Y11929D02*
D03*
Y12165D02*
D03*
Y12402D02*
D03*
Y12638D02*
D03*
X14636D02*
D03*
Y12402D02*
D03*
Y12165D02*
D03*
Y11929D02*
D03*
Y11693D02*
D03*
D32*
X17963Y11447D02*
D03*
Y11978D02*
D03*
D33*
X16648Y12657D02*
D03*
X17939D02*
D03*
D34*
X16663Y11928D02*
D03*
Y10837D02*
D03*
X13681Y12233D02*
D03*
Y11143D02*
D03*
D35*
X18257Y20177D02*
D03*
X17166D02*
D03*
M02*
