G04 Layer_Color=7318015*
%FSLAX24Y24*%
%MOIN*%
G70*
G01*
G75*
%ADD10R,0.0709X0.0453*%
%ADD11R,0.0532X0.0610*%
%ADD12R,0.0413X0.0354*%
%ADD13R,0.0413X0.0453*%
%ADD14R,0.0335X0.0335*%
%ADD15R,0.0480X0.0358*%
%ADD16O,0.0866X0.0236*%
%ADD17O,0.0236X0.0866*%
%ADD18R,0.0880X0.0480*%
%ADD19R,0.0870X0.1420*%
%ADD20R,0.0610X0.0532*%
%ADD21R,0.1969X0.1969*%
%ADD22R,0.0354X0.0787*%
%ADD23R,0.0787X0.0354*%
%ADD24R,0.0197X0.0906*%
%ADD25R,0.0787X0.0984*%
%ADD26R,0.0276X0.0374*%
%ADD27R,0.0453X0.0709*%
%ADD28R,0.0260X0.0118*%
D10*
X18819Y44921D02*
D03*
Y46102D02*
D03*
D11*
X24439Y24449D02*
D03*
X23671D02*
D03*
X23140Y29882D02*
D03*
X22372D02*
D03*
X30148Y31654D02*
D03*
X29380D02*
D03*
X30148Y32874D02*
D03*
X29380D02*
D03*
X30148Y34055D02*
D03*
X29380D02*
D03*
X30148Y35236D02*
D03*
X29380D02*
D03*
X30148Y36339D02*
D03*
X29380D02*
D03*
X30148Y37441D02*
D03*
X29380D02*
D03*
X14498Y47559D02*
D03*
X15266D02*
D03*
X18474Y28661D02*
D03*
X19242D02*
D03*
X11191Y45394D02*
D03*
X11959D02*
D03*
D12*
X32008Y33140D02*
D03*
Y33711D02*
D03*
X34331Y33159D02*
D03*
Y33691D02*
D03*
D13*
X33150Y33829D02*
D03*
Y33179D02*
D03*
D14*
X34291Y31260D02*
D03*
Y31890D02*
D03*
X33110Y31260D02*
D03*
Y31890D02*
D03*
X32008Y31260D02*
D03*
Y31890D02*
D03*
D15*
X24882Y45850D02*
D03*
Y47142D02*
D03*
D16*
X31850Y21636D02*
D03*
Y22136D02*
D03*
Y22636D02*
D03*
Y23136D02*
D03*
Y23636D02*
D03*
Y24136D02*
D03*
Y24636D02*
D03*
Y25136D02*
D03*
X29961Y21636D02*
D03*
Y22136D02*
D03*
Y22636D02*
D03*
Y23136D02*
D03*
Y23636D02*
D03*
Y24136D02*
D03*
Y24636D02*
D03*
Y25136D02*
D03*
D17*
X25140Y18425D02*
D03*
X25640D02*
D03*
X26140D02*
D03*
X26640D02*
D03*
X27140D02*
D03*
X27640D02*
D03*
X28140D02*
D03*
X28640D02*
D03*
X25140Y20315D02*
D03*
X25640D02*
D03*
X26140D02*
D03*
X26640D02*
D03*
X27140D02*
D03*
X27640D02*
D03*
X28140D02*
D03*
X28640D02*
D03*
X18250Y18504D02*
D03*
X18750D02*
D03*
X19250D02*
D03*
X19750D02*
D03*
X20250D02*
D03*
X20750D02*
D03*
X21250D02*
D03*
X21750D02*
D03*
X18250Y20394D02*
D03*
X18750D02*
D03*
X19250D02*
D03*
X19750D02*
D03*
X20250D02*
D03*
X20750D02*
D03*
X21250D02*
D03*
X21750D02*
D03*
D18*
X24881Y42515D02*
D03*
Y43425D02*
D03*
Y44335D02*
D03*
D19*
X22431Y43425D02*
D03*
D20*
X32047Y37156D02*
D03*
Y36388D02*
D03*
X13189Y47175D02*
D03*
Y47943D02*
D03*
D21*
X21884Y36632D02*
D03*
D22*
X19257Y40576D02*
D03*
X23757D02*
D03*
X23257Y40582D02*
D03*
X22757Y40576D02*
D03*
X22257D02*
D03*
X21757D02*
D03*
X21257D02*
D03*
X20757D02*
D03*
X20257D02*
D03*
X19757D02*
D03*
D23*
X18161Y40182D02*
D03*
Y33682D02*
D03*
Y34182D02*
D03*
Y34682D02*
D03*
Y35182D02*
D03*
Y35682D02*
D03*
Y36182D02*
D03*
Y36682D02*
D03*
Y37182D02*
D03*
Y37682D02*
D03*
Y38182D02*
D03*
Y38682D02*
D03*
Y39182D02*
D03*
Y39682D02*
D03*
X24854D02*
D03*
Y39182D02*
D03*
Y38682D02*
D03*
Y38182D02*
D03*
Y37682D02*
D03*
Y37182D02*
D03*
Y36682D02*
D03*
Y36182D02*
D03*
Y35682D02*
D03*
Y35182D02*
D03*
Y34682D02*
D03*
Y34182D02*
D03*
Y33682D02*
D03*
Y40182D02*
D03*
D24*
X22323Y45787D02*
D03*
X21378D02*
D03*
X21063D02*
D03*
X22008D02*
D03*
X21693D02*
D03*
D25*
X23445Y45866D02*
D03*
X19941D02*
D03*
X23445Y48032D02*
D03*
X19941D02*
D03*
D26*
X28386Y47913D02*
D03*
X28819D02*
D03*
X29252D02*
D03*
X29685D02*
D03*
X30118D02*
D03*
X30551D02*
D03*
X30984D02*
D03*
X31417D02*
D03*
D27*
X27913Y41929D02*
D03*
X29094D02*
D03*
D28*
X12827Y46122D02*
D03*
Y45866D02*
D03*
Y45610D02*
D03*
X13551D02*
D03*
Y45866D02*
D03*
Y46122D02*
D03*
M02*
