G04 Layer_Color=16770453*
%FSLAX24Y24*%
%MOIN*%
G70*
G01*
G75*
%ADD11R,0.0532X0.0610*%
%ADD20R,0.0610X0.0532*%
%ADD27R,0.0453X0.0709*%
%ADD48R,0.0354X0.0669*%
%ADD49R,0.0354X0.0630*%
%ADD51R,0.0354X0.0098*%
%ADD52R,0.0098X0.0354*%
%ADD53R,0.0358X0.0480*%
G04:AMPARAMS|DCode=54|XSize=25.6mil|YSize=11.8mil|CornerRadius=3mil|HoleSize=0mil|Usage=FLASHONLY|Rotation=0.000|XOffset=0mil|YOffset=0mil|HoleType=Round|Shape=RoundedRectangle|*
%AMROUNDEDRECTD54*
21,1,0.0256,0.0059,0,0,0.0*
21,1,0.0197,0.0118,0,0,0.0*
1,1,0.0059,0.0098,-0.0030*
1,1,0.0059,-0.0098,-0.0030*
1,1,0.0059,-0.0098,0.0030*
1,1,0.0059,0.0098,0.0030*
%
%ADD54ROUNDEDRECTD54*%
%ADD55R,0.0394X0.0669*%
%ADD56R,0.0669X0.0394*%
%ADD109R,0.0551X0.0551*%
D11*
X14262Y42480D02*
D03*
X15030D02*
D03*
D20*
X18191Y38856D02*
D03*
Y39624D02*
D03*
X19134Y39695D02*
D03*
Y40463D02*
D03*
D27*
X23819Y44252D02*
D03*
X22638D02*
D03*
X21339D02*
D03*
X20157D02*
D03*
D48*
X22106Y42795D02*
D03*
X23248D02*
D03*
D49*
X21437Y43228D02*
D03*
X20374D02*
D03*
D51*
X17598Y42756D02*
D03*
Y42953D02*
D03*
Y43150D02*
D03*
Y43346D02*
D03*
Y42559D02*
D03*
Y42362D02*
D03*
Y42165D02*
D03*
X19488D02*
D03*
Y42362D02*
D03*
Y42559D02*
D03*
Y43346D02*
D03*
Y43150D02*
D03*
Y42953D02*
D03*
Y42756D02*
D03*
D52*
X19134Y43701D02*
D03*
X18937D02*
D03*
X18740D02*
D03*
X18543D02*
D03*
X18346D02*
D03*
X18150D02*
D03*
X17953D02*
D03*
Y41811D02*
D03*
X18150D02*
D03*
X18346D02*
D03*
X18543D02*
D03*
X18740D02*
D03*
X18937D02*
D03*
X19134D02*
D03*
D53*
X23510Y25249D02*
D03*
X22219D02*
D03*
D54*
X20177Y24301D02*
D03*
Y24537D02*
D03*
Y24774D02*
D03*
Y25010D02*
D03*
Y25246D02*
D03*
X21378D02*
D03*
Y25010D02*
D03*
Y24774D02*
D03*
Y24537D02*
D03*
Y24301D02*
D03*
D55*
X23326Y26391D02*
D03*
X22236D02*
D03*
D56*
X18819Y26170D02*
D03*
Y25080D02*
D03*
D109*
X18858Y42441D02*
D03*
Y43071D02*
D03*
X18228D02*
D03*
Y42441D02*
D03*
M02*
