G04 Layer_Color=15132400*
%FSLAX24Y24*%
%MOIN*%
G70*
G01*
G75*
%ADD27C,0.0098*%
%ADD28C,0.0118*%
%ADD51C,0.0100*%
%ADD52C,0.0039*%
%ADD53C,0.0079*%
D27*
X15591Y15512D02*
G03*
X15591Y15512I-49J0D01*
G01*
D28*
X20049Y21437D02*
Y24636D01*
Y24833D01*
X13750Y21437D02*
Y24833D01*
Y21437D02*
X20049D01*
D51*
X20187Y11891D02*
X22589D01*
X20187Y14341D02*
X20620Y14734D01*
X22589D01*
Y11891D02*
Y14734D01*
X20187Y11891D02*
Y14341D01*
X23971Y15881D02*
Y15981D01*
X24671D01*
Y15881D02*
Y15981D01*
X23971Y15881D02*
X24671D01*
X21496Y18191D02*
Y18191D01*
X21246Y17539D02*
Y22343D01*
X26208Y18484D02*
Y21398D01*
Y18484D02*
X26523Y18169D01*
X26208Y21398D02*
X26523Y21713D01*
X21246Y17539D02*
X26494D01*
X26523Y17568D01*
X21246Y22343D02*
X26494D01*
X26523Y22314D01*
Y17568D02*
Y22314D01*
X12579Y13740D02*
Y19685D01*
X9823Y13740D02*
Y19685D01*
X12579D01*
X9823Y13740D02*
X12579D01*
D52*
X21648Y12183D02*
Y12498D01*
X21136Y12183D02*
X21923D01*
X21136Y12498D02*
X21923D01*
Y12183D02*
Y12498D01*
X21136Y12183D02*
Y12498D01*
X21648Y13183D02*
Y13498D01*
X21136Y13183D02*
X21923D01*
X21136Y13498D02*
X21923D01*
Y13183D02*
Y13498D01*
X21136Y13183D02*
Y13498D01*
X21644Y14183D02*
Y14498D01*
X21132Y14183D02*
X21919D01*
X21132Y14498D02*
X21919D01*
Y14183D02*
Y14498D01*
X21132Y14183D02*
Y14498D01*
X25285Y21752D02*
Y22972D01*
Y16870D02*
Y18091D01*
X21746Y18191D02*
Y21191D01*
X21223Y18693D02*
X22207D01*
X21234Y19694D02*
X22218D01*
X21234Y20707D02*
X22218D01*
X22234Y21203D02*
X23218D01*
X22234Y20190D02*
X23218D01*
X22223Y19189D02*
X23207D01*
X22746Y18687D02*
Y21687D01*
X23967Y15177D02*
Y14993D01*
X24058Y14902D01*
X24150Y14993D01*
Y15177D01*
X24242D02*
Y14902D01*
X24380D01*
X24426Y14947D01*
Y15131D01*
X24380Y15177D01*
X24242D01*
X24518Y14902D02*
X24609D01*
X24563D01*
Y15177D01*
X24518Y15131D01*
X27057Y18566D02*
Y18658D01*
Y18612D01*
X26827D01*
X26781Y18658D01*
Y18704D01*
X26827Y18750D01*
X26781Y18291D02*
Y18475D01*
X26965Y18291D01*
X27011D01*
X27057Y18337D01*
Y18429D01*
X27011Y18475D01*
X19268Y22037D02*
X19176D01*
X19222D01*
Y21808D01*
X19176Y21762D01*
X19131D01*
X19085Y21808D01*
X19360Y21762D02*
X19452D01*
X19406D01*
Y22037D01*
X19360Y21991D01*
X15340Y18546D02*
Y18316D01*
X15386Y18270D01*
X15478D01*
X15524Y18316D01*
Y18546D01*
X15799Y18270D02*
X15616D01*
X15799Y18454D01*
Y18500D01*
X15753Y18546D01*
X15661D01*
X15616Y18500D01*
X22733Y15466D02*
X22687Y15512D01*
X22595D01*
X22549Y15466D01*
Y15420D01*
X22595Y15374D01*
X22687D01*
X22733Y15328D01*
Y15282D01*
X22687Y15236D01*
X22595D01*
X22549Y15282D01*
X22825Y15512D02*
Y15236D01*
X22917Y15328D01*
X23008Y15236D01*
Y15512D01*
X23100Y15236D02*
X23192D01*
X23146D01*
Y15512D01*
X23100Y15466D01*
X19764Y16407D02*
Y16683D01*
X19902D01*
X19947Y16637D01*
Y16545D01*
X19902Y16499D01*
X19764D01*
X19856D02*
X19947Y16407D01*
X20039Y16453D02*
X20085Y16407D01*
X20177D01*
X20223Y16453D01*
Y16637D01*
X20177Y16683D01*
X20085D01*
X20039Y16637D01*
Y16591D01*
X20085Y16545D01*
X20223D01*
X21919Y16811D02*
Y17087D01*
X22057D01*
X22103Y17041D01*
Y16949D01*
X22057Y16903D01*
X21919D01*
X22011D02*
X22103Y16811D01*
X22195Y17041D02*
X22241Y17087D01*
X22333D01*
X22378Y17041D01*
Y16995D01*
X22333Y16949D01*
X22378Y16903D01*
Y16857D01*
X22333Y16811D01*
X22241D01*
X22195Y16857D01*
Y16903D01*
X22241Y16949D01*
X22195Y16995D01*
Y17041D01*
X22241Y16949D02*
X22333D01*
X21260Y15856D02*
Y16132D01*
X21398D01*
X21444Y16086D01*
Y15994D01*
X21398Y15948D01*
X21260D01*
X21352D02*
X21444Y15856D01*
X21535Y16132D02*
X21719D01*
Y16086D01*
X21535Y15902D01*
Y15856D01*
X18917Y12982D02*
Y13258D01*
X19055D01*
X19101Y13212D01*
Y13120D01*
X19055Y13074D01*
X18917D01*
X19009D02*
X19101Y12982D01*
X19376Y13258D02*
X19285Y13212D01*
X19193Y13120D01*
Y13028D01*
X19239Y12982D01*
X19331D01*
X19376Y13028D01*
Y13074D01*
X19331Y13120D01*
X19193D01*
X20285Y18770D02*
Y19045D01*
X20423D01*
X20469Y18999D01*
Y18907D01*
X20423Y18862D01*
X20285D01*
X20377D02*
X20469Y18770D01*
X20745Y19045D02*
X20561D01*
Y18907D01*
X20653Y18953D01*
X20699D01*
X20745Y18907D01*
Y18816D01*
X20699Y18770D01*
X20607D01*
X20561Y18816D01*
X17707Y19705D02*
Y19980D01*
X17844D01*
X17890Y19934D01*
Y19842D01*
X17844Y19797D01*
X17707D01*
X17799D02*
X17890Y19705D01*
X18120D02*
Y19980D01*
X17982Y19842D01*
X18166D01*
X14970Y14094D02*
Y14370D01*
X15108D01*
X15154Y14324D01*
Y14232D01*
X15108Y14186D01*
X14970D01*
X15062D02*
X15154Y14094D01*
X15246Y14324D02*
X15292Y14370D01*
X15384D01*
X15430Y14324D01*
Y14278D01*
X15384Y14232D01*
X15338D01*
X15384D01*
X15430Y14186D01*
Y14140D01*
X15384Y14094D01*
X15292D01*
X15246Y14140D01*
X13701Y18386D02*
Y18661D01*
X13839D01*
X13884Y18615D01*
Y18524D01*
X13839Y18478D01*
X13701D01*
X13793D02*
X13884Y18386D01*
X14160D02*
X13976D01*
X14160Y18569D01*
Y18615D01*
X14114Y18661D01*
X14022D01*
X13976Y18615D01*
X13799Y14990D02*
Y15266D01*
X13937D01*
X13983Y15220D01*
Y15128D01*
X13937Y15082D01*
X13799D01*
X13891D02*
X13983Y14990D01*
X14075D02*
X14167D01*
X14121D01*
Y15266D01*
X14075Y15220D01*
X19285Y14856D02*
X19331Y14902D01*
Y14993D01*
X19285Y15039D01*
X19101D01*
X19055Y14993D01*
Y14902D01*
X19101Y14856D01*
X19285Y14764D02*
X19331Y14718D01*
Y14626D01*
X19285Y14580D01*
X19239D01*
X19193Y14626D01*
X19147Y14580D01*
X19101D01*
X19055Y14626D01*
Y14718D01*
X19101Y14764D01*
X19147D01*
X19193Y14718D01*
X19239Y14764D01*
X19285D01*
X19193Y14718D02*
Y14626D01*
X18806Y18340D02*
X18760Y18386D01*
X18668D01*
X18622Y18340D01*
Y18156D01*
X18668Y18110D01*
X18760D01*
X18806Y18156D01*
X18898Y18386D02*
X19081D01*
Y18340D01*
X18898Y18156D01*
Y18110D01*
X17162Y13684D02*
X17116Y13730D01*
X17024D01*
X16978Y13684D01*
Y13501D01*
X17024Y13455D01*
X17116D01*
X17162Y13501D01*
X17438Y13730D02*
X17346Y13684D01*
X17254Y13592D01*
Y13501D01*
X17300Y13455D01*
X17392D01*
X17438Y13501D01*
Y13547D01*
X17392Y13592D01*
X17254D01*
X17123Y14708D02*
X17077Y14754D01*
X16985D01*
X16939Y14708D01*
Y14524D01*
X16985Y14478D01*
X17077D01*
X17123Y14524D01*
X17398Y14754D02*
X17214D01*
Y14616D01*
X17306Y14662D01*
X17352D01*
X17398Y14616D01*
Y14524D01*
X17352Y14478D01*
X17260D01*
X17214Y14524D01*
X9994Y20251D02*
X9902D01*
X9948D01*
Y20022D01*
X9902Y19976D01*
X9857D01*
X9811Y20022D01*
X10086Y20206D02*
X10132Y20251D01*
X10224D01*
X10270Y20206D01*
Y20160D01*
X10224Y20114D01*
X10178D01*
X10224D01*
X10270Y20068D01*
Y20022D01*
X10224Y19976D01*
X10132D01*
X10086Y20022D01*
X20771Y12461D02*
X20817Y12415D01*
Y12324D01*
X20771Y12278D01*
X20725D01*
X20679Y12324D01*
Y12370D01*
Y12324D01*
X20633Y12278D01*
X20587D01*
X20541Y12324D01*
Y12415D01*
X20587Y12461D01*
X22352Y14360D02*
Y14452D01*
X22306Y14498D01*
X22123D01*
X22077Y14452D01*
Y14360D01*
X22123Y14314D01*
X22306D01*
X22352Y14360D01*
X22077Y14223D02*
X22352D01*
X22077Y14039D01*
X22352D01*
X20541Y13301D02*
Y13485D01*
X20725Y13301D01*
X20771D01*
X20817Y13347D01*
Y13439D01*
X20771Y13485D01*
X20541Y14380D02*
Y14288D01*
Y14334D01*
X20817D01*
X20771Y14380D01*
X10190Y17284D02*
X10466D01*
X10328Y17421D01*
Y17238D01*
X10190Y17146D02*
X10466D01*
Y17008D01*
X10420Y16962D01*
X10328D01*
X10282Y17008D01*
Y17146D01*
X10466Y16870D02*
Y16687D01*
Y16778D01*
X10190D01*
X10466Y16595D02*
X10190D01*
Y16457D01*
X10236Y16411D01*
X10282D01*
X10328Y16457D01*
Y16595D01*
Y16457D01*
X10374Y16411D01*
X10420D01*
X10466Y16457D01*
Y16595D01*
X11909Y18780D02*
Y18688D01*
Y18734D01*
X12185D01*
X12139Y18780D01*
X11909Y17346D02*
Y17530D01*
X12093Y17346D01*
X12139D01*
X12185Y17392D01*
Y17484D01*
X12139Y17530D01*
Y16030D02*
X12185Y15984D01*
Y15892D01*
X12139Y15846D01*
X12093D01*
X12047Y15892D01*
Y15938D01*
Y15892D01*
X12001Y15846D01*
X11955D01*
X11909Y15892D01*
Y15984D01*
X11955Y16030D01*
X11959Y14542D02*
X12235D01*
X12097Y14680D01*
Y14496D01*
D53*
X15482Y15768D02*
X15728D01*
X15482D02*
Y16014D01*
Y17608D02*
Y17854D01*
X15728D01*
X17323D02*
X17569D01*
Y17608D02*
Y17854D01*
X17323Y15768D02*
X17569D01*
Y16014D01*
X18878Y15305D02*
Y15541D01*
X18209Y15305D02*
Y15541D01*
X10354Y20491D02*
Y21466D01*
X10906D01*
Y20441D02*
Y21466D01*
Y20192D02*
Y20441D01*
X10354Y20266D02*
X10906D01*
X10354Y20192D02*
Y20491D01*
Y20192D02*
X10430Y20116D01*
X10830D02*
X10906Y20192D01*
X10430Y20116D02*
X10830D01*
X10355Y20191D02*
X10430Y20116D01*
X10355Y20191D02*
X10905D01*
X10354Y12223D02*
Y13198D01*
X10906D01*
Y12173D02*
Y13198D01*
Y11924D02*
Y12173D01*
X10354Y11998D02*
X10906D01*
X10354Y11924D02*
Y12223D01*
Y11924D02*
X10430Y11848D01*
X10830D02*
X10906Y11924D01*
X10430Y11848D02*
X10830D01*
X10355Y11923D02*
X10430Y11848D01*
X10355Y11923D02*
X10905D01*
X10440Y11712D02*
X10177D01*
Y11516D01*
X10308Y11581D01*
X10374D01*
X10440Y11516D01*
Y11384D01*
X10374Y11319D01*
X10243D01*
X10177Y11384D01*
X10571Y11712D02*
Y11450D01*
X10702Y11319D01*
X10833Y11450D01*
Y11712D01*
X10642Y21780D02*
X10380D01*
X10642Y22042D01*
Y22108D01*
X10577Y22174D01*
X10446D01*
X10380Y22108D01*
X10970Y21780D02*
Y22174D01*
X10774Y21977D01*
X11036D01*
X11167Y22174D02*
Y21911D01*
X11298Y21780D01*
X11430Y21911D01*
Y22174D01*
X10443Y23364D02*
Y23757D01*
X10640D01*
X10706Y23692D01*
Y23560D01*
X10640Y23495D01*
X10443D01*
X10574D02*
X10706Y23364D01*
X10837D02*
X10968D01*
X10902D01*
Y23757D01*
X10837Y23692D01*
X11165Y23429D02*
X11230Y23364D01*
X11361D01*
X11427Y23429D01*
Y23692D01*
X11361Y23757D01*
X11230D01*
X11165Y23692D01*
Y23626D01*
X11230Y23560D01*
X11427D01*
X12795Y10020D02*
Y10413D01*
X12992D01*
X13058Y10348D01*
Y10216D01*
X12992Y10151D01*
X12795D01*
X12926D02*
X13058Y10020D01*
X13451D02*
X13189D01*
X13451Y10282D01*
Y10348D01*
X13386Y10413D01*
X13254D01*
X13189Y10348D01*
X13582D02*
X13648Y10413D01*
X13779D01*
X13845Y10348D01*
Y10085D01*
X13779Y10020D01*
X13648D01*
X13582Y10085D01*
Y10348D01*
X15591Y20541D02*
X15853D01*
X15984Y20344D02*
X16181Y20541D01*
X15984Y20738D01*
X16706Y20344D02*
Y20738D01*
X16837Y20607D01*
X16968Y20738D01*
Y20344D01*
X17165D02*
X17296D01*
X17362Y20410D01*
Y20541D01*
X17296Y20607D01*
X17165D01*
X17099Y20541D01*
Y20410D01*
X17165Y20344D01*
X17558Y20672D02*
Y20607D01*
X17493D01*
X17624D01*
X17558D01*
Y20410D01*
X17624Y20344D01*
X17886D02*
X18018D01*
X18083Y20410D01*
Y20541D01*
X18018Y20607D01*
X17886D01*
X17821Y20541D01*
Y20410D01*
X17886Y20344D01*
X18214Y20607D02*
Y20344D01*
Y20476D01*
X18280Y20541D01*
X18346Y20607D01*
X18411D01*
X19002Y20738D02*
X19133D01*
X19067D01*
Y20344D01*
X19002D01*
X19133D01*
X20531Y11358D02*
X20794D01*
X20925Y11161D02*
X21122Y11358D01*
X20925Y11555D01*
X21843D02*
X21712D01*
X21647Y11489D01*
Y11227D01*
X21712Y11161D01*
X21843D01*
X21909Y11227D01*
Y11489D01*
X21843Y11555D01*
X22040Y11161D02*
Y11424D01*
X22237D01*
X22303Y11358D01*
Y11161D01*
X23760Y13140D02*
Y13533D01*
X23891Y13402D01*
X24022Y13533D01*
Y13140D01*
X24416Y13468D02*
X24350Y13533D01*
X24219D01*
X24153Y13468D01*
Y13402D01*
X24219Y13337D01*
X24350D01*
X24416Y13271D01*
Y13205D01*
X24350Y13140D01*
X24219D01*
X24153Y13205D01*
X24809Y13140D02*
X24547D01*
X24809Y13402D01*
Y13468D01*
X24744Y13533D01*
X24613D01*
X24547Y13468D01*
X23720Y14183D02*
Y14577D01*
X23852Y14445D01*
X23983Y14577D01*
Y14183D01*
X24376Y14511D02*
X24311Y14577D01*
X24180D01*
X24114Y14511D01*
Y14445D01*
X24180Y14380D01*
X24311D01*
X24376Y14314D01*
Y14249D01*
X24311Y14183D01*
X24180D01*
X24114Y14249D01*
X24508Y14183D02*
X24639D01*
X24573D01*
Y14577D01*
X24508Y14511D01*
X25272Y12316D02*
X25207Y12382D01*
X25075D01*
X25010Y12316D01*
Y12251D01*
X25075Y12185D01*
X25207D01*
X25272Y12119D01*
Y12054D01*
X25207Y11988D01*
X25075D01*
X25010Y12054D01*
X25403Y11988D02*
Y12382D01*
X25600D01*
X25666Y12316D01*
Y12185D01*
X25600Y12119D01*
X25403D01*
X25797Y11988D02*
Y12382D01*
X25994D01*
X26059Y12316D01*
Y12185D01*
X25994Y12119D01*
X25797D01*
X25928D02*
X26059Y11988D01*
X26191Y12382D02*
Y11988D01*
X26387D01*
X26453Y12054D01*
Y12316D01*
X26387Y12382D01*
X26191D01*
M02*
