G04*
G04 #@! TF.GenerationSoftware,Altium Limited,CircuitMaker,2.0.3 (51)*
G04*
G04 Layer_Color=2752767*
%FSLAX24Y24*%
%MOIN*%
G70*
G04*
G04 #@! TF.SameCoordinates,3954AB4D-5D0B-4665-A105-1F8CE3EC6163*
G04*
G04*
G04 #@! TF.FilePolarity,Positive*
G04*
G01*
G75*
%ADD111C,0.0020*%
%ADD112C,0.0027*%
%ADD113C,0.0013*%
D111*
X11849Y30353D02*
Y30513D01*
X12009D01*
Y30353D01*
X11849D01*
Y32322D02*
Y32482D01*
X12009D01*
Y32322D01*
X11849D01*
X37322Y32558D02*
Y32718D01*
X37482D01*
Y32558D01*
X37322D01*
Y30589D02*
Y30749D01*
X37482D01*
Y30589D01*
X37322D01*
X11780Y16790D02*
X11700Y16950D01*
X11860D01*
X11780Y16790D01*
Y21318D02*
X11700Y21478D01*
X11860D01*
X11780Y21318D01*
X20709Y24694D02*
X20749Y24734D01*
X20789D01*
X20749Y24774D01*
X20789Y24814D01*
X20749D01*
X20709Y24854D01*
X20669Y24814D01*
X20629D01*
X20669Y24774D01*
X20629Y24734D01*
X20669D01*
X20709Y24694D01*
X16374Y31102D02*
X16414Y31182D01*
X16374Y31262D01*
X16454Y31222D01*
X16534Y31262D01*
X16494Y31182D01*
X16534Y31102D01*
X16454Y31142D01*
X16374Y31102D01*
Y32102D02*
X16414Y32182D01*
X16374Y32262D01*
X16454Y32222D01*
X16534Y32262D01*
X16494Y32182D01*
X16534Y32102D01*
X16454Y32142D01*
X16374Y32102D01*
Y33102D02*
X16414Y33182D01*
X16374Y33262D01*
X16454Y33222D01*
X16534Y33262D01*
X16494Y33182D01*
X16534Y33102D01*
X16454Y33142D01*
X16374Y33102D01*
Y34102D02*
X16414Y34182D01*
X16374Y34262D01*
X16454Y34222D01*
X16534Y34262D01*
X16494Y34182D01*
X16534Y34102D01*
X16454Y34142D01*
X16374Y34102D01*
Y35102D02*
X16414Y35182D01*
X16374Y35262D01*
X16454Y35222D01*
X16534Y35262D01*
X16494Y35182D01*
X16534Y35102D01*
X16454Y35142D01*
X16374Y35102D01*
Y36102D02*
X16414Y36182D01*
X16374Y36262D01*
X16454Y36222D01*
X16534Y36262D01*
X16494Y36182D01*
X16534Y36102D01*
X16454Y36142D01*
X16374Y36102D01*
Y37102D02*
X16414Y37182D01*
X16374Y37262D01*
X16454Y37222D01*
X16534Y37262D01*
X16494Y37182D01*
X16534Y37102D01*
X16454Y37142D01*
X16374Y37102D01*
Y38102D02*
X16414Y38182D01*
X16374Y38262D01*
X16454Y38222D01*
X16534Y38262D01*
X16494Y38182D01*
X16534Y38102D01*
X16454Y38142D01*
X16374Y38102D01*
Y39102D02*
X16414Y39182D01*
X16374Y39262D01*
X16454Y39222D01*
X16534Y39262D01*
X16494Y39182D01*
X16534Y39102D01*
X16454Y39142D01*
X16374Y39102D01*
Y40102D02*
X16414Y40182D01*
X16374Y40262D01*
X16454Y40222D01*
X16534Y40262D01*
X16494Y40182D01*
X16534Y40102D01*
X16454Y40142D01*
X16374Y40102D01*
Y41102D02*
X16414Y41182D01*
X16374Y41262D01*
X16454Y41222D01*
X16534Y41262D01*
X16494Y41182D01*
X16534Y41102D01*
X16454Y41142D01*
X16374Y41102D01*
Y42102D02*
X16414Y42182D01*
X16374Y42262D01*
X16454Y42222D01*
X16534Y42262D01*
X16494Y42182D01*
X16534Y42102D01*
X16454Y42142D01*
X16374Y42102D01*
Y43102D02*
X16414Y43182D01*
X16374Y43262D01*
X16454Y43222D01*
X16534Y43262D01*
X16494Y43182D01*
X16534Y43102D01*
X16454Y43142D01*
X16374Y43102D01*
Y45102D02*
X16414Y45182D01*
X16374Y45262D01*
X16454Y45222D01*
X16534Y45262D01*
X16494Y45182D01*
X16534Y45102D01*
X16454Y45142D01*
X16374Y45102D01*
X26374Y31102D02*
X26414Y31182D01*
X26374Y31262D01*
X26454Y31222D01*
X26534Y31262D01*
X26494Y31182D01*
X26534Y31102D01*
X26454Y31142D01*
X26374Y31102D01*
Y32102D02*
X26414Y32182D01*
X26374Y32262D01*
X26454Y32222D01*
X26534Y32262D01*
X26494Y32182D01*
X26534Y32102D01*
X26454Y32142D01*
X26374Y32102D01*
Y33102D02*
X26414Y33182D01*
X26374Y33262D01*
X26454Y33222D01*
X26534Y33262D01*
X26494Y33182D01*
X26534Y33102D01*
X26454Y33142D01*
X26374Y33102D01*
Y34102D02*
X26414Y34182D01*
X26374Y34262D01*
X26454Y34222D01*
X26534Y34262D01*
X26494Y34182D01*
X26534Y34102D01*
X26454Y34142D01*
X26374Y34102D01*
Y35102D02*
X26414Y35182D01*
X26374Y35262D01*
X26454Y35222D01*
X26534Y35262D01*
X26494Y35182D01*
X26534Y35102D01*
X26454Y35142D01*
X26374Y35102D01*
Y36102D02*
X26414Y36182D01*
X26374Y36262D01*
X26454Y36222D01*
X26534Y36262D01*
X26494Y36182D01*
X26534Y36102D01*
X26454Y36142D01*
X26374Y36102D01*
Y37102D02*
X26414Y37182D01*
X26374Y37262D01*
X26454Y37222D01*
X26534Y37262D01*
X26494Y37182D01*
X26534Y37102D01*
X26454Y37142D01*
X26374Y37102D01*
Y38102D02*
X26414Y38182D01*
X26374Y38262D01*
X26454Y38222D01*
X26534Y38262D01*
X26494Y38182D01*
X26534Y38102D01*
X26454Y38142D01*
X26374Y38102D01*
Y39102D02*
X26414Y39182D01*
X26374Y39262D01*
X26454Y39222D01*
X26534Y39262D01*
X26494Y39182D01*
X26534Y39102D01*
X26454Y39142D01*
X26374Y39102D01*
Y40102D02*
X26414Y40182D01*
X26374Y40262D01*
X26454Y40222D01*
X26534Y40262D01*
X26494Y40182D01*
X26534Y40102D01*
X26454Y40142D01*
X26374Y40102D01*
Y41102D02*
X26414Y41182D01*
X26374Y41262D01*
X26454Y41222D01*
X26534Y41262D01*
X26494Y41182D01*
X26534Y41102D01*
X26454Y41142D01*
X26374Y41102D01*
Y42102D02*
X26414Y42182D01*
X26374Y42262D01*
X26454Y42222D01*
X26534Y42262D01*
X26494Y42182D01*
X26534Y42102D01*
X26454Y42142D01*
X26374Y42102D01*
Y43102D02*
X26414Y43182D01*
X26374Y43262D01*
X26454Y43222D01*
X26534Y43262D01*
X26494Y43182D01*
X26534Y43102D01*
X26454Y43142D01*
X26374Y43102D01*
Y44102D02*
X26414Y44182D01*
X26374Y44262D01*
X26454Y44222D01*
X26534Y44262D01*
X26494Y44182D01*
X26534Y44102D01*
X26454Y44142D01*
X26374Y44102D01*
Y45102D02*
X26414Y45182D01*
X26374Y45262D01*
X26454Y45222D01*
X26534Y45262D01*
X26494Y45182D01*
X26534Y45102D01*
X26454Y45142D01*
X26374Y45102D01*
X16374Y44102D02*
X16414Y44182D01*
X16374Y44262D01*
X16454Y44222D01*
X16534Y44262D01*
X16494Y44182D01*
X16534Y44102D01*
X16454Y44142D01*
X16374Y44102D01*
X16816Y48095D02*
Y48055D01*
X16896D01*
Y48095D01*
X16936D01*
Y48175D01*
X16896D01*
Y48215D01*
X16816D01*
Y48175D01*
X16776D01*
Y48095D01*
X16816D01*
X26012D02*
Y48055D01*
X26092D01*
Y48095D01*
X26132D01*
Y48175D01*
X26092D01*
Y48215D01*
X26012D01*
Y48175D01*
X25972D01*
Y48095D01*
X26012D01*
Y29764D02*
Y29724D01*
X26092D01*
Y29764D01*
X26132D01*
Y29844D01*
X26092D01*
Y29884D01*
X26012D01*
Y29844D01*
X25972D01*
Y29764D01*
X26012D01*
X16816D02*
Y29724D01*
X16896D01*
Y29764D01*
X16936D01*
Y29844D01*
X16896D01*
Y29884D01*
X16816D01*
Y29844D01*
X16776D01*
Y29764D01*
X16816D01*
X31927Y39581D02*
X31967D01*
X32007Y39621D01*
X32047Y39581D01*
X32087D01*
Y39621D01*
X32047Y39661D01*
X32087Y39701D01*
Y39741D01*
X32047D01*
X32007Y39701D01*
X31967Y39741D01*
X31927D01*
Y39701D01*
X31967Y39661D01*
X31927Y39621D01*
Y39581D01*
X33897Y39566D02*
X33937D01*
X33977Y39606D01*
X34017Y39566D01*
X34057D01*
Y39606D01*
X34017Y39646D01*
X34057Y39686D01*
Y39726D01*
X34017D01*
X33977Y39686D01*
X33937Y39726D01*
X33897D01*
Y39686D01*
X33937Y39646D01*
X33897Y39606D01*
Y39566D01*
X28226Y39581D02*
X28266D01*
X28306Y39621D01*
X28346Y39581D01*
X28386D01*
Y39621D01*
X28346Y39661D01*
X28386Y39701D01*
Y39741D01*
X28346D01*
X28306Y39701D01*
X28266Y39741D01*
X28226D01*
Y39701D01*
X28266Y39661D01*
X28226Y39621D01*
Y39581D01*
X30196Y39566D02*
X30236D01*
X30276Y39606D01*
X30316Y39566D01*
X30356D01*
Y39606D01*
X30316Y39646D01*
X30356Y39686D01*
Y39726D01*
X30316D01*
X30276Y39686D01*
X30236Y39726D01*
X30196D01*
Y39686D01*
X30236Y39646D01*
X30196Y39606D01*
Y39566D01*
X21804Y36632D02*
X21884Y36712D01*
X21964Y36632D01*
X21884Y36552D01*
X21804Y36632D01*
X20747Y46790D02*
Y46950D01*
X20907D01*
Y46790D01*
X20747D01*
X20787Y46830D02*
Y46910D01*
X20867D01*
Y46830D01*
X20787D01*
X22479Y46790D02*
Y46950D01*
X22639D01*
Y46790D01*
X22479D01*
X22519Y46830D02*
Y46910D01*
X22599D01*
Y46830D01*
X22519D01*
X11692Y37125D02*
Y37285D01*
X11852D01*
Y37125D01*
X11692D01*
Y35156D02*
Y35316D01*
X11852D01*
Y35156D01*
X11692D01*
X11731Y41967D02*
Y42127D01*
X11891D01*
Y41967D01*
X11731D01*
Y39999D02*
Y40159D01*
X11891D01*
Y39999D01*
X11731D01*
X37322Y35471D02*
Y35631D01*
X37482D01*
Y35471D01*
X37322D01*
Y37440D02*
Y37600D01*
X37482D01*
Y37440D01*
X37322D01*
Y40392D02*
Y40552D01*
X37482D01*
Y40392D01*
X37322D01*
Y42361D02*
Y42521D01*
X37482D01*
Y42361D01*
X37322D01*
X37748Y23483D02*
X37668Y23643D01*
X37828D01*
X37748Y23483D01*
Y28011D02*
X37668Y28171D01*
X37828D01*
X37748Y28011D01*
X37669Y16869D02*
X37589Y17029D01*
X37749D01*
X37669Y16869D01*
Y21396D02*
X37589Y21556D01*
X37749D01*
X37669Y21396D01*
X29035Y11463D02*
X28955Y11623D01*
X29115D01*
X29035Y11463D01*
X33563D02*
X33483Y11623D01*
X33643D01*
X33563Y11463D01*
X22461D02*
X22381Y11623D01*
X22541D01*
X22461Y11463D01*
X26988D02*
X26908Y11623D01*
X27068D01*
X26988Y11463D01*
X15807Y11424D02*
X15727Y11584D01*
X15887D01*
X15807Y11424D01*
X20335D02*
X20255Y11584D01*
X20415D01*
X20335Y11424D01*
X11534Y24133D02*
Y24293D01*
X11694D01*
Y24133D01*
X11534D01*
Y26101D02*
Y26261D01*
X11694D01*
Y26101D01*
X11534D01*
X11850Y45668D02*
X11770Y45828D01*
X11930D01*
X11850Y45668D01*
Y45708D02*
X11810Y45788D01*
X11890D01*
X11850Y45708D01*
X22008Y44999D02*
X21928Y45159D01*
X22088D01*
X22008Y44999D01*
Y45039D02*
X21968Y45119D01*
X22048D01*
X22008Y45039D01*
X21693Y44999D02*
X21613Y45159D01*
X21773D01*
X21693Y44999D01*
Y45039D02*
X21653Y45119D01*
X21733D01*
X21693Y45039D01*
X23885Y42435D02*
X23805Y42595D01*
X23965D01*
X23885Y42435D01*
Y42475D02*
X23845Y42555D01*
X23925D01*
X23885Y42475D01*
X23583Y45511D02*
X23503Y45671D01*
X23663D01*
X23583Y45511D01*
Y45551D02*
X23543Y45631D01*
X23623D01*
X23583Y45551D01*
X27008Y26664D02*
X27048Y26704D01*
X27088D01*
X27048Y26744D01*
X27088Y26784D01*
X27048D01*
X27008Y26824D01*
X26968Y26784D01*
X26928D01*
X26968Y26744D01*
X26928Y26704D01*
X26968D01*
X27008Y26664D01*
Y26704D02*
X27028Y26724D01*
X27048D01*
X27028Y26744D01*
X27048Y26764D01*
X27028D01*
X27008Y26784D01*
X26988Y26764D01*
X26968D01*
X26988Y26744D01*
X26968Y26724D01*
X26988D01*
X27008Y26704D01*
X17913Y45944D02*
X17833Y46104D01*
X17993D01*
X17913Y45944D01*
Y45984D02*
X17873Y46064D01*
X17953D01*
X17913Y45984D01*
X18110Y42243D02*
X18030Y42403D01*
X18190D01*
X18110Y42243D01*
Y42283D02*
X18070Y42363D01*
X18150D01*
X18110Y42283D01*
X18543Y42243D02*
X18463Y42403D01*
X18623D01*
X18543Y42243D01*
Y42283D02*
X18503Y42363D01*
X18583D01*
X18543Y42283D01*
X18110Y43109D02*
X18030Y43269D01*
X18190D01*
X18110Y43109D01*
Y43149D02*
X18070Y43229D01*
X18150D01*
X18110Y43149D01*
X19488Y43700D02*
X19408Y43860D01*
X19568D01*
X19488Y43700D01*
Y43740D02*
X19448Y43820D01*
X19528D01*
X19488Y43740D01*
X15354Y39251D02*
X15274Y39411D01*
X15434D01*
X15354Y39251D01*
Y39291D02*
X15314Y39371D01*
X15394D01*
X15354Y39291D01*
X15748Y41888D02*
X15668Y42049D01*
X15828D01*
X15748Y41888D01*
Y41929D02*
X15708Y42009D01*
X15788D01*
X15748Y41929D01*
X14882Y41613D02*
X14802Y41773D01*
X14962D01*
X14882Y41613D01*
Y41653D02*
X14842Y41733D01*
X14922D01*
X14882Y41653D01*
X22402Y41888D02*
X22322Y42049D01*
X22482D01*
X22402Y41888D01*
Y41929D02*
X22362Y42009D01*
X22442D01*
X22402Y41929D01*
X20709Y24290D02*
X20749Y24330D01*
X20789D01*
X20749Y24370D01*
X20789Y24410D01*
X20749D01*
X20709Y24450D01*
X20669Y24410D01*
X20629D01*
X20669Y24370D01*
X20629Y24330D01*
X20669D01*
X20709Y24290D01*
Y25097D02*
X20749Y25137D01*
X20789D01*
X20749Y25177D01*
X20789Y25217D01*
X20749D01*
X20709Y25257D01*
X20669Y25217D01*
X20629D01*
X20669Y25177D01*
X20629Y25137D01*
X20669D01*
X20709Y25097D01*
X36298Y28227D02*
X36338Y28307D01*
X36298Y28387D01*
X36378Y28347D01*
X36458Y28387D01*
X36418Y28307D01*
X36458Y28227D01*
X36378Y28267D01*
X36298Y28227D01*
X36338Y28267D02*
X36358Y28307D01*
X36338Y28347D01*
X36378Y28327D01*
X36418Y28347D01*
X36398Y28307D01*
X36418Y28267D01*
X36378Y28287D01*
X36338Y28267D01*
X33030Y30353D02*
X33070Y30433D01*
X33030Y30513D01*
X33110Y30473D01*
X33190Y30513D01*
X33150Y30433D01*
X33190Y30353D01*
X33110Y30393D01*
X33030Y30353D01*
X33070Y30393D02*
X33090Y30433D01*
X33070Y30473D01*
X33110Y30453D01*
X33150Y30473D01*
X33130Y30433D01*
X33150Y30393D01*
X33110Y30413D01*
X33070Y30393D01*
X24840Y32730D02*
X24880Y32810D01*
X24840Y32890D01*
X24920Y32850D01*
X25000Y32890D01*
X24960Y32810D01*
X25000Y32730D01*
X24920Y32770D01*
X24840Y32730D01*
X24880Y32770D02*
X24900Y32810D01*
X24880Y32850D01*
X24920Y32830D01*
X24960Y32850D01*
X24940Y32810D01*
X24960Y32770D01*
X24920Y32790D01*
X24880Y32770D01*
X27600Y22890D02*
X27640Y22970D01*
X27600Y23050D01*
X27680Y23010D01*
X27760Y23050D01*
X27720Y22970D01*
X27760Y22890D01*
X27680Y22930D01*
X27600Y22890D01*
X27640Y22930D02*
X27660Y22970D01*
X27640Y23010D01*
X27680Y22990D01*
X27720Y23010D01*
X27700Y22970D01*
X27720Y22930D01*
X27680Y22950D01*
X27640Y22930D01*
X15970Y22890D02*
X16010Y22970D01*
X15970Y23050D01*
X16050Y23010D01*
X16130Y23050D01*
X16090Y22970D01*
X16130Y22890D01*
X16050Y22930D01*
X15970Y22890D01*
X16010Y22930D02*
X16030Y22970D01*
X16010Y23010D01*
X16050Y22990D01*
X16090Y23010D01*
X16070Y22970D01*
X16090Y22930D01*
X16050Y22950D01*
X16010Y22930D01*
X28250Y19350D02*
X28290Y19430D01*
X28250Y19510D01*
X28330Y19470D01*
X28410Y19510D01*
X28370Y19430D01*
X28410Y19350D01*
X28330Y19390D01*
X28250Y19350D01*
X28290Y19390D02*
X28310Y19430D01*
X28290Y19470D01*
X28330Y19450D01*
X28370Y19470D01*
X28350Y19430D01*
X28370Y19390D01*
X28330Y19410D01*
X28290Y19390D01*
X28250Y21980D02*
X28290Y22060D01*
X28250Y22140D01*
X28330Y22100D01*
X28410Y22140D01*
X28370Y22060D01*
X28410Y21980D01*
X28330Y22020D01*
X28250Y21980D01*
X28290Y22020D02*
X28310Y22060D01*
X28290Y22100D01*
X28330Y22080D01*
X28370Y22100D01*
X28350Y22060D01*
X28370Y22020D01*
X28330Y22040D01*
X28290Y22020D01*
X27830Y22400D02*
X27870Y22480D01*
X27830Y22560D01*
X27910Y22520D01*
X27990Y22560D01*
X27950Y22480D01*
X27990Y22400D01*
X27910Y22440D01*
X27830Y22400D01*
X27870Y22440D02*
X27890Y22480D01*
X27870Y22520D01*
X27910Y22500D01*
X27950Y22520D01*
X27930Y22480D01*
X27950Y22440D01*
X27910Y22460D01*
X27870Y22440D01*
X25860Y21910D02*
X25900Y21990D01*
X25860Y22070D01*
X25940Y22030D01*
X26020Y22070D01*
X25980Y21990D01*
X26020Y21910D01*
X25940Y21950D01*
X25860Y21910D01*
X25900Y21950D02*
X25920Y21990D01*
X25900Y22030D01*
X25940Y22010D01*
X25980Y22030D01*
X25960Y21990D01*
X25980Y21950D01*
X25940Y21970D01*
X25900Y21950D01*
X21980Y18450D02*
X22020Y18530D01*
X21980Y18610D01*
X22060Y18570D01*
X22140Y18610D01*
X22100Y18530D01*
X22140Y18450D01*
X22060Y18490D01*
X21980Y18450D01*
X22020Y18490D02*
X22040Y18530D01*
X22020Y18570D01*
X22060Y18550D01*
X22100Y18570D01*
X22080Y18530D01*
X22100Y18490D01*
X22060Y18510D01*
X22020Y18490D01*
X19670Y20930D02*
X19710Y21010D01*
X19670Y21090D01*
X19750Y21050D01*
X19830Y21090D01*
X19790Y21010D01*
X19830Y20930D01*
X19750Y20970D01*
X19670Y20930D01*
X19710Y20970D02*
X19730Y21010D01*
X19710Y21050D01*
X19750Y21030D01*
X19790Y21050D01*
X19770Y21010D01*
X19790Y20970D01*
X19750Y20990D01*
X19710Y20970D01*
X29014Y40080D02*
X29054Y40160D01*
X29014Y40240D01*
X29094Y40200D01*
X29174Y40240D01*
X29134Y40160D01*
X29174Y40080D01*
X29094Y40120D01*
X29014Y40080D01*
X29054Y40120D02*
X29074Y40160D01*
X29054Y40200D01*
X29094Y40180D01*
X29134Y40200D01*
X29114Y40160D01*
X29134Y40120D01*
X29094Y40140D01*
X29054Y40120D01*
X11771Y11771D02*
Y11731D01*
X11851D01*
Y11771D01*
X11891D01*
Y11851D01*
X11851D01*
Y11891D01*
X11771D01*
Y11851D01*
X11731D01*
Y11771D01*
X11771D01*
X11791Y11791D02*
Y11771D01*
X11831D01*
Y11791D01*
X11851D01*
Y11831D01*
X11831D01*
Y11851D01*
X11791D01*
Y11831D01*
X11771D01*
Y11791D01*
X11791D01*
X37362Y11771D02*
Y11731D01*
X37442D01*
Y11771D01*
X37482D01*
Y11851D01*
X37442D01*
Y11891D01*
X37362D01*
Y11851D01*
X37322D01*
Y11771D01*
X37362D01*
X37382Y11791D02*
Y11771D01*
X37422D01*
Y11791D01*
X37442D01*
Y11831D01*
X37422D01*
Y11851D01*
X37382D01*
Y11831D01*
X37362D01*
Y11791D01*
X37382D01*
X11771Y47204D02*
Y47164D01*
X11851D01*
Y47204D01*
X11891D01*
Y47284D01*
X11851D01*
Y47324D01*
X11771D01*
Y47284D01*
X11731D01*
Y47204D01*
X11771D01*
X11791Y47224D02*
Y47204D01*
X11831D01*
Y47224D01*
X11851D01*
Y47264D01*
X11831D01*
Y47284D01*
X11791D01*
Y47264D01*
X11771D01*
Y47224D01*
X11791D01*
X37362Y47204D02*
Y47164D01*
X37442D01*
Y47204D01*
X37482D01*
Y47284D01*
X37442D01*
Y47324D01*
X37362D01*
Y47284D01*
X37322D01*
Y47204D01*
X37362D01*
X37382Y47224D02*
Y47204D01*
X37422D01*
Y47224D01*
X37442D01*
Y47264D01*
X37422D01*
Y47284D01*
X37382D01*
Y47264D01*
X37362D01*
Y47224D01*
X37382D01*
X22559Y29093D02*
X22479Y29253D01*
X22639D01*
X22559Y29093D01*
Y29133D02*
X22519Y29213D01*
X22599D01*
X22559Y29133D01*
X25157Y24290D02*
X25077Y24450D01*
X25237D01*
X25157Y24290D01*
Y24330D02*
X25117Y24410D01*
X25197D01*
X25157Y24330D01*
X21693Y34133D02*
X21613Y34293D01*
X21773D01*
X21693Y34133D01*
Y34173D02*
X21653Y34253D01*
X21733D01*
X21693Y34173D01*
X22756Y32440D02*
X22676Y32600D01*
X22836D01*
X22756Y32440D01*
Y32480D02*
X22716Y32560D01*
X22796D01*
X22756Y32480D01*
X22244Y33109D02*
X22164Y33269D01*
X22324D01*
X22244Y33109D01*
Y33149D02*
X22204Y33229D01*
X22284D01*
X22244Y33149D01*
X25630Y20904D02*
X25550Y21064D01*
X25710D01*
X25630Y20904D01*
Y20944D02*
X25590Y21024D01*
X25670D01*
X25630Y20944D01*
X29252Y22085D02*
X29172Y22245D01*
X29332D01*
X29252Y22085D01*
Y22125D02*
X29212Y22205D01*
X29292D01*
X29252Y22125D01*
X18150Y40826D02*
X18070Y40986D01*
X18230D01*
X18150Y40826D01*
Y40866D02*
X18110Y40946D01*
X18190D01*
X18150Y40866D01*
X18976Y27715D02*
X18896Y27875D01*
X19056D01*
X18976Y27715D01*
Y27755D02*
X18936Y27835D01*
X19016D01*
X18976Y27755D01*
X12795Y45196D02*
X12715Y45356D01*
X12875D01*
X12795Y45196D01*
Y45236D02*
X12755Y45316D01*
X12835D01*
X12795Y45236D01*
X13504Y45038D02*
X13424Y45198D01*
X13584D01*
X13504Y45038D01*
Y45078D02*
X13464Y45158D01*
X13544D01*
X13504Y45078D01*
X20118Y35235D02*
X20038Y35395D01*
X20198D01*
X20118Y35235D01*
Y35275D02*
X20078Y35355D01*
X20158D01*
X20118Y35275D01*
X20433Y34881D02*
X20353Y35041D01*
X20513D01*
X20433Y34881D01*
Y34921D02*
X20393Y35001D01*
X20473D01*
X20433Y34921D01*
X31063Y34487D02*
X30983Y34647D01*
X31143D01*
X31063Y34487D01*
Y34527D02*
X31023Y34607D01*
X31103D01*
X31063Y34527D01*
X24213Y34526D02*
X24133Y34686D01*
X24293D01*
X24213Y34526D01*
Y34566D02*
X24173Y34646D01*
X24253D01*
X24213Y34566D01*
X23150Y24251D02*
X23070Y24411D01*
X23230D01*
X23150Y24251D01*
Y24291D02*
X23110Y24371D01*
X23190D01*
X23150Y24291D01*
X21693Y29763D02*
X21613Y29923D01*
X21773D01*
X21693Y29763D01*
Y29803D02*
X21653Y29883D01*
X21733D01*
X21693Y29803D01*
X27598Y20983D02*
X27518Y21143D01*
X27678D01*
X27598Y20983D01*
Y21023D02*
X27558Y21103D01*
X27638D01*
X27598Y21023D01*
X20787Y21140D02*
X20707Y21300D01*
X20867D01*
X20787Y21140D01*
Y21180D02*
X20747Y21260D01*
X20827D01*
X20787Y21180D01*
X29016Y24054D02*
X28936Y24214D01*
X29096D01*
X29016Y24054D01*
Y24094D02*
X28976Y24174D01*
X29056D01*
X29016Y24094D01*
X19567Y29251D02*
X19487Y29411D01*
X19647D01*
X19567Y29251D01*
Y29291D02*
X19527Y29371D01*
X19607D01*
X19567Y29291D01*
X28975Y44959D02*
X29015Y45039D01*
X28975Y45119D01*
X29055Y45079D01*
X29135Y45119D01*
X29095Y45039D01*
X29135Y44959D01*
X29055Y44999D01*
X28975Y44959D01*
X29015Y44999D02*
X29035Y45039D01*
X29015Y45079D01*
X29055Y45059D01*
X29095Y45079D01*
X29075Y45039D01*
X29095Y44999D01*
X29055Y45019D01*
X29015Y44999D01*
X28700Y47479D02*
X28740Y47559D01*
X28700Y47639D01*
X28780Y47599D01*
X28860Y47639D01*
X28820Y47559D01*
X28860Y47479D01*
X28780Y47519D01*
X28700Y47479D01*
X28740Y47519D02*
X28760Y47559D01*
X28740Y47599D01*
X28780Y47579D01*
X28820Y47599D01*
X28800Y47559D01*
X28820Y47519D01*
X28780Y47539D01*
X28740Y47519D01*
X29093Y46613D02*
X29133Y46693D01*
X29093Y46773D01*
X29173Y46733D01*
X29253Y46773D01*
X29213Y46693D01*
X29253Y46613D01*
X29173Y46653D01*
X29093Y46613D01*
X29133Y46653D02*
X29153Y46693D01*
X29133Y46733D01*
X29173Y46713D01*
X29213Y46733D01*
X29193Y46693D01*
X29213Y46653D01*
X29173Y46673D01*
X29133Y46653D01*
X30904Y47400D02*
X30944Y47480D01*
X30904Y47560D01*
X30984Y47520D01*
X31064Y47560D01*
X31024Y47480D01*
X31064Y47400D01*
X30984Y47440D01*
X30904Y47400D01*
X30944Y47440D02*
X30964Y47480D01*
X30944Y47520D01*
X30984Y47500D01*
X31024Y47520D01*
X31004Y47480D01*
X31024Y47440D01*
X30984Y47460D01*
X30944Y47440D01*
X28621Y42597D02*
X28661Y42677D01*
X28621Y42757D01*
X28701Y42717D01*
X28781Y42757D01*
X28741Y42677D01*
X28781Y42597D01*
X28701Y42637D01*
X28621Y42597D01*
X28661Y42637D02*
X28681Y42677D01*
X28661Y42717D01*
X28701Y42697D01*
X28741Y42717D01*
X28721Y42677D01*
X28741Y42637D01*
X28701Y42657D01*
X28661Y42637D01*
D112*
X15360Y20384D02*
G03*
X15360Y20384I-80J0D01*
G01*
Y19384D02*
G03*
X15360Y19384I-80J0D01*
G01*
Y17384D02*
G03*
X15360Y17384I-80J0D01*
G01*
Y18384D02*
G03*
X15360Y18384I-80J0D01*
G01*
X14360Y17884D02*
G03*
X14360Y17884I-80J0D01*
G01*
Y18884D02*
G03*
X14360Y18884I-80J0D01*
G01*
Y20884D02*
G03*
X14360Y20884I-80J0D01*
G01*
Y19884D02*
G03*
X14360Y19884I-80J0D01*
G01*
X35328Y25077D02*
G03*
X35328Y25077I-80J0D01*
G01*
Y24077D02*
G03*
X35328Y24077I-80J0D01*
G01*
Y26077D02*
G03*
X35328Y26077I-80J0D01*
G01*
Y27077D02*
G03*
X35328Y27077I-80J0D01*
G01*
X34328Y26577D02*
G03*
X34328Y26577I-80J0D01*
G01*
Y27577D02*
G03*
X34328Y27577I-80J0D01*
G01*
Y25577D02*
G03*
X34328Y25577I-80J0D01*
G01*
Y24577D02*
G03*
X34328Y24577I-80J0D01*
G01*
X35249Y18463D02*
G03*
X35249Y18463I-80J0D01*
G01*
Y17463D02*
G03*
X35249Y17463I-80J0D01*
G01*
Y19463D02*
G03*
X35249Y19463I-80J0D01*
G01*
Y20463D02*
G03*
X35249Y20463I-80J0D01*
G01*
X34249Y19963D02*
G03*
X34249Y19963I-80J0D01*
G01*
Y20963D02*
G03*
X34249Y20963I-80J0D01*
G01*
Y18963D02*
G03*
X34249Y18963I-80J0D01*
G01*
Y17963D02*
G03*
X34249Y17963I-80J0D01*
G01*
X30629Y14043D02*
G03*
X30629Y14043I-80J0D01*
G01*
X29629D02*
G03*
X29629Y14043I-80J0D01*
G01*
X31629D02*
G03*
X31629Y14043I-80J0D01*
G01*
X32629D02*
G03*
X32629Y14043I-80J0D01*
G01*
X32129Y15043D02*
G03*
X32129Y15043I-80J0D01*
G01*
X33129D02*
G03*
X33129Y15043I-80J0D01*
G01*
X31129D02*
G03*
X31129Y15043I-80J0D01*
G01*
X30129D02*
G03*
X30129Y15043I-80J0D01*
G01*
X24054Y14043D02*
G03*
X24054Y14043I-80J0D01*
G01*
X23054D02*
G03*
X23054Y14043I-80J0D01*
G01*
X25054D02*
G03*
X25054Y14043I-80J0D01*
G01*
X26054D02*
G03*
X26054Y14043I-80J0D01*
G01*
X25554Y15043D02*
G03*
X25554Y15043I-80J0D01*
G01*
X26554D02*
G03*
X26554Y15043I-80J0D01*
G01*
X24554D02*
G03*
X24554Y15043I-80J0D01*
G01*
X23554D02*
G03*
X23554Y15043I-80J0D01*
G01*
X17401Y14004D02*
G03*
X17401Y14004I-80J0D01*
G01*
X16401D02*
G03*
X16401Y14004I-80J0D01*
G01*
X18401D02*
G03*
X18401Y14004I-80J0D01*
G01*
X19401D02*
G03*
X19401Y14004I-80J0D01*
G01*
X18901Y15004D02*
G03*
X18901Y15004I-80J0D01*
G01*
X19901D02*
G03*
X19901Y15004I-80J0D01*
G01*
X17901D02*
G03*
X17901Y15004I-80J0D01*
G01*
X16901D02*
G03*
X16901Y15004I-80J0D01*
G01*
X29608Y27783D02*
G03*
X29608Y27783I-80J0D01*
G01*
Y26783D02*
G03*
X29608Y26783I-80J0D01*
G01*
X30619Y29764D02*
G03*
X30619Y29764I-80J0D01*
G01*
X29619D02*
G03*
X29619Y29764I-80J0D01*
G01*
D113*
X29568Y27783D02*
G03*
X29568Y27783I-40J0D01*
G01*
Y26783D02*
G03*
X29568Y26783I-40J0D01*
G01*
X30579Y29764D02*
G03*
X30579Y29764I-40J0D01*
G01*
X29579D02*
G03*
X29579Y29764I-40J0D01*
G01*
M02*
