G04*
G04 #@! TF.GenerationSoftware,Altium Limited,CircuitMaker,2.0.3 (51)*
G04*
G04 Layer_Physical_Order=2*
G04 Layer_Color=11436288*
%FSLAX24Y24*%
%MOIN*%
G70*
G04*
G04 #@! TF.SameCoordinates,3954AB4D-5D0B-4665-A105-1F8CE3EC6163*
G04*
G04*
G04 #@! TF.FilePolarity,Positive*
G04*
G01*
G75*
%ADD10C,0.0098*%
%ADD11C,0.0100*%
%ADD41C,0.0600*%
%ADD53R,0.0531X0.0610*%
%ADD62R,0.0610X0.0531*%
%ADD69R,0.0453X0.0709*%
%ADD71C,0.0197*%
%ADD72C,0.0394*%
%ADD73C,0.0906*%
%ADD74O,0.0866X0.0472*%
%ADD75C,0.1457*%
G04:AMPARAMS|DCode=76|XSize=27.6mil|YSize=114.2mil|CornerRadius=6.9mil|HoleSize=0mil|Usage=FLASHONLY|Rotation=0.000|XOffset=0mil|YOffset=0mil|HoleType=Round|Shape=RoundedRectangle|*
%AMROUNDEDRECTD76*
21,1,0.0276,0.1004,0,0,0.0*
21,1,0.0138,0.1142,0,0,0.0*
1,1,0.0138,0.0069,-0.0502*
1,1,0.0138,-0.0069,-0.0502*
1,1,0.0138,-0.0069,0.0502*
1,1,0.0138,0.0069,0.0502*
%
%ADD76ROUNDEDRECTD76*%
G04:AMPARAMS|DCode=77|XSize=60mil|YSize=90mil|CornerRadius=15mil|HoleSize=0mil|Usage=FLASHONLY|Rotation=270.000|XOffset=0mil|YOffset=0mil|HoleType=Round|Shape=RoundedRectangle|*
%AMROUNDEDRECTD77*
21,1,0.0600,0.0600,0,0,270.0*
21,1,0.0300,0.0900,0,0,270.0*
1,1,0.0300,-0.0300,-0.0150*
1,1,0.0300,-0.0300,0.0150*
1,1,0.0300,0.0300,0.0150*
1,1,0.0300,0.0300,-0.0150*
%
%ADD77ROUNDEDRECTD77*%
%ADD78C,0.0787*%
%ADD79C,0.1000*%
%ADD80C,0.0354*%
%ADD81O,0.0472X0.0866*%
%ADD82C,0.0240*%
%ADD83C,0.0500*%
%ADD84C,0.0236*%
%ADD85C,0.0256*%
%ADD86C,0.1378*%
%ADD87R,0.0354X0.0669*%
%ADD88R,0.0354X0.0630*%
%ADD89R,0.1280X0.1280*%
%ADD90R,0.0354X0.0098*%
%ADD91R,0.0098X0.0354*%
%ADD92R,0.0358X0.0480*%
G04:AMPARAMS|DCode=93|XSize=25.6mil|YSize=11.8mil|CornerRadius=3mil|HoleSize=0mil|Usage=FLASHONLY|Rotation=0.000|XOffset=0mil|YOffset=0mil|HoleType=Round|Shape=RoundedRectangle|*
%AMROUNDEDRECTD93*
21,1,0.0256,0.0059,0,0,0.0*
21,1,0.0197,0.0118,0,0,0.0*
1,1,0.0059,0.0098,-0.0030*
1,1,0.0059,-0.0098,-0.0030*
1,1,0.0059,-0.0098,0.0030*
1,1,0.0059,0.0098,0.0030*
%
%ADD93ROUNDEDRECTD93*%
%ADD94R,0.0394X0.0669*%
%ADD95R,0.0669X0.0394*%
%ADD96C,0.0063*%
%ADD97R,0.0630X0.0433*%
%ADD98R,0.0591X0.0394*%
%ADD99R,0.0748X0.0354*%
G36*
X38780Y49140D02*
D01*
X38829Y49135D01*
X38914Y49123D01*
X39039Y49072D01*
X39147Y48989D01*
X39229Y48882D01*
X39281Y48756D01*
X39292Y48670D01*
X39298Y48622D01*
X39298Y48622D01*
X39298Y48572D01*
Y10483D01*
X39298Y10433D01*
X39292Y10385D01*
X39281Y10299D01*
X39229Y10174D01*
X39147Y10066D01*
X39039Y9984D01*
X38914Y9932D01*
X38827Y9920D01*
X38780Y9915D01*
X38730Y9915D01*
X38730Y9915D01*
X10483D01*
X10433Y9915D01*
X10385Y9920D01*
X10299Y9932D01*
X10174Y9984D01*
X10066Y10066D01*
X9984Y10174D01*
X9932Y10299D01*
X9920Y10385D01*
X9915Y10433D01*
X9915Y10483D01*
X9915Y10483D01*
Y48573D01*
X9915Y48622D01*
X9920Y48670D01*
X9932Y48756D01*
X9984Y48882D01*
X10066Y48989D01*
X10174Y49072D01*
X10299Y49123D01*
X10385Y49135D01*
X10433Y49140D01*
X10483Y49140D01*
X38730D01*
X38780Y49140D01*
D02*
G37*
%LPC*%
G36*
X26052Y48779D02*
X25927Y48767D01*
X25806Y48730D01*
X25694Y48671D01*
X25596Y48591D01*
X25516Y48493D01*
X25457Y48381D01*
X25420Y48260D01*
X25408Y48135D01*
X25420Y48009D01*
X25457Y47888D01*
X25516Y47776D01*
X25596Y47679D01*
X25694Y47598D01*
X25806Y47539D01*
X25927Y47502D01*
X26052Y47490D01*
X26178Y47502D01*
X26299Y47539D01*
X26411Y47598D01*
X26508Y47679D01*
X26589Y47776D01*
X26648Y47888D01*
X26685Y48009D01*
X26697Y48135D01*
X26685Y48260D01*
X26648Y48381D01*
X26589Y48493D01*
X26508Y48591D01*
X26411Y48671D01*
X26299Y48730D01*
X26178Y48767D01*
X26052Y48779D01*
D02*
G37*
G36*
X16856D02*
X16730Y48767D01*
X16609Y48730D01*
X16497Y48671D01*
X16400Y48591D01*
X16319Y48493D01*
X16260Y48381D01*
X16223Y48260D01*
X16211Y48135D01*
X16223Y48009D01*
X16260Y47888D01*
X16319Y47776D01*
X16400Y47679D01*
X16497Y47598D01*
X16609Y47539D01*
X16730Y47502D01*
X16856Y47490D01*
X16981Y47502D01*
X17102Y47539D01*
X17214Y47598D01*
X17311Y47679D01*
X17392Y47776D01*
X17451Y47888D01*
X17488Y48009D01*
X17500Y48135D01*
X17488Y48260D01*
X17451Y48381D01*
X17392Y48493D01*
X17311Y48591D01*
X17214Y48671D01*
X17102Y48730D01*
X16981Y48767D01*
X16856Y48779D01*
D02*
G37*
G36*
X30984Y47663D02*
X30914Y47649D01*
X30855Y47609D01*
X30816Y47550D01*
X30802Y47480D01*
X30808Y47449D01*
X30154Y46795D01*
X29320D01*
X29302Y46822D01*
X29243Y46862D01*
X29173Y46876D01*
X29103Y46862D01*
X29044Y46822D01*
X29004Y46763D01*
X28991Y46693D01*
X29004Y46623D01*
X29044Y46564D01*
X29103Y46524D01*
X29173Y46510D01*
X29243Y46524D01*
X29302Y46564D01*
X29320Y46591D01*
X30197D01*
X30236Y46598D01*
X30269Y46621D01*
X30953Y47304D01*
X30984Y47298D01*
X31054Y47312D01*
X31113Y47351D01*
X31153Y47410D01*
X31167Y47480D01*
X31153Y47550D01*
X31113Y47609D01*
X31054Y47649D01*
X30984Y47663D01*
D02*
G37*
G36*
X22559Y47140D02*
X22489Y47131D01*
X22424Y47104D01*
X22368Y47061D01*
X22325Y47005D01*
X22298Y46940D01*
X22289Y46870D01*
X22298Y46800D01*
X22325Y46735D01*
X22368Y46679D01*
X22424Y46636D01*
X22489Y46609D01*
X22559Y46600D01*
X22629Y46609D01*
X22694Y46636D01*
X22750Y46679D01*
X22793Y46735D01*
X22820Y46800D01*
X22829Y46870D01*
X22820Y46940D01*
X22793Y47005D01*
X22750Y47061D01*
X22694Y47104D01*
X22629Y47131D01*
X22559Y47140D01*
D02*
G37*
G36*
X20827D02*
X20757Y47131D01*
X20692Y47104D01*
X20636Y47061D01*
X20593Y47005D01*
X20566Y46940D01*
X20557Y46870D01*
X20566Y46800D01*
X20593Y46735D01*
X20636Y46679D01*
X20692Y46636D01*
X20757Y46609D01*
X20827Y46600D01*
X20897Y46609D01*
X20962Y46636D01*
X21018Y46679D01*
X21061Y46735D01*
X21088Y46800D01*
X21097Y46870D01*
X21088Y46940D01*
X21061Y47005D01*
X21018Y47061D01*
X20962Y47104D01*
X20897Y47131D01*
X20827Y47140D01*
D02*
G37*
G36*
X37402Y48530D02*
X37200Y48515D01*
X37004Y48467D01*
X36818Y48390D01*
X36646Y48285D01*
X36492Y48154D01*
X36361Y48000D01*
X36256Y47828D01*
X36178Y47642D01*
X36131Y47445D01*
X36115Y47244D01*
X36131Y47043D01*
X36178Y46847D01*
X36256Y46660D01*
X36361Y46488D01*
X36492Y46335D01*
X36646Y46203D01*
X36818Y46098D01*
X37004Y46021D01*
X37200Y45974D01*
X37402Y45958D01*
X37603Y45974D01*
X37799Y46021D01*
X37986Y46098D01*
X38158Y46203D01*
X38311Y46335D01*
X38442Y46488D01*
X38548Y46660D01*
X38625Y46847D01*
X38672Y47043D01*
X38688Y47244D01*
X38672Y47445D01*
X38625Y47642D01*
X38548Y47828D01*
X38442Y48000D01*
X38311Y48154D01*
X38158Y48285D01*
X37986Y48390D01*
X37799Y48467D01*
X37603Y48515D01*
X37402Y48530D01*
D02*
G37*
G36*
X15986Y46429D02*
X15431D01*
Y45618D01*
X15986D01*
Y45921D01*
X17776D01*
X17790Y45900D01*
X17847Y45862D01*
X17913Y45849D01*
X17980Y45862D01*
X18037Y45900D01*
X18075Y45957D01*
X18088Y46024D01*
X18075Y46090D01*
X18037Y46147D01*
X17980Y46185D01*
X17913Y46198D01*
X17847Y46185D01*
X17790Y46147D01*
X17776Y46126D01*
X15986D01*
Y46429D01*
D02*
G37*
G36*
X11811Y48530D02*
X11610Y48515D01*
X11414Y48467D01*
X11227Y48390D01*
X11055Y48285D01*
X10901Y48154D01*
X10770Y48000D01*
X10665Y47828D01*
X10588Y47642D01*
X10541Y47445D01*
X10525Y47244D01*
X10541Y47043D01*
X10588Y46847D01*
X10665Y46660D01*
X10770Y46488D01*
X10901Y46335D01*
X11055Y46203D01*
X11227Y46098D01*
X11414Y46021D01*
X11610Y45974D01*
X11782Y45960D01*
X11785Y45910D01*
X11784Y45909D01*
X11727Y45872D01*
X11689Y45815D01*
X11676Y45748D01*
X11689Y45681D01*
X11727Y45625D01*
X11784Y45587D01*
X11850Y45573D01*
X11917Y45587D01*
X11974Y45625D01*
X11988Y45646D01*
X12871D01*
X12929Y45588D01*
Y45452D01*
X12879Y45426D01*
X12862Y45437D01*
X12795Y45450D01*
X12728Y45437D01*
X12672Y45399D01*
X12634Y45342D01*
X12621Y45276D01*
X12634Y45209D01*
X12672Y45152D01*
X12693Y45138D01*
Y42638D01*
X12701Y42599D01*
X12723Y42565D01*
X15715Y39573D01*
X15748Y39551D01*
X15787Y39543D01*
X16018D01*
X16033Y39493D01*
X16009Y39477D01*
X15964Y39410D01*
X15949Y39332D01*
Y39032D01*
X15964Y38953D01*
X16009Y38887D01*
X16075Y38842D01*
X16154Y38827D01*
X16664D01*
X17339Y38152D01*
Y36535D01*
X17346Y36496D01*
X17369Y36463D01*
X23441Y30391D01*
Y27838D01*
X22723Y27120D01*
X22714Y27106D01*
X22707Y27102D01*
X22661Y27096D01*
X22653Y27098D01*
X22277Y27474D01*
X22244Y27496D01*
X22205Y27504D01*
X18586D01*
X18488Y27601D01*
Y28068D01*
X19579Y29158D01*
X19634Y29169D01*
X19690Y29207D01*
X19728Y29264D01*
X19742Y29331D01*
X19728Y29398D01*
X19690Y29454D01*
X19634Y29492D01*
X19567Y29505D01*
X19542Y29500D01*
X16959Y32083D01*
Y32332D01*
X16943Y32410D01*
X16899Y32477D01*
X16832Y32521D01*
X16754Y32537D01*
X16154D01*
X16075Y32521D01*
X16009Y32477D01*
X15964Y32410D01*
X15949Y32332D01*
Y32032D01*
X15964Y31953D01*
X16009Y31887D01*
X16075Y31842D01*
X16154Y31827D01*
X16754D01*
X16832Y31842D01*
X16879Y31874D01*
X19397Y29356D01*
X19392Y29331D01*
X19404Y29273D01*
X18313Y28183D01*
X18291Y28149D01*
X18283Y28110D01*
Y27559D01*
X18291Y27520D01*
X18313Y27487D01*
X18471Y27329D01*
X18504Y27307D01*
X18543Y27299D01*
X22162D01*
X22496Y26965D01*
Y26821D01*
X22484Y26776D01*
X22446Y26776D01*
X21988D01*
Y26415D01*
X21983Y26391D01*
Y25499D01*
X21378D01*
X21281Y25480D01*
X21199Y25425D01*
X21144Y25343D01*
X21125Y25246D01*
X21144Y25149D01*
X21165Y25118D01*
Y24921D01*
X21181Y24882D01*
X21204Y24835D01*
X21197Y24803D01*
Y24744D01*
X21204Y24713D01*
X21221Y24686D01*
X21223Y24685D01*
Y24626D01*
X21221Y24625D01*
X21204Y24598D01*
X21197Y24567D01*
Y24508D01*
X21204Y24476D01*
X21221Y24450D01*
X21223Y24449D01*
Y24390D01*
X21221Y24389D01*
X21204Y24362D01*
X21197Y24331D01*
Y24272D01*
X21204Y24240D01*
X21221Y24213D01*
X21248Y24196D01*
X21280Y24189D01*
X21476D01*
X21508Y24196D01*
X21535Y24213D01*
X21552Y24240D01*
X21559Y24272D01*
Y24331D01*
X21552Y24362D01*
X21535Y24389D01*
X21533Y24390D01*
Y24449D01*
X21535Y24450D01*
X21552Y24476D01*
X21559Y24508D01*
Y24567D01*
X21552Y24598D01*
X21535Y24625D01*
X21533Y24626D01*
Y24685D01*
X21535Y24686D01*
X21552Y24713D01*
X21559Y24744D01*
Y24803D01*
X21556Y24816D01*
X21583Y24859D01*
X21592Y24866D01*
X21850D01*
X21890Y24882D01*
X21906Y24921D01*
Y24993D01*
X21989D01*
Y24957D01*
X22446D01*
X22449Y24957D01*
X22496Y24950D01*
Y24409D01*
X22504Y24370D01*
X22526Y24337D01*
X23117Y23747D01*
X23150Y23724D01*
X23164Y23721D01*
X23189Y23717D01*
X27480D01*
X27519Y23724D01*
X27553Y23747D01*
X27838Y24032D01*
X28878D01*
X28892Y24010D01*
X28913Y23996D01*
Y23192D01*
X27556Y21835D01*
X21299D01*
X21260Y21827D01*
X21227Y21805D01*
X20812Y21390D01*
X20787Y21395D01*
X20721Y21382D01*
X20664Y21344D01*
X20626Y21287D01*
X20613Y21220D01*
X20626Y21154D01*
X20664Y21097D01*
X20721Y21059D01*
X20787Y21046D01*
X20854Y21059D01*
X20911Y21097D01*
X20949Y21154D01*
X20962Y21220D01*
X20957Y21245D01*
X21342Y21630D01*
X27496D01*
Y21201D01*
X27475Y21186D01*
X27437Y21130D01*
X27424Y21063D01*
X27437Y20996D01*
X27475Y20940D01*
X27532Y20902D01*
X27598Y20888D01*
X27665Y20902D01*
X27722Y20940D01*
X27760Y20996D01*
X27773Y21063D01*
X27760Y21130D01*
X27722Y21186D01*
X27701Y21201D01*
Y21690D01*
X29088Y23077D01*
X29110Y23110D01*
X29118Y23150D01*
Y23996D01*
X29139Y24010D01*
X29177Y24067D01*
X29190Y24134D01*
X29177Y24201D01*
X29139Y24257D01*
X29083Y24295D01*
X29016Y24308D01*
X28949Y24295D01*
X28892Y24257D01*
X28878Y24236D01*
X27795D01*
X27756Y24228D01*
X27723Y24206D01*
X27438Y23921D01*
X23231D01*
X22701Y24452D01*
Y24564D01*
X22751Y24585D01*
X22980Y24356D01*
X22975Y24331D01*
X22988Y24264D01*
X23026Y24207D01*
X23083Y24169D01*
X23150Y24156D01*
X23216Y24169D01*
X23273Y24207D01*
X23311Y24264D01*
X23324Y24331D01*
X23311Y24398D01*
X23273Y24454D01*
X23216Y24492D01*
X23150Y24505D01*
X23125Y24500D01*
X22898Y24727D01*
Y27005D01*
X23616Y27723D01*
X23638Y27756D01*
X23646Y27795D01*
Y30433D01*
X23638Y30472D01*
X23616Y30505D01*
X17543Y36578D01*
Y38195D01*
X17536Y38234D01*
X17513Y38267D01*
X16899Y38882D01*
X16899Y38887D01*
X16943Y38953D01*
X16959Y39032D01*
Y39332D01*
X16943Y39410D01*
X16899Y39477D01*
X16875Y39493D01*
X16890Y39543D01*
X17834D01*
Y39307D01*
X18547D01*
Y39593D01*
X18778D01*
Y39378D01*
X19490D01*
Y40012D01*
X18778D01*
Y39797D01*
X18547D01*
Y39940D01*
X18252D01*
Y40768D01*
X18273Y40782D01*
X18311Y40839D01*
X18324Y40906D01*
X18311Y40972D01*
X18273Y41029D01*
X18216Y41067D01*
X18150Y41080D01*
X18083Y41067D01*
X18026Y41029D01*
X17988Y40972D01*
X17975Y40906D01*
X17988Y40839D01*
X18026Y40782D01*
X18047Y40768D01*
Y39940D01*
X17834D01*
Y39748D01*
X15830D01*
X12898Y42680D01*
Y42925D01*
X12948Y42940D01*
X12959Y42923D01*
X14655Y41227D01*
X14688Y41205D01*
X14728Y41197D01*
X15039D01*
X15079Y41205D01*
X15112Y41227D01*
X15397Y41512D01*
X15978D01*
X15999Y41462D01*
X15964Y41410D01*
X15949Y41332D01*
Y41032D01*
X15964Y40953D01*
X16009Y40887D01*
X16075Y40842D01*
X16154Y40827D01*
X16754D01*
X16832Y40842D01*
X16899Y40887D01*
X16943Y40953D01*
X16959Y41032D01*
Y41332D01*
X16943Y41410D01*
X16909Y41462D01*
X16930Y41512D01*
X16944D01*
X16983Y41520D01*
X17016Y41542D01*
X17230Y41755D01*
X17252Y41789D01*
X17260Y41828D01*
Y42351D01*
X17320Y42412D01*
X17370Y42391D01*
Y42065D01*
X17782Y42065D01*
X17797Y42065D01*
X17814Y42061D01*
X17826Y42057D01*
X17837Y42049D01*
X17844Y42038D01*
X17849Y42026D01*
X17852Y42010D01*
X17852Y41995D01*
Y41583D01*
X19234D01*
X19234Y41995D01*
X19234Y42010D01*
X19238Y42026D01*
X19242Y42038D01*
X19250Y42049D01*
X19261Y42057D01*
X19273Y42061D01*
X19289Y42065D01*
X19304Y42065D01*
X19717D01*
Y42459D01*
Y42852D01*
Y43244D01*
X20146D01*
Y42862D01*
X20595D01*
X20735Y42723D01*
X20768Y42701D01*
X20807Y42693D01*
X21878D01*
Y42409D01*
X22335D01*
Y43181D01*
X21878D01*
Y42898D01*
X21665D01*
Y43312D01*
X21883Y43530D01*
X21906Y43563D01*
X21913Y43602D01*
Y43677D01*
X22134D01*
X22235Y43575D01*
X22269Y43553D01*
X22308Y43545D01*
X24920D01*
X24959Y43553D01*
X24992Y43575D01*
X26244Y44827D01*
X26754D01*
X26832Y44842D01*
X26899Y44887D01*
X26927Y44929D01*
X27627D01*
X29152Y43404D01*
X29234Y43349D01*
X29331Y43330D01*
X38369D01*
Y29820D01*
X34357D01*
X33604Y30573D01*
X33522Y30627D01*
X33425Y30647D01*
X30169D01*
X30073Y30627D01*
X29990Y30573D01*
X29535Y30117D01*
X29448Y30106D01*
X29362Y30071D01*
X29289Y30014D01*
X29233Y29941D01*
X29197Y29855D01*
X29185Y29764D01*
X29197Y29672D01*
X29233Y29587D01*
X29289Y29513D01*
X29362Y29457D01*
X29448Y29422D01*
X29539Y29410D01*
X29631Y29422D01*
X29716Y29457D01*
X29790Y29513D01*
X29846Y29587D01*
X29882Y29672D01*
X29893Y29760D01*
X30274Y30141D01*
X33320D01*
X34073Y29388D01*
X34155Y29333D01*
X34252Y29314D01*
X38622D01*
X38719Y29333D01*
X38801Y29388D01*
X38856Y29470D01*
X38875Y29567D01*
Y43456D01*
X38895Y43486D01*
X38914Y43583D01*
X38895Y43679D01*
X38840Y43762D01*
X38758Y43816D01*
X38661Y43836D01*
X29435D01*
X27910Y45361D01*
X27828Y45416D01*
X27731Y45435D01*
X26927D01*
X26899Y45477D01*
X26832Y45521D01*
X26754Y45537D01*
X26154D01*
X26075Y45521D01*
X26009Y45477D01*
X25964Y45410D01*
X25949Y45332D01*
Y45032D01*
X25964Y44953D01*
X26009Y44887D01*
X26009Y44882D01*
X24877Y43750D01*
X22350D01*
X22248Y43852D01*
X22215Y43874D01*
X22176Y43882D01*
X20435D01*
Y44542D01*
X20554Y44661D01*
X21442D01*
X21467Y44636D01*
X21500Y44614D01*
X21540Y44606D01*
X21846D01*
X21885Y44614D01*
X21919Y44636D01*
X21944Y44661D01*
X22084D01*
X22360Y44385D01*
Y43846D01*
X22915D01*
Y44657D01*
X22377D01*
X22198Y44836D01*
X22165Y44858D01*
X22126Y44866D01*
X22073D01*
X22068Y44916D01*
X22075Y44917D01*
X22131Y44955D01*
X22169Y45012D01*
X22182Y45079D01*
X22169Y45146D01*
X22131Y45202D01*
X22075Y45240D01*
X22008Y45253D01*
X21941Y45240D01*
X21884Y45202D01*
X21875Y45189D01*
X21825D01*
X21816Y45202D01*
X21760Y45240D01*
X21693Y45253D01*
X21626Y45240D01*
X21569Y45202D01*
X21555Y45181D01*
X18861D01*
X18813Y45230D01*
X18813Y45230D01*
X18779Y45252D01*
X18779Y45252D01*
X18758Y45256D01*
X18740Y45260D01*
X18740D01*
X18701Y45252D01*
X18701Y45252D01*
X18701Y45252D01*
X18688Y45243D01*
X18668Y45230D01*
X18471Y45033D01*
X18449Y45000D01*
X18449Y45000D01*
X18449Y45000D01*
X18441Y44961D01*
Y43929D01*
X17852D01*
X17852Y43517D01*
X17852Y43502D01*
X17849Y43485D01*
X17844Y43474D01*
X17837Y43462D01*
X17826Y43455D01*
X17814Y43451D01*
X17797Y43447D01*
X17782Y43447D01*
X17633D01*
X17346Y43734D01*
X17313Y43756D01*
X17274Y43764D01*
X14649D01*
X13606Y44806D01*
Y44981D01*
X13627Y44995D01*
X13665Y45051D01*
X13679Y45118D01*
X13665Y45185D01*
X13627Y45242D01*
X13571Y45279D01*
X13504Y45293D01*
X13437Y45279D01*
X13380Y45242D01*
X13343Y45185D01*
X13329Y45118D01*
X13343Y45051D01*
X13380Y44995D01*
X13402Y44981D01*
Y44764D01*
X13409Y44725D01*
X13432Y44691D01*
X14534Y43589D01*
X14567Y43567D01*
X14606Y43559D01*
X16042D01*
X16057Y43509D01*
X16009Y43477D01*
X15964Y43410D01*
X15949Y43332D01*
Y43032D01*
X15964Y42953D01*
X15977Y42934D01*
X15951Y42884D01*
X15695D01*
X15656Y42876D01*
X15623Y42854D01*
X15396Y42628D01*
X15346Y42649D01*
Y42837D01*
X14713D01*
Y42124D01*
X15346D01*
Y42378D01*
X15394D01*
X15433Y42386D01*
X15466Y42408D01*
X15599Y42541D01*
X15639Y42523D01*
X15646Y42517D01*
Y42106D01*
X15625Y42092D01*
X15587Y42035D01*
X15573Y41968D01*
X15587Y41902D01*
X15625Y41845D01*
X15681Y41807D01*
X15748Y41794D01*
X15815Y41807D01*
X15871Y41845D01*
X15909Y41902D01*
X15917Y41941D01*
X15940Y41947D01*
X15969Y41946D01*
X16009Y41887D01*
X16075Y41842D01*
X16154Y41827D01*
X16754D01*
X16832Y41842D01*
X16899Y41887D01*
X16943Y41953D01*
X16959Y42032D01*
Y42332D01*
X16943Y42410D01*
X16920Y42446D01*
X16946Y42496D01*
X16968D01*
X17008Y42504D01*
X17041Y42526D01*
X17156Y42641D01*
X17185Y42637D01*
X17203Y42584D01*
X17085Y42466D01*
X17063Y42433D01*
X17055Y42394D01*
Y41870D01*
X16901Y41717D01*
X15354D01*
X15315Y41709D01*
X15282Y41687D01*
X14997Y41402D01*
X14770D01*
X14094Y42078D01*
X14113Y42124D01*
X14306D01*
X14712Y41718D01*
X14707Y41693D01*
X14721Y41626D01*
X14758Y41569D01*
X14815Y41532D01*
X14882Y41518D01*
X14949Y41532D01*
X15005Y41569D01*
X15043Y41626D01*
X15057Y41693D01*
X15043Y41760D01*
X15005Y41816D01*
X14949Y41854D01*
X14882Y41868D01*
X14857Y41863D01*
X14579Y42141D01*
Y42837D01*
X13945D01*
Y42292D01*
X13899Y42273D01*
X13134Y43038D01*
Y45630D01*
X13126Y45669D01*
X13104Y45702D01*
X12986Y45820D01*
X12953Y45843D01*
X12913Y45850D01*
X11988D01*
X11974Y45872D01*
X11917Y45909D01*
X11893Y45914D01*
X11896Y45965D01*
X12012Y45974D01*
X12208Y46021D01*
X12395Y46098D01*
X12567Y46203D01*
X12721Y46335D01*
X12852Y46488D01*
X12957Y46660D01*
X13034Y46847D01*
X13081Y47043D01*
X13097Y47244D01*
X13081Y47445D01*
X13034Y47642D01*
X12957Y47828D01*
X12852Y48000D01*
X12721Y48154D01*
X12567Y48285D01*
X12395Y48390D01*
X12208Y48467D01*
X12012Y48515D01*
X11811Y48530D01*
D02*
G37*
G36*
X28780Y47742D02*
X28710Y47728D01*
X28650Y47688D01*
X28611Y47629D01*
X28597Y47559D01*
X28611Y47489D01*
X28650Y47430D01*
X28677Y47412D01*
Y45315D01*
X28685Y45276D01*
X28707Y45243D01*
X28879Y45071D01*
X28872Y45039D01*
X28886Y44969D01*
X28926Y44910D01*
X28985Y44871D01*
X29055Y44857D01*
X29125Y44871D01*
X29184Y44910D01*
X29224Y44969D01*
X29238Y45039D01*
X29224Y45109D01*
X29184Y45169D01*
X29125Y45208D01*
X29055Y45222D01*
X29024Y45216D01*
X28882Y45357D01*
Y47412D01*
X28909Y47430D01*
X28948Y47489D01*
X28962Y47559D01*
X28948Y47629D01*
X28909Y47688D01*
X28849Y47728D01*
X28780Y47742D01*
D02*
G37*
G36*
X16754Y45537D02*
X16154D01*
X16075Y45521D01*
X16009Y45477D01*
X15964Y45410D01*
X15949Y45332D01*
Y45032D01*
X15964Y44953D01*
X16009Y44887D01*
X16075Y44842D01*
X16154Y44827D01*
X16754D01*
X16832Y44842D01*
X16899Y44887D01*
X16943Y44953D01*
X16959Y45032D01*
Y45332D01*
X16943Y45410D01*
X16899Y45477D01*
X16832Y45521D01*
X16754Y45537D01*
D02*
G37*
G36*
X26754Y43537D02*
X26154D01*
X26075Y43521D01*
X26009Y43477D01*
X25964Y43410D01*
X25949Y43332D01*
Y43032D01*
X25964Y42953D01*
X26009Y42887D01*
X26075Y42842D01*
X26140Y42830D01*
X26135Y42780D01*
X25984D01*
X25945Y42772D01*
X25912Y42750D01*
X25233Y42071D01*
X22539D01*
X22525Y42092D01*
X22468Y42130D01*
X22402Y42143D01*
X22335Y42130D01*
X22278Y42092D01*
X22240Y42035D01*
X22227Y41968D01*
X22232Y41944D01*
X20853Y40565D01*
X19490D01*
Y40780D01*
X18778D01*
Y40146D01*
X19490D01*
Y40360D01*
X20896D01*
X20935Y40368D01*
X20968Y40390D01*
X22377Y41799D01*
X22402Y41794D01*
X22468Y41807D01*
X22525Y41845D01*
X22539Y41866D01*
X25276D01*
X25315Y41874D01*
X25348Y41896D01*
X26027Y42575D01*
X26088D01*
X26093Y42525D01*
X26075Y42521D01*
X26009Y42477D01*
X25964Y42410D01*
X25949Y42332D01*
Y42032D01*
X25964Y41953D01*
X26009Y41887D01*
X26075Y41842D01*
X26154Y41827D01*
X26754D01*
X26832Y41842D01*
X26899Y41887D01*
X26943Y41953D01*
X26959Y42032D01*
Y42332D01*
X26943Y42410D01*
X26899Y42477D01*
X26832Y42521D01*
X26815Y42525D01*
X26820Y42575D01*
X28554D01*
X28572Y42548D01*
X28631Y42508D01*
X28701Y42495D01*
X28771Y42508D01*
X28830Y42548D01*
X28870Y42607D01*
X28883Y42677D01*
X28870Y42747D01*
X28830Y42806D01*
X28771Y42846D01*
X28701Y42860D01*
X28631Y42846D01*
X28572Y42806D01*
X28554Y42780D01*
X26773D01*
X26768Y42830D01*
X26832Y42842D01*
X26899Y42887D01*
X26943Y42953D01*
X26959Y43032D01*
Y43332D01*
X26943Y43410D01*
X26899Y43477D01*
X26832Y43521D01*
X26754Y43537D01*
D02*
G37*
G36*
X11811Y42556D02*
X11679Y42538D01*
X11557Y42487D01*
X11452Y42407D01*
X11371Y42301D01*
X11320Y42179D01*
X11303Y42047D01*
X11320Y41916D01*
X11371Y41793D01*
X11452Y41688D01*
X11557Y41607D01*
X11679Y41556D01*
X11811Y41539D01*
X11943Y41556D01*
X12065Y41607D01*
X12170Y41688D01*
X12251Y41793D01*
X12302Y41916D01*
X12319Y42047D01*
X12302Y42179D01*
X12251Y42301D01*
X12170Y42407D01*
X12065Y42487D01*
X11943Y42538D01*
X11811Y42556D01*
D02*
G37*
G36*
X26754Y41537D02*
X26154D01*
X26075Y41521D01*
X26009Y41477D01*
X25964Y41410D01*
X25949Y41332D01*
Y41032D01*
X25964Y40953D01*
X26009Y40887D01*
X26075Y40842D01*
X26154Y40827D01*
X26754D01*
X26832Y40842D01*
X26899Y40887D01*
X26943Y40953D01*
X26959Y41032D01*
Y41332D01*
X26943Y41410D01*
X26899Y41477D01*
X26832Y41521D01*
X26754Y41537D01*
D02*
G37*
G36*
X37402Y40981D02*
X37270Y40963D01*
X37147Y40913D01*
X37042Y40832D01*
X36961Y40727D01*
X36911Y40604D01*
X36893Y40472D01*
X36911Y40341D01*
X36961Y40218D01*
X36979Y40195D01*
X34069Y37284D01*
X26959D01*
Y37332D01*
X26943Y37410D01*
X26899Y37477D01*
X26832Y37521D01*
X26754Y37537D01*
X26154D01*
X26075Y37521D01*
X26009Y37477D01*
X25964Y37410D01*
X25949Y37332D01*
Y37032D01*
X25964Y36953D01*
X26009Y36887D01*
X26075Y36842D01*
X26154Y36827D01*
X26754D01*
X26832Y36842D01*
X26899Y36887D01*
X26943Y36953D01*
X26959Y37032D01*
Y37080D01*
X34111D01*
X34150Y37087D01*
X34183Y37110D01*
X37124Y40050D01*
X37147Y40032D01*
X37270Y39981D01*
X37402Y39964D01*
X37533Y39981D01*
X37656Y40032D01*
X37761Y40113D01*
X37842Y40218D01*
X37893Y40341D01*
X37910Y40472D01*
X37893Y40604D01*
X37842Y40727D01*
X37761Y40832D01*
X37656Y40913D01*
X37533Y40963D01*
X37402Y40981D01*
D02*
G37*
G36*
X26754Y40537D02*
X26154D01*
X26075Y40521D01*
X26009Y40477D01*
X25964Y40410D01*
X25949Y40332D01*
Y40032D01*
X25964Y39953D01*
X26009Y39887D01*
X26075Y39842D01*
X26154Y39827D01*
X26754D01*
X26832Y39842D01*
X26899Y39887D01*
X26943Y39953D01*
X26959Y40032D01*
Y40332D01*
X26943Y40410D01*
X26899Y40477D01*
X26832Y40521D01*
X26754Y40537D01*
D02*
G37*
G36*
X16754D02*
X16154D01*
X16075Y40521D01*
X16009Y40477D01*
X15964Y40410D01*
X15949Y40332D01*
Y40032D01*
X15964Y39953D01*
X16009Y39887D01*
X16075Y39842D01*
X16154Y39827D01*
X16754D01*
X16832Y39842D01*
X16899Y39887D01*
X16943Y39953D01*
X16959Y40032D01*
Y40332D01*
X16943Y40410D01*
X16899Y40477D01*
X16832Y40521D01*
X16754Y40537D01*
D02*
G37*
G36*
X32007Y40110D02*
X31891Y40095D01*
X31783Y40050D01*
X31690Y39979D01*
X31619Y39886D01*
X31574Y39778D01*
X31558Y39661D01*
X31574Y39545D01*
X31619Y39437D01*
X31690Y39344D01*
X31783Y39273D01*
X31891Y39228D01*
X32007Y39213D01*
X32123Y39228D01*
X32231Y39273D01*
X32324Y39344D01*
X32396Y39437D01*
X32441Y39545D01*
X32456Y39661D01*
X32441Y39778D01*
X32396Y39886D01*
X32324Y39979D01*
X32231Y40050D01*
X32123Y40095D01*
X32007Y40110D01*
D02*
G37*
G36*
X28306D02*
X28190Y40095D01*
X28082Y40050D01*
X27989Y39979D01*
X27918Y39886D01*
X27873Y39778D01*
X27858Y39661D01*
X27873Y39545D01*
X27918Y39437D01*
X27926Y39426D01*
X27384Y38884D01*
X26957D01*
X26930Y38934D01*
X26943Y38953D01*
X26959Y39032D01*
Y39332D01*
X26943Y39410D01*
X26899Y39477D01*
X26832Y39521D01*
X26754Y39537D01*
X26154D01*
X26075Y39521D01*
X26009Y39477D01*
X25964Y39410D01*
X25949Y39332D01*
Y39032D01*
X25964Y38953D01*
X25977Y38934D01*
X25951Y38884D01*
X18547D01*
Y39173D01*
X17834D01*
Y38539D01*
X18547D01*
Y38679D01*
X27426D01*
X27466Y38687D01*
X27499Y38709D01*
X28071Y39281D01*
X28082Y39273D01*
X28190Y39228D01*
X28306Y39213D01*
X28422Y39228D01*
X28531Y39273D01*
X28624Y39344D01*
X28695Y39437D01*
X28740Y39545D01*
X28755Y39661D01*
X28740Y39778D01*
X28695Y39886D01*
X28624Y39979D01*
X28531Y40050D01*
X28422Y40095D01*
X28306Y40110D01*
D02*
G37*
G36*
X26754Y38537D02*
X26154D01*
X26075Y38521D01*
X26009Y38477D01*
X25964Y38410D01*
X25956Y38370D01*
X21496D01*
X21457Y38362D01*
X21424Y38340D01*
X20046Y36962D01*
X20024Y36929D01*
X20016Y36890D01*
Y35453D01*
X19995Y35438D01*
X19957Y35382D01*
X19944Y35315D01*
X19957Y35248D01*
X19995Y35191D01*
X20051Y35154D01*
X20118Y35140D01*
X20185Y35154D01*
X20242Y35191D01*
X20279Y35248D01*
X20293Y35315D01*
X20279Y35382D01*
X20242Y35438D01*
X20220Y35453D01*
Y36847D01*
X21538Y38165D01*
X25949D01*
Y38032D01*
X25964Y37953D01*
X26009Y37887D01*
X26075Y37842D01*
X26154Y37827D01*
X26754D01*
X26832Y37842D01*
X26899Y37887D01*
X26943Y37953D01*
X26959Y38032D01*
Y38332D01*
X26943Y38410D01*
X26899Y38477D01*
X26832Y38521D01*
X26754Y38537D01*
D02*
G37*
G36*
X16754D02*
X16154D01*
X16075Y38521D01*
X16009Y38477D01*
X15964Y38410D01*
X15949Y38332D01*
Y38032D01*
X15964Y37953D01*
X16009Y37887D01*
X16075Y37842D01*
X16154Y37827D01*
X16754D01*
X16832Y37842D01*
X16899Y37887D01*
X16943Y37953D01*
X16959Y38032D01*
Y38332D01*
X16943Y38410D01*
X16899Y38477D01*
X16832Y38521D01*
X16754Y38537D01*
D02*
G37*
G36*
Y37537D02*
X16154D01*
X16075Y37521D01*
X16009Y37477D01*
X15964Y37410D01*
X15949Y37332D01*
Y37032D01*
X15964Y36953D01*
X16009Y36887D01*
X16075Y36842D01*
X16154Y36827D01*
X16754D01*
X16832Y36842D01*
X16899Y36887D01*
X16943Y36953D01*
X16959Y37032D01*
Y37332D01*
X16943Y37410D01*
X16899Y37477D01*
X16832Y37521D01*
X16754Y37537D01*
D02*
G37*
G36*
X11772Y37713D02*
X11640Y37696D01*
X11518Y37645D01*
X11412Y37564D01*
X11331Y37459D01*
X11281Y37336D01*
X11263Y37205D01*
X11281Y37073D01*
X11331Y36951D01*
X11412Y36845D01*
X11518Y36765D01*
X11640Y36714D01*
X11772Y36696D01*
X11903Y36714D01*
X12026Y36765D01*
X12131Y36845D01*
X12212Y36951D01*
X12263Y37073D01*
X12280Y37205D01*
X12263Y37336D01*
X12212Y37459D01*
X12131Y37564D01*
X12026Y37645D01*
X11903Y37696D01*
X11772Y37713D01*
D02*
G37*
G36*
X16754Y36537D02*
X16154D01*
X16075Y36521D01*
X16009Y36477D01*
X15964Y36410D01*
X15949Y36332D01*
Y36032D01*
X15964Y35953D01*
X16009Y35887D01*
X16075Y35842D01*
X16154Y35827D01*
X16754D01*
X16832Y35842D01*
X16899Y35887D01*
X16943Y35953D01*
X16959Y36032D01*
Y36332D01*
X16943Y36410D01*
X16899Y36477D01*
X16832Y36521D01*
X16754Y36537D01*
D02*
G37*
G36*
X26754D02*
X26154D01*
X26075Y36521D01*
X26009Y36477D01*
X25964Y36410D01*
X25949Y36332D01*
Y36032D01*
X25964Y35953D01*
X26009Y35887D01*
X26075Y35842D01*
X26154Y35827D01*
X26754D01*
X26832Y35842D01*
X26899Y35887D01*
X26943Y35953D01*
X26959Y36032D01*
Y36080D01*
X36728D01*
X36979Y35829D01*
X36961Y35805D01*
X36911Y35683D01*
X36893Y35551D01*
X36911Y35420D01*
X36961Y35297D01*
X37042Y35192D01*
X37147Y35111D01*
X37270Y35060D01*
X37402Y35043D01*
X37533Y35060D01*
X37656Y35111D01*
X37761Y35192D01*
X37842Y35297D01*
X37893Y35420D01*
X37910Y35551D01*
X37893Y35683D01*
X37842Y35805D01*
X37761Y35911D01*
X37656Y35991D01*
X37533Y36042D01*
X37402Y36059D01*
X37270Y36042D01*
X37147Y35991D01*
X37124Y35973D01*
X36843Y36254D01*
X36810Y36276D01*
X36771Y36284D01*
X26959D01*
Y36332D01*
X26943Y36410D01*
X26899Y36477D01*
X26832Y36521D01*
X26754Y36537D01*
D02*
G37*
G36*
X16754Y35537D02*
X16154D01*
X16075Y35521D01*
X16009Y35477D01*
X15964Y35410D01*
X15949Y35332D01*
Y35032D01*
X15964Y34953D01*
X16009Y34887D01*
X16075Y34842D01*
X16154Y34827D01*
X16564D01*
X16815Y34576D01*
X16790Y34530D01*
X16754Y34537D01*
X16154D01*
X16075Y34521D01*
X16009Y34477D01*
X15964Y34410D01*
X15949Y34332D01*
Y34032D01*
X15964Y33953D01*
X16009Y33887D01*
X16075Y33842D01*
X16154Y33827D01*
X16754D01*
X16832Y33842D01*
X16899Y33887D01*
X16943Y33953D01*
X16959Y34032D01*
Y34332D01*
X16952Y34368D01*
X16998Y34393D01*
X21523Y29867D01*
X21518Y29843D01*
X21532Y29776D01*
X21569Y29719D01*
X21626Y29681D01*
X21693Y29668D01*
X21760Y29681D01*
X21816Y29719D01*
X21854Y29776D01*
X21868Y29843D01*
X21854Y29909D01*
X21816Y29966D01*
X21760Y30004D01*
X21693Y30017D01*
X21668Y30012D01*
X16864Y34817D01*
X16868Y34866D01*
X16899Y34887D01*
X16943Y34953D01*
X16959Y35032D01*
Y35332D01*
X16943Y35410D01*
X16899Y35477D01*
X16832Y35521D01*
X16754Y35537D01*
D02*
G37*
G36*
X24213Y34781D02*
X24146Y34768D01*
X24089Y34730D01*
X24051Y34673D01*
X24038Y34606D01*
X24051Y34539D01*
X24089Y34483D01*
X24146Y34445D01*
X24213Y34432D01*
X24279Y34445D01*
X24332Y34480D01*
X25951D01*
X25977Y34430D01*
X25964Y34410D01*
X25949Y34332D01*
Y34284D01*
X21851D01*
X21816Y34336D01*
X21760Y34374D01*
X21693Y34387D01*
X21626Y34374D01*
X21569Y34336D01*
X21532Y34279D01*
X21518Y34213D01*
X21532Y34146D01*
X21569Y34089D01*
X21626Y34051D01*
X21693Y34038D01*
X21760Y34051D01*
X21802Y34080D01*
X25949D01*
Y34032D01*
X25964Y33953D01*
X26009Y33887D01*
X26075Y33842D01*
X26154Y33827D01*
X26754D01*
X26832Y33842D01*
X26899Y33887D01*
X26943Y33953D01*
X26959Y34032D01*
Y34332D01*
X26943Y34410D01*
X26930Y34430D01*
X26957Y34480D01*
X30915D01*
X30940Y34443D01*
X30996Y34406D01*
X31063Y34392D01*
X31130Y34406D01*
X31186Y34443D01*
X31224Y34500D01*
X31238Y34567D01*
X31224Y34634D01*
X31186Y34690D01*
X31130Y34728D01*
X31063Y34742D01*
X30996Y34728D01*
X30940Y34690D01*
X30936Y34685D01*
X24366D01*
X24336Y34730D01*
X24279Y34768D01*
X24213Y34781D01*
D02*
G37*
G36*
X26754Y33537D02*
X26154D01*
X26075Y33521D01*
X26009Y33477D01*
X25964Y33410D01*
X25949Y33332D01*
Y33284D01*
X22386D01*
X22368Y33312D01*
X22311Y33350D01*
X22244Y33364D01*
X22177Y33350D01*
X22121Y33312D01*
X22083Y33256D01*
X22069Y33189D01*
X22083Y33122D01*
X22121Y33066D01*
X22177Y33028D01*
X22244Y33014D01*
X22311Y33028D01*
X22368Y33066D01*
X22377Y33080D01*
X25949D01*
Y33032D01*
X25964Y32953D01*
X26009Y32887D01*
X26075Y32842D01*
X26154Y32827D01*
X26754D01*
X26832Y32842D01*
X26899Y32887D01*
X26943Y32953D01*
X26959Y33032D01*
Y33332D01*
X26943Y33410D01*
X26899Y33477D01*
X26832Y33521D01*
X26754Y33537D01*
D02*
G37*
G36*
X15354Y39505D02*
X15288Y39492D01*
X15231Y39454D01*
X15193Y39398D01*
X15180Y39331D01*
X15193Y39264D01*
X15231Y39207D01*
X15288Y39169D01*
X15291Y39169D01*
Y34242D01*
X15299Y34203D01*
X15321Y34170D01*
X16009Y33482D01*
X16009Y33477D01*
X15964Y33410D01*
X15949Y33332D01*
Y33032D01*
X15964Y32953D01*
X16009Y32887D01*
X16075Y32842D01*
X16154Y32827D01*
X16754D01*
X16832Y32842D01*
X16899Y32887D01*
X16943Y32953D01*
X16959Y33032D01*
Y33332D01*
X16943Y33410D01*
X16899Y33477D01*
X16832Y33521D01*
X16754Y33537D01*
X16244D01*
X15496Y34285D01*
Y39235D01*
X15516Y39264D01*
X15529Y39331D01*
X15516Y39398D01*
X15478Y39454D01*
X15421Y39492D01*
X15354Y39505D01*
D02*
G37*
G36*
X11929Y32910D02*
X11798Y32893D01*
X11675Y32842D01*
X11570Y32761D01*
X11489Y32656D01*
X11438Y32533D01*
X11421Y32402D01*
X11438Y32270D01*
X11489Y32147D01*
X11570Y32042D01*
X11675Y31961D01*
X11798Y31911D01*
X11929Y31893D01*
X12061Y31911D01*
X12183Y31961D01*
X12289Y32042D01*
X12369Y32147D01*
X12420Y32270D01*
X12437Y32402D01*
X12420Y32533D01*
X12369Y32656D01*
X12289Y32761D01*
X12183Y32842D01*
X12061Y32893D01*
X11929Y32910D01*
D02*
G37*
G36*
X22756Y32694D02*
X22689Y32681D01*
X22632Y32643D01*
X22595Y32587D01*
X22581Y32520D01*
X22595Y32453D01*
X22632Y32396D01*
X22689Y32358D01*
X22756Y32345D01*
X22781Y32350D01*
X23021Y32110D01*
X23055Y32087D01*
X23094Y32080D01*
X25949D01*
Y32032D01*
X25964Y31953D01*
X26009Y31887D01*
X26075Y31842D01*
X26154Y31827D01*
X26754D01*
X26832Y31842D01*
X26899Y31887D01*
X26943Y31953D01*
X26959Y32032D01*
Y32332D01*
X26943Y32410D01*
X26899Y32477D01*
X26832Y32521D01*
X26754Y32537D01*
X26154D01*
X26075Y32521D01*
X26009Y32477D01*
X25964Y32410D01*
X25949Y32332D01*
Y32284D01*
X23136D01*
X22926Y32495D01*
X22931Y32520D01*
X22917Y32587D01*
X22879Y32643D01*
X22823Y32681D01*
X22756Y32694D01*
D02*
G37*
G36*
X26754Y31537D02*
X26154D01*
X26075Y31521D01*
X26009Y31477D01*
X25964Y31410D01*
X25949Y31332D01*
Y31032D01*
X25964Y30953D01*
X26009Y30887D01*
X26075Y30842D01*
X26154Y30827D01*
X26754D01*
X26832Y30842D01*
X26899Y30887D01*
X26943Y30953D01*
X26959Y31032D01*
Y31332D01*
X26943Y31410D01*
X26899Y31477D01*
X26832Y31521D01*
X26754Y31537D01*
D02*
G37*
G36*
X16754D02*
X16154D01*
X16075Y31521D01*
X16009Y31477D01*
X15964Y31410D01*
X15949Y31332D01*
Y31032D01*
X15964Y30953D01*
X16009Y30887D01*
X16075Y30842D01*
X16154Y30827D01*
X16754D01*
X16832Y30842D01*
X16899Y30887D01*
X16943Y30953D01*
X16959Y31032D01*
Y31332D01*
X16943Y31410D01*
X16899Y31477D01*
X16832Y31521D01*
X16754Y31537D01*
D02*
G37*
G36*
X26754Y35537D02*
X26154D01*
X26075Y35521D01*
X26009Y35477D01*
X25964Y35410D01*
X25949Y35332D01*
Y35032D01*
X25964Y34953D01*
X26009Y34887D01*
X26075Y34842D01*
X26154Y34827D01*
X26754D01*
X26832Y34842D01*
X26899Y34887D01*
X26943Y34953D01*
X26959Y35032D01*
Y35080D01*
X32847D01*
X36979Y30947D01*
X36961Y30923D01*
X36911Y30801D01*
X36893Y30669D01*
X36911Y30538D01*
X36961Y30415D01*
X37042Y30310D01*
X37147Y30229D01*
X37270Y30178D01*
X37402Y30161D01*
X37533Y30178D01*
X37656Y30229D01*
X37761Y30310D01*
X37842Y30415D01*
X37893Y30538D01*
X37910Y30669D01*
X37893Y30801D01*
X37842Y30923D01*
X37761Y31029D01*
X37656Y31109D01*
X37533Y31160D01*
X37402Y31178D01*
X37270Y31160D01*
X37147Y31109D01*
X37124Y31092D01*
X32961Y35254D01*
X32928Y35276D01*
X32889Y35284D01*
X26959D01*
Y35332D01*
X26943Y35410D01*
X26899Y35477D01*
X26832Y35521D01*
X26754Y35537D01*
D02*
G37*
G36*
X26052Y30449D02*
X25927Y30436D01*
X25806Y30400D01*
X25694Y30340D01*
X25596Y30260D01*
X25516Y30162D01*
X25457Y30051D01*
X25420Y29930D01*
X25408Y29804D01*
X25420Y29678D01*
X25457Y29557D01*
X25516Y29446D01*
X25596Y29348D01*
X25694Y29268D01*
X25806Y29208D01*
X25927Y29171D01*
X26052Y29159D01*
X26178Y29171D01*
X26299Y29208D01*
X26411Y29268D01*
X26508Y29348D01*
X26589Y29446D01*
X26648Y29557D01*
X26685Y29678D01*
X26697Y29804D01*
X26685Y29930D01*
X26648Y30051D01*
X26589Y30162D01*
X26508Y30260D01*
X26411Y30340D01*
X26299Y30400D01*
X26178Y30436D01*
X26052Y30449D01*
D02*
G37*
G36*
X16856D02*
X16730Y30436D01*
X16609Y30400D01*
X16497Y30340D01*
X16400Y30260D01*
X16319Y30162D01*
X16260Y30051D01*
X16223Y29930D01*
X16211Y29804D01*
X16223Y29678D01*
X16260Y29557D01*
X16319Y29446D01*
X16400Y29348D01*
X16497Y29268D01*
X16609Y29208D01*
X16730Y29171D01*
X16856Y29159D01*
X16981Y29171D01*
X17102Y29208D01*
X17214Y29268D01*
X17311Y29348D01*
X17392Y29446D01*
X17451Y29557D01*
X17488Y29678D01*
X17500Y29804D01*
X17488Y29930D01*
X17451Y30051D01*
X17392Y30162D01*
X17311Y30260D01*
X17214Y30340D01*
X17102Y30400D01*
X16981Y30436D01*
X16856Y30449D01*
D02*
G37*
G36*
X22559Y29348D02*
X22492Y29335D01*
X22436Y29297D01*
X22421Y29276D01*
X20945D01*
X20906Y29268D01*
X20872Y29246D01*
X19525Y27898D01*
X19114D01*
X19100Y27919D01*
X19043Y27957D01*
X18976Y27970D01*
X18910Y27957D01*
X18853Y27919D01*
X18815Y27862D01*
X18802Y27795D01*
X18815Y27728D01*
X18853Y27672D01*
X18910Y27634D01*
X18976Y27621D01*
X19043Y27634D01*
X19100Y27672D01*
X19114Y27693D01*
X19567D01*
X19606Y27701D01*
X19639Y27723D01*
X20987Y29071D01*
X22421D01*
X22436Y29050D01*
X22492Y29012D01*
X22559Y28999D01*
X22626Y29012D01*
X22683Y29050D01*
X22720Y29106D01*
X22734Y29173D01*
X22720Y29240D01*
X22683Y29297D01*
X22626Y29335D01*
X22559Y29348D01*
D02*
G37*
G36*
X37748Y28874D02*
X37595Y28859D01*
X37448Y28814D01*
X37313Y28742D01*
X37194Y28644D01*
X37097Y28526D01*
X37024Y28390D01*
X36980Y28243D01*
X36965Y28091D01*
X36980Y27938D01*
X37024Y27791D01*
X37097Y27655D01*
X37194Y27537D01*
X37313Y27439D01*
X37448Y27367D01*
X37595Y27322D01*
X37748Y27307D01*
X37901Y27322D01*
X38048Y27367D01*
X38183Y27439D01*
X38302Y27537D01*
X38399Y27655D01*
X38472Y27791D01*
X38516Y27938D01*
X38531Y28091D01*
X38516Y28243D01*
X38472Y28390D01*
X38399Y28526D01*
X38302Y28644D01*
X38183Y28742D01*
X38048Y28814D01*
X37901Y28859D01*
X37748Y28874D01*
D02*
G37*
G36*
X29528Y27138D02*
X29436Y27126D01*
X29350Y27090D01*
X29277Y27034D01*
X29221Y26961D01*
X29185Y26875D01*
X29173Y26783D01*
X29185Y26692D01*
X29216Y26617D01*
X27072Y24472D01*
X25295D01*
X25281Y24494D01*
X25224Y24531D01*
X25157Y24545D01*
X25091Y24531D01*
X25034Y24494D01*
X24996Y24437D01*
X24983Y24370D01*
X24996Y24303D01*
X25034Y24247D01*
X25091Y24209D01*
X25157Y24195D01*
X25224Y24209D01*
X25281Y24247D01*
X25295Y24268D01*
X27114D01*
X27153Y24276D01*
X27187Y24298D01*
X29361Y26472D01*
X29436Y26441D01*
X29528Y26429D01*
X29619Y26441D01*
X29705Y26477D01*
X29778Y26533D01*
X29834Y26606D01*
X29870Y26692D01*
X29882Y26783D01*
X29870Y26875D01*
X29834Y26961D01*
X29778Y27034D01*
X29705Y27090D01*
X29619Y27126D01*
X29528Y27138D01*
D02*
G37*
G36*
X34445Y26867D02*
X34051D01*
X33976Y26857D01*
X33906Y26828D01*
X33846Y26782D01*
X33800Y26722D01*
X33771Y26652D01*
X33761Y26577D01*
X33771Y26502D01*
X33800Y26432D01*
X33846Y26372D01*
X33906Y26326D01*
X33976Y26297D01*
X34051Y26287D01*
X34445D01*
X34520Y26297D01*
X34590Y26326D01*
X34650Y26372D01*
X34696Y26432D01*
X34725Y26502D01*
X34735Y26577D01*
X34725Y26652D01*
X34696Y26722D01*
X34650Y26782D01*
X34590Y26828D01*
X34520Y26857D01*
X34445Y26867D01*
D02*
G37*
G36*
X27008Y27048D02*
X26929Y27038D01*
X26856Y27007D01*
X26793Y26959D01*
X26745Y26896D01*
X26714Y26823D01*
X26712Y26806D01*
X25408Y25502D01*
X23741D01*
Y25540D01*
X23280D01*
Y25351D01*
X23277Y25346D01*
X23257Y25249D01*
X23277Y25152D01*
X23280Y25147D01*
Y24957D01*
X23741D01*
Y24996D01*
X25513D01*
X25609Y25015D01*
X25691Y25070D01*
X27070Y26448D01*
X27087Y26451D01*
X27160Y26481D01*
X27223Y26529D01*
X27271Y26592D01*
X27301Y26665D01*
X27312Y26744D01*
X27301Y26823D01*
X27271Y26896D01*
X27223Y26959D01*
X27160Y27007D01*
X27087Y27038D01*
X27008Y27048D01*
D02*
G37*
G36*
X36378Y28560D02*
X36281Y28541D01*
X36199Y28486D01*
X36144Y28404D01*
X36125Y28307D01*
Y26433D01*
X35039D01*
X35000Y26417D01*
X34914Y26331D01*
X34906Y26328D01*
X34846Y26282D01*
X34811Y26237D01*
X33858D01*
X33819Y26220D01*
X33780Y26181D01*
X33763Y26142D01*
Y25593D01*
X33761Y25577D01*
X33763Y25560D01*
Y25394D01*
X33780Y25355D01*
X33819Y25338D01*
X33890D01*
X33906Y25326D01*
X33976Y25297D01*
X34051Y25287D01*
X34445D01*
X34520Y25297D01*
X34590Y25326D01*
X34606Y25338D01*
X34838D01*
X34855Y25288D01*
X34846Y25282D01*
X34800Y25222D01*
X34771Y25152D01*
X34761Y25077D01*
X34771Y25002D01*
X34800Y24932D01*
X34846Y24872D01*
X34906Y24826D01*
X34976Y24797D01*
X35051Y24787D01*
X35445D01*
X35520Y24797D01*
X35590Y24826D01*
X35650Y24872D01*
X35696Y24932D01*
X35725Y25002D01*
X35735Y25077D01*
X35725Y25152D01*
X35696Y25222D01*
X35650Y25282D01*
X35641Y25288D01*
X35658Y25338D01*
X35850D01*
Y19819D01*
X34961D01*
X34921Y19803D01*
X34835Y19717D01*
X34828Y19714D01*
X34767Y19668D01*
X34733Y19622D01*
X33780D01*
X33733Y19657D01*
Y19725D01*
X33783Y19746D01*
X33828Y19712D01*
X33897Y19683D01*
X33972Y19673D01*
X34366D01*
X34441Y19683D01*
X34511Y19712D01*
X34571Y19758D01*
X34617Y19818D01*
X34646Y19888D01*
X34656Y19963D01*
X34646Y20038D01*
X34617Y20108D01*
X34571Y20168D01*
X34511Y20214D01*
X34441Y20243D01*
X34366Y20252D01*
X33972D01*
X33897Y20243D01*
X33828Y20214D01*
X33767Y20168D01*
X33721Y20108D01*
X33701Y20057D01*
X33628Y20056D01*
X33609Y20052D01*
X33591Y20048D01*
X33590Y20047D01*
X33589Y20047D01*
X33573Y20036D01*
X33557Y20026D01*
X33557Y20025D01*
X33556Y20024D01*
X33545Y20008D01*
X33535Y19992D01*
X33535Y19991D01*
X33534Y19990D01*
X33531Y19971D01*
X33527Y19953D01*
Y18500D01*
X33535Y18461D01*
X33557Y18427D01*
X33747Y18237D01*
X33762Y18227D01*
X33770Y18170D01*
X33767Y18168D01*
X33721Y18108D01*
X33692Y18038D01*
X33683Y17963D01*
X33692Y17888D01*
X33721Y17818D01*
X33767Y17758D01*
X33828Y17712D01*
X33897Y17683D01*
X33972Y17673D01*
X34366D01*
X34441Y17683D01*
X34511Y17712D01*
X34571Y17758D01*
X34617Y17818D01*
X34646Y17888D01*
X34653Y17940D01*
X34705Y17959D01*
X34777Y17887D01*
X34811Y17865D01*
X34850Y17857D01*
X35467D01*
X35595Y17729D01*
X35597Y17718D01*
X35595Y17713D01*
X35535Y17695D01*
X35511Y17714D01*
X35441Y17743D01*
X35366Y17752D01*
X34972D01*
X34897Y17743D01*
X34828Y17714D01*
X34767Y17668D01*
X34721Y17608D01*
X34704Y17565D01*
X32619D01*
X30653Y19531D01*
X30646Y19567D01*
X30624Y19600D01*
X29354Y20869D01*
Y22028D01*
X29375Y22042D01*
X29413Y22099D01*
X29427Y22165D01*
X29413Y22232D01*
X29375Y22289D01*
X29319Y22327D01*
X29252Y22340D01*
X29185Y22327D01*
X29128Y22289D01*
X29091Y22232D01*
X29077Y22165D01*
X29091Y22099D01*
X29128Y22042D01*
X29150Y22028D01*
Y20827D01*
X29157Y20788D01*
X29180Y20754D01*
X30450Y19484D01*
X30457Y19449D01*
X30479Y19416D01*
X32504Y17390D01*
X32538Y17368D01*
X32577Y17360D01*
X34704D01*
X34721Y17318D01*
X34767Y17258D01*
X34828Y17212D01*
X34897Y17183D01*
X34972Y17173D01*
X35366D01*
X35441Y17183D01*
X35511Y17212D01*
X35567Y17254D01*
X35601Y17248D01*
X35617Y17242D01*
Y17043D01*
X35552Y16978D01*
X33374D01*
X33335Y16970D01*
X33301Y16948D01*
X32049Y15696D01*
X31982Y15763D01*
X31949Y15785D01*
X31909Y15793D01*
X25625D01*
X25586Y15785D01*
X25552Y15763D01*
X25401Y15612D01*
X25379Y15579D01*
X25371Y15539D01*
Y15509D01*
X25329Y15491D01*
X25269Y15445D01*
X25223Y15385D01*
X25194Y15315D01*
X25185Y15240D01*
Y14846D01*
X25194Y14771D01*
X25223Y14702D01*
X25269Y14641D01*
X25329Y14595D01*
X25399Y14566D01*
X25474Y14557D01*
X25549Y14566D01*
X25619Y14595D01*
X25679Y14641D01*
X25725Y14702D01*
X25754Y14771D01*
X25764Y14846D01*
Y15240D01*
X25754Y15315D01*
X25725Y15385D01*
X25679Y15445D01*
X25633Y15481D01*
X25620Y15539D01*
X25668Y15587D01*
X30797D01*
X30821Y15537D01*
X30811Y15512D01*
Y15401D01*
X30798Y15385D01*
X30769Y15315D01*
X30759Y15240D01*
Y14846D01*
X30769Y14771D01*
X30798Y14702D01*
X30811Y14685D01*
Y14454D01*
X30761Y14437D01*
X30754Y14445D01*
X30694Y14491D01*
X30624Y14520D01*
X30549Y14530D01*
X30474Y14520D01*
X30404Y14491D01*
X30344Y14445D01*
X30298Y14385D01*
X30269Y14315D01*
X30259Y14240D01*
Y13846D01*
X30269Y13771D01*
X30298Y13702D01*
X30344Y13641D01*
X30404Y13595D01*
X30474Y13566D01*
X30549Y13557D01*
X30624Y13566D01*
X30694Y13595D01*
X30754Y13641D01*
X30761Y13650D01*
X30811Y13633D01*
Y13441D01*
X30709D01*
X30669Y13425D01*
X30607Y13362D01*
X25338D01*
X25331Y13369D01*
Y14291D01*
X25315Y14331D01*
X25134Y14511D01*
Y15472D01*
X25118Y15512D01*
X25079Y15551D01*
X25039Y15567D01*
X24291D01*
X24252Y15551D01*
X24236Y15512D01*
Y15401D01*
X24223Y15385D01*
X24194Y15315D01*
X24185Y15240D01*
Y14846D01*
X24194Y14771D01*
X24223Y14702D01*
X24236Y14685D01*
Y14454D01*
X24186Y14437D01*
X24179Y14445D01*
X24119Y14491D01*
X24049Y14520D01*
X23974Y14530D01*
X23899Y14520D01*
X23829Y14491D01*
X23769Y14445D01*
X23723Y14385D01*
X23694Y14315D01*
X23685Y14240D01*
Y13846D01*
X23694Y13771D01*
X23723Y13702D01*
X23769Y13641D01*
X23829Y13595D01*
X23899Y13566D01*
X23974Y13557D01*
X24049Y13566D01*
X24119Y13595D01*
X24179Y13641D01*
X24186Y13650D01*
X24236Y13633D01*
Y13441D01*
X24134D01*
X24095Y13425D01*
X23993Y13323D01*
X18684D01*
X18677Y13330D01*
Y14252D01*
X18661Y14291D01*
X18481Y14472D01*
Y15433D01*
X18464Y15472D01*
X18425Y15512D01*
X18386Y15528D01*
X17638D01*
X17599Y15512D01*
X17582Y15472D01*
Y15362D01*
X17570Y15346D01*
X17541Y15276D01*
X17531Y15201D01*
Y14807D01*
X17541Y14732D01*
X17570Y14662D01*
X17582Y14646D01*
Y14414D01*
X17532Y14397D01*
X17526Y14406D01*
X17466Y14452D01*
X17396Y14481D01*
X17321Y14491D01*
X17246Y14481D01*
X17176Y14452D01*
X17116Y14406D01*
X17070Y14346D01*
X17041Y14276D01*
X17031Y14201D01*
Y13807D01*
X17041Y13732D01*
X17070Y13662D01*
X17116Y13602D01*
X17176Y13556D01*
X17246Y13527D01*
X17321Y13517D01*
X17396Y13527D01*
X17466Y13556D01*
X17526Y13602D01*
X17532Y13611D01*
X17582Y13594D01*
Y13402D01*
X13724D01*
X13638Y13488D01*
Y18449D01*
X14528D01*
X14567Y18465D01*
X14747Y18645D01*
X14869D01*
X14886Y18595D01*
X14878Y18589D01*
X14832Y18529D01*
X14803Y18459D01*
X14793Y18384D01*
X14803Y18309D01*
X14832Y18239D01*
X14878Y18179D01*
X14938Y18133D01*
X15008Y18104D01*
X15083Y18094D01*
X15476D01*
X15551Y18104D01*
X15621Y18133D01*
X15681Y18179D01*
X15727Y18239D01*
X15745Y18281D01*
X18103D01*
X18718Y17666D01*
Y15469D01*
X18676Y15452D01*
X18616Y15406D01*
X18570Y15346D01*
X18541Y15276D01*
X18531Y15201D01*
Y14807D01*
X18541Y14732D01*
X18570Y14662D01*
X18616Y14602D01*
X18676Y14556D01*
X18746Y14527D01*
X18821Y14517D01*
X18896Y14527D01*
X18966Y14556D01*
X19026Y14602D01*
X19072Y14662D01*
X19101Y14732D01*
X19111Y14807D01*
Y15201D01*
X19101Y15276D01*
X19072Y15346D01*
X19026Y15406D01*
X18966Y15452D01*
X18924Y15469D01*
Y17709D01*
X18916Y17749D01*
X18894Y17782D01*
X18219Y18457D01*
X18186Y18479D01*
X18146Y18487D01*
X15745D01*
X15727Y18529D01*
X15681Y18589D01*
X15673Y18595D01*
X15690Y18645D01*
X15709D01*
X15748Y18662D01*
X15787Y18701D01*
X15803Y18740D01*
Y19488D01*
X15787Y19527D01*
X15748Y19544D01*
X15716D01*
X15681Y19589D01*
X15621Y19635D01*
X15551Y19664D01*
X15476Y19674D01*
X15083D01*
X15008Y19664D01*
X14938Y19635D01*
X14878Y19589D01*
X14843Y19544D01*
X13645D01*
X13638Y19551D01*
Y25928D01*
X16155D01*
X17183Y24900D01*
X17265Y24845D01*
X17362Y24826D01*
X18569D01*
X18585Y24746D01*
X18640Y24664D01*
X18722Y24609D01*
X18819Y24590D01*
X19843D01*
X19939Y24609D01*
X19970Y24630D01*
X20354D01*
X20394Y24646D01*
X20410Y24685D01*
Y25079D01*
X20394Y25118D01*
X20371Y25127D01*
X20352Y25172D01*
X20351Y25184D01*
X20352Y25185D01*
X20358Y25217D01*
Y25276D01*
X20352Y25307D01*
X20334Y25334D01*
X20307Y25352D01*
X20276Y25358D01*
X20079D01*
X20047Y25352D01*
X20021Y25334D01*
X20003Y25307D01*
X19996Y25276D01*
Y25217D01*
X20003Y25185D01*
X20003Y25184D01*
X19977Y25134D01*
X19885D01*
X19882Y25135D01*
X19879Y25134D01*
X19764D01*
X19725Y25118D01*
X19715Y25095D01*
X19205D01*
Y25328D01*
X18843D01*
X18819Y25333D01*
X18813Y25332D01*
X17467D01*
X16439Y26360D01*
X16357Y26415D01*
X16260Y26434D01*
X13638D01*
Y27362D01*
X13622Y27401D01*
X13583Y27418D01*
X10039D01*
X10000Y27401D01*
X9984Y27362D01*
Y10551D01*
X10000Y10512D01*
X10473Y10040D01*
X10512Y10023D01*
X38898D01*
X38937Y10040D01*
X39212Y10315D01*
X39229Y10354D01*
Y26378D01*
X39212Y26417D01*
X39173Y26433D01*
X36631D01*
Y28307D01*
X36612Y28404D01*
X36557Y28486D01*
X36475Y28541D01*
X36378Y28560D01*
D02*
G37*
G36*
X34445Y24867D02*
X34051D01*
X33976Y24857D01*
X33906Y24828D01*
X33846Y24782D01*
X33800Y24722D01*
X33771Y24652D01*
X33761Y24577D01*
X33771Y24502D01*
X33800Y24432D01*
X33846Y24372D01*
X33906Y24326D01*
X33976Y24297D01*
X34051Y24287D01*
X34445D01*
X34520Y24297D01*
X34590Y24326D01*
X34650Y24372D01*
X34696Y24432D01*
X34725Y24502D01*
X34735Y24577D01*
X34725Y24652D01*
X34696Y24722D01*
X34650Y24782D01*
X34590Y24828D01*
X34520Y24857D01*
X34445Y24867D01*
D02*
G37*
G36*
X35445Y24367D02*
X35051D01*
X34976Y24357D01*
X34906Y24328D01*
X34846Y24282D01*
X34800Y24222D01*
X34771Y24152D01*
X34761Y24077D01*
X34771Y24002D01*
X34800Y23932D01*
X34846Y23872D01*
X34906Y23826D01*
X34976Y23797D01*
X35051Y23787D01*
X35445D01*
X35520Y23797D01*
X35590Y23826D01*
X35650Y23872D01*
X35696Y23932D01*
X35725Y24002D01*
X35735Y24077D01*
X35725Y24152D01*
X35696Y24222D01*
X35650Y24282D01*
X35590Y24328D01*
X35520Y24357D01*
X35445Y24367D01*
D02*
G37*
G36*
X25630Y21159D02*
X25563Y21146D01*
X25506Y21108D01*
X25469Y21051D01*
X25455Y20984D01*
X25460Y20959D01*
X22902Y18401D01*
X22880Y18368D01*
X22872Y18329D01*
Y14509D01*
X22829Y14491D01*
X22769Y14445D01*
X22723Y14385D01*
X22694Y14315D01*
X22685Y14240D01*
Y13846D01*
X22694Y13771D01*
X22723Y13702D01*
X22769Y13641D01*
X22829Y13595D01*
X22899Y13566D01*
X22974Y13557D01*
X23049Y13566D01*
X23119Y13595D01*
X23179Y13641D01*
X23225Y13702D01*
X23254Y13771D01*
X23264Y13846D01*
Y14240D01*
X23254Y14315D01*
X23225Y14385D01*
X23179Y14445D01*
X23119Y14491D01*
X23077Y14509D01*
Y18286D01*
X25605Y20815D01*
X25630Y20810D01*
X25697Y20823D01*
X25753Y20861D01*
X25791Y20917D01*
X25805Y20984D01*
X25791Y21051D01*
X25753Y21108D01*
X25697Y21146D01*
X25630Y21159D01*
D02*
G37*
G36*
X14476Y21174D02*
X14083D01*
X14008Y21164D01*
X13938Y21135D01*
X13878Y21089D01*
X13832Y21029D01*
X13803Y20959D01*
X13793Y20884D01*
X13803Y20809D01*
X13832Y20739D01*
X13878Y20679D01*
X13938Y20633D01*
X14008Y20604D01*
X14083Y20594D01*
X14476D01*
X14551Y20604D01*
X14621Y20633D01*
X14681Y20679D01*
X14727Y20739D01*
X14756Y20809D01*
X14766Y20884D01*
X14756Y20959D01*
X14727Y21029D01*
X14681Y21089D01*
X14621Y21135D01*
X14551Y21164D01*
X14476Y21174D01*
D02*
G37*
G36*
X15476Y20674D02*
X15083D01*
X15008Y20664D01*
X14938Y20635D01*
X14878Y20589D01*
X14832Y20529D01*
X14803Y20459D01*
X14793Y20384D01*
X14803Y20309D01*
X14832Y20239D01*
X14878Y20179D01*
X14938Y20133D01*
X15008Y20104D01*
X15083Y20094D01*
X15476D01*
X15551Y20104D01*
X15621Y20133D01*
X15681Y20179D01*
X15727Y20239D01*
X15756Y20309D01*
X15766Y20384D01*
X15756Y20459D01*
X15727Y20529D01*
X15681Y20589D01*
X15621Y20635D01*
X15551Y20664D01*
X15476Y20674D01*
D02*
G37*
G36*
X14476Y20174D02*
X14083D01*
X14008Y20164D01*
X13938Y20135D01*
X13878Y20089D01*
X13832Y20029D01*
X13803Y19959D01*
X13793Y19884D01*
X13803Y19809D01*
X13832Y19739D01*
X13878Y19679D01*
X13938Y19633D01*
X14008Y19604D01*
X14083Y19594D01*
X14476D01*
X14551Y19604D01*
X14621Y19633D01*
X14681Y19679D01*
X14727Y19739D01*
X14756Y19809D01*
X14766Y19884D01*
X14756Y19959D01*
X14727Y20029D01*
X14681Y20089D01*
X14621Y20135D01*
X14551Y20164D01*
X14476Y20174D01*
D02*
G37*
G36*
X30049Y15530D02*
X29974Y15520D01*
X29904Y15491D01*
X29844Y15445D01*
X29798Y15385D01*
X29769Y15315D01*
X29759Y15240D01*
Y14846D01*
X29769Y14771D01*
X29798Y14702D01*
X29844Y14641D01*
X29904Y14595D01*
X29974Y14566D01*
X30049Y14557D01*
X30124Y14566D01*
X30194Y14595D01*
X30254Y14641D01*
X30300Y14702D01*
X30329Y14771D01*
X30339Y14846D01*
Y15240D01*
X30329Y15315D01*
X30300Y15385D01*
X30254Y15445D01*
X30194Y15491D01*
X30124Y15520D01*
X30049Y15530D01*
D02*
G37*
G36*
X23474D02*
X23399Y15520D01*
X23329Y15491D01*
X23269Y15445D01*
X23223Y15385D01*
X23194Y15315D01*
X23185Y15240D01*
Y14846D01*
X23194Y14771D01*
X23223Y14702D01*
X23269Y14641D01*
X23329Y14595D01*
X23399Y14566D01*
X23474Y14557D01*
X23549Y14566D01*
X23619Y14595D01*
X23679Y14641D01*
X23725Y14702D01*
X23754Y14771D01*
X23764Y14846D01*
Y15240D01*
X23754Y15315D01*
X23725Y15385D01*
X23679Y15445D01*
X23619Y15491D01*
X23549Y15520D01*
X23474Y15530D01*
D02*
G37*
G36*
X16821Y15491D02*
X16746Y15481D01*
X16676Y15452D01*
X16616Y15406D01*
X16570Y15346D01*
X16541Y15276D01*
X16531Y15201D01*
Y14807D01*
X16541Y14732D01*
X16570Y14662D01*
X16616Y14602D01*
X16676Y14556D01*
X16746Y14527D01*
X16821Y14517D01*
X16896Y14527D01*
X16966Y14556D01*
X17026Y14602D01*
X17072Y14662D01*
X17101Y14732D01*
X17111Y14807D01*
Y15201D01*
X17101Y15276D01*
X17072Y15346D01*
X17026Y15406D01*
X16966Y15452D01*
X16896Y15481D01*
X16821Y15491D01*
D02*
G37*
G36*
X29549Y14530D02*
X29474Y14520D01*
X29404Y14491D01*
X29344Y14445D01*
X29298Y14385D01*
X29269Y14315D01*
X29259Y14240D01*
Y13846D01*
X29269Y13771D01*
X29298Y13702D01*
X29344Y13641D01*
X29404Y13595D01*
X29474Y13566D01*
X29549Y13557D01*
X29624Y13566D01*
X29694Y13595D01*
X29754Y13641D01*
X29800Y13702D01*
X29829Y13771D01*
X29839Y13846D01*
Y14240D01*
X29829Y14315D01*
X29800Y14385D01*
X29754Y14445D01*
X29694Y14491D01*
X29624Y14520D01*
X29549Y14530D01*
D02*
G37*
G36*
X16321Y14491D02*
X16246Y14481D01*
X16176Y14452D01*
X16116Y14406D01*
X16070Y14346D01*
X16041Y14276D01*
X16031Y14201D01*
Y13807D01*
X16041Y13732D01*
X16070Y13662D01*
X16116Y13602D01*
X16176Y13556D01*
X16246Y13527D01*
X16321Y13517D01*
X16396Y13527D01*
X16466Y13556D01*
X16526Y13602D01*
X16572Y13662D01*
X16601Y13732D01*
X16611Y13807D01*
Y14201D01*
X16601Y14276D01*
X16572Y14346D01*
X16526Y14406D01*
X16466Y14452D01*
X16396Y14481D01*
X16321Y14491D01*
D02*
G37*
%LPD*%
G36*
X37570Y48309D02*
X37735Y48270D01*
X37891Y48205D01*
X38035Y48116D01*
X38164Y48007D01*
X38274Y47878D01*
X38362Y47734D01*
X38427Y47577D01*
X38467Y47413D01*
X38480Y47244D01*
X38467Y47075D01*
X38427Y46911D01*
X38362Y46755D01*
X38274Y46610D01*
X38164Y46482D01*
X38035Y46372D01*
X37891Y46283D01*
X37735Y46219D01*
X37570Y46179D01*
X37402Y46166D01*
X37233Y46179D01*
X37068Y46219D01*
X36912Y46283D01*
X36768Y46372D01*
X36639Y46482D01*
X36529Y46610D01*
X36441Y46755D01*
X36376Y46911D01*
X36337Y47075D01*
X36323Y47244D01*
X36337Y47413D01*
X36376Y47577D01*
X36441Y47734D01*
X36529Y47878D01*
X36639Y48007D01*
X36768Y48116D01*
X36912Y48205D01*
X37068Y48270D01*
X37233Y48309D01*
X37402Y48322D01*
X37570Y48309D01*
D02*
G37*
%LPC*%
G36*
X37402Y47988D02*
X37256Y47974D01*
X37117Y47931D01*
X36988Y47863D01*
X36876Y47770D01*
X36783Y47657D01*
X36714Y47529D01*
X36672Y47389D01*
X36658Y47244D01*
X36672Y47099D01*
X36714Y46959D01*
X36783Y46831D01*
X36876Y46718D01*
X36988Y46626D01*
X37117Y46557D01*
X37256Y46515D01*
X37402Y46500D01*
X37547Y46515D01*
X37686Y46557D01*
X37815Y46626D01*
X37927Y46718D01*
X38020Y46831D01*
X38089Y46959D01*
X38131Y47099D01*
X38145Y47244D01*
X38131Y47389D01*
X38089Y47529D01*
X38020Y47657D01*
X37927Y47770D01*
X37815Y47863D01*
X37686Y47931D01*
X37547Y47974D01*
X37402Y47988D01*
D02*
G37*
%LPD*%
G36*
X11980Y48309D02*
X12144Y48270D01*
X12301Y48205D01*
X12445Y48116D01*
X12573Y48007D01*
X12683Y47878D01*
X12772Y47734D01*
X12836Y47577D01*
X12876Y47413D01*
X12889Y47244D01*
X12876Y47075D01*
X12836Y46911D01*
X12772Y46755D01*
X12683Y46610D01*
X12573Y46482D01*
X12445Y46372D01*
X12301Y46283D01*
X12144Y46219D01*
X11980Y46179D01*
X11811Y46166D01*
X11642Y46179D01*
X11478Y46219D01*
X11322Y46283D01*
X11177Y46372D01*
X11049Y46482D01*
X10939Y46610D01*
X10850Y46755D01*
X10786Y46911D01*
X10746Y47075D01*
X10733Y47244D01*
X10746Y47413D01*
X10786Y47577D01*
X10850Y47734D01*
X10939Y47878D01*
X11049Y48007D01*
X11177Y48116D01*
X11322Y48205D01*
X11478Y48270D01*
X11642Y48309D01*
X11811Y48322D01*
X11980Y48309D01*
D02*
G37*
G36*
X20376Y44773D02*
X20261Y44657D01*
X19880D01*
Y44394D01*
X19094D01*
X19055Y44386D01*
X19022Y44364D01*
X18893Y44234D01*
X18843Y44255D01*
Y44761D01*
X18901Y44819D01*
X20357D01*
X20376Y44773D01*
D02*
G37*
G36*
X21691Y43627D02*
X21658Y43594D01*
X21209D01*
Y42898D01*
X20849D01*
X20602Y43145D01*
Y43594D01*
X20146D01*
Y43449D01*
X19488D01*
X19478Y43447D01*
X19274D01*
X19250Y43462D01*
X19234Y43486D01*
Y43666D01*
X19245Y43677D01*
X19351D01*
X19365Y43656D01*
X19421Y43618D01*
X19488Y43605D01*
X19555Y43618D01*
X19612Y43656D01*
X19626Y43677D01*
X21670D01*
X21691Y43627D01*
D02*
G37*
G36*
X19244Y43457D02*
X19260Y43433D01*
Y43246D01*
Y42852D01*
Y42459D01*
X19260Y42110D01*
X19260Y42095D01*
X19256Y42078D01*
X19252Y42066D01*
X19244Y42055D01*
X19233Y42048D01*
X19221Y42043D01*
X19205Y42039D01*
X19190Y42039D01*
X17897Y42039D01*
X17882Y42039D01*
X17865Y42043D01*
X17854Y42048D01*
X17842Y42055D01*
X17835Y42066D01*
X17831Y42078D01*
X17827Y42095D01*
X17827Y42109D01*
Y42656D01*
Y43049D01*
X17827Y43402D01*
X17827Y43417D01*
X17831Y43434D01*
X17835Y43446D01*
X17842Y43457D01*
X17854Y43464D01*
X17865Y43469D01*
X17882Y43472D01*
X17897Y43472D01*
X19220D01*
X19244Y43457D01*
D02*
G37*
%LPC*%
G36*
X11811Y47988D02*
X11666Y47974D01*
X11526Y47931D01*
X11398Y47863D01*
X11285Y47770D01*
X11193Y47657D01*
X11124Y47529D01*
X11082Y47389D01*
X11067Y47244D01*
X11082Y47099D01*
X11124Y46959D01*
X11193Y46831D01*
X11285Y46718D01*
X11398Y46626D01*
X11526Y46557D01*
X11666Y46515D01*
X11811Y46500D01*
X11956Y46515D01*
X12096Y46557D01*
X12224Y46626D01*
X12337Y46718D01*
X12429Y46831D01*
X12498Y46959D01*
X12540Y47099D01*
X12555Y47244D01*
X12540Y47389D01*
X12498Y47529D01*
X12429Y47657D01*
X12337Y47770D01*
X12224Y47863D01*
X12096Y47931D01*
X11956Y47974D01*
X11811Y47988D01*
D02*
G37*
%LPD*%
G36*
X34776Y18674D02*
X34767Y18668D01*
X34721Y18608D01*
X34692Y18538D01*
X34683Y18463D01*
X34692Y18388D01*
X34721Y18318D01*
X34762Y18264D01*
X34725Y18231D01*
X34573Y18383D01*
X34539Y18405D01*
X34500Y18413D01*
X33863D01*
X33733Y18543D01*
Y18719D01*
X33740Y18724D01*
X33811D01*
X33828Y18712D01*
X33897Y18683D01*
X33972Y18673D01*
X34366D01*
X34441Y18683D01*
X34511Y18712D01*
X34527Y18724D01*
X34759D01*
X34776Y18674D01*
D02*
G37*
G36*
X35811Y17876D02*
X35761Y17855D01*
X35583Y18033D01*
X35549Y18055D01*
X35510Y18063D01*
X34893D01*
X34741Y18215D01*
X34774Y18253D01*
X34828Y18212D01*
X34897Y18183D01*
X34972Y18173D01*
X35366D01*
X35441Y18183D01*
X35511Y18212D01*
X35571Y18258D01*
X35617Y18318D01*
X35646Y18388D01*
X35656Y18463D01*
X35646Y18538D01*
X35617Y18608D01*
X35571Y18668D01*
X35563Y18674D01*
X35580Y18724D01*
X35811D01*
Y17876D01*
D02*
G37*
G36*
Y16874D02*
Y15850D01*
X33363Y13402D01*
X31906D01*
Y14291D01*
X31890Y14331D01*
X31709Y14511D01*
Y15472D01*
X31693Y15512D01*
X31667Y15537D01*
X31688Y15587D01*
X31866D01*
X31914Y15539D01*
X31912Y15529D01*
X31897Y15486D01*
X31844Y15445D01*
X31798Y15385D01*
X31769Y15315D01*
X31759Y15240D01*
Y14846D01*
X31769Y14771D01*
X31798Y14702D01*
X31844Y14641D01*
X31904Y14595D01*
X31974Y14566D01*
X32049Y14557D01*
X32124Y14566D01*
X32194Y14595D01*
X32254Y14641D01*
X32300Y14702D01*
X32329Y14771D01*
X32339Y14846D01*
Y15240D01*
X32329Y15315D01*
X32300Y15385D01*
X32254Y15445D01*
X32201Y15486D01*
X32187Y15529D01*
X32185Y15539D01*
X33417Y16772D01*
X35595D01*
X35634Y16780D01*
X35668Y16802D01*
X35761Y16895D01*
X35811Y16874D01*
D02*
G37*
G36*
X13583Y19528D02*
X13622Y19488D01*
X15748D01*
Y18740D01*
X15709Y18701D01*
X14724D01*
X14528Y18504D01*
X13583D01*
Y13465D01*
X13701Y13346D01*
X17638D01*
Y15472D01*
X18386D01*
X18425Y15433D01*
Y14449D01*
X18622Y14252D01*
Y13307D01*
X18661Y13268D01*
X24016D01*
X24134Y13386D01*
X24291D01*
Y15512D01*
X25039D01*
X25079Y15472D01*
Y14488D01*
X25276Y14291D01*
Y13346D01*
X25315Y13307D01*
X30630D01*
X30709Y13386D01*
X30866D01*
Y15512D01*
X31614D01*
X31654Y15472D01*
Y14488D01*
X31850Y14291D01*
Y13346D01*
X33386D01*
X35866Y15827D01*
Y18780D01*
X33740D01*
Y19528D01*
X33780Y19567D01*
X34764D01*
X34961Y19764D01*
X35906D01*
Y25354D01*
X35945Y25394D01*
X33819D01*
Y26142D01*
X33858Y26181D01*
X34843D01*
X35039Y26378D01*
X39173D01*
Y10354D01*
X38898Y10079D01*
X10512D01*
X10039Y10551D01*
Y27362D01*
X13583D01*
Y19528D01*
D02*
G37*
%LPC*%
G36*
X11614Y24721D02*
X11483Y24704D01*
X11360Y24653D01*
X11255Y24572D01*
X11174Y24467D01*
X11123Y24344D01*
X11106Y24213D01*
X11123Y24081D01*
X11174Y23958D01*
X11255Y23853D01*
X11360Y23772D01*
X11483Y23722D01*
X11614Y23704D01*
X11746Y23722D01*
X11868Y23772D01*
X11974Y23853D01*
X12054Y23958D01*
X12105Y24081D01*
X12122Y24213D01*
X12105Y24344D01*
X12054Y24467D01*
X11974Y24572D01*
X11868Y24653D01*
X11746Y24704D01*
X11614Y24721D01*
D02*
G37*
G36*
X37748Y24346D02*
X37595Y24331D01*
X37448Y24287D01*
X37313Y24214D01*
X37194Y24117D01*
X37097Y23998D01*
X37024Y23863D01*
X36980Y23716D01*
X36965Y23563D01*
X36980Y23410D01*
X37024Y23263D01*
X37097Y23128D01*
X37194Y23009D01*
X37313Y22912D01*
X37448Y22839D01*
X37595Y22795D01*
X37748Y22780D01*
X37901Y22795D01*
X38048Y22839D01*
X38183Y22912D01*
X38302Y23009D01*
X38399Y23128D01*
X38472Y23263D01*
X38516Y23410D01*
X38531Y23563D01*
X38516Y23716D01*
X38472Y23863D01*
X38399Y23998D01*
X38302Y24117D01*
X38183Y24214D01*
X38048Y24287D01*
X37901Y24331D01*
X37748Y24346D01*
D02*
G37*
G36*
X37669Y22260D02*
X37516Y22245D01*
X37370Y22200D01*
X37234Y22128D01*
X37115Y22030D01*
X37018Y21912D01*
X36946Y21776D01*
X36901Y21629D01*
X36886Y21476D01*
X36901Y21324D01*
X36946Y21177D01*
X37018Y21041D01*
X37115Y20923D01*
X37234Y20825D01*
X37370Y20753D01*
X37516Y20708D01*
X37669Y20693D01*
X37822Y20708D01*
X37969Y20753D01*
X38104Y20825D01*
X38223Y20923D01*
X38321Y21041D01*
X38393Y21177D01*
X38438Y21324D01*
X38453Y21476D01*
X38438Y21629D01*
X38393Y21776D01*
X38321Y21912D01*
X38223Y22030D01*
X38104Y22128D01*
X37969Y22200D01*
X37822Y22245D01*
X37669Y22260D01*
D02*
G37*
G36*
X11780Y22181D02*
X11627Y22166D01*
X11480Y22121D01*
X11344Y22049D01*
X11226Y21952D01*
X11128Y21833D01*
X11056Y21697D01*
X11011Y21550D01*
X10996Y21398D01*
X11011Y21245D01*
X11056Y21098D01*
X11128Y20962D01*
X11226Y20844D01*
X11344Y20746D01*
X11480Y20674D01*
X11627Y20629D01*
X11780Y20614D01*
X11932Y20629D01*
X12079Y20674D01*
X12215Y20746D01*
X12333Y20844D01*
X12431Y20962D01*
X12503Y21098D01*
X12548Y21245D01*
X12563Y21398D01*
X12548Y21550D01*
X12503Y21697D01*
X12431Y21833D01*
X12333Y21952D01*
X12215Y22049D01*
X12079Y22121D01*
X11932Y22166D01*
X11780Y22181D01*
D02*
G37*
G36*
X37669Y17732D02*
X37516Y17717D01*
X37370Y17672D01*
X37234Y17600D01*
X37115Y17503D01*
X37018Y17384D01*
X36946Y17249D01*
X36901Y17102D01*
X36886Y16949D01*
X36901Y16796D01*
X36946Y16649D01*
X37018Y16514D01*
X37115Y16395D01*
X37234Y16298D01*
X37370Y16225D01*
X37516Y16181D01*
X37669Y16166D01*
X37822Y16181D01*
X37969Y16225D01*
X38104Y16298D01*
X38223Y16395D01*
X38321Y16514D01*
X38393Y16649D01*
X38438Y16796D01*
X38453Y16949D01*
X38438Y17102D01*
X38393Y17249D01*
X38321Y17384D01*
X38223Y17503D01*
X38104Y17600D01*
X37969Y17672D01*
X37822Y17717D01*
X37669Y17732D01*
D02*
G37*
G36*
X11780Y17653D02*
X11627Y17638D01*
X11480Y17594D01*
X11344Y17521D01*
X11226Y17424D01*
X11128Y17305D01*
X11056Y17170D01*
X11011Y17023D01*
X10996Y16870D01*
X11011Y16717D01*
X11056Y16570D01*
X11128Y16435D01*
X11226Y16316D01*
X11344Y16219D01*
X11480Y16146D01*
X11627Y16102D01*
X11780Y16087D01*
X11932Y16102D01*
X12079Y16146D01*
X12215Y16219D01*
X12333Y16316D01*
X12431Y16435D01*
X12503Y16570D01*
X12548Y16717D01*
X12563Y16870D01*
X12548Y17023D01*
X12503Y17170D01*
X12431Y17305D01*
X12333Y17424D01*
X12215Y17521D01*
X12079Y17594D01*
X11932Y17638D01*
X11780Y17653D01*
D02*
G37*
G36*
X33563Y12327D02*
X33410Y12312D01*
X33263Y12267D01*
X33128Y12195D01*
X33009Y12097D01*
X32912Y11978D01*
X32839Y11843D01*
X32795Y11696D01*
X32780Y11543D01*
X32795Y11390D01*
X32839Y11244D01*
X32912Y11108D01*
X33009Y10989D01*
X33128Y10892D01*
X33263Y10820D01*
X33410Y10775D01*
X33563Y10760D01*
X33716Y10775D01*
X33863Y10820D01*
X33998Y10892D01*
X34117Y10989D01*
X34214Y11108D01*
X34287Y11244D01*
X34331Y11390D01*
X34346Y11543D01*
X34331Y11696D01*
X34287Y11843D01*
X34214Y11978D01*
X34117Y12097D01*
X33998Y12195D01*
X33863Y12267D01*
X33716Y12312D01*
X33563Y12327D01*
D02*
G37*
G36*
X29035D02*
X28883Y12312D01*
X28736Y12267D01*
X28600Y12195D01*
X28482Y12097D01*
X28384Y11978D01*
X28312Y11843D01*
X28267Y11696D01*
X28252Y11543D01*
X28267Y11390D01*
X28312Y11244D01*
X28384Y11108D01*
X28482Y10989D01*
X28600Y10892D01*
X28736Y10820D01*
X28883Y10775D01*
X29035Y10760D01*
X29188Y10775D01*
X29335Y10820D01*
X29471Y10892D01*
X29589Y10989D01*
X29687Y11108D01*
X29759Y11244D01*
X29804Y11390D01*
X29819Y11543D01*
X29804Y11696D01*
X29759Y11843D01*
X29687Y11978D01*
X29589Y12097D01*
X29471Y12195D01*
X29335Y12267D01*
X29188Y12312D01*
X29035Y12327D01*
D02*
G37*
G36*
X26988D02*
X26835Y12312D01*
X26688Y12267D01*
X26553Y12195D01*
X26434Y12097D01*
X26337Y11978D01*
X26265Y11843D01*
X26220Y11696D01*
X26205Y11543D01*
X26220Y11390D01*
X26265Y11244D01*
X26337Y11108D01*
X26434Y10989D01*
X26553Y10892D01*
X26688Y10820D01*
X26835Y10775D01*
X26988Y10760D01*
X27141Y10775D01*
X27288Y10820D01*
X27423Y10892D01*
X27542Y10989D01*
X27639Y11108D01*
X27712Y11244D01*
X27756Y11390D01*
X27771Y11543D01*
X27756Y11696D01*
X27712Y11843D01*
X27639Y11978D01*
X27542Y12097D01*
X27423Y12195D01*
X27288Y12267D01*
X27141Y12312D01*
X26988Y12327D01*
D02*
G37*
G36*
X22461D02*
X22308Y12312D01*
X22161Y12267D01*
X22025Y12195D01*
X21907Y12097D01*
X21809Y11978D01*
X21737Y11843D01*
X21692Y11696D01*
X21677Y11543D01*
X21692Y11390D01*
X21737Y11244D01*
X21809Y11108D01*
X21907Y10989D01*
X22025Y10892D01*
X22161Y10820D01*
X22308Y10775D01*
X22461Y10760D01*
X22613Y10775D01*
X22760Y10820D01*
X22896Y10892D01*
X23015Y10989D01*
X23112Y11108D01*
X23184Y11244D01*
X23229Y11390D01*
X23244Y11543D01*
X23229Y11696D01*
X23184Y11843D01*
X23112Y11978D01*
X23015Y12097D01*
X22896Y12195D01*
X22760Y12267D01*
X22613Y12312D01*
X22461Y12327D01*
D02*
G37*
G36*
X20335Y12287D02*
X20182Y12272D01*
X20035Y12228D01*
X19899Y12155D01*
X19781Y12058D01*
X19683Y11939D01*
X19611Y11804D01*
X19566Y11657D01*
X19551Y11504D01*
X19566Y11351D01*
X19611Y11204D01*
X19683Y11069D01*
X19781Y10950D01*
X19899Y10853D01*
X20035Y10780D01*
X20182Y10736D01*
X20335Y10721D01*
X20487Y10736D01*
X20634Y10780D01*
X20770Y10853D01*
X20889Y10950D01*
X20986Y11069D01*
X21058Y11204D01*
X21103Y11351D01*
X21118Y11504D01*
X21103Y11657D01*
X21058Y11804D01*
X20986Y11939D01*
X20889Y12058D01*
X20770Y12155D01*
X20634Y12228D01*
X20487Y12272D01*
X20335Y12287D01*
D02*
G37*
G36*
X15807D02*
X15654Y12272D01*
X15507Y12228D01*
X15372Y12155D01*
X15253Y12058D01*
X15156Y11939D01*
X15083Y11804D01*
X15039Y11657D01*
X15024Y11504D01*
X15039Y11351D01*
X15083Y11204D01*
X15156Y11069D01*
X15253Y10950D01*
X15372Y10853D01*
X15507Y10780D01*
X15654Y10736D01*
X15807Y10721D01*
X15960Y10736D01*
X16107Y10780D01*
X16242Y10853D01*
X16361Y10950D01*
X16458Y11069D01*
X16531Y11204D01*
X16575Y11351D01*
X16590Y11504D01*
X16575Y11657D01*
X16531Y11804D01*
X16458Y11939D01*
X16361Y12058D01*
X16242Y12155D01*
X16107Y12228D01*
X15960Y12272D01*
X15807Y12287D01*
D02*
G37*
G36*
X37402Y13097D02*
X37200Y13081D01*
X37004Y13034D01*
X36818Y12957D01*
X36646Y12852D01*
X36492Y12721D01*
X36361Y12567D01*
X36256Y12395D01*
X36178Y12208D01*
X36131Y12012D01*
X36115Y11811D01*
X36131Y11610D01*
X36178Y11414D01*
X36256Y11227D01*
X36361Y11055D01*
X36492Y10901D01*
X36646Y10770D01*
X36818Y10665D01*
X37004Y10588D01*
X37200Y10541D01*
X37402Y10525D01*
X37603Y10541D01*
X37799Y10588D01*
X37986Y10665D01*
X38158Y10770D01*
X38311Y10901D01*
X38442Y11055D01*
X38548Y11227D01*
X38625Y11414D01*
X38672Y11610D01*
X38688Y11811D01*
X38672Y12012D01*
X38625Y12208D01*
X38548Y12395D01*
X38442Y12567D01*
X38311Y12721D01*
X38158Y12852D01*
X37986Y12957D01*
X37799Y13034D01*
X37603Y13081D01*
X37402Y13097D01*
D02*
G37*
G36*
X11811D02*
X11610Y13081D01*
X11414Y13034D01*
X11227Y12957D01*
X11055Y12852D01*
X10901Y12721D01*
X10770Y12567D01*
X10665Y12395D01*
X10588Y12208D01*
X10541Y12012D01*
X10525Y11811D01*
X10541Y11610D01*
X10588Y11414D01*
X10665Y11227D01*
X10770Y11055D01*
X10901Y10901D01*
X11055Y10770D01*
X11227Y10665D01*
X11414Y10588D01*
X11610Y10541D01*
X11811Y10525D01*
X12012Y10541D01*
X12208Y10588D01*
X12395Y10665D01*
X12567Y10770D01*
X12721Y10901D01*
X12852Y11055D01*
X12957Y11227D01*
X13034Y11414D01*
X13081Y11610D01*
X13097Y11811D01*
X13081Y12012D01*
X13034Y12208D01*
X12957Y12395D01*
X12852Y12567D01*
X12721Y12721D01*
X12567Y12852D01*
X12395Y12957D01*
X12208Y13034D01*
X12012Y13081D01*
X11811Y13097D01*
D02*
G37*
%LPD*%
G36*
X11731Y24650D02*
X11840Y24604D01*
X11934Y24532D01*
X12006Y24439D01*
X12051Y24330D01*
X12067Y24213D01*
X12051Y24096D01*
X12006Y23986D01*
X11934Y23893D01*
X11840Y23821D01*
X11731Y23776D01*
X11614Y23760D01*
X11497Y23776D01*
X11388Y23821D01*
X11294Y23893D01*
X11222Y23986D01*
X11177Y24096D01*
X11162Y24213D01*
X11177Y24330D01*
X11222Y24439D01*
X11294Y24532D01*
X11388Y24604D01*
X11497Y24650D01*
X11614Y24665D01*
X11731Y24650D01*
D02*
G37*
G36*
X37570Y12876D02*
X37735Y12836D01*
X37891Y12772D01*
X38035Y12683D01*
X38164Y12573D01*
X38274Y12445D01*
X38362Y12301D01*
X38427Y12144D01*
X38467Y11980D01*
X38480Y11811D01*
X38467Y11642D01*
X38427Y11478D01*
X38362Y11322D01*
X38274Y11177D01*
X38164Y11049D01*
X38035Y10939D01*
X37891Y10850D01*
X37735Y10786D01*
X37570Y10746D01*
X37402Y10733D01*
X37233Y10746D01*
X37068Y10786D01*
X36912Y10850D01*
X36768Y10939D01*
X36639Y11049D01*
X36529Y11177D01*
X36441Y11322D01*
X36376Y11478D01*
X36337Y11642D01*
X36323Y11811D01*
X36337Y11980D01*
X36376Y12144D01*
X36441Y12301D01*
X36529Y12445D01*
X36639Y12573D01*
X36768Y12683D01*
X36912Y12772D01*
X37068Y12836D01*
X37233Y12876D01*
X37402Y12889D01*
X37570Y12876D01*
D02*
G37*
%LPC*%
G36*
X37402Y12555D02*
X37256Y12540D01*
X37117Y12498D01*
X36988Y12429D01*
X36876Y12337D01*
X36783Y12224D01*
X36714Y12096D01*
X36672Y11956D01*
X36658Y11811D01*
X36672Y11666D01*
X36714Y11526D01*
X36783Y11398D01*
X36876Y11285D01*
X36988Y11193D01*
X37117Y11124D01*
X37256Y11082D01*
X37402Y11067D01*
X37547Y11082D01*
X37686Y11124D01*
X37815Y11193D01*
X37927Y11285D01*
X38020Y11398D01*
X38089Y11526D01*
X38131Y11666D01*
X38145Y11811D01*
X38131Y11956D01*
X38089Y12096D01*
X38020Y12224D01*
X37927Y12337D01*
X37815Y12429D01*
X37686Y12498D01*
X37547Y12540D01*
X37402Y12555D01*
D02*
G37*
%LPD*%
G36*
X11980Y12876D02*
X12144Y12836D01*
X12301Y12772D01*
X12445Y12683D01*
X12573Y12573D01*
X12683Y12445D01*
X12772Y12301D01*
X12836Y12144D01*
X12876Y11980D01*
X12889Y11811D01*
X12876Y11642D01*
X12836Y11478D01*
X12772Y11322D01*
X12683Y11177D01*
X12573Y11049D01*
X12445Y10939D01*
X12301Y10850D01*
X12144Y10786D01*
X11980Y10746D01*
X11811Y10733D01*
X11642Y10746D01*
X11478Y10786D01*
X11322Y10850D01*
X11177Y10939D01*
X11049Y11049D01*
X10939Y11177D01*
X10850Y11322D01*
X10786Y11478D01*
X10746Y11642D01*
X10733Y11811D01*
X10746Y11980D01*
X10786Y12144D01*
X10850Y12301D01*
X10939Y12445D01*
X11049Y12573D01*
X11177Y12683D01*
X11322Y12772D01*
X11478Y12836D01*
X11642Y12876D01*
X11811Y12889D01*
X11980Y12876D01*
D02*
G37*
%LPC*%
G36*
X11811Y12555D02*
X11666Y12540D01*
X11526Y12498D01*
X11398Y12429D01*
X11285Y12337D01*
X11193Y12224D01*
X11124Y12096D01*
X11082Y11956D01*
X11067Y11811D01*
X11082Y11666D01*
X11124Y11526D01*
X11193Y11398D01*
X11285Y11285D01*
X11398Y11193D01*
X11526Y11124D01*
X11666Y11082D01*
X11811Y11067D01*
X11956Y11082D01*
X12096Y11124D01*
X12224Y11193D01*
X12337Y11285D01*
X12429Y11398D01*
X12498Y11526D01*
X12540Y11666D01*
X12555Y11811D01*
X12540Y11956D01*
X12498Y12096D01*
X12429Y12224D01*
X12337Y12337D01*
X12224Y12429D01*
X12096Y12498D01*
X11956Y12540D01*
X11811Y12555D01*
D02*
G37*
%LPD*%
D10*
X12913Y45748D02*
X13032Y45630D01*
X11850Y45748D02*
X12913D01*
X22008Y45079D02*
Y45079D01*
X21850Y44921D02*
X22008Y45079D01*
X21846Y44709D02*
X21901Y44764D01*
X21540Y44709D02*
X21846D01*
X21484Y44764D02*
X21540Y44709D01*
X21784Y44858D02*
X21847Y44921D01*
X21602Y44858D02*
X21784D01*
X21539Y44921D02*
X21602Y44858D01*
X21901Y44764D02*
X22126D01*
X20512D02*
X21484D01*
X21847Y44921D02*
X21850D01*
X18858D02*
X21539D01*
X18819Y45079D02*
X21693D01*
X18740Y45157D02*
X18819Y45079D01*
X30748Y40203D02*
X30791Y40160D01*
X30748Y40203D02*
Y41339D01*
X27905Y44182D02*
X30748Y41339D01*
X26454Y44182D02*
X27905D01*
X23583Y45591D02*
X23819Y45354D01*
Y44252D02*
Y45354D01*
X16369Y44182D02*
X16454D01*
X14528Y46024D02*
X16369Y44182D01*
X15709Y46024D02*
X17913D01*
X19488Y43780D02*
X21811D01*
X19203D02*
X19488D01*
X15748Y41968D02*
Y42520D01*
X15827Y42598D01*
X16968D01*
X17126Y42756D01*
X17598D01*
X15695Y42782D02*
X16858D01*
X15394Y42480D02*
X15695Y42782D01*
X15030Y42480D02*
X15394D01*
X13032Y42995D02*
X14728Y41299D01*
X15039D01*
X15354Y41614D01*
X15394Y34242D02*
Y39370D01*
Y34242D02*
X16454Y33182D01*
X16858Y42782D02*
X17029Y42953D01*
X17598D01*
X14262Y42313D02*
X14882Y41693D01*
X14262Y42313D02*
Y42480D01*
X23799Y42244D02*
X24516D01*
X23248Y42795D02*
X23799Y42244D01*
X20256Y43346D02*
X20374Y43228D01*
X19488Y43346D02*
X20256D01*
X20374Y43228D02*
X20807Y42795D01*
X22106D01*
X21811Y43780D02*
X22176D01*
X21811Y43602D02*
Y43780D01*
X21437Y43228D02*
X21811Y43602D01*
X23364Y43797D02*
X23819Y44252D01*
X22370Y43797D02*
X23364D01*
X24920Y43648D02*
X26454Y45182D01*
X22308Y43648D02*
X24920D01*
X21915Y44252D02*
X22370Y43797D01*
X21339Y44252D02*
X21915D01*
X22176Y43780D02*
X22308Y43648D01*
X20157Y44252D02*
Y44409D01*
X20512Y44764D01*
X22126D02*
X22638Y44252D01*
X20118Y44291D02*
X20157Y44252D01*
X19094Y44291D02*
X20118D01*
X18937Y44134D02*
X19094Y44291D01*
X18937Y43701D02*
Y44134D01*
X19134Y43711D02*
X19203Y43780D01*
X24516Y42244D02*
X26454Y44182D01*
X20896Y40463D02*
X22402Y41968D01*
X25276D01*
X27114Y24370D02*
X29528Y26783D01*
X25157Y24370D02*
X27114D01*
X23326Y26391D02*
X25654D01*
X27008Y27744D01*
X18543Y43711D02*
Y44961D01*
X18740Y43711D02*
Y44803D01*
X18543Y44961D02*
X18740Y45157D01*
Y44803D02*
X18858Y44921D01*
X26454Y36182D02*
X36771D01*
X37402Y35551D01*
X26454Y37182D02*
X34111D01*
X37402Y40472D01*
X26454Y35182D02*
X32889D01*
X37402Y30669D01*
X21724Y34182D02*
X26454D01*
X21693Y34213D02*
X21724Y34182D01*
X22251Y33182D02*
X26454D01*
X22244Y33189D02*
X22251Y33182D01*
X23094Y32182D02*
X26454D01*
X22756Y32520D02*
X23094Y32182D01*
X22974Y18329D02*
X25630Y20984D01*
X22974Y14043D02*
Y18329D01*
X32577Y17463D02*
X35169D01*
X30551Y19488D02*
X32577Y17463D01*
X30551Y19488D02*
Y19528D01*
X29252Y20827D02*
X30551Y19528D01*
X29252Y20827D02*
Y22165D01*
X19134Y40463D02*
X20896D01*
X18191Y39624D02*
X18262Y39695D01*
X18191Y38781D02*
Y38856D01*
X27426Y38781D02*
X28306Y39661D01*
X18150Y39665D02*
X18168Y39646D01*
X18191Y39624D01*
X14606Y43661D02*
X17274D01*
X17589Y43346D01*
X20945Y29173D02*
X22559D01*
X19567Y27795D02*
X20945Y29173D01*
X18976Y27795D02*
X19567D01*
X17323Y42559D02*
X17589D01*
X17157Y42394D02*
X17323Y42559D01*
X17157Y41828D02*
Y42394D01*
X16944Y41614D02*
X17157Y41828D01*
X15354Y41614D02*
X16944D01*
X12795Y42638D02*
X15787Y39646D01*
X12795Y42638D02*
Y45276D01*
X13032Y42995D02*
Y45630D01*
X13504Y44764D02*
X14606Y43661D01*
X13504Y44764D02*
Y45118D01*
X20118Y35315D02*
Y36890D01*
X21496Y38268D01*
X26368D01*
X26454Y38182D01*
X31048Y34582D02*
X31063Y34567D01*
X24237Y34582D02*
X31048D01*
X24213Y34606D02*
X24237Y34582D01*
X16454Y39182D02*
X17441Y38195D01*
Y36535D02*
Y38195D01*
X18150Y39665D02*
Y40906D01*
X15787Y39646D02*
X18168D01*
X18262Y39695D02*
X19134D01*
X17441Y36535D02*
X23543Y30433D01*
Y27795D02*
Y30433D01*
X22795Y27047D02*
X23543Y27795D01*
X22795Y24685D02*
Y27047D01*
Y24685D02*
X23150Y24331D01*
X16454Y35182D02*
X16557Y35079D01*
Y34978D02*
Y35079D01*
Y34978D02*
X21693Y29843D01*
X29016Y23150D02*
Y24134D01*
X27598Y21732D02*
X29016Y23150D01*
X27598Y21063D02*
Y21732D01*
X21299D02*
X27598D01*
X20787Y21220D02*
X21299Y21732D01*
X27795Y24134D02*
X29016D01*
X27480Y23819D02*
X27795Y24134D01*
X23189Y23819D02*
X27480D01*
X22598Y24409D02*
X23189Y23819D01*
X22598Y24409D02*
Y27008D01*
X22205Y27402D02*
X22598Y27008D01*
X18543Y27402D02*
X22205D01*
X18386Y27559D02*
X18543Y27402D01*
X18386Y27559D02*
Y28110D01*
X19567Y29291D01*
Y29331D01*
X16716Y32182D02*
X19567Y29331D01*
X16454Y32182D02*
X16716D01*
X18191Y38781D02*
X27426D01*
X18191D02*
X27426D01*
X18191D02*
X27426D01*
X28780Y45315D02*
X29055Y45039D01*
X28780Y45315D02*
Y47559D01*
X29173Y46693D02*
X30197D01*
X30984Y47480D01*
X25276Y41968D02*
X25984Y42677D01*
X28701D01*
D11*
X22166Y32585D02*
X27008Y27744D01*
X22166Y32585D02*
Y32810D01*
X18110Y42323D02*
X18543D01*
X18083D02*
X18110D01*
X23799Y42244D02*
X23885Y42330D01*
Y42515D01*
X29094Y40160D02*
X30791D01*
X20433Y35181D02*
X21470Y36218D01*
X21884Y36632D01*
X21470Y33506D02*
X22166Y32810D01*
X21470Y33506D02*
Y36218D01*
X30791Y40160D02*
X33463D01*
X30276Y39646D02*
X30791Y40160D01*
X16050Y22970D02*
X27680D01*
X28330Y19430D02*
Y22060D01*
X26430Y22480D02*
X27910D01*
X25940Y21990D02*
X26430Y22480D01*
X32049Y15550D02*
X33374Y16875D01*
X35595D01*
X35720Y17000D01*
Y17750D01*
X35510Y17960D02*
X35720Y17750D01*
X34850Y17960D02*
X35510D01*
X34500Y18310D02*
X34850Y17960D01*
X33820Y18310D02*
X34500D01*
X33630Y18500D02*
X33820Y18310D01*
X33630Y18500D02*
Y19953D01*
X34169Y19963D01*
X22060Y18530D02*
Y18700D01*
X19750Y21010D02*
X22060Y18700D01*
X15280Y18384D02*
X18146D01*
X18821Y17709D01*
Y15004D02*
Y17709D01*
X33463Y40160D02*
X33977Y39646D01*
X32049Y15043D02*
Y15550D01*
X31909Y15690D02*
X32049Y15550D01*
X25625Y15690D02*
X31909D01*
X25474Y15539D02*
X25625Y15690D01*
X25474Y15043D02*
Y15539D01*
X33977Y39646D02*
X34606D01*
X37402Y42441D01*
X29734Y27577D02*
X29940D01*
X30060Y27697D01*
Y27723D01*
X30000Y27783D02*
X30060Y27723D01*
X29528Y27783D02*
X30000D01*
X22166Y32810D02*
X24920D01*
D41*
X16856Y48135D02*
D03*
X26052D02*
D03*
Y29804D02*
D03*
X16856D02*
D03*
X29528Y27783D02*
D03*
Y26783D02*
D03*
X30539Y29764D02*
D03*
X29539D02*
D03*
D53*
X14262Y42480D02*
D03*
X15030D02*
D03*
D62*
X18191Y38856D02*
D03*
Y39624D02*
D03*
X19134Y39695D02*
D03*
Y40463D02*
D03*
D69*
X15709Y46024D02*
D03*
X14528D02*
D03*
X23819Y44252D02*
D03*
X22638D02*
D03*
X21339D02*
D03*
X20157D02*
D03*
D71*
X19715Y26170D02*
X20709Y25177D01*
X18819Y26170D02*
X19715D01*
X20433Y34961D02*
Y35181D01*
X21884Y36632D01*
D72*
X36339Y25984D02*
X36378Y26024D01*
Y28307D01*
X19843Y24843D02*
X19882Y24882D01*
X18819Y24843D02*
Y25080D01*
X25513Y25249D02*
X27008Y26744D01*
X23510Y25249D02*
X25513D01*
X22236Y25266D02*
Y26391D01*
X22219Y25249D02*
X22236Y25266D01*
X22216Y25246D02*
X22219Y25249D01*
X18818Y25079D02*
X18819Y25080D01*
X17362Y25079D02*
X18818D01*
X16260Y26181D02*
X17362Y25079D01*
X11614Y26181D02*
X16260D01*
X25974Y14043D02*
Y14543D01*
X26474Y15043D01*
X32549Y14043D02*
Y14543D01*
X33049Y15043D01*
X34669Y20463D02*
X35169D01*
X34169Y20963D02*
X34669Y20463D01*
X34748Y27077D02*
X35248D01*
X34248Y27577D02*
X34748Y27077D01*
X19321Y14004D02*
Y14504D01*
X19821Y15004D01*
X14280Y17884D02*
X14780D01*
X15280Y17384D01*
X29528Y27783D02*
X30539Y28795D01*
Y29764D01*
X27047Y27783D02*
X29528D01*
X27008Y27744D02*
X27047Y27783D01*
X26454Y45182D02*
X27731D01*
X29539Y29764D02*
X30169Y30394D01*
X33425D02*
X34252Y29567D01*
X38622D01*
Y43543D01*
X38661Y43583D01*
X29331D02*
X38661D01*
X27731Y45182D02*
X29331Y43583D01*
X29940Y27577D02*
X34248D01*
X18819Y24843D02*
X19843D01*
X21378Y25246D02*
X22216D01*
X21378D02*
X22216D01*
X21378D02*
X22216D01*
X18819Y24843D02*
X19843D01*
X18819D02*
X19843D01*
X30169Y30394D02*
X33425D01*
X29734Y27577D02*
X34248D01*
D73*
X11929Y30433D02*
D03*
Y32402D02*
D03*
X37402Y32638D02*
D03*
Y30669D02*
D03*
X11772Y37205D02*
D03*
Y35236D02*
D03*
X11811Y42047D02*
D03*
Y40079D02*
D03*
X37402Y35551D02*
D03*
Y37520D02*
D03*
Y40472D02*
D03*
Y42441D02*
D03*
X11614Y24213D02*
D03*
Y26181D02*
D03*
D74*
X15280Y20384D02*
D03*
Y19384D02*
D03*
Y17384D02*
D03*
Y18384D02*
D03*
X14280Y17884D02*
D03*
Y18884D02*
D03*
Y20884D02*
D03*
Y19884D02*
D03*
X35248Y25077D02*
D03*
Y24077D02*
D03*
Y26077D02*
D03*
Y27077D02*
D03*
X34248Y26577D02*
D03*
Y27577D02*
D03*
Y25577D02*
D03*
Y24577D02*
D03*
X35169Y18463D02*
D03*
Y17463D02*
D03*
Y19463D02*
D03*
Y20463D02*
D03*
X34169Y19963D02*
D03*
Y20963D02*
D03*
Y18963D02*
D03*
Y17963D02*
D03*
D75*
X11780Y16870D02*
D03*
Y21398D02*
D03*
X37748Y23563D02*
D03*
Y28091D02*
D03*
X37669Y16949D02*
D03*
Y21476D02*
D03*
X29035Y11543D02*
D03*
X33563D02*
D03*
X22461D02*
D03*
X26988D02*
D03*
X15807Y11504D02*
D03*
X20335D02*
D03*
D76*
X20709Y24774D02*
D03*
D77*
X16454Y31182D02*
D03*
Y32182D02*
D03*
Y33182D02*
D03*
Y34182D02*
D03*
Y35182D02*
D03*
Y36182D02*
D03*
Y37182D02*
D03*
Y38182D02*
D03*
Y39182D02*
D03*
Y40182D02*
D03*
Y41182D02*
D03*
Y42182D02*
D03*
Y43182D02*
D03*
Y45182D02*
D03*
X26454Y31182D02*
D03*
Y32182D02*
D03*
Y33182D02*
D03*
Y34182D02*
D03*
Y35182D02*
D03*
Y36182D02*
D03*
Y37182D02*
D03*
Y38182D02*
D03*
Y39182D02*
D03*
Y40182D02*
D03*
Y41182D02*
D03*
Y42182D02*
D03*
Y43182D02*
D03*
Y44182D02*
D03*
Y45182D02*
D03*
X16454Y44182D02*
D03*
D78*
X32007Y39661D02*
D03*
X33977Y39646D02*
D03*
X28306Y39661D02*
D03*
X30276Y39646D02*
D03*
D79*
X21884Y36632D02*
D03*
D80*
X20827Y46870D02*
D03*
X22559D02*
D03*
D81*
X30549Y14043D02*
D03*
X29549D02*
D03*
X31549D02*
D03*
X32549D02*
D03*
X32049Y15043D02*
D03*
X33049D02*
D03*
X31049D02*
D03*
X30049D02*
D03*
X23974Y14043D02*
D03*
X22974D02*
D03*
X24974D02*
D03*
X25974D02*
D03*
X25474Y15043D02*
D03*
X26474D02*
D03*
X24474D02*
D03*
X23474D02*
D03*
X17321Y14004D02*
D03*
X16321D02*
D03*
X18321D02*
D03*
X19321D02*
D03*
X18821Y15004D02*
D03*
X19821D02*
D03*
X17821D02*
D03*
X16821D02*
D03*
D82*
X11850Y45748D02*
D03*
X22008Y45079D02*
D03*
X21693D02*
D03*
X23885Y42515D02*
D03*
X23583Y45591D02*
D03*
X17913Y46024D02*
D03*
X18110Y42323D02*
D03*
X18543D02*
D03*
X18110Y43189D02*
D03*
X19488Y43780D02*
D03*
X15354Y39331D02*
D03*
X15748Y41968D02*
D03*
X14882Y41693D02*
D03*
X22402Y41968D02*
D03*
X22559Y29173D02*
D03*
X25157Y24370D02*
D03*
X21693Y34213D02*
D03*
X22756Y32520D02*
D03*
X22244Y33189D02*
D03*
X25630Y20984D02*
D03*
X29252Y22165D02*
D03*
X18150Y40906D02*
D03*
X18976Y27795D02*
D03*
X12795Y45276D02*
D03*
X13504Y45118D02*
D03*
X20118Y35315D02*
D03*
X20433Y34961D02*
D03*
X31063Y34567D02*
D03*
X24213Y34606D02*
D03*
X23150Y24331D02*
D03*
X21693Y29843D02*
D03*
X27598Y21063D02*
D03*
X20787Y21220D02*
D03*
X29016Y24134D02*
D03*
X19567Y29331D02*
D03*
D83*
X27008Y26744D02*
D03*
D84*
X20709Y24370D02*
D03*
Y25177D02*
D03*
D85*
X36378Y28307D02*
D03*
X33110Y30433D02*
D03*
X24920Y32810D02*
D03*
X27680Y22970D02*
D03*
X16050D02*
D03*
X28330Y19430D02*
D03*
Y22060D02*
D03*
X27910Y22480D02*
D03*
X25940Y21990D02*
D03*
X22060Y18530D02*
D03*
X19750Y21010D02*
D03*
X29094Y40160D02*
D03*
X29055Y45039D02*
D03*
X28780Y47559D02*
D03*
X29173Y46693D02*
D03*
X30984Y47480D02*
D03*
X28701Y42677D02*
D03*
D86*
X11811Y11811D02*
D03*
X37402D02*
D03*
X11811Y47244D02*
D03*
X37402D02*
D03*
D87*
X22106Y42795D02*
D03*
X23248D02*
D03*
D88*
X21437Y43228D02*
D03*
X20374D02*
D03*
D89*
X18543Y42756D02*
D03*
D90*
X17598D02*
D03*
Y42953D02*
D03*
Y43150D02*
D03*
Y43346D02*
D03*
Y42559D02*
D03*
Y42362D02*
D03*
Y42165D02*
D03*
X19488D02*
D03*
Y42362D02*
D03*
Y42559D02*
D03*
Y43346D02*
D03*
Y43150D02*
D03*
Y42953D02*
D03*
Y42756D02*
D03*
D91*
X19134Y43701D02*
D03*
X18937D02*
D03*
X18740D02*
D03*
X18543D02*
D03*
X18346D02*
D03*
X18150D02*
D03*
X17953D02*
D03*
Y41811D02*
D03*
X18150D02*
D03*
X18346D02*
D03*
X18543D02*
D03*
X18740D02*
D03*
X18937D02*
D03*
X19134D02*
D03*
D92*
X23510Y25249D02*
D03*
X22219D02*
D03*
D93*
X20177Y24301D02*
D03*
Y24537D02*
D03*
Y24774D02*
D03*
Y25010D02*
D03*
Y25246D02*
D03*
X21378D02*
D03*
Y25010D02*
D03*
Y24774D02*
D03*
Y24537D02*
D03*
Y24301D02*
D03*
D94*
X23326Y26391D02*
D03*
X22236D02*
D03*
D95*
X18819Y26170D02*
D03*
Y25080D02*
D03*
D96*
X22913Y42795D02*
X23248D01*
X22008Y41890D02*
X22913Y42795D01*
X19409Y41890D02*
X22008D01*
X18543Y42756D02*
X19409Y41890D01*
D97*
X21535Y25138D02*
D03*
D98*
X20059Y24882D02*
D03*
D99*
X20413Y24429D02*
D03*
M02*
