G04*
G04 #@! TF.GenerationSoftware,Altium Limited,CircuitMaker,2.0.3 (51)*
G04*
G04 Layer_Color=8150272*
%FSLAX24Y24*%
%MOIN*%
G70*
G04*
G04 #@! TF.SameCoordinates,3954AB4D-5D0B-4665-A105-1F8CE3EC6163*
G04*
G04*
G04 #@! TF.FilePolarity,Negative*
G04*
G01*
G75*
%ADD18R,0.0611X0.0690*%
%ADD27R,0.0690X0.0611*%
%ADD34R,0.0533X0.0789*%
%ADD36C,0.0986*%
%ADD37O,0.0946X0.0552*%
%ADD38C,0.1537*%
G04:AMPARAMS|DCode=40|XSize=68mil|YSize=98mil|CornerRadius=19mil|HoleSize=0mil|Usage=FLASHONLY|Rotation=270.000|XOffset=0mil|YOffset=0mil|HoleType=Round|Shape=RoundedRectangle|*
%AMROUNDEDRECTD40*
21,1,0.0680,0.0600,0,0,270.0*
21,1,0.0300,0.0980,0,0,270.0*
1,1,0.0380,-0.0300,-0.0150*
1,1,0.0380,-0.0300,0.0150*
1,1,0.0380,0.0300,0.0150*
1,1,0.0380,0.0300,-0.0150*
%
%ADD40ROUNDEDRECTD40*%
%ADD41C,0.0600*%
%ADD42C,0.0867*%
%ADD43C,0.1080*%
%ADD44C,0.0434*%
%ADD45O,0.0552X0.0946*%
%ADD46C,0.0680*%
%ADD47C,0.0320*%
%ADD48C,0.0580*%
%ADD50C,0.0336*%
%ADD51C,0.1458*%
%ADD100R,0.0434X0.0749*%
%ADD101R,0.0434X0.0710*%
%ADD102R,0.1360X0.1360*%
%ADD103R,0.0402X0.0146*%
%ADD104R,0.0146X0.0402*%
%ADD105R,0.0438X0.0560*%
G04:AMPARAMS|DCode=106|XSize=29.5mil|YSize=15.7mil|CornerRadius=4.9mil|HoleSize=0mil|Usage=FLASHONLY|Rotation=0.000|XOffset=0mil|YOffset=0mil|HoleType=Round|Shape=RoundedRectangle|*
%AMROUNDEDRECTD106*
21,1,0.0295,0.0059,0,0,0.0*
21,1,0.0197,0.0157,0,0,0.0*
1,1,0.0098,0.0098,-0.0030*
1,1,0.0098,-0.0098,-0.0030*
1,1,0.0098,-0.0098,0.0030*
1,1,0.0098,0.0098,0.0030*
%
%ADD106ROUNDEDRECTD106*%
%ADD107R,0.0474X0.0749*%
%ADD108R,0.0749X0.0474*%
D18*
X14262Y42480D02*
D03*
X15030D02*
D03*
D27*
X18191Y38856D02*
D03*
Y39624D02*
D03*
X19134Y39695D02*
D03*
Y40463D02*
D03*
D34*
X15709Y46024D02*
D03*
X14528D02*
D03*
X23819Y44252D02*
D03*
X22638D02*
D03*
X21339D02*
D03*
X20157D02*
D03*
D36*
X11929Y30433D02*
D03*
Y32402D02*
D03*
X37402Y32638D02*
D03*
Y30669D02*
D03*
X11772Y37205D02*
D03*
Y35236D02*
D03*
X11811Y42047D02*
D03*
Y40079D02*
D03*
X37402Y35551D02*
D03*
Y37520D02*
D03*
Y40472D02*
D03*
Y42441D02*
D03*
X11614Y24213D02*
D03*
Y26181D02*
D03*
D37*
X15280Y20384D02*
D03*
Y19384D02*
D03*
Y17384D02*
D03*
Y18384D02*
D03*
X14280Y17884D02*
D03*
Y18884D02*
D03*
Y20884D02*
D03*
Y19884D02*
D03*
X35248Y25077D02*
D03*
Y24077D02*
D03*
Y26077D02*
D03*
Y27077D02*
D03*
X34248Y26577D02*
D03*
Y27577D02*
D03*
Y25577D02*
D03*
Y24577D02*
D03*
X35169Y18463D02*
D03*
Y17463D02*
D03*
Y19463D02*
D03*
Y20463D02*
D03*
X34169Y19963D02*
D03*
Y20963D02*
D03*
Y18963D02*
D03*
Y17963D02*
D03*
D38*
X11780Y16870D02*
D03*
Y21398D02*
D03*
X37748Y23563D02*
D03*
Y28091D02*
D03*
X37669Y16949D02*
D03*
Y21476D02*
D03*
X29035Y11543D02*
D03*
X33563D02*
D03*
X22461D02*
D03*
X26988D02*
D03*
X15807Y11504D02*
D03*
X20335D02*
D03*
D40*
X16454Y31182D02*
D03*
Y32182D02*
D03*
Y33182D02*
D03*
Y34182D02*
D03*
Y35182D02*
D03*
Y36182D02*
D03*
Y37182D02*
D03*
Y38182D02*
D03*
Y39182D02*
D03*
Y40182D02*
D03*
Y41182D02*
D03*
Y42182D02*
D03*
Y43182D02*
D03*
Y45182D02*
D03*
X26454Y31182D02*
D03*
Y32182D02*
D03*
Y33182D02*
D03*
Y34182D02*
D03*
Y35182D02*
D03*
Y36182D02*
D03*
Y37182D02*
D03*
Y38182D02*
D03*
Y39182D02*
D03*
Y40182D02*
D03*
Y41182D02*
D03*
Y42182D02*
D03*
Y43182D02*
D03*
Y44182D02*
D03*
Y45182D02*
D03*
X16454Y44182D02*
D03*
D41*
X16856Y48135D02*
D03*
X26052D02*
D03*
Y29804D02*
D03*
X16856D02*
D03*
D42*
X32007Y39661D02*
D03*
X33977Y39646D02*
D03*
X28306Y39661D02*
D03*
X30276Y39646D02*
D03*
D43*
X21884Y36632D02*
D03*
D44*
X20827Y46870D02*
D03*
X22559D02*
D03*
D45*
X30549Y14043D02*
D03*
X29549D02*
D03*
X31549D02*
D03*
X32549D02*
D03*
X32049Y15043D02*
D03*
X33049D02*
D03*
X31049D02*
D03*
X30049D02*
D03*
X23974Y14043D02*
D03*
X22974D02*
D03*
X24974D02*
D03*
X25974D02*
D03*
X25474Y15043D02*
D03*
X26474D02*
D03*
X24474D02*
D03*
X23474D02*
D03*
X17321Y14004D02*
D03*
X16321D02*
D03*
X18321D02*
D03*
X19321D02*
D03*
X18821Y15004D02*
D03*
X19821D02*
D03*
X17821D02*
D03*
X16821D02*
D03*
D46*
X29528Y27783D02*
D03*
Y26783D02*
D03*
X30539Y29764D02*
D03*
X29539D02*
D03*
D47*
X11850Y45748D02*
D03*
X22008Y45079D02*
D03*
X21693D02*
D03*
X23885Y42515D02*
D03*
X23583Y45591D02*
D03*
X17913Y46024D02*
D03*
X18110Y42323D02*
D03*
X18543D02*
D03*
X18110Y43189D02*
D03*
X19488Y43780D02*
D03*
X15354Y39331D02*
D03*
X15748Y41968D02*
D03*
X14882Y41693D02*
D03*
X22402Y41968D02*
D03*
X22559Y29173D02*
D03*
X25157Y24370D02*
D03*
X21693Y34213D02*
D03*
X22756Y32520D02*
D03*
X22244Y33189D02*
D03*
X25630Y20984D02*
D03*
X29252Y22165D02*
D03*
X18150Y40906D02*
D03*
X18976Y27795D02*
D03*
X12795Y45276D02*
D03*
X13504Y45118D02*
D03*
X20118Y35315D02*
D03*
X20433Y34961D02*
D03*
X31063Y34567D02*
D03*
X24213Y34606D02*
D03*
X23150Y24331D02*
D03*
X21693Y29843D02*
D03*
X27598Y21063D02*
D03*
X20787Y21220D02*
D03*
X29016Y24134D02*
D03*
X19567Y29331D02*
D03*
D48*
X27008Y26744D02*
D03*
D50*
X36378Y28307D02*
D03*
X33110Y30433D02*
D03*
X24920Y32810D02*
D03*
X27680Y22970D02*
D03*
X16050D02*
D03*
X28330Y19430D02*
D03*
Y22060D02*
D03*
X27910Y22480D02*
D03*
X25940Y21990D02*
D03*
X22060Y18530D02*
D03*
X19750Y21010D02*
D03*
X29094Y40160D02*
D03*
X29055Y45039D02*
D03*
X28780Y47559D02*
D03*
X29173Y46693D02*
D03*
X30984Y47480D02*
D03*
X28701Y42677D02*
D03*
D51*
X11811Y11811D02*
D03*
X37402D02*
D03*
X11811Y47244D02*
D03*
X37402D02*
D03*
D100*
X22106Y42795D02*
D03*
X23248D02*
D03*
D101*
X21437Y43228D02*
D03*
X20374D02*
D03*
D102*
X18543Y42756D02*
D03*
D103*
X17598D02*
D03*
Y42953D02*
D03*
Y43150D02*
D03*
Y43346D02*
D03*
Y42559D02*
D03*
Y42362D02*
D03*
Y42165D02*
D03*
X19488D02*
D03*
Y42362D02*
D03*
Y42559D02*
D03*
Y43346D02*
D03*
Y43150D02*
D03*
Y42953D02*
D03*
Y42756D02*
D03*
D104*
X19134Y43701D02*
D03*
X18937D02*
D03*
X18740D02*
D03*
X18543D02*
D03*
X18346D02*
D03*
X18150D02*
D03*
X17953D02*
D03*
Y41811D02*
D03*
X18150D02*
D03*
X18346D02*
D03*
X18543D02*
D03*
X18740D02*
D03*
X18937D02*
D03*
X19134D02*
D03*
D105*
X23510Y25249D02*
D03*
X22219D02*
D03*
D106*
X20177Y24301D02*
D03*
Y24537D02*
D03*
Y24774D02*
D03*
Y25010D02*
D03*
Y25246D02*
D03*
X21378D02*
D03*
Y25010D02*
D03*
Y24774D02*
D03*
Y24537D02*
D03*
Y24301D02*
D03*
D107*
X23326Y26391D02*
D03*
X22236D02*
D03*
D108*
X18819Y26170D02*
D03*
Y25080D02*
D03*
M02*
