M48
;Layer_Color=6321
;FILE_FORMAT=2:4
INCH,TZ
;TYPE=PLATED
T1F00S00C0.0118
T2F00S00C0.0122
T3F00S00C0.0138
T4F00S00C0.0280
T5F00S00C0.0300
T6F00S00C0.0315
T7F00S00C0.0394
T8F00S00C0.0400
T9F00S00C0.0512
T10F00S00C0.0900
T11F00S00C0.1260
T12F00S00C0.1378
%
T01
X20709Y24370
Y24774
Y25177
T02
X20787Y21220
X25630Y20984
X27598Y21063
X29252Y22165
X29016Y24134
X25157Y24370
X23150Y24331
X22559Y29173
X21693Y29843
X19567Y29331
X18976Y27795
X15354Y39331
X14882Y41693
X13504Y45118
X12795Y45276
X11850Y45748
X17913Y46024
X18110Y43189
Y42323
X18543
X18150Y40906
X15748Y41968
X19488Y43780
X21693Y45079
X22008
X23583Y45591
X23885Y42515
X22402Y41968
X21693Y34213
X22244Y33189
X22756Y32520
X24213Y34606
X20433Y34961
X20118Y35315
X31063Y34567
T03
X33110Y30433
X36378Y28307
X27680Y22970
X27910Y22480
X28330Y22060
X25940Y21990
X28330Y19430
X22060Y18530
X19750Y21010
X16050Y22970
X24920Y32810
X29094Y40160
X28701Y42677
X29055Y45039
X29173Y46693
X28780Y47559
X30984Y47480
T04
X27008Y26744
T05
X29528Y26783
Y27783
X29539Y29764
X30539
T06
X16321Y14004
X17321
X18321
X19321
X18821Y15004
X19821
X17821
X16821
X23474Y15043
X24474
X25474
X26474
X25974Y14043
X24974
X23974
X22974
X29549
X30549
X31049Y15043
X30049
X32049
X33049
X32549Y14043
X31549
X34169Y17963
Y18963
Y19963
Y20963
X35169Y20463
Y19463
Y18463
Y17463
X35248Y24077
Y25077
Y26077
Y27077
X34248Y26577
Y27577
Y25577
Y24577
X15280Y20384
Y19384
Y18384
Y17384
X14280Y17884
Y18884
Y19884
Y20884
T07
X28306Y39661
X30276Y39646
X32007Y39661
X33977Y39646
T08
X16454Y31182
X26454
Y32182
Y33182
Y34182
Y35182
Y36182
Y37182
Y38182
Y39182
Y40182
Y41182
Y42182
Y43182
Y44182
Y45182
X16454
Y44182
Y43182
Y42182
Y41182
Y40182
Y39182
Y38182
Y37182
Y36182
Y35182
Y34182
Y33182
Y32182
T09
X37402Y30669
X11929Y30433
X11614Y26181
Y24213
X11929Y32402
X11772Y35236
Y37205
X11811Y40079
Y42047
X37402Y42441
Y40472
Y37520
Y35551
Y32638
T10
X21884Y36632
T11
X15807Y11504
X20335
X22461Y11543
X26988
X29035
X33563
X37669Y16949
Y21476
X37748Y23563
Y28091
X11780Y21398
Y16870
T12
X11811Y11811
X37402
Y47244
X11811
M30
