G04 Layer_Physical_Order=2*
G04 Layer_Color=11436288*
%FSLAX24Y24*%
%MOIN*%
G70*
G01*
G75*
%ADD13R,0.0335X0.0374*%
%ADD27C,0.0098*%
%ADD29C,0.0472*%
%ADD31C,0.0394*%
G04:AMPARAMS|DCode=32|XSize=27.6mil|YSize=114.2mil|CornerRadius=6.9mil|HoleSize=0mil|Usage=FLASHONLY|Rotation=0.000|XOffset=0mil|YOffset=0mil|HoleType=Round|Shape=RoundedRectangle|*
%AMROUNDEDRECTD32*
21,1,0.0276,0.1004,0,0,0.0*
21,1,0.0138,0.1142,0,0,0.0*
1,1,0.0138,0.0069,-0.0502*
1,1,0.0138,-0.0069,-0.0502*
1,1,0.0138,-0.0069,0.0502*
1,1,0.0138,0.0069,0.0502*
%
%ADD32ROUNDEDRECTD32*%
%ADD33C,0.1457*%
%ADD34O,0.0472X0.0866*%
%ADD35C,0.0600*%
%ADD36C,0.0240*%
%ADD37C,0.1220*%
%ADD38C,0.0236*%
%ADD39C,0.0197*%
%ADD40R,0.0394X0.0669*%
%ADD41R,0.0669X0.0394*%
%ADD42R,0.0358X0.0480*%
%ADD43R,0.0374X0.0335*%
G04:AMPARAMS|DCode=44|XSize=25.6mil|YSize=11.8mil|CornerRadius=3mil|HoleSize=0mil|Usage=FLASHONLY|Rotation=0.000|XOffset=0mil|YOffset=0mil|HoleType=Round|Shape=RoundedRectangle|*
%AMROUNDEDRECTD44*
21,1,0.0256,0.0059,0,0,0.0*
21,1,0.0197,0.0118,0,0,0.0*
1,1,0.0059,0.0098,-0.0030*
1,1,0.0059,-0.0098,-0.0030*
1,1,0.0059,-0.0098,0.0030*
1,1,0.0059,0.0098,0.0030*
%
%ADD44ROUNDEDRECTD44*%
%ADD45O,0.0551X0.0138*%
%ADD46R,0.1378X0.1427*%
%ADD47R,0.0030X0.0039*%
%ADD48R,0.0482X0.0482*%
%ADD49R,0.0561X0.0394*%
%ADD50R,0.1280X0.0561*%
G36*
X25807Y26453D02*
X25931Y26441D01*
X26050Y26405D01*
X26160Y26346D01*
X26257Y26267D01*
X26336Y26170D01*
X26395Y26060D01*
X26431Y25941D01*
X26438Y25867D01*
X26438Y25865D01*
X26435Y25817D01*
X26436Y25816D01*
X26444Y25770D01*
Y10532D01*
X26443D01*
X26431Y10407D01*
X26395Y10288D01*
X26336Y10178D01*
X26257Y10082D01*
X26160Y10003D01*
X26050Y9944D01*
X25931Y9908D01*
X25857Y9900D01*
X25855Y9901D01*
X25807Y9903D01*
X25806Y9903D01*
X25760Y9895D01*
X10532D01*
Y9895D01*
X10407Y9908D01*
X10288Y9944D01*
X10178Y10003D01*
X10082Y10082D01*
X10003Y10178D01*
X9944Y10288D01*
X9908Y10407D01*
X9905Y10433D01*
X9903Y10482D01*
X9895Y10529D01*
Y10529D01*
Y25817D01*
X9895D01*
X9908Y25941D01*
X9944Y26060D01*
X10003Y26170D01*
X10082Y26267D01*
X10178Y26346D01*
X10288Y26405D01*
X10407Y26441D01*
X10433Y26443D01*
X10482Y26445D01*
X10482D01*
X10529Y26453D01*
X10529D01*
X25807D01*
Y26453D01*
D02*
G37*
%LPC*%
G36*
X11240Y17756D02*
X11148Y17744D01*
X11063Y17708D01*
X10990Y17652D01*
X10933Y17579D01*
X10898Y17493D01*
X10886Y17402D01*
X10898Y17310D01*
X10933Y17224D01*
X10990Y17151D01*
X11063Y17095D01*
X11148Y17059D01*
X11240Y17047D01*
X11332Y17059D01*
X11417Y17095D01*
X11491Y17151D01*
X11547Y17224D01*
X11582Y17310D01*
X11594Y17402D01*
X11582Y17493D01*
X11547Y17579D01*
X11491Y17652D01*
X11417Y17708D01*
X11332Y17744D01*
X11240Y17756D01*
D02*
G37*
G36*
X20443Y18147D02*
X20376Y18134D01*
X20319Y18096D01*
X20282Y18039D01*
X20268Y17972D01*
X20282Y17906D01*
X20319Y17849D01*
X20376Y17811D01*
X20380Y17810D01*
Y17139D01*
X19259Y16018D01*
X18199D01*
X18184Y16039D01*
X18128Y16077D01*
X18061Y16090D01*
X17994Y16077D01*
X17938Y16039D01*
X17900Y15982D01*
X17886Y15915D01*
X17900Y15849D01*
X17938Y15792D01*
X17994Y15754D01*
X18061Y15741D01*
X18128Y15754D01*
X18184Y15792D01*
X18199Y15813D01*
X19301D01*
X19334Y15819D01*
X19340Y15821D01*
X19374Y15843D01*
X20555Y17024D01*
X20577Y17057D01*
X20578Y17064D01*
X20585Y17096D01*
Y17876D01*
X20604Y17906D01*
X20618Y17972D01*
X20604Y18039D01*
X20566Y18096D01*
X20510Y18134D01*
X20443Y18147D01*
D02*
G37*
G36*
X25246Y18635D02*
X25111Y18622D01*
X24980Y18582D01*
X24860Y18518D01*
X24755Y18432D01*
X24669Y18327D01*
X24605Y18207D01*
X24565Y18076D01*
X24552Y17941D01*
X24565Y17806D01*
X24605Y17675D01*
X24669Y17555D01*
X24755Y17450D01*
X24860Y17364D01*
X24980Y17300D01*
X25111Y17260D01*
X25246Y17247D01*
X25382Y17260D01*
X25512Y17300D01*
X25632Y17364D01*
X25737Y17450D01*
X25823Y17555D01*
X25887Y17675D01*
X25927Y17806D01*
X25940Y17941D01*
X25927Y18076D01*
X25887Y18207D01*
X25823Y18327D01*
X25737Y18432D01*
X25632Y18518D01*
X25512Y18582D01*
X25382Y18622D01*
X25246Y18635D01*
D02*
G37*
G36*
X17414Y20563D02*
X16918D01*
Y19791D01*
X17064D01*
Y19379D01*
X17070Y19346D01*
X17072Y19340D01*
X17081Y19326D01*
X17057Y19276D01*
X16732D01*
X16685Y19267D01*
X16646Y19240D01*
X16619Y19200D01*
X16610Y19154D01*
X16619Y19107D01*
X16646Y19067D01*
X16685Y19040D01*
X16732Y19031D01*
X17146D01*
X17193Y19040D01*
X17232Y19067D01*
X17244Y19085D01*
X17304Y19097D01*
X17368Y19032D01*
Y18832D01*
X17280Y18744D01*
X17209D01*
X17193Y18755D01*
X17146Y18764D01*
X16732D01*
X16685Y18755D01*
X16646Y18728D01*
X16619Y18689D01*
X16610Y18642D01*
X16619Y18595D01*
X16646Y18555D01*
X16665Y18542D01*
Y18486D01*
X16646Y18472D01*
X16619Y18433D01*
X16610Y18386D01*
X16619Y18339D01*
X16646Y18299D01*
X16665Y18286D01*
Y18230D01*
X16646Y18216D01*
X16619Y18177D01*
X16610Y18130D01*
X16619Y18083D01*
X16646Y18043D01*
X16665Y18030D01*
Y17974D01*
X16646Y17961D01*
X16619Y17921D01*
X16610Y17874D01*
X16619Y17827D01*
X16646Y17787D01*
X16665Y17774D01*
Y17718D01*
X16646Y17705D01*
X16619Y17665D01*
X16610Y17618D01*
X16619Y17571D01*
X16646Y17532D01*
X16685Y17505D01*
X16732Y17496D01*
X17146D01*
X17193Y17505D01*
X17232Y17532D01*
X17259Y17571D01*
X17268Y17618D01*
X17259Y17665D01*
X17232Y17705D01*
X17213Y17718D01*
Y17774D01*
X17232Y17787D01*
X17259Y17827D01*
X17268Y17874D01*
X17259Y17921D01*
X17232Y17961D01*
X17213Y17974D01*
Y18030D01*
X17232Y18043D01*
X17259Y18083D01*
X17268Y18130D01*
X17259Y18177D01*
X17232Y18216D01*
X17238Y18272D01*
X17248Y18283D01*
X17418D01*
X17693Y18008D01*
X17716Y17994D01*
X17717Y17992D01*
X17741Y17957D01*
X17762Y17943D01*
Y17657D01*
X17768Y17625D01*
X17770Y17618D01*
X17792Y17585D01*
X18432Y16945D01*
X18465Y16923D01*
X18471Y16922D01*
X18504Y16915D01*
X19252D01*
X19285Y16922D01*
X19291Y16923D01*
X19324Y16945D01*
X20181Y17802D01*
X20203Y17835D01*
X20211Y17874D01*
Y18215D01*
X20656D01*
X20907Y17964D01*
X20888Y17917D01*
X20807D01*
X20768Y17910D01*
X20735Y17887D01*
X20713Y17854D01*
X20705Y17815D01*
Y16070D01*
X17890Y13255D01*
X17868Y13222D01*
X17867Y13216D01*
X17860Y13183D01*
Y12949D01*
X17709D01*
Y12366D01*
X18169D01*
Y12949D01*
X18065D01*
Y13141D01*
X20879Y15955D01*
X20902Y15988D01*
X20903Y15995D01*
X20909Y16028D01*
Y17713D01*
X22389D01*
X22429Y17673D01*
X22424Y17648D01*
X22437Y17581D01*
X22475Y17524D01*
X22532Y17486D01*
X22598Y17473D01*
X22665Y17486D01*
X22722Y17524D01*
X22760Y17581D01*
X22773Y17648D01*
X22760Y17714D01*
X22722Y17771D01*
X22665Y17809D01*
X22598Y17822D01*
X22574Y17817D01*
X22503Y17887D01*
X22470Y17910D01*
X22464Y17911D01*
X22431Y17917D01*
X21243D01*
X20771Y18389D01*
X20738Y18412D01*
X20731Y18413D01*
X20699Y18419D01*
X20108D01*
X20069Y18412D01*
X20036Y18389D01*
X20014Y18356D01*
X20006Y18317D01*
Y17916D01*
X19210Y17120D01*
X18546D01*
X17967Y17700D01*
Y17943D01*
X17988Y17957D01*
X18025Y18014D01*
X18039Y18081D01*
X18025Y18148D01*
X17988Y18204D01*
X17931Y18242D01*
X17864Y18255D01*
X17797Y18242D01*
X17768Y18223D01*
X17533Y18458D01*
X17500Y18480D01*
X17493Y18482D01*
X17461Y18488D01*
X17279D01*
X17264Y18514D01*
X17279Y18539D01*
X17323D01*
X17356Y18546D01*
X17362Y18547D01*
X17395Y18569D01*
X17543Y18717D01*
X17565Y18750D01*
X17566Y18757D01*
X17573Y18789D01*
Y19075D01*
X17566Y19107D01*
X17565Y19114D01*
X17543Y19147D01*
X17269Y19422D01*
Y19791D01*
X17414D01*
Y20563D01*
D02*
G37*
G36*
X11240Y19134D02*
X11148Y19122D01*
X11063Y19086D01*
X10990Y19030D01*
X10933Y18957D01*
X10898Y18871D01*
X10886Y18780D01*
X10898Y18688D01*
X10933Y18602D01*
X10990Y18529D01*
X11063Y18473D01*
X11148Y18437D01*
X11240Y18425D01*
X11332Y18437D01*
X11417Y18473D01*
X11491Y18529D01*
X11547Y18602D01*
X11582Y18688D01*
X11594Y18780D01*
X11582Y18871D01*
X11547Y18957D01*
X11491Y19030D01*
X11417Y19086D01*
X11332Y19122D01*
X11240Y19134D01*
D02*
G37*
G36*
Y16378D02*
X11148Y16366D01*
X11063Y16330D01*
X10990Y16274D01*
X10933Y16201D01*
X10898Y16115D01*
X10886Y16024D01*
X10898Y15932D01*
X10933Y15847D01*
X10990Y15773D01*
X11063Y15717D01*
X11148Y15681D01*
X11240Y15669D01*
X11332Y15681D01*
X11417Y15717D01*
X11491Y15773D01*
X11547Y15847D01*
X11582Y15932D01*
X11594Y16024D01*
X11582Y16115D01*
X11547Y16201D01*
X11491Y16274D01*
X11417Y16330D01*
X11332Y16366D01*
X11240Y16378D01*
D02*
G37*
G36*
X24272Y12732D02*
X24142Y12719D01*
X24017Y12681D01*
X23902Y12620D01*
X23802Y12537D01*
X23719Y12436D01*
X23658Y12321D01*
X23620Y12197D01*
X23607Y12067D01*
X23620Y11937D01*
X23658Y11813D01*
X23719Y11698D01*
X23802Y11597D01*
X23902Y11514D01*
X24017Y11453D01*
X24142Y11415D01*
X24272Y11402D01*
X24401Y11415D01*
X24526Y11453D01*
X24641Y11514D01*
X24742Y11597D01*
X24824Y11698D01*
X24886Y11813D01*
X24924Y11937D01*
X24936Y12067D01*
X24924Y12197D01*
X24886Y12321D01*
X24824Y12436D01*
X24742Y12537D01*
X24641Y12620D01*
X24526Y12681D01*
X24401Y12719D01*
X24272Y12732D01*
D02*
G37*
G36*
X12067D02*
X11937Y12719D01*
X11813Y12681D01*
X11698Y12620D01*
X11597Y12537D01*
X11514Y12436D01*
X11453Y12321D01*
X11415Y12197D01*
X11402Y12067D01*
X11415Y11937D01*
X11453Y11813D01*
X11514Y11698D01*
X11597Y11597D01*
X11698Y11514D01*
X11813Y11453D01*
X11937Y11415D01*
X12067Y11402D01*
X12197Y11415D01*
X12321Y11453D01*
X12436Y11514D01*
X12537Y11597D01*
X12620Y11698D01*
X12681Y11813D01*
X12719Y11937D01*
X12732Y12067D01*
X12719Y12197D01*
X12681Y12321D01*
X12620Y12436D01*
X12537Y12537D01*
X12436Y12620D01*
X12321Y12681D01*
X12197Y12719D01*
X12067Y12732D01*
D02*
G37*
G36*
X16878Y12949D02*
X16417D01*
Y12939D01*
X15581D01*
X15542Y12923D01*
X15525Y12884D01*
Y12323D01*
X15542Y12284D01*
X15581Y12267D01*
X15629D01*
X15643Y12250D01*
X15660Y12217D01*
X15656Y12195D01*
Y12136D01*
X15662Y12104D01*
X15680Y12078D01*
X15681Y12077D01*
Y12018D01*
X15680Y12017D01*
X15662Y11990D01*
X15656Y11959D01*
Y11900D01*
X15662Y11868D01*
X15680Y11841D01*
X15681Y11841D01*
Y11782D01*
X15680Y11781D01*
X15662Y11754D01*
X15656Y11722D01*
Y11663D01*
X15662Y11632D01*
X15680Y11605D01*
X15707Y11587D01*
X15738Y11581D01*
X15935D01*
X15967Y11587D01*
X15993Y11605D01*
X16011Y11632D01*
X16017Y11663D01*
Y11722D01*
X16011Y11754D01*
X15993Y11781D01*
X15992Y11782D01*
Y11841D01*
X15993Y11841D01*
X16011Y11868D01*
X16017Y11900D01*
Y11959D01*
X16011Y11990D01*
X15993Y12017D01*
X15992Y12018D01*
Y12077D01*
X15993Y12078D01*
X16011Y12104D01*
X16017Y12136D01*
Y12195D01*
X16013Y12217D01*
X16030Y12250D01*
X16044Y12267D01*
X16358D01*
Y12176D01*
X16278D01*
Y11680D01*
X16515D01*
X16518Y11677D01*
X16588Y11648D01*
X16663Y11638D01*
X16738Y11648D01*
X16808Y11677D01*
X16812Y11680D01*
X17049D01*
Y12176D01*
X16938D01*
Y12657D01*
X16928Y12733D01*
X16916Y12761D01*
Y12884D01*
X16899Y12923D01*
X16878Y12932D01*
Y12949D01*
D02*
G37*
G36*
X11240Y15000D02*
X11148Y14988D01*
X11063Y14952D01*
X10990Y14896D01*
X10933Y14823D01*
X10898Y14737D01*
X10886Y14646D01*
X10898Y14554D01*
X10933Y14469D01*
X10990Y14395D01*
X11063Y14339D01*
X11148Y14304D01*
X11240Y14291D01*
X11332Y14304D01*
X11417Y14339D01*
X11491Y14395D01*
X11547Y14469D01*
X11582Y14554D01*
X11594Y14646D01*
X11582Y14737D01*
X11547Y14823D01*
X11491Y14896D01*
X11417Y14952D01*
X11332Y14988D01*
X11240Y15000D01*
D02*
G37*
G36*
X18201Y12197D02*
X17724D01*
Y11760D01*
X18201D01*
Y11856D01*
X18248D01*
X18262Y11835D01*
X18319Y11797D01*
X18386Y11784D01*
X18453Y11797D01*
X18509Y11835D01*
X18547Y11892D01*
X18560Y11959D01*
X18547Y12025D01*
X18509Y12082D01*
X18453Y12120D01*
X18386Y12133D01*
X18319Y12120D01*
X18262Y12082D01*
X18248Y12061D01*
X18201D01*
Y12197D01*
D02*
G37*
G36*
X12067Y24936D02*
X11937Y24924D01*
X11813Y24886D01*
X11698Y24824D01*
X11597Y24742D01*
X11514Y24641D01*
X11453Y24526D01*
X11415Y24401D01*
X11402Y24272D01*
X11415Y24142D01*
X11453Y24017D01*
X11514Y23902D01*
X11597Y23802D01*
X11698Y23719D01*
X11813Y23658D01*
X11937Y23620D01*
X12067Y23607D01*
X12197Y23620D01*
X12321Y23658D01*
X12436Y23719D01*
X12537Y23802D01*
X12620Y23902D01*
X12681Y24017D01*
X12719Y24142D01*
X12732Y24272D01*
X12719Y24401D01*
X12681Y24526D01*
X12620Y24641D01*
X12537Y24742D01*
X12436Y24824D01*
X12321Y24886D01*
X12197Y24924D01*
X12067Y24936D01*
D02*
G37*
G36*
X17650Y23560D02*
X17575Y23550D01*
X17505Y23521D01*
X17445Y23475D01*
X17399Y23415D01*
X17370Y23345D01*
X17360Y23270D01*
Y22876D01*
X17365Y22838D01*
X17317Y22815D01*
X16939Y23193D01*
Y23270D01*
X16930Y23345D01*
X16901Y23415D01*
X16855Y23475D01*
X16795Y23521D01*
X16725Y23550D01*
X16650Y23560D01*
X16575Y23550D01*
X16505Y23521D01*
X16445Y23475D01*
X16399Y23415D01*
X16370Y23345D01*
X16360Y23270D01*
Y22876D01*
X16370Y22801D01*
X16399Y22731D01*
X16445Y22671D01*
X16505Y22625D01*
X16575Y22596D01*
X16650Y22586D01*
X16717Y22595D01*
X16860Y22453D01*
Y22270D01*
Y22193D01*
X16482Y21815D01*
X16435Y21838D01*
X16439Y21876D01*
Y22270D01*
X16430Y22345D01*
X16401Y22415D01*
X16355Y22475D01*
X16295Y22521D01*
X16225Y22550D01*
X16150Y22560D01*
X16075Y22550D01*
X16005Y22521D01*
X15945Y22475D01*
X15899Y22415D01*
X15870Y22345D01*
X15860Y22270D01*
Y21876D01*
X15870Y21801D01*
X15899Y21731D01*
X15945Y21671D01*
X16005Y21625D01*
X16075Y21596D01*
X16150Y21586D01*
X16187Y21591D01*
X16211Y21544D01*
X15306Y20639D01*
X15260Y20579D01*
X15245Y20544D01*
X15231Y20509D01*
X15221Y20434D01*
Y18681D01*
Y17854D01*
Y17805D01*
X15213Y17793D01*
X15199Y17726D01*
X15213Y17660D01*
X15221Y17648D01*
Y16438D01*
X15222Y16429D01*
Y15949D01*
X15219Y15935D01*
X15222Y15921D01*
Y15561D01*
Y14210D01*
X13493Y12481D01*
X13295D01*
Y11985D01*
X13532D01*
X13536Y11982D01*
X13606Y11953D01*
X13681Y11943D01*
X13756Y11953D01*
X13826Y11982D01*
X13830Y11985D01*
X14067D01*
Y12003D01*
X14518D01*
X14561Y12012D01*
X14823D01*
X14862Y12028D01*
X14878Y12067D01*
Y12461D01*
X14862Y12500D01*
X14825Y12515D01*
X14822Y12518D01*
X14803Y12566D01*
X14810Y12577D01*
X14817Y12608D01*
Y12667D01*
X14810Y12699D01*
X14792Y12726D01*
X14766Y12743D01*
X14734Y12750D01*
X14647D01*
X14628Y12796D01*
X15619Y13788D01*
X15669D01*
X15878Y13579D01*
X15900Y13564D01*
X15911Y13557D01*
X15950Y13549D01*
X16496D01*
X16510Y13528D01*
X16567Y13490D01*
X16634Y13477D01*
X16701Y13490D01*
X16757Y13528D01*
X16795Y13585D01*
X16808Y13652D01*
X16795Y13718D01*
X16757Y13775D01*
X16701Y13813D01*
X16634Y13826D01*
X16567Y13813D01*
X16510Y13775D01*
X16496Y13754D01*
X15993D01*
X15774Y13972D01*
X15783Y13994D01*
X15792Y14015D01*
X15802Y14090D01*
Y15561D01*
Y16437D01*
X15801Y16446D01*
Y17443D01*
X15851Y17477D01*
X15856Y17474D01*
X15886D01*
X15925Y17490D01*
X15941Y17530D01*
Y17569D01*
X15925Y17608D01*
X15886Y17624D01*
X15856D01*
X15851Y17622D01*
X15801Y17655D01*
Y17854D01*
Y18681D01*
Y20314D01*
X17082Y21595D01*
X17150Y21586D01*
X17225Y21596D01*
X17295Y21625D01*
X17355Y21671D01*
X17401Y21731D01*
X17430Y21801D01*
X17439Y21876D01*
Y22270D01*
Y22573D01*
X17434Y22616D01*
X17481Y22643D01*
X17505Y22625D01*
X17575Y22596D01*
X17650Y22586D01*
X17725Y22596D01*
X17795Y22625D01*
X17855Y22671D01*
X17901Y22731D01*
X17930Y22801D01*
X17939Y22876D01*
Y23270D01*
X17930Y23345D01*
X17901Y23415D01*
X17855Y23475D01*
X17795Y23521D01*
X17725Y23550D01*
X17650Y23560D01*
D02*
G37*
G36*
X18650D02*
X18575Y23550D01*
X18505Y23521D01*
X18445Y23475D01*
X18399Y23415D01*
X18370Y23345D01*
X18360Y23270D01*
Y22876D01*
X18370Y22801D01*
X18399Y22731D01*
X18445Y22671D01*
X18505Y22625D01*
X18575Y22596D01*
X18650Y22586D01*
X18725Y22596D01*
X18795Y22625D01*
X18855Y22671D01*
X18901Y22731D01*
X18930Y22801D01*
X18939Y22876D01*
Y23270D01*
X18930Y23345D01*
X18901Y23415D01*
X18855Y23475D01*
X18795Y23521D01*
X18725Y23550D01*
X18650Y23560D01*
D02*
G37*
G36*
X19163Y26356D02*
X19011Y26341D01*
X18864Y26297D01*
X18728Y26224D01*
X18610Y26127D01*
X18512Y26008D01*
X18440Y25873D01*
X18395Y25726D01*
X18380Y25573D01*
X18395Y25420D01*
X18440Y25273D01*
X18512Y25138D01*
X18610Y25019D01*
X18728Y24922D01*
X18864Y24849D01*
X19011Y24805D01*
X19163Y24790D01*
X19316Y24805D01*
X19463Y24849D01*
X19599Y24922D01*
X19717Y25019D01*
X19815Y25138D01*
X19887Y25273D01*
X19932Y25420D01*
X19947Y25573D01*
X19932Y25726D01*
X19887Y25873D01*
X19815Y26008D01*
X19717Y26127D01*
X19599Y26224D01*
X19463Y26297D01*
X19316Y26341D01*
X19163Y26356D01*
D02*
G37*
G36*
X14636D02*
X14483Y26341D01*
X14336Y26297D01*
X14201Y26224D01*
X14082Y26127D01*
X13985Y26008D01*
X13912Y25873D01*
X13868Y25726D01*
X13853Y25573D01*
X13868Y25420D01*
X13912Y25273D01*
X13985Y25138D01*
X14082Y25019D01*
X14201Y24922D01*
X14336Y24849D01*
X14483Y24805D01*
X14636Y24790D01*
X14789Y24805D01*
X14936Y24849D01*
X15071Y24922D01*
X15190Y25019D01*
X15287Y25138D01*
X15359Y25273D01*
X15404Y25420D01*
X15419Y25573D01*
X15404Y25726D01*
X15359Y25873D01*
X15287Y26008D01*
X15190Y26127D01*
X15071Y26224D01*
X14936Y26297D01*
X14789Y26341D01*
X14636Y26356D01*
D02*
G37*
G36*
X24272Y24936D02*
X24142Y24924D01*
X24017Y24886D01*
X23902Y24824D01*
X23802Y24742D01*
X23719Y24641D01*
X23658Y24526D01*
X23620Y24401D01*
X23607Y24272D01*
X23620Y24142D01*
X23658Y24017D01*
X23719Y23902D01*
X23802Y23802D01*
X23902Y23719D01*
X24017Y23658D01*
X24142Y23620D01*
X24272Y23607D01*
X24401Y23620D01*
X24526Y23658D01*
X24641Y23719D01*
X24742Y23802D01*
X24824Y23902D01*
X24886Y24017D01*
X24924Y24142D01*
X24936Y24272D01*
X24924Y24401D01*
X24886Y24526D01*
X24824Y24641D01*
X24742Y24742D01*
X24641Y24824D01*
X24526Y24886D01*
X24401Y24924D01*
X24272Y24936D01*
D02*
G37*
G36*
X18150Y22560D02*
X18075Y22550D01*
X18005Y22521D01*
X17945Y22475D01*
X17899Y22415D01*
X17870Y22345D01*
X17860Y22270D01*
Y21876D01*
X17870Y21801D01*
X17899Y21731D01*
X17945Y21671D01*
X18005Y21625D01*
X18075Y21596D01*
X18150Y21586D01*
X18225Y21596D01*
X18295Y21625D01*
X18355Y21671D01*
X18401Y21731D01*
X18430Y21801D01*
X18439Y21876D01*
Y22270D01*
X18430Y22345D01*
X18401Y22415D01*
X18355Y22475D01*
X18295Y22521D01*
X18225Y22550D01*
X18150Y22560D01*
D02*
G37*
G36*
X21746Y21047D02*
X21654Y21035D01*
X21569Y21000D01*
X21496Y20943D01*
X21439Y20870D01*
X21404Y20785D01*
X21392Y20693D01*
X21404Y20601D01*
X21439Y20516D01*
X21496Y20442D01*
X21569Y20386D01*
X21654Y20351D01*
X21670Y20349D01*
X21718Y20342D01*
D01*
X21721Y20342D01*
X21726Y20341D01*
X21726Y20341D01*
X21726Y20341D01*
X21726Y20340D01*
X21723Y20291D01*
X19726D01*
X19687Y20284D01*
X19654Y20261D01*
X19071Y19679D01*
X19049Y19645D01*
X19048Y19639D01*
X19041Y19606D01*
Y19276D01*
X18937D01*
X18890Y19267D01*
X18850Y19240D01*
X18824Y19200D01*
X18815Y19154D01*
X18824Y19107D01*
X18850Y19067D01*
X18870Y19054D01*
Y18997D01*
X18850Y18984D01*
X18824Y18944D01*
X18815Y18898D01*
X18824Y18851D01*
X18850Y18811D01*
X18870Y18798D01*
Y18741D01*
X18850Y18728D01*
X18824Y18689D01*
X18815Y18642D01*
X18824Y18595D01*
X18850Y18555D01*
X18870Y18542D01*
Y18486D01*
X18850Y18472D01*
X18824Y18433D01*
X18815Y18386D01*
X18824Y18339D01*
X18850Y18299D01*
X18870Y18286D01*
Y18230D01*
X18850Y18216D01*
X18824Y18177D01*
X18815Y18130D01*
X18824Y18083D01*
X18850Y18043D01*
X18870Y18030D01*
Y17974D01*
X18850Y17961D01*
X18824Y17921D01*
X18815Y17874D01*
X18824Y17827D01*
X18850Y17787D01*
X18870Y17774D01*
Y17718D01*
X18850Y17705D01*
X18824Y17665D01*
X18815Y17618D01*
X18824Y17571D01*
X18850Y17532D01*
X18890Y17505D01*
X18937Y17496D01*
X19350D01*
X19397Y17505D01*
X19437Y17532D01*
X19464Y17571D01*
X19473Y17618D01*
X19464Y17665D01*
X19437Y17705D01*
X19417Y17718D01*
Y17774D01*
X19437Y17787D01*
X19464Y17827D01*
X19473Y17874D01*
X19464Y17921D01*
X19437Y17961D01*
X19417Y17974D01*
Y18030D01*
X19437Y18043D01*
X19464Y18083D01*
X19473Y18130D01*
X19464Y18177D01*
X19437Y18216D01*
X19443Y18272D01*
X19452Y18283D01*
X19774D01*
X19806Y18290D01*
X19813Y18291D01*
X19846Y18313D01*
X20328Y18795D01*
X21357D01*
X21399Y18745D01*
X21392Y18693D01*
X21404Y18601D01*
X21439Y18516D01*
X21496Y18442D01*
X21569Y18386D01*
X21654Y18351D01*
X21746Y18339D01*
X21838Y18351D01*
X21923Y18386D01*
X21997Y18442D01*
X22053Y18516D01*
X22088Y18601D01*
X22100Y18693D01*
X22088Y18785D01*
X22053Y18870D01*
X21997Y18943D01*
X21923Y19000D01*
X21872Y19021D01*
X21882Y19071D01*
X22415D01*
X22439Y19012D01*
X22496Y18939D01*
X22569Y18882D01*
X22654Y18847D01*
X22746Y18835D01*
X22838Y18847D01*
X22923Y18882D01*
X22997Y18939D01*
X23053Y19012D01*
X23088Y19097D01*
X23100Y19189D01*
X23088Y19281D01*
X23053Y19366D01*
X22997Y19439D01*
X22923Y19496D01*
X22838Y19531D01*
X22746Y19543D01*
X22654Y19531D01*
X22569Y19496D01*
X22496Y19439D01*
X22439Y19366D01*
X22404Y19281D01*
X22403Y19276D01*
X21521D01*
X21512Y19325D01*
X21545Y19347D01*
X21580Y19382D01*
X21654Y19351D01*
X21746Y19339D01*
X21838Y19351D01*
X21923Y19386D01*
X21997Y19442D01*
X22053Y19516D01*
X22088Y19601D01*
X22100Y19693D01*
X22088Y19785D01*
X22053Y19870D01*
X21997Y19943D01*
X21923Y20000D01*
X21838Y20035D01*
X21826Y20037D01*
X21829Y20087D01*
X22408D01*
X22439Y20012D01*
X22496Y19939D01*
X22569Y19882D01*
X22654Y19847D01*
X22746Y19835D01*
X22838Y19847D01*
X22923Y19882D01*
X22997Y19939D01*
X23053Y20012D01*
X23088Y20097D01*
X23100Y20189D01*
X23088Y20281D01*
X23053Y20366D01*
X22997Y20439D01*
X22923Y20496D01*
X22838Y20531D01*
X22746Y20543D01*
X22654Y20531D01*
X22569Y20496D01*
X22496Y20439D01*
X22439Y20366D01*
X22408Y20291D01*
X21769D01*
X21766Y20340D01*
X21766Y20341D01*
X21766Y20341D01*
X21766Y20341D01*
X21770Y20342D01*
X21774Y20342D01*
X21822Y20349D01*
X21838Y20351D01*
X21923Y20386D01*
X21997Y20442D01*
X22053Y20516D01*
X22088Y20601D01*
X22100Y20693D01*
X22088Y20785D01*
X22053Y20870D01*
X21997Y20943D01*
X21923Y21000D01*
X21838Y21035D01*
X21746Y21047D01*
D02*
G37*
G36*
X25246Y22635D02*
X25111Y22622D01*
X24980Y22582D01*
X24860Y22518D01*
X24755Y22432D01*
X24669Y22327D01*
X24605Y22207D01*
X24565Y22076D01*
X24552Y21941D01*
X24565Y21806D01*
X24605Y21675D01*
X24669Y21555D01*
X24755Y21450D01*
X24860Y21364D01*
X24980Y21300D01*
X25111Y21260D01*
X25246Y21247D01*
X25382Y21260D01*
X25512Y21300D01*
X25632Y21364D01*
X25737Y21450D01*
X25823Y21555D01*
X25887Y21675D01*
X25927Y21806D01*
X25940Y21941D01*
X25927Y22076D01*
X25887Y22207D01*
X25823Y22327D01*
X25737Y22432D01*
X25632Y22518D01*
X25512Y22582D01*
X25382Y22622D01*
X25246Y22635D01*
D02*
G37*
%LPD*%
G36*
X19718Y18531D02*
X19730Y18514D01*
X19734Y18504D01*
X19722Y18488D01*
X19484D01*
X19469Y18514D01*
X19484Y18539D01*
X19675D01*
X19702Y18545D01*
X19718Y18531D01*
D02*
G37*
G36*
X20168Y19268D02*
X20157Y19260D01*
X20134Y19246D01*
X19633Y18744D01*
X19484D01*
X19469Y18770D01*
X19484Y18795D01*
X19498D01*
X19531Y18802D01*
X19537Y18803D01*
X19570Y18825D01*
X20062Y19317D01*
X20158D01*
X20168Y19268D01*
D02*
G37*
G36*
X21666Y20037D02*
X21654Y20035D01*
X21569Y20000D01*
X21496Y19943D01*
X21439Y19870D01*
X21404Y19785D01*
X21392Y19693D01*
X21404Y19601D01*
X21416Y19572D01*
X21383Y19522D01*
X20020D01*
X19981Y19514D01*
X19947Y19492D01*
X19481Y19025D01*
X19454Y19028D01*
X19447Y19043D01*
X19441Y19073D01*
X19464Y19107D01*
X19473Y19154D01*
X19464Y19200D01*
X19437Y19240D01*
X19397Y19267D01*
X19350Y19276D01*
X19246D01*
Y19564D01*
X19769Y20087D01*
X21663D01*
X21666Y20037D01*
D02*
G37*
G36*
X21620Y19021D02*
X21569Y19000D01*
X21564Y18996D01*
X21541Y19000D01*
X20285D01*
X20253Y18994D01*
X20246Y18992D01*
X20231Y18982D01*
X20199Y19021D01*
X20249Y19071D01*
X21610D01*
X21620Y19021D01*
D02*
G37*
D13*
X14980Y16437D02*
D03*
X15512D02*
D03*
X14980Y15561D02*
D03*
X15512D02*
D03*
D27*
X16533Y16400D02*
Y16811D01*
Y17244D02*
Y18850D01*
X15512Y14090D02*
X15950Y13652D01*
X16634D01*
X17963Y11978D02*
X17982Y11959D01*
X18386D01*
X21541Y18898D02*
X21746Y18693D01*
X20285Y18898D02*
X21541D01*
X19774Y18386D02*
X20285Y18898D01*
X19144Y18386D02*
X19774D01*
X19144Y18642D02*
X19675D01*
X22730Y19173D02*
X22746Y19189D01*
X20207Y19173D02*
X22730D01*
X19675Y18642D02*
X20207Y19173D01*
X19144Y18898D02*
X19498D01*
X21472Y19419D02*
X21746Y19693D01*
X20020Y19419D02*
X21472D01*
X19498Y18898D02*
X20020Y19419D01*
X19726Y20189D02*
X22746D01*
X19144Y19606D02*
X19726Y20189D01*
X21191Y17815D02*
X22431D01*
X22598Y17648D01*
X20807Y17815D02*
X21191D01*
Y17825D01*
X20699Y18317D02*
X21191Y17825D01*
X20108Y18317D02*
X20699D01*
X20108Y17874D02*
Y18317D01*
X19252Y17018D02*
X20108Y17874D01*
X18504Y17018D02*
X19252D01*
X17864Y17657D02*
X18504Y17018D01*
X17864Y17657D02*
Y18081D01*
X16939Y18386D02*
X17461D01*
X17766Y18081D01*
X17864D01*
X16533Y18850D02*
X16601Y18917D01*
X18061Y15915D02*
X19301D01*
X20443Y17972D02*
X20482Y17933D01*
Y17096D02*
Y17933D01*
X19144Y19154D02*
Y19606D01*
X16939Y18642D02*
X17323D01*
X17470Y18789D01*
Y19075D01*
X17166Y19379D02*
X17470Y19075D01*
X17166Y19379D02*
Y20177D01*
X16919Y18917D02*
X16939Y18898D01*
X16601Y18917D02*
X16919D01*
X20807Y16028D02*
Y17815D01*
X17963Y13183D02*
X20807Y16028D01*
X19301Y15915D02*
X20482Y17096D01*
X17963Y12736D02*
Y13183D01*
D29*
X17353Y10837D02*
Y13651D01*
X16575Y14429D02*
X17353Y13651D01*
X13022Y11143D02*
X13681D01*
X13012Y11132D02*
X13022Y11143D01*
X13012Y11132D02*
Y13593D01*
X14980Y15561D01*
X13681Y12256D02*
Y12259D01*
Y12233D02*
Y12256D01*
Y12259D02*
X15512Y14090D01*
X16648Y11944D02*
X16663Y11928D01*
X16648Y11944D02*
Y12657D01*
X14410Y17007D02*
Y17864D01*
X14400Y17874D02*
X14410Y17864D01*
X12835Y17874D02*
X14400D01*
X14823Y15718D02*
X14980Y15561D01*
X12894Y15718D02*
X14823D01*
X14410Y17864D02*
Y18671D01*
Y17864D02*
X14420Y17854D01*
X16604Y14459D02*
Y16299D01*
X16575Y14429D02*
X16604Y14459D01*
X16663Y10837D02*
X17353D01*
X17963Y11447D01*
X14636Y11693D02*
X14705Y11762D01*
X15167D02*
X16092Y10837D01*
X16663D01*
X14085Y11143D02*
X14636Y11693D01*
X13681Y11143D02*
X14085D01*
X16650Y23073D02*
X17150Y22573D01*
Y22073D02*
Y22573D01*
X15511Y20434D02*
X17150Y22073D01*
X15650Y22573D02*
Y23073D01*
X15150Y22073D02*
X15650Y22573D01*
X14420Y21343D02*
X15150Y22073D01*
X14420Y18681D02*
Y21343D01*
X15512Y15561D02*
Y16437D01*
Y14090D02*
Y15561D01*
X15511Y17854D02*
Y18681D01*
Y16438D02*
Y17854D01*
Y16438D02*
X15512Y16437D01*
X15511Y18681D02*
Y20434D01*
X14410Y17007D02*
X14980Y16437D01*
Y15561D02*
Y16437D01*
X14705Y11762D02*
X15167D01*
D31*
X13681Y12256D02*
X14518D01*
D32*
X15167Y12165D02*
D03*
D33*
X19163Y25573D02*
D03*
X14636D02*
D03*
D34*
X17650Y23073D02*
D03*
X18650D02*
D03*
X16650D02*
D03*
X15650D02*
D03*
X16150Y22073D02*
D03*
X15150D02*
D03*
X17150D02*
D03*
X18150D02*
D03*
D35*
X21746Y20693D02*
D03*
X22746Y21189D02*
D03*
X21746Y19693D02*
D03*
X22746Y20189D02*
D03*
X21746Y18693D02*
D03*
X22746Y19189D02*
D03*
X11240Y18780D02*
D03*
Y17402D02*
D03*
Y16024D02*
D03*
Y14646D02*
D03*
D36*
X15394Y15935D02*
D03*
X15374Y17726D02*
D03*
X18543Y12943D02*
D03*
X16634Y13652D02*
D03*
X18386Y11959D02*
D03*
X12835Y17874D02*
D03*
X12894Y15718D02*
D03*
X18642Y17992D02*
D03*
X18268Y19331D02*
D03*
X22077Y16142D02*
D03*
X21713Y15492D02*
D03*
X19902Y15728D02*
D03*
X18346Y14488D02*
D03*
X22598Y17648D02*
D03*
X20443Y17972D02*
D03*
X18061Y15915D02*
D03*
X17864Y18081D02*
D03*
D37*
X24272Y24272D02*
D03*
X12067D02*
D03*
X24272Y12067D02*
D03*
X12067D02*
D03*
D38*
X15167Y11762D02*
D03*
Y12569D02*
D03*
D39*
X16093Y16378D02*
D03*
Y16811D02*
D03*
Y17244D02*
D03*
X16526Y16378D02*
D03*
Y16811D02*
D03*
Y17244D02*
D03*
X16959Y16378D02*
D03*
Y16811D02*
D03*
Y17244D02*
D03*
D40*
X17166Y20177D02*
D03*
X18257D02*
D03*
X14420Y18681D02*
D03*
X15511D02*
D03*
X14420Y17854D02*
D03*
X15511D02*
D03*
D41*
X13681Y11143D02*
D03*
Y12233D02*
D03*
X16663Y10837D02*
D03*
Y11928D02*
D03*
D42*
X17939Y12657D02*
D03*
X16648D02*
D03*
D43*
X17963Y11978D02*
D03*
Y11447D02*
D03*
D44*
X14636Y11693D02*
D03*
Y11929D02*
D03*
Y12165D02*
D03*
Y12402D02*
D03*
Y12638D02*
D03*
X15837D02*
D03*
Y12402D02*
D03*
Y12165D02*
D03*
Y11929D02*
D03*
Y11693D02*
D03*
D45*
X16939Y17618D02*
D03*
Y17874D02*
D03*
Y18130D02*
D03*
Y18386D02*
D03*
Y18642D02*
D03*
Y18898D02*
D03*
Y19154D02*
D03*
X19144Y17618D02*
D03*
Y17874D02*
D03*
Y18130D02*
D03*
Y18386D02*
D03*
Y18642D02*
D03*
Y18898D02*
D03*
Y19154D02*
D03*
D46*
X16526Y16708D02*
D03*
D47*
X15871Y17549D02*
D03*
D48*
X14562Y11767D02*
D03*
D49*
X14542Y12264D02*
D03*
D50*
X16220Y12603D02*
D03*
M02*
