G04 Layer_Color=16770453*
%FSLAX24Y24*%
%MOIN*%
G70*
G01*
G75*
%ADD13R,0.0335X0.0374*%
%ADD40R,0.0394X0.0669*%
%ADD41R,0.0669X0.0394*%
%ADD42R,0.0358X0.0480*%
%ADD43R,0.0374X0.0335*%
G04:AMPARAMS|DCode=44|XSize=25.6mil|YSize=11.8mil|CornerRadius=3mil|HoleSize=0mil|Usage=FLASHONLY|Rotation=0.000|XOffset=0mil|YOffset=0mil|HoleType=Round|Shape=RoundedRectangle|*
%AMROUNDEDRECTD44*
21,1,0.0256,0.0059,0,0,0.0*
21,1,0.0197,0.0118,0,0,0.0*
1,1,0.0059,0.0098,-0.0030*
1,1,0.0059,-0.0098,-0.0030*
1,1,0.0059,-0.0098,0.0030*
1,1,0.0059,0.0098,0.0030*
%
%ADD44ROUNDEDRECTD44*%
%ADD45O,0.0551X0.0138*%
D13*
X14980Y16437D02*
D03*
X15512D02*
D03*
X14980Y15561D02*
D03*
X15512D02*
D03*
D40*
X17166Y20177D02*
D03*
X18257D02*
D03*
X14420Y18681D02*
D03*
X15511D02*
D03*
X14420Y17854D02*
D03*
X15511D02*
D03*
D41*
X13681Y11143D02*
D03*
Y12233D02*
D03*
X16663Y10837D02*
D03*
Y11928D02*
D03*
D42*
X17939Y12657D02*
D03*
X16648D02*
D03*
D43*
X17963Y11978D02*
D03*
Y11447D02*
D03*
D44*
X14636Y11693D02*
D03*
Y11929D02*
D03*
Y12165D02*
D03*
Y12402D02*
D03*
Y12638D02*
D03*
X15837D02*
D03*
Y12402D02*
D03*
Y12165D02*
D03*
Y11929D02*
D03*
Y11693D02*
D03*
D45*
X16939Y17618D02*
D03*
Y17874D02*
D03*
Y18130D02*
D03*
Y18386D02*
D03*
Y18642D02*
D03*
Y18898D02*
D03*
Y19154D02*
D03*
X19144Y17618D02*
D03*
Y17874D02*
D03*
Y18130D02*
D03*
Y18386D02*
D03*
Y18642D02*
D03*
Y18898D02*
D03*
Y19154D02*
D03*
M02*
