G04*
G04 #@! TF.GenerationSoftware,Altium Limited,CircuitMaker,2.2.0 (2.2.0.5)*
G04*
G04 Layer_Color=15132400*
%FSLAX24Y24*%
%MOIN*%
G70*
G04*
G04 #@! TF.SameCoordinates,7AF7A03E-A370-4C74-A711-71AC0677D318*
G04*
G04*
G04 #@! TF.FilePolarity,Positive*
G04*
G01*
G75*
%ADD10C,0.0098*%
%ADD11C,0.0100*%
%ADD12C,0.0118*%
%ADD13C,0.0079*%
%ADD14C,0.0050*%
%ADD15C,0.0080*%
%ADD16C,0.0049*%
D10*
X31900Y21301D02*
G03*
X31900Y21301I-49J0D01*
G01*
X24854Y18425D02*
G03*
X24854Y18425I-49J0D01*
G01*
X17965Y18504D02*
G03*
X17965Y18504I-49J0D01*
G01*
X12876Y46398D02*
G03*
X12876Y46398I-49J0D01*
G01*
D11*
X29970Y26516D02*
G03*
X29970Y28051I-443J767D01*
G01*
X29077Y28053D02*
G03*
X29077Y26519I443J-767D01*
G01*
X29272Y29321D02*
G03*
X30807Y29321I767J443D01*
G01*
X30809Y30215D02*
G03*
X29275Y30215I-767J-443D01*
G01*
X24532Y46196D02*
Y46296D01*
X25232D01*
Y46196D02*
Y46296D01*
X24532Y46196D02*
X25232D01*
X34642Y38403D02*
Y40896D01*
X31342Y38403D02*
Y40896D01*
Y38403D02*
X34642D01*
X31342Y40896D02*
X34642D01*
X30941Y38403D02*
Y40896D01*
X27641Y38403D02*
Y40896D01*
Y38403D02*
X30941D01*
X27641Y40896D02*
X30941D01*
X17669Y30733D02*
X23771D01*
X17669D02*
Y33332D01*
X23771Y30733D02*
X25356D01*
X17519Y41156D02*
X25506D01*
X17519Y33322D02*
Y41156D01*
X25506Y33322D02*
Y41156D01*
X17669Y33332D02*
X25356D01*
Y30733D02*
Y33332D01*
X25366Y33322D02*
X25506D01*
X17519D02*
X17659D01*
X27264Y43557D02*
Y49089D01*
X32024Y43557D02*
Y49089D01*
X27264Y43557D02*
X32024D01*
X27264Y49089D02*
X32024D01*
X29278Y25983D02*
X29778D01*
X29528Y25733D02*
Y26233D01*
X28739Y29514D02*
Y30014D01*
X28489Y29764D02*
X28989D01*
D12*
X15915Y15984D02*
Y22283D01*
X12520Y15984D02*
X15915D01*
X12520Y22283D02*
X12717D01*
X15915D01*
X33612Y22677D02*
X36811D01*
X37008D01*
X33612Y28976D02*
X37008D01*
X33612Y22677D02*
Y28976D01*
X33533Y16063D02*
X36732D01*
X36929D01*
X33533Y22362D02*
X36929D01*
X33533Y16063D02*
Y22362D01*
X28150Y12480D02*
Y15679D01*
Y12283D02*
Y12480D01*
X34449Y12283D02*
Y15679D01*
X28150D02*
X34449D01*
X21575Y12480D02*
Y15679D01*
Y12283D02*
Y12480D01*
X27874Y12283D02*
Y15679D01*
X21575D02*
X27874D01*
X14921Y12441D02*
Y15640D01*
Y12244D02*
Y12441D01*
X21220Y12244D02*
Y15640D01*
X14921D02*
X21220D01*
D13*
X18504Y45374D02*
Y45650D01*
X19134Y45374D02*
Y45650D01*
X18819Y45374D02*
Y45650D01*
X34016Y32250D02*
X34566D01*
X34491Y32325D02*
X34566Y32250D01*
X34091Y32325D02*
X34491D01*
X34016Y32249D02*
X34091Y32325D01*
X34491D02*
X34567Y32249D01*
Y31950D02*
Y32249D01*
X34016Y32175D02*
X34567D01*
X34016Y32000D02*
Y32249D01*
Y30975D02*
Y32000D01*
Y30975D02*
X34567D01*
Y31950D01*
X32835Y32250D02*
X33385D01*
X33310Y32325D02*
X33385Y32250D01*
X32910Y32325D02*
X33310D01*
X32835Y32249D02*
X32910Y32325D01*
X33310D02*
X33386Y32249D01*
Y31950D02*
Y32249D01*
X32835Y32175D02*
X33386D01*
X32835Y32000D02*
Y32249D01*
Y30975D02*
Y32000D01*
Y30975D02*
X33386D01*
Y31950D01*
X31733Y32250D02*
X32283D01*
X32208Y32325D02*
X32283Y32250D01*
X31808Y32325D02*
X32208D01*
X31732Y32249D02*
X31808Y32325D01*
X32208D02*
X32283Y32249D01*
Y31950D02*
Y32249D01*
X31732Y32175D02*
X32283D01*
X31732Y32000D02*
Y32249D01*
Y30975D02*
Y32000D01*
Y30975D02*
X32283D01*
Y31950D01*
X31260Y21417D02*
Y25354D01*
X30551Y21417D02*
Y25354D01*
Y21417D02*
X31260D01*
X30551Y25354D02*
X31260D01*
X24921Y19016D02*
X28858D01*
X24921Y19724D02*
X28858D01*
X24921Y19016D02*
Y19724D01*
X28858Y19016D02*
Y19724D01*
X18032Y19094D02*
X21969D01*
X18032Y19803D02*
X21969D01*
X18032Y19094D02*
Y19803D01*
X21969Y19094D02*
Y19803D01*
X28366Y42244D02*
X28642D01*
X28366Y41614D02*
X28642D01*
X28366Y41929D02*
X28642D01*
X13114Y46299D02*
X13264D01*
X13114Y45433D02*
X13264D01*
X13114D02*
Y46299D01*
X13264Y45433D02*
Y46299D01*
D14*
X32308Y32875D02*
Y33975D01*
X31708Y32875D02*
X32308D01*
X31708D02*
Y33975D01*
X32308D01*
D15*
X22961Y44715D02*
X24361D01*
Y42135D02*
Y44715D01*
X22961Y42135D02*
X24361D01*
X22961D02*
Y44715D01*
X20197Y46535D02*
Y47362D01*
X20433Y45472D02*
X20787D01*
X22598D02*
X22953D01*
X23189Y46535D02*
Y47362D01*
D16*
X25132Y43835D02*
X25086Y43881D01*
Y43973D01*
X25132Y44019D01*
X25178D01*
X25224Y43973D01*
Y43927D01*
Y43973D01*
X25270Y44019D01*
X25315D01*
X25361Y43973D01*
Y43881D01*
X25315Y43835D01*
X22661Y44313D02*
X22386D01*
X22524Y44175D01*
Y44359D01*
X25361Y42066D02*
Y42158D01*
Y42112D01*
X25086D01*
X25132Y42066D01*
X25365Y43101D02*
Y42917D01*
X25181Y43101D01*
X25136D01*
X25090Y43055D01*
Y42963D01*
X25136Y42917D01*
X23545Y32072D02*
Y32347D01*
Y32255D01*
X23361Y32072D01*
X23499Y32209D01*
X23361Y32347D01*
X23086Y32072D02*
X23269D01*
Y32347D01*
X23086D01*
X23269Y32209D02*
X23178D01*
X22810Y32072D02*
X22994D01*
Y32347D01*
X22810D01*
X22994Y32209D02*
X22902D01*
X22718Y32347D02*
Y32072D01*
X22581D01*
X22535Y32118D01*
Y32209D01*
X22581Y32255D01*
X22718D01*
X22305Y32072D02*
X22397D01*
X22443Y32118D01*
Y32301D01*
X22397Y32347D01*
X22305D01*
X22259Y32301D01*
Y32118D01*
X22305Y32072D01*
X22167D02*
Y32301D01*
X22121Y32347D01*
X22030D01*
X21984Y32301D01*
Y32072D01*
X21892D02*
X21708D01*
X21800D01*
Y32347D01*
X14409Y27480D02*
X14226D01*
X14134Y27388D01*
X14226Y27297D01*
X14409D01*
X14134Y27205D02*
Y27113D01*
Y27159D01*
X14318D01*
Y27205D01*
X14134Y26975D02*
X14318D01*
Y26837D01*
X14272Y26792D01*
X14134D01*
X14272Y26424D02*
Y26241D01*
X14363Y26332D02*
X14180D01*
X14449Y25039D02*
X14265D01*
X14173Y24948D01*
X14265Y24856D01*
X14449D01*
X14173Y24764D02*
Y24672D01*
Y24718D01*
X14357D01*
Y24764D01*
X14173Y24534D02*
X14357D01*
Y24397D01*
X14311Y24351D01*
X14173D01*
X14311Y23983D02*
Y23800D01*
Y30630D02*
Y30446D01*
X14272Y32835D02*
Y32651D01*
X14363Y32743D02*
X14180D01*
X14114Y37638D02*
Y37454D01*
X14206Y37546D02*
X14022D01*
X14153Y35433D02*
Y35249D01*
X13917Y42598D02*
Y42415D01*
X14009Y42507D02*
X13825D01*
X13957Y40394D02*
Y40210D01*
X35295Y40079D02*
Y40262D01*
X35203Y40171D02*
X35387D01*
X35256Y42283D02*
Y42467D01*
X35217Y35118D02*
Y35302D01*
X35125Y35210D02*
X35308D01*
X35177Y37323D02*
Y37506D01*
X35217Y30354D02*
Y30538D01*
X35125Y30446D02*
X35308D01*
X35177Y32559D02*
Y32743D01*
X23250Y25220D02*
Y25496D01*
X23388D01*
X23434Y25450D01*
Y25358D01*
X23388Y25312D01*
X23250D01*
X23342D02*
X23434Y25220D01*
X23526D02*
X23617D01*
X23571D01*
Y25496D01*
X23526Y25450D01*
X23755Y25220D02*
X23847D01*
X23801D01*
Y25496D01*
X23755Y25450D01*
X18594Y46910D02*
X18548Y46955D01*
X18456D01*
X18410Y46910D01*
Y46726D01*
X18456Y46680D01*
X18548D01*
X18594Y46726D01*
X18685Y46680D02*
X18777D01*
X18731D01*
Y46955D01*
X18685Y46910D01*
X18915Y46680D02*
X19007D01*
X18961D01*
Y46955D01*
X18915Y46910D01*
X31654Y34134D02*
Y34409D01*
X31791D01*
X31837Y34363D01*
Y34272D01*
X31791Y34226D01*
X31654D01*
X31745D02*
X31837Y34134D01*
X32113D02*
X31929D01*
X32113Y34318D01*
Y34363D01*
X32067Y34409D01*
X31975D01*
X31929Y34363D01*
X32205Y34134D02*
X32296D01*
X32250D01*
Y34409D01*
X32205Y34363D01*
X32795Y34409D02*
Y34685D01*
X32933D01*
X32979Y34639D01*
Y34547D01*
X32933Y34501D01*
X32795D01*
X32887D02*
X32979Y34409D01*
X33254D02*
X33071D01*
X33254Y34593D01*
Y34639D01*
X33209Y34685D01*
X33117D01*
X33071Y34639D01*
X33346D02*
X33392Y34685D01*
X33484D01*
X33530Y34639D01*
Y34455D01*
X33484Y34409D01*
X33392D01*
X33346Y34455D01*
Y34639D01*
X33976Y34213D02*
Y34488D01*
X34114D01*
X34160Y34442D01*
Y34350D01*
X34114Y34304D01*
X33976D01*
X34068D02*
X34160Y34213D01*
X34252D02*
X34344D01*
X34298D01*
Y34488D01*
X34252Y34442D01*
X34481Y34259D02*
X34527Y34213D01*
X34619D01*
X34665Y34259D01*
Y34442D01*
X34619Y34488D01*
X34527D01*
X34481Y34442D01*
Y34396D01*
X34527Y34350D01*
X34665D01*
X33976Y32749D02*
X34022Y32795D01*
X34114D01*
X34160Y32749D01*
Y32703D01*
X34114Y32657D01*
X34068D01*
X34114D01*
X34160Y32612D01*
Y32566D01*
X34114Y32520D01*
X34022D01*
X33976Y32566D01*
X33097Y32520D02*
X32913D01*
X33097Y32703D01*
Y32749D01*
X33051Y32795D01*
X32959D01*
X32913Y32749D01*
X31575Y32520D02*
X31667D01*
X31621D01*
Y32795D01*
X31575Y32749D01*
X15315Y48976D02*
Y48747D01*
X15361Y48701D01*
X15453D01*
X15499Y48747D01*
Y48976D01*
X15590D02*
X15774D01*
Y48930D01*
X15590Y48747D01*
Y48701D01*
X24530Y47885D02*
Y47702D01*
X24622Y47610D01*
X24714Y47702D01*
Y47885D01*
X24806D02*
Y47610D01*
X24943D01*
X24989Y47656D01*
Y47840D01*
X24943Y47885D01*
X24806D01*
X25265Y47610D02*
X25081D01*
X25265Y47794D01*
Y47840D01*
X25219Y47885D01*
X25127D01*
X25081Y47840D01*
X28819Y21653D02*
Y21424D01*
X28865Y21378D01*
X28957D01*
X29003Y21424D01*
Y21653D01*
X29278D02*
X29094D01*
Y21516D01*
X29186Y21562D01*
X29232D01*
X29278Y21516D01*
Y21424D01*
X29232Y21378D01*
X29140D01*
X29094Y21424D01*
X24760Y21395D02*
Y21166D01*
X24806Y21120D01*
X24898D01*
X24944Y21166D01*
Y21395D01*
X25173Y21120D02*
Y21395D01*
X25036Y21258D01*
X25219D01*
X17870Y21465D02*
Y21236D01*
X17916Y21190D01*
X18008D01*
X18054Y21236D01*
Y21465D01*
X18146Y21420D02*
X18191Y21465D01*
X18283D01*
X18329Y21420D01*
Y21374D01*
X18283Y21328D01*
X18237D01*
X18283D01*
X18329Y21282D01*
Y21236D01*
X18283Y21190D01*
X18191D01*
X18146Y21236D01*
X22087Y41653D02*
Y41424D01*
X22133Y41378D01*
X22224D01*
X22270Y41424D01*
Y41653D01*
X22362Y41378D02*
X22454D01*
X22408D01*
Y41653D01*
X22362Y41608D01*
X31524Y41420D02*
X31478Y41466D01*
X31386D01*
X31340Y41420D01*
Y41374D01*
X31386Y41328D01*
X31478D01*
X31524Y41282D01*
Y41236D01*
X31478Y41190D01*
X31386D01*
X31340Y41236D01*
X31799Y41190D02*
X31616D01*
X31799Y41374D01*
Y41420D01*
X31753Y41466D01*
X31661D01*
X31616Y41420D01*
X27824D02*
X27778Y41466D01*
X27686D01*
X27640Y41420D01*
Y41374D01*
X27686Y41328D01*
X27778D01*
X27824Y41282D01*
Y41236D01*
X27778Y41190D01*
X27686D01*
X27640Y41236D01*
X27915Y41190D02*
X28007D01*
X27961D01*
Y41466D01*
X27915Y41420D01*
X22913Y29016D02*
Y29291D01*
X23051D01*
X23097Y29245D01*
Y29153D01*
X23051Y29108D01*
X22913D01*
X23005D02*
X23097Y29016D01*
X23189D02*
X23281D01*
X23235D01*
Y29291D01*
X23189Y29245D01*
X23602Y29016D02*
X23418D01*
X23602Y29199D01*
Y29245D01*
X23556Y29291D01*
X23464D01*
X23418Y29245D01*
X31570Y37880D02*
Y38156D01*
X31708D01*
X31754Y38110D01*
Y38018D01*
X31708Y37972D01*
X31570D01*
X31662D02*
X31754Y37880D01*
X31846D02*
X31937D01*
X31891D01*
Y38156D01*
X31846Y38110D01*
X32075D02*
X32121Y38156D01*
X32213D01*
X32259Y38110D01*
Y37926D01*
X32213Y37880D01*
X32121D01*
X32075Y37926D01*
Y38110D01*
X30709Y31181D02*
Y31457D01*
X30846D01*
X30892Y31411D01*
Y31319D01*
X30846Y31273D01*
X30709D01*
X30800D02*
X30892Y31181D01*
X31168Y31457D02*
X31076Y31411D01*
X30984Y31319D01*
Y31227D01*
X31030Y31181D01*
X31122D01*
X31168Y31227D01*
Y31273D01*
X31122Y31319D01*
X30984D01*
X30709Y32362D02*
Y32638D01*
X30846D01*
X30892Y32592D01*
Y32500D01*
X30846Y32454D01*
X30709D01*
X30800D02*
X30892Y32362D01*
X31168Y32638D02*
X30984D01*
Y32500D01*
X31076Y32546D01*
X31122D01*
X31168Y32500D01*
Y32408D01*
X31122Y32362D01*
X31030D01*
X30984Y32408D01*
X30748Y33543D02*
Y33819D01*
X30886D01*
X30932Y33773D01*
Y33681D01*
X30886Y33635D01*
X30748D01*
X30840D02*
X30932Y33543D01*
X31161D02*
Y33819D01*
X31024Y33681D01*
X31207D01*
X30748Y34764D02*
Y35039D01*
X30886D01*
X30932Y34993D01*
Y34902D01*
X30886Y34856D01*
X30748D01*
X30840D02*
X30932Y34764D01*
X31024Y34993D02*
X31069Y35039D01*
X31161D01*
X31207Y34993D01*
Y34947D01*
X31161Y34902D01*
X31115D01*
X31161D01*
X31207Y34856D01*
Y34810D01*
X31161Y34764D01*
X31069D01*
X31024Y34810D01*
X30748Y35866D02*
Y36142D01*
X30886D01*
X30932Y36096D01*
Y36004D01*
X30886Y35958D01*
X30748D01*
X30840D02*
X30932Y35866D01*
X31207D02*
X31024D01*
X31207Y36050D01*
Y36096D01*
X31161Y36142D01*
X31069D01*
X31024Y36096D01*
X30748Y36969D02*
Y37244D01*
X30886D01*
X30932Y37198D01*
Y37106D01*
X30886Y37060D01*
X30748D01*
X30840D02*
X30932Y36969D01*
X31024D02*
X31115D01*
X31069D01*
Y37244D01*
X31024Y37198D01*
X17520Y41460D02*
Y41736D01*
X17612Y41644D01*
X17704Y41736D01*
Y41460D01*
X17795D02*
X17887D01*
X17841D01*
Y41736D01*
X17795Y41690D01*
X24318Y45905D02*
X24226D01*
X24272D01*
Y45676D01*
X24226Y45630D01*
X24180D01*
X24134Y45676D01*
X24409Y45630D02*
X24501D01*
X24455D01*
Y45905D01*
X24409Y45860D01*
X27585Y43386D02*
X27493D01*
X27539D01*
Y43156D01*
X27493Y43110D01*
X27447D01*
X27402Y43156D01*
X27677Y43340D02*
X27723Y43386D01*
X27815D01*
X27861Y43340D01*
Y43294D01*
X27815Y43248D01*
X27861Y43202D01*
Y43156D01*
X27815Y43110D01*
X27723D01*
X27677Y43156D01*
Y43202D01*
X27723Y43248D01*
X27677Y43294D01*
Y43340D01*
X27723Y43248D02*
X27815D01*
X10420Y34088D02*
X10374Y34134D01*
X10282D01*
X10236Y34088D01*
Y33904D01*
X10282Y33858D01*
X10374D01*
X10420Y33904D01*
X10512Y33812D02*
X10695D01*
X10787Y34134D02*
Y33858D01*
X10971D01*
X11063D02*
X11155D01*
X11109D01*
Y34042D01*
X11063D01*
X11292Y33858D02*
Y34042D01*
X11338D01*
X11384Y33996D01*
Y33858D01*
Y33996D01*
X11430Y34042D01*
X11476Y33996D01*
Y33858D01*
X11568D02*
X11660D01*
X11614D01*
Y34042D01*
X11568D01*
X11843Y34088D02*
Y34042D01*
X11797D01*
X11889D01*
X11843D01*
Y33904D01*
X11889Y33858D01*
X10236Y38858D02*
Y38583D01*
X10374D01*
X10420Y38629D01*
Y38675D01*
X10374Y38720D01*
X10236D01*
X10374D01*
X10420Y38766D01*
Y38812D01*
X10374Y38858D01*
X10236D01*
X10512Y38537D02*
X10695D01*
X10787Y38858D02*
Y38583D01*
X10971D01*
X11063D02*
X11155D01*
X11109D01*
Y38766D01*
X11063D01*
X11292Y38583D02*
Y38766D01*
X11338D01*
X11384Y38720D01*
Y38583D01*
Y38720D01*
X11430Y38766D01*
X11476Y38720D01*
Y38583D01*
X11568D02*
X11660D01*
X11614D01*
Y38766D01*
X11568D01*
X11843Y38812D02*
Y38766D01*
X11797D01*
X11889D01*
X11843D01*
Y38629D01*
X11889Y38583D01*
X10236Y43307D02*
Y43491D01*
X10328Y43583D01*
X10420Y43491D01*
Y43307D01*
Y43445D01*
X10236D01*
X10512Y43261D02*
X10695D01*
X10787Y43583D02*
Y43307D01*
X10971D01*
X11063D02*
X11155D01*
X11109D01*
Y43491D01*
X11063D01*
X11292Y43307D02*
Y43491D01*
X11338D01*
X11384Y43445D01*
Y43307D01*
Y43445D01*
X11430Y43491D01*
X11476Y43445D01*
Y43307D01*
X11568D02*
X11660D01*
X11614D01*
Y43491D01*
X11568D01*
X11843Y43537D02*
Y43491D01*
X11797D01*
X11889D01*
X11843D01*
Y43353D01*
X11889Y43307D01*
X35433Y34134D02*
X35617D01*
Y34088D01*
X35433Y33904D01*
Y33858D01*
X35617D01*
X35709Y33812D02*
X35892D01*
X35984Y34134D02*
Y33858D01*
X36168D01*
X36260D02*
X36351D01*
X36305D01*
Y34042D01*
X36260D01*
X36489Y33858D02*
Y34042D01*
X36535D01*
X36581Y33996D01*
Y33858D01*
Y33996D01*
X36627Y34042D01*
X36673Y33996D01*
Y33858D01*
X36765D02*
X36857D01*
X36811D01*
Y34042D01*
X36765D01*
X37040Y34088D02*
Y34042D01*
X36994D01*
X37086D01*
X37040D01*
Y33904D01*
X37086Y33858D01*
X35433Y39252D02*
Y39206D01*
X35525Y39114D01*
X35617Y39206D01*
Y39252D01*
X35525Y39114D02*
Y38976D01*
X35709Y38930D02*
X35892D01*
X35984Y39252D02*
Y38976D01*
X36168D01*
X36260D02*
X36351D01*
X36305D01*
Y39160D01*
X36260D01*
X36489Y38976D02*
Y39160D01*
X36535D01*
X36581Y39114D01*
Y38976D01*
Y39114D01*
X36627Y39160D01*
X36673Y39114D01*
Y38976D01*
X36765D02*
X36857D01*
X36811D01*
Y39160D01*
X36765D01*
X37040Y39206D02*
Y39160D01*
X36994D01*
X37086D01*
X37040D01*
Y39022D01*
X37086Y38976D01*
X35433Y44370D02*
X35617Y44094D01*
Y44370D02*
X35433Y44094D01*
X35709Y44049D02*
X35892D01*
X35984Y44370D02*
Y44094D01*
X36168D01*
X36260D02*
X36351D01*
X36305D01*
Y44278D01*
X36260D01*
X36489Y44094D02*
Y44278D01*
X36535D01*
X36581Y44232D01*
Y44094D01*
Y44232D01*
X36627Y44278D01*
X36673Y44232D01*
Y44094D01*
X36765D02*
X36857D01*
X36811D01*
Y44278D01*
X36765D01*
X37040Y44324D02*
Y44278D01*
X36994D01*
X37086D01*
X37040D01*
Y44140D01*
X37086Y44094D01*
X33071Y25827D02*
X33346D01*
Y25965D01*
X33301Y26010D01*
X33255D01*
X33209Y25965D01*
Y25827D01*
Y25965D01*
X33163Y26010D01*
X33117D01*
X33071Y25965D01*
Y25827D01*
X33346Y26378D02*
X33163D01*
X33071Y26470D01*
X33163Y26561D01*
X33346D01*
X33209D01*
Y26378D01*
X33163Y26653D02*
X33346Y26837D01*
X33255Y26745D01*
X33163Y26837D01*
X33346Y26653D01*
Y26929D02*
Y27021D01*
Y26975D01*
X33163D01*
Y26929D01*
X33346Y27158D02*
Y27296D01*
X33301Y27342D01*
X33255Y27296D01*
Y27204D01*
X33209Y27158D01*
X33163Y27204D01*
Y27342D01*
X33268Y19134D02*
X33084D01*
X32992Y19226D01*
X33084Y19318D01*
X33268D01*
X33130D01*
Y19134D01*
X33268Y19685D02*
X33084D01*
X32992Y19777D01*
X33084Y19869D01*
X33268D01*
X33130D01*
Y19685D01*
X33084Y19960D02*
X33268Y20144D01*
X33176Y20052D01*
X33084Y20144D01*
X33268Y19960D01*
Y20236D02*
Y20328D01*
Y20282D01*
X33084D01*
Y20236D01*
X33268Y20465D02*
Y20603D01*
X33222Y20649D01*
X33176Y20603D01*
Y20511D01*
X33130Y20465D01*
X33084Y20511D01*
Y20649D01*
X31102Y16142D02*
X31286D01*
Y16096D01*
X31102Y15912D01*
Y15866D01*
X31286D01*
X31653D02*
Y16050D01*
X31745Y16142D01*
X31837Y16050D01*
Y15866D01*
Y16004D01*
X31653D01*
X31929Y16050D02*
X32113Y15866D01*
X32021Y15958D01*
X32113Y16050D01*
X31929Y15866D01*
X32204D02*
X32296D01*
X32250D01*
Y16050D01*
X32204D01*
X32434Y15866D02*
X32572D01*
X32618Y15912D01*
X32572Y15958D01*
X32480D01*
X32434Y16004D01*
X32480Y16050D01*
X32618D01*
X24488Y16181D02*
Y16135D01*
X24580Y16043D01*
X24672Y16135D01*
Y16181D01*
X24580Y16043D02*
Y15906D01*
X25039D02*
Y16089D01*
X25131Y16181D01*
X25223Y16089D01*
Y15906D01*
Y16043D01*
X25039D01*
X25315Y16089D02*
X25498Y15906D01*
X25407Y15997D01*
X25498Y16089D01*
X25315Y15906D01*
X25590D02*
X25682D01*
X25636D01*
Y16089D01*
X25590D01*
X25820Y15906D02*
X25958D01*
X26003Y15951D01*
X25958Y15997D01*
X25866D01*
X25820Y16043D01*
X25866Y16089D01*
X26003D01*
X17638Y16142D02*
X17821Y15866D01*
Y16142D02*
X17638Y15866D01*
X18097D02*
X17913D01*
X18097Y16050D01*
Y16096D01*
X18051Y16142D01*
X17959D01*
X17913Y16096D01*
X18464Y15866D02*
Y16050D01*
X18556Y16142D01*
X18648Y16050D01*
Y15866D01*
Y16004D01*
X18464D01*
X18740Y16050D02*
X18923Y15866D01*
X18832Y15958D01*
X18923Y16050D01*
X18740Y15866D01*
X19015D02*
X19107D01*
X19061D01*
Y16050D01*
X19015D01*
X19245Y15866D02*
X19383D01*
X19429Y15912D01*
X19383Y15958D01*
X19291D01*
X19245Y16004D01*
X19291Y16050D01*
X19429D01*
X16260Y19606D02*
X16535Y19790D01*
X16260D02*
X16535Y19606D01*
Y19882D02*
Y19974D01*
Y19928D01*
X16260D01*
X16306Y19882D01*
X16535Y20387D02*
X16352D01*
X16260Y20479D01*
X16352Y20571D01*
X16535D01*
X16398D01*
Y20387D01*
X16352Y20662D02*
X16535Y20846D01*
X16444Y20754D01*
X16352Y20846D01*
X16535Y20662D01*
Y20938D02*
Y21030D01*
Y20984D01*
X16352D01*
Y20938D01*
X16535Y21167D02*
Y21305D01*
X16490Y21351D01*
X16444Y21305D01*
Y21213D01*
X16398Y21167D01*
X16352Y21213D01*
Y21351D01*
X27824Y42870D02*
X27778Y42916D01*
X27686D01*
X27640Y42870D01*
Y42686D01*
X27686Y42640D01*
X27778D01*
X27824Y42686D01*
X28099Y42640D02*
X27915D01*
X28099Y42824D01*
Y42870D01*
X28053Y42916D01*
X27961D01*
X27915Y42870D01*
X28624Y28900D02*
X28578Y28946D01*
X28486D01*
X28440Y28900D01*
Y28716D01*
X28486Y28670D01*
X28578D01*
X28624Y28716D01*
X28716Y28900D02*
X28761Y28946D01*
X28853D01*
X28899Y28900D01*
Y28854D01*
X28853Y28808D01*
X28807D01*
X28853D01*
X28899Y28762D01*
Y28716D01*
X28853Y28670D01*
X28761D01*
X28716Y28716D01*
X30978Y28478D02*
X31024Y28524D01*
Y28616D01*
X30978Y28661D01*
X30794D01*
X30748Y28616D01*
Y28524D01*
X30794Y28478D01*
X30748Y28386D02*
Y28294D01*
Y28340D01*
X31024D01*
X30978Y28386D01*
X15748Y28189D02*
X15564D01*
X15472Y28097D01*
X15564Y28005D01*
X15748D01*
Y27913D02*
Y27822D01*
Y27868D01*
X15472D01*
Y27913D01*
Y27822D01*
Y27684D02*
X15748D01*
X15472Y27500D01*
X15748D01*
X15472Y27041D02*
X15564Y27133D01*
X15656D01*
X15748Y27041D01*
X15472Y26903D02*
Y26811D01*
Y26857D01*
X15748D01*
X15702Y26903D01*
X14081Y44967D02*
Y45151D01*
X14035Y45197D01*
X13944D01*
X13898Y45151D01*
Y44967D01*
X13944Y44921D01*
X14035D01*
X13989Y45013D02*
X14081Y44921D01*
X14035D02*
X14081Y44967D01*
X14173Y44921D02*
X14265D01*
X14219D01*
Y45197D01*
X14173Y45151D01*
X14055Y46614D02*
Y46890D01*
X14193D01*
X14239Y46844D01*
Y46752D01*
X14193Y46706D01*
X14055D01*
X14147D02*
X14239Y46614D01*
X14331Y46660D02*
X14377Y46614D01*
X14468D01*
X14514Y46660D01*
Y46844D01*
X14468Y46890D01*
X14377D01*
X14331Y46844D01*
Y46798D01*
X14377Y46752D01*
X14514D01*
X18032Y27795D02*
Y28071D01*
X18169D01*
X18215Y28025D01*
Y27933D01*
X18169Y27887D01*
X18032D01*
X18123D02*
X18215Y27795D01*
X18307D02*
X18399D01*
X18353D01*
Y28071D01*
X18307Y28025D01*
X18537D02*
X18583Y28071D01*
X18674D01*
X18720Y28025D01*
Y27979D01*
X18674Y27933D01*
X18628D01*
X18674D01*
X18720Y27887D01*
Y27841D01*
X18674Y27795D01*
X18583D01*
X18537Y27841D01*
X11457Y44173D02*
Y44449D01*
X11594D01*
X11640Y44403D01*
Y44311D01*
X11594Y44265D01*
X11457D01*
X11549D02*
X11640Y44173D01*
X11732D02*
X11824D01*
X11778D01*
Y44449D01*
X11732Y44403D01*
X12100Y44173D02*
Y44449D01*
X11962Y44311D01*
X12145D01*
X12990Y48660D02*
Y48935D01*
X13128D01*
X13174Y48890D01*
Y48798D01*
X13128Y48752D01*
X12990D01*
X13082D02*
X13174Y48660D01*
X13266D02*
X13357D01*
X13311D01*
Y48935D01*
X13266Y48890D01*
X13679Y48935D02*
X13495D01*
Y48798D01*
X13587Y48844D01*
X13633D01*
X13679Y48798D01*
Y48706D01*
X13633Y48660D01*
X13541D01*
X13495Y48706D01*
M02*
