G04*
G04 #@! TF.GenerationSoftware,Altium Limited,CircuitMaker,2.2.0 (2.2.0.5)*
G04*
G04 Layer_Color=128*
%FSLAX24Y24*%
%MOIN*%
G70*
G04*
G04 #@! TF.SameCoordinates,7AF7A03E-A370-4C74-A711-71AC0677D318*
G04*
G04*
G04 #@! TF.FilePolarity,Positive*
G04*
G01*
G75*
%ADD109C,0.0020*%
D109*
X11673Y30433D02*
X12185D01*
X11929Y30177D02*
Y30689D01*
X11673Y32402D02*
X12185D01*
X11929Y32146D02*
Y32657D01*
X37146Y32638D02*
X37657D01*
X37402Y32382D02*
Y32894D01*
X37146Y30669D02*
X37657D01*
X37402Y30413D02*
Y30925D01*
X15122Y20384D02*
X15437D01*
X15280Y20226D02*
Y20541D01*
X15122Y19384D02*
X15437D01*
X15280Y19226D02*
Y19541D01*
X15122Y17384D02*
X15437D01*
X15280Y17226D02*
Y17541D01*
X15122Y18384D02*
X15437D01*
X15280Y18226D02*
Y18541D01*
X14122Y17884D02*
X14437D01*
X14280Y17726D02*
Y18041D01*
X14122Y18884D02*
X14437D01*
X14280Y18726D02*
Y19041D01*
X14122Y20884D02*
X14437D01*
X14280Y20726D02*
Y21041D01*
X14122Y19884D02*
X14437D01*
X14280Y19726D02*
Y20041D01*
X11150Y16870D02*
X12409D01*
X11780Y16240D02*
Y17500D01*
X11150Y21398D02*
X12409D01*
X11780Y20768D02*
Y22028D01*
X16254Y31182D02*
X16654D01*
X16454Y30982D02*
Y31382D01*
X16254Y32182D02*
X16654D01*
X16454Y31982D02*
Y32382D01*
X16254Y33182D02*
X16654D01*
X16454Y32982D02*
Y33382D01*
X16254Y34182D02*
X16654D01*
X16454Y33982D02*
Y34382D01*
X16254Y35182D02*
X16654D01*
X16454Y34982D02*
Y35382D01*
X16254Y36182D02*
X16654D01*
X16454Y35982D02*
Y36382D01*
X16254Y37182D02*
X16654D01*
X16454Y36982D02*
Y37382D01*
X16254Y38182D02*
X16654D01*
X16454Y37982D02*
Y38382D01*
X16254Y39182D02*
X16654D01*
X16454Y38982D02*
Y39382D01*
X16254Y40182D02*
X16654D01*
X16454Y39982D02*
Y40382D01*
X16254Y41182D02*
X16654D01*
X16454Y40982D02*
Y41382D01*
X16254Y42182D02*
X16654D01*
X16454Y41982D02*
Y42382D01*
X16254Y43182D02*
X16654D01*
X16454Y42982D02*
Y43382D01*
X16254Y45182D02*
X16654D01*
X16454Y44982D02*
Y45382D01*
X26254Y31182D02*
X26654D01*
X26454Y30982D02*
Y31382D01*
X26254Y32182D02*
X26654D01*
X26454Y31982D02*
Y32382D01*
X26254Y33182D02*
X26654D01*
X26454Y32982D02*
Y33382D01*
X26254Y34182D02*
X26654D01*
X26454Y33982D02*
Y34382D01*
X26254Y35182D02*
X26654D01*
X26454Y34982D02*
Y35382D01*
X26254Y36182D02*
X26654D01*
X26454Y35982D02*
Y36382D01*
X26254Y37182D02*
X26654D01*
X26454Y36982D02*
Y37382D01*
X26254Y38182D02*
X26654D01*
X26454Y37982D02*
Y38382D01*
X26254Y39182D02*
X26654D01*
X26454Y38982D02*
Y39382D01*
X26254Y40182D02*
X26654D01*
X26454Y39982D02*
Y40382D01*
X26254Y41182D02*
X26654D01*
X26454Y40982D02*
Y41382D01*
X26254Y42182D02*
X26654D01*
X26454Y41982D02*
Y42382D01*
X26254Y43182D02*
X26654D01*
X26454Y42982D02*
Y43382D01*
X26254Y44182D02*
X26654D01*
X26454Y43982D02*
Y44382D01*
X26254Y45182D02*
X26654D01*
X26454Y44982D02*
Y45382D01*
X16254Y44182D02*
X16654D01*
X16454Y43982D02*
Y44382D01*
X16265Y48135D02*
X17446D01*
X16856Y47544D02*
Y48725D01*
X25462Y48135D02*
X26643D01*
X26052Y47544D02*
Y48725D01*
X25462Y29804D02*
X26643D01*
X26052Y29213D02*
Y30394D01*
X16265Y29804D02*
X17446D01*
X16856Y29213D02*
Y30394D01*
X31810Y39661D02*
X32204D01*
X32007Y39465D02*
Y39858D01*
X33780Y39646D02*
X34174D01*
X33977Y39449D02*
Y39843D01*
X28109Y39661D02*
X28503D01*
X28306Y39465D02*
Y39858D01*
X30079Y39646D02*
X30473D01*
X30276Y39449D02*
Y39843D01*
X21434Y36632D02*
X22334D01*
X21884Y36182D02*
Y37082D01*
X20610Y46870D02*
X21043D01*
X20827Y46654D02*
Y47087D01*
X22342Y46870D02*
X22776D01*
X22559Y46654D02*
Y47087D01*
X11516Y37205D02*
X12028D01*
X11772Y36949D02*
Y37461D01*
X11516Y35236D02*
X12028D01*
X11772Y34980D02*
Y35492D01*
X11555Y42047D02*
X12067D01*
X11811Y41791D02*
Y42303D01*
X11555Y40079D02*
X12067D01*
X11811Y39823D02*
Y40335D01*
X37146Y35551D02*
X37657D01*
X37402Y35295D02*
Y35807D01*
X37146Y37520D02*
X37657D01*
X37402Y37264D02*
Y37776D01*
X37146Y40472D02*
X37657D01*
X37402Y40217D02*
Y40728D01*
X37146Y42441D02*
X37657D01*
X37402Y42185D02*
Y42697D01*
X37118Y23563D02*
X38378D01*
X37748Y22933D02*
Y24193D01*
X37118Y28091D02*
X38378D01*
X37748Y27461D02*
Y28720D01*
X35091Y25077D02*
X35406D01*
X35248Y24919D02*
Y25234D01*
X35091Y24077D02*
X35406D01*
X35248Y23919D02*
Y24234D01*
X35091Y26077D02*
X35406D01*
X35248Y25919D02*
Y26234D01*
X35091Y27077D02*
X35406D01*
X35248Y26919D02*
Y27234D01*
X34091Y26577D02*
X34406D01*
X34248Y26419D02*
Y26734D01*
X34091Y27577D02*
X34406D01*
X34248Y27419D02*
Y27734D01*
X34091Y25577D02*
X34406D01*
X34248Y25419D02*
Y25734D01*
X34091Y24577D02*
X34406D01*
X34248Y24419D02*
Y24734D01*
X37039Y16949D02*
X38299D01*
X37669Y16319D02*
Y17579D01*
X37039Y21476D02*
X38299D01*
X37669Y20846D02*
Y22106D01*
X35012Y18463D02*
X35327D01*
X35169Y18305D02*
Y18620D01*
X35012Y17463D02*
X35327D01*
X35169Y17305D02*
Y17620D01*
X35012Y19463D02*
X35327D01*
X35169Y19305D02*
Y19620D01*
X35012Y20463D02*
X35327D01*
X35169Y20305D02*
Y20620D01*
X34012Y19963D02*
X34327D01*
X34169Y19805D02*
Y20120D01*
X34012Y20963D02*
X34327D01*
X34169Y20805D02*
Y21120D01*
X34012Y18963D02*
X34327D01*
X34169Y18805D02*
Y19120D01*
X34012Y17963D02*
X34327D01*
X34169Y17805D02*
Y18120D01*
X28406Y11543D02*
X29665D01*
X29035Y10913D02*
Y12173D01*
X32933Y11543D02*
X34193D01*
X33563Y10913D02*
Y12173D01*
X30392Y14043D02*
X30707D01*
X30549Y13886D02*
Y14201D01*
X29392Y14043D02*
X29707D01*
X29549Y13886D02*
Y14201D01*
X31392Y14043D02*
X31707D01*
X31549Y13886D02*
Y14201D01*
X32392Y14043D02*
X32707D01*
X32549Y13886D02*
Y14201D01*
X31892Y15043D02*
X32207D01*
X32049Y14886D02*
Y15201D01*
X32892Y15043D02*
X33207D01*
X33049Y14886D02*
Y15201D01*
X30892Y15043D02*
X31207D01*
X31049Y14886D02*
Y15201D01*
X29892Y15043D02*
X30207D01*
X30049Y14886D02*
Y15201D01*
X21831Y11543D02*
X23091D01*
X22461Y10913D02*
Y12173D01*
X26358Y11543D02*
X27618D01*
X26988Y10913D02*
Y12173D01*
X23817Y14043D02*
X24132D01*
X23974Y13886D02*
Y14201D01*
X22817Y14043D02*
X23132D01*
X22974Y13886D02*
Y14201D01*
X24817Y14043D02*
X25132D01*
X24974Y13886D02*
Y14201D01*
X25817Y14043D02*
X26132D01*
X25974Y13886D02*
Y14201D01*
X25317Y15043D02*
X25632D01*
X25474Y14886D02*
Y15201D01*
X26317Y15043D02*
X26632D01*
X26474Y14886D02*
Y15201D01*
X24317Y15043D02*
X24632D01*
X24474Y14886D02*
Y15201D01*
X23317Y15043D02*
X23632D01*
X23474Y14886D02*
Y15201D01*
X15177Y11504D02*
X16437D01*
X15807Y10874D02*
Y12134D01*
X19705Y11504D02*
X20965D01*
X20335Y10874D02*
Y12134D01*
X17163Y14004D02*
X17478D01*
X17321Y13846D02*
Y14161D01*
X16163Y14004D02*
X16478D01*
X16321Y13846D02*
Y14161D01*
X18163Y14004D02*
X18478D01*
X18321Y13846D02*
Y14161D01*
X19163Y14004D02*
X19478D01*
X19321Y13846D02*
Y14161D01*
X18663Y15004D02*
X18978D01*
X18821Y14846D02*
Y15161D01*
X19663Y15004D02*
X19978D01*
X19821Y14846D02*
Y15161D01*
X17663Y15004D02*
X17978D01*
X17821Y14846D02*
Y15161D01*
X16663Y15004D02*
X16978D01*
X16821Y14846D02*
Y15161D01*
X29378Y27783D02*
X29678D01*
X29528Y27633D02*
Y27933D01*
X29378Y26783D02*
X29678D01*
X29528Y26633D02*
Y26933D01*
X30389Y29764D02*
X30689D01*
X30539Y29614D02*
Y29914D01*
X29389Y29764D02*
X29689D01*
X29539Y29614D02*
Y29914D01*
X11358Y24213D02*
X11870D01*
X11614Y23957D02*
Y24469D01*
X11358Y26181D02*
X11870D01*
X11614Y25925D02*
Y26437D01*
X23089Y25787D02*
X23211D01*
X23150Y25726D02*
Y25848D01*
X23482Y28209D02*
X23604D01*
X23543Y28148D02*
Y28270D01*
X21435Y29134D02*
X21557D01*
X21496Y29073D02*
Y29195D01*
X25096Y24370D02*
X25219D01*
X25157Y24309D02*
Y24431D01*
X12096Y27953D02*
X12234D01*
X12165Y27884D02*
Y28022D01*
X11789Y45748D02*
X11911D01*
X11850Y45687D02*
Y45809D01*
X21947Y45079D02*
X22069D01*
X22008Y45018D02*
Y45140D01*
X21632Y45079D02*
X21754D01*
X21693Y45018D02*
Y45140D01*
X23824Y42515D02*
X23946D01*
X23885Y42454D02*
Y42576D01*
X23522Y45591D02*
X23644D01*
X23583Y45530D02*
Y45652D01*
X17852Y46024D02*
X17974D01*
X17913Y45963D02*
Y46085D01*
X18049Y42323D02*
X18171D01*
X18110Y42262D02*
Y42384D01*
X18482Y42323D02*
X18604D01*
X18543Y42262D02*
Y42384D01*
X19427Y43780D02*
X19549D01*
X19488Y43719D02*
Y43841D01*
X15293Y39331D02*
X15415D01*
X15354Y39270D02*
Y39392D01*
X15687Y41968D02*
X15809D01*
X15748Y41907D02*
Y42030D01*
X14821Y41693D02*
X14943D01*
X14882Y41632D02*
Y41754D01*
X22341Y41968D02*
X22463D01*
X22402Y41907D02*
Y42030D01*
X36309Y28307D02*
X36447D01*
X36378Y28238D02*
Y28376D01*
X33041Y30433D02*
X33179D01*
X33110Y30364D02*
Y30502D01*
X24851Y32810D02*
X24989D01*
X24920Y32741D02*
Y32879D01*
X28261Y19430D02*
X28399D01*
X28330Y19361D02*
Y19499D01*
X28261Y22060D02*
X28399D01*
X28330Y21991D02*
Y22129D01*
X27841Y22480D02*
X27979D01*
X27910Y22411D02*
Y22549D01*
X25871Y21990D02*
X26009D01*
X25940Y21921D02*
Y22059D01*
X21991Y18530D02*
X22129D01*
X22060Y18461D02*
Y18599D01*
X19681Y21010D02*
X19819D01*
X19750Y20941D02*
Y21079D01*
X29026Y40160D02*
X29163D01*
X29094Y40091D02*
Y40229D01*
X11122Y11811D02*
X12500D01*
X11811Y11122D02*
Y12500D01*
X36713Y11811D02*
X38091D01*
X37402Y11122D02*
Y12500D01*
X11122Y47244D02*
X12500D01*
X11811Y46555D02*
Y47933D01*
X36713Y47244D02*
X38091D01*
X37402Y46555D02*
Y47933D01*
X22498Y29173D02*
X22620D01*
X22559Y29112D02*
Y29234D01*
X21632Y34213D02*
X21754D01*
X21693Y34152D02*
Y34274D01*
X22695Y32520D02*
X22817D01*
X22756Y32459D02*
Y32581D01*
X22183Y33189D02*
X22305D01*
X22244Y33128D02*
Y33250D01*
X25569Y20984D02*
X25691D01*
X25630Y20923D02*
Y21045D01*
X29191Y22165D02*
X29313D01*
X29252Y22104D02*
Y22226D01*
X18089Y40906D02*
X18211D01*
X18150Y40844D02*
Y40967D01*
X12734Y45276D02*
X12856D01*
X12795Y45215D02*
Y45337D01*
X13443Y45118D02*
X13565D01*
X13504Y45057D02*
Y45179D01*
X20057Y35315D02*
X20179D01*
X20118Y35254D02*
Y35376D01*
X20372Y34961D02*
X20494D01*
X20433Y34900D02*
Y35022D01*
X31002Y34567D02*
X31124D01*
X31063Y34506D02*
Y34628D01*
X24152Y34606D02*
X24274D01*
X24213Y34545D02*
Y34667D01*
X23089Y24331D02*
X23211D01*
X23150Y24270D02*
Y24392D01*
X21632Y29843D02*
X21754D01*
X21693Y29781D02*
Y29904D01*
X27537Y21063D02*
X27659D01*
X27598Y21002D02*
Y21124D01*
X20726Y21220D02*
X20848D01*
X20787Y21159D02*
Y21281D01*
X28955Y24134D02*
X29077D01*
X29016Y24073D02*
Y24195D01*
X19506Y29331D02*
X19628D01*
X19567Y29270D02*
Y29392D01*
X28986Y45039D02*
X29124D01*
X29055Y44970D02*
Y45108D01*
X28711Y47559D02*
X28848D01*
X28780Y47490D02*
Y47628D01*
X29104Y46693D02*
X29242D01*
X29173Y46624D02*
Y46762D01*
X30915Y47480D02*
X31053D01*
X30984Y47411D02*
Y47549D01*
X28632Y42677D02*
X28770D01*
X28701Y42608D02*
Y42746D01*
M02*
