G04*
G04 #@! TF.GenerationSoftware,Altium Limited,CircuitMaker,2.2.0 (2.2.0.5)*
G04*
G04 Layer_Color=13813960*
%FSLAX24Y24*%
%MOIN*%
G70*
G04*
G04 #@! TF.SameCoordinates,7AF7A03E-A370-4C74-A711-71AC0677D318*
G04*
G04*
G04 #@! TF.FilePolarity,Positive*
G04*
G01*
G75*
%ADD10C,0.0098*%
%ADD11C,0.0100*%
%ADD13C,0.0079*%
%ADD14C,0.0050*%
%ADD16C,0.0049*%
D10*
X17274Y24980D02*
G03*
X17274Y24980I-49J0D01*
G01*
D11*
X20318Y25271D02*
X20418D01*
X20318Y24571D02*
Y25271D01*
Y24571D02*
X20418D01*
Y25271D01*
D13*
X15689Y24744D02*
Y25020D01*
X15020Y24744D02*
Y25020D01*
X17657Y23287D02*
X17933D01*
X17657Y23957D02*
X17933D01*
X18278Y26043D02*
Y26240D01*
X17785Y26043D02*
Y26240D01*
X16250Y26102D02*
X17451D01*
X16250Y25787D02*
Y26102D01*
Y25787D02*
X17451D01*
Y26102D01*
X14980Y46339D02*
X15256D01*
X14980Y45709D02*
X15256D01*
X14980Y46024D02*
X15256D01*
X22480Y42530D02*
X22874D01*
X22480Y43061D02*
X22874D01*
X20709Y43504D02*
X21102D01*
X20709Y42953D02*
X21102D01*
X23091Y44567D02*
X23366D01*
X23091Y43937D02*
X23366D01*
X23091Y44252D02*
X23366D01*
X20610Y44567D02*
X20886D01*
X20610Y43937D02*
X20886D01*
X20610Y44252D02*
X20886D01*
D14*
X19543Y43506D02*
Y43756D01*
X19293D02*
X19543D01*
Y41756D02*
Y42006D01*
X19293Y41756D02*
X19543D01*
X17543D02*
X17793D01*
X17543D02*
Y42006D01*
Y43756D02*
X17793D01*
X17543Y43506D02*
Y43756D01*
D16*
X36362Y41482D02*
Y41665D01*
X36270Y41757D01*
X36178Y41665D01*
Y41482D01*
Y41619D01*
X36362D01*
X36470Y46693D02*
X36562D01*
X36516D01*
Y46463D01*
X36562Y46417D01*
X36608D01*
X36654Y46463D01*
X36332Y46417D02*
X36240D01*
X36194Y46463D01*
Y46555D01*
X36240Y46601D01*
X36332D01*
X36378Y46555D01*
Y46463D01*
X36332Y46417D01*
X36103Y46601D02*
Y46417D01*
Y46509D01*
X36057Y46555D01*
X36011Y46601D01*
X35965D01*
X35827Y46417D02*
X35735D01*
X35781D01*
Y46601D01*
X35827D01*
X35552D02*
X35460D01*
X35414Y46555D01*
Y46417D01*
X35552D01*
X35597Y46463D01*
X35552Y46509D01*
X35414D01*
X35322Y46417D02*
Y46601D01*
X35184D01*
X35138Y46555D01*
Y46417D01*
X34771Y46693D02*
Y46417D01*
X34633D01*
X34587Y46463D01*
Y46509D01*
X34633Y46555D01*
X34771D01*
X34633D01*
X34587Y46601D01*
Y46647D01*
X34633Y46693D01*
X34771D01*
X34495Y46601D02*
Y46417D01*
Y46509D01*
X34450Y46555D01*
X34404Y46601D01*
X34358D01*
X34220D02*
Y46463D01*
X34174Y46417D01*
X34036D01*
Y46601D01*
X33944Y46417D02*
X33807D01*
X33761Y46463D01*
X33807Y46509D01*
X33899D01*
X33944Y46555D01*
X33899Y46601D01*
X33761D01*
X33669Y46417D02*
X33577D01*
X33623D01*
Y46693D01*
X33669D01*
X33439Y46417D02*
X33348D01*
X33393D01*
Y46601D01*
X33439D01*
X33210Y46417D02*
Y46601D01*
X33072D01*
X33026Y46555D01*
Y46417D01*
X32751Y46693D02*
Y46417D01*
X32888D01*
X32934Y46463D01*
Y46555D01*
X32888Y46601D01*
X32751D01*
X35945Y47241D02*
X35853Y47057D01*
X35761Y47241D01*
X35669Y47057D02*
X35578D01*
X35623D01*
Y47333D01*
X35669Y47287D01*
X35440Y47057D02*
Y47103D01*
X35394D01*
Y47057D01*
X35440D01*
X35210Y47287D02*
X35164Y47333D01*
X35072D01*
X35027Y47287D01*
Y47103D01*
X35072Y47057D01*
X35164D01*
X35210Y47103D01*
Y47287D01*
X34659D02*
X34613Y47333D01*
X34521D01*
X34476Y47287D01*
Y47241D01*
X34521Y47195D01*
X34567D01*
X34521D01*
X34476Y47149D01*
Y47103D01*
X34521Y47057D01*
X34613D01*
X34659Y47103D01*
X34384Y47057D02*
X34200Y47241D01*
X33925Y47057D02*
X34108D01*
X33925Y47241D01*
Y47287D01*
X33970Y47333D01*
X34062D01*
X34108Y47287D01*
X33833D02*
X33787Y47333D01*
X33695D01*
X33649Y47287D01*
Y47103D01*
X33695Y47057D01*
X33787D01*
X33833Y47103D01*
Y47287D01*
X33374Y47057D02*
X33557D01*
X33374Y47241D01*
Y47287D01*
X33419Y47333D01*
X33511D01*
X33557Y47287D01*
X33282Y47057D02*
X33190D01*
X33236D01*
Y47333D01*
X33282Y47287D01*
X35791Y47917D02*
X35837Y47963D01*
X35928D01*
X35974Y47917D01*
Y47733D01*
X35928Y47687D01*
X35837D01*
X35791Y47733D01*
X35653Y47687D02*
X35561D01*
X35515Y47733D01*
Y47825D01*
X35561Y47871D01*
X35653D01*
X35699Y47825D01*
Y47733D01*
X35653Y47687D01*
X35423D02*
Y47871D01*
X35286D01*
X35240Y47825D01*
Y47687D01*
X35102Y47917D02*
Y47871D01*
X35148D01*
X35056D01*
X35102D01*
Y47733D01*
X35056Y47687D01*
X34918Y47871D02*
Y47687D01*
Y47779D01*
X34872Y47825D01*
X34826Y47871D01*
X34781D01*
X34597Y47687D02*
X34505D01*
X34459Y47733D01*
Y47825D01*
X34505Y47871D01*
X34597D01*
X34643Y47825D01*
Y47733D01*
X34597Y47687D01*
X34367D02*
X34275D01*
X34321D01*
Y47963D01*
X34367D01*
X34138Y47687D02*
X34046D01*
X34092D01*
Y47963D01*
X34138D01*
X33770Y47687D02*
X33862D01*
X33908Y47733D01*
Y47825D01*
X33862Y47871D01*
X33770D01*
X33724Y47825D01*
Y47779D01*
X33908D01*
X33633Y47871D02*
Y47687D01*
Y47779D01*
X33587Y47825D01*
X33541Y47871D01*
X33495D01*
X36135Y48494D02*
X36319D01*
Y48218D01*
X36135D01*
X36319Y48356D02*
X36227D01*
X35860Y48448D02*
X35906Y48494D01*
X35997D01*
X36043Y48448D01*
Y48402D01*
X35997Y48356D01*
X35906D01*
X35860Y48310D01*
Y48264D01*
X35906Y48218D01*
X35997D01*
X36043Y48264D01*
X35768Y48218D02*
Y48494D01*
X35630D01*
X35584Y48448D01*
Y48356D01*
X35630Y48310D01*
X35768D01*
X35492Y48448D02*
X35446Y48494D01*
X35355D01*
X35309Y48448D01*
Y48402D01*
X35355Y48356D01*
X35401D01*
X35355D01*
X35309Y48310D01*
Y48264D01*
X35355Y48218D01*
X35446D01*
X35492Y48264D01*
X35033Y48218D02*
X35217D01*
X35033Y48402D01*
Y48448D01*
X35079Y48494D01*
X35171D01*
X35217Y48448D01*
X34482D02*
X34528Y48494D01*
X34620D01*
X34666Y48448D01*
Y48264D01*
X34620Y48218D01*
X34528D01*
X34482Y48264D01*
Y48356D01*
X34574D01*
X34390Y48218D02*
Y48494D01*
X34253D01*
X34207Y48448D01*
Y48356D01*
X34253Y48310D01*
X34390D01*
X34299D02*
X34207Y48218D01*
X34115Y48494D02*
Y48218D01*
X33977D01*
X33931Y48264D01*
Y48310D01*
X33977Y48356D01*
X34115D01*
X33977D01*
X33931Y48402D01*
Y48448D01*
X33977Y48494D01*
X34115D01*
X33839D02*
Y48218D01*
X33656D01*
X20321Y24468D02*
Y24285D01*
X20230Y24193D01*
X20138Y24285D01*
Y24468D01*
X20046D02*
Y24193D01*
X19908D01*
X19862Y24239D01*
Y24423D01*
X19908Y24468D01*
X20046D01*
X19770Y24193D02*
X19679D01*
X19725D01*
Y24468D01*
X19770Y24423D01*
X16227Y24744D02*
Y24974D01*
X16273Y25020D01*
X16365D01*
X16411Y24974D01*
Y24744D01*
X16686Y25020D02*
X16503D01*
X16686Y24836D01*
Y24790D01*
X16640Y24744D01*
X16549D01*
X16503Y24790D01*
X18648Y24429D02*
Y24154D01*
X18465D01*
X18373D02*
X18281D01*
X18327D01*
Y24429D01*
X18373Y24383D01*
X19416Y23084D02*
X19370Y23130D01*
X19278D01*
X19232Y23084D01*
Y23038D01*
X19278Y22992D01*
X19324D01*
X19278D01*
X19232Y22946D01*
Y22900D01*
X19278Y22854D01*
X19370D01*
X19416Y22900D01*
X18956Y22854D02*
X19140D01*
X18956Y23038D01*
Y23084D01*
X19002Y23130D01*
X19094D01*
X19140Y23084D01*
X18865Y22854D02*
X18773D01*
X18819D01*
Y23130D01*
X18865Y23084D01*
X18451Y23130D02*
X18543Y23084D01*
X18635Y22992D01*
Y22900D01*
X18589Y22854D01*
X18497D01*
X18451Y22900D01*
Y22946D01*
X18497Y22992D01*
X18635D01*
X18360Y22854D02*
X18176Y23038D01*
X18084Y22854D02*
X17992D01*
X18038D01*
Y23130D01*
X18084Y23084D01*
X17854D02*
X17809Y23130D01*
X17717D01*
X17671Y23084D01*
Y22900D01*
X17717Y22854D01*
X17809D01*
X17854Y22900D01*
Y23084D01*
X17579Y23038D02*
Y22900D01*
X17533Y22854D01*
X17395D01*
Y23038D01*
X17120Y22854D02*
X17303D01*
X17120Y23038D01*
Y23084D01*
X17166Y23130D01*
X17258D01*
X17303Y23084D01*
X14633Y25787D02*
X14587Y25741D01*
Y25649D01*
X14633Y25603D01*
X14678D01*
X14724Y25649D01*
Y25695D01*
Y25649D01*
X14770Y25603D01*
X14816D01*
X14862Y25649D01*
Y25741D01*
X14816Y25787D01*
X14862Y25328D02*
Y25512D01*
X14678Y25328D01*
X14633D01*
X14587Y25374D01*
Y25466D01*
X14633Y25512D01*
X14862Y25236D02*
Y25144D01*
Y25190D01*
X14587D01*
X14633Y25236D01*
X14587Y24823D02*
X14633Y24915D01*
X14724Y25006D01*
X14816D01*
X14862Y24961D01*
Y24869D01*
X14816Y24823D01*
X14770D01*
X14724Y24869D01*
Y25006D01*
X14862Y24731D02*
X14678Y24547D01*
X14862Y24455D02*
Y24364D01*
Y24410D01*
X14587D01*
X14633Y24455D01*
Y24226D02*
X14587Y24180D01*
Y24088D01*
X14633Y24042D01*
X14816D01*
X14862Y24088D01*
Y24180D01*
X14816Y24226D01*
X14633D01*
X14678Y23950D02*
X14816D01*
X14862Y23904D01*
Y23767D01*
X14678D01*
X14862Y23675D02*
Y23583D01*
Y23629D01*
X14587D01*
X14633Y23675D01*
X20075Y26893D02*
X20259D01*
X20075Y27077D01*
Y27123D01*
X20121Y27169D01*
X20213D01*
X20259Y27123D01*
X19983D02*
X19937Y27169D01*
X19846D01*
X19800Y27123D01*
Y26939D01*
X19846Y26893D01*
X19937D01*
X19983Y26939D01*
Y27123D01*
X19708Y26893D02*
X19616D01*
X19662D01*
Y27169D01*
X19708Y27123D01*
X19295Y26893D02*
X19478D01*
X19295Y27077D01*
Y27123D01*
X19340Y27169D01*
X19432D01*
X19478Y27123D01*
X19203Y26847D02*
X19019D01*
X18927Y27123D02*
X18881Y27169D01*
X18789D01*
X18744Y27123D01*
Y26939D01*
X18789Y26893D01*
X18881D01*
X18927Y26939D01*
Y27123D01*
X18652Y26893D02*
Y26939D01*
X18606D01*
Y26893D01*
X18652D01*
X18422D02*
X18330D01*
X18376D01*
Y27169D01*
X18422Y27123D01*
X18193Y27077D02*
Y26939D01*
X18147Y26893D01*
X18009D01*
Y27077D01*
X18832Y28012D02*
X19015D01*
X18832Y28196D01*
Y28241D01*
X18878Y28287D01*
X18969D01*
X19015Y28241D01*
X18740D02*
X18694Y28287D01*
X18602D01*
X18556Y28241D01*
Y28058D01*
X18602Y28012D01*
X18694D01*
X18740Y28058D01*
Y28241D01*
X18464Y28012D02*
X18372D01*
X18418D01*
Y28287D01*
X18464Y28241D01*
X18051Y28012D02*
X18235D01*
X18051Y28196D01*
Y28241D01*
X18097Y28287D01*
X18189D01*
X18235Y28241D01*
X17959Y28012D02*
X17776Y28196D01*
X17684Y28012D02*
X17592D01*
X17638D01*
Y28287D01*
X17684Y28241D01*
X17454D02*
X17408Y28287D01*
X17316D01*
X17270Y28241D01*
Y28058D01*
X17316Y28012D01*
X17408D01*
X17454Y28058D01*
Y28241D01*
X17179D02*
X17133Y28287D01*
X17041D01*
X16995Y28241D01*
Y28058D01*
X17041Y28012D01*
X17133D01*
X17179Y28058D01*
Y28241D01*
X16903Y28012D02*
Y28287D01*
Y28104D02*
X16765Y28196D01*
X16903Y28104D02*
X16765Y28012D01*
X16628D02*
Y28287D01*
X16490D01*
X16444Y28241D01*
Y28150D01*
X16490Y28104D01*
X16628D01*
X16536D02*
X16444Y28012D01*
X16352D02*
X16260D01*
X16306D01*
Y28287D01*
X16352Y28241D01*
X15921Y27146D02*
X16105D01*
X15921Y27329D01*
Y27375D01*
X15967Y27421D01*
X16059D01*
X16105Y27375D01*
X15830D02*
X15784Y27421D01*
X15692D01*
X15646Y27375D01*
Y27192D01*
X15692Y27146D01*
X15784D01*
X15830Y27192D01*
Y27375D01*
X15554Y27146D02*
X15462D01*
X15508D01*
Y27421D01*
X15554Y27375D01*
X15141Y27146D02*
X15325D01*
X15141Y27329D01*
Y27375D01*
X15187Y27421D01*
X15279D01*
X15325Y27375D01*
X15049Y27146D02*
X14865Y27329D01*
X14774Y27146D02*
X14682D01*
X14728D01*
Y27421D01*
X14774Y27375D01*
X14544D02*
X14498Y27421D01*
X14406D01*
X14360Y27375D01*
Y27329D01*
X14406Y27283D01*
X14452D01*
X14406D01*
X14360Y27238D01*
Y27192D01*
X14406Y27146D01*
X14498D01*
X14544Y27192D01*
X14268Y27146D02*
Y27192D01*
X14223D01*
Y27146D01*
X14268D01*
X14039Y27421D02*
X13855D01*
Y27375D01*
X14039Y27192D01*
Y27146D01*
X13763D02*
Y27421D01*
Y27238D02*
X13626Y27329D01*
X13763Y27238D02*
X13626Y27146D01*
X13488D02*
Y27421D01*
X13350D01*
X13304Y27375D01*
Y27283D01*
X13350Y27238D01*
X13488D01*
X13396D02*
X13304Y27146D01*
X13029D02*
X13212D01*
X13029Y27329D01*
Y27375D01*
X13075Y27421D01*
X13166D01*
X13212Y27375D01*
X16299Y42008D02*
Y42283D01*
X16161D01*
X16116Y42237D01*
Y42146D01*
X16161Y42100D01*
X16299D01*
X16207D02*
X16116Y42008D01*
X16024D02*
X15932D01*
X15978D01*
Y42283D01*
X16024Y42237D01*
X15610Y42283D02*
X15702Y42237D01*
X15794Y42146D01*
Y42054D01*
X15748Y42008D01*
X15656D01*
X15610Y42054D01*
Y42100D01*
X15656Y42146D01*
X15794D01*
X19640Y44426D02*
Y44196D01*
X19594Y44150D01*
X19502D01*
X19456Y44196D01*
Y44426D01*
X19181D02*
X19273Y44380D01*
X19365Y44288D01*
Y44196D01*
X19319Y44150D01*
X19227D01*
X19181Y44196D01*
Y44242D01*
X19227Y44288D01*
X19365D01*
X23819Y43307D02*
Y43583D01*
X23681D01*
X23635Y43537D01*
Y43445D01*
X23681Y43399D01*
X23819D01*
X23727D02*
X23635Y43307D01*
X23543D02*
X23452D01*
X23497D01*
Y43583D01*
X23543Y43537D01*
X23314D02*
X23268Y43583D01*
X23176D01*
X23130Y43537D01*
Y43491D01*
X23176Y43445D01*
X23130Y43399D01*
Y43353D01*
X23176Y43307D01*
X23268D01*
X23314Y43353D01*
Y43399D01*
X23268Y43445D01*
X23314Y43491D01*
Y43537D01*
X23268Y43445D02*
X23176D01*
X22638Y43386D02*
Y43661D01*
X22500D01*
X22454Y43615D01*
Y43524D01*
X22500Y43478D01*
X22638D01*
X22546D02*
X22454Y43386D01*
X22362D02*
X22270D01*
X22316D01*
Y43661D01*
X22362Y43615D01*
X22133Y43661D02*
X21949D01*
Y43615D01*
X22133Y43432D01*
Y43386D01*
X15796Y46970D02*
X15842Y47016D01*
X15934D01*
X15980Y46970D01*
Y46786D01*
X15934Y46740D01*
X15842D01*
X15796Y46786D01*
X15704Y46740D02*
X15613D01*
X15659D01*
Y47016D01*
X15704Y46970D01*
X15475D02*
X15429Y47016D01*
X15337D01*
X15291Y46970D01*
Y46786D01*
X15337Y46740D01*
X15429D01*
X15475Y46786D01*
Y46970D01*
X22060Y44718D02*
X22106Y44764D01*
X22198D01*
X22244Y44718D01*
Y44534D01*
X22198Y44488D01*
X22106D01*
X22060Y44534D01*
X21969Y44718D02*
X21923Y44764D01*
X21831D01*
X21785Y44718D01*
Y44672D01*
X21831Y44626D01*
X21785Y44580D01*
Y44534D01*
X21831Y44488D01*
X21923D01*
X21969Y44534D01*
Y44580D01*
X21923Y44626D01*
X21969Y44672D01*
Y44718D01*
X21923Y44626D02*
X21831D01*
X24816Y44678D02*
X24862Y44724D01*
X24954D01*
X25000Y44678D01*
Y44495D01*
X24954Y44449D01*
X24862D01*
X24816Y44495D01*
X24541Y44724D02*
X24633Y44678D01*
X24725Y44587D01*
Y44495D01*
X24679Y44449D01*
X24587D01*
X24541Y44495D01*
Y44541D01*
X24587Y44587D01*
X24725D01*
X18660Y40350D02*
Y40626D01*
X18522D01*
X18476Y40580D01*
Y40488D01*
X18522Y40442D01*
X18660D01*
X18568D02*
X18476Y40350D01*
X18384Y40580D02*
X18339Y40626D01*
X18247D01*
X18201Y40580D01*
Y40534D01*
X18247Y40488D01*
X18201Y40442D01*
Y40396D01*
X18247Y40350D01*
X18339D01*
X18384Y40396D01*
Y40442D01*
X18339Y40488D01*
X18384Y40534D01*
Y40580D01*
X18339Y40488D02*
X18247D01*
X19610Y41180D02*
Y41455D01*
X19472D01*
X19426Y41410D01*
Y41318D01*
X19472Y41272D01*
X19610D01*
X19518D02*
X19426Y41180D01*
X19334Y41455D02*
X19151D01*
Y41410D01*
X19334Y41226D01*
Y41180D01*
M02*
