G04*
G04 #@! TF.GenerationSoftware,Altium Limited,CircuitMaker,2.2.0 (2.2.0.5)*
G04*
G04 Layer_Color=2752767*
%FSLAX24Y24*%
%MOIN*%
G70*
G04*
G04 #@! TF.SameCoordinates,7AF7A03E-A370-4C74-A711-71AC0677D318*
G04*
G04*
G04 #@! TF.FilePolarity,Positive*
G04*
G01*
G75*
%ADD109C,0.0020*%
%ADD110C,0.0027*%
%ADD111C,0.0013*%
D109*
X11849Y30353D02*
Y30513D01*
X12009D01*
Y30353D01*
X11849D01*
Y32322D02*
Y32482D01*
X12009D01*
Y32322D01*
X11849D01*
X37322Y32558D02*
Y32718D01*
X37482D01*
Y32558D01*
X37322D01*
Y30589D02*
Y30749D01*
X37482D01*
Y30589D01*
X37322D01*
X11780Y16790D02*
X11700Y16950D01*
X11860D01*
X11780Y16790D01*
Y21318D02*
X11700Y21478D01*
X11860D01*
X11780Y21318D01*
X16454Y31102D02*
X16494Y31142D01*
X16534D01*
X16494Y31182D01*
X16534Y31222D01*
X16494D01*
X16454Y31262D01*
X16414Y31222D01*
X16374D01*
X16414Y31182D01*
X16374Y31142D01*
X16414D01*
X16454Y31102D01*
Y32102D02*
X16494Y32142D01*
X16534D01*
X16494Y32182D01*
X16534Y32222D01*
X16494D01*
X16454Y32262D01*
X16414Y32222D01*
X16374D01*
X16414Y32182D01*
X16374Y32142D01*
X16414D01*
X16454Y32102D01*
Y33102D02*
X16494Y33142D01*
X16534D01*
X16494Y33182D01*
X16534Y33222D01*
X16494D01*
X16454Y33262D01*
X16414Y33222D01*
X16374D01*
X16414Y33182D01*
X16374Y33142D01*
X16414D01*
X16454Y33102D01*
Y34102D02*
X16494Y34142D01*
X16534D01*
X16494Y34182D01*
X16534Y34222D01*
X16494D01*
X16454Y34262D01*
X16414Y34222D01*
X16374D01*
X16414Y34182D01*
X16374Y34142D01*
X16414D01*
X16454Y34102D01*
Y35102D02*
X16494Y35142D01*
X16534D01*
X16494Y35182D01*
X16534Y35222D01*
X16494D01*
X16454Y35262D01*
X16414Y35222D01*
X16374D01*
X16414Y35182D01*
X16374Y35142D01*
X16414D01*
X16454Y35102D01*
Y36102D02*
X16494Y36142D01*
X16534D01*
X16494Y36182D01*
X16534Y36222D01*
X16494D01*
X16454Y36262D01*
X16414Y36222D01*
X16374D01*
X16414Y36182D01*
X16374Y36142D01*
X16414D01*
X16454Y36102D01*
Y37102D02*
X16494Y37142D01*
X16534D01*
X16494Y37182D01*
X16534Y37222D01*
X16494D01*
X16454Y37262D01*
X16414Y37222D01*
X16374D01*
X16414Y37182D01*
X16374Y37142D01*
X16414D01*
X16454Y37102D01*
Y38102D02*
X16494Y38142D01*
X16534D01*
X16494Y38182D01*
X16534Y38222D01*
X16494D01*
X16454Y38262D01*
X16414Y38222D01*
X16374D01*
X16414Y38182D01*
X16374Y38142D01*
X16414D01*
X16454Y38102D01*
Y39102D02*
X16494Y39142D01*
X16534D01*
X16494Y39182D01*
X16534Y39222D01*
X16494D01*
X16454Y39262D01*
X16414Y39222D01*
X16374D01*
X16414Y39182D01*
X16374Y39142D01*
X16414D01*
X16454Y39102D01*
Y40102D02*
X16494Y40142D01*
X16534D01*
X16494Y40182D01*
X16534Y40222D01*
X16494D01*
X16454Y40262D01*
X16414Y40222D01*
X16374D01*
X16414Y40182D01*
X16374Y40142D01*
X16414D01*
X16454Y40102D01*
Y41102D02*
X16494Y41142D01*
X16534D01*
X16494Y41182D01*
X16534Y41222D01*
X16494D01*
X16454Y41262D01*
X16414Y41222D01*
X16374D01*
X16414Y41182D01*
X16374Y41142D01*
X16414D01*
X16454Y41102D01*
Y42102D02*
X16494Y42142D01*
X16534D01*
X16494Y42182D01*
X16534Y42222D01*
X16494D01*
X16454Y42262D01*
X16414Y42222D01*
X16374D01*
X16414Y42182D01*
X16374Y42142D01*
X16414D01*
X16454Y42102D01*
Y43102D02*
X16494Y43142D01*
X16534D01*
X16494Y43182D01*
X16534Y43222D01*
X16494D01*
X16454Y43262D01*
X16414Y43222D01*
X16374D01*
X16414Y43182D01*
X16374Y43142D01*
X16414D01*
X16454Y43102D01*
Y45102D02*
X16494Y45142D01*
X16534D01*
X16494Y45182D01*
X16534Y45222D01*
X16494D01*
X16454Y45262D01*
X16414Y45222D01*
X16374D01*
X16414Y45182D01*
X16374Y45142D01*
X16414D01*
X16454Y45102D01*
X26454Y31102D02*
X26494Y31142D01*
X26534D01*
X26494Y31182D01*
X26534Y31222D01*
X26494D01*
X26454Y31262D01*
X26414Y31222D01*
X26374D01*
X26414Y31182D01*
X26374Y31142D01*
X26414D01*
X26454Y31102D01*
Y32102D02*
X26494Y32142D01*
X26534D01*
X26494Y32182D01*
X26534Y32222D01*
X26494D01*
X26454Y32262D01*
X26414Y32222D01*
X26374D01*
X26414Y32182D01*
X26374Y32142D01*
X26414D01*
X26454Y32102D01*
Y33102D02*
X26494Y33142D01*
X26534D01*
X26494Y33182D01*
X26534Y33222D01*
X26494D01*
X26454Y33262D01*
X26414Y33222D01*
X26374D01*
X26414Y33182D01*
X26374Y33142D01*
X26414D01*
X26454Y33102D01*
Y34102D02*
X26494Y34142D01*
X26534D01*
X26494Y34182D01*
X26534Y34222D01*
X26494D01*
X26454Y34262D01*
X26414Y34222D01*
X26374D01*
X26414Y34182D01*
X26374Y34142D01*
X26414D01*
X26454Y34102D01*
Y35102D02*
X26494Y35142D01*
X26534D01*
X26494Y35182D01*
X26534Y35222D01*
X26494D01*
X26454Y35262D01*
X26414Y35222D01*
X26374D01*
X26414Y35182D01*
X26374Y35142D01*
X26414D01*
X26454Y35102D01*
Y36102D02*
X26494Y36142D01*
X26534D01*
X26494Y36182D01*
X26534Y36222D01*
X26494D01*
X26454Y36262D01*
X26414Y36222D01*
X26374D01*
X26414Y36182D01*
X26374Y36142D01*
X26414D01*
X26454Y36102D01*
Y37102D02*
X26494Y37142D01*
X26534D01*
X26494Y37182D01*
X26534Y37222D01*
X26494D01*
X26454Y37262D01*
X26414Y37222D01*
X26374D01*
X26414Y37182D01*
X26374Y37142D01*
X26414D01*
X26454Y37102D01*
Y38102D02*
X26494Y38142D01*
X26534D01*
X26494Y38182D01*
X26534Y38222D01*
X26494D01*
X26454Y38262D01*
X26414Y38222D01*
X26374D01*
X26414Y38182D01*
X26374Y38142D01*
X26414D01*
X26454Y38102D01*
Y39102D02*
X26494Y39142D01*
X26534D01*
X26494Y39182D01*
X26534Y39222D01*
X26494D01*
X26454Y39262D01*
X26414Y39222D01*
X26374D01*
X26414Y39182D01*
X26374Y39142D01*
X26414D01*
X26454Y39102D01*
Y40102D02*
X26494Y40142D01*
X26534D01*
X26494Y40182D01*
X26534Y40222D01*
X26494D01*
X26454Y40262D01*
X26414Y40222D01*
X26374D01*
X26414Y40182D01*
X26374Y40142D01*
X26414D01*
X26454Y40102D01*
Y41102D02*
X26494Y41142D01*
X26534D01*
X26494Y41182D01*
X26534Y41222D01*
X26494D01*
X26454Y41262D01*
X26414Y41222D01*
X26374D01*
X26414Y41182D01*
X26374Y41142D01*
X26414D01*
X26454Y41102D01*
Y42102D02*
X26494Y42142D01*
X26534D01*
X26494Y42182D01*
X26534Y42222D01*
X26494D01*
X26454Y42262D01*
X26414Y42222D01*
X26374D01*
X26414Y42182D01*
X26374Y42142D01*
X26414D01*
X26454Y42102D01*
Y43102D02*
X26494Y43142D01*
X26534D01*
X26494Y43182D01*
X26534Y43222D01*
X26494D01*
X26454Y43262D01*
X26414Y43222D01*
X26374D01*
X26414Y43182D01*
X26374Y43142D01*
X26414D01*
X26454Y43102D01*
Y44102D02*
X26494Y44142D01*
X26534D01*
X26494Y44182D01*
X26534Y44222D01*
X26494D01*
X26454Y44262D01*
X26414Y44222D01*
X26374D01*
X26414Y44182D01*
X26374Y44142D01*
X26414D01*
X26454Y44102D01*
Y45102D02*
X26494Y45142D01*
X26534D01*
X26494Y45182D01*
X26534Y45222D01*
X26494D01*
X26454Y45262D01*
X26414Y45222D01*
X26374D01*
X26414Y45182D01*
X26374Y45142D01*
X26414D01*
X26454Y45102D01*
X16454Y44102D02*
X16494Y44142D01*
X16534D01*
X16494Y44182D01*
X16534Y44222D01*
X16494D01*
X16454Y44262D01*
X16414Y44222D01*
X16374D01*
X16414Y44182D01*
X16374Y44142D01*
X16414D01*
X16454Y44102D01*
X16776Y48055D02*
X16816Y48135D01*
X16776Y48215D01*
X16856Y48175D01*
X16936Y48215D01*
X16896Y48135D01*
X16936Y48055D01*
X16856Y48095D01*
X16776Y48055D01*
X25972D02*
X26012Y48135D01*
X25972Y48215D01*
X26052Y48175D01*
X26132Y48215D01*
X26092Y48135D01*
X26132Y48055D01*
X26052Y48095D01*
X25972Y48055D01*
Y29724D02*
X26012Y29804D01*
X25972Y29884D01*
X26052Y29844D01*
X26132Y29884D01*
X26092Y29804D01*
X26132Y29724D01*
X26052Y29764D01*
X25972Y29724D01*
X16776D02*
X16816Y29804D01*
X16776Y29884D01*
X16856Y29844D01*
X16936Y29884D01*
X16896Y29804D01*
X16936Y29724D01*
X16856Y29764D01*
X16776Y29724D01*
X31967Y39621D02*
Y39581D01*
X32047D01*
Y39621D01*
X32087D01*
Y39701D01*
X32047D01*
Y39741D01*
X31967D01*
Y39701D01*
X31927D01*
Y39621D01*
X31967D01*
X33937Y39606D02*
Y39566D01*
X34017D01*
Y39606D01*
X34057D01*
Y39686D01*
X34017D01*
Y39726D01*
X33937D01*
Y39686D01*
X33897D01*
Y39606D01*
X33937D01*
X28266Y39621D02*
Y39581D01*
X28346D01*
Y39621D01*
X28386D01*
Y39701D01*
X28346D01*
Y39741D01*
X28266D01*
Y39701D01*
X28226D01*
Y39621D01*
X28266D01*
X30236Y39606D02*
Y39566D01*
X30316D01*
Y39606D01*
X30356D01*
Y39686D01*
X30316D01*
Y39726D01*
X30236D01*
Y39686D01*
X30196D01*
Y39606D01*
X30236D01*
X21804Y36552D02*
X21844D01*
X21884Y36592D01*
X21924Y36552D01*
X21964D01*
Y36592D01*
X21924Y36632D01*
X21964Y36672D01*
Y36712D01*
X21924D01*
X21884Y36672D01*
X21844Y36712D01*
X21804D01*
Y36672D01*
X21844Y36632D01*
X21804Y36592D01*
Y36552D01*
X20747Y46870D02*
X20827Y46950D01*
X20907Y46870D01*
X20827Y46790D01*
X20747Y46870D01*
X22479D02*
X22559Y46950D01*
X22639Y46870D01*
X22559Y46790D01*
X22479Y46870D01*
X11692Y37125D02*
Y37285D01*
X11852D01*
Y37125D01*
X11692D01*
Y35156D02*
Y35316D01*
X11852D01*
Y35156D01*
X11692D01*
X11731Y41967D02*
Y42127D01*
X11891D01*
Y41967D01*
X11731D01*
Y39999D02*
Y40159D01*
X11891D01*
Y39999D01*
X11731D01*
X37322Y35471D02*
Y35631D01*
X37482D01*
Y35471D01*
X37322D01*
Y37440D02*
Y37600D01*
X37482D01*
Y37440D01*
X37322D01*
Y40392D02*
Y40552D01*
X37482D01*
Y40392D01*
X37322D01*
Y42361D02*
Y42521D01*
X37482D01*
Y42361D01*
X37322D01*
X37748Y23483D02*
X37668Y23643D01*
X37828D01*
X37748Y23483D01*
Y28011D02*
X37668Y28171D01*
X37828D01*
X37748Y28011D01*
X37669Y16869D02*
X37589Y17029D01*
X37749D01*
X37669Y16869D01*
Y21396D02*
X37589Y21556D01*
X37749D01*
X37669Y21396D01*
X29035Y11463D02*
X28955Y11623D01*
X29115D01*
X29035Y11463D01*
X33563D02*
X33483Y11623D01*
X33643D01*
X33563Y11463D01*
X22461D02*
X22381Y11623D01*
X22541D01*
X22461Y11463D01*
X26988D02*
X26908Y11623D01*
X27068D01*
X26988Y11463D01*
X15807Y11424D02*
X15727Y11584D01*
X15887D01*
X15807Y11424D01*
X20335D02*
X20255Y11584D01*
X20415D01*
X20335Y11424D01*
X29448Y27703D02*
Y27863D01*
X29608D01*
Y27703D01*
X29448D01*
X29488Y27743D02*
Y27823D01*
X29568D01*
Y27743D01*
X29488D01*
X29448Y26703D02*
Y26863D01*
X29608D01*
Y26703D01*
X29448D01*
X29488Y26743D02*
Y26823D01*
X29568D01*
Y26743D01*
X29488D01*
X30459Y29684D02*
Y29844D01*
X30619D01*
Y29684D01*
X30459D01*
X30499Y29724D02*
Y29804D01*
X30579D01*
Y29724D01*
X30499D01*
X29459Y29684D02*
Y29844D01*
X29619D01*
Y29684D01*
X29459D01*
X29499Y29724D02*
Y29804D01*
X29579D01*
Y29724D01*
X29499D01*
X11534Y24133D02*
Y24293D01*
X11694D01*
Y24133D01*
X11534D01*
Y26101D02*
Y26261D01*
X11694D01*
Y26101D01*
X11534D01*
X12165Y27873D02*
X12085Y28033D01*
X12245D01*
X12165Y27873D01*
Y27913D02*
X12125Y27993D01*
X12205D01*
X12165Y27913D01*
X36378Y28227D02*
X36298Y28387D01*
X36458D01*
X36378Y28227D01*
Y28267D02*
X36338Y28347D01*
X36418D01*
X36378Y28267D01*
X33110Y30353D02*
X33030Y30513D01*
X33190D01*
X33110Y30353D01*
Y30393D02*
X33070Y30473D01*
X33150D01*
X33110Y30393D01*
X24920Y32730D02*
X24840Y32890D01*
X25000D01*
X24920Y32730D01*
Y32770D02*
X24880Y32850D01*
X24960D01*
X24920Y32770D01*
X28330Y19350D02*
X28250Y19510D01*
X28410D01*
X28330Y19350D01*
Y19390D02*
X28290Y19470D01*
X28370D01*
X28330Y19390D01*
Y21980D02*
X28250Y22140D01*
X28410D01*
X28330Y21980D01*
Y22020D02*
X28290Y22100D01*
X28370D01*
X28330Y22020D01*
X27910Y22400D02*
X27830Y22560D01*
X27990D01*
X27910Y22400D01*
Y22440D02*
X27870Y22520D01*
X27950D01*
X27910Y22440D01*
X25940Y21910D02*
X25860Y22070D01*
X26020D01*
X25940Y21910D01*
Y21950D02*
X25900Y22030D01*
X25980D01*
X25940Y21950D01*
X22060Y18450D02*
X21980Y18610D01*
X22140D01*
X22060Y18450D01*
Y18490D02*
X22020Y18570D01*
X22100D01*
X22060Y18490D01*
X19750Y20930D02*
X19670Y21090D01*
X19830D01*
X19750Y20930D01*
Y20970D02*
X19710Y21050D01*
X19790D01*
X19750Y20970D01*
X29094Y40080D02*
X29014Y40240D01*
X29174D01*
X29094Y40080D01*
Y40120D02*
X29054Y40200D01*
X29134D01*
X29094Y40120D01*
X11811Y11731D02*
X11851Y11771D01*
X11891D01*
X11851Y11811D01*
X11891Y11851D01*
X11851D01*
X11811Y11891D01*
X11771Y11851D01*
X11731D01*
X11771Y11811D01*
X11731Y11771D01*
X11771D01*
X11811Y11731D01*
Y11771D02*
X11831Y11791D01*
X11851D01*
X11831Y11811D01*
X11851Y11831D01*
X11831D01*
X11811Y11851D01*
X11791Y11831D01*
X11771D01*
X11791Y11811D01*
X11771Y11791D01*
X11791D01*
X11811Y11771D01*
X37402Y11731D02*
X37442Y11771D01*
X37482D01*
X37442Y11811D01*
X37482Y11851D01*
X37442D01*
X37402Y11891D01*
X37362Y11851D01*
X37322D01*
X37362Y11811D01*
X37322Y11771D01*
X37362D01*
X37402Y11731D01*
Y11771D02*
X37422Y11791D01*
X37442D01*
X37422Y11811D01*
X37442Y11831D01*
X37422D01*
X37402Y11851D01*
X37382Y11831D01*
X37362D01*
X37382Y11811D01*
X37362Y11791D01*
X37382D01*
X37402Y11771D01*
X11811Y47164D02*
X11851Y47204D01*
X11891D01*
X11851Y47244D01*
X11891Y47284D01*
X11851D01*
X11811Y47324D01*
X11771Y47284D01*
X11731D01*
X11771Y47244D01*
X11731Y47204D01*
X11771D01*
X11811Y47164D01*
Y47204D02*
X11831Y47224D01*
X11851D01*
X11831Y47244D01*
X11851Y47264D01*
X11831D01*
X11811Y47284D01*
X11791Y47264D01*
X11771D01*
X11791Y47244D01*
X11771Y47224D01*
X11791D01*
X11811Y47204D01*
X37402Y47164D02*
X37442Y47204D01*
X37482D01*
X37442Y47244D01*
X37482Y47284D01*
X37442D01*
X37402Y47324D01*
X37362Y47284D01*
X37322D01*
X37362Y47244D01*
X37322Y47204D01*
X37362D01*
X37402Y47164D01*
Y47204D02*
X37422Y47224D01*
X37442D01*
X37422Y47244D01*
X37442Y47264D01*
X37422D01*
X37402Y47284D01*
X37382Y47264D01*
X37362D01*
X37382Y47244D01*
X37362Y47224D01*
X37382D01*
X37402Y47204D01*
X29055Y44959D02*
X28975Y45119D01*
X29135D01*
X29055Y44959D01*
Y44999D02*
X29015Y45079D01*
X29095D01*
X29055Y44999D01*
X28780Y47479D02*
X28700Y47639D01*
X28860D01*
X28780Y47479D01*
Y47519D02*
X28740Y47599D01*
X28820D01*
X28780Y47519D01*
X29173Y46613D02*
X29093Y46773D01*
X29253D01*
X29173Y46613D01*
Y46653D02*
X29133Y46733D01*
X29213D01*
X29173Y46653D01*
X30984Y47400D02*
X30904Y47560D01*
X31064D01*
X30984Y47400D01*
Y47440D02*
X30944Y47520D01*
X31024D01*
X30984Y47440D01*
X28701Y42597D02*
X28621Y42757D01*
X28781D01*
X28701Y42597D01*
Y42637D02*
X28661Y42717D01*
X28741D01*
X28701Y42637D01*
D110*
X15360Y20384D02*
G03*
X15360Y20384I-80J0D01*
G01*
Y19384D02*
G03*
X15360Y19384I-80J0D01*
G01*
Y17384D02*
G03*
X15360Y17384I-80J0D01*
G01*
Y18384D02*
G03*
X15360Y18384I-80J0D01*
G01*
X14360Y17884D02*
G03*
X14360Y17884I-80J0D01*
G01*
Y18884D02*
G03*
X14360Y18884I-80J0D01*
G01*
Y20884D02*
G03*
X14360Y20884I-80J0D01*
G01*
Y19884D02*
G03*
X14360Y19884I-80J0D01*
G01*
X35328Y25077D02*
G03*
X35328Y25077I-80J0D01*
G01*
Y24077D02*
G03*
X35328Y24077I-80J0D01*
G01*
Y26077D02*
G03*
X35328Y26077I-80J0D01*
G01*
Y27077D02*
G03*
X35328Y27077I-80J0D01*
G01*
X34328Y26577D02*
G03*
X34328Y26577I-80J0D01*
G01*
Y27577D02*
G03*
X34328Y27577I-80J0D01*
G01*
Y25577D02*
G03*
X34328Y25577I-80J0D01*
G01*
Y24577D02*
G03*
X34328Y24577I-80J0D01*
G01*
X35249Y18463D02*
G03*
X35249Y18463I-80J0D01*
G01*
Y17463D02*
G03*
X35249Y17463I-80J0D01*
G01*
Y19463D02*
G03*
X35249Y19463I-80J0D01*
G01*
Y20463D02*
G03*
X35249Y20463I-80J0D01*
G01*
X34249Y19963D02*
G03*
X34249Y19963I-80J0D01*
G01*
Y20963D02*
G03*
X34249Y20963I-80J0D01*
G01*
Y18963D02*
G03*
X34249Y18963I-80J0D01*
G01*
Y17963D02*
G03*
X34249Y17963I-80J0D01*
G01*
X30629Y14043D02*
G03*
X30629Y14043I-80J0D01*
G01*
X29629D02*
G03*
X29629Y14043I-80J0D01*
G01*
X31629D02*
G03*
X31629Y14043I-80J0D01*
G01*
X32629D02*
G03*
X32629Y14043I-80J0D01*
G01*
X32129Y15043D02*
G03*
X32129Y15043I-80J0D01*
G01*
X33129D02*
G03*
X33129Y15043I-80J0D01*
G01*
X31129D02*
G03*
X31129Y15043I-80J0D01*
G01*
X30129D02*
G03*
X30129Y15043I-80J0D01*
G01*
X24054Y14043D02*
G03*
X24054Y14043I-80J0D01*
G01*
X23054D02*
G03*
X23054Y14043I-80J0D01*
G01*
X25054D02*
G03*
X25054Y14043I-80J0D01*
G01*
X26054D02*
G03*
X26054Y14043I-80J0D01*
G01*
X25554Y15043D02*
G03*
X25554Y15043I-80J0D01*
G01*
X26554D02*
G03*
X26554Y15043I-80J0D01*
G01*
X24554D02*
G03*
X24554Y15043I-80J0D01*
G01*
X23554D02*
G03*
X23554Y15043I-80J0D01*
G01*
X17401Y14004D02*
G03*
X17401Y14004I-80J0D01*
G01*
X16401D02*
G03*
X16401Y14004I-80J0D01*
G01*
X18401D02*
G03*
X18401Y14004I-80J0D01*
G01*
X19401D02*
G03*
X19401Y14004I-80J0D01*
G01*
X18901Y15004D02*
G03*
X18901Y15004I-80J0D01*
G01*
X19901D02*
G03*
X19901Y15004I-80J0D01*
G01*
X17901D02*
G03*
X17901Y15004I-80J0D01*
G01*
X16901D02*
G03*
X16901Y15004I-80J0D01*
G01*
X23230Y25787D02*
G03*
X23230Y25787I-80J0D01*
G01*
X23623Y28209D02*
G03*
X23623Y28209I-80J0D01*
G01*
X21576Y29134D02*
G03*
X21576Y29134I-80J0D01*
G01*
X25237Y24370D02*
G03*
X25237Y24370I-80J0D01*
G01*
X11930Y45748D02*
G03*
X11930Y45748I-80J0D01*
G01*
X22088Y45079D02*
G03*
X22088Y45079I-80J0D01*
G01*
X21773D02*
G03*
X21773Y45079I-80J0D01*
G01*
X23965Y42515D02*
G03*
X23965Y42515I-80J0D01*
G01*
X23663Y45591D02*
G03*
X23663Y45591I-80J0D01*
G01*
X17993Y46024D02*
G03*
X17993Y46024I-80J0D01*
G01*
X18190Y42323D02*
G03*
X18190Y42323I-80J0D01*
G01*
X18623D02*
G03*
X18623Y42323I-80J0D01*
G01*
X19568Y43780D02*
G03*
X19568Y43780I-80J0D01*
G01*
X15434Y39331D02*
G03*
X15434Y39331I-80J0D01*
G01*
X15828Y41968D02*
G03*
X15828Y41968I-80J0D01*
G01*
X14962Y41693D02*
G03*
X14962Y41693I-80J0D01*
G01*
X22482Y41968D02*
G03*
X22482Y41968I-80J0D01*
G01*
X22639Y29173D02*
G03*
X22639Y29173I-80J0D01*
G01*
X21773Y34213D02*
G03*
X21773Y34213I-80J0D01*
G01*
X22836Y32520D02*
G03*
X22836Y32520I-80J0D01*
G01*
X22324Y33189D02*
G03*
X22324Y33189I-80J0D01*
G01*
X25710Y20984D02*
G03*
X25710Y20984I-80J0D01*
G01*
X29332Y22165D02*
G03*
X29332Y22165I-80J0D01*
G01*
X18230Y40906D02*
G03*
X18230Y40906I-80J0D01*
G01*
X12875Y45276D02*
G03*
X12875Y45276I-80J0D01*
G01*
X13584Y45118D02*
G03*
X13584Y45118I-80J0D01*
G01*
X20198Y35315D02*
G03*
X20198Y35315I-80J0D01*
G01*
X20513Y34961D02*
G03*
X20513Y34961I-80J0D01*
G01*
X31143Y34567D02*
G03*
X31143Y34567I-80J0D01*
G01*
X24293Y34606D02*
G03*
X24293Y34606I-80J0D01*
G01*
X23230Y24331D02*
G03*
X23230Y24331I-80J0D01*
G01*
X21773Y29843D02*
G03*
X21773Y29843I-80J0D01*
G01*
X27678Y21063D02*
G03*
X27678Y21063I-80J0D01*
G01*
X20867Y21220D02*
G03*
X20867Y21220I-80J0D01*
G01*
X29096Y24134D02*
G03*
X29096Y24134I-80J0D01*
G01*
X19647Y29331D02*
G03*
X19647Y29331I-80J0D01*
G01*
D111*
X23190Y25787D02*
G03*
X23190Y25787I-40J0D01*
G01*
X23583Y28209D02*
G03*
X23583Y28209I-40J0D01*
G01*
X21536Y29134D02*
G03*
X21536Y29134I-40J0D01*
G01*
X25197Y24370D02*
G03*
X25197Y24370I-40J0D01*
G01*
X11890Y45748D02*
G03*
X11890Y45748I-40J0D01*
G01*
X22048Y45079D02*
G03*
X22048Y45079I-40J0D01*
G01*
X21733D02*
G03*
X21733Y45079I-40J0D01*
G01*
X23925Y42515D02*
G03*
X23925Y42515I-40J0D01*
G01*
X23623Y45591D02*
G03*
X23623Y45591I-40J0D01*
G01*
X17953Y46024D02*
G03*
X17953Y46024I-40J0D01*
G01*
X18150Y42323D02*
G03*
X18150Y42323I-40J0D01*
G01*
X18583D02*
G03*
X18583Y42323I-40J0D01*
G01*
X19528Y43780D02*
G03*
X19528Y43780I-40J0D01*
G01*
X15394Y39331D02*
G03*
X15394Y39331I-40J0D01*
G01*
X15788Y41968D02*
G03*
X15788Y41968I-40J0D01*
G01*
X14922Y41693D02*
G03*
X14922Y41693I-40J0D01*
G01*
X22442Y41968D02*
G03*
X22442Y41968I-40J0D01*
G01*
X22599Y29173D02*
G03*
X22599Y29173I-40J0D01*
G01*
X21733Y34213D02*
G03*
X21733Y34213I-40J0D01*
G01*
X22796Y32520D02*
G03*
X22796Y32520I-40J0D01*
G01*
X22284Y33189D02*
G03*
X22284Y33189I-40J0D01*
G01*
X25670Y20984D02*
G03*
X25670Y20984I-40J0D01*
G01*
X29292Y22165D02*
G03*
X29292Y22165I-40J0D01*
G01*
X18190Y40906D02*
G03*
X18190Y40906I-40J0D01*
G01*
X12835Y45276D02*
G03*
X12835Y45276I-40J0D01*
G01*
X13544Y45118D02*
G03*
X13544Y45118I-40J0D01*
G01*
X20158Y35315D02*
G03*
X20158Y35315I-40J0D01*
G01*
X20473Y34961D02*
G03*
X20473Y34961I-40J0D01*
G01*
X31103Y34567D02*
G03*
X31103Y34567I-40J0D01*
G01*
X24253Y34606D02*
G03*
X24253Y34606I-40J0D01*
G01*
X23190Y24331D02*
G03*
X23190Y24331I-40J0D01*
G01*
X21733Y29843D02*
G03*
X21733Y29843I-40J0D01*
G01*
X27638Y21063D02*
G03*
X27638Y21063I-40J0D01*
G01*
X20827Y21220D02*
G03*
X20827Y21220I-40J0D01*
G01*
X29056Y24134D02*
G03*
X29056Y24134I-40J0D01*
G01*
X19607Y29331D02*
G03*
X19607Y29331I-40J0D01*
G01*
M02*
