G04*
G04 #@! TF.GenerationSoftware,Altium Limited,CircuitMaker,2.2.0 (2.2.0.5)*
G04*
G04 Layer_Color=20142*
%FSLAX24Y24*%
%MOIN*%
G70*
G04*
G04 #@! TF.SameCoordinates,7AF7A03E-A370-4C74-A711-71AC0677D318*
G04*
G04*
G04 #@! TF.FilePolarity,Negative*
G04*
G01*
G75*
%ADD17R,0.0789X0.0533*%
%ADD18R,0.0611X0.0690*%
%ADD19R,0.0493X0.0434*%
%ADD20R,0.0493X0.0533*%
%ADD21R,0.0415X0.0415*%
%ADD22R,0.0560X0.0438*%
%ADD23O,0.0946X0.0316*%
%ADD24O,0.0316X0.0946*%
%ADD25R,0.0960X0.0560*%
%ADD26R,0.0950X0.1500*%
%ADD27R,0.0690X0.0611*%
%ADD28R,0.2049X0.2049*%
%ADD29R,0.0434X0.0867*%
%ADD30R,0.0867X0.0434*%
%ADD31R,0.0277X0.0986*%
%ADD32R,0.0867X0.1064*%
%ADD33R,0.0356X0.0454*%
%ADD34R,0.0533X0.0789*%
%ADD35R,0.0340X0.0198*%
%ADD36C,0.0986*%
%ADD37O,0.0946X0.0552*%
%ADD38C,0.1537*%
G04:AMPARAMS|DCode=39|XSize=68mil|YSize=98mil|CornerRadius=19mil|HoleSize=0mil|Usage=FLASHONLY|Rotation=270.000|XOffset=0mil|YOffset=0mil|HoleType=Round|Shape=RoundedRectangle|*
%AMROUNDEDRECTD39*
21,1,0.0680,0.0600,0,0,270.0*
21,1,0.0300,0.0980,0,0,270.0*
1,1,0.0380,-0.0300,-0.0150*
1,1,0.0380,-0.0300,0.0150*
1,1,0.0380,0.0300,0.0150*
1,1,0.0380,0.0300,-0.0150*
%
%ADD39ROUNDEDRECTD39*%
%ADD40C,0.0600*%
%ADD41C,0.0867*%
%ADD42C,0.1080*%
%ADD43C,0.0434*%
%ADD44O,0.0552X0.0946*%
%ADD45C,0.0680*%
%ADD46C,0.0320*%
%ADD47C,0.0336*%
%ADD48C,0.1458*%
D17*
X18819Y44921D02*
D03*
Y46102D02*
D03*
D18*
X24439Y24449D02*
D03*
X23671D02*
D03*
X23140Y29882D02*
D03*
X22372D02*
D03*
X30148Y31654D02*
D03*
X29380D02*
D03*
X30148Y32874D02*
D03*
X29380D02*
D03*
X30148Y34055D02*
D03*
X29380D02*
D03*
X30148Y35236D02*
D03*
X29380D02*
D03*
X30148Y36339D02*
D03*
X29380D02*
D03*
X30148Y37441D02*
D03*
X29380D02*
D03*
X14498Y47559D02*
D03*
X15266D02*
D03*
X18474Y28661D02*
D03*
X19242D02*
D03*
X10876Y45039D02*
D03*
X11644D02*
D03*
D19*
X32008Y33140D02*
D03*
Y33711D02*
D03*
X34331Y33159D02*
D03*
Y33691D02*
D03*
D20*
X33150Y33829D02*
D03*
Y33179D02*
D03*
D21*
X34291Y31260D02*
D03*
Y31890D02*
D03*
X33110Y31260D02*
D03*
Y31890D02*
D03*
X32008Y31260D02*
D03*
Y31890D02*
D03*
D22*
X24882Y45850D02*
D03*
Y47142D02*
D03*
D23*
X31850Y21636D02*
D03*
Y22136D02*
D03*
Y22636D02*
D03*
Y23136D02*
D03*
Y23636D02*
D03*
Y24136D02*
D03*
Y24636D02*
D03*
Y25136D02*
D03*
X29961Y21636D02*
D03*
Y22136D02*
D03*
Y22636D02*
D03*
Y23136D02*
D03*
Y23636D02*
D03*
Y24136D02*
D03*
Y24636D02*
D03*
Y25136D02*
D03*
D24*
X25140Y18425D02*
D03*
X25640D02*
D03*
X26140D02*
D03*
X26640D02*
D03*
X27140D02*
D03*
X27640D02*
D03*
X28140D02*
D03*
X28640D02*
D03*
X25140Y20315D02*
D03*
X25640D02*
D03*
X26140D02*
D03*
X26640D02*
D03*
X27140D02*
D03*
X27640D02*
D03*
X28140D02*
D03*
X28640D02*
D03*
X18250Y18504D02*
D03*
X18750D02*
D03*
X19250D02*
D03*
X19750D02*
D03*
X20250D02*
D03*
X20750D02*
D03*
X21250D02*
D03*
X21750D02*
D03*
X18250Y20394D02*
D03*
X18750D02*
D03*
X19250D02*
D03*
X19750D02*
D03*
X20250D02*
D03*
X20750D02*
D03*
X21250D02*
D03*
X21750D02*
D03*
D25*
X24881Y42515D02*
D03*
Y43425D02*
D03*
Y44335D02*
D03*
D26*
X22431Y43425D02*
D03*
D27*
X32047Y37156D02*
D03*
Y36388D02*
D03*
X13465Y47175D02*
D03*
Y47943D02*
D03*
D28*
X21884Y36632D02*
D03*
D29*
X19257Y40576D02*
D03*
X23757D02*
D03*
X23257Y40582D02*
D03*
X22757Y40576D02*
D03*
X22257D02*
D03*
X21757D02*
D03*
X21257D02*
D03*
X20757D02*
D03*
X20257D02*
D03*
X19757D02*
D03*
D30*
X18161Y40182D02*
D03*
Y33682D02*
D03*
Y34182D02*
D03*
Y34682D02*
D03*
Y35182D02*
D03*
Y35682D02*
D03*
Y36182D02*
D03*
Y36682D02*
D03*
Y37182D02*
D03*
Y37682D02*
D03*
Y38182D02*
D03*
Y38682D02*
D03*
Y39182D02*
D03*
Y39682D02*
D03*
X24854D02*
D03*
Y39182D02*
D03*
Y38682D02*
D03*
Y38182D02*
D03*
Y37682D02*
D03*
Y37182D02*
D03*
Y36682D02*
D03*
Y36182D02*
D03*
Y35682D02*
D03*
Y35182D02*
D03*
Y34682D02*
D03*
Y34182D02*
D03*
Y33682D02*
D03*
Y40182D02*
D03*
D31*
X22323Y45787D02*
D03*
X21378D02*
D03*
X21063D02*
D03*
X22008D02*
D03*
X21693D02*
D03*
D32*
X23445Y45866D02*
D03*
X19941D02*
D03*
X23445Y48032D02*
D03*
X19941D02*
D03*
D33*
X28386Y47913D02*
D03*
X28819D02*
D03*
X29252D02*
D03*
X29685D02*
D03*
X30118D02*
D03*
X30551D02*
D03*
X30984D02*
D03*
X31417D02*
D03*
D34*
X27913Y41929D02*
D03*
X29094D02*
D03*
D35*
X12827Y46122D02*
D03*
Y45866D02*
D03*
Y45610D02*
D03*
X13551D02*
D03*
Y45866D02*
D03*
Y46122D02*
D03*
D36*
X11929Y30433D02*
D03*
Y32402D02*
D03*
X37402Y32638D02*
D03*
Y30669D02*
D03*
X11772Y37205D02*
D03*
Y35236D02*
D03*
X11811Y42047D02*
D03*
Y40079D02*
D03*
X37402Y35551D02*
D03*
Y37520D02*
D03*
Y40472D02*
D03*
Y42441D02*
D03*
X11614Y24213D02*
D03*
Y26181D02*
D03*
D37*
X15280Y20384D02*
D03*
Y19384D02*
D03*
Y17384D02*
D03*
Y18384D02*
D03*
X14280Y17884D02*
D03*
Y18884D02*
D03*
Y20884D02*
D03*
Y19884D02*
D03*
X35248Y25077D02*
D03*
Y24077D02*
D03*
Y26077D02*
D03*
Y27077D02*
D03*
X34248Y26577D02*
D03*
Y27577D02*
D03*
Y25577D02*
D03*
Y24577D02*
D03*
X35169Y18463D02*
D03*
Y17463D02*
D03*
Y19463D02*
D03*
Y20463D02*
D03*
X34169Y19963D02*
D03*
Y20963D02*
D03*
Y18963D02*
D03*
Y17963D02*
D03*
D38*
X11780Y16870D02*
D03*
Y21398D02*
D03*
X37748Y23563D02*
D03*
Y28091D02*
D03*
X37669Y16949D02*
D03*
Y21476D02*
D03*
X29035Y11543D02*
D03*
X33563D02*
D03*
X22461D02*
D03*
X26988D02*
D03*
X15807Y11504D02*
D03*
X20335D02*
D03*
D39*
X16454Y31182D02*
D03*
Y32182D02*
D03*
Y33182D02*
D03*
Y34182D02*
D03*
Y35182D02*
D03*
Y36182D02*
D03*
Y37182D02*
D03*
Y38182D02*
D03*
Y39182D02*
D03*
Y40182D02*
D03*
Y41182D02*
D03*
Y42182D02*
D03*
Y43182D02*
D03*
Y45182D02*
D03*
X26454Y31182D02*
D03*
Y32182D02*
D03*
Y33182D02*
D03*
Y34182D02*
D03*
Y35182D02*
D03*
Y36182D02*
D03*
Y37182D02*
D03*
Y38182D02*
D03*
Y39182D02*
D03*
Y40182D02*
D03*
Y41182D02*
D03*
Y42182D02*
D03*
Y43182D02*
D03*
Y44182D02*
D03*
Y45182D02*
D03*
X16454Y44182D02*
D03*
D40*
X16856Y48135D02*
D03*
X26052D02*
D03*
Y29804D02*
D03*
X16856D02*
D03*
D41*
X32007Y39661D02*
D03*
X33977Y39646D02*
D03*
X28306Y39661D02*
D03*
X30276Y39646D02*
D03*
D42*
X21884Y36632D02*
D03*
D43*
X20827Y46870D02*
D03*
X22559D02*
D03*
D44*
X30549Y14043D02*
D03*
X29549D02*
D03*
X31549D02*
D03*
X32549D02*
D03*
X32049Y15043D02*
D03*
X33049D02*
D03*
X31049D02*
D03*
X30049D02*
D03*
X23974Y14043D02*
D03*
X22974D02*
D03*
X24974D02*
D03*
X25974D02*
D03*
X25474Y15043D02*
D03*
X26474D02*
D03*
X24474D02*
D03*
X23474D02*
D03*
X17321Y14004D02*
D03*
X16321D02*
D03*
X18321D02*
D03*
X19321D02*
D03*
X18821Y15004D02*
D03*
X19821D02*
D03*
X17821D02*
D03*
X16821D02*
D03*
D45*
X29528Y27783D02*
D03*
Y26783D02*
D03*
X30539Y29764D02*
D03*
X29539D02*
D03*
D46*
X23150Y25787D02*
D03*
X23543Y28209D02*
D03*
X21496Y29134D02*
D03*
X25157Y24370D02*
D03*
X11850Y45748D02*
D03*
X22008Y45079D02*
D03*
X21693D02*
D03*
X23885Y42515D02*
D03*
X23583Y45591D02*
D03*
X17913Y46024D02*
D03*
X18110Y42323D02*
D03*
X18543D02*
D03*
X19488Y43780D02*
D03*
X15354Y39331D02*
D03*
X15748Y41968D02*
D03*
X14882Y41693D02*
D03*
X22402Y41968D02*
D03*
X22559Y29173D02*
D03*
X21693Y34213D02*
D03*
X22756Y32520D02*
D03*
X22244Y33189D02*
D03*
X25630Y20984D02*
D03*
X29252Y22165D02*
D03*
X18150Y40906D02*
D03*
X12795Y45276D02*
D03*
X13504Y45118D02*
D03*
X20118Y35315D02*
D03*
X20433Y34961D02*
D03*
X31063Y34567D02*
D03*
X24213Y34606D02*
D03*
X23150Y24331D02*
D03*
X21693Y29843D02*
D03*
X27598Y21063D02*
D03*
X20787Y21220D02*
D03*
X29016Y24134D02*
D03*
X19567Y29331D02*
D03*
D47*
X12165Y27953D02*
D03*
X36378Y28307D02*
D03*
X33110Y30433D02*
D03*
X24920Y32810D02*
D03*
X28330Y19430D02*
D03*
Y22060D02*
D03*
X27910Y22480D02*
D03*
X25940Y21990D02*
D03*
X22060Y18530D02*
D03*
X19750Y21010D02*
D03*
X29094Y40160D02*
D03*
X29055Y45039D02*
D03*
X28780Y47559D02*
D03*
X29173Y46693D02*
D03*
X30984Y47480D02*
D03*
X28701Y42677D02*
D03*
D48*
X11811Y11811D02*
D03*
X37402D02*
D03*
X11811Y47244D02*
D03*
X37402D02*
D03*
M02*
