G04 Layer_Color=25308*
%FSLAX24Y24*%
%MOIN*%
G70*
G01*
G75*
%ADD10R,0.0413X0.0394*%
%ADD11R,0.0335X0.0335*%
%ADD12R,0.0453X0.0413*%
%ADD13R,0.0354X0.0413*%
%ADD14R,0.0480X0.0358*%
%ADD15R,0.0433X0.0591*%
%ADD16R,0.0433X0.0591*%
%ADD17R,0.0433X0.0591*%
%ADD23C,0.0600*%
%ADD24O,0.0472X0.0866*%
%ADD25C,0.1457*%
G04:AMPARAMS|DCode=26|XSize=27.6mil|YSize=114.2mil|CornerRadius=6.9mil|HoleSize=0mil|Usage=FLASHONLY|Rotation=0.000|XOffset=0mil|YOffset=0mil|HoleType=Round|Shape=RoundedRectangle|*
%AMROUNDEDRECTD26*
21,1,0.0276,0.1004,0,0,0.0*
21,1,0.0138,0.1142,0,0,0.0*
1,1,0.0138,0.0069,-0.0502*
1,1,0.0138,-0.0069,-0.0502*
1,1,0.0138,-0.0069,0.0502*
1,1,0.0138,0.0069,0.0502*
%
%ADD26ROUNDEDRECTD26*%
D10*
X19646Y10522D02*
D03*
X19055D02*
D03*
X20768Y12215D02*
D03*
X20177D02*
D03*
X21713Y10807D02*
D03*
X21122D02*
D03*
D11*
X10630Y12913D02*
D03*
Y12283D02*
D03*
Y21181D02*
D03*
X10620Y20551D02*
D03*
D12*
X12116Y10591D02*
D03*
X11467D02*
D03*
D13*
X10758Y22657D02*
D03*
X11289D02*
D03*
D14*
X21585Y16984D02*
D03*
Y15693D02*
D03*
D15*
X22992Y16811D02*
D03*
X24992D02*
D03*
X23992D02*
D03*
D16*
X24992Y13307D02*
D03*
X23992D02*
D03*
D17*
X22992D02*
D03*
D23*
X15140Y20667D02*
D03*
Y19667D02*
D03*
Y18667D02*
D03*
Y17667D02*
D03*
Y16667D02*
D03*
Y15667D02*
D03*
Y14667D02*
D03*
Y13667D02*
D03*
X20140D02*
D03*
Y14667D02*
D03*
Y15667D02*
D03*
Y16667D02*
D03*
Y17667D02*
D03*
Y18667D02*
D03*
Y19667D02*
D03*
Y20667D02*
D03*
X19140Y13667D02*
D03*
X18140D02*
D03*
X18640Y14167D02*
D03*
X11240Y14646D02*
D03*
Y16024D02*
D03*
Y17402D02*
D03*
Y18780D02*
D03*
X22746Y19189D02*
D03*
X21746Y18693D02*
D03*
X22746Y20189D02*
D03*
X21746Y19693D02*
D03*
X22746Y21189D02*
D03*
X21746Y20693D02*
D03*
D24*
X18150Y22073D02*
D03*
X17150D02*
D03*
X15150D02*
D03*
X16150D02*
D03*
X15650Y23073D02*
D03*
X16650D02*
D03*
X18650D02*
D03*
X17650D02*
D03*
D25*
X14636Y25573D02*
D03*
X19163D02*
D03*
D26*
X15167Y12165D02*
D03*
M02*
