G04 Layer_Color=13813960*
%FSLAX24Y24*%
%MOIN*%
G70*
G01*
G75*
%ADD18C,0.0100*%
%ADD20C,0.0098*%
%ADD39C,0.0079*%
%ADD40C,0.0039*%
%ADD43C,0.0059*%
%ADD66C,0.0236*%
G36*
X19214Y11544D02*
Y11539D01*
X19208Y11528D01*
Y11517D01*
Y11506D01*
Y11489D01*
Y11484D01*
Y11473D01*
Y11462D01*
Y11457D01*
Y11451D01*
Y11446D01*
Y11429D01*
Y11424D01*
Y11418D01*
Y11407D01*
X19214Y11402D01*
Y11407D01*
X19225Y11413D01*
X19230Y11418D01*
Y11429D01*
X19236Y11440D01*
X19252Y11462D01*
Y11468D01*
X19257Y11473D01*
Y11479D01*
X19263Y11489D01*
Y11495D01*
X19268Y11506D01*
Y11511D01*
X19279Y11528D01*
X19285Y11533D01*
Y11528D01*
X19290Y11522D01*
Y11517D01*
Y11506D01*
X19285Y11500D01*
X19279Y11489D01*
X19268Y11457D01*
X19263Y11451D01*
X19252Y11424D01*
Y11418D01*
X19247Y11413D01*
X19241Y11402D01*
X19236Y11397D01*
X19230D01*
X19225Y11391D01*
X19219Y11380D01*
X19214Y11375D01*
X19208Y11369D01*
X19203Y11375D01*
Y11380D01*
X19197Y11391D01*
X19192Y11413D01*
Y11451D01*
Y11457D01*
Y11462D01*
Y11489D01*
Y11517D01*
X19197Y11539D01*
Y11544D01*
X19203Y11550D01*
X19208D01*
X19214Y11544D01*
D02*
G37*
G36*
X20526Y11539D02*
X20553D01*
X20559Y11533D01*
X20570Y11522D01*
X20575Y11511D01*
Y11506D01*
X20586Y11484D01*
Y11473D01*
X20592Y11457D01*
Y11435D01*
Y11429D01*
X20586Y11418D01*
X20575Y11380D01*
X20564Y11369D01*
X20548Y11364D01*
X20526Y11358D01*
X20482D01*
X20466Y11364D01*
X20460Y11369D01*
X20455D01*
X20450Y11375D01*
Y11380D01*
X20455Y11386D01*
X20460D01*
X20477Y11380D01*
X20482D01*
X20493Y11375D01*
X20532D01*
X20537Y11380D01*
X20542D01*
X20553Y11386D01*
X20559Y11391D01*
X20564Y11402D01*
Y11413D01*
X20570Y11418D01*
X20575Y11440D01*
Y11446D01*
Y11451D01*
Y11462D01*
X20570Y11468D01*
X20564Y11473D01*
Y11484D01*
Y11489D01*
X20559Y11500D01*
X20548Y11511D01*
X20526Y11517D01*
X20521D01*
X20510Y11522D01*
X20499Y11528D01*
Y11533D01*
Y11539D01*
X20504Y11544D01*
X20521D01*
X20526Y11539D01*
D02*
G37*
G36*
X20920Y11544D02*
X20936Y11533D01*
X20942D01*
X20947Y11528D01*
X20953Y11517D01*
X20958Y11506D01*
X20969Y11495D01*
Y11489D01*
X20974Y11479D01*
Y11457D01*
X20969Y11424D01*
Y11418D01*
X20964Y11397D01*
X20953Y11380D01*
X20942Y11369D01*
X20936D01*
X20931Y11364D01*
X20909Y11353D01*
X20903D01*
X20892Y11347D01*
X20871D01*
X20849Y11353D01*
X20843Y11358D01*
X20827D01*
X20816Y11364D01*
X20810Y11369D01*
X20799D01*
X20794Y11380D01*
X20789Y11397D01*
X20783Y11402D01*
X20778Y11418D01*
X20772Y11440D01*
X20778Y11468D01*
X20783Y11473D01*
X20789Y11484D01*
Y11495D01*
X20794Y11500D01*
X20805Y11517D01*
Y11522D01*
X20816Y11533D01*
X20827Y11539D01*
X20838Y11544D01*
X20854Y11550D01*
X20903D01*
X20920Y11544D01*
D02*
G37*
G36*
X18995Y11506D02*
X19001D01*
X19006Y11500D01*
X19011Y11489D01*
Y11484D01*
X19001Y11473D01*
X18940Y11397D01*
X18935Y11386D01*
X18929Y11369D01*
X18935Y11364D01*
X18940Y11358D01*
X18968D01*
X18990Y11364D01*
X19011D01*
Y11358D01*
X19006Y11353D01*
X18995Y11347D01*
X18984D01*
X18951Y11342D01*
X18940D01*
X18918Y11353D01*
X18913Y11364D01*
Y11380D01*
X18924Y11402D01*
X18946Y11435D01*
X18968Y11462D01*
X18973Y11468D01*
X18979Y11479D01*
Y11484D01*
X18973Y11489D01*
X18968D01*
X18962Y11495D01*
X18957Y11500D01*
X18962Y11506D01*
X18968Y11511D01*
X18979D01*
X18995Y11506D01*
D02*
G37*
G36*
X20663Y11539D02*
Y11533D01*
X20657Y11528D01*
X20652Y11506D01*
Y11495D01*
X20646Y11484D01*
X20641Y11479D01*
Y11468D01*
Y11451D01*
Y11446D01*
Y11435D01*
Y11424D01*
X20635Y11413D01*
X20630Y11407D01*
Y11402D01*
X20635Y11391D01*
X20641Y11386D01*
X20646Y11391D01*
X20652Y11397D01*
Y11402D01*
X20657Y11413D01*
X20674Y11429D01*
X20696Y11462D01*
X20701Y11468D01*
X20707Y11473D01*
X20717Y11484D01*
X20723Y11489D01*
X20728Y11495D01*
X20739Y11511D01*
X20745Y11517D01*
X20750Y11528D01*
X20761D01*
Y11517D01*
X20756Y11506D01*
X20750Y11500D01*
Y11473D01*
Y11462D01*
X20745Y11446D01*
Y11435D01*
Y11424D01*
Y11407D01*
Y11402D01*
X20750Y11397D01*
X20767Y11375D01*
X20772Y11369D01*
Y11364D01*
X20767Y11353D01*
X20761D01*
X20756Y11347D01*
X20750Y11353D01*
X20739Y11358D01*
Y11364D01*
X20734Y11369D01*
X20728Y11386D01*
Y11407D01*
Y11413D01*
Y11424D01*
X20723Y11440D01*
X20712D01*
X20701Y11429D01*
X20679Y11407D01*
X20663Y11386D01*
X20641Y11364D01*
X20635Y11358D01*
X20630Y11353D01*
X20624Y11347D01*
X20619D01*
X20614Y11353D01*
X20608Y11369D01*
Y11375D01*
Y11380D01*
Y11397D01*
Y11407D01*
Y11429D01*
Y11435D01*
Y11440D01*
X20614Y11451D01*
X20619Y11457D01*
Y11468D01*
X20624Y11489D01*
Y11495D01*
X20630Y11517D01*
X20635Y11533D01*
X20641Y11544D01*
X20663D01*
Y11539D01*
D02*
G37*
G36*
X18601Y11402D02*
Y11391D01*
X18590D01*
X18585Y11397D01*
Y11402D01*
Y11407D01*
X18601Y11402D01*
D02*
G37*
G36*
X20526Y11462D02*
X20537D01*
X20548Y11457D01*
X20553Y11446D01*
X20548Y11440D01*
X20537Y11429D01*
X20521D01*
X20515Y11435D01*
X20510Y11440D01*
X20493Y11446D01*
X20488D01*
X20482Y11457D01*
Y11462D01*
X20488Y11468D01*
X20510D01*
X20526Y11462D01*
D02*
G37*
G36*
X19148Y11522D02*
X19154Y11517D01*
X19159Y11506D01*
X19165Y11495D01*
Y11489D01*
X19170Y11484D01*
X19175Y11468D01*
X19181Y11446D01*
Y11440D01*
Y11429D01*
X19175Y11391D01*
X19170Y11375D01*
X19165Y11369D01*
X19154Y11364D01*
X19143Y11358D01*
X19132Y11353D01*
X19126D01*
X19115Y11347D01*
X19077D01*
X19066Y11353D01*
X19050Y11358D01*
X19044Y11364D01*
X19039Y11369D01*
Y11375D01*
Y11380D01*
X19044Y11375D01*
X19050D01*
X19066Y11369D01*
X19077D01*
X19099Y11364D01*
X19115D01*
X19121Y11369D01*
X19132D01*
X19137Y11375D01*
X19148Y11386D01*
X19159Y11407D01*
X19170Y11424D01*
X19159Y11435D01*
X19154Y11440D01*
X19148Y11446D01*
X19099Y11457D01*
X19093D01*
X19088Y11462D01*
X19083Y11468D01*
Y11473D01*
X19088Y11479D01*
X19099D01*
X19104Y11473D01*
X19132Y11468D01*
X19148D01*
X19154Y11473D01*
X19148Y11479D01*
X19143Y11489D01*
X19137Y11495D01*
X19132Y11506D01*
X19126Y11511D01*
X19028D01*
Y11517D01*
X19033Y11522D01*
X19050Y11528D01*
X19083Y11533D01*
X19132D01*
X19148Y11522D01*
D02*
G37*
G36*
X20367Y11550D02*
X20373Y11544D01*
X20367Y11539D01*
X20362Y11522D01*
X20357Y11517D01*
X20351Y11511D01*
X20346Y11500D01*
X20340Y11495D01*
X20335Y11484D01*
X20329Y11479D01*
Y11468D01*
Y11462D01*
X20324Y11457D01*
X20318D01*
Y11446D01*
Y11440D01*
X20313Y11429D01*
X20307Y11424D01*
Y11418D01*
X20285Y11380D01*
X20275Y11364D01*
X20269D01*
X20264Y11358D01*
X20258Y11364D01*
X20253Y11369D01*
Y11375D01*
X20247Y11391D01*
X20242Y11407D01*
Y11413D01*
X20236Y11424D01*
X20231Y11413D01*
Y11402D01*
Y11391D01*
X20225Y11380D01*
X20214Y11369D01*
X20209Y11364D01*
X20193Y11353D01*
X20171D01*
X20165Y11358D01*
X20149D01*
X20138Y11364D01*
X20132Y11369D01*
X20127D01*
X20116Y11375D01*
X20110Y11380D01*
X20105Y11391D01*
Y11397D01*
X20100Y11402D01*
X20094Y11413D01*
Y11429D01*
X20100Y11457D01*
X20105Y11462D01*
X20110Y11484D01*
X20127Y11500D01*
X20149Y11522D01*
X20154Y11528D01*
X20165Y11533D01*
X20176D01*
X20198Y11522D01*
X20203Y11517D01*
X20214Y11511D01*
X20225Y11495D01*
X20231Y11479D01*
Y11473D01*
X20236Y11468D01*
X20242Y11473D01*
Y11479D01*
Y11484D01*
Y11506D01*
Y11511D01*
X20236Y11517D01*
Y11522D01*
Y11528D01*
Y11544D01*
Y11550D01*
X20247Y11555D01*
X20253D01*
Y11517D01*
Y11511D01*
Y11506D01*
X20258Y11479D01*
X20264Y11435D01*
Y11429D01*
X20269Y11413D01*
Y11402D01*
X20275D01*
Y11407D01*
X20291Y11446D01*
Y11451D01*
X20296D01*
X20302Y11457D01*
X20307Y11468D01*
Y11473D01*
X20313Y11479D01*
Y11484D01*
X20318Y11489D01*
X20329Y11517D01*
Y11522D01*
X20335Y11528D01*
X20346Y11550D01*
X20351Y11555D01*
X20357D01*
X20367Y11550D01*
D02*
G37*
G36*
X19711Y11539D02*
Y11522D01*
Y11517D01*
X19706Y11506D01*
X19700Y11495D01*
Y11479D01*
Y11446D01*
Y11435D01*
Y11418D01*
Y11397D01*
X19695Y11386D01*
X19689Y11369D01*
X19684Y11364D01*
X19673D01*
X19657Y11369D01*
X19651D01*
X19640Y11375D01*
X19624Y11380D01*
X19597D01*
X19586Y11386D01*
X19569D01*
X19558Y11391D01*
X19553D01*
X19542Y11397D01*
X19531Y11391D01*
X19525Y11380D01*
Y11369D01*
X19514Y11358D01*
X19432D01*
X19422Y11364D01*
X19416Y11369D01*
X19411D01*
X19405Y11364D01*
Y11358D01*
X19400Y11353D01*
X19394D01*
Y11364D01*
Y11369D01*
Y11380D01*
X19389Y11391D01*
X19383D01*
X19378Y11386D01*
X19367D01*
X19361Y11391D01*
X19350D01*
X19345Y11386D01*
X19340Y11380D01*
X19329Y11369D01*
X19323Y11364D01*
Y11358D01*
X19318Y11353D01*
Y11342D01*
X19312Y11336D01*
X19307D01*
X19301Y11342D01*
Y11353D01*
X19307Y11364D01*
Y11369D01*
X19312Y11380D01*
Y11397D01*
X19307Y11407D01*
X19301Y11413D01*
X19307Y11418D01*
X19329D01*
X19334Y11424D01*
X19340Y11435D01*
X19345Y11446D01*
Y11451D01*
X19356Y11468D01*
X19361Y11484D01*
X19367Y11495D01*
Y11500D01*
Y11511D01*
X19378Y11522D01*
X19389Y11528D01*
X19394D01*
X19400Y11522D01*
Y11511D01*
X19394Y11506D01*
Y11484D01*
Y11479D01*
Y11468D01*
Y11462D01*
X19400Y11446D01*
X19405Y11380D01*
X19432D01*
X19460Y11375D01*
X19498D01*
X19504Y11380D01*
X19509Y11386D01*
Y11391D01*
X19514Y11397D01*
X19520Y11424D01*
Y11429D01*
X19514Y11435D01*
Y11440D01*
X19509Y11446D01*
X19493D01*
X19487Y11451D01*
X19476Y11457D01*
X19471Y11462D01*
Y11468D01*
Y11473D01*
Y11479D01*
X19482D01*
X19493Y11473D01*
X19504Y11468D01*
X19520D01*
X19525Y11473D01*
Y11479D01*
X19520Y11484D01*
X19514Y11489D01*
X19509Y11495D01*
X19498Y11500D01*
X19482D01*
X19476Y11506D01*
X19465Y11511D01*
X19460Y11517D01*
X19432D01*
X19427Y11522D01*
Y11528D01*
X19432Y11533D01*
X19454D01*
X19465Y11528D01*
X19476Y11522D01*
X19482D01*
X19493Y11517D01*
X19509D01*
X19531Y11522D01*
X19553Y11495D01*
Y11489D01*
X19547Y11484D01*
X19542Y11479D01*
X19536Y11468D01*
Y11446D01*
Y11440D01*
Y11429D01*
Y11418D01*
X19542Y11407D01*
X19547D01*
X19564Y11402D01*
X19629Y11397D01*
X19673D01*
X19679Y11402D01*
Y11407D01*
Y11424D01*
Y11435D01*
X19684Y11457D01*
Y11484D01*
Y11495D01*
Y11511D01*
X19689Y11533D01*
X19695Y11544D01*
X19711D01*
Y11539D01*
D02*
G37*
G36*
X20067Y11533D02*
Y11511D01*
Y11489D01*
Y11468D01*
Y11462D01*
Y11457D01*
Y11429D01*
Y11402D01*
X20061Y11380D01*
X20056Y11375D01*
X20050Y11369D01*
X20039D01*
X20034Y11375D01*
X20023Y11380D01*
X20018D01*
X19996Y11386D01*
X19990D01*
X19985Y11391D01*
X19957Y11402D01*
X19952D01*
X19941Y11407D01*
X19936D01*
Y11413D01*
X19941Y11418D01*
X19979D01*
X20001Y11413D01*
X20007D01*
X20018Y11407D01*
X20023D01*
X20028Y11402D01*
X20034D01*
X20039Y11413D01*
X20045Y11424D01*
Y11440D01*
Y11446D01*
Y11457D01*
Y11468D01*
X20050Y11479D01*
Y11484D01*
Y11495D01*
Y11522D01*
Y11528D01*
X20045Y11533D01*
Y11544D01*
X20050Y11550D01*
X20067D01*
Y11533D01*
D02*
G37*
G36*
X22423Y10292D02*
Y10287D01*
X22429Y10276D01*
Y10254D01*
Y10248D01*
Y10237D01*
Y10221D01*
Y10210D01*
Y10204D01*
X22418Y10177D01*
X22413Y10172D01*
Y10155D01*
Y10150D01*
X22407Y10128D01*
X22402Y10112D01*
X22396Y10101D01*
X22385Y10079D01*
X22380D01*
X22374Y10073D01*
X22369Y10068D01*
X22358Y10062D01*
X22303D01*
X22287Y10068D01*
X22270Y10073D01*
X22265Y10079D01*
X22248Y10095D01*
X22232Y10106D01*
Y10150D01*
Y10155D01*
Y10172D01*
Y10188D01*
X22238Y10194D01*
Y10199D01*
X22243Y10210D01*
Y10215D01*
X22248Y10221D01*
X22254Y10226D01*
Y10232D01*
X22259Y10243D01*
X22265Y10254D01*
X22281Y10276D01*
Y10281D01*
X22309D01*
Y10276D01*
X22298Y10265D01*
X22281Y10237D01*
X22270Y10221D01*
X22265Y10215D01*
X22254Y10199D01*
X22248Y10172D01*
X22243Y10144D01*
Y10139D01*
X22248Y10128D01*
X22254Y10112D01*
X22270Y10101D01*
X22276Y10095D01*
X22281Y10090D01*
X22298D01*
X22309Y10084D01*
X22314D01*
X22336Y10079D01*
X22358Y10084D01*
X22369Y10095D01*
X22380Y10106D01*
X22385Y10117D01*
X22391Y10139D01*
X22396Y10177D01*
X22402Y10232D01*
Y10292D01*
X22413Y10297D01*
X22418D01*
X22423Y10292D01*
D02*
G37*
G36*
X21155Y10352D02*
X21166Y10347D01*
X21177Y10341D01*
X21193Y10325D01*
X21199D01*
X21204Y10314D01*
X21215Y10308D01*
X21221Y10297D01*
X21226Y10287D01*
Y10276D01*
Y10259D01*
Y10237D01*
Y10232D01*
Y10221D01*
Y10204D01*
Y10194D01*
X21215Y10177D01*
Y10166D01*
X21210Y10155D01*
X21199Y10139D01*
X21193Y10133D01*
X21182Y10128D01*
X21155Y10106D01*
X21138Y10101D01*
X21133Y10095D01*
X21128D01*
X21111Y10090D01*
X21100D01*
X21078Y10084D01*
X21051D01*
X21040Y10090D01*
X21035Y10095D01*
X21024D01*
X21018Y10101D01*
X21007D01*
X20996Y10112D01*
X20991D01*
X20980Y10117D01*
X20974Y10128D01*
X20958Y10144D01*
Y10177D01*
Y10183D01*
Y10194D01*
Y10210D01*
X20964Y10226D01*
X20969Y10243D01*
Y10248D01*
X20974Y10259D01*
X20980Y10265D01*
X20985Y10276D01*
Y10281D01*
X20991Y10292D01*
X20996Y10308D01*
Y10314D01*
X21007Y10319D01*
X21013Y10325D01*
X21018Y10336D01*
X21029D01*
Y10341D01*
X21040D01*
X21046Y10347D01*
X21062D01*
X21067Y10352D01*
X21084D01*
X21106Y10358D01*
X21138D01*
X21155Y10352D01*
D02*
G37*
G36*
X22522Y10303D02*
Y10292D01*
X22516Y10287D01*
X22511Y10276D01*
X22505Y10265D01*
Y10259D01*
Y10243D01*
X22500Y10232D01*
X22495Y10221D01*
X22489Y10210D01*
X22495Y10204D01*
X22500Y10199D01*
X22522Y10194D01*
X22533D01*
X22544Y10188D01*
X22560D01*
X22593Y10183D01*
X22604D01*
X22609Y10188D01*
Y10199D01*
Y10215D01*
Y10237D01*
Y10297D01*
X22631D01*
X22642Y10292D01*
X22637Y10276D01*
Y10265D01*
Y10254D01*
Y10237D01*
Y10232D01*
X22631Y10221D01*
Y10194D01*
X22626Y10183D01*
Y10172D01*
Y10155D01*
Y10150D01*
Y10139D01*
X22620Y10112D01*
X22609Y10090D01*
Y10084D01*
X22604Y10068D01*
X22598Y10062D01*
X22593D01*
X22587Y10068D01*
Y10073D01*
Y10079D01*
Y10090D01*
X22593Y10101D01*
Y10106D01*
X22598Y10112D01*
X22604Y10139D01*
Y10144D01*
X22598Y10150D01*
X22593Y10161D01*
X22577D01*
X22571Y10166D01*
X22566D01*
X22555Y10172D01*
X22505D01*
X22500Y10177D01*
X22495Y10183D01*
X22489Y10177D01*
X22484Y10166D01*
X22478Y10161D01*
Y10150D01*
Y10144D01*
X22473Y10133D01*
X22467Y10128D01*
Y10117D01*
Y10112D01*
X22462Y10106D01*
X22456Y10101D01*
Y10084D01*
X22451Y10079D01*
X22429D01*
X22451Y10122D01*
Y10128D01*
X22456Y10139D01*
Y10144D01*
X22462Y10155D01*
Y10161D01*
X22467Y10177D01*
Y10183D01*
X22462Y10188D01*
X22456Y10194D01*
X22445D01*
X22440Y10199D01*
X22434D01*
X22440Y10204D01*
X22467D01*
X22473Y10210D01*
X22478Y10226D01*
Y10232D01*
X22484Y10254D01*
Y10259D01*
Y10265D01*
X22489Y10281D01*
Y10287D01*
Y10292D01*
X22500Y10303D01*
X22505Y10308D01*
X22522D01*
Y10303D01*
D02*
G37*
G36*
X21991Y10336D02*
X21997Y10330D01*
X22002Y10325D01*
X22008Y10303D01*
X22002Y10292D01*
X21997Y10276D01*
X21991Y10270D01*
Y10243D01*
Y10237D01*
Y10232D01*
X21986Y10210D01*
X21981Y10177D01*
Y10166D01*
X21975Y10155D01*
X21970Y10150D01*
Y10144D01*
Y10128D01*
Y10122D01*
Y10117D01*
Y10106D01*
X21964Y10101D01*
X21959D01*
Y10095D01*
X21953Y10084D01*
X21948Y10079D01*
Y10051D01*
Y10046D01*
X21942Y10040D01*
Y10035D01*
X21937Y10040D01*
X21926Y10051D01*
X21909Y10057D01*
X21904D01*
X21899Y10062D01*
X21877Y10073D01*
X21855Y10095D01*
X21844Y10117D01*
Y10122D01*
Y10128D01*
X21849Y10155D01*
Y10161D01*
Y10166D01*
Y10177D01*
X21855Y10183D01*
Y10188D01*
X21860Y10199D01*
Y10204D01*
X21866Y10221D01*
Y10226D01*
Y10232D01*
X21871Y10243D01*
Y10248D01*
X21877Y10259D01*
Y10265D01*
X21882Y10281D01*
Y10292D01*
X21893Y10303D01*
X21904Y10319D01*
X21909Y10325D01*
X21920Y10330D01*
X21937Y10341D01*
X21975D01*
X21991Y10336D01*
D02*
G37*
G36*
X22057Y10319D02*
Y10314D01*
X22063Y10303D01*
X22057Y10297D01*
Y10287D01*
Y10265D01*
Y10259D01*
Y10248D01*
X22052Y10221D01*
X22046Y10215D01*
Y10194D01*
Y10183D01*
X22041Y10166D01*
X22035Y10161D01*
Y10133D01*
Y10122D01*
X22030Y10106D01*
Y10101D01*
X22024Y10095D01*
Y10090D01*
X22030Y10084D01*
X22035D01*
X22041Y10090D01*
X22057Y10101D01*
X22074Y10112D01*
X22079Y10117D01*
X22084Y10128D01*
X22106Y10155D01*
X22177Y10243D01*
Y10248D01*
Y10259D01*
Y10265D01*
X22183Y10270D01*
X22188Y10276D01*
X22194Y10287D01*
Y10292D01*
X22205Y10297D01*
X22216D01*
X22221Y10292D01*
X22216Y10281D01*
X22205Y10259D01*
X22194Y10226D01*
Y10122D01*
Y10117D01*
X22199Y10106D01*
Y10101D01*
X22205Y10084D01*
X22199Y10073D01*
X22188Y10062D01*
X22183D01*
X22177Y10068D01*
Y10079D01*
Y10084D01*
Y10090D01*
X22172Y10112D01*
Y10122D01*
Y10139D01*
Y10161D01*
Y10172D01*
Y10188D01*
X22166Y10199D01*
X22161Y10194D01*
Y10188D01*
X22156Y10183D01*
X22139Y10161D01*
X22112Y10122D01*
X22079Y10090D01*
X22074Y10084D01*
X22068Y10079D01*
X22057Y10073D01*
X22052D01*
X22046Y10068D01*
X22024Y10062D01*
X22019Y10068D01*
X22013Y10079D01*
X22008Y10090D01*
Y10095D01*
Y10101D01*
Y10117D01*
X22013Y10128D01*
Y10133D01*
X22019Y10139D01*
X22024Y10161D01*
Y10166D01*
X22030Y10183D01*
Y10188D01*
Y10194D01*
X22035Y10221D01*
Y10226D01*
Y10232D01*
Y10243D01*
X22041Y10248D01*
Y10259D01*
X22046Y10270D01*
Y10287D01*
Y10297D01*
Y10314D01*
X22052Y10325D01*
X22057Y10319D01*
D02*
G37*
G36*
X21560Y10347D02*
X21565D01*
X21576Y10336D01*
X21592Y10325D01*
X21603Y10308D01*
Y10303D01*
Y10297D01*
Y10270D01*
X21598Y10259D01*
X21592Y10237D01*
Y10232D01*
X21581Y10215D01*
X21576Y10204D01*
Y10188D01*
Y10166D01*
Y10161D01*
Y10150D01*
Y10139D01*
X21570Y10128D01*
X21565Y10122D01*
Y10117D01*
Y10101D01*
Y10095D01*
X21560Y10090D01*
X21549Y10084D01*
X21543Y10090D01*
X21538Y10101D01*
X21543Y10117D01*
Y10122D01*
Y10133D01*
X21549Y10155D01*
Y10161D01*
Y10172D01*
Y10188D01*
X21554Y10194D01*
Y10204D01*
X21560Y10215D01*
Y10232D01*
Y10237D01*
Y10248D01*
X21565Y10259D01*
X21570Y10270D01*
Y10276D01*
Y10281D01*
Y10303D01*
Y10308D01*
X21560Y10314D01*
X21554Y10325D01*
X21538Y10330D01*
X21505D01*
X21488Y10319D01*
X21477Y10303D01*
Y10281D01*
Y10254D01*
X21494Y10237D01*
X21505Y10232D01*
X21510Y10226D01*
X21521Y10221D01*
X21527D01*
Y10215D01*
X21532Y10204D01*
Y10199D01*
X21538Y10183D01*
X21527Y10172D01*
X21521Y10166D01*
X21510Y10144D01*
X21505D01*
X21499Y10139D01*
X21488Y10133D01*
X21483D01*
Y10128D01*
X21477Y10122D01*
X21467Y10117D01*
X21456Y10112D01*
X21450D01*
X21445Y10106D01*
X21434Y10101D01*
X21428Y10095D01*
X21423D01*
X21401Y10090D01*
X21395D01*
X21385Y10084D01*
X21374Y10079D01*
X21368Y10073D01*
X21363Y10079D01*
X21368Y10084D01*
X21374Y10090D01*
X21379D01*
X21385Y10095D01*
X21417Y10112D01*
X21445Y10128D01*
X21483Y10155D01*
X21488Y10161D01*
X21499Y10177D01*
X21510Y10194D01*
X21505Y10199D01*
X21499Y10210D01*
X21494Y10215D01*
X21477Y10226D01*
X21472D01*
X21467Y10232D01*
X21461Y10237D01*
Y10243D01*
Y10248D01*
X21456Y10259D01*
X21450Y10265D01*
Y10287D01*
Y10292D01*
Y10297D01*
X21456Y10308D01*
Y10314D01*
X21461Y10319D01*
Y10325D01*
X21467Y10330D01*
X21477Y10341D01*
X21499Y10352D01*
X21505D01*
X21521Y10358D01*
X21538D01*
X21560Y10347D01*
D02*
G37*
G36*
X21817Y10297D02*
Y10292D01*
Y10287D01*
X21789D01*
X21778Y10292D01*
X21767D01*
X21740Y10297D01*
X21702D01*
X21685Y10303D01*
X21680D01*
X21685Y10308D01*
X21800D01*
X21817Y10297D01*
D02*
G37*
G36*
X22746Y10390D02*
X22762D01*
X22779Y10385D01*
X22850D01*
X22872Y10379D01*
X22894D01*
X22910Y10374D01*
X23036D01*
X23041Y10369D01*
X23047Y10352D01*
Y10347D01*
X23041Y10341D01*
X23019D01*
X23009Y10330D01*
X22998D01*
X22987Y10341D01*
X22981D01*
X22976Y10347D01*
X22959Y10352D01*
X22910D01*
X22888Y10358D01*
X22872Y10363D01*
X22850Y10369D01*
X22845D01*
X22828Y10374D01*
X22812Y10369D01*
X22806Y10363D01*
X22801Y10352D01*
X22795Y10330D01*
X22790Y10319D01*
Y10297D01*
Y10265D01*
Y10254D01*
X22784Y10237D01*
Y10215D01*
X22779Y10199D01*
X22773Y10150D01*
Y10073D01*
Y10068D01*
X22768Y10062D01*
X22757Y10057D01*
X22752Y10051D01*
X22746Y10057D01*
X22741Y10062D01*
Y10068D01*
Y10073D01*
Y10084D01*
X22746Y10095D01*
Y10117D01*
Y10122D01*
Y10133D01*
Y10150D01*
X22752Y10161D01*
Y10166D01*
Y10177D01*
X22757Y10194D01*
Y10221D01*
Y10232D01*
Y10248D01*
X22762Y10270D01*
X22768Y10292D01*
Y10297D01*
Y10308D01*
X22773Y10347D01*
Y10374D01*
X22702D01*
X22686Y10379D01*
X22659D01*
X22637Y10385D01*
X22511D01*
Y10390D01*
X22516D01*
X22533Y10396D01*
X22730D01*
X22746Y10390D01*
D02*
G37*
G36*
X20674Y10385D02*
Y10379D01*
X20679Y10369D01*
Y10363D01*
X20674Y10347D01*
Y10308D01*
Y10287D01*
Y10254D01*
Y10248D01*
Y10243D01*
Y10210D01*
X20679Y10183D01*
Y10166D01*
X20685Y10161D01*
Y10155D01*
Y10139D01*
X20679Y10133D01*
X20674Y10128D01*
X20668Y10133D01*
X20663Y10144D01*
Y10155D01*
X20657Y10281D01*
Y10287D01*
Y10292D01*
X20652D01*
Y10281D01*
X20646Y10276D01*
Y10270D01*
X20608Y10210D01*
X20603Y10204D01*
X20586Y10199D01*
X20581Y10204D01*
X20575Y10215D01*
Y10221D01*
X20570Y10237D01*
Y10243D01*
X20564Y10248D01*
Y10259D01*
Y10265D01*
X20559Y10281D01*
X20548Y10308D01*
Y10314D01*
X20542Y10325D01*
X20532Y10330D01*
X20526Y10319D01*
Y10314D01*
Y10303D01*
X20521D01*
Y10292D01*
X20515Y10287D01*
X20504Y10270D01*
X20499Y10254D01*
Y10248D01*
X20493Y10232D01*
X20488Y10226D01*
Y10215D01*
Y10210D01*
X20477Y10194D01*
X20439Y10133D01*
Y10128D01*
X20433Y10122D01*
X20428D01*
X20422Y10128D01*
X20428Y10144D01*
Y10150D01*
X20433Y10155D01*
X20439Y10161D01*
Y10166D01*
X20444Y10177D01*
X20482Y10259D01*
Y10265D01*
Y10270D01*
X20488Y10281D01*
Y10287D01*
X20493Y10297D01*
Y10303D01*
X20499Y10314D01*
Y10319D01*
X20510Y10330D01*
Y10336D01*
X20515Y10347D01*
Y10352D01*
Y10363D01*
X20521Y10374D01*
X20532Y10379D01*
X20542D01*
X20548Y10374D01*
X20553Y10363D01*
Y10352D01*
X20559Y10336D01*
Y10330D01*
X20564Y10325D01*
X20575Y10276D01*
Y10265D01*
X20586Y10243D01*
X20592Y10232D01*
X20597Y10237D01*
X20603Y10243D01*
X20608Y10248D01*
X20619Y10259D01*
X20624Y10270D01*
X20641Y10319D01*
X20646Y10330D01*
X20652Y10352D01*
Y10358D01*
Y10374D01*
X20663Y10385D01*
X20668Y10390D01*
X20674Y10385D01*
D02*
G37*
G36*
X20805Y10363D02*
Y10352D01*
X20794Y10336D01*
X20789Y10330D01*
X20783Y10308D01*
Y10303D01*
Y10287D01*
X20778Y10281D01*
Y10265D01*
Y10243D01*
X20898Y10254D01*
X20903D01*
X20909Y10259D01*
Y10265D01*
X20914Y10276D01*
Y10281D01*
X20920Y10292D01*
Y10314D01*
Y10341D01*
X20947D01*
Y10319D01*
Y10314D01*
Y10308D01*
Y10297D01*
Y10292D01*
X20942Y10287D01*
X20936Y10270D01*
X20931Y10259D01*
X20925Y10243D01*
X20920Y10237D01*
Y10226D01*
Y10221D01*
X20914Y10210D01*
X20909Y10204D01*
Y10199D01*
Y10183D01*
Y10172D01*
Y10161D01*
X20903D01*
Y10155D01*
X20898Y10144D01*
Y10139D01*
Y10128D01*
X20892Y10112D01*
X20881Y10106D01*
X20871D01*
X20865Y10112D01*
X20871Y10122D01*
Y10128D01*
X20876Y10139D01*
X20881Y10166D01*
Y10172D01*
Y10183D01*
Y10194D01*
X20887Y10204D01*
Y10210D01*
Y10215D01*
X20876Y10221D01*
X20860D01*
X20832Y10226D01*
X20827D01*
X20805Y10232D01*
X20778D01*
X20772Y10226D01*
Y10215D01*
Y10199D01*
Y10194D01*
Y10188D01*
Y10177D01*
X20767Y10172D01*
X20761D01*
Y10166D01*
Y10155D01*
Y10150D01*
X20756Y10133D01*
X20750Y10122D01*
X20745D01*
X20739Y10117D01*
X20734Y10122D01*
Y10133D01*
X20739Y10150D01*
Y10155D01*
X20745Y10172D01*
X20750Y10204D01*
Y10210D01*
Y10221D01*
X20756Y10248D01*
Y10254D01*
Y10259D01*
X20761Y10292D01*
Y10297D01*
Y10308D01*
X20767Y10325D01*
X20772Y10336D01*
X20778Y10363D01*
X20783Y10369D01*
X20794Y10374D01*
X20799D01*
X20805Y10363D01*
D02*
G37*
G36*
X21844Y10270D02*
Y10254D01*
X21838Y10248D01*
Y10226D01*
Y10215D01*
X21833Y10199D01*
X21827Y10194D01*
Y10177D01*
X21822Y10166D01*
Y10150D01*
X21817Y10144D01*
Y10139D01*
Y10122D01*
X21811Y10112D01*
X21806Y10095D01*
X21800Y10084D01*
Y10079D01*
X21795Y10073D01*
X21784Y10068D01*
X21756Y10062D01*
X21745D01*
X21729Y10068D01*
X21696Y10073D01*
X21669Y10084D01*
Y10090D01*
Y10095D01*
X21696D01*
X21713Y10090D01*
X21718D01*
X21729Y10084D01*
X21751D01*
X21773Y10090D01*
X21784Y10106D01*
X21789Y10133D01*
Y10139D01*
X21795Y10144D01*
X21800Y10172D01*
Y10194D01*
X21773D01*
X21767Y10199D01*
X21756D01*
X21751Y10204D01*
X21740D01*
X21734Y10210D01*
X21729D01*
Y10215D01*
Y10221D01*
X21762D01*
X21773Y10215D01*
X21778D01*
X21789Y10210D01*
X21800Y10215D01*
X21811Y10221D01*
X21817Y10237D01*
Y10243D01*
X21822Y10248D01*
X21827Y10265D01*
Y10270D01*
X21833Y10276D01*
X21844D01*
Y10270D01*
D02*
G37*
G36*
X22746Y12151D02*
X22752D01*
X22762Y12146D01*
X22768D01*
X22779Y12140D01*
X22784D01*
X22795Y12135D01*
Y12140D01*
X22801Y12146D01*
Y12151D01*
Y12157D01*
X22845D01*
X22855Y12151D01*
X22872D01*
X22894Y12146D01*
X22927D01*
X22943Y12140D01*
X22954D01*
X22965Y12135D01*
X22992D01*
X22998Y12129D01*
X23003Y12124D01*
X22998Y12118D01*
X22981Y12113D01*
X22970D01*
X22959Y12118D01*
X22954Y12124D01*
X22910D01*
Y12096D01*
Y12091D01*
Y12080D01*
Y12064D01*
X22905Y12053D01*
X22899Y12047D01*
Y12036D01*
X22894Y12031D01*
X22888Y12014D01*
X22877Y11993D01*
X22872D01*
X22866Y11987D01*
X22855Y11982D01*
X22850D01*
X22861Y12014D01*
X22866Y12020D01*
X22877Y12031D01*
Y12036D01*
X22883Y12047D01*
Y12053D01*
Y12064D01*
X22888Y12085D01*
Y12091D01*
Y12107D01*
Y12118D01*
X22883Y12129D01*
X22877Y12135D01*
X22823D01*
X22817Y12129D01*
Y12124D01*
Y12118D01*
X22823Y12113D01*
Y12091D01*
Y12058D01*
X22828Y12053D01*
X22839Y12047D01*
X22845Y12042D01*
X22834Y12036D01*
X22828D01*
X22823Y12025D01*
Y12014D01*
Y12009D01*
Y12003D01*
Y11993D01*
X22817Y11987D01*
X22812Y11976D01*
X22806Y11965D01*
X22790Y11954D01*
X22752D01*
X22730Y11960D01*
X22724D01*
X22719Y11965D01*
X22708Y11971D01*
X22702Y11976D01*
X22680D01*
X22675Y11982D01*
X22670Y11987D01*
Y11998D01*
X22686D01*
X22691Y11993D01*
X22708D01*
X22724Y11982D01*
X22735Y11976D01*
X22768D01*
X22784Y11982D01*
X22790Y11998D01*
X22795Y12014D01*
X22801Y12031D01*
X22757Y12042D01*
X22752Y12047D01*
X22730D01*
X22724Y12053D01*
X22719Y12058D01*
X22724Y12069D01*
X22730Y12075D01*
X22735Y12069D01*
X22741Y12064D01*
X22746Y12058D01*
X22773D01*
X22790Y12053D01*
X22795Y12058D01*
X22801Y12069D01*
X22806Y12085D01*
Y12091D01*
X22801Y12107D01*
Y12113D01*
X22795Y12118D01*
X22784Y12124D01*
X22773D01*
X22757Y12129D01*
X22735Y12140D01*
X22730Y12146D01*
X22713D01*
X22708Y12151D01*
Y12157D01*
X22713Y12162D01*
X22735D01*
X22746Y12151D01*
D02*
G37*
G36*
X23216D02*
X23315D01*
X23326Y12135D01*
Y12129D01*
X23331Y12124D01*
X23337Y12113D01*
X23342Y12102D01*
Y12096D01*
X23348Y12091D01*
Y12085D01*
X23353Y12075D01*
Y12058D01*
Y12053D01*
Y12042D01*
Y12031D01*
X23348Y12020D01*
X23342Y12014D01*
Y11998D01*
X23337Y11993D01*
X23326Y11976D01*
X23309Y11949D01*
X23222D01*
X23211Y11954D01*
X23205Y11960D01*
X23173D01*
X23156Y11971D01*
X23145Y11976D01*
X23140Y11982D01*
X23134D01*
Y11987D01*
X23173D01*
X23178Y11982D01*
X23189D01*
X23211Y11976D01*
X23255Y11971D01*
X23276D01*
X23298Y11976D01*
X23315Y11993D01*
X23320Y11998D01*
X23326Y12009D01*
Y12020D01*
X23320Y12025D01*
X23304D01*
Y12031D01*
Y12036D01*
X23276D01*
X23266Y12042D01*
X23260Y12047D01*
X23233D01*
X23227Y12053D01*
X23233Y12058D01*
X23238Y12064D01*
X23244D01*
X23249Y12058D01*
X23266D01*
X23276Y12053D01*
X23287D01*
X23304Y12047D01*
X23326D01*
Y12053D01*
Y12069D01*
Y12075D01*
X23320Y12096D01*
X23304Y12113D01*
X23276Y12124D01*
X23266D01*
X23255Y12129D01*
X23249Y12135D01*
X23211D01*
X23200Y12140D01*
X23194Y12146D01*
Y12151D01*
X23200Y12157D01*
X23216Y12151D01*
D02*
G37*
G36*
X23528Y12430D02*
Y12424D01*
Y12414D01*
Y12397D01*
X23523Y12381D01*
X23517Y12370D01*
Y12348D01*
X23512Y12342D01*
X23506Y12332D01*
X23495Y12321D01*
X23484Y12326D01*
X23479Y12332D01*
X23457Y12353D01*
X23446Y12342D01*
X23441Y12337D01*
X23430Y12321D01*
X23413Y12304D01*
X23391Y12299D01*
X23386D01*
X23375Y12304D01*
X23369Y12315D01*
X23364Y12326D01*
Y12332D01*
Y12337D01*
Y12342D01*
X23358Y12332D01*
X23348Y12321D01*
X23337Y12315D01*
X23315Y12304D01*
X23309D01*
X23298Y12299D01*
X23282D01*
X23271Y12304D01*
X23255Y12310D01*
X23249Y12315D01*
X23244D01*
Y12321D01*
X23233D01*
Y12332D01*
X23222Y12353D01*
Y12359D01*
Y12370D01*
Y12386D01*
X23227Y12403D01*
Y12408D01*
X23233Y12419D01*
X23244Y12435D01*
X23255Y12446D01*
X23304Y12468D01*
X23309D01*
X23320Y12463D01*
X23331Y12452D01*
X23342Y12441D01*
X23353Y12419D01*
Y12414D01*
X23364Y12403D01*
X23369Y12397D01*
X23375D01*
Y12408D01*
Y12414D01*
X23380Y12424D01*
Y12430D01*
X23386Y12441D01*
Y12446D01*
X23391Y12452D01*
X23397Y12457D01*
X23408Y12463D01*
X23413Y12457D01*
X23419Y12452D01*
X23413Y12435D01*
X23397Y12408D01*
Y12403D01*
X23391Y12386D01*
X23386Y12348D01*
Y12342D01*
Y12337D01*
X23391Y12332D01*
X23397Y12326D01*
X23402D01*
X23419Y12332D01*
X23424Y12337D01*
X23430Y12353D01*
Y12359D01*
X23435Y12370D01*
X23446Y12381D01*
X23457Y12375D01*
X23468Y12370D01*
X23473D01*
X23479Y12364D01*
X23490Y12359D01*
X23495D01*
Y12370D01*
X23501Y12392D01*
Y12419D01*
Y12468D01*
X23528D01*
Y12430D01*
D02*
G37*
G36*
X22768Y12463D02*
X22773Y12457D01*
X22779Y12452D01*
X22790Y12441D01*
X22795Y12430D01*
Y12419D01*
X22801Y12408D01*
Y12386D01*
Y12381D01*
Y12375D01*
Y12364D01*
X22795Y12359D01*
X22784Y12342D01*
X22779Y12337D01*
X22768Y12332D01*
X22746Y12326D01*
X22724D01*
X22708Y12332D01*
X22702Y12337D01*
X22691Y12353D01*
Y12359D01*
X22686Y12364D01*
Y12375D01*
Y12386D01*
Y12414D01*
Y12419D01*
X22691Y12430D01*
X22702Y12446D01*
X22719Y12457D01*
X22724Y12463D01*
X22735Y12468D01*
X22752D01*
X22768Y12463D01*
D02*
G37*
G36*
X22664Y12457D02*
Y12446D01*
X22670Y12424D01*
Y12397D01*
Y12392D01*
Y12375D01*
X22664Y12359D01*
X22659Y12342D01*
X22653D01*
X22648Y12337D01*
X22626Y12332D01*
X22582D01*
X22566Y12337D01*
X22549Y12342D01*
X22544Y12348D01*
Y12353D01*
X22609D01*
X22626Y12359D01*
X22642Y12375D01*
Y12381D01*
X22648Y12397D01*
X22653Y12414D01*
X22648Y12435D01*
Y12441D01*
X22642Y12452D01*
Y12457D01*
X22648Y12463D01*
X22664D01*
Y12457D01*
D02*
G37*
G36*
X22834Y12517D02*
X22839Y12507D01*
X22845Y12496D01*
X22850Y12474D01*
Y12468D01*
Y12457D01*
Y12441D01*
X22855Y12430D01*
Y12424D01*
Y12403D01*
Y12397D01*
X22861Y12381D01*
X22872D01*
X22877Y12386D01*
X22888Y12403D01*
X22905Y12424D01*
Y12430D01*
X22910Y12435D01*
Y12441D01*
X22916D01*
Y12446D01*
X22921Y12452D01*
X22932Y12485D01*
X22937Y12490D01*
X22943Y12485D01*
X22948Y12479D01*
X22959Y12474D01*
X22927Y12424D01*
X22921Y12419D01*
Y12414D01*
X22899Y12364D01*
Y12359D01*
X22888Y12353D01*
X22883D01*
X22877Y12348D01*
Y12337D01*
X22872Y12332D01*
X22855D01*
X22850Y12337D01*
X22845Y12348D01*
X22839Y12359D01*
Y12375D01*
X22834Y12386D01*
Y12403D01*
Y12424D01*
Y12430D01*
Y12446D01*
Y12463D01*
X22828Y12474D01*
X22823Y12479D01*
Y12501D01*
Y12507D01*
Y12512D01*
Y12523D01*
X22828D01*
X22834Y12517D01*
D02*
G37*
G36*
X22456Y12474D02*
X22462D01*
X22489Y12468D01*
X22500D01*
X22516Y12463D01*
X22522D01*
X22533Y12457D01*
X22549D01*
X22560Y12452D01*
X22566Y12446D01*
Y12441D01*
X22560Y12435D01*
X22549Y12430D01*
X22538D01*
X22527Y12435D01*
X22505D01*
X22495Y12424D01*
Y12408D01*
X22489Y12386D01*
Y12381D01*
X22484Y12375D01*
Y12364D01*
Y12359D01*
X22478Y12342D01*
X22473Y12337D01*
X22462D01*
X22445Y12332D01*
X22429D01*
X22396Y12342D01*
X22380D01*
X22369Y12337D01*
X22336D01*
X22320Y12342D01*
X22314Y12353D01*
Y12359D01*
X22325Y12375D01*
X22363Y12414D01*
Y12419D01*
X22374Y12424D01*
X22391Y12435D01*
Y12441D01*
X22385D01*
X22380Y12446D01*
X22347D01*
X22352Y12457D01*
X22358Y12463D01*
X22369Y12468D01*
X22396D01*
X22418Y12474D01*
X22429Y12479D01*
X22440D01*
X22456Y12474D01*
D02*
G37*
G36*
X22675Y12189D02*
X22680Y12173D01*
X22686Y12168D01*
Y12162D01*
Y12151D01*
X22680Y12146D01*
X22675Y12129D01*
Y12124D01*
Y12118D01*
X22670Y12113D01*
Y12107D01*
Y12091D01*
Y12085D01*
X22664Y12080D01*
X22659Y12053D01*
X22653Y12042D01*
X22648Y12031D01*
Y12009D01*
Y12003D01*
Y11993D01*
X22642Y11982D01*
X22637Y11976D01*
X22631Y11982D01*
X22626Y11993D01*
Y12014D01*
Y12020D01*
X22620Y12031D01*
X22609D01*
X22604Y12025D01*
X22593Y12014D01*
X22587Y12009D01*
X22582Y12003D01*
X22571Y11993D01*
X22560Y11987D01*
X22555Y11982D01*
X22533Y11976D01*
X22516Y11965D01*
X22500Y11960D01*
X22495D01*
X22478Y11954D01*
X22467Y11949D01*
X22462D01*
X22456Y11954D01*
X22462Y11960D01*
Y11965D01*
X22467Y11971D01*
X22473Y11976D01*
X22484D01*
X22495Y11982D01*
X22522Y11993D01*
X22555Y12003D01*
X22560D01*
X22566Y12009D01*
X22582Y12020D01*
Y12025D01*
X22587Y12031D01*
X22593Y12042D01*
X22598Y12053D01*
X22582Y12069D01*
X22577Y12075D01*
X22560Y12096D01*
X22549Y12118D01*
Y12129D01*
X22555Y12135D01*
X22560Y12146D01*
Y12151D01*
X22566Y12157D01*
X22571Y12162D01*
X22582Y12168D01*
X22587Y12173D01*
X22598Y12178D01*
Y12184D01*
X22604D01*
X22615Y12189D01*
X22626Y12195D01*
X22670D01*
X22675Y12189D01*
D02*
G37*
G36*
X21499Y13327D02*
X21538D01*
X21778Y13321D01*
X21970D01*
X21997Y13316D01*
X22030D01*
X22052Y13310D01*
X22172D01*
X22489Y13294D01*
X22593D01*
X22609Y13288D01*
X22724D01*
X22784Y13283D01*
X23107D01*
X23123Y13288D01*
X23145Y13305D01*
X23151Y13310D01*
X23162D01*
X23178Y13305D01*
X23184D01*
X23189Y13299D01*
X23211Y13283D01*
Y13277D01*
X23216Y13250D01*
Y13239D01*
X23211Y13223D01*
X23194Y13212D01*
X23189Y13206D01*
X23173Y13201D01*
X23123D01*
X23112Y13212D01*
X23101Y13223D01*
X23096Y13239D01*
Y13261D01*
X23041D01*
X23025Y13267D01*
X23009D01*
X22998Y13272D01*
X22637D01*
X22172Y13288D01*
X22145D01*
X22139Y13294D01*
X22101D01*
X21833Y13299D01*
X21811D01*
X21789Y13305D01*
X21499D01*
X21494Y13299D01*
Y13294D01*
Y13272D01*
X21488Y12999D01*
Y12993D01*
Y12982D01*
Y12971D01*
X21483Y12960D01*
Y12955D01*
X21521D01*
X21543Y12960D01*
X21554D01*
X21565Y12955D01*
X21570Y12949D01*
Y12938D01*
X21565Y12922D01*
X21560Y12911D01*
Y12889D01*
Y12873D01*
Y12846D01*
Y12840D01*
Y12835D01*
Y12807D01*
Y12780D01*
X21554Y12774D01*
Y12769D01*
Y12764D01*
Y12753D01*
X21549Y12736D01*
Y12714D01*
Y12681D01*
Y12643D01*
Y12594D01*
Y12589D01*
Y12572D01*
Y12545D01*
Y12517D01*
Y12457D01*
X21554Y12435D01*
Y12419D01*
Y12414D01*
Y12408D01*
X21560Y12375D01*
Y12370D01*
Y12364D01*
X21570Y12337D01*
Y12332D01*
X21565Y12326D01*
X21554Y12321D01*
X21549Y12315D01*
X21543Y12310D01*
X21527Y12304D01*
X21494Y12299D01*
X21450D01*
Y12200D01*
Y12195D01*
Y12189D01*
Y12157D01*
Y12124D01*
X21456Y12113D01*
Y12102D01*
X21461Y12091D01*
X21467Y12080D01*
X21483Y12064D01*
X21505Y12042D01*
Y12025D01*
Y12020D01*
X21499Y12009D01*
X21488Y11998D01*
X21477Y11993D01*
X21472D01*
X21467Y11982D01*
Y11971D01*
Y11965D01*
X21461Y11954D01*
Y11938D01*
Y11905D01*
Y11757D01*
X21494D01*
Y11763D01*
X21516D01*
Y11768D01*
X21543D01*
X21560Y11763D01*
X21570Y11757D01*
X21576Y11752D01*
X21570Y11741D01*
X21565Y11736D01*
Y11725D01*
Y11708D01*
Y11703D01*
Y11692D01*
X21560Y11659D01*
Y11648D01*
Y11637D01*
X21554Y11621D01*
Y11593D01*
Y11555D01*
Y11517D01*
Y11462D01*
Y11457D01*
Y11440D01*
Y11413D01*
Y11380D01*
Y11320D01*
X21560Y11298D01*
Y11282D01*
Y11271D01*
Y11249D01*
Y11232D01*
Y11205D01*
X21565Y11101D01*
Y11096D01*
Y11090D01*
Y11079D01*
X21560Y11074D01*
X21554Y11068D01*
X21543Y11063D01*
X21532Y11057D01*
X21527D01*
X21516Y11052D01*
X21477D01*
Y11047D01*
X21483Y11030D01*
Y11025D01*
X21488Y11014D01*
X21494Y10986D01*
Y10954D01*
Y10943D01*
Y10921D01*
X21488Y10883D01*
X21483Y10839D01*
Y10833D01*
X21488Y10822D01*
X21494Y10811D01*
X21510Y10806D01*
X21516D01*
X21521Y10800D01*
X21532Y10790D01*
X21538Y10773D01*
X21543Y10768D01*
X21598Y10762D01*
X21647D01*
X21658Y10757D01*
X22407D01*
X22670Y10768D01*
X22702D01*
X22708Y10773D01*
X22779D01*
X22801Y10779D01*
X22828D01*
X22845Y10784D01*
X22850D01*
X22855Y10790D01*
X22970D01*
X22992Y10784D01*
X23025Y10779D01*
X23063D01*
X23085Y10784D01*
X23101Y10795D01*
X23118Y10806D01*
X23123Y10811D01*
X23134Y10817D01*
X23140Y10822D01*
X23156Y10828D01*
X23162D01*
X23167Y10833D01*
X23173Y10839D01*
X23205D01*
X23227Y10828D01*
X23233Y10822D01*
X23244Y10817D01*
X23249D01*
Y10811D01*
X23255Y10800D01*
Y10795D01*
Y10773D01*
Y10762D01*
X23249Y10757D01*
X23238Y10740D01*
X23233Y10735D01*
X23216Y10724D01*
X23211D01*
X23194Y10718D01*
X23173D01*
X23151Y10724D01*
X23145Y10729D01*
X23129D01*
X23118Y10740D01*
Y10746D01*
X23107Y10751D01*
X23101Y10757D01*
X23069D01*
X23058Y10762D01*
X22768D01*
X22757Y10757D01*
X22735D01*
X22724Y10751D01*
X22637D01*
X22516Y10746D01*
X22183Y10740D01*
X21915D01*
X21877Y10735D01*
X21827D01*
X21729Y10740D01*
X21652D01*
X21642Y10746D01*
X21620D01*
X21592Y10751D01*
X21560D01*
X21532Y10740D01*
X21516Y10729D01*
X21450D01*
X21434Y10740D01*
X21428Y10746D01*
X21423Y10751D01*
X21412Y10757D01*
X21182D01*
X21155Y10751D01*
X20892D01*
X20871Y10757D01*
X20849D01*
X20827Y10762D01*
X20630D01*
X20586Y10757D01*
X20515D01*
X20504Y10762D01*
X20417D01*
X20395Y10757D01*
X20357D01*
X20253Y10762D01*
X20198D01*
X20154Y10757D01*
X20132Y10751D01*
X20121Y10740D01*
X20116Y10735D01*
X20105Y10729D01*
X20089D01*
X20067Y10735D01*
X20056Y10740D01*
X20050Y10746D01*
X20045Y10762D01*
Y10768D01*
X20039Y10773D01*
X20034Y10784D01*
Y10790D01*
X20039Y10800D01*
X20050Y10811D01*
Y10817D01*
X20061Y10822D01*
X20072Y10828D01*
X20083Y10822D01*
X20094D01*
X20110Y10817D01*
X20116D01*
X20121Y10811D01*
X20127Y10800D01*
X20138Y10779D01*
X20789Y10773D01*
X20892D01*
X20903Y10768D01*
X21171D01*
X21193Y10773D01*
X21423D01*
X21434Y10779D01*
X21445Y10795D01*
X21461Y10811D01*
Y10981D01*
Y10986D01*
Y10992D01*
Y10997D01*
X21456Y11003D01*
X21450Y11008D01*
X21445Y11025D01*
X21439Y11047D01*
X21335Y11052D01*
X21341Y11304D01*
X21335Y11577D01*
Y11582D01*
Y11599D01*
Y11621D01*
Y11648D01*
Y11703D01*
X21341Y11725D01*
Y11741D01*
Y11746D01*
Y11757D01*
X21346Y11763D01*
X21352D01*
X21439Y11757D01*
Y11987D01*
X21428Y11993D01*
X21423Y11998D01*
X21417Y12003D01*
Y12009D01*
Y12014D01*
X21412Y12020D01*
X21395D01*
X21379Y12025D01*
X21182D01*
X21166Y12020D01*
X21138D01*
X21106Y12014D01*
X20685D01*
X20646Y12009D01*
X20608D01*
X20592Y12003D01*
X20570D01*
X20548Y12009D01*
X20471D01*
X20466Y12003D01*
X20296D01*
X20285Y12009D01*
X20269D01*
X20247Y12003D01*
X20236D01*
X20220Y11998D01*
X20203D01*
X20193Y11987D01*
X20187D01*
X20182Y11982D01*
X20171Y11976D01*
X20165D01*
X20149Y11965D01*
X20132D01*
X20127Y11971D01*
X20110Y11976D01*
X20105D01*
X20094Y11982D01*
X20089Y11993D01*
X20083Y12009D01*
Y12014D01*
X20089Y12025D01*
X20094Y12036D01*
X20110Y12047D01*
X20116D01*
X20127Y12053D01*
X20138Y12058D01*
X20165D01*
X20171Y12053D01*
X20187Y12047D01*
X20198Y12031D01*
Y12025D01*
X20203Y12020D01*
X20220D01*
X20225Y12025D01*
X20597D01*
X20608Y12031D01*
X20696D01*
X20723Y12025D01*
X20783D01*
X20794Y12031D01*
X20816Y12036D01*
X20898D01*
X20925Y12031D01*
X21078D01*
X21374Y12042D01*
X21395Y12047D01*
X21412D01*
X21423Y12053D01*
X21428Y12064D01*
Y12069D01*
Y12091D01*
Y12113D01*
Y12135D01*
Y12168D01*
Y12206D01*
X21423Y12299D01*
X21330D01*
X21319Y12304D01*
Y12310D01*
Y12321D01*
X21324Y12332D01*
Y12337D01*
X21330Y12353D01*
Y12359D01*
Y12364D01*
X21335Y12386D01*
Y12392D01*
Y12397D01*
Y12424D01*
X21341Y12621D01*
Y12632D01*
X21346Y12654D01*
X21352Y12676D01*
Y12698D01*
Y12703D01*
Y12714D01*
Y12742D01*
Y12747D01*
Y12753D01*
X21346Y12769D01*
Y12774D01*
X21341Y12785D01*
Y12813D01*
Y12851D01*
Y12856D01*
Y12862D01*
Y12889D01*
Y12922D01*
Y12944D01*
X21346Y12955D01*
X21450D01*
X21456Y12960D01*
X21461Y12966D01*
X21456Y12971D01*
Y12988D01*
Y12993D01*
Y13004D01*
Y13021D01*
X21461Y13042D01*
Y13070D01*
Y13108D01*
Y13152D01*
Y13157D01*
Y13174D01*
Y13195D01*
Y13223D01*
Y13272D01*
X21456Y13294D01*
Y13305D01*
Y13310D01*
X21450Y13316D01*
X21456Y13327D01*
X21477Y13332D01*
X21499Y13327D01*
D02*
G37*
G36*
X19881Y11539D02*
X19897Y11528D01*
X19908D01*
X19925Y11522D01*
X19941Y11511D01*
X19952Y11500D01*
X19946Y11495D01*
X19936D01*
X19925Y11500D01*
X19919Y11506D01*
X19903D01*
X19892Y11500D01*
X19886Y11489D01*
Y11473D01*
Y11468D01*
Y11457D01*
X19881Y11418D01*
X19875Y11391D01*
Y11386D01*
X19870Y11380D01*
X19859Y11369D01*
X19854Y11364D01*
X19848Y11358D01*
X19843D01*
X19837Y11364D01*
Y11369D01*
Y11375D01*
X19843Y11380D01*
X19848Y11402D01*
Y11407D01*
X19854Y11413D01*
X19859Y11440D01*
Y11446D01*
Y11451D01*
Y11479D01*
X19864Y11484D01*
Y11500D01*
X19859Y11511D01*
X19848Y11517D01*
X19815D01*
X19804Y11522D01*
Y11528D01*
Y11533D01*
Y11539D01*
X19810Y11544D01*
X19875D01*
X19881Y11539D01*
D02*
G37*
G36*
X23041Y12168D02*
Y12162D01*
Y12151D01*
Y12124D01*
X23036Y12118D01*
Y12102D01*
X23030Y12096D01*
X23025Y12085D01*
X23019D01*
Y12075D01*
Y12069D01*
X23014Y12053D01*
Y12047D01*
Y12042D01*
X23019D01*
X23030Y12047D01*
X23047Y12058D01*
X23069Y12075D01*
X23074Y12080D01*
X23085Y12096D01*
X23096Y12113D01*
X23107Y12124D01*
Y12129D01*
Y12135D01*
X23118Y12140D01*
X23140D01*
Y12129D01*
Y12118D01*
X23134Y12107D01*
X23129Y12091D01*
Y12085D01*
Y12075D01*
X23123Y12069D01*
Y12053D01*
X23118Y12047D01*
Y12036D01*
X23096Y11987D01*
X23091Y11982D01*
X23085Y11976D01*
X23074Y11982D01*
X23069Y11987D01*
X23063Y11993D01*
X23069Y11998D01*
X23074Y12003D01*
X23080Y12009D01*
X23091Y12025D01*
Y12031D01*
X23096Y12036D01*
Y12042D01*
X23107Y12053D01*
Y12058D01*
Y12064D01*
Y12075D01*
X23101Y12080D01*
X23096Y12085D01*
X23091Y12080D01*
X23085Y12069D01*
X23074Y12058D01*
X23063Y12047D01*
X23030Y12020D01*
X23025Y12014D01*
X23014Y12003D01*
X23003Y11998D01*
X22998D01*
Y12003D01*
Y12009D01*
Y12036D01*
Y12042D01*
Y12053D01*
Y12064D01*
X23003Y12069D01*
Y12075D01*
X23009Y12085D01*
Y12091D01*
X23014Y12102D01*
Y12107D01*
X23019Y12118D01*
Y12124D01*
X23025Y12135D01*
X23030Y12140D01*
Y12151D01*
X23036Y12162D01*
Y12168D01*
Y12173D01*
X23041Y12168D01*
D02*
G37*
G36*
X23506Y12523D02*
X23588D01*
X23621Y12517D01*
X23648D01*
X23659Y12512D01*
X23719D01*
X23730Y12507D01*
X23736Y12501D01*
Y12496D01*
X23730Y12490D01*
X23719Y12485D01*
X23681D01*
X23676Y12490D01*
X23648D01*
X23643Y12485D01*
X23637Y12479D01*
Y12468D01*
Y12457D01*
X23632Y12446D01*
X23626Y12441D01*
Y12435D01*
Y12419D01*
Y12408D01*
X23621Y12386D01*
Y12381D01*
X23615Y12375D01*
X23610Y12342D01*
Y12337D01*
X23605Y12332D01*
Y12321D01*
X23599Y12315D01*
X23594D01*
X23588Y12326D01*
X23583Y12342D01*
Y12348D01*
X23588Y12353D01*
X23594Y12370D01*
Y12375D01*
X23599Y12397D01*
Y12403D01*
Y12408D01*
X23605Y12424D01*
Y12430D01*
Y12435D01*
X23610Y12463D01*
Y12468D01*
Y12474D01*
Y12485D01*
Y12490D01*
X23605Y12496D01*
X23594Y12507D01*
X23484Y12512D01*
X23473D01*
X23462Y12517D01*
X23457Y12523D01*
Y12528D01*
X23490D01*
X23506Y12523D01*
D02*
G37*
%LPC*%
G36*
X23205Y10773D02*
X23200Y10768D01*
X23194D01*
X23178Y10762D01*
X23134D01*
X23123Y10757D01*
Y10751D01*
X23129Y10746D01*
X23134D01*
X23145Y10740D01*
X23200D01*
X23211Y10746D01*
X23222Y10751D01*
Y10762D01*
X23216Y10768D01*
X23205Y10773D01*
D02*
G37*
G36*
X21117Y10341D02*
X21111D01*
X21106Y10336D01*
Y10330D01*
Y10319D01*
X21100Y10314D01*
X21095D01*
X21089Y10319D01*
X21084Y10330D01*
Y10336D01*
X21078Y10341D01*
X21073D01*
X21062Y10336D01*
X21040Y10330D01*
X21035D01*
X21029Y10325D01*
X21024Y10314D01*
X21018Y10308D01*
X21007Y10292D01*
X21002Y10287D01*
Y10276D01*
X20996Y10270D01*
Y10259D01*
Y10254D01*
X20991Y10248D01*
X20985Y10243D01*
Y10237D01*
Y10221D01*
X20980Y10210D01*
X20974Y10194D01*
Y10188D01*
Y10177D01*
X20980Y10161D01*
X20985Y10150D01*
X21002Y10128D01*
X21024Y10117D01*
X21029D01*
X21046Y10112D01*
X21117D01*
X21160Y10133D01*
X21166D01*
X21171Y10139D01*
X21182Y10150D01*
Y10155D01*
X21188Y10161D01*
X21193Y10172D01*
Y10177D01*
X21199Y10188D01*
Y10194D01*
X21204Y10210D01*
Y10215D01*
Y10221D01*
Y10248D01*
Y10281D01*
X21188Y10308D01*
X21177Y10319D01*
X21166Y10314D01*
X21160Y10308D01*
Y10292D01*
X21155Y10287D01*
X21144Y10281D01*
X21138Y10287D01*
X21133D01*
Y10292D01*
Y10297D01*
X21138D01*
Y10303D01*
X21144Y10308D01*
X21149Y10314D01*
X21144Y10325D01*
X21138Y10330D01*
X21128Y10336D01*
X21122D01*
X21117Y10341D01*
D02*
G37*
G36*
X23287Y12446D02*
X23276Y12441D01*
X23271Y12435D01*
X23266Y12430D01*
X23260D01*
X23255Y12424D01*
X23249Y12408D01*
X23244Y12403D01*
Y12392D01*
Y12370D01*
Y12342D01*
X23255Y12332D01*
X23260Y12326D01*
X23287Y12321D01*
X23298D01*
X23320Y12326D01*
X23326Y12332D01*
X23331Y12342D01*
X23342Y12364D01*
Y12392D01*
Y12397D01*
X23331Y12414D01*
X23315Y12435D01*
X23287Y12446D01*
D02*
G37*
G36*
X22462Y12457D02*
X22429D01*
X22413Y12452D01*
Y12446D01*
X22407Y12441D01*
X22402Y12430D01*
X22374Y12397D01*
X22369Y12392D01*
X22358Y12381D01*
X22352Y12370D01*
X22347Y12364D01*
X22352D01*
X22358Y12359D01*
X22407D01*
X22413Y12353D01*
X22418D01*
X22434Y12348D01*
X22451D01*
Y12353D01*
X22456Y12359D01*
X22467Y12386D01*
Y12392D01*
Y12397D01*
X22473Y12419D01*
Y12424D01*
X22478Y12441D01*
X22473Y12452D01*
X22462Y12457D01*
D02*
G37*
G36*
X21970Y10319D02*
X21937D01*
X21926Y10308D01*
X21920Y10303D01*
X21909Y10292D01*
X21899Y10276D01*
X21893Y10259D01*
Y10254D01*
X21888Y10243D01*
X21882Y10237D01*
Y10221D01*
Y10210D01*
X21877Y10194D01*
X21871Y10188D01*
Y10177D01*
Y10172D01*
X21866Y10155D01*
Y10150D01*
Y10122D01*
Y10112D01*
X21877Y10101D01*
X21899Y10084D01*
X21926Y10068D01*
Y10062D01*
X21931D01*
Y10068D01*
Y10073D01*
Y10079D01*
X21926Y10084D01*
Y10095D01*
Y10101D01*
Y10106D01*
X21931D01*
X21937Y10101D01*
X21942D01*
X21948Y10106D01*
Y10112D01*
Y10117D01*
X21953Y10133D01*
Y10139D01*
X21959Y10155D01*
Y10161D01*
Y10172D01*
X21964Y10177D01*
Y10188D01*
X21970Y10199D01*
Y10215D01*
Y10221D01*
Y10232D01*
Y10243D01*
X21975Y10254D01*
Y10259D01*
Y10265D01*
X21981Y10292D01*
Y10297D01*
X21975Y10303D01*
Y10314D01*
X21970Y10319D01*
D02*
G37*
G36*
X23151Y13245D02*
X23129D01*
X23118Y13239D01*
Y13234D01*
X23123Y13228D01*
X23145Y13223D01*
X23162D01*
X23167Y13228D01*
X23162Y13234D01*
X23156D01*
Y13239D01*
X23151Y13245D01*
D02*
G37*
G36*
X22752Y12446D02*
X22735D01*
X22724Y12435D01*
X22719D01*
X22713Y12430D01*
X22708Y12424D01*
Y12419D01*
Y12414D01*
X22702Y12408D01*
Y12403D01*
Y12397D01*
Y12381D01*
Y12370D01*
X22713Y12353D01*
X22724D01*
X22735Y12348D01*
X22757D01*
X22762Y12353D01*
X22768Y12359D01*
X22773Y12364D01*
X22779Y12381D01*
Y12386D01*
Y12397D01*
X22773Y12419D01*
X22757Y12441D01*
X22752Y12446D01*
D02*
G37*
G36*
X20138Y12036D02*
X20127D01*
X20121Y12031D01*
X20127Y12025D01*
X20132D01*
X20138Y12031D01*
Y12036D01*
D02*
G37*
G36*
X20176Y11506D02*
X20160Y11500D01*
X20154D01*
X20143Y11495D01*
X20132Y11473D01*
X20127Y11468D01*
X20121Y11462D01*
X20116Y11451D01*
Y11446D01*
X20110Y11440D01*
Y11424D01*
X20116Y11407D01*
Y11402D01*
X20121Y11397D01*
X20127Y11386D01*
X20138Y11380D01*
X20143D01*
X20154Y11375D01*
X20165Y11369D01*
X20176Y11375D01*
X20193Y11380D01*
X20198Y11386D01*
X20203Y11397D01*
X20214Y11413D01*
X20220Y11435D01*
Y11440D01*
Y11451D01*
Y11468D01*
X20209Y11484D01*
X20203Y11489D01*
X20193Y11500D01*
X20176Y11506D01*
D02*
G37*
G36*
X20892Y11533D02*
X20887Y11528D01*
X20881Y11522D01*
X20871Y11517D01*
X20849D01*
X20832Y11511D01*
X20821Y11500D01*
X20816Y11495D01*
X20810Y11484D01*
X20805Y11468D01*
X20799Y11440D01*
Y11413D01*
X20810Y11397D01*
X20821Y11391D01*
X20843Y11375D01*
X20876Y11369D01*
X20892Y11364D01*
X20909Y11369D01*
X20914Y11375D01*
X20925Y11386D01*
X20942Y11413D01*
X20947Y11457D01*
Y11489D01*
X20925Y11506D01*
X20920Y11511D01*
X20909Y11522D01*
X20892Y11533D01*
D02*
G37*
G36*
X20149Y12014D02*
X20138Y12009D01*
X20127Y12003D01*
X20121Y11998D01*
X20127Y11993D01*
X20143D01*
X20149Y11998D01*
X20154Y12003D01*
Y12009D01*
X20149Y12014D01*
D02*
G37*
G36*
X21538Y11736D02*
X21456D01*
X21445Y11730D01*
X21439D01*
X21423Y11725D01*
X21417D01*
X21412Y11730D01*
X21385D01*
X21368Y11736D01*
X21357Y11725D01*
X21352Y11719D01*
X21357Y11703D01*
Y11692D01*
X21363Y11675D01*
Y11637D01*
Y11134D01*
Y11123D01*
Y11101D01*
X21368Y11079D01*
Y11074D01*
X21516D01*
X21532Y11079D01*
X21538Y11085D01*
X21543Y11096D01*
Y11112D01*
Y11140D01*
X21538Y11145D01*
Y11161D01*
X21543Y11211D01*
Y11216D01*
Y11222D01*
Y11249D01*
Y11260D01*
Y11271D01*
X21538Y11293D01*
Y11320D01*
Y11353D01*
Y11402D01*
Y11462D01*
Y11468D01*
Y11489D01*
Y11517D01*
Y11555D01*
Y11588D01*
Y11626D01*
X21543Y11654D01*
Y11670D01*
Y11675D01*
Y11686D01*
X21549Y11703D01*
Y11719D01*
Y11725D01*
X21543Y11730D01*
X21538Y11736D01*
D02*
G37*
G36*
X19372Y11462D02*
X19367Y11457D01*
Y11451D01*
Y11446D01*
Y11440D01*
X19361Y11429D01*
Y11424D01*
Y11418D01*
X19367D01*
X19383Y11413D01*
X19389D01*
Y11418D01*
Y11424D01*
Y11429D01*
X19383Y11435D01*
X19378Y11446D01*
Y11451D01*
X19372Y11462D01*
D02*
G37*
G36*
X20100Y12009D02*
Y12003D01*
Y11998D01*
X20105Y11993D01*
Y11998D01*
Y12003D01*
X20100Y12009D01*
D02*
G37*
G36*
X20094Y10806D02*
X20089D01*
Y10800D01*
Y10795D01*
Y10790D01*
X20094Y10784D01*
X20105D01*
Y10790D01*
Y10795D01*
X20100Y10800D01*
X20094Y10806D01*
D02*
G37*
G36*
X21499Y10773D02*
X21494Y10768D01*
Y10762D01*
Y10757D01*
X21499Y10751D01*
X21505D01*
Y10762D01*
X21499Y10768D01*
Y10773D01*
D02*
G37*
G36*
X20067Y10784D02*
X20061D01*
X20056Y10773D01*
Y10768D01*
X20061Y10762D01*
X20072Y10751D01*
X20094D01*
X20100Y10757D01*
X20094Y10762D01*
X20078D01*
X20072Y10768D01*
X20067Y10779D01*
Y10784D01*
D02*
G37*
G36*
X23145Y10806D02*
X23140Y10800D01*
X23134Y10795D01*
X23145Y10790D01*
X23151Y10795D01*
Y10800D01*
X23145Y10806D01*
D02*
G37*
G36*
X22653Y12168D02*
X22620D01*
X22609Y12162D01*
X22604D01*
X22598Y12157D01*
X22582Y12146D01*
X22577Y12140D01*
Y12124D01*
Y12113D01*
X22587Y12096D01*
X22593Y12091D01*
X22615Y12075D01*
X22626D01*
X22631Y12085D01*
X22642Y12102D01*
Y12107D01*
X22648Y12118D01*
Y12124D01*
X22659Y12140D01*
Y12146D01*
Y12162D01*
X22653Y12168D01*
D02*
G37*
G36*
X21521Y12922D02*
X21368D01*
X21363Y12911D01*
Y12900D01*
Y12895D01*
Y12884D01*
Y12867D01*
Y12846D01*
Y12813D01*
Y12780D01*
Y12692D01*
Y12687D01*
Y12671D01*
Y12654D01*
Y12627D01*
Y12578D01*
X21357Y12556D01*
Y12545D01*
X21352Y12528D01*
Y12507D01*
Y12485D01*
Y12463D01*
Y12359D01*
Y12353D01*
Y12342D01*
Y12332D01*
X21363Y12326D01*
X21379D01*
X21401Y12321D01*
X21532D01*
X21538Y12326D01*
Y12332D01*
Y12337D01*
X21532Y12507D01*
Y12512D01*
Y12523D01*
X21527Y12539D01*
Y12567D01*
Y12632D01*
X21532Y12709D01*
Y12720D01*
Y12742D01*
X21538Y12785D01*
Y12835D01*
Y12840D01*
Y12846D01*
Y12873D01*
Y12900D01*
X21532Y12911D01*
Y12917D01*
X21521Y12922D01*
D02*
G37*
G36*
X23211Y10817D02*
X23178D01*
X23167Y10806D01*
X23173Y10800D01*
X23184Y10795D01*
X23205D01*
X23211Y10800D01*
X23216Y10811D01*
X23211Y10817D01*
D02*
G37*
%LPD*%
D18*
X14286Y11665D02*
G03*
X14286Y11665I-50J0D01*
G01*
X17593Y12307D02*
Y13007D01*
X17493Y12307D02*
X17593D01*
X17493D02*
Y13007D01*
X17593D01*
D20*
X19193Y19439D02*
G03*
X19193Y19439I-49J0D01*
G01*
D39*
X18711Y17382D02*
Y19390D01*
X17372Y17382D02*
Y19390D01*
X18711D01*
X17372Y17382D02*
X18711D01*
X16329Y11240D02*
Y11516D01*
X16998Y11240D02*
Y11516D01*
X13346Y11545D02*
Y11821D01*
X14016Y11545D02*
Y11821D01*
X17569Y20512D02*
X17844D01*
X17569Y19843D02*
X17844D01*
X14964Y23271D02*
X15030Y23336D01*
X15161D01*
X15226Y23271D01*
Y23009D01*
X15161Y22943D01*
X15030D01*
X14964Y23009D01*
Y23140D01*
X15095D01*
X14833Y22943D02*
Y23336D01*
X14570Y22943D01*
Y23336D01*
X14439D02*
Y22943D01*
X14242D01*
X14177Y23009D01*
Y23271D01*
X14242Y23336D01*
X14439D01*
X16575Y20846D02*
Y21240D01*
X16378D01*
X16312Y21174D01*
Y21043D01*
X16378Y20978D01*
X16575D01*
X16181Y21240D02*
Y20846D01*
X15984D01*
X15919Y20912D01*
Y21174D01*
X15984Y21240D01*
X16181D01*
X15788Y20846D02*
Y21240D01*
X15525Y20846D01*
Y21240D01*
X16742Y24272D02*
Y24009D01*
X16611Y23878D01*
X16480Y24009D01*
Y24272D01*
X16349D02*
X16217D01*
X16283D01*
Y23878D01*
X16349D01*
X16217D01*
X16021D02*
Y24272D01*
X15758Y23878D01*
Y24272D01*
X18425Y24321D02*
Y23927D01*
X18228D01*
X18163Y23993D01*
Y24255D01*
X18228Y24321D01*
X18425D01*
X18032D02*
X17900D01*
X17966D01*
Y23927D01*
X18032D01*
X17900D01*
X17704D02*
Y24321D01*
X17507D01*
X17441Y24255D01*
Y24124D01*
X17507Y24058D01*
X17704D01*
X17572D02*
X17441Y23927D01*
X19472Y23307D02*
X19734D01*
Y22913D01*
X19472D01*
X19734Y23110D02*
X19603D01*
X19341Y22913D02*
Y23307D01*
X19078Y22913D01*
Y23307D01*
X18684Y21214D02*
X18750Y21279D01*
X18881D01*
X18947Y21214D01*
Y21148D01*
X18881Y21083D01*
X18750D01*
X18684Y21017D01*
Y20951D01*
X18750Y20886D01*
X18881D01*
X18947Y20951D01*
X18553Y21279D02*
X18291D01*
X18422D01*
Y20886D01*
X18160D02*
Y21279D01*
X17963D01*
X17897Y21214D01*
Y21083D01*
X17963Y21017D01*
X18160D01*
X12815Y15778D02*
X13077D01*
X13209Y15909D01*
X13077Y16040D01*
X12815D01*
X13012D01*
Y15778D01*
X12815Y16171D02*
Y16302D01*
Y16237D01*
X13209D01*
X13143Y16171D01*
X12805Y16939D02*
X13068D01*
X13199Y17070D01*
X13068Y17201D01*
X12805D01*
X13002D01*
Y16939D01*
X12805Y17595D02*
Y17333D01*
X13068Y17595D01*
X13133D01*
X13199Y17529D01*
Y17398D01*
X13133Y17333D01*
X13169Y14360D02*
X12776D01*
Y14557D01*
X12841Y14623D01*
X12907D01*
X12972Y14557D01*
Y14360D01*
Y14557D01*
X13038Y14623D01*
X13104D01*
X13169Y14557D01*
Y14360D01*
X12776Y14754D02*
Y14885D01*
Y14819D01*
X13169D01*
X13104Y14754D01*
X13169Y18533D02*
X12776D01*
Y18730D01*
X12841Y18796D01*
X12907D01*
X12972Y18730D01*
Y18533D01*
Y18730D01*
X13038Y18796D01*
X13104D01*
X13169Y18730D01*
Y18533D01*
X12776Y19189D02*
Y18927D01*
X13038Y19189D01*
X13104D01*
X13169Y19124D01*
Y18993D01*
X13104Y18927D01*
X25935Y16260D02*
X25804D01*
X25869D01*
Y15866D01*
X25935D01*
X25804D01*
X25607D02*
Y16129D01*
X25410D01*
X25345Y16063D01*
Y15866D01*
X25148Y16194D02*
Y16129D01*
X25213D01*
X25082D01*
X25148D01*
Y15932D01*
X25082Y15866D01*
X24689D02*
X24820D01*
X24886Y15932D01*
Y16063D01*
X24820Y16129D01*
X24689D01*
X24623Y16063D01*
Y15997D01*
X24886D01*
X24361Y15735D02*
X24295D01*
X24230Y15801D01*
Y16129D01*
X24426D01*
X24492Y16063D01*
Y15932D01*
X24426Y15866D01*
X24230D01*
X24098Y16129D02*
Y15866D01*
Y15997D01*
X24033Y16063D01*
X23967Y16129D01*
X23902D01*
X23639D02*
X23508D01*
X23442Y16063D01*
Y15866D01*
X23639D01*
X23705Y15932D01*
X23639Y15997D01*
X23442D01*
X23246Y16194D02*
Y16129D01*
X23311D01*
X23180D01*
X23246D01*
Y15932D01*
X23180Y15866D01*
X22786D02*
X22918D01*
X22983Y15932D01*
Y16063D01*
X22918Y16129D01*
X22786D01*
X22721Y16063D01*
Y15997D01*
X22983D01*
X22327Y16260D02*
Y15866D01*
X22524D01*
X22590Y15932D01*
Y16063D01*
X22524Y16129D01*
X22327D01*
X25328Y15663D02*
X25394Y15728D01*
X25525D01*
X25591Y15663D01*
Y15597D01*
X25525Y15531D01*
X25394D01*
X25328Y15466D01*
Y15400D01*
X25394Y15335D01*
X25525D01*
X25591Y15400D01*
X25131Y15663D02*
Y15597D01*
X25197D01*
X25066D01*
X25131D01*
Y15400D01*
X25066Y15335D01*
X24672D02*
X24803D01*
X24869Y15400D01*
Y15531D01*
X24803Y15597D01*
X24672D01*
X24607Y15531D01*
Y15466D01*
X24869D01*
X24475Y15203D02*
Y15597D01*
X24279D01*
X24213Y15531D01*
Y15400D01*
X24279Y15335D01*
X24475D01*
X24082Y15203D02*
Y15597D01*
X23885D01*
X23819Y15531D01*
Y15400D01*
X23885Y15335D01*
X24082D01*
X23491D02*
X23623D01*
X23688Y15400D01*
Y15531D01*
X23623Y15597D01*
X23491D01*
X23426Y15531D01*
Y15466D01*
X23688D01*
X23295Y15597D02*
Y15335D01*
Y15466D01*
X23229Y15531D01*
X23164Y15597D01*
X23098D01*
X25207Y15187D02*
Y14793D01*
X25010D01*
X24944Y14859D01*
Y15121D01*
X25010Y15187D01*
X25207D01*
X24813Y15056D02*
Y14793D01*
Y14924D01*
X24748Y14990D01*
X24682Y15056D01*
X24616D01*
X24420Y14793D02*
X24288D01*
X24354D01*
Y15056D01*
X24420D01*
X24092D02*
X23960Y14793D01*
X23829Y15056D01*
X23501Y14793D02*
X23632D01*
X23698Y14859D01*
Y14990D01*
X23632Y15056D01*
X23501D01*
X23436Y14990D01*
Y14924D01*
X23698D01*
X23304Y15056D02*
Y14793D01*
Y14924D01*
X23239Y14990D01*
X23173Y15056D01*
X23108D01*
X22386Y14793D02*
X22517Y14924D01*
Y15056D01*
X22386Y15187D01*
X21927D02*
X22189D01*
Y14793D01*
X21927D01*
X22189Y14990D02*
X22058D01*
X21796Y15187D02*
X21533D01*
Y15121D01*
X21796Y14859D01*
Y14793D01*
X21533D01*
X21402D02*
X21271Y14924D01*
Y15056D01*
X21402Y15187D01*
X25404Y14416D02*
X25272Y14154D01*
X25141Y14416D01*
X25010Y14154D02*
X24879D01*
X24944D01*
Y14547D01*
X25010Y14482D01*
X24682Y14154D02*
Y14219D01*
X24616D01*
Y14154D01*
X24682D01*
X24354D02*
X24223D01*
X24288D01*
Y14547D01*
X24354Y14482D01*
X23436Y14154D02*
Y14547D01*
X23632Y14350D01*
X23370D01*
X23239Y14154D02*
X22977Y14416D01*
X22583Y14154D02*
X22845D01*
X22583Y14416D01*
Y14482D01*
X22649Y14547D01*
X22780D01*
X22845Y14482D01*
X22452D02*
X22386Y14547D01*
X22255D01*
X22189Y14482D01*
Y14219D01*
X22255Y14154D01*
X22386D01*
X22452Y14219D01*
Y14482D01*
X21796Y14154D02*
X22058D01*
X21796Y14416D01*
Y14482D01*
X21861Y14547D01*
X21993D01*
X22058Y14482D01*
X21665Y14154D02*
X21533D01*
X21599D01*
Y14547D01*
X21665Y14482D01*
X25850Y13907D02*
X25981D01*
X25915D01*
Y13579D01*
X25981Y13514D01*
X26047D01*
X26112Y13579D01*
X25653Y13514D02*
X25522D01*
X25456Y13579D01*
Y13711D01*
X25522Y13776D01*
X25653D01*
X25719Y13711D01*
Y13579D01*
X25653Y13514D01*
X25325Y13776D02*
Y13514D01*
Y13645D01*
X25259Y13711D01*
X25194Y13776D01*
X25128D01*
X24931Y13514D02*
X24800D01*
X24866D01*
Y13776D01*
X24931D01*
X24538D02*
X24407D01*
X24341Y13711D01*
Y13514D01*
X24538D01*
X24604Y13579D01*
X24538Y13645D01*
X24341D01*
X24210Y13514D02*
Y13776D01*
X24013D01*
X23948Y13711D01*
Y13514D01*
X23423Y13907D02*
Y13514D01*
X23226D01*
X23160Y13579D01*
Y13645D01*
X23226Y13711D01*
X23423D01*
X23226D01*
X23160Y13776D01*
Y13842D01*
X23226Y13907D01*
X23423D01*
X23029Y13776D02*
Y13514D01*
Y13645D01*
X22964Y13711D01*
X22898Y13776D01*
X22832D01*
X22636D02*
Y13579D01*
X22570Y13514D01*
X22373D01*
Y13776D01*
X22242Y13514D02*
X22045D01*
X21980Y13579D01*
X22045Y13645D01*
X22176D01*
X22242Y13711D01*
X22176Y13776D01*
X21980D01*
X21848Y13514D02*
X21717D01*
X21783D01*
Y13907D01*
X21848D01*
X21521Y13514D02*
X21389D01*
X21455D01*
Y13776D01*
X21521D01*
X21193Y13514D02*
Y13776D01*
X20996D01*
X20930Y13711D01*
Y13514D01*
X20537Y13907D02*
Y13514D01*
X20733D01*
X20799Y13579D01*
Y13711D01*
X20733Y13776D01*
X20537D01*
D40*
X19430Y20050D02*
Y19820D01*
X19384Y19774D01*
X19292D01*
X19246Y19820D01*
Y20050D01*
X19154Y19774D02*
X19062D01*
X19108D01*
Y20050D01*
X19154Y20004D01*
X16677Y20279D02*
X16722Y20325D01*
X16814D01*
X16860Y20279D01*
Y20095D01*
X16814Y20049D01*
X16722D01*
X16677Y20095D01*
X16585D02*
X16539Y20049D01*
X16447D01*
X16401Y20095D01*
Y20279D01*
X16447Y20325D01*
X16539D01*
X16585Y20279D01*
Y20233D01*
X16539Y20187D01*
X16401D01*
X18133Y11066D02*
X18179Y11112D01*
X18271D01*
X18317Y11066D01*
Y10883D01*
X18271Y10837D01*
X18179D01*
X18133Y10883D01*
X18041Y10837D02*
X17950D01*
X17996D01*
Y11112D01*
X18041Y11066D01*
X17812D02*
X17766Y11112D01*
X17674D01*
X17628Y11066D01*
Y10883D01*
X17674Y10837D01*
X17766D01*
X17812Y10883D01*
Y11066D01*
X13783Y10800D02*
X13829Y10846D01*
X13921D01*
X13967Y10800D01*
Y10617D01*
X13921Y10571D01*
X13829D01*
X13783Y10617D01*
X13691Y10571D02*
X13599D01*
X13645D01*
Y10846D01*
X13691Y10800D01*
X13461Y10571D02*
X13370D01*
X13416D01*
Y10846D01*
X13461Y10800D01*
X16785Y10515D02*
X16831Y10561D01*
X16923D01*
X16968Y10515D01*
Y10331D01*
X16923Y10285D01*
X16831D01*
X16785Y10331D01*
X16693Y10285D02*
X16601D01*
X16647D01*
Y10561D01*
X16693Y10515D01*
X16280Y10285D02*
X16463D01*
X16280Y10469D01*
Y10515D01*
X16326Y10561D01*
X16417D01*
X16463Y10515D01*
X16073Y13402D02*
Y13172D01*
X16028Y13126D01*
X15936D01*
X15890Y13172D01*
Y13402D01*
X15798Y13356D02*
X15752Y13402D01*
X15660D01*
X15614Y13356D01*
Y13310D01*
X15660Y13264D01*
X15706D01*
X15660D01*
X15614Y13218D01*
Y13172D01*
X15660Y13126D01*
X15752D01*
X15798Y13172D01*
X17293Y13346D02*
Y13163D01*
X17201Y13071D01*
X17110Y13163D01*
Y13346D01*
X17018D02*
Y13071D01*
X16880D01*
X16834Y13117D01*
Y13300D01*
X16880Y13346D01*
X17018D01*
X16559Y13071D02*
X16742D01*
X16559Y13255D01*
Y13300D01*
X16605Y13346D01*
X16696D01*
X16742Y13300D01*
D43*
X14409Y11496D02*
Y12835D01*
X16063D01*
Y11496D02*
Y12835D01*
X14409Y11496D02*
X16063D01*
X22838Y22050D02*
X22884Y22096D01*
X22976D01*
X23022Y22050D01*
Y21867D01*
X22976Y21821D01*
X22884D01*
X22838Y21867D01*
Y21959D01*
X22930D01*
X22746Y21821D02*
Y22096D01*
X22562Y21821D01*
Y22096D01*
X22471D02*
Y21821D01*
X22333D01*
X22287Y21867D01*
Y22050D01*
X22333Y22096D01*
X22471D01*
X21086Y20866D02*
X21270D01*
Y20728D01*
X21178Y20774D01*
X21132D01*
X21086Y20728D01*
Y20636D01*
X21132Y20591D01*
X21224D01*
X21270Y20636D01*
X20994Y20866D02*
Y20682D01*
X20902Y20591D01*
X20811Y20682D01*
Y20866D01*
X20719Y20545D02*
X20535D01*
X20443Y20866D02*
X20351D01*
X20397D01*
Y20591D01*
X20443D01*
X20351D01*
X20214D02*
Y20866D01*
X20030Y20591D01*
Y20866D01*
X23635Y20289D02*
X23681Y20335D01*
X23773D01*
X23819Y20289D01*
Y20105D01*
X23773Y20059D01*
X23681D01*
X23635Y20105D01*
X23360Y20289D02*
X23406Y20335D01*
X23497D01*
X23543Y20289D01*
Y20243D01*
X23497Y20197D01*
X23406D01*
X23360Y20151D01*
Y20105D01*
X23406Y20059D01*
X23497D01*
X23543Y20105D01*
X21086Y19797D02*
X21132Y19842D01*
X21224D01*
X21270Y19797D01*
Y19613D01*
X21224Y19567D01*
X21132D01*
X21086Y19613D01*
X20994Y19842D02*
Y19567D01*
X20811D01*
X20719Y19842D02*
Y19567D01*
Y19659D01*
X20535Y19842D01*
X20673Y19705D01*
X20535Y19567D01*
X24094Y19055D02*
Y19331D01*
X24003Y19239D01*
X23911Y19331D01*
Y19055D01*
X23819Y19331D02*
X23727D01*
X23773D01*
Y19055D01*
X23819D01*
X23727D01*
X23406Y19285D02*
X23452Y19331D01*
X23543D01*
X23589Y19285D01*
Y19239D01*
X23543Y19193D01*
X23452D01*
X23406Y19147D01*
Y19101D01*
X23452Y19055D01*
X23543D01*
X23589Y19101D01*
X23176Y19331D02*
X23268D01*
X23314Y19285D01*
Y19101D01*
X23268Y19055D01*
X23176D01*
X23130Y19101D01*
Y19285D01*
X23176Y19331D01*
X21260Y18573D02*
Y18848D01*
X21168Y18757D01*
X21076Y18848D01*
Y18573D01*
X20847Y18848D02*
X20938D01*
X20984Y18802D01*
Y18619D01*
X20938Y18573D01*
X20847D01*
X20801Y18619D01*
Y18802D01*
X20847Y18848D01*
X20525Y18802D02*
X20571Y18848D01*
X20663D01*
X20709Y18802D01*
Y18757D01*
X20663Y18711D01*
X20571D01*
X20525Y18665D01*
Y18619D01*
X20571Y18573D01*
X20663D01*
X20709Y18619D01*
X20433Y18848D02*
X20341D01*
X20387D01*
Y18573D01*
X20433D01*
X20341D01*
D66*
X18435Y18996D02*
G03*
X18435Y18996I-118J0D01*
G01*
M02*
