G04 Layer_Color=20142*
%FSLAX24Y24*%
%MOIN*%
G70*
G01*
G75*
%ADD44R,0.0493X0.0474*%
%ADD45R,0.0415X0.0415*%
%ADD46R,0.0533X0.0493*%
%ADD47R,0.0434X0.0493*%
%ADD48R,0.0560X0.0438*%
%ADD49R,0.0513X0.0671*%
%ADD50R,0.0513X0.0671*%
%ADD51R,0.0513X0.0671*%
%ADD52C,0.0680*%
%ADD53C,0.0080*%
%ADD54O,0.0552X0.0946*%
%ADD55C,0.1537*%
G04:AMPARAMS|DCode=56|XSize=31.5mil|YSize=118.1mil|CornerRadius=8.9mil|HoleSize=0mil|Usage=FLASHONLY|Rotation=0.000|XOffset=0mil|YOffset=0mil|HoleType=Round|Shape=RoundedRectangle|*
%AMROUNDEDRECTD56*
21,1,0.0315,0.1004,0,0,0.0*
21,1,0.0138,0.1181,0,0,0.0*
1,1,0.0177,0.0069,-0.0502*
1,1,0.0177,-0.0069,-0.0502*
1,1,0.0177,-0.0069,0.0502*
1,1,0.0177,0.0069,0.0502*
%
%ADD56ROUNDEDRECTD56*%
%ADD57C,0.0552*%
%ADD58C,0.0316*%
%ADD59C,0.1300*%
D44*
X19646Y10522D02*
D03*
X19055D02*
D03*
X20768Y12215D02*
D03*
X20177D02*
D03*
X21713Y10807D02*
D03*
X21122D02*
D03*
D45*
X10630Y12913D02*
D03*
Y12283D02*
D03*
Y21181D02*
D03*
X10620Y20551D02*
D03*
D46*
X12116Y10591D02*
D03*
X11467D02*
D03*
D47*
X10758Y22657D02*
D03*
X11289D02*
D03*
D48*
X21585Y16984D02*
D03*
Y15693D02*
D03*
D49*
X22992Y16811D02*
D03*
X24992D02*
D03*
X23992D02*
D03*
D50*
X24992Y13307D02*
D03*
X23992D02*
D03*
D51*
X22992D02*
D03*
D52*
X15140Y20667D02*
D03*
Y19667D02*
D03*
Y18667D02*
D03*
Y17667D02*
D03*
Y16667D02*
D03*
Y15667D02*
D03*
Y14667D02*
D03*
Y13667D02*
D03*
X20140D02*
D03*
Y14667D02*
D03*
Y15667D02*
D03*
Y16667D02*
D03*
Y17667D02*
D03*
Y18667D02*
D03*
Y19667D02*
D03*
Y20667D02*
D03*
X19140Y13667D02*
D03*
X18140D02*
D03*
X18640Y14167D02*
D03*
X11240Y14646D02*
D03*
Y16024D02*
D03*
Y17402D02*
D03*
Y18780D02*
D03*
X22746Y19189D02*
D03*
X21746Y18693D02*
D03*
X22746Y20189D02*
D03*
X21746Y19693D02*
D03*
X22746Y21189D02*
D03*
X21746Y20693D02*
D03*
D53*
X25246Y17941D02*
D03*
Y21941D02*
D03*
D54*
X18150Y22073D02*
D03*
X17150D02*
D03*
X15150D02*
D03*
X16150D02*
D03*
X15650Y23073D02*
D03*
X16650D02*
D03*
X18650D02*
D03*
X17650D02*
D03*
D55*
X14636Y25573D02*
D03*
X19163D02*
D03*
D56*
X15167Y12165D02*
D03*
D57*
X21590Y12657D02*
D03*
X19290Y21450D02*
D03*
X20505Y11447D02*
D03*
X22920Y14560D02*
D03*
X24800Y15380D02*
D03*
D58*
X15167Y12569D02*
D03*
Y11762D02*
D03*
D59*
X12067Y12067D02*
D03*
X24272D02*
D03*
X12067Y24272D02*
D03*
X24272D02*
D03*
M02*
